<svg xmlns="http://www.w3.org/2000/svg" width="147.32" height="50.304" viewBox="21.59 -36.982 147.32 50.304" enable-background="new 21.59 -36.982 147.32 50.304"><path d="M102.137-11.791l-6.4-11.507h12.787l-6.387 11.507zm5.482-11.163h-10.99l5.504 3.448 5.486-3.448zm.143.25l-5.43 3.5v6.285l5.43-9.785zm-11.256.017l5.438 9.782-.004-6.285-5.434-3.497zm-1.25-1.14l-6.396-11.505h12.779l-6.383 11.505zm-5.5-11.182l5.496 3.439 5.486-3.439h-10.982zm5.685 3.775v6.293l5.432-9.787-5.432 3.494zm-5.814-3.488l5.438 9.786-.014-6.287-5.424-3.499zm-.764 23.038l6.4-11.505 6.389 11.505h-12.789zm.893-.326h10.986l-5.49-3.448-5.496 3.448zm5.685-3.763l5.432 3.5-5.432-9.782v6.282zm-5.814 3.492l5.424-3.495.014-6.285-5.438 9.78zm12.51-22.944l6.387 11.498h-12.788l6.401-11.498zm-5.502 11.177h10.982l-5.482-3.446-5.5 3.446zm11.127-.256l-5.43-9.784v6.291l5.43 3.493zm-5.821-3.52l.008-6.287-5.436 9.786 5.428-3.499zm-13.564-7.401l6.385 11.498h-12.783l6.398-11.498zm0 7.731l-5.506 3.441h10.99l-5.484-3.441zm-5.631 3.176l5.422-3.495.016-6.287-5.438 9.782zm5.815-9.769v6.285l5.432 3.498-5.432-9.783zm-6.575 10.805h12.781l-6.381 11.505-6.4-11.505zm.885.328l5.504 3.448 5.484-3.448h-10.988zm11.113.25l-5.438 3.5v6.285l5.438-9.785zm-5.826 3.526l-5.432-3.491 5.441 9.775-.009-6.284zm-14.736 26.927h2.893c.307 0 .516-.07.566-.289.047-.162-.031-.354-.146-.43-.16-.124-.365-.086-.58-.124-.232-.047-.463-.183-.463-.474v-9.13l3.77 7.18c.209.361.572.361.725.04l3.688-7.333v9.13c0 .518-.66.656-1.096.674-.266 0-.43.309-.35.477.055.17.205.268.453.268h4.047c.291 0 .365-.098.43-.254.049-.154-.07-.491-.309-.491-.406 0-1.004-.188-1.004-.674l-.028-10.102c0-.192.02-.591.145-.81.102-.167.307-.303.848-.328.396-.04.57-.743-.127-.743h-2.52c-.197 0-.312.096-.367.192l-3.678 7.459-4.069-7.459c-.057-.12-.217-.181-.422-.181h-2.346c-.68 0-.617.754-.137.741.602-.011.975.158.975.665l-.008 10.717c0 .349-.426.433-.898.5-.256.019-.424.326-.344.523.067.144.178.256.352.256zm-51.746-12.237c.076-.361.51-.522.846-.667.562-.229 1.145-.379 1.731-.479 2.246-.406 4.776-.384 6.05 1.207.873 1.094.82 2.854-.129 3.873-.488.509-1.498.957-1.948 1.028.413 0 .834.156 1.213.309.377.139 1.01.603 1.47 1.113.96 1.116.737 2.936.009 4.172-.408.711-1.136 1.192-1.845 1.514-1.191.55-2.573.518-3.873.395-1.125-.119-2.276-.221-3.26-.842-.19-.143-.412-.399-.333-.639.11-.308.499-.308.658-.375.169-.08.213-.209.213-.348l.039-9.38c0-.149-.01-.252-.08-.252-.347-.006-.835-.274-.761-.629zm2.944 9.898c0 .361.085.877.237 1.039.265.324.79.451 1.214.503.765.085 1.586-.071 2.193-.558 1.201-.918 1.301-2.879.523-4.189-.299-.525-.807-.877-1.378-1.059-.43-.129-1.298-.133-1.494-.167-.316-.052-.523-.431-.375-.705.183-.321.606-.274.956-.307.619-.074 1.273-.241 1.705-.692.541-.522.713-1.343.589-2.064-.081-.603-.312-1.248-.809-1.611-.642-.473-1.666-.558-2.44-.266-.439.165-.921.486-.921.995v9.081zm66.349 1.884c-.691 1.348-1.48 2.629-2.379 3.836-.047.084-.121.244.098.244h1.436c.154 0 .227 0 .326-.277l4.389-10.659c.172-.451.393-.486.809-.535.225-.025.307-.574-.176-.574h-2.566c-.576 0-.414.564-.154.574.299.013.52.031.66.06.291.075.363.415.252.649l-1.799 4.582-2.004-4.66c-.07-.184-.049-.4.139-.497.162-.106.455-.098.553-.098.262-.009.416-.613-.182-.613h-3.172c-.584 0-.432.604-.145.604.486 0 .744.203.938.653l2.977 6.711zm49.707-2.016v-5.4c0-.193-.014-.424-.193-.531-.141-.049-.307.025-.533.111l-1.747.642c-.318.097-.355.434-.197.576.098.105.281.114.447.114.293 0 .443.239.443.366l.047 4.305c0 .732.131 1.361.58 1.803.576.576 1.471.697 2.328.623.777-.047 1.551-.393 2.094-.935l.17.808h2.332c.615 0 .615-.653.133-.653-.326 0-.562-.164-.768-.33-.107-.084-.191-.276-.191-.62v-6.383c0-.276-.143-.397-.264-.433-.146-.049-.389.04-.527.096l-1.723.715c-.303.141-.312.43-.219.572.076.088.191.097.291.097.375-.009.643.111.643.333l.014 4.046c.002 2.062-3.16 2.512-3.16.078zm-13.084-3.618c-1.082-1.084-3.521-2.859-4.131-3.22-.596-.371-.932-1.169-.764-1.854.113-.449.412-.815.791-1.029.535-.294 1.334-.272 1.76-.136 1.031.333 1.859 1.06 2.428 1.939.141.208.506.06.586-.176.057-.152.057-.344.057-.476-.039-.779-.193-1.641-.525-2.312-.061-.143-.207-.373-.418-.373-.52-.042-.314.433-.818.509-.107 0-.318-.047-.486-.083-.588-.172-1.266-.279-1.943-.252-.869.036-1.762.261-2.426.783-.875.712-1.215 1.964-.947 3.062.219.907.973 1.638 1.701 2.248 1.08.903 2.494 1.562 3.393 2.582.494.562.812 1.236.785 2.071-.018.543-.299 1.103-.746 1.475-.539.427-1.299.514-1.945.453-.705-.033-1.406-.396-1.947-.879l-.998-1.158c-.215-.154-.541-.234-.732-.027-.141.144-.141.432-.125.545l.566 2.444c.049.227.291.342.424.342.424 0 .705-.482 1.107-.482.299 0 .562.191.852.244 1.068.236 2.336.299 3.398-.184.762-.326 1.467-.956 1.816-1.743.67-1.451.341-3.231-.713-4.313zm32.035 3.78c.549-1.527.559-3.382-.4-4.672-.559-.766-1.49-1.404-2.426-1.417-.525 0-1.105.038-1.6.29-.242.143-.588.475-.43.754.07.109.139.168.334.168.25.011.479-.189.715-.234.445-.088.92-.033 1.295.259.781.616.887 2.026.896 2.702 0 .104-.01 2.045-.566 2.861-.453.76-1.512 1.061-2.346.732-.422-.156-.781-.598-.781-1.018v-11.25c0-.197-.047-.366-.213-.433-.119-.061-.281-.042-.574.096l-1.668.726c-.322.147-.432.364-.277.571.115.116.334.154.484.154.258 0 .504.259.504.487v9.996c0 .285-.562.165-.789.301-.199.117-.23.402-.076.559.076.078.225.184.35.227 1.191.572 2.572.777 3.939.703.857-.051 1.781-.285 2.432-.809.549-.462.959-1.056 1.197-1.753zm6.105-6.098c-.525 0-1.117.037-1.604.287-.238.148-.58.477-.422.757.061.109.133.144.324.167.205.027.49-.207.721-.231.439-.069.908-.04 1.285.257.777.615.875 2.028.906 2.705 0 .1-.033 2.031-.572 2.863-.459.759-1.512 1.057-2.355.732-.41-.161-.781-.604-.781-1.019v-11.254c0-.192-.049-.361-.201-.446-.127-.049-.277-.024-.584.109l-1.668.728c-.328.147-.438.366-.277.571.104.121.334.156.486.156.244 0 .496.25.496.48v9.999c0 .272-.551.165-.803.299-.18.116-.213.406-.062.554.076.084.229.184.357.237 1.189.57 2.57.783 3.932.705.861-.053 1.785-.291 2.441-.816.539-.452.955-1.054 1.189-1.741.533-1.527.561-3.375-.398-4.684-.538-.761-1.671-1.404-2.41-1.415zm-27.941 11.692c-.188-.16-.516-.012-.744-.143l-.111-.111c-.062-.059-.104-.174-.129-.254l.014-7.442c0-1.201-.021-2.584.256-3.787.025-.154-.184-.299-.328-.342-.176-.035-.354.061-.512.161-.238.158-.408.429-.52.729-1.629-.783-3.787-.816-5.092.507-.664.685-1.057 1.716-1.143 2.591-.145 1.205-.021 2.486.588 3.516.4.656 1.016 1.192 1.783 1.403.604.188 1.32.162 1.914 0 .459-.119 1.027-.473.861-.892-.133-.37-.648-.132-.982-.031-.502.144-1.021.031-1.35-.241-.406-.337-.641-.906-.748-1.348-.297-1.186-.314-2.631.229-3.81.207-.446.523-.849.961-1.069.398-.191.875-.181 1.283-.049.334.098.525.193.73.431.191.252.303.634.303.88v8.688c0 .178-.088.393-.246.502-.273.143-.676-.057-.904.143-.137.111-.18.303-.076.432.076.145.26.145.422.176h2.984c.238-.031.566 0 .664-.215.081-.132 0-.316-.107-.425zm-38.719-4.17c-.605-.188-1.125-.764-1.359-1.271-.521-1.174-.529-2.538-.111-3.751.182-.599.52-1.192 1.096-1.445.389-.172.818-.225 1.221-.066.451.194.814.609.895 1.094.047.316-.141.77-.322.901l-2.211 1.446c-.221.143-.322.518-.148.728.141.196.5.165.701.047l3.166-1.919c.396-.234.771-.666.721-1.168-.084-.74-.711-1.344-1.352-1.674-1.352-.709-3.143-.58-4.371.333-1.408 1.051-1.838 3.001-1.473 4.711.264 1.285 1.215 2.458 2.486 2.917.924.309 2.043.299 2.904.027.357-.1.707-.26.98-.434.387-.23.779-.522.967-.871.09-.156.146-.333.133-.518-.051-.203-.32-.335-.525-.274-.396.123-.945.792-1.455 1.016-.556.28-1.327.362-1.943.171zm12.891-4.782c-.141-.109-.5-.35-.623-.768-.08-.299.1-.665.371-.871.504-.361 1.246-.153 1.752.206.385.306.703.714.926 1.085.127.217.602-.078.555-.283l-.357-1.748c-.037-.181-.143-.288-.305-.304-.309-.047-.502.304-.57.269-.904-.302-2-.463-2.928-.047-.432.156-.828.463-1.055.903-.334.587-.32 1.356 0 1.939.18.349.418.596.699.806.754.568 1.615 1.136 2.43 1.662.549.346.807 1.168.43 1.682-.256.348-.729.477-1.16.477-.725-.053-1.357-.518-1.787-1.089-.236-.268-.438-.689-.797-.575-.152.049-.34.223-.266.575l.318 1.812c.031.143.143.236.232.236.281 0 .297-.156.504-.24.17-.066.316-.113.5-.098l.664.205c1.309.271 2.951-.094 3.562-1.334.344-.715.307-1.666-.156-2.319-1.097-1.547-1.529-.971-2.939-2.181zm-68.049 3.924c-.232-.281-.438-.691-.789-.58-.154.047-.328.217-.264.58l.311 1.794c.027.141.143.238.232.238.279 0 .297-.152.504-.25.166-.07.32-.094.498-.084.24.029.428.154.666.205 1.309.273 2.951-.105 3.555-1.334.352-.727.301-1.666-.16-2.322-1-1.432-1.469-.989-2.918-2.176-.141-.105-.496-.359-.619-.762-.09-.306.094-.672.363-.873.504-.367 1.258-.158 1.746.201.393.306.707.707.932 1.092.129.217.598-.085.562-.286l-.363-1.761c-.041-.17-.143-.281-.305-.299-.303-.045-.494.299-.57.276-.887-.304-2.002-.458-2.93-.062-1.133.495-1.689 1.653-1.057 2.856.186.34.42.596.695.809.752.562 1.611 1.117 2.438 1.66.557.348.803 1.162.428 1.683-.258.347-.729.476-1.17.462-.713-.045-1.349-.5-1.785-1.067zm-7.749-6.606l-.306.104c-.484.184-.812.641-1.031 1.105v-1.018c0-.244-.176-.288-.521-.156l-1.991.799c-.277.109-.304.393-.168.524.096.122.287.134.434.134.222 0 .501.027.501.299v5.523c0 .393-.571.224-.874.393-.193.094-.221.375-.113.526.05.047.128.123.285.123h3.218c.188 0 .341-.123.381-.281.02-.086-.021-.227-.12-.321-.241-.205-.644-.012-.86-.238-.073-.089-.137-.146-.137-.254v-4.185c0-.625.264-1.322.829-1.613.142-.08.333-.107.505-.096.327.027.661.139.942.368.077.083.189.054.258-.049l.612-.841c.271-.398-.425-.775-.861-.871-.334-.071-.656-.049-.983.025zm71.181 0l-.303.104c-.498.184-.816.641-1.027 1.105v-1.018c0-.244-.191-.288-.525-.156l-1.988.799c-.281.109-.311.393-.17.524.1.122.291.134.432.134.225 0 .502.027.502.299v5.523c0 .393-.57.224-.877.393-.197.094-.215.375-.107.526.047.047.117.123.273.123h3.219c.197 0 .354-.123.391-.281.014-.086-.027-.227-.121-.321-.24-.205-.645-.013-.867-.238-.066-.089-.137-.146-.137-.254v-4.185c0-.625.258-1.322.816-1.613.145-.08.34-.107.514-.096.334.027.662.139.943.368.078.083.191.054.256-.049l.609-.841c.27-.398-.43-.775-.857-.871-.32-.071-.652-.049-.976.025zm-53.463 8.021c.123-.098.238-.362.176-.553-.043-.145-.176-.23-.363-.248-.396-.061-.596.268-1.053.248-.283-.004-.484-.248-.484-.601v-5.581c0-.182.146-.355.303-.355h1.238c.361 0 .361-.712 0-.712h-1.54v-3.191c0-.29-.188-.366-.379-.27l-1.263.702c-.113.064-.156.141-.156.286v2.476h-1.092c-.344 0-.344.711 0 .711h.824c.18 0 .266.099.266.355v5.579c0 .607.35 1.335.791 1.529.531.27 1.248.242 1.76.098.435-.118.755-.282.972-.473zm18.336-2.993c.107 0 .203-.111.203-.21v-.944c0-.106-.096-.205-.203-.205h-4.303c-.094 0-.201.099-.201.205v.944c0 .099.107.21.201.21h4.303zm-8.772 3.321h3.277c.254 0 .369-.451.129-.618-.158-.109-.467-.072-.676-.141-.17-.052-.299-.23-.299-.371v-12.187c0-.206-.188-.337-.576-.194l-1.832.754c-.311.118-.398.44-.268.583.064.058.162.096.244.096.488 0 .67.083.67.556v10.39c0 .184-.117.321-.244.371-.252.115-.67-.036-.789.272-.081.221.077.489.364.489zm-21.258-.647c-.326-.018-.471-.051-.578-.149-.113-.076-.232-.239-.232-.394v-6.925c0-.216-.281-.38-.547-.252l-2.064.846c-.189.094-.264.349-.122.495.09.074.192.111.279.111.277.012.667.072.667.469v5.256c0 .164-.274.432-.488.453-.268.039-.527.137-.537.348-.021.211.128.365.358.365h3.157c.232 0 .332-.139.361-.24 0-.133-.048-.366-.254-.383zm108.018-.158c-.109-.08-.23-.239-.23-.391v-6.928c0-.219-.275-.379-.543-.252l-2.061.848c-.197.094-.273.348-.127.496.084.073.197.111.281.111.271.009.664.071.664.469v5.26c0 .186-.275.429-.482.449-.266.037-.533.141-.547.348-.01.209.131.359.365.359h3.158c.227 0 .324-.137.359-.238 0-.137-.047-.362-.254-.385-.321-.002-.476-.049-.583-.146zm-1.215-11.979c-.617 0-1.129.511-1.129 1.118 0 .632.512 1.143 1.129 1.143.619 0 1.115-.513 1.115-1.143 0-.607-.496-1.118-1.115-1.118zm-107.469 1.129c0-.621-.512-1.118-1.117-1.118-.629 0-1.144.5-1.144 1.118 0 .616.515 1.125 1.144 1.125.606.002 1.117-.506 1.117-1.125zm18.803 11.512c-1.195.58-3.139.561-4.445-.143-1.145-.619-2.096-2.709-1.953-4.178.193-2.024 1.061-3.094 2.295-3.589 1.566-.622 3.23-.427 4.229.085 1.221.641 2.047 1.898 2.09 3.372.144 1.523-.624 3.676-2.216 4.453zm-3.795-6.514c-.812 1.088-.936 3.506-.191 4.904.84 1.577 2.855 1.459 3.719.047.738-1.207.844-3.506-.033-4.838-.829-1.261-2.448-1.453-3.495-.113z" fill="#142A3E"/></svg>