<svg xmlns="http://www.w3.org/2000/svg" width="150" height="54.902"><path d="M39.291.504c-14.884 0-26.949 12.064-26.949 26.947 0 14.884 12.065 26.947 26.949 26.947 14.884 0 26.949-12.063 26.949-26.947 0-14.883-12.065-26.948-26.949-26.947zm-.093 52.414c-14.132 0-25.591-11.457-25.591-25.59 0-14.134 11.458-25.591 25.591-25.591 14.134-.002 25.591 11.456 25.591 25.59 0 14.132-11.457 25.591-25.591 25.591zm-17.273-19.087v1.383h4.768s7.462 1.06 7.462-7.763c0-8.82-5.39-7.992-12.23-7.992v11.124h1.382v-9.948h4.734s3.765.207 4.663 4.491c.897 4.284-.829 8.705-5.805 8.705h-4.974zm12.23-14.393s.899.735 1.221 1.195h4.56s3.824.092 3.824 3.315-2.027 3.823-3.501 3.823h-4.468v7.479h1.382v-6.14h3.132s3.961-.138 4.698-3.132c.737-2.995-.277-6.54-4.515-6.54h-6.333zm21.765.735l-.691 1.062s-6.725-2.118-7.186 1.89c-.461 4.006 5.112 2.762 6.955 3.868 1.843 1.104 2.856 3.868 1.566 6.034-1.29 2.163-5.619 3.776-10.041 1.197l.83-.969s6.586 2.396 8.245-1.289c.782-1.796-.875-4.33-4.054-4.515-3.178-.184-4.79-1.012-5.021-4.375s4.975-4.93 9.397-2.903zm23.525 1.46c-.049-1.053-.109-2.322-.098-3.424h-.037c-.266.992-.605 2.093-.968 3.122l-1.198 3.533h-1.138l-1.089-3.485c-.315-1.041-.605-2.153-.823-3.17h-.024c-.036 1.065-.084 2.359-.145 3.474l-.182 3.278h-1.392l.544-8.155h1.96l1.065 3.278c.29.956.544 1.924.75 2.832h.036c.218-.883.496-1.888.811-2.844l1.125-3.267h1.936l.473 8.155h-1.452l-.154-3.327zm4.676 1.017l-.701 2.311h-1.537l2.613-8.155h1.9l2.649 8.155h-1.608l-.738-2.311h-2.578zm2.336-1.126l-.643-2.009c-.156-.496-.289-1.054-.41-1.524h-.024c-.121.472-.254 1.041-.388 1.524l-.629 2.009h2.094zm3.723-4.598c.568-.108 1.393-.181 2.25-.181 1.174 0 1.961.193 2.518.653.447.375.701.943.701 1.646 0 1.054-.714 1.768-1.488 2.033v.037c.594.218.945.786 1.139 1.573.268 1.017.484 1.96.643 2.274h-1.525c-.12-.242-.326-.907-.545-1.924-.241-1.064-.616-1.404-1.463-1.428h-.752v3.352h-1.476l-.002-8.035zm1.474 3.594h.885c1.004 0 1.621-.532 1.621-1.344 0-.883-.617-1.307-1.586-1.307-.472 0-.773.037-.92.073v2.578zm5.407-3.715h1.477v3.751h.037c.192-.315.397-.605.593-.884l2.142-2.867h1.827l-2.808 3.473 2.988 4.683h-1.742l-2.299-3.738-.738.87v2.868h-1.477v-8.156zm11.599 4.538h-3.073v2.396h3.437v1.222h-4.925v-8.155h4.743v1.222h-3.255v2.104h3.073v1.211zm3.348-3.291h-2.323v-1.246h6.159v1.246h-2.348v6.909h-1.488v-6.909zm6.275-1.247v8.155h-1.487v-8.155h1.487zm1.693 8.156v-8.155h1.706l2.105 3.496c.533.908 1.017 1.853 1.392 2.735h.024c-.108-1.089-.133-2.142-.133-3.388v-2.844h1.379v8.155h-1.549l-2.129-3.594c-.521-.896-1.054-1.888-1.453-2.807l-.049.012c.061 1.053.086 2.13.086 3.473v2.916h-1.379zm14.721-.375c-.521.193-1.537.459-2.614.459-1.38 0-2.433-.351-3.206-1.089-.727-.688-1.139-1.767-1.139-3.001.013-2.589 1.84-4.235 4.539-4.235 1.004 0 1.789.206 2.164.388l-.326 1.198c-.447-.206-.991-.352-1.852-.352-1.742 0-2.965 1.028-2.965 2.928 0 1.852 1.139 2.952 2.832 2.952.544 0 .932-.071 1.125-.157v-2.045h-1.439v-1.174h2.881v4.128zm-60.503 10.157l-.702 2.312h-1.537l2.614-8.156h1.9l2.65 8.156h-1.609l-.738-2.312h-2.578zm2.335-1.126l-.643-2.009c-.156-.496-.29-1.053-.411-1.524h-.024c-.121.473-.254 1.041-.387 1.524l-.629 2.009h2.094zm3.709 3.437v-8.156h1.707l2.104 3.497c.532.907 1.017 1.852 1.392 2.734h.024c-.108-1.089-.133-2.142-.133-3.388v-2.844h1.379v8.156h-1.55l-2.129-3.595c-.521-.896-1.053-1.888-1.453-2.807l-.047.012c.061 1.053.084 2.13.084 3.474v2.916h-1.378zm8.188-8.047c.665-.097 1.488-.169 2.371-.169 1.525 0 2.564.314 3.314.943.799.642 1.283 1.622 1.283 3.001 0 1.464-.496 2.541-1.271 3.243-.812.738-2.105 1.113-3.69 1.113-.859 0-1.513-.049-2.009-.109l.002-8.022zm1.488 6.92c.205.037.521.037.822.037 1.937.013 3.086-1.064 3.086-3.134.012-1.79-1.028-2.83-2.891-2.83-.473 0-.799.036-1.017.084v5.843zm9.275-6.92c.664-.097 1.487-.169 2.37-.169 1.525 0 2.565.314 3.315.943.799.642 1.283 1.622 1.283 3.001 0 1.464-.496 2.541-1.271 3.243-.811.738-2.105 1.113-3.689 1.113-.859 0-1.514-.049-2.01-.109v-8.022h.002zm1.488 6.92c.205.037.521.037.822.037 1.937.013 3.086-1.064 3.086-3.134.012-1.791-1.028-2.831-2.892-2.831-.473 0-.799.036-1.017.084v5.844zm11.333-2.491h-3.072v2.396h3.437v1.223h-4.925v-8.156h4.742v1.222h-3.254v2.105h3.072v1.21zm1.642 1.996c.472.277 1.209.521 1.973.521.943 0 1.476-.448 1.476-1.113 0-.616-.411-.979-1.438-1.354-1.355-.484-2.215-1.198-2.215-2.372 0-1.343 1.112-2.347 2.893-2.347.883 0 1.523.192 1.947.41l-.352 1.198c-.303-.157-.871-.387-1.633-.387-.943 0-1.344.496-1.344.979 0 .63.472.92 1.562 1.344 1.414.531 2.092 1.246 2.092 2.42 0 1.318-.992 2.457-3.086 2.457-.871 0-1.767-.242-2.213-.521l.338-1.235zm7.789-6.534v8.156h-1.488v-8.156h1.488zm8.238 7.781c-.521.192-1.537.459-2.614.459-1.379 0-2.432-.352-3.205-1.09-.728-.688-1.139-1.767-1.139-3.001.012-2.589 1.839-4.234 4.538-4.234 1.004 0 1.79.206 2.165.387l-.326 1.198c-.447-.206-.992-.352-1.852-.352-1.742 0-2.965 1.028-2.965 2.929 0 1.851 1.138 2.951 2.832 2.951.543 0 .932-.071 1.125-.156v-2.045h-1.439v-1.175h2.88v4.129zm1.507.375v-8.156h1.706l2.104 3.497c.533.907 1.018 1.852 1.393 2.734h.023c-.107-1.089-.133-2.142-.133-3.388v-2.844h1.379v8.156h-1.549l-2.129-3.595c-.521-.896-1.053-1.888-1.451-2.807l-.049.012c.061 1.053.084 2.13.084 3.474v2.916h-1.378z"/></svg>