<svg xmlns="http://www.w3.org/2000/svg" width="231.118" height="88.766"><g fill="#fff"><path d="M42.048 2.734c-23 0-41.647 18.642-41.647 41.646 0 23.001 18.647 41.651 41.647 41.651 23.001 0 41.648-18.65 41.648-41.651 0-23.003-18.646-41.646-41.648-41.646zm-.139 81.004c-21.843 0-39.551-17.703-39.551-39.552 0-21.84 17.708-39.551 39.551-39.551 21.84 0 39.549 17.71 39.549 39.551 0 21.849-17.708 39.552-39.549 39.552zm-26.699-29.497v2.136h7.369s11.528 1.64 11.528-11.996c0-13.631-8.326-12.353-18.897-12.353v17.196h2.135v-15.379h7.314s5.821.317 7.208 6.939c1.388 6.62-1.28 13.457-8.968 13.457h-7.689zm18.898-22.248s1.393 1.141 1.89 1.852h7.047s5.909.139 5.909 5.128c0 4.981-3.132 5.905-5.41 5.905h-6.907v11.563h2.137v-9.496h4.84s6.123-.217 7.26-4.841c1.138-4.625-.424-10.11-6.978-10.11l-9.788-.001zm33.641 1.142l-1.069 1.634s-10.392-3.275-11.105 2.92c-.711 6.194 7.902 4.271 10.751 5.98 2.846 1.708 4.413 5.982 2.418 9.328-1.991 3.346-8.684 5.835-15.52 1.852l1.282-1.502s10.179 3.708 12.741-1.989c1.212-2.775-1.352-6.693-6.263-6.978-4.912-.282-7.403-1.563-7.76-6.762-.355-5.198 7.689-7.619 14.525-4.483zm53.386 2.132c-4.405-12.141-16.146-8.538-16.146-8.538-12.143 4.134-14.146 18.013-12.275 26.416 1.867 8.412 8.669 11.476 14.943 9.345 6.272-2.134 17.881-15.08 13.478-27.223zm-13.396 25.141c-5.207 1.887-10.86-.827-12.41-8.255-1.546-7.428.114-19.692 10.193-23.352 0 0 9.75-3.181 13.407 7.548 3.659 10.735-5.983 22.175-11.19 24.059zm14.363-9.796s1.03-1.133.632-1.8c-.398-.67 0-3.604 2.87-.736 2.868 2.87 4.402 3.67 2.271 6.54-2.137 2.87-3.938 5.612-3.406 6.375.536.764 5.135-5.239 6.003-4.106.871 1.138 1.136 1 0 2.204-1.131 1.196-5.403 6.799-8.007 4.669-2.603-2.137 2.538-9.006 3.34-10.072.8-1.071.668-1.405 0-1.938s-.668-1.465-2.604 1.334c-1.934 2.805-4.733 6.873-5.805 5.007-1.064-1.876 1.35-1.54 4.706-7.477zm76.244 9.562c-2.218 2.053-2.674-1.243-2.937-2.398-.266-1.157.089-2.493 1.066-3.736.981-1.246 3.295-5.159 5.072-9.072 1.779-3.916 4.54-13.435.979-14.323-3.556-.89-5.604 7.65-8.275 16.902-2.664 9.246-.889 10.05-.889 10.05h-1.064c-1.067 0-3.249 2.56-4.385 3.823-1.131 1.272.47-4.997.802-5.601.334-.6.936-1.265-.198-2.269-1.136-.998-7.005 5.871-7.805 6.47-.799.602-4.537 1.668 1.069-5.466 5.6-7.142 7.47-4.738 7.739-3.938.266.799.4 1.267 1.196.937.802-.334 1.736-2.737-.931-4.081-4.938-2.475-12.407 8.813-12.541 9.614-.138.8-2.608 4.536-3.538 3.674-1.204-1.406 2.069-8.61.666-10.275-1.402-1.669-7.007 5.335-8.203 7.134-1.202 1.804.864-4.003 2.13-6.869 1.271-2.864.47-3.002-.73-3.27-1.2-.267-3.404 7.402-3.67 8.34-.27.931-3.603 3.538-4.805 4.54-1.196.999 1.799-9.743 2.469-11.077.668-1.337-1.002-1.803-1.002-1.803-.689-.355-1.001.685-1.001.685s-1.955 4.632-2.585 7.742c-.615 3.115-.883 5.514.63 6.855 1.51 1.327 5.6-2.761 5.6-2.761-.354 2.667 1.153 2.761 1.868 2.313s3.562-4.184 5.433-6.317c1.866-2.135.884.439.884 2.045 0 1.603-1.244 5.158 1.962 5.426 3.199.265 3.643-4.18 4.355-2.225 2.135 4.893 6.847-1.599 7.383-2.222.534-.628-.447 3.021.089 4.188 1.513 2.588 4.271.081 5.514-1.077 1.249-1.155 1.783-4.09 2.935-1.374 1.158 2.71 3.295 2.44 4.451 2.44 1.153 0 3.471-2.222 4.448-3.38.978-1.155.715-1.688-.089-2.667-.801-.978-1.869.979-4.092 3.023zm3.289-26.601c1.155.267-3.647 15.033-5.246 16.106 0 0 4.091-16.369 5.246-16.106z"/><circle cx="138.3" cy="41.582" r="1.958"/><circle cx="162.389" cy="41.582" r="1.958"/><path d="M155.36 57.419c-.536-.736-1.334-.67-2.668.668-1.335 1.332-.935.132-.467-1.068.467-1.2.866-1.672 0-2.74-.868-1.064-1.734-.196-2.474.536-.732.736-5.603 4.005-6.932 4.871-1.336.867-2.342-.599-1.607-2.404 2.609-5.266 9.677-9.672 10.011-9.069.334.601-2.472 1.602-1.536 2.936.933 1.331 2.404-.336 3.271-1.268.868-.932 2.868-3.002.599-4.204-4.604-2.468-13.744 8.878-14.143 10.211-.399 1.33-2.604 3.002-4.269 4.202-1.664 1.204.402-4.34 1.402-7.61 1-3.267 1.799-3.736.602-4.869-1.203-1.128-2.004.736-2.004.736-.6 2.27-3.803 11.743-2.27 13.747 1.539 1.995 3.938-.405 4.74-1.102.798-.696.33-1.372 2.604.63 2.265 2.004 6.934-2.002 8.401-3.269 1.469-1.268.599 1.4.331 2.639-.261 1.237-2.799 3.368-3.922 4.57-1.117 1.196-8.351 6.937-5.018 10.073 3.342 3.135 8.608-8.143 9.207-9.804.602-1.664-.33-.607 2.938-3.938 3.27-3.341 3.736-3.744 3.204-4.474zm-13.587 15.744c-.801-.706 3.823-4.628 3.823-4.628s-3.021 5.339-3.823 4.628z"/></g><path d="M153.743 70.605v3.922h4.912v-3.922h.634v8.899h-.634v-4.451h-4.912v4.451h-.634v-8.899h.634zm12.93 4.475h-3.552v3.896h3.973v.528h-4.606v-8.899h4.398v.528h-3.765v3.42h3.552v.527zm4.097 1.309l-1.097 3.115h-.646l3.222-8.897h.607l3.193 8.897h-.647l-1.121-3.115h-3.511zm3.327-.53l-1.082-2.969c-.225-.622-.343-1.071-.462-1.573h-.04c-.12.517-.264.978-.462 1.547l-1.083 2.995h3.129zm4.389-5.254h.633v8.371h3.961v.528h-4.596v-8.899h.002zm7.634.529h-2.904v-.528h6.444v.528h-2.904v8.371h-.634v-8.371h-.002zm6.142-.529v3.922h4.912v-3.922h.634v8.899h-.634v-4.451h-4.912v4.451h-.631v-8.899h.631zm14.781 8.581c-.449.225-1.308.449-2.404.449-2.151 0-4.212-1.372-4.212-4.527 0-2.642 1.704-4.649 4.518-4.649 1.135 0 1.795.252 2.058.397l-.198.528c-.447-.225-1.095-.383-1.848-.383-2.402 0-3.868 1.557-3.868 4.119 0 2.416 1.373 3.973 3.763 3.973.751 0 1.49-.158 2.006-.409l.185.502zm3.624-2.797l-1.098 3.115h-.647l3.223-8.897h.606l3.196 8.897h-.647l-1.124-3.115h-3.509zm3.327-.53l-1.083-2.969c-.225-.622-.344-1.071-.464-1.573h-.038c-.119.517-.265.978-.464 1.547l-1.08 2.995h3.129zm4.387-5.123c.555-.131 1.308-.198 1.927-.198 1.164 0 1.902.251 2.404.755.383.356.619.949.619 1.571 0 1.2-.712 1.967-1.742 2.323v.026c.712.225 1.162.896 1.372 1.888.304 1.387.476 2.047.662 2.403h-.647c-.146-.264-.33-1.043-.569-2.164-.277-1.281-.832-1.862-2.008-1.917h-1.386v4.081h-.634v-8.769h.002zm.634 4.172h1.412c1.372 0 2.27-.766 2.27-1.941 0-1.357-1.002-1.914-2.402-1.914-.607 0-1.057.066-1.281.119v3.736h.001zm11.279.172h-3.552v3.896h3.975v.528h-4.608v-8.899h4.396v.528h-3.762v3.42h3.552v.527z" fill="#fff" stroke="#fff" stroke-miterlimit="10"/></svg>