<svg xmlns="http://www.w3.org/2000/svg" width="231.118" height="88.766"><path d="M60.137 2.558c-23.1 0-41.825 18.728-41.825 41.824 0 23.1 18.725 41.824 41.825 41.824 23.101 0 41.826-18.727 41.826-41.824s-18.725-41.825-41.826-41.824zm-.144 81.351c-21.934 0-39.718-17.782-39.718-39.719s17.784-39.72 39.718-39.72c21.937-.002 39.718 17.783 39.718 39.72 0 21.935-17.781 39.719-39.718 39.719zm-26.809-29.623v2.146h7.4s11.58 1.646 11.58-12.047-8.363-12.405-18.981-12.405v17.269h2.147v-15.447h7.347s5.845.321 7.238 6.972c1.394 6.647-1.289 13.514-9.009 13.514l-7.722-.002zm18.98-22.338s1.397 1.142 1.897 1.854h7.075s5.936.142 5.936 5.147-3.146 5.934-5.433 5.934h-6.935v11.608h2.145v-9.531h4.862s6.146-.214 7.291-4.862c1.145-4.646-.429-10.146-7.007-10.146-6.576-.004-9.831-.004-9.831-.004zm33.782 1.139l-1.072 1.646s-10.437-3.288-11.152 2.935c-.717 6.218 7.934 4.287 10.794 6.005 2.859 1.715 4.433 6.004 2.43 9.364-2.002 3.354-8.721 5.861-15.584 1.856l1.287-1.501s10.223 3.716 12.797-2.001c1.215-2.789-1.358-6.721-6.292-7.008-4.934-.284-7.434-1.571-7.792-6.789-.358-5.221 7.722-7.652 14.584-4.507zm36.508 2.267c-.074-1.633-.17-3.604-.148-5.312h-.059c-.412 1.539-.937 3.248-1.502 4.843l-1.855 5.481h-1.766l-1.688-5.406c-.489-1.613-.939-3.34-1.276-4.918h-.038c-.057 1.648-.131 3.662-.227 5.388l-.281 5.086h-2.159l.844-12.649h3.042l1.653 5.086c.449 1.48.846 2.983 1.16 4.393h.059c.34-1.369.771-2.927 1.258-4.41l1.748-5.066h3.002l.734 12.649h-2.255l-.246-5.165zm7.261 1.576l-1.092 3.587h-2.383l4.057-12.65h2.945l4.108 12.65h-2.496l-1.146-3.587h-3.993zm3.621-1.744l-.994-3.116c-.244-.771-.45-1.634-.639-2.364h-.037c-.188.73-.396 1.612-.604 2.364l-.979 3.116h3.253zm5.784-7.134c.883-.168 2.157-.281 3.487-.281 1.822 0 3.043.301 3.906 1.017.694.582 1.088 1.464 1.088 2.553 0 1.633-1.104 2.739-2.31 3.153v.056c.92.338 1.465 1.221 1.767 2.438.412 1.576.75 3.042.993 3.528h-2.364c-.188-.375-.506-1.407-.845-2.98-.375-1.652-.956-2.182-2.271-2.218h-1.163v5.2h-2.289v-12.466h.001zm2.291 5.576h1.368c1.56 0 2.517-.827 2.517-2.083 0-1.37-.957-2.027-2.459-2.027-.733 0-1.201.059-1.426.112v3.998zm8.384-5.763h2.289v5.816h.058c.301-.486.619-.938.92-1.369l3.321-4.447h2.834l-4.354 5.389 4.64 7.264h-2.705l-3.567-5.8-1.146 1.351v4.449h-2.289v-12.653h-.001zm18 7.04h-4.769v3.719h5.33v1.896h-7.642v-12.654h7.357v1.896h-5.05v3.268h4.771v1.875h.003zm5.204-5.106h-3.606v-1.933h9.555v1.933h-3.641v10.719h-2.31v-10.719h.002zm9.737-1.934v12.65h-2.31v-12.65h2.31zm2.627 12.652v-12.652h2.648l3.266 5.425c.826 1.405 1.576 2.871 2.158 4.243h.039c-.17-1.69-.207-3.324-.207-5.26v-4.409h2.14v12.649h-2.4l-3.307-5.573c-.806-1.388-1.632-2.928-2.253-4.354l-.073.019c.097 1.636.131 3.307.131 5.391v4.521h-2.142zm22.845-.583c-.811.301-2.387.713-4.057.713-2.141 0-3.771-.544-4.975-1.688-1.125-1.071-1.764-2.742-1.764-4.656.018-4.017 2.854-6.57 7.033-6.57 1.562 0 2.779.318 3.361.603l-.508 1.855c-.691-.315-1.535-.544-2.869-.544-2.703 0-4.602 1.599-4.602 4.543 0 2.873 1.766 4.58 4.395 4.58.844 0 1.443-.108 1.746-.244v-3.173h-2.234v-1.818h4.471v6.399h.003zm-93.902 15.766l-1.088 3.587h-2.385l4.055-12.652h2.946l4.11 12.652h-2.495l-1.146-3.587h-3.997zm3.623-1.745l-.995-3.116c-.244-.771-.451-1.632-.641-2.364h-.037c-.188.732-.395 1.613-.599 2.364l-.977 3.116h3.249zm5.76 5.332v-12.652h2.646l3.269 5.424c.826 1.408 1.578 2.872 2.158 4.243h.038c-.17-1.69-.207-3.324-.207-5.257v-4.41h2.142v12.652h-2.401l-3.307-5.576c-.806-1.392-1.633-2.929-2.252-4.354l-.074.021c.096 1.634.133 3.304.133 5.388v4.524l-2.145-.003zm12.707-12.484c1.033-.151 2.312-.264 3.681-.264 2.364 0 3.979.484 5.146 1.464 1.237.995 1.989 2.517 1.989 4.657 0 2.27-.771 3.938-1.974 5.026-1.258 1.147-3.266 1.729-5.728 1.729-1.331 0-2.346-.074-3.114-.17v-12.442zm2.312 10.739c.315.055.808.055 1.272.055 3.006.021 4.789-1.652 4.789-4.861.021-2.776-1.599-4.395-4.483-4.395-.734 0-1.242.057-1.578.134v9.067zm14.393-10.739c1.028-.151 2.308-.264 3.678-.264 2.365 0 3.979.484 5.146 1.464 1.238.995 1.99 2.517 1.99 4.657 0 2.27-.771 3.938-1.974 5.026-1.256 1.147-3.269 1.729-5.728 1.729-1.332 0-2.346-.074-3.112-.17v-12.442zm2.308 10.739c.317.055.807.055 1.276.055 3.002.021 4.787-1.652 4.787-4.861.019-2.776-1.599-4.395-4.486-4.395-.731 0-1.237.057-1.577.134v9.067zm17.59-3.867h-4.771v3.716h5.33v1.896h-7.64v-12.652h7.356v1.896h-5.049v3.268h4.769v1.876h.005zm2.548 3.095c.729.435 1.877.81 3.06.81 1.465 0 2.291-.694 2.291-1.729 0-.957-.64-1.521-2.233-2.103-2.103-.749-3.435-1.857-3.435-3.682 0-2.084 1.728-3.643 4.485-3.643 1.369 0 2.363.303 3.021.64l-.545 1.858c-.469-.244-1.353-.604-2.535-.604-1.465 0-2.084.771-2.084 1.521 0 .978.732 1.428 2.425 2.084 2.194.826 3.244 1.935 3.244 3.754 0 2.046-1.539 3.812-4.785 3.812-1.353 0-2.74-.377-3.437-.811l.528-1.907zm12.086-10.135v12.652h-2.309v-12.652h2.309zm12.784 12.068c-.807.303-2.385.715-4.055.715-2.141 0-3.771-.545-4.977-1.69-1.123-1.066-1.762-2.74-1.762-4.652.018-4.02 2.854-6.57 7.037-6.57 1.561 0 2.775.319 3.359.601l-.508 1.859c-.693-.319-1.539-.545-2.871-.545-2.703 0-4.602 1.596-4.602 4.544 0 2.871 1.766 4.58 4.395 4.58.844 0 1.443-.113 1.746-.244v-3.173h-2.232v-1.819h4.467v6.397l.003-.003zm2.346.584v-12.652h2.644l3.27 5.424c.824 1.408 1.578 2.872 2.158 4.243h.037c-.168-1.69-.205-3.324-.205-5.257v-4.41h2.142v12.652h-2.401l-3.306-5.576c-.81-1.392-1.636-2.929-2.252-4.354l-.076.021c.095 1.634.131 3.304.131 5.388v4.524l-2.142-.003z" fill="#fff"/></svg>