<svg xmlns="http://www.w3.org/2000/svg" width="150" height="54.902"><path d="M27.76.978c-14.621 0-26.473 11.849-26.473 26.472 0 14.618 11.853 26.474 26.473 26.474s26.472-11.855 26.472-26.474c0-14.624-11.852-26.472-26.472-26.472zm-.089 51.486c-13.885 0-25.14-11.252-25.14-25.139 0-13.882 11.255-25.14 25.14-25.14 13.882 0 25.138 11.258 25.138 25.14 0 13.887-11.255 25.139-25.138 25.139zm-16.971-18.748v1.357h4.685s7.328 1.042 7.328-7.624c0-8.665-5.293-7.853-12.013-7.853v10.929h1.358v-9.773h4.649s3.7.201 4.582 4.411c.882 4.208-.813 8.553-5.7 8.553h-4.889zm12.013-14.141s.884.726 1.201 1.177h4.479s3.756.088 3.756 3.261c0 3.166-1.992 3.753-3.439 3.753h-4.39v7.349h1.358v-6.035h3.077s3.893-.137 4.614-3.077c.724-2.938-.27-6.426-4.435-6.426l-6.221-.002zm21.383.726l-.679 1.038s-6.605-2.082-7.059 1.856c-.452 3.937 5.022 2.714 6.833 3.801 1.809 1.086 2.806 3.803 1.538 5.929-1.266 2.127-5.52 3.709-9.865 1.179l.815-.955s6.47 2.356 8.098-1.266c.771-1.763-.859-4.253-3.981-4.434-3.122-.181-4.706-.995-4.933-4.299s4.888-4.842 9.233-2.849zm33.934 1.355c-2.801-7.717-10.263-5.428-10.263-5.428-7.719 2.628-8.992 11.448-7.803 16.79 1.188 5.347 5.511 7.295 9.499 5.938 3.986-1.353 11.364-9.582 8.567-17.3zm-8.515 15.979c-3.31 1.2-6.903-.523-7.888-5.245-.984-4.722.072-12.517 6.479-14.843 0 0 6.198-2.021 8.523 4.799 2.324 6.821-3.804 14.092-7.114 15.289zm9.13-6.226s.654-.719.4-1.144c-.254-.428 0-2.291 1.824-.47 1.822 1.824 2.798 2.333 1.443 4.157-1.358 1.823-2.504 3.566-2.166 4.051.341.484 3.266-3.331 3.816-2.609.553.724.721.637 0 1.401-.72.762-3.436 4.321-5.09 2.969-1.654-1.359 1.613-5.727 2.122-6.404.509-.68.425-.893 0-1.23-.424-.338-.424-.931-1.655.849-1.228 1.784-3.01 4.37-3.688 3.183-.675-1.192.861-.979 2.994-4.753zm48.462 6.077c-1.41 1.306-1.699-.79-1.866-1.524-.169-.734.058-1.583.678-2.375.624-.792 2.095-3.278 3.224-5.766 1.131-2.489 2.886-8.54.623-9.104-2.26-.565-3.562 4.863-5.26 10.743-1.693 5.876-.565 6.388-.565 6.388h-.677c-.68 0-2.064 1.627-2.787 2.432-.719.808.299-3.176.511-3.562.212-.381.594-.805-.127-1.441-.722-.635-4.452 3.73-4.962 4.112-.508.383-2.883 1.062.681-3.476 3.562-4.539 4.747-3.011 4.919-2.504.169.509.254.807.76.597.512-.214 1.105-1.739-.591-2.595-3.14-1.573-7.886 5.604-7.972 6.111-.087.509-1.657 2.883-2.248 2.334-.766-.895 1.314-5.473.423-6.531s-4.454 3.393-5.215 4.536c-.765 1.146.55-2.544 1.354-4.366.808-1.82.299-1.908-.466-2.077-.764-.17-2.163 4.704-2.333 5.3-.17.592-2.289 2.249-3.054 2.886-.761.637 1.144-6.193 1.569-7.041.424-.85-.637-1.145-.637-1.145-.438-.227-.637.436-.637.436s-1.243 2.941-1.645 4.92c-.392 1.979-.561 3.506.4 4.357.959.845 3.561-1.756 3.561-1.756-.226 1.696.734 1.756 1.188 1.471.455-.282 2.264-2.657 3.452-4.015 1.187-1.356.563.279.563 1.3 0 1.019-.791 3.278 1.246 3.449 2.033.168 2.313-2.657 2.769-1.415 1.356 3.109 4.353-1.017 4.692-1.412.34-.397-.283 1.923.058 2.662.961 1.646 2.715.052 3.505-.685.793-.735 1.133-2.601 1.865-.874.734 1.724 2.094 1.553 2.828 1.553.733 0 2.205-1.414 2.828-2.147.621-.733.453-1.073-.058-1.696-.505-.622-1.184.621-2.597 1.92zm2.09-16.907c.734.17-2.316 9.556-3.334 10.237 0 0 2.6-10.404 3.334-10.237z"/><circle cx="88.94" cy="25.67" r="1.244"/><circle cx="104.251" cy="25.67" r="1.244"/><path d="M99.783 35.735c-.34-.469-.848-.427-1.695.425-.85.847-.594.084-.297-.679.297-.765.551-1.062 0-1.743-.553-.677-1.104-.124-1.572.342-.467.468-3.562 2.545-4.406 3.097-.848.552-1.487-.38-1.021-1.527 1.658-3.349 6.15-6.148 6.363-5.767.212.384-1.571 1.021-.978 1.866.592.847 1.527-.214 2.078-.807.553-.591 1.824-1.907.383-2.671-2.928-1.569-8.736 5.642-8.99 6.49-.254.845-1.654 1.906-2.715 2.67-1.058.766.257-2.759.893-4.838.637-2.074 1.145-2.373.382-3.095-.765-.717-1.272.469-1.272.469-.381 1.44-2.416 7.464-1.442 8.735.978 1.271 2.502-.255 3.013-.699.508-.441.211-.87 1.654.4 1.439 1.272 4.408-1.271 5.342-2.077s.381.891.211 1.677c-.166.787-1.779 2.142-2.492 2.904-.711.761-5.31 4.409-3.189 6.404 2.123 1.991 5.473-5.176 5.852-6.232.383-1.059-.209-.387 1.867-2.504 2.074-2.119 2.37-2.375 2.031-2.84zm-8.637 10.008c-.51-.449 2.432-2.941 2.432-2.941s-1.922 3.393-2.432 2.941zm6.893-3.628v2.367h2.736v-2.367h.738v5.656h-.738v-2.652h-2.736v2.652h-.738v-5.656h.738zm8.338 3.005h-2.191v2.039h2.451v.613h-3.188v-5.656h3.062v.612h-2.324v1.788h2.191v.604zm2.797.872l-.588 1.779h-.756l1.93-5.656h.873l1.933 5.656h-.781l-.604-1.779h-2.007zm1.863-.571l-.562-1.628c-.127-.369-.211-.705-.295-1.031h-.016c-.084.326-.168.68-.285 1.023l-.555 1.636h1.713zm3.024-3.306h.738v5.043h2.418v.613h-3.156v-5.656zm4.978.621h-1.721v-.621h4.189v.621h-1.73v5.036h-.738v-5.036zm4.502-.621v2.367h2.734v-2.367h.74v5.656h-.74v-2.652h-2.734v2.652h-.738v-5.656h.738zm9.359 5.48c-.26.134-.805.269-1.494.269-1.594 0-2.785-1.007-2.785-2.87 0-1.779 1.199-2.971 2.953-2.971.697 0 1.15.15 1.344.251l-.186.596c-.268-.135-.662-.235-1.133-.235-1.326 0-2.207.849-2.207 2.333 0 1.395.797 2.274 2.166 2.274.453 0 .906-.092 1.199-.235l.143.588zm2.547-1.603l-.588 1.779h-.754l1.93-5.656h.873l1.93 5.656h-.781l-.604-1.779h-2.006zm1.864-.571l-.562-1.628c-.125-.369-.209-.705-.293-1.031h-.018c-.084.326-.168.68-.285 1.023l-.553 1.636h1.711zm3.033-3.231c.369-.067.906-.117 1.4-.117.781 0 1.293.151 1.637.461.277.252.445.638.445 1.083 0 .739-.471 1.234-1.057 1.435v.025c.428.151.688.554.822 1.141.184.789.317 1.334.436 1.554h-.756c-.092-.168-.217-.646-.369-1.352-.168-.78-.479-1.073-1.141-1.1h-.688v2.451h-.729v-5.581zm.73 2.577h.746c.781 0 1.275-.429 1.275-1.074 0-.73-.529-1.049-1.302-1.049-.352 0-.596.024-.721.059l.002 2.064zm7.379.353h-2.191v2.039h2.451v.613h-3.188v-5.656h3.062v.612h-2.324v1.788h2.191v.604z"/></svg>