<svg xmlns="http://www.w3.org/2000/svg" width="147.32" height="50.304" viewBox="21.59 -36.982 147.32 50.304" enable-background="new 21.59 -36.982 147.32 50.304"><g fill="#152A3F"><path d="M90.434-4.655c0-1.294 1.002-2.452 2.643-2.452 2.034 0 2.481.841 2.869 1.742l.483 1.163h.357l.191-3.388c-.645-.161-2.583-.388-3.353-.388-3.997 0-5.637 2.487-5.637 4.253 0 4.575 7.182 3.907 7.182 7.934 0 1.867-1.545 2.678-3.155 2.678-.907 0-1.646-.298-2.064-.65-.256-.191-.871-1.39-1.127-2.547h-.353l-.196 3.775c.841.09 1.741.281 2.935.281 5.124 0 6.412-2.512 6.412-4.444 0-5.159-7.187-4.127-7.187-7.957"/><path d="M108.454 5.104c-.555.555-1.456 1.264-2.393 1.264-.608 0-1.604-.555-1.604-2.034v-10.891h3.704v-.871h-3.704v-3.769h-.453c-.645 1.961-2.81 3.644-4.581 4.055v.584h2.583v5.41c0 1.807-.102 4.516-.102 5.965 0 2.607 1.682 2.995 2.518 2.995 1.449 0 2.48-.478 4.509-2.094l-.477-.614"/><path d="M122.566-2.012c.71-.036.931-.233.931-1.002 0-2.803-1.801-4.963-5.606-4.963-4.963 0-7.409 4.122-7.409 8.029 0 4.534 2.738 7.695 6.83 7.695 2.226 0 4.224-.639 5.703-2.321l-.448-.579c-.937.966-2.225 1.45-3.645 1.45-3.806 0-5.541-3.639-5.541-7.212 0-.364.036-.746.06-1.097m3.907-5.291c2.284 0 3.251 1.551 3.251 3.71v.579c-.483.03-.931.03-1.963.066l-5.13.125c.453-2.667 1.873-4.48 3.842-4.48"/><path d="M129.528 4.012v-12.765c0-2.186.131-4.38.196-6.57-1.747.192-3.52.258-5.291.258v.451l1.903.613c.227.064.447.192.513.355.102.224.227 1.387.227 2.739v14.92c0 1.575-.125 2.124-1.127 2.446l-1.516.519v.448c1.193-.131 2.481-.257 3.771-.257 1.324 0 2.678.126 3.967.257v-.449l-1.581-.519c-.996-.322-1.062-.871-1.062-2.446"/><path d="M139.549 6.458c-.996-.322-1.062-.871-1.062-2.446v-12.765c0-2.186.131-4.38.197-6.57-1.742.192-3.52.258-5.285.258v.451l1.896.613c.227.064.447.192.514.355.101.224.227 1.385.227 2.736v14.922c0 1.575-.126 2.124-1.128 2.446l-1.509.513v.454c1.187-.131 2.476-.257 3.764-.257 1.324 0 2.679.126 3.961.257v-.454l-1.575-.513"/><path d="M154.241 4.877v-8.983c0-3-2.249-3.872-4.826-3.872-2.517 0-4.384 1.294-5.899 3.71l.806.447c.966-1.45 2.511-2.481 4.282-2.481 1.838 0 3.258.68 3.258 3.066v1.7h-.233c-5.309 0-9.049 1.646-9.049 5.327 0 2.768 1.897 3.955 4.253 3.955 2.351 0 3.74-1.378 4.993-3.061h.065l-.096 2.738c.775-.131 1.575-.257 2.356-.257.806 0 1.641.126 2.481.257v-.446c-2.033-.388-2.391-.549-2.391-2.1m-2.446-2.863c0 2.571-1.706 4.062-3.77 4.062-1.837 0-2.738-1.098-2.738-2.804 0-3.478 3.896-3.931 6.508-3.931v2.673"/><path d="M83.776 4.877v-8.983c0-3-2.261-3.872-4.837-3.872-2.512 0-4.385 1.294-5.899 3.71l.811.447c.961-1.45 2.512-2.481 4.283-2.481 1.837 0 3.257.68 3.257 3.066v1.7h-.227c-5.321 0-9.055 1.646-9.055 5.327 0 2.768 1.896 3.955 4.253 3.955 2.35 0 3.74-1.378 4.992-3.061h.066l-.096 2.738c.775-.131 1.58-.257 2.35-.257.806 0 1.646.126 2.481.257v-.446c-2.026-.388-2.379-.549-2.379-2.1m-2.451-2.863c0 2.571-1.706 4.062-3.771 4.062-1.837 0-2.743-1.098-2.743-2.804 0-3.478 3.9-3.931 6.514-3.931v2.673"/><path d="M160.945-4.655c0-1.294 1.002-2.452 2.643-2.452 2.028 0 2.487.841 2.869 1.742l.483 1.163h.357l.191-3.388c-.645-.161-2.583-.388-3.353-.388-3.996 0-5.637 2.487-5.637 4.253 0 4.575 7.188 3.907 7.188 7.934 0 1.867-1.551 2.678-3.161 2.678-.9 0-1.646-.298-2.064-.65-.256-.191-.87-1.39-1.121-2.547h-.357l-.197 3.775c.835.09 1.742.281 2.935.281 5.124 0 6.412-2.512 6.412-4.444 0-5.159-7.188-4.127-7.188-7.957"/><path opacity=".3" d="M65.834-15.796c-3.448 3.015-8.354 5.808-13.216 8.654-1.226 5.863-2.669 11.464-5.142 15.324 5.419-2.649 10.723-9.706 13.496-15.754 2.696.608 5.387 2.255 7.021 3.752.424-4.67-.685-8.512-2.159-11.976"/><path opacity=".3" d="M60.889-31.842c-2.171 1.938-3.653 5.205-4.822 9.122 2.648.699 5.115 1.296 7.304 1.664-1.7-3.56-3.072-6.947-2.482-10.786"/><path d="M22.367-27.788c10.153 1.362 19.023 6.768 25.247 14.265-3.856 4.168-9.06 11.272-10.271 18.227 2.869-4.432 9.027-8.178 15.275-11.846 1.119-5.353 2.064-10.924 3.451-15.578-10.447-2.772-23.698-7.129-33.702-5.068"/><path d="M63.37-21.055c.806 1.691 1.688 3.424 2.464 5.26 1.885-1.644 3.328-3.354 4.092-5.178-1.664.468-3.907.359-6.556-.082"/><path opacity=".9" d="M63.37-21.055c-2.188-.368-4.655-.965-7.304-1.664-1.384 4.651-2.329 10.224-3.448 15.578 4.862-2.846 9.768-5.642 13.216-8.654-.775-1.837-1.658-3.57-2.464-5.26"/></g></svg>