<?xml version="1.0" encoding="utf-8"?>
<!-- Generator: Adobe Illustrator 16.0.0, SVG Export Plug-In . SVG Version: 6.00 Build 0)  -->
<!DOCTYPE svg PUBLIC "-//W3C//DTD SVG 1.1//EN" "http://www.w3.org/Graphics/SVG/1.1/DTD/svg11.dtd">
<svg version="1.1" id="Layer_1" xmlns="http://www.w3.org/2000/svg" xmlns:xlink="http://www.w3.org/1999/xlink" x="0px" y="0px"
	 width="150px" height="54.902px" viewBox="0 0 150 54.902" enable-background="new 0 0 150 54.902" xml:space="preserve">
<g>
	<path fill="#272525" d="M40.574,53.639c-0.401,0.144-0.912,0.265-1.533,0.36c-0.622,0.097-1.193,0.145-1.714,0.145
		c-0.433,0-0.824-0.018-1.173-0.054c-0.349-0.036-0.697-0.104-1.046-0.205c-0.349-0.1-0.642-0.23-0.878-0.391
		s-0.427-0.377-0.571-0.649c-0.144-0.272-0.216-0.594-0.216-0.962v-3.248c0-0.408,0.084-0.77,0.252-1.082s0.381-0.557,0.638-0.733
		c0.256-0.177,0.565-0.323,0.926-0.439s0.708-0.192,1.041-0.229c0.333-0.036,0.684-0.054,1.052-0.054
		c1.106,0,2.165,0.084,3.175,0.253v1.419c-0.955-0.225-2.013-0.337-3.175-0.337c-1.355,0-2.033,0.393-2.033,1.179v3.139
		c0,0.401,0.19,0.678,0.571,0.83s0.924,0.229,1.63,0.229c0.393,0,0.813-0.061,1.263-0.181v-1.815h-1.275v-1.228h3.067V53.639
		L40.574,53.639z"/>
	<path fill="#272525" d="M46.852,50.717l-0.986-2.935h-0.048l-0.986,2.935H46.852L46.852,50.717z M49.858,54.024h-1.9l-0.697-2.057
		H44.41l-0.686,2.057h-1.852l2.886-7.806h2.285L49.858,54.024L49.858,54.024z"/>
	<polygon fill="#272525" points="53.202,54.024 51.326,54.024 51.326,46.219 53.202,46.219 53.202,54.024 	"/>
	<polygon fill="#272525" points="61.561,47.553 59.167,47.553 59.167,54.024 57.291,54.024 57.291,47.553 54.886,47.553 
		54.886,46.219 61.561,46.219 61.561,47.553 	"/>
	<polygon fill="#272525" points="69.317,47.553 66.924,47.553 66.924,54.024 65.048,54.024 65.048,47.553 62.643,47.553 
		62.643,46.219 69.317,46.219 69.317,47.553 	"/>
	<path fill="#272525" d="M75.631,48.864v-0.553c0-0.289-0.086-0.487-0.258-0.596c-0.173-0.107-0.467-0.162-0.884-0.162h-1.611v2.165
		h1.611c0.441,0,0.742-0.059,0.902-0.175S75.631,49.201,75.631,48.864L75.631,48.864z M77.952,54.024h-2.164l-2.045-3.067h-0.866
		v3.067h-1.876v-7.806h3.512c1.026,0,1.776,0.124,2.249,0.373c0.474,0.248,0.71,0.674,0.71,1.274v1.371
		c0,0.474-0.171,0.838-0.512,1.095s-0.764,0.417-1.269,0.481L77.952,54.024L77.952,54.024z"/>
	<path fill="#272525" d="M85,51.884v-3.428c0-0.377-0.154-0.642-0.463-0.794s-0.764-0.229-1.365-0.229
		c-0.609,0-1.066,0.074-1.371,0.223s-0.457,0.415-0.457,0.8v3.428c0,0.2,0.053,0.366,0.156,0.499
		c0.104,0.132,0.255,0.227,0.451,0.282c0.196,0.057,0.385,0.095,0.565,0.114c0.181,0.021,0.403,0.03,0.668,0.03
		s0.486-0.01,0.667-0.03c0.181-0.02,0.367-0.058,0.56-0.114c0.192-0.056,0.339-0.15,0.438-0.282C84.95,52.25,85,52.084,85,51.884
		L85,51.884z M86.877,48.468v3.416c0,0.44-0.117,0.817-0.35,1.13s-0.545,0.548-0.938,0.704c-0.394,0.156-0.786,0.267-1.179,0.33
		c-0.394,0.064-0.811,0.097-1.251,0.097c-0.417,0-0.808-0.026-1.173-0.078c-0.364-0.052-0.754-0.15-1.166-0.295
		c-0.413-0.145-0.742-0.377-0.986-0.697c-0.245-0.32-0.367-0.718-0.367-1.19v-3.416c0-0.4,0.091-0.753,0.271-1.059
		c0.181-0.305,0.397-0.537,0.649-0.697c0.253-0.16,0.56-0.29,0.92-0.391c0.361-0.101,0.682-0.162,0.963-0.187
		c0.28-0.024,0.577-0.036,0.89-0.036c0.32,0,0.623,0.012,0.908,0.036c0.284,0.024,0.607,0.086,0.968,0.187
		c0.361,0.101,0.67,0.23,0.927,0.391c0.256,0.16,0.473,0.391,0.649,0.691C86.788,47.704,86.877,48.058,86.877,48.468L86.877,48.468z
		"/>
	<polygon fill="#272525" points="96.342,54.024 94.441,54.024 90.665,48.612 90.665,54.024 88.993,54.024 88.993,46.219 
		90.894,46.219 94.67,51.547 94.67,46.219 96.342,46.219 96.342,54.024 	"/>
	<polygon fill="#272525" points="100.503,54.024 98.627,54.024 98.627,46.219 100.503,46.219 100.503,54.024 	"/>
	<g>
		<defs>
			<rect id="SVGID_1_" x="33.442" y="0.758" width="83.114" height="53.387"/>
		</defs>
		<clipPath id="SVGID_2_">
			<use xlink:href="#SVGID_1_"  overflow="visible"/>
		</clipPath>
		<path clip-path="url(#SVGID_2_)" fill="#272525" d="M108.766,53.88c-0.883,0.176-1.725,0.265-2.526,0.265
			c-0.32,0-0.623-0.014-0.908-0.042c-0.284-0.028-0.601-0.088-0.95-0.181c-0.349-0.092-0.646-0.217-0.89-0.373
			c-0.245-0.156-0.451-0.377-0.619-0.661c-0.169-0.284-0.253-0.619-0.253-1.004v-3.428c0-1.571,1.207-2.357,3.62-2.357
			c0.594,0,1.42,0.088,2.478,0.265v1.407c-0.954-0.225-1.771-0.337-2.453-0.337c-0.273,0-0.495,0.008-0.668,0.024
			c-0.172,0.016-0.353,0.056-0.541,0.12s-0.329,0.166-0.421,0.307c-0.093,0.141-0.139,0.322-0.139,0.547v3.319
			c0,0.706,0.646,1.059,1.937,1.059c0.569,0,1.347-0.116,2.334-0.349V53.88L108.766,53.88z"/>
		<path clip-path="url(#SVGID_2_)" fill="#272525" d="M116.558,51.282v0.517c0,0.466-0.083,0.856-0.252,1.173
			c-0.168,0.317-0.417,0.558-0.746,0.722s-0.688,0.281-1.076,0.349c-0.389,0.068-0.852,0.103-1.389,0.103
			c-0.745,0-1.668-0.072-2.767-0.217v-1.431c1.331,0.208,2.261,0.312,2.791,0.312c1.042,0,1.563-0.269,1.563-0.806v-0.505
			c0-0.233-0.068-0.423-0.205-0.571s-0.409-0.223-0.818-0.223h-0.913c-1.716,0-2.574-0.682-2.574-2.045v-0.577
			c0-0.674,0.283-1.173,0.848-1.497c0.565-0.325,1.47-0.487,2.713-0.487c0.601,0,1.415,0.052,2.44,0.156v1.396
			c-1.219-0.145-2.052-0.217-2.501-0.217c-0.618,0-1.043,0.052-1.274,0.156c-0.233,0.104-0.35,0.28-0.35,0.529v0.553
			c0,0.409,0.345,0.613,1.034,0.613h0.938c0.914,0,1.565,0.169,1.955,0.506C116.363,50.128,116.558,50.625,116.558,51.282
			L116.558,51.282z"/>
	</g>
	<path fill="#4374A1" d="M102.443,23.921c0.002,0,0.003-0.001,0.005-0.001c1.374-0.325,4.101-4.337-0.546-3.015
		c-1.813,0.516-3.961,0.977-6.056,1.095c-2.095,0.117-4.498-5.417-4.276-8.35c0.163-2.147,0.011-3.652,4.66-4.036
		c3.36-0.277,4.086,0.294,4.517,2.038c0.493,1.993,3.542,2.412,3.334,0.923l0.001,0.001c-0.451-3.152-1.032-5.871-1.468-6.249
		c-1.065-0.925-13.015-0.086-13.997,1.46c-2.448,3.856,0.45,16.237,2.226,17.169c1.378,0.723,8.033-0.126,11.52-1.014
		C102.382,23.936,102.407,23.929,102.443,23.921L102.443,23.921z"/>
	<g>
		<defs>
			<rect id="SVGID_3_" x="33.442" y="0.758" width="83.114" height="53.387"/>
		</defs>
		<clipPath id="SVGID_4_">
			<use xlink:href="#SVGID_3_"  overflow="visible"/>
		</clipPath>
		<path clip-path="url(#SVGID_4_)" fill="#366086" d="M96.999,43.278c-0.436-2.468-1.101-4.792-1.996-6.97
			c-0.895-2.179-1.993-4.151-3.296-5.918c-1.304-1.767-2.763-3.191-4.381-4.274c-0.197-0.132-0.418-0.244-0.659-0.334
			c-0.412-0.154-0.888-0.249-1.429-0.284c-0.857-0.055-1.818,0.002-2.883,0.174c-1.064,0.17-2.194,0.431-3.39,0.78
			c-1.194,0.349-2.39,0.757-3.587,1.227c-1.197,0.469-2.361,0.977-3.489,1.525c-1.129,0.548-2.163,1.093-3.1,1.636
			c-0.938,0.543-1.742,1.076-2.413,1.6c-0.501,0.392-0.893,0.752-1.173,1.081l0,0c-0.095,0.11-0.177,0.218-0.247,0.322
			c-0.438,0.655-0.812,1.478-1.12,2.465s-0.554,2.081-0.739,3.282c-0.186,1.201-0.313,2.48-0.381,3.838
			c-0.015,0.288-0.047,0.66-0.057,0.949h5.353c0.025-0.817,0.06-1.656,0.099-2.376c0.057-1.076,0.137-1.995,0.238-2.756
			c0.1-0.762,0.243-1.279,0.426-1.554c0.316-0.474,0.805-0.914,1.465-1.323c0.66-0.408,1.418-0.773,2.274-1.095
			c0.856-0.322,1.755-0.594,2.697-0.812c0.942-0.22,1.847-0.366,2.712-0.438c0.866-0.072,1.656-0.073,2.372-0.003
			c0.479,0.047,0.883,0.137,1.213,0.268c0.161,0.063,0.307,0.137,0.432,0.221c1.038,0.694,1.996,1.589,2.875,2.686
			c0.879,1.096,1.662,2.311,2.35,3.644c0.581,1.127,1.076,2.31,1.493,3.54h8.495C97.101,44.002,97.065,43.653,96.999,43.278
			L96.999,43.278z"/>
		<path clip-path="url(#SVGID_4_)" fill="#366086" d="M67.083,17.467c0.416,1.195,0.947,2.287,1.594,3.272
			c0.647,0.987,1.388,1.794,2.224,2.423c0.175,0.131,0.392,0.229,0.64,0.299c0.143,0.041,0.294,0.074,0.461,0.095
			c0.459,0.055,0.976,0.052,1.552-0.008c0.577-0.06,1.19-0.167,1.842-0.318s1.305-0.335,1.962-0.552
			c0.656-0.216,1.295-0.455,1.917-0.715c0.622-0.261,1.192-0.523,1.712-0.786c0.52-0.264,0.967-0.526,1.342-0.787
			c0.376-0.261,0.644-0.498,0.804-0.71c0.255-0.339,0.479-0.769,0.674-1.29s0.358-1.101,0.493-1.74
			c0.136-0.639,0.242-1.321,0.319-2.048c0.077-0.726,0.122-1.459,0.138-2.201c0.015-0.742-0.001-1.473-0.046-2.192
			s-0.123-1.395-0.233-2.028c-0.11-0.632-0.251-1.205-0.422-1.716s-0.378-0.926-0.62-1.244c-0.112-0.146-0.2-0.243-0.263-0.291
			c-0.182-0.136-0.338-0.118-0.468,0.056c-0.089,0.118-0.167,0.374-0.235,0.768c-0.067,0.394-0.13,0.875-0.187,1.443
			c-0.058,0.568-0.109,1.195-0.157,1.882c-0.047,0.687-0.091,1.389-0.131,2.105c-0.039,0.718-0.086,1.424-0.139,2.118
			c-0.054,0.694-0.111,1.33-0.175,1.905c-0.063,0.577-0.133,1.067-0.209,1.472c-0.077,0.406-0.169,0.679-0.275,0.821
			c-0.184,0.245-0.459,0.467-0.825,0.667s-0.784,0.373-1.253,0.521c-0.469,0.147-0.959,0.266-1.472,0.356
			c-0.512,0.09-1.001,0.142-1.468,0.154c-0.467,0.013-0.891-0.009-1.272-0.068c-0.238-0.036-0.436-0.092-0.602-0.164
			c-0.101-0.043-0.192-0.09-0.267-0.146c-0.536-0.403-1.024-0.912-1.463-1.526c-0.439-0.614-0.824-1.289-1.153-2.024
			c-0.33-0.735-0.595-1.506-0.797-2.313c-0.202-0.806-0.34-1.604-0.412-2.394c-0.073-0.79-0.074-1.547-0.004-2.271
			c0.07-0.725,0.22-1.372,0.45-1.939l3.079-0.12c0.589-0.023,1.076-0.464,1.165-1.048c0.041-0.267,0.066-0.529,0.078-0.786
			c0.008-0.24,0-0.49-0.021-0.747c-0.022-0.258-0.068-0.508-0.138-0.752c-0.07-0.244-0.171-0.475-0.304-0.692
			c-0.134-0.217-0.306-0.406-0.519-0.566c-0.426-0.32-0.866-0.556-1.321-0.706s-0.904-0.205-1.35-0.164
			c-0.445,0.042-0.875,0.182-1.288,0.42c-0.414,0.238-0.792,0.586-1.137,1.043c-0.507,0.674-0.943,1.394-1.308,2.157
			c-0.208,0.433-0.393,0.879-0.554,1.34c-0.447,1.275-0.736,2.582-0.867,3.922c-0.131,1.339-0.117,2.678,0.044,4.015
			C66.379,15.005,66.667,16.271,67.083,17.467L67.083,17.467z"/>
	</g>
	<path fill="#88112C" d="M116.166,43.108c-0.42-2.38-1.062-4.621-1.926-6.723c-0.862-2.102-1.922-4.004-3.18-5.708
		c-1.257-1.704-2.665-3.079-4.225-4.123c-0.19-0.128-0.403-0.235-0.637-0.323c-0.397-0.149-0.856-0.24-1.378-0.274
		c-0.827-0.053-1.754,0.002-2.781,0.168c-1.026,0.165-2.116,0.416-3.269,0.753s-2.307,0.731-3.461,1.184
		c-1.155,0.452-2.277,0.942-3.366,1.471s-2.086,1.055-2.99,1.578c-0.905,0.524-1.681,1.039-2.327,1.544
		c-0.484,0.377-0.861,0.725-1.132,1.042l0,0l3.446,4.023c0.306-0.457,0.776-0.882,1.413-1.276c0.637-0.394,1.368-0.746,2.194-1.056
		c0.825-0.312,1.693-0.572,2.602-0.784c0.909-0.212,1.781-0.354,2.616-0.423s1.598-0.07,2.288-0.003
		c0.463,0.045,0.852,0.132,1.17,0.258c0.155,0.062,0.296,0.132,0.417,0.213c1.001,0.67,1.926,1.533,2.772,2.591
		c0.848,1.058,1.604,2.229,2.267,3.516c0.562,1.087,1.097,2.435,1.499,3.622h8.185C116.312,44.015,116.229,43.47,116.166,43.108
		L116.166,43.108z"/>
	<path fill="#3D91B9" d="M104.821,25.958c-0.827-0.053-1.754,0.002-2.781,0.168c-1.026,0.165-2.116,0.416-3.269,0.753
		s-2.307,0.731-3.461,1.184c-1.155,0.452-2.277,0.942-3.366,1.471s-2.086,1.055-2.99,1.578c-0.905,0.524-1.681,1.039-2.327,1.544
		c-0.484,0.377-0.861,0.725-1.132,1.042l0,0l3.446,4.023c0.306-0.457,0.776-0.882,1.413-1.276c0.637-0.394,1.368-0.746,2.194-1.056
		c0.825-0.312,1.693-0.572,2.602-0.784c0.909-0.212,1.781-0.354,2.616-0.423s1.598-0.07,2.288-0.003
		c0.463,0.046,0.852,0.132,1.17,0.258l4.975-8.205C105.802,26.083,105.343,25.991,104.821,25.958L104.821,25.958z"/>
	<path fill="#4374A1" d="M114.24,36.385c-0.862-2.102-1.922-4.004-3.18-5.708c-1.257-1.704-2.665-3.079-4.225-4.123
		c-0.19-0.128-0.403-0.235-0.637-0.323l-4.975,8.205c0.155,0.062,0.296,0.132,0.417,0.213c1.001,0.67,1.925,1.533,2.772,2.591
		s1.604,2.229,2.267,3.516c0.562,1.087,1.097,2.435,1.499,3.622h8.185c-0.052-0.362-0.135-0.907-0.198-1.27
		C115.746,40.728,115.104,38.487,114.24,36.385L114.24,36.385z"/>
	<path fill="#5D2A2C" d="M65.203,33.521c-0.095,0.11-0.177,0.218-0.247,0.322c-0.438,0.655-0.812,1.478-1.12,2.465
		s-0.554,2.081-0.739,3.282c-0.186,1.201-0.313,2.48-0.381,3.838c-0.015,0.288-0.048,0.66-0.057,0.949h5.353
		c0.025-0.817,0.06-1.656,0.099-2.376c0.057-1.076,0.137-1.995,0.238-2.756c0.1-0.762,0.243-1.279,0.426-1.554L65.203,33.521
		L65.203,33.521L65.203,33.521z"/>
	<path fill="#88112C" d="M85.238,25.498c-0.857-0.055-1.818,0.002-2.883,0.174c-1.064,0.17-2.194,0.431-3.389,0.78
		c-1.195,0.349-2.391,0.757-3.588,1.227c-1.198,0.469-2.361,0.977-3.49,1.525c-1.129,0.548-2.163,1.093-3.1,1.636
		c-0.938,0.543-1.742,1.076-2.413,1.6c-0.501,0.392-0.892,0.752-1.173,1.081l0,0l3.573,4.171c0.316-0.474,0.805-0.914,1.465-1.323
		c0.66-0.408,1.418-0.773,2.274-1.095c0.856-0.322,1.755-0.594,2.697-0.812c0.942-0.22,1.847-0.366,2.712-0.438
		c0.866-0.072,1.656-0.073,2.372-0.003c0.479,0.047,0.883,0.137,1.213,0.268l5.157-8.506C86.255,25.628,85.779,25.533,85.238,25.498
		L85.238,25.498z"/>
	<path fill="#B12F3F" d="M95.003,36.308c-0.895-2.179-1.993-4.151-3.296-5.918c-1.304-1.767-2.763-3.191-4.381-4.274
		c-0.197-0.132-0.418-0.244-0.659-0.334l-5.157,8.506c0.161,0.063,0.307,0.137,0.432,0.221c1.038,0.694,1.996,1.589,2.875,2.686
		c0.879,1.096,1.662,2.311,2.35,3.644c0.581,1.127,1.076,2.31,1.493,3.54h8.495c-0.054-0.376-0.089-0.725-0.155-1.1
		C96.563,40.81,95.898,38.486,95.003,36.308L95.003,36.308z"/>
	<path fill="#5D2A2C" d="M84.299,16.65c0.136-0.639,0.242-1.321,0.319-2.048c0.077-0.726,0.122-1.459,0.138-2.201
		c0.015-0.742-0.001-1.473-0.046-2.192s-0.123-1.395-0.233-2.028c-0.11-0.632-0.251-1.205-0.422-1.716s-0.378-0.926-0.62-1.244
		c-0.112-0.146-0.2-0.243-0.263-0.291c-0.182-0.136-0.338-0.118-0.468,0.056c-0.089,0.118-0.167,0.374-0.235,0.768
		c-0.067,0.394-0.13,0.875-0.187,1.443c-0.058,0.568-0.109,1.195-0.157,1.882c-0.047,0.687-0.091,1.389-0.13,2.105
		c-0.04,0.718-0.087,1.424-0.14,2.118c-0.054,0.694-0.111,1.33-0.175,1.905c-0.063,0.577-0.133,1.067-0.209,1.472
		c-0.077,0.406-0.169,0.679-0.275,0.821l1.936,2.179c0.255-0.339,0.479-0.769,0.674-1.29S84.164,17.289,84.299,16.65L84.299,16.65z"
		/>
	<path fill="#88112C" d="M80.371,18.167c-0.366,0.2-0.784,0.373-1.253,0.521c-0.469,0.147-0.959,0.266-1.472,0.356
		c-0.512,0.09-1.001,0.142-1.468,0.154c-0.467,0.013-0.891-0.009-1.272-0.068c-0.238-0.036-0.436-0.092-0.602-0.164l-2.765,4.496
		c0.143,0.041,0.294,0.074,0.461,0.095c0.459,0.055,0.976,0.052,1.552-0.008c0.577-0.06,1.19-0.167,1.842-0.318
		s1.305-0.335,1.962-0.552c0.656-0.216,1.295-0.455,1.917-0.715c0.622-0.261,1.192-0.523,1.712-0.786
		c0.52-0.264,0.967-0.526,1.342-0.787c0.376-0.261,0.644-0.498,0.804-0.71l-1.936-2.179C81.013,17.745,80.737,17.968,80.371,18.167
		L80.371,18.167z"/>
	<g>
		<defs>
			<rect id="SVGID_5_" x="33.442" y="0.758" width="83.114" height="53.387"/>
		</defs>
		<clipPath id="SVGID_6_">
			<use xlink:href="#SVGID_5_"  overflow="visible"/>
		</clipPath>
		<path clip-path="url(#SVGID_6_)" fill="#B12F3F" d="M74.038,18.819c-0.536-0.403-1.024-0.912-1.463-1.526
			c-0.439-0.614-0.823-1.289-1.152-2.024c-0.33-0.735-0.595-1.506-0.797-2.313c-0.202-0.806-0.34-1.604-0.412-2.394
			c-0.073-0.79-0.075-1.547-0.004-2.271c0.07-0.725,0.22-1.372,0.45-1.939l-3.063-1.96c-0.207,0.433-0.393,0.879-0.554,1.34
			c-0.447,1.275-0.736,2.582-0.867,3.922c-0.131,1.339-0.117,2.678,0.044,4.015c0.161,1.337,0.448,2.604,0.864,3.799
			s0.947,2.287,1.594,3.272c0.647,0.987,1.388,1.794,2.224,2.423c0.175,0.131,0.392,0.229,0.64,0.299l2.765-4.496
			C74.204,18.923,74.112,18.875,74.038,18.819L74.038,18.819z"/>
		<path clip-path="url(#SVGID_6_)" fill="#5D2A2C" d="M73.738,6.231c0.589-0.023,1.076-0.464,1.165-1.048
			c0.041-0.267,0.066-0.529,0.077-0.786c0.008-0.24,0.001-0.49-0.021-0.747c-0.022-0.258-0.068-0.508-0.138-0.752
			c-0.07-0.244-0.171-0.475-0.304-0.692c-0.134-0.217-0.306-0.406-0.519-0.566c-0.426-0.32-0.866-0.556-1.321-0.706
			s-0.904-0.205-1.35-0.164c-0.445,0.042-0.875,0.182-1.288,0.42c-0.414,0.238-0.792,0.586-1.136,1.043
			c-0.508,0.674-0.943,1.394-1.309,2.157l3.063,1.96L73.738,6.231L73.738,6.231z"/>
	</g>
	<path fill="#3D91B9" d="M91.57,13.65c0.093-1.225,0.085-2.241,0.923-2.958l-3.569-3.184c-0.142,0.09-0.245,0.184-0.307,0.28
		c-2.383,3.752,0.298,15.575,2.08,17.068l4.393-3.043C93.217,20.832,91.375,16.232,91.57,13.65L91.57,13.65z"/>
	<path fill="#366086" d="M101.902,20.905c-1.813,0.516-3.961,0.977-6.056,1.095c-0.249,0.014-0.504-0.055-0.757-0.188l-4.393,3.043
		c0.049,0.041,0.098,0.076,0.146,0.101c1.378,0.723,8.033-0.126,11.52-1.014c0.02-0.005,0.045-0.012,0.081-0.021
		c0.002,0,0.003-0.001,0.005-0.001C103.822,23.594,106.549,19.583,101.902,20.905L101.902,20.905z"/>
</g>
</svg>
