<svg xmlns="http://www.w3.org/2000/svg" width="80" height="20.943"><g fill="#152A3F"><path d="M1.3 20.298s9.938-.373 8.258-5.6c-1.68-5.225-3.033-6.671 2.24-6.998l.979.466s-5.226-.933-3.779 2.613c1.445 3.545 4.759 8.772-8.072 10.077l.374-.558zm15.257-20.11c-1.494-.374-5.646.093-5.646 4.526l3.966 4.666c2.799 0 4.479-2.473 4.479-4.899s-1.306-3.919-2.799-4.293zm-1.424 8.585s-3.663-.419-3.663-4.292c0-3.872 5.132-5.646 6.765-1.446 1.634 4.199-1.585 5.878-3.102 5.738zm0 10.917s2.077-1.586 3.243-2.799 6.453-7.953-.292-8.958l.363-.467s2.214-.421 3.335 1.4c1.12 1.82.979 6.019-6.649 10.824z"/><text transform="translate(25.274 14.669)" font-family="'CenturyGothic'" font-size="10.111">GaitTronics</text></g></svg>