<?xml version="1.0" encoding="utf-8"?>
<!-- Generator: Adobe Illustrator 16.0.0, SVG Export Plug-In . SVG Version: 6.00 Build 0)  -->
<!DOCTYPE svg PUBLIC "-//W3C//DTD SVG 1.1//EN" "http://www.w3.org/Graphics/SVG/1.1/DTD/svg11.dtd">
<svg version="1.1" id="Layer_1" xmlns="http://www.w3.org/2000/svg" xmlns:xlink="http://www.w3.org/1999/xlink" x="0px" y="0px"
	 width="150px" height="54.902px" viewBox="0 0 150 54.902" enable-background="new 0 0 150 54.902" xml:space="preserve">
<g>
	<g>
		<path fill="#142A3E" d="M40.573,53.638c-0.401,0.144-0.912,0.265-1.533,0.359c-0.622,0.098-1.193,0.146-1.714,0.146
			c-0.433,0-0.824-0.019-1.173-0.055c-0.35-0.035-0.697-0.104-1.047-0.205c-0.349-0.1-0.642-0.229-0.877-0.391
			c-0.236-0.161-0.428-0.377-0.571-0.649c-0.144-0.271-0.216-0.594-0.216-0.962v-3.248c0-0.407,0.084-0.77,0.252-1.082
			c0.168-0.312,0.381-0.557,0.638-0.732c0.256-0.177,0.565-0.323,0.926-0.439c0.361-0.115,0.708-0.191,1.041-0.229
			c0.333-0.036,0.685-0.054,1.052-0.054c1.106,0,2.166,0.084,3.176,0.253v1.419c-0.955-0.226-2.014-0.337-3.176-0.337
			c-1.354,0-2.033,0.393-2.033,1.179v3.139c0,0.401,0.19,0.679,0.572,0.83c0.381,0.152,0.924,0.229,1.629,0.229
			c0.394,0,0.813-0.062,1.264-0.182v-1.814h-1.275v-1.229h3.067L40.573,53.638L40.573,53.638z"/>
		<path fill="#142A3E" d="M46.851,50.716l-0.985-2.935h-0.048l-0.986,2.935H46.851L46.851,50.716z M49.856,54.023h-1.899
			l-0.696-2.058h-2.852l-0.686,2.058h-1.853l2.886-7.807h2.285L49.856,54.023L49.856,54.023z"/>
		<polygon fill="#142A3E" points="53.201,54.023 51.325,54.023 51.325,46.218 53.201,46.218 		"/>
		<polygon fill="#142A3E" points="61.56,47.552 59.166,47.552 59.166,54.023 57.29,54.023 57.29,47.552 54.886,47.552 
			54.886,46.218 61.56,46.218 		"/>
		<polygon fill="#142A3E" points="69.315,47.552 66.923,47.552 66.923,54.023 65.047,54.023 65.047,47.552 62.642,47.552 
			62.642,46.218 69.315,46.218 		"/>
		<path fill="#142A3E" d="M75.63,48.863V48.31c0-0.289-0.086-0.487-0.258-0.597c-0.173-0.106-0.467-0.162-0.885-0.162h-1.61v2.165
			h1.61c0.441,0,0.742-0.059,0.902-0.175S75.63,49.2,75.63,48.863L75.63,48.863z M77.951,54.023h-2.164l-2.045-3.067h-0.866v3.067
			H71v-7.807h3.513c1.025,0,1.775,0.124,2.248,0.373c0.475,0.248,0.711,0.675,0.711,1.274v1.371c0,0.474-0.172,0.838-0.513,1.095
			s-0.765,0.417-1.269,0.481L77.951,54.023L77.951,54.023z"/>
		<path fill="#142A3E" d="M84.999,51.883v-3.428c0-0.377-0.154-0.642-0.463-0.794s-0.764-0.229-1.365-0.229
			c-0.609,0-1.066,0.073-1.371,0.223s-0.457,0.415-0.457,0.8v3.428c0,0.2,0.053,0.366,0.156,0.499s0.255,0.228,0.451,0.282
			c0.195,0.058,0.385,0.095,0.564,0.114c0.182,0.021,0.403,0.03,0.668,0.03c0.266,0,0.486-0.011,0.668-0.03
			c0.181-0.021,0.366-0.058,0.56-0.114c0.192-0.056,0.339-0.149,0.438-0.282C84.949,52.249,84.999,52.083,84.999,51.883
			L84.999,51.883z M86.876,48.467v3.416c0,0.44-0.117,0.817-0.35,1.131c-0.233,0.312-0.545,0.548-0.938,0.703
			c-0.394,0.156-0.786,0.268-1.179,0.33c-0.395,0.064-0.811,0.098-1.251,0.098c-0.417,0-0.808-0.026-1.173-0.078
			c-0.364-0.052-0.754-0.15-1.166-0.295c-0.413-0.146-0.742-0.377-0.986-0.697c-0.245-0.32-0.367-0.718-0.367-1.19v-3.416
			c0-0.399,0.092-0.753,0.271-1.059c0.181-0.305,0.396-0.537,0.648-0.697c0.254-0.16,0.561-0.29,0.92-0.391
			c0.361-0.101,0.682-0.162,0.963-0.188c0.28-0.023,0.578-0.035,0.891-0.035c0.32,0,0.623,0.012,0.908,0.035
			c0.283,0.024,0.606,0.087,0.968,0.188c0.36,0.101,0.67,0.229,0.927,0.391c0.256,0.16,0.473,0.392,0.648,0.691
			C86.787,47.703,86.876,48.057,86.876,48.467L86.876,48.467z"/>
		<polygon fill="#142A3E" points="96.341,54.023 94.44,54.023 90.664,48.611 90.664,54.023 88.992,54.023 88.992,46.218 
			90.894,46.218 94.669,51.546 94.669,46.218 96.341,46.218 		"/>
		<polygon fill="#142A3E" points="100.502,54.023 98.626,54.023 98.626,46.218 100.502,46.218 		"/>
		<path fill="#142A3E" d="M102.442,23.92c0.002,0,0.002-0.001,0.005-0.001c1.374-0.325,4.101-4.337-0.546-3.015
			c-1.813,0.516-3.961,0.977-6.057,1.095c-2.095,0.117-4.498-5.417-4.275-8.35c0.162-2.147,0.011-3.652,4.66-4.036
			c3.359-0.277,4.086,0.294,4.517,2.038c0.493,1.993,3.542,2.412,3.334,0.923l0.001,0.001c-0.451-3.152-1.032-5.871-1.469-6.249
			c-1.064-0.925-13.014-0.086-13.996,1.46c-2.448,3.856,0.449,16.237,2.226,17.169c1.378,0.724,8.033-0.126,11.521-1.014
			C102.381,23.935,102.406,23.928,102.442,23.92L102.442,23.92z"/>
		<g>
			<g>
				<path fill="#142A3E" d="M96.998,43.277c-0.437-2.468-1.101-4.792-1.996-6.97c-0.896-2.18-1.993-4.151-3.296-5.918
					c-1.305-1.768-2.764-3.191-4.381-4.274c-0.197-0.132-0.418-0.244-0.659-0.334c-0.412-0.154-0.888-0.249-1.429-0.284
					c-0.857-0.055-1.818,0.002-2.883,0.174c-1.064,0.17-2.194,0.432-3.391,0.78c-1.193,0.349-2.39,0.757-3.587,1.228
					c-1.196,0.469-2.36,0.977-3.489,1.524s-2.162,1.093-3.1,1.636s-1.742,1.076-2.413,1.601c-0.501,0.392-0.894,0.752-1.173,1.081
					l0,0c-0.096,0.109-0.178,0.218-0.247,0.321c-0.438,0.655-0.812,1.479-1.12,2.466c-0.309,0.986-0.554,2.081-0.738,3.281
					c-0.187,1.201-0.313,2.48-0.382,3.838c-0.015,0.288-0.047,0.66-0.057,0.949h5.353c0.025-0.816,0.061-1.655,0.1-2.376
					c0.057-1.076,0.137-1.995,0.238-2.756c0.1-0.762,0.242-1.279,0.426-1.554c0.315-0.475,0.805-0.914,1.465-1.323
					c0.66-0.408,1.418-0.772,2.273-1.095c0.856-0.322,1.756-0.594,2.697-0.812c0.941-0.22,1.848-0.366,2.712-0.438
					c0.866-0.072,1.656-0.073,2.372-0.003c0.479,0.047,0.883,0.137,1.213,0.268c0.161,0.063,0.307,0.137,0.432,0.221
					c1.039,0.694,1.996,1.59,2.875,2.687c0.879,1.096,1.662,2.311,2.351,3.644c0.581,1.127,1.076,2.311,1.493,3.54h8.494
					C97.101,44.001,97.063,43.652,96.998,43.277L96.998,43.277z"/>
			</g>
			<g>
				<path fill="#142A3E" d="M67.082,17.466c0.416,1.195,0.946,2.287,1.594,3.272c0.647,0.987,1.388,1.794,2.224,2.423
					c0.176,0.131,0.393,0.229,0.641,0.299c0.143,0.041,0.294,0.074,0.461,0.096c0.459,0.055,0.977,0.052,1.553-0.009
					c0.576-0.06,1.189-0.167,1.842-0.317c0.651-0.151,1.305-0.335,1.961-0.553c0.656-0.216,1.295-0.454,1.918-0.715
					c0.621-0.261,1.191-0.522,1.711-0.786c0.521-0.264,0.968-0.525,1.343-0.786c0.376-0.262,0.644-0.498,0.804-0.71
					c0.256-0.34,0.479-0.77,0.674-1.29c0.195-0.521,0.358-1.102,0.493-1.74c0.136-0.64,0.242-1.321,0.319-2.048
					c0.076-0.727,0.122-1.459,0.138-2.201c0.015-0.742-0.001-1.474-0.046-2.192s-0.123-1.395-0.232-2.027
					c-0.11-0.633-0.252-1.205-0.422-1.717c-0.172-0.511-0.379-0.926-0.621-1.243c-0.111-0.146-0.199-0.243-0.263-0.291
					c-0.182-0.137-0.338-0.118-0.468,0.056c-0.089,0.118-0.167,0.374-0.234,0.768c-0.068,0.395-0.131,0.875-0.188,1.443
					c-0.059,0.568-0.109,1.195-0.157,1.882c-0.047,0.688-0.091,1.389-0.131,2.105c-0.039,0.718-0.086,1.424-0.14,2.117
					c-0.053,0.694-0.11,1.33-0.174,1.905c-0.063,0.577-0.134,1.067-0.209,1.473c-0.078,0.405-0.17,0.679-0.275,0.82
					c-0.184,0.245-0.459,0.467-0.825,0.667s-0.784,0.373-1.253,0.521c-0.469,0.146-0.959,0.266-1.473,0.355
					c-0.512,0.09-1,0.143-1.467,0.154c-0.468,0.013-0.892-0.009-1.272-0.068c-0.238-0.036-0.437-0.092-0.603-0.164
					c-0.101-0.043-0.191-0.09-0.267-0.146c-0.536-0.403-1.024-0.912-1.463-1.526c-0.438-0.613-0.824-1.289-1.153-2.023
					c-0.33-0.735-0.595-1.506-0.797-2.313c-0.202-0.806-0.34-1.604-0.412-2.394s-0.074-1.547-0.004-2.271s0.221-1.372,0.45-1.938
					l3.079-0.12c0.589-0.023,1.076-0.464,1.164-1.048c0.041-0.268,0.066-0.529,0.078-0.786c0.009-0.24,0-0.49-0.021-0.747
					c-0.022-0.258-0.067-0.508-0.138-0.752s-0.172-0.476-0.305-0.692c-0.134-0.217-0.306-0.406-0.519-0.565
					c-0.426-0.32-0.866-0.557-1.321-0.706c-0.455-0.15-0.904-0.205-1.35-0.164c-0.445,0.042-0.875,0.182-1.288,0.42
					c-0.414,0.238-0.792,0.586-1.138,1.043c-0.506,0.674-0.942,1.394-1.307,2.157c-0.209,0.433-0.394,0.879-0.555,1.34
					c-0.447,1.274-0.736,2.582-0.867,3.922c-0.131,1.339-0.117,2.678,0.044,4.015C66.378,15.004,66.666,16.27,67.082,17.466
					L67.082,17.466z"/>
			</g>
		</g>
		<path fill="#142A3E" d="M116.165,43.107c-0.42-2.38-1.062-4.621-1.926-6.724c-0.862-2.102-1.922-4.004-3.18-5.708
			c-1.258-1.703-2.666-3.078-4.226-4.122c-0.19-0.129-0.403-0.235-0.637-0.323c-0.397-0.149-0.856-0.24-1.378-0.274
			c-0.827-0.053-1.754,0.002-2.781,0.168c-1.025,0.165-2.116,0.416-3.27,0.753c-1.152,0.337-2.307,0.731-3.461,1.185
			c-1.154,0.452-2.276,0.941-3.365,1.471c-1.09,0.529-2.086,1.055-2.99,1.578c-0.905,0.523-1.682,1.039-2.327,1.544
			c-0.483,0.377-0.86,0.725-1.132,1.042l0,0l3.445,4.022c0.307-0.456,0.776-0.882,1.414-1.275c0.637-0.395,1.367-0.746,2.193-1.056
			c0.825-0.312,1.693-0.572,2.602-0.784c0.91-0.212,1.781-0.354,2.617-0.423c0.834-0.069,1.598-0.07,2.287-0.004
			c0.463,0.046,0.852,0.133,1.17,0.259c0.155,0.062,0.297,0.132,0.418,0.213c1,0.67,1.926,1.533,2.771,2.591
			c0.848,1.058,1.604,2.229,2.268,3.516c0.562,1.087,1.096,2.436,1.498,3.622h8.186C116.312,44.014,116.228,43.469,116.165,43.107
			L116.165,43.107z"/>
		<path fill="#142A3E" d="M104.819,25.957c-0.826-0.053-1.754,0.002-2.78,0.168c-1.026,0.165-2.116,0.416-3.269,0.753
			c-1.153,0.337-2.308,0.731-3.461,1.185c-1.156,0.452-2.277,0.941-3.367,1.471c-1.088,0.529-2.086,1.055-2.989,1.578
			c-0.905,0.523-1.681,1.039-2.327,1.544c-0.484,0.377-0.861,0.725-1.132,1.042l0,0l3.446,4.023
			c0.306-0.457,0.775-0.883,1.412-1.276c0.638-0.395,1.369-0.746,2.194-1.056c0.825-0.312,1.693-0.572,2.603-0.784
			c0.908-0.212,1.781-0.354,2.615-0.423c0.836-0.069,1.598-0.07,2.289-0.003c0.463,0.046,0.852,0.132,1.17,0.258l4.975-8.205
			C105.801,26.082,105.342,25.99,104.819,25.957L104.819,25.957z"/>
		<path fill="#142A3E" d="M114.239,36.384c-0.862-2.102-1.922-4.004-3.18-5.708c-1.258-1.703-2.666-3.078-4.226-4.122
			c-0.19-0.129-0.403-0.235-0.637-0.323l-4.976,8.205c0.155,0.062,0.297,0.132,0.418,0.213c1,0.67,1.924,1.533,2.771,2.591
			c0.847,1.058,1.604,2.229,2.268,3.516c0.562,1.087,1.096,2.436,1.498,3.622h8.186c-0.053-0.361-0.135-0.906-0.198-1.27
			C115.745,40.727,115.103,38.486,114.239,36.384L114.239,36.384z"/>
		<path fill="#142A3E" d="M65.202,33.52c-0.096,0.109-0.178,0.218-0.247,0.321c-0.438,0.655-0.812,1.479-1.12,2.466
			c-0.309,0.986-0.554,2.081-0.738,3.281c-0.187,1.201-0.313,2.48-0.382,3.838c-0.015,0.288-0.048,0.66-0.057,0.949h5.353
			c0.025-0.816,0.061-1.655,0.1-2.376c0.057-1.076,0.137-1.995,0.238-2.756c0.1-0.762,0.242-1.279,0.426-1.554L65.202,33.52
			L65.202,33.52L65.202,33.52z"/>
		<path fill="#142A3E" d="M85.237,25.497c-0.857-0.055-1.818,0.002-2.883,0.174c-1.064,0.17-2.194,0.432-3.39,0.78
			c-1.194,0.349-2.391,0.757-3.588,1.228c-1.198,0.469-2.36,0.977-3.489,1.524c-1.13,0.548-2.164,1.093-3.101,1.636
			c-0.938,0.543-1.742,1.076-2.413,1.601c-0.501,0.392-0.893,0.752-1.173,1.081l0,0l3.573,4.171
			c0.315-0.475,0.805-0.914,1.465-1.323c0.66-0.408,1.418-0.772,2.273-1.095c0.856-0.322,1.756-0.594,2.697-0.812
			c0.941-0.22,1.848-0.365,2.712-0.438c0.866-0.072,1.656-0.073,2.372-0.003c0.479,0.047,0.883,0.137,1.213,0.268l5.157-8.506
			C86.254,25.627,85.778,25.532,85.237,25.497L85.237,25.497z"/>
		<path fill="#142A3E" d="M95.002,36.307c-0.896-2.18-1.993-4.151-3.296-5.918c-1.305-1.768-2.764-3.191-4.381-4.274
			c-0.197-0.132-0.418-0.244-0.659-0.334l-5.157,8.506c0.161,0.063,0.307,0.137,0.432,0.221c1.039,0.694,1.996,1.59,2.875,2.687
			c0.879,1.096,1.662,2.311,2.351,3.644c0.581,1.127,1.076,2.311,1.493,3.54h8.494c-0.053-0.376-0.088-0.725-0.154-1.1
			C96.562,40.809,95.897,38.485,95.002,36.307L95.002,36.307z"/>
		<path fill="#142A3E" d="M84.298,16.649c0.137-0.64,0.242-1.321,0.319-2.048s0.122-1.459,0.138-2.201s-0.001-1.474-0.046-2.192
			s-0.123-1.395-0.233-2.027c-0.109-0.633-0.25-1.205-0.422-1.717c-0.171-0.511-0.377-0.926-0.619-1.243
			c-0.112-0.146-0.201-0.243-0.264-0.291c-0.182-0.137-0.338-0.118-0.468,0.056c-0.089,0.118-0.167,0.374-0.235,0.768
			c-0.066,0.395-0.13,0.875-0.187,1.443c-0.058,0.568-0.109,1.195-0.157,1.882c-0.047,0.688-0.091,1.389-0.13,2.105
			c-0.04,0.718-0.087,1.424-0.14,2.117c-0.055,0.694-0.111,1.33-0.176,1.905c-0.062,0.577-0.133,1.067-0.209,1.473
			s-0.168,0.679-0.275,0.82l1.937,2.18c0.255-0.34,0.479-0.77,0.675-1.29C84,17.867,84.163,17.288,84.298,16.649L84.298,16.649z"/>
		<path fill="#142A3E" d="M80.37,18.166c-0.366,0.2-0.784,0.373-1.253,0.521c-0.47,0.146-0.959,0.266-1.472,0.355
			s-1.002,0.143-1.469,0.154c-0.467,0.013-0.891-0.009-1.271-0.068c-0.238-0.036-0.436-0.092-0.602-0.164l-2.766,4.496
			c0.143,0.041,0.294,0.074,0.461,0.096c0.459,0.055,0.977,0.052,1.552-0.009c0.577-0.06,1.19-0.167,1.843-0.317
			c0.651-0.151,1.305-0.335,1.961-0.552s1.295-0.455,1.918-0.716c0.621-0.261,1.191-0.522,1.711-0.786
			c0.521-0.264,0.968-0.525,1.343-0.786c0.376-0.262,0.644-0.498,0.804-0.71l-1.936-2.18C81.013,17.744,80.735,17.967,80.37,18.166
			L80.37,18.166z"/>
		<g>
			<g>
				<path fill="#142A3E" d="M74.037,18.818c-0.536-0.403-1.024-0.912-1.463-1.526c-0.438-0.613-0.823-1.289-1.152-2.023
					c-0.33-0.735-0.595-1.506-0.797-2.313c-0.202-0.806-0.34-1.604-0.412-2.394c-0.073-0.79-0.075-1.547-0.004-2.271
					c0.069-0.725,0.22-1.372,0.45-1.938l-3.062-1.96c-0.207,0.433-0.394,0.879-0.555,1.34c-0.447,1.274-0.736,2.582-0.867,3.922
					c-0.131,1.339-0.117,2.678,0.045,4.015c0.16,1.337,0.447,2.604,0.863,3.799c0.416,1.195,0.947,2.287,1.594,3.272
					c0.647,0.987,1.389,1.794,2.225,2.423c0.175,0.131,0.392,0.229,0.64,0.299l2.765-4.496
					C74.203,18.922,74.11,18.874,74.037,18.818L74.037,18.818z"/>
			</g>
			<g>
				<path fill="#142A3E" d="M73.737,6.23c0.589-0.023,1.076-0.464,1.164-1.048c0.041-0.268,0.066-0.529,0.078-0.786
					c0.008-0.24,0-0.49-0.021-0.747c-0.021-0.258-0.068-0.508-0.139-0.752c-0.069-0.244-0.17-0.476-0.303-0.692
					c-0.135-0.217-0.307-0.406-0.52-0.565c-0.426-0.32-0.866-0.557-1.321-0.706c-0.454-0.15-0.903-0.205-1.35-0.164
					c-0.445,0.042-0.875,0.182-1.288,0.42c-0.414,0.237-0.792,0.586-1.137,1.043c-0.508,0.674-0.942,1.394-1.309,2.157l3.063,1.96
					L73.737,6.23L73.737,6.23z"/>
			</g>
		</g>
		<path fill="#142A3E" d="M91.569,13.649c0.093-1.226,0.084-2.241,0.923-2.958l-3.569-3.185c-0.142,0.091-0.244,0.185-0.307,0.28
			c-2.383,3.752,0.298,15.575,2.08,17.068l4.393-3.043C93.216,20.831,91.374,16.231,91.569,13.649L91.569,13.649z"/>
		<path fill="#142A3E" d="M101.901,20.904c-1.813,0.516-3.961,0.977-6.057,1.095c-0.248,0.015-0.504-0.055-0.757-0.188l-4.394,3.043
			c0.05,0.041,0.099,0.076,0.146,0.101c1.379,0.724,8.033-0.126,11.52-1.014c0.021-0.005,0.046-0.012,0.082-0.021
			c0.002,0,0.002-0.001,0.005-0.001C103.821,23.593,106.548,19.582,101.901,20.904L101.901,20.904z"/>
	</g>
	<path fill="#142A3E" d="M108.765,53.879c-0.883,0.177-1.725,0.266-2.525,0.266c-0.32,0-0.623-0.015-0.908-0.042
		c-0.284-0.028-0.602-0.088-0.95-0.182c-0.349-0.092-0.646-0.217-0.89-0.373c-0.245-0.155-0.451-0.377-0.619-0.66
		c-0.169-0.284-0.253-0.619-0.253-1.005v-3.428c0-1.571,1.207-2.356,3.62-2.356c0.594,0,1.42,0.088,2.478,0.265v1.407
		c-0.954-0.226-1.771-0.337-2.452-0.337c-0.273,0-0.496,0.008-0.668,0.023c-0.173,0.017-0.354,0.057-0.541,0.12
		c-0.188,0.064-0.33,0.166-0.422,0.307c-0.093,0.142-0.139,0.322-0.139,0.548v3.318c0,0.706,0.646,1.06,1.938,1.06
		c0.568,0,1.346-0.116,2.334-0.35v1.419H108.765z"/>
	<path fill="#142A3E" d="M116.558,51.281v0.517c0,0.467-0.084,0.856-0.252,1.174c-0.168,0.316-0.418,0.558-0.746,0.722
		c-0.33,0.164-0.688,0.281-1.076,0.349c-0.389,0.068-0.853,0.104-1.389,0.104c-0.746,0-1.669-0.072-2.768-0.217v-1.432
		c1.331,0.208,2.261,0.312,2.791,0.312c1.042,0,1.562-0.27,1.562-0.807v-0.505c0-0.232-0.068-0.423-0.205-0.571
		c-0.137-0.147-0.408-0.223-0.817-0.223h-0.913c-1.717,0-2.574-0.682-2.574-2.045v-0.577c0-0.674,0.283-1.173,0.848-1.497
		c0.565-0.325,1.471-0.486,2.713-0.486c0.602,0,1.416,0.052,2.44,0.155v1.396c-1.219-0.146-2.052-0.217-2.501-0.217
		c-0.617,0-1.043,0.052-1.273,0.155c-0.233,0.104-0.351,0.28-0.351,0.529v0.553c0,0.409,0.345,0.613,1.034,0.613h0.938
		c0.914,0,1.565,0.169,1.955,0.506C116.362,50.127,116.558,50.624,116.558,51.281L116.558,51.281z"/>
</g>
</svg>
