<svg xmlns="http://www.w3.org/2000/svg" width="80" height="24.698" viewBox="0 3.322 80 24.698" enable-background="new 0 3.322 80 24.698"><g fill="#152A3F"><rect x=".113" y="19.151" width=".81" height=".84"/><rect x="1.692" y="19.879" width=".909" height=".936"/><rect x="3.396" y="19.459" width="1.104" height="1.131"/><rect x="3.005" y="21.555" width="1.131" height="1.146"/><rect x="5.758" y="19.571" width="1.327" height="1.242"/><rect x="5.59" y="21.889" width="1.342" height="1.328"/><rect x="8.23" y="22.448" width="1.37" height="1.359"/><path d="M7.561 17.979s.265 1.244.503 1.453h1.424v1.648h-.336s.517.67 1.062.953v-1.021h1.564v1.621h-.614s3.855 2.375 7.81-.936c0 0-3.115.686-7.656-1.805-2.739-1.566-3.493-1.843-3.757-1.913zm-5.869-.418s3.311-5.197 12.504 0c4.331 2.514 7.376 1.611 9.974-2.312 0 0-2.138 9.099-11.238 4.628-3.122-1.703-7.761-4.971-11.24-2.316zm10.326-1.906s-2.878-1.112-4.457-1.142l-1.301-1.118s-.53-.225-.278-.728c.252-.501.783-1.396.783-1.396s.224-.446.797-.252c.572.197 1.801.672 1.801.672s.503-.614 1.09-.978l-.308-1.816s-.251-.529.53-.811l1.174-.419s.391-.306.781.308l.979 1.537s.81-.084 1.48 0l.811-1.396s.279-.796 1.006-.524l1.341.524s.419.027.279.781c-.14.756-.251 1.79-.251 1.79s.614.393 1.061.909l1.704-.601s.614-.308.838.167l.727 1.258s.391.364-.141.81l-1.37 1.146s.225 1.396.253 1.507c.026.113 1.005.419 1.005.419s-2.207 2.906-5.783 1.396c0 0 1.257-2.038-.923-3.462-1.73-.951-3.293.493-3.628 1.419z"/><polygon points="29.229,11.749 29.229,19.385 30.252,19.385 30.252,15.883 37.351,15.883 37.351,19.385 38.411,19.385 38.411,11.749 37.368,11.749 37.368,14.972 30.271,14.972 30.271,11.749"/><path d="M45.434 14.636c-.633-.932-4.639-.634-5.346-.317-.708.317-.652 1.336-.652 1.336h.875c.226-.544-.168-.87 1.976-.907 2.142-.038 2.233.242 2.496.501.26.261.276 1.824.276 1.824l-.242-.33c-.575-.665-3.146-.486-4.283-.45-1.135.038-1.471.987-1.249 2.124.223 1.137 1.715 1.061 1.715 1.061h2.364c1.173 0 1.66-.709 1.66-.709v.617h.781v-2.552c.002-.746.038-1.603-.371-2.198zm-.539 3.202c0 .895-1.137.895-1.137.895h-2.568c-.483 0-1.082-.094-1.082-.895l.97-.836h2.553c1.43 0 1.264.836 1.264.836z"/><rect x="46.794" y="11.749" width=".819" height="7.729"/><polygon points="48.117,11.749 57.448,11.749 57.448,13.686 54.003,13.686 54.003,19.479 51.543,19.479 51.543,13.648 48.117,13.648"/><path d="M61.658 13.891c-2.496-.11-5.348-.334-5.327 1.725.019 2.057-.261 3.49 1.321 3.75 1.586.262 5.83.729 5.961-1.693h-2.012s.221.668-1.595.668-1.629-.426-1.739-1.248h5.383c0-.001.504-3.091-1.992-3.202zm-.096 2.179h-3.295s-.279-1.024 1.739-1.024l1.556 1.024zm8.126.111h2.086s.039-2.066-1.638-2.197c-1.675-.131-3.559-.336-5.03.28-.688.354-.894 1.376-.873 2.345.02.97-.073 2.591 1.715 2.776 1.789.188 4.88.393 5.494-.729.262-.67.334-1.434.334-1.434h-2.086s.057.838-1.324.838c-1.377 0-2.086-.094-2.066-.875.02-.78-.296-1.806 1.25-1.806 1.546.001 1.95-.092 2.138.802zm2.792-4.45h1.992v3.241s.43-1.192 2.144-1.127 3.271.072 3.271 2.843v2.773h-2.099v-2.867s.29-1.25-1.604-1.25c-1.896 0-1.654 1.171-1.654 1.49v2.627h-2.05v-7.73z"/></g></svg>