<svg xmlns="http://www.w3.org/2000/svg" width="80" height="29.631"><path d="M17.378 12.426v4.728c-.231.068-3.105.084-3.505.029-.059-.209-.069-10.329-.005-10.628l.269-.015c.92 0 1.839.006 2.758-.004.2-.002.324.065.447.219 1.111 1.393 2.233 2.779 3.351 4.167l.235.271v-4.592c.215-.071 3.154-.09 3.539-.028v10.622l-.3.016c-.863 0-1.725-.006-2.589.006-.199 0-.324-.062-.449-.221-1.164-1.457-2.338-2.907-3.508-4.362l-.193-.223-.05.015zm41.506 1.171l2.457 3.592-.294.021c-1.174 0-2.347-.002-3.518.006-.193.002-.305-.066-.407-.225-.562-.865-1.138-1.723-1.697-2.588-.108-.166-.226-.256-.428-.235l-.46.003-.02.341v2.68h-3.56v-10.629l.242-.021c1.704-.002 3.414-.011 5.119.004.8.007 1.591.089 2.346.386.919.361 1.678.929 2.023 1.873.491 1.349.431 2.653-.527 3.814-.282.344-.636.608-1.021.828l-.255.15zm-4.349-1.989l1.238-.001c.196 0 .397.019.59-.019.207-.039.417-.11.606-.205.248-.125.381-.354.429-.628.104-.608-.234-1.096-.89-1.16-.633-.062-1.274-.032-1.907-.042l-.066.037v2.018zm15.99-1.074v2.591c-.577.019-1.145.006-1.711.008l-1.72.002h-1.733v1.137h5.611v2.892c-.21.059-8.759.074-9.108.02-.062-.215-.07-10.36-.003-10.626h9.042v2.921h-5.542v1.057c1.713-.002 3.425-.002 5.164-.002zm-45.718 5.069l1.899-2.266.249.169c1.081.762 2.295 1.08 3.605 1.07.166-.001.336-.038.496-.086s.274-.158.287-.343c.013-.174-.078-.295-.217-.363-.165-.081-.342-.156-.522-.201-.492-.123-.992-.211-1.479-.344-.552-.148-1.102-.308-1.636-.505-.322-.12-.631-.295-.916-.485-.919-.621-1.284-1.511-1.18-2.598.133-1.356.863-2.286 2.088-2.842.606-.274 1.246-.411 1.906-.442 1.151-.054 2.287.028 3.39.395.725.243 1.489.66 1.941 1.07l-1.725 2.392-.303-.188c-.905-.565-1.89-.853-2.958-.85-.139 0-.281.025-.413.066-.159.048-.275.152-.291.34-.012.183.07.313.228.386.187.082.378.165.577.212l1.842.401c.593.139 1.175.322 1.709.629.235.136.466.285.672.459.567.475.873 1.084.922 1.83.097 1.508-.604 2.711-1.973 3.358-.689.325-1.418.487-2.173.526-1.41.078-2.79-.098-4.113-.617-.641-.252-1.23-.598-1.762-1.037l-.15-.136zm14.556 1.589h-3.554v-10.63l.239-.02c1.559-.002 3.114-.011 4.673.004.771.007 1.532.111 2.261.38 1.664.614 2.492 1.969 2.369 3.763-.072 1.083-.502 1.989-1.373 2.66-.608.47-1.312.714-2.061.854-.566.106-1.135.123-1.709.114l-.847-.001v1.454l.002 1.422zm.02-5.428c.514-.012 1.008.046 1.497-.062l.214-.064c.521-.199.742-.544.728-1.134-.013-.5-.279-.844-.792-.999-.541-.163-1.092-.077-1.649-.091l.002 2.35zm-26.809 5.426h-3.547v-10.628h3.519l.017.015.017.021.015.083c0 3.459.001 6.921 0 10.38l-.021.129zm33.58.014v-10.646h3.536v10.646c-1.176.012-2.353.008-3.536 0zm-17.455 3.277l-1.244 1.82-1.28-1.855c-.077.268-.034.496-.041.721l-.002.703v1.387h-.397v-3.564c.384-.082.384-.082.583.215l.952 1.426.178.254.161-.205.984-1.473c.186-.279.187-.279.55-.236.061.193.083 3.115.023 3.576h-.396v-2.744l-.071-.025zm-9.581-.039v2.814h-.397v-3.572c.243-.08.402-.014.557.189.596.781 1.21 1.551 1.82 2.322l.213.262c.086-.199.038-.383.046-.561l.001-.562v-1.665l.223-.016.176.02v3.568c-.221.082-.356.008-.49-.166-.63-.812-1.271-1.623-1.911-2.432l-.177-.215-.061.014zm44.803 1.243v1.57h-.376c-.063-.197-.073-3.293-.011-3.586h.385v1.578c.702.021 1.37.01 2.073.01v-1.584h.407v3.582h-.392v-1.541c-.23-.076-1.695-.094-2.086-.029zm-17.358-2.024h2.581v.371h-2.163v1.207c.64.045 1.273-.004 1.928.027v.359h-1.926v1.266l2.195.014v.32c-.195.059-2.253.074-2.618.018.003-1.18.003-2.365.003-3.582zm-4.237 1.578h2.07v-1.566l.221-.02.182.012v3.59l-.189.02-.193-.014v-1.594c-.711-.037-1.389-.01-2.087-.02v1.611l-.365.02c-.067-.215-.079-3.295-.015-3.605h.377l-.001 1.566zm-10.073-1.601l.147-.012c.188-.031.283.049.36.223.424.961.862 1.914 1.295 2.871l.239.537h-.445l-.428-.928h-1.946l-.43.934h-.367l-.021-.025-.005-.029.068-.184 1.533-3.387zm-.602 2.279c.501.055 1.366.037 1.58-.027l-.781-1.756-.799 1.783zm-17.199.418l-.419.922h-.43c.54-1.221 1.088-2.408 1.63-3.615l.257-.018c.111-.01.167.047.212.143l1.534 3.406.009.078h-.42l-.417-.918-1.956.002zm.981-2.205l-.793 1.777c.385.066 1.379.049 1.572-.027l-.779-1.75zm38.658 3.135h-.44l-.425-.932h-1.948l-.428.924h-.415l.092-.236c.477-1.057.957-2.115 1.43-3.174.062-.139.122-.242.305-.229.139.012.22.047.278.18.24.549.49 1.094.738 1.639l.694 1.533.119.295zm-1.039-1.34l-.796-1.791c-.282.621-.544 1.191-.802 1.791h1.598zm4.913.955v.387c-.8.023-1.599.004-2.42.01v-3.602l.196-.021.205.018.008 3.209 2.011-.001zm2.84.381h-.413v-3.205h-1.199l-.017-.346c.206-.068 2.355-.09 2.835-.031v.363h-1.191c-.021 1.076-.006 2.133-.015 3.219zm-25.066-3.594h.396v3.205h2.016l.018.396c-.814.016-1.614.004-2.43.008v-3.609zm-11.818 3.592h-.368v-3.592h.345c.072.193.092 3.221.023 3.592zm28.335-3.078l.796 1.793" fill="#142A3E"/></svg>