<svg xmlns="http://www.w3.org/2000/svg" width="80" height="52.5"><path d="M3.666 37.136v-5.285h-1.998l-1.624 2.5v3.061c1.302.052 2.505-.054 3.622-.276zm-3.622 1.088v1.436h3.622v-1.885c-2.138.494-3.622.449-3.622.449z" fill="#142A3E"/><path d="M4.416 37.581v2.076h3.747v-3.562c-1.321.699-2.605 1.176-3.747 1.486zm3.747-2.166v-9.624h-1.874l-1.873 3.812v7.357c1.397-.354 2.644-.897 3.747-1.545z" fill="#142A3E"/><polygon fill="#142A3E" points="11.661,12.8 11.661,18.322 12.036,17.608 12.527,18.709 12.527,12.8"/><path fill="#142A3E" d="M16.222 13.3s-3.812-.062-4.123-.5v2.625s.75-.188 1.748 0c1 .186 1.75.6 2.375.329v-2.454z"/><path d="M9.1 35.61v4.09h5.996v-10.053c-1.761 2.795-3.895 4.686-5.996 5.963zm2.936-17.959c-.061-.185-2.936 6.716-2.936 6.716v10.489c4.169-2.875 5.996-7.102 5.996-7.102v-3.39c0 .003-2.997-6.523-3.06-6.713zm.063 8.683c-.792 0-1.437-.644-1.437-1.438 0-.793.645-1.436 1.437-1.436.793 0 1.438.643 1.438 1.436-.001.796-.645 1.438-1.438 1.438z" fill="#142A3E"/><path d="M18.489 27.063h1.26v5.719h-1.26v-5.719zm2.125 1.793h1.164v.533h.015l.162-.229c.069-.074.153-.146.25-.201.097-.062.207-.107.331-.146s.259-.059.404-.059c.307 0 .555.047.743.143.189.096.336.227.441.393.104.168.176.363.213.592.038.227.057.473.057.734v2.164h-1.211v-1.924l-.013-.354c-.008-.119-.032-.23-.073-.332-.04-.105-.103-.189-.186-.252-.084-.064-.203-.098-.359-.098-.157 0-.282.027-.38.086-.097.055-.171.131-.222.225-.052.096-.086.201-.102.318l-.024.375v1.951h-1.211v-3.924h.001v.005zm4.096 0h1.31l.993 2.666h.016l.922-2.666h1.22l-1.551 3.926h-1.285l-1.625-3.926zm8.492 3.248c-.194.248-.438.439-.736.572-.296.137-.603.203-.92.203-.302 0-.586-.049-.853-.146s-.498-.232-.694-.416c-.197-.178-.353-.396-.466-.646-.112-.254-.169-.537-.169-.85s.057-.598.169-.85c.113-.254.269-.471.466-.65.196-.18.428-.318.694-.416.267-.098.551-.146.853-.146.279 0 .534.049.764.146.229.098.423.236.582.416.157.182.28.396.367.65.086.252.129.535.129.85v.381h-2.811c.047.23.152.416.314.551.161.141.361.209.598.209.199 0 .367-.045.504-.137.139-.09.259-.203.36-.342l.849.621zm-1.027-1.73c.007-.205-.061-.379-.201-.523-.14-.146-.32-.219-.541-.219-.135 0-.253.02-.355.064-.102.043-.189.1-.262.162-.073.066-.13.146-.171.234-.04.09-.062.182-.067.277l1.597.005zm4.042-.363c-.178-.219-.413-.33-.704-.33-.103 0-.202.023-.298.072-.099.049-.146.133-.146.25 0 .098.049.168.148.213.1.049.226.088.38.123l.492.113c.175.041.34.104.493.188.154.088.28.207.38.354.099.148.149.348.149.594 0 .254-.055.463-.166.627-.109.164-.251.297-.424.396-.172.1-.366.17-.581.211-.216.041-.429.061-.64.061-.274 0-.551-.039-.831-.115-.28-.078-.518-.219-.711-.418l.735-.812c.112.141.238.246.376.316.137.074.297.109.479.109.141 0 .268-.02.38-.061.113-.041.17-.115.17-.225 0-.102-.049-.18-.149-.23-.099-.049-.226-.092-.38-.127l-.493-.113c-.174-.041-.338-.1-.492-.184-.153-.08-.279-.193-.38-.342-.1-.148-.149-.35-.149-.596 0-.23.048-.434.142-.598.094-.17.219-.307.371-.412.154-.107.33-.189.529-.238.199-.051.401-.076.606-.076.259 0 .52.037.784.111.264.076.486.211.671.402l-.741.737zm4.062-.186h-1.066v1.309l.018.297c.01.088.035.164.071.23.037.062.097.113.175.148.076.033.181.055.311.055l.255-.021s.187-.045.239-.092v1.01c-.137.049-.277.08-.422.098-.146.018-.289.023-.428.023-.205 0-.395-.021-.564-.062-.174-.045-.324-.111-.454-.209-.128-.094-.23-.215-.303-.365-.072-.15-.108-.334-.108-.551v-1.865h-.775v-.971h.775v-1.164h1.212v1.164h1.067l-.003.966zm-22.081 6.83c0-.459.076-.873.23-1.246.153-.371.368-.686.643-.947.274-.262.601-.461.978-.602.376-.143.789-.211 1.236-.211.446 0 .858.068 1.236.211.376.141.702.34.977.602.275.264.489.576.644.947.152.373.229.787.229 1.246 0 .457-.077.873-.229 1.244-.154.371-.368.688-.644.945-.274.266-.601.467-.977.605-.378.141-.79.209-1.236.209-.447 0-.86-.068-1.236-.209-.377-.143-.703-.344-.978-.605-.274-.26-.489-.574-.643-.945-.154-.371-.23-.787-.23-1.244zm1.309 0c0 .27.042.516.126.738.083.225.203.418.359.582.156.164.344.293.562.383.219.094.462.139.731.139s.513-.045.73-.139c.219-.09.405-.219.562-.383.155-.164.275-.357.359-.582.083-.225.124-.471.124-.738 0-.266-.041-.508-.124-.736-.084-.227-.204-.422-.359-.584-.157-.166-.344-.293-.562-.385-.218-.092-.461-.137-.73-.137s-.513.045-.731.137c-.218.092-.405.219-.562.385-.156.162-.276.357-.359.584-.084.228-.126.473-.126.736zm7.644-.097h-1.066v1.311l.016.297c.011.088.035.166.073.229.037.062.095.113.173.148.079.035.182.053.311.053l.255-.02c.105-.014.186-.043.239-.094v1.012c-.136.049-.275.08-.421.098l-.428.023c-.204 0-.394-.021-.565-.062-.173-.045-.323-.111-.453-.209-.129-.092-.23-.215-.303-.365-.073-.148-.109-.334-.109-.549v-1.867h-.774v-.971h.774v-1.162h1.213v1.162h1.066l-.001.966zm2.69 0h-1.067v1.311l.017.297c.01.088.035.166.073.229.037.062.095.113.173.148.079.035.182.053.311.053l.255-.02c.105-.014.186-.043.239-.094v1.012c-.136.049-.275.08-.421.098l-.428.023c-.204 0-.394-.021-.565-.062-.173-.045-.323-.111-.453-.209-.129-.092-.23-.215-.303-.365-.073-.148-.109-.334-.109-.549v-1.867h-.774v-.971h.774v-1.162h1.212v1.162h1.067l-.001.966zm2.787 2.464h-.017c-.134.209-.313.359-.536.451-.225.094-.46.139-.707.139-.184 0-.36-.025-.529-.078-.171-.051-.319-.127-.449-.229-.129-.102-.231-.229-.307-.381-.075-.15-.113-.324-.113-.523 0-.229.042-.416.126-.572.082-.156.196-.285.338-.389.144-.104.306-.184.489-.238.183-.057.374-.1.57-.125.195-.027.393-.043.589-.051l.546-.008c0-.215-.076-.385-.23-.514-.153-.125-.335-.189-.546-.189-.199 0-.381.039-.545.125-.164.084-.312.197-.44.346l-.646-.662c.226-.211.49-.369.791-.477.302-.104.614-.152.938-.152.355 0 .647.043.877.133.228.088.412.219.549.393.138.172.233.383.287.635.054.25.08.539.08.867v1.996h-1.114l-.001-.497zm-.299-1.228l-.343.014c-.139.01-.27.029-.396.066-.127.039-.234.096-.323.172-.089.074-.133.18-.133.311 0 .146.062.256.186.324s.253.105.387.105c.119 0 .233-.02.344-.053.11-.027.21-.074.295-.135.086-.061.155-.139.207-.229.051-.092.076-.201.076-.322v-.26h-.3v.007zm1.261-2.207h1.292l.8 2.469h.017l.671-2.469h1.324l.727 2.469h.017l.735-2.469h1.227l-1.396 3.93h-1.194l-.817-2.607h-.015l-.729 2.607h-1.22l-1.439-3.93zm9.219 3.435h-.017c-.134.209-.312.359-.536.451-.225.094-.461.139-.708.139-.182 0-.358-.025-.528-.078-.17-.051-.317-.127-.445-.229-.131-.102-.233-.229-.309-.381-.076-.15-.113-.324-.113-.523 0-.229.043-.416.125-.572.084-.156.199-.285.341-.389.144-.104.305-.184.485-.238.186-.055.373-.1.57-.125.196-.027.393-.043.59-.051l.545-.008c0-.215-.076-.385-.229-.514-.153-.125-.335-.189-.546-.189-.199 0-.382.039-.546.125-.163.084-.312.197-.438.346l-.65-.664c.227-.211.49-.369.791-.477.305-.104.615-.152.938-.152.354 0 .647.043.877.133.228.088.412.217.55.393.137.17.232.383.286.635.054.248.08.539.08.867v1.996h-1.114v-.495h.001zm-.299-1.228l-.344.014c-.137.01-.27.029-.396.066-.127.039-.231.096-.32.172-.092.074-.135.18-.135.311 0 .146.062.256.188.324.124.068.253.105.391.105.115 0 .229-.02.342-.053.108-.027.209-.074.295-.135.088-.061.156-.139.207-.229.052-.092.076-.201.076-.322v-.26h-.304v.007z" fill="#142A3E"/><path d="M53.346 27.063h1.258v5.719h-1.258v-5.719zm2.067 1.793h1.162v.533h.016l.161-.229c.07-.074.155-.146.252-.201.098-.062.206-.107.33-.146s.259-.059.404-.059c.308 0 .556.047.742.143.188.096.336.227.439.393.104.168.178.363.213.592.038.227.061.473.061.734v2.164h-1.213v-1.924l-.015-.354c-.008-.119-.03-.23-.069-.332-.041-.105-.104-.189-.188-.252-.085-.064-.203-.098-.358-.098-.156 0-.281.027-.379.086-.1.055-.173.131-.225.225-.055.096-.086.201-.104.318l-.021.375v1.951h-1.211l.003-3.919zm4.039 0h1.31l.993 2.666h.015l.924-2.666h1.222l-1.554 3.926h-1.282l-1.628-3.926zm8.437 3.248c-.195.248-.438.439-.736.572-.297.137-.604.203-.922.203-.301 0-.584-.049-.852-.146s-.498-.232-.695-.416c-.194-.178-.353-.396-.463-.646-.113-.254-.172-.537-.172-.85s.059-.598.172-.85c.11-.254.269-.471.463-.65.197-.18.431-.318.695-.416.268-.098.551-.146.852-.146.281 0 .535.049.768.146.229.098.423.236.582.416.156.182.277.396.363.65.09.252.133.535.133.85v.381h-2.812c.047.23.151.416.312.551.162.141.361.209.599.209.2 0 .368-.045.505-.137.139-.09.258-.203.359-.342l.849.621zm-1.028-1.73c.005-.205-.062-.379-.202-.523-.14-.146-.319-.219-.54-.219-.137 0-.254.02-.357.064-.102.043-.188.1-.261.162-.074.066-.13.146-.172.234-.039.09-.062.182-.065.277l1.597.005zm3.982-.363c-.178-.219-.411-.33-.702-.33-.104 0-.201.023-.299.072s-.145.133-.145.25c0 .098.048.168.148.213.1.049.225.088.381.123l.488.113c.178.041.342.104.493.188.149.088.278.207.38.354.102.148.146.348.146.594 0 .254-.055.463-.164.627-.108.164-.252.297-.426.396-.172.1-.363.17-.582.211-.215.041-.428.061-.639.061-.273 0-.551-.039-.83-.115-.281-.078-.52-.219-.713-.418l.736-.812c.111.141.238.246.375.316.138.074.298.109.48.109.139 0 .268-.02.381-.061.108-.041.168-.115.168-.225 0-.102-.049-.18-.148-.23-.1-.049-.227-.092-.38-.127l-.493-.113c-.175-.041-.338-.1-.493-.184-.151-.08-.278-.193-.38-.342-.1-.148-.148-.35-.148-.596 0-.23.049-.434.144-.598.095-.17.219-.307.371-.412.153-.107.331-.189.526-.238.201-.051.402-.076.607-.076.258 0 .52.037.784.111.265.076.485.211.671.402l-.737.737zm4.009-.186h-1.064v1.309l.018.297c.012.088.034.164.073.23.037.062.097.113.172.148.079.033.185.055.312.055l.255-.021c.104-.012.187-.045.239-.092v1.01c-.137.049-.274.08-.42.098l-.431.023c-.204 0-.394-.021-.563-.062-.172-.045-.321-.111-.453-.209-.129-.094-.229-.215-.303-.365s-.108-.334-.108-.551v-1.865h-.775v-.971h.775v-1.164h1.212v1.164h1.066v.967h-.005v-.001zm.345-2.205c0-.193.068-.361.207-.498.137-.137.303-.205.496-.205.191 0 .361.066.496.205.14.137.205.303.205.498 0 .193-.065.359-.205.496-.135.139-.305.207-.496.207-.193 0-.359-.068-.496-.207-.136-.137-.207-.303-.207-.496zm.097 1.236h1.214v3.926h-1.214v-3.926zm1.899 0h1.211v.631h.017c.13-.244.283-.426.46-.547.18-.121.402-.184.671-.184l.212.01.192.031v1.104l-.255-.061-.262-.02c-.232 0-.414.031-.551.098-.137.062-.238.154-.312.27-.072.115-.119.258-.145.416-.021.16-.033.338-.033.533v1.643h-1.211v-3.928h.004v.004h.002zm-24.138 7.799c0-.459.074-.873.229-1.246.151-.371.366-.686.641-.947.275-.262.601-.461.979-.602.377-.143.787-.211 1.236-.211.444 0 .855.068 1.233.211.377.141.702.34.979.602.273.264.486.576.643.947.154.373.229.787.229 1.246 0 .457-.074.873-.229 1.244-.153.371-.366.688-.643.945-.274.266-.603.467-.979.605-.378.141-.789.209-1.233.209-.449 0-.859-.068-1.236-.209-.379-.143-.703-.344-.979-.605-.274-.26-.487-.574-.641-.945-.155-.371-.229-.787-.229-1.244zm1.306 0c0 .27.041.516.125.738.082.225.203.418.361.582.151.164.344.293.561.383.219.094.462.139.73.139.271 0 .514-.045.729-.139.218-.09.403-.219.562-.383.154-.164.275-.357.358-.582s.124-.471.124-.738c0-.266-.041-.508-.124-.736-.083-.227-.204-.422-.358-.584-.156-.166-.345-.293-.562-.385-.222-.092-.461-.137-.729-.137-.271 0-.515.045-.73.137-.217.092-.406.219-.561.385-.158.162-.279.357-.361.584-.084.228-.125.473-.125.736zm7.645-.097h-1.066v1.311l.019.297.069.229c.039.062.099.113.177.148.079.035.185.053.312.053l.254-.02c.104-.014.188-.043.238-.094v1.012c-.135.049-.273.08-.422.098-.146.018-.286.023-.427.023-.204 0-.396-.021-.565-.062-.174-.045-.322-.111-.451-.209-.129-.092-.229-.215-.306-.365-.071-.148-.106-.334-.106-.549v-1.867h-.774v-.971h.774v-1.162h1.211v1.162h1.066l-.003.966zm2.689 0h-1.066v1.311l.018.297.071.229c.037.062.097.113.173.148.078.035.185.053.312.053l.253-.02c.104-.014.187-.043.239-.094v1.012c-.137.049-.275.08-.422.098l-.428.023c-.205 0-.395-.021-.566-.062-.172-.045-.32-.111-.45-.209-.128-.092-.229-.215-.304-.365-.071-.148-.108-.334-.108-.549v-1.867h-.772v-.971h.772v-1.162h1.213v1.162h1.065v.966zm2.787 2.464h-.02c-.134.209-.312.359-.537.451-.224.094-.46.139-.705.139-.184 0-.357-.025-.529-.078-.17-.051-.318-.127-.446-.229-.13-.102-.233-.229-.308-.381-.076-.15-.113-.324-.113-.523 0-.229.042-.416.125-.572.084-.156.197-.285.34-.389s.305-.184.488-.238c.183-.055.373-.1.57-.125.193-.027.393-.043.588-.051l.547-.008c0-.215-.078-.385-.23-.514-.152-.125-.335-.189-.546-.189-.198 0-.381.039-.546.125-.163.084-.311.197-.438.346l-.646-.662c.225-.211.488-.369.79-.477.302-.104.614-.152.938-.152.354 0 .646.043.875.133.229.088.411.219.551.393.138.172.23.383.287.635.053.25.08.539.08.867v1.996h-1.115v-.497zm-.298-1.228l-.344.014c-.137.01-.27.029-.396.066-.125.039-.23.096-.319.172-.089.074-.136.18-.136.311 0 .146.062.256.188.324.125.068.255.105.39.105.119 0 .23-.02.345-.053.108-.027.208-.074.294-.135.087-.061.156-.139.206-.229.052-.092.077-.201.077-.322v-.26h-.301v.004h-.004v.003zm1.259-2.207h1.293l.801 2.469h.018l.67-2.469h1.322l.729 2.469h.02l.732-2.469h1.229l-1.396 3.93h-1.196l-.815-2.607h-.017l-.728 2.607h-1.222l-1.44-3.93zm9.219 3.435h-.016c-.135.209-.313.359-.537.451-.228.094-.459.139-.707.139-.186 0-.359-.025-.528-.078-.17-.051-.319-.127-.449-.229s-.231-.229-.308-.381c-.074-.15-.111-.324-.111-.523 0-.229.04-.416.125-.572.082-.156.196-.285.338-.389.143-.104.307-.184.488-.238.184-.057.375-.1.57-.125.195-.027.393-.043.591-.051l.544-.008c0-.215-.075-.385-.23-.514-.152-.125-.334-.189-.543-.189-.201 0-.384.039-.547.125-.165.084-.311.197-.439.346l-.646-.662c.226-.211.489-.369.79-.477.305-.104.615-.152.938-.152.354 0 .646.043.877.133.229.088.412.219.551.393.139.172.23.383.288.635.054.25.077.539.077.867v1.996h-1.113l-.003-.497zm-.297-1.228l-.344.014c-.142.01-.271.029-.396.066-.126.039-.234.096-.324.172-.089.074-.133.18-.133.311 0 .146.062.256.186.324.125.068.254.105.391.105.117 0 .232-.02.344-.053.107-.027.21-.074.294-.135.087-.061.156-.139.208-.229.055-.092.075-.201.075-.322v-.26h-.298l-.003.007z" fill="#142A3E"/><line stroke="#142A3E" stroke-miterlimit="10" x1="48.639" y1="28.095" x2="48.639" y2="39.7" fill="none"/></svg>