<svg xmlns="http://www.w3.org/2000/svg" width="95.355" height="38.85"><g fill="#fff"><path d="M19.929.435c-10.607 0-19.207 8.599-19.207 19.207 0 10.606 8.6 19.207 19.207 19.207s19.207-8.601 19.207-19.207c0-10.61-8.598-19.207-19.207-19.207zm-.064 37.357c-10.074 0-18.24-8.166-18.24-18.24 0-10.071 8.166-18.239 18.24-18.239 10.071 0 18.237 8.168 18.237 18.239.001 10.074-8.165 18.24-18.237 18.24zm-12.313-13.604v.983h3.398s5.316.757 5.316-5.53-3.842-5.697-8.717-5.697v7.931h.985v-7.092h3.372s2.686.146 3.324 3.2c.641 3.054-.591 6.205-4.138 6.205h-3.54zm8.716-10.259s.642.524.871.854h3.25s2.726.063 2.726 2.364c0 2.297-1.444 2.724-2.495 2.724h-3.186v5.332h.984v-4.379h2.231s2.824-.101 3.35-2.232c.524-2.132-.195-4.661-3.218-4.661l-4.513-.002zm15.514.525l-.493.754s-4.793-1.51-5.121 1.349c-.328 2.854 3.645 1.969 4.957 2.758 1.312.787 2.036 2.759 1.116 4.302s-4.006 2.69-7.157.854l.592-.69s4.694 1.71 5.876-.918c.56-1.278-.622-3.086-2.889-3.217s-3.414-.724-3.579-3.119c-.165-2.401 3.545-3.518 6.698-2.073zm24.62.984c-2.03-5.601-7.446-3.938-7.446-3.938-5.601 1.906-6.522 8.308-5.661 12.183.86 3.879 3.999 5.293 6.893 4.31 2.89-.984 8.244-6.955 6.214-12.555zm-6.179 11.594c-2.399.87-5.008-.382-5.724-3.808-.714-3.427.054-9.082 4.701-10.771 0 0 4.498-1.468 6.183 3.481 1.689 4.954-2.758 10.229-5.16 11.098zm6.627-4.517s.476-.521.289-.83c-.185-.31 0-1.662 1.323-.34 1.322 1.323 2.031 1.692 1.047 3.016-.985 1.324-1.815 2.589-1.569 2.94s2.369-2.418 2.771-1.895c.4.522.521.461 0 1.016-.522.554-2.492 3.138-3.692 2.154-1.201-.986 1.17-4.154 1.539-4.646.368-.494.31-.646 0-.894-.308-.246-.308-.677-1.201.614-.892 1.293-2.185 3.17-2.676 2.31-.495-.861.618-.707 2.169-3.445zm35.16 4.41c-1.022.945-1.231-.573-1.354-1.106-.123-.532.04-1.147.491-1.723s1.521-2.38 2.338-4.185c.82-1.808 2.095-6.195.451-6.604-1.64-.41-2.584 3.526-3.813 7.795-1.229 4.265-.41 4.635-.41 4.635h-.491c-.492 0-1.498 1.181-2.021 1.765-.521.586.215-2.308.37-2.584.152-.276.431-.584-.094-1.047-.522-.461-3.229 2.709-3.601 2.983-.369.276-2.092.771.494-2.521 2.582-3.293 3.442-2.187 3.567-1.815.123.368.185.584.554.433.368-.154.801-1.263-.431-1.882-2.276-1.144-5.724 4.063-5.785 4.435-.062.37-1.2 2.092-1.631 1.692-.556-.647.953-3.971.308-4.737-.646-.771-3.229 2.461-3.783 3.291-.555.832.399-1.849.983-3.168.584-1.322.216-1.386-.338-1.508-.556-.123-1.569 3.413-1.692 3.846-.123.431-1.66 1.631-2.215 2.094-.554.462.829-4.493 1.139-5.108.308-.614-.463-.829-.463-.829-.317-.164-.461.315-.461.315s-.901 2.135-1.19 3.569c-.285 1.437-.408 2.543.289 3.16.696.612 2.584-1.272 2.584-1.272-.164 1.229.532 1.272.86 1.065.33-.205 1.642-1.929 2.504-2.912.861-.983.408.203.408.942 0 .738-.572 2.38.903 2.502 1.477.123 1.681-1.928 2.011-1.024.983 2.256 3.157-.737 3.403-1.024.246-.289-.205 1.396.041 1.933.696 1.192 1.97.037 2.543-.496.576-.533.821-1.888 1.354-.635.533 1.25 1.521 1.127 2.051 1.127.535 0 1.603-1.025 2.054-1.56s.33-.779-.041-1.229c-.369-.459-.861.443-1.886 1.387zm1.517-12.268c.533.122-1.682 6.934-2.42 7.428 0 0 1.887-7.549 2.42-7.428z"/><circle cx="64.318" cy="18.351" r=".902"/><circle cx="75.427" cy="18.351" r=".903"/><path d="M72.186 25.653c-.246-.34-.615-.31-1.229.31-.617.615-.431.062-.215-.491.215-.556.399-.771 0-1.265-.402-.492-.802-.092-1.142.246-.338.34-2.584 1.848-3.197 2.248-.616.397-1.079-.277-.739-1.109 1.2-2.43 4.461-4.461 4.614-4.184.154.276-1.139.737-.709 1.354.433.615 1.109-.153 1.509-.584.401-.43 1.323-1.385.276-1.938-2.123-1.138-6.338 4.094-6.521 4.709-.187.612-1.201 1.385-1.969 1.938-.771.556.184-2 .646-3.508s.83-1.724.275-2.246c-.556-.521-.923.341-.923.341-.276 1.045-1.754 5.413-1.047 6.338.709.922 1.813-.187 2.185-.506.369-.322.153-.634 1.201.288 1.045.925 3.198-.922 3.877-1.506.676-.586.274.646.151 1.218-.121.569-1.291 1.551-1.81 2.104-.517.553-3.853 3.198-2.313 4.646 1.541 1.444 3.972-3.757 4.246-4.521.276-.769-.153-.279 1.354-1.818 1.511-1.54 1.726-1.726 1.48-2.064zm-6.266 7.262c-.369-.328 1.765-2.136 1.765-2.136s-1.396 2.464-1.765 2.136z"/></g></svg>