<svg xmlns="http://www.w3.org/2000/svg" width="100" height="59.75"><g fill="#fff"><path d="M5.455 56.561l.329.173c-.108.212-.233.384-.375.514-.141.13-.301.229-.478.297-.178.068-.377.103-.601.103-.496 0-.883-.162-1.163-.487-.279-.324-.419-.692-.419-1.101 0-.386.118-.729.354-1.031.3-.383.702-.575 1.205-.575.518 0 .932.197 1.241.589.22.278.332.623.335 1.039h-2.732c.007.353.12.642.338.867.218.227.488.34.809.34.154 0 .305-.027.451-.081s.271-.126.373-.215.213-.233.333-.432zm0-.819c-.053-.208-.128-.375-.228-.499-.1-.126-.232-.226-.396-.302-.164-.076-.336-.115-.517-.115-.298 0-.555.096-.769.287-.156.141-.275.35-.355.629h2.265zm3.962-2.385v4.211h-.385v-.521c-.164.198-.348.349-.552.449-.204.1-.427.15-.668.15-.43 0-.797-.155-1.102-.468-.304-.312-.456-.691-.456-1.138 0-.438.153-.812.46-1.122s.676-.467 1.108-.467c.25 0 .475.054.677.16.202.105.379.265.532.478v-1.732h.386zm-1.563 1.472c-.217 0-.418.055-.602.16-.184.107-.33.258-.439.451s-.163.398-.163.614c0 .214.055.418.164.614.11.194.257.346.442.455.185.108.383.164.595.164.213 0 .417-.055.608-.162.191-.108.339-.255.442-.438s.155-.391.155-.621c0-.353-.116-.646-.347-.881-.231-.238-.516-.356-.855-.356zm2.169-.299h.391v1.419c0 .347.018.584.056.715.056.186.163.332.32.44s.345.163.563.163c.218 0 .403-.053.555-.159.152-.104.257-.243.315-.414.039-.117.059-.366.059-.745v-1.419h.399v1.491c0 .419-.049.734-.146.947-.098.212-.245.378-.441.498s-.442.18-.738.18-.543-.06-.741-.18c-.198-.12-.346-.288-.444-.503-.098-.215-.146-.539-.146-.97v-1.463zm6.246.632l-.31.192c-.268-.355-.633-.533-1.096-.533-.37 0-.677.118-.922.357-.244.237-.367.526-.367.866 0 .222.056.43.168.625.113.195.267.347.463.455.196.107.416.162.66.162.446 0 .811-.179 1.093-.534l.31.204c-.146.219-.34.388-.585.509-.245.12-.523.181-.836.181-.48 0-.878-.152-1.195-.458-.316-.305-.475-.677-.475-1.113 0-.295.074-.567.222-.82.148-.252.351-.448.61-.591.259-.142.548-.212.868-.212.201 0 .396.031.583.093.187.061.346.141.476.24.131.099.242.225.333.377zm3.549-.632v3.038h-.385v-.521c-.164.198-.348.349-.551.449-.204.1-.427.15-.668.15-.431 0-.797-.155-1.102-.468-.305-.312-.457-.691-.457-1.138 0-.438.153-.812.46-1.122s.677-.467 1.108-.467c.25 0 .476.054.677.16.202.105.379.265.532.478v-.56h.386zm-1.562.299c-.218 0-.418.055-.603.16-.184.107-.331.258-.439.451-.109.193-.164.397-.164.613 0 .214.055.418.165.614.109.194.257.346.441.455.185.108.384.164.596.164.214 0 .416-.055.608-.162.192-.108.339-.255.442-.438.103-.184.154-.391.154-.621 0-.353-.115-.646-.347-.881-.23-.237-.515-.355-.853-.355zm2.554-1.427h.39v1.128h.62v.339h-.62v2.699h-.39v-2.699h-.533v-.339h.533v-1.128zm1.503-.122c.088 0 .165.031.228.095.063.062.094.14.094.229 0 .086-.031.161-.094.226-.063.063-.14.095-.228.095-.087 0-.162-.031-.225-.095s-.095-.14-.095-.226c0-.09.031-.167.095-.229.063-.063.138-.095.225-.095zm-.193 1.25h.391v3.038h-.391v-3.038zm2.412-.078c.468 0 .856.17 1.164.508.279.31.419.676.419 1.099 0 .424-.148.794-.443 1.111s-.675.477-1.14.477c-.466 0-.847-.159-1.143-.477s-.443-.688-.443-1.111c0-.422.14-.787.42-1.096.307-.341.696-.511 1.166-.511zm-.002.383c-.325 0-.604.12-.838.359-.233.24-.35.531-.35.872 0 .22.053.424.16.614.106.189.25.336.432.439.182.103.38.155.597.155s.416-.053.597-.155c.181-.104.325-.25.431-.439.106-.19.16-.395.16-.614 0-.341-.117-.632-.352-.872-.235-.239-.513-.359-.837-.359zm2.079-.305h.391v.545c.157-.208.33-.364.52-.468.19-.103.396-.155.62-.155.228 0 .428.058.604.174.176.114.306.271.39.466s.126.5.126.913v1.563h-.392v-1.449c0-.35-.014-.583-.043-.701-.045-.2-.132-.352-.26-.454-.128-.101-.296-.151-.502-.151-.237 0-.448.078-.635.234s-.311.351-.371.581c-.038.151-.057.427-.057.827v1.113h-.391v-3.038zm6.768.939c.169 0 .313.06.433.179.12.12.18.265.18.434s-.06.314-.18.435c-.12.119-.264.179-.433.179s-.313-.06-.433-.179c-.12-.12-.179-.266-.179-.435s.06-.313.179-.434c.12-.12.264-.179.433-.179zm3.81-.939h.402l.932 2.206.969-2.206h.071l.976 2.206.949-2.206h.406l-1.32 3.038h-.073l-.971-2.175-.971 2.175h-.073l-1.297-3.038zm6.372-.078c.467 0 .855.17 1.163.508.279.31.42.676.42 1.099 0 .424-.148.794-.444 1.111-.294.317-.675.477-1.139.477-.467 0-.848-.159-1.144-.477-.295-.317-.442-.688-.442-1.111 0-.422.139-.787.419-1.096.307-.341.696-.511 1.167-.511zm-.002.383c-.326 0-.604.12-.838.359-.233.24-.351.531-.351.872 0 .22.054.424.16.614.106.189.25.336.432.439.181.103.379.155.597.155.216 0 .416-.053.597-.155.181-.104.324-.25.431-.439.107-.19.16-.395.16-.614 0-.341-.117-.632-.352-.872-.235-.239-.513-.359-.836-.359zm1.931-.305h.4v.444c.119-.175.244-.307.376-.393.133-.086.271-.13.414-.13.107 0 .223.034.346.104l-.204.328-.207-.053c-.13 0-.256.053-.376.16-.121.108-.213.273-.276.498-.048.174-.072.523-.072 1.05v1.028h-.4v-3.036zm1.637-1.173h.391v2.399l1.408-1.227h.574l-1.669 1.449 1.767 1.589h-.55l-1.53-1.367v1.367h-.391v-4.21zm4.171 1.506l-.252.259c-.208-.203-.413-.305-.613-.305-.127 0-.235.043-.325.126-.091.084-.136.182-.136.294 0 .099.037.192.112.281.074.092.231.198.47.321.291.151.488.296.593.436.102.142.153.301.153.478 0 .249-.088.461-.263.634-.175.174-.394.26-.658.26-.174 0-.341-.038-.501-.114-.159-.076-.292-.181-.396-.316l.247-.279c.199.227.411.339.634.339.157 0 .291-.051.401-.15.109-.102.165-.22.165-.355 0-.111-.036-.211-.109-.299-.073-.085-.237-.193-.492-.323-.274-.141-.461-.281-.56-.42-.099-.137-.148-.294-.148-.471 0-.23.078-.423.235-.575.158-.153.357-.229.597-.229.28-.003.562.134.846.408zm.464-1.506h.391v1.718c.157-.208.331-.364.521-.468.189-.103.395-.155.617-.155.227 0 .429.058.604.174.177.114.306.27.39.464s.126.5.126.915v1.563h-.391v-1.449c0-.35-.014-.583-.042-.701-.048-.2-.137-.352-.264-.454-.127-.101-.294-.151-.502-.151-.235 0-.448.078-.635.234s-.311.351-.369.581c-.038.148-.056.424-.056.827v1.113h-.39v-4.211zm4.694 1.095c.469 0 .857.17 1.165.508.279.31.419.676.419 1.099 0 .424-.148.794-.443 1.111-.296.317-.675.477-1.141.477-.465 0-.846-.159-1.141-.477-.297-.317-.445-.688-.445-1.111 0-.422.142-.787.421-1.096.308-.341.696-.511 1.165-.511zm-.001.383c-.324 0-.604.12-.836.359-.234.24-.352.531-.352.872 0 .22.053.424.16.614.106.189.25.336.431.439.182.103.381.155.597.155.217 0 .416-.053.597-.155.182-.104.325-.25.433-.439.105-.19.16-.395.16-.614 0-.341-.119-.632-.353-.872-.234-.239-.514-.359-.837-.359zm2.086-.305h.389v.56c.155-.213.333-.372.534-.478.201-.106.425-.16.672-.16.433 0 .801.156 1.107.467.308.311.461.685.461 1.122 0 .446-.152.826-.456 1.138-.304.312-.671.468-1.102.468-.24 0-.464-.051-.666-.15-.202-.101-.387-.251-.551-.449v1.633h-.389v-4.151zm1.564.299c-.339 0-.623.118-.854.355-.232.235-.347.528-.347.881 0 .23.052.438.154.621s.25.33.442.438c.192.107.396.162.608.162.21 0 .407-.056.593-.164.185-.109.332-.261.441-.455.109-.196.165-.4.165-.614 0-.216-.055-.42-.163-.613-.109-.193-.256-.344-.439-.451-.183-.105-.384-.16-.6-.16zm3.628.034l-.251.259c-.209-.203-.414-.305-.613-.305-.126 0-.235.043-.326.126-.09.084-.136.182-.136.294 0 .099.037.192.112.281.074.092.231.198.47.321.291.151.489.296.594.436.102.142.154.301.154.478 0 .249-.088.461-.264.634-.176.174-.395.26-.656.26-.176 0-.344-.038-.503-.114s-.292-.181-.396-.316l.245-.279c.2.227.412.339.636.339.156 0 .29-.051.4-.15.11-.102.165-.22.165-.355 0-.111-.036-.211-.109-.299-.072-.085-.237-.193-.491-.323-.275-.141-.462-.281-.562-.42-.098-.137-.147-.294-.147-.471 0-.23.078-.423.236-.575.158-.153.356-.229.598-.229.28-.003.56.134.844.408zm3.974.606c.17 0 .313.06.433.179.12.12.181.265.181.434s-.061.314-.181.435c-.119.119-.263.179-.433.179-.169 0-.312-.06-.433-.179-.12-.12-.179-.266-.179-.435s.059-.313.179-.434c.121-.12.264-.179.433-.179zm4.217-.939h.391v.524c.136-.192.275-.334.419-.424.197-.12.407-.179.624-.179.146 0 .287.029.419.087s.241.134.324.229c.085.097.157.234.218.413.131-.238.293-.42.487-.544.196-.124.405-.186.63-.186.21 0 .396.054.556.16.161.105.279.254.358.442.077.191.116.476.116.855v1.658h-.398v-1.655c0-.326-.023-.55-.069-.672-.047-.122-.126-.22-.238-.295-.113-.073-.246-.111-.403-.111-.188 0-.361.056-.518.167-.157.111-.271.261-.344.447s-.109.497-.109.934v1.188h-.391v-1.556c0-.366-.023-.615-.068-.747-.045-.131-.125-.235-.239-.315-.112-.078-.247-.118-.404-.118-.18 0-.349.054-.507.163s-.273.256-.349.439c-.075.185-.113.467-.113.847v1.287h-.391v-3.038zm8.164 0v3.038h-.386v-.521c-.163.198-.348.349-.551.449-.205.1-.428.15-.668.15-.431 0-.799-.155-1.103-.468-.305-.312-.456-.691-.456-1.138 0-.438.153-.812.46-1.122.308-.311.677-.467 1.108-.467.25 0 .476.054.677.16.203.105.38.265.532.478v-.56h.387zm-1.563.299c-.217 0-.418.055-.603.16-.185.107-.331.258-.438.451-.109.193-.163.397-.163.613 0 .214.054.418.164.614.109.194.257.346.442.455.184.108.384.164.595.164.215 0 .417-.055.609-.162.19-.108.337-.255.441-.438.103-.184.154-.391.154-.621 0-.353-.115-.646-.347-.881-.23-.237-.516-.355-.854-.355zm2.065-.299h.399v.444c.12-.175.246-.307.377-.393.133-.086.271-.13.414-.13.107 0 .224.034.346.104l-.203.328-.207-.053c-.131 0-.256.053-.377.16-.121.108-.214.273-.276.498-.048.174-.073.523-.073 1.05v1.028h-.399v-3.036zm1.638-1.173h.391v2.399l1.408-1.227h.573l-1.67 1.449 1.769 1.589h-.552l-1.528-1.367v1.367h-.391v-4.21zm5.202 3.204l.328.173c-.107.212-.232.384-.374.514s-.301.229-.478.297c-.178.068-.377.103-.601.103-.496 0-.884-.162-1.163-.487-.279-.324-.419-.692-.419-1.101 0-.386.118-.729.354-1.031.3-.383.702-.575 1.205-.575.518 0 .931.197 1.239.589.221.278.333.623.336 1.039h-2.732c.007.353.12.642.338.867.218.227.486.34.809.34.154 0 .305-.027.45-.081.146-.054.271-.126.373-.215.104-.091.215-.233.335-.432zm0-.819c-.054-.208-.129-.375-.229-.499-.1-.126-.231-.226-.396-.302s-.338-.115-.517-.115c-.299 0-.555.096-.77.287-.156.141-.274.35-.354.629h2.266zm1.269-2.34h.391v1.128h.619v.339h-.619v2.699h-.391v-2.699h-.533v-.339h.533v-1.128zm1.505-.122c.089 0 .164.031.228.095.062.062.093.14.093.229 0 .086-.03.161-.093.226-.063.063-.139.095-.228.095-.088 0-.163-.031-.226-.095-.062-.064-.095-.14-.095-.226 0-.09.032-.167.095-.229.063-.063.138-.095.226-.095zm-.195 1.25h.391v3.038h-.391v-3.038zm.974 0h.392v.545c.156-.208.329-.364.519-.468.19-.103.397-.155.621-.155.227 0 .428.058.604.174.177.114.306.271.391.466.083.195.125.5.125.913v1.563h-.393v-1.449c0-.35-.014-.583-.044-.701-.045-.2-.131-.352-.26-.454-.128-.101-.296-.151-.503-.151-.236 0-.448.078-.636.234-.187.156-.309.351-.369.581-.037.151-.056.427-.056.827v1.113h-.392v-3.038zm5.878 0h.391v2.421c0 .426-.038.738-.112.936-.102.279-.279.494-.532.646-.254.15-.558.226-.913.226-.261 0-.495-.037-.702-.111-.208-.073-.377-.172-.507-.297-.13-.123-.251-.305-.359-.544h.424c.115.201.265.35.447.447.183.096.409.145.68.145.266 0 .49-.05.675-.148.184-.1.314-.225.392-.374.08-.15.118-.394.118-.729v-.158c-.146.187-.326.329-.54.429-.212.1-.438.149-.677.149-.278 0-.541-.069-.787-.208s-.436-.325-.57-.56c-.134-.234-.2-.492-.2-.774 0-.28.069-.542.208-.785.141-.243.334-.435.58-.577.247-.142.508-.212.782-.212.227 0 .438.048.637.141.195.095.385.249.567.465v-.528zm-1.152.299c-.223 0-.428.055-.618.16-.189.107-.338.256-.446.444-.108.189-.162.394-.162.613 0 .333.111.608.335.826s.514.327.869.327c.359 0 .647-.108.866-.324s.328-.5.328-.853c0-.229-.05-.432-.15-.612-.101-.179-.243-.321-.427-.426-.185-.102-.383-.155-.595-.155zm-72.006-53.837c-12.567 0-22.755 10.187-22.755 22.755 0 12.566 10.188 22.755 22.755 22.755 12.566 0 22.754-10.188 22.754-22.755 0-12.568-10.188-22.755-22.754-22.755zm-.078 44.258c-11.934 0-21.609-9.675-21.609-21.609 0-11.934 9.675-21.608 21.609-21.608 11.934 0 21.608 9.674 21.608 21.608-.001 11.934-9.675 21.609-21.608 21.609zm-14.586-16.116v1.166h4.025s6.301.895 6.301-6.553c0-7.449-4.55-6.749-10.326-6.749v9.393h1.167v-8.401h3.996s3.18.175 3.938 3.792-.7 7.352-4.9 7.352h-4.201zm10.326-12.154s.758.621 1.031 1.01h3.85s3.229.078 3.229 2.8-1.711 3.229-2.956 3.229h-3.773v6.315h1.167v-5.188h2.646s3.345-.117 3.967-2.646c.623-2.527-.233-5.521-3.812-5.521l-5.349.001zm18.378.621l-.583.895s-5.678-1.789-6.068 1.595c-.389 3.384 4.317 2.333 5.873 3.267 1.556.934 2.412 3.268 1.323 5.096-1.089 1.827-4.745 3.189-8.479 1.011l.7-.817s5.562 2.022 6.962-1.089c.661-1.517-.739-3.656-3.422-3.811-2.684-.156-4.045-.855-4.24-3.695-.195-2.841 4.2-4.163 7.934-2.452zm24.738 1.092c-1.938-5.343-7.104-3.757-7.104-3.757-5.343 1.82-6.223 7.926-5.401 11.625.822 3.699 3.816 5.049 6.575 4.11 2.76-.94 7.869-6.635 5.93-11.978zm-5.892 11.063c-2.292.83-4.778-.363-5.461-3.632-.681-3.269.049-8.667 4.486-10.275 0 0 4.289-1.401 5.897 3.322 1.609 4.722-2.632 9.755-4.922 10.585zm6.321-4.311s.452-.5.276-.793c-.177-.293 0-1.585 1.262-.323s1.938 1.615.998 2.876c-.939 1.263-1.731 2.469-1.496 2.806.234.336 2.26-2.306 2.642-1.807s.499.44 0 .969c-.499.528-2.378 2.994-3.523 2.054-1.144-.939 1.116-3.963 1.469-4.433.352-.47.293-.616 0-.851-.294-.235-.294-.646-1.146.586-.852 1.233-2.084 3.024-2.555 2.202-.469-.82.593-.673 2.073-3.286zm33.547 4.208c-.979.9-1.175-.548-1.293-1.056-.117-.509.039-1.097.47-1.644.432-.548 1.448-2.271 2.231-3.993.782-1.722 1.996-5.911.431-6.302-1.566-.391-2.466 3.366-3.64 7.438-1.176 4.07-.392 4.423-.392 4.423h-.471c-.47 0-1.428 1.125-1.927 1.682-.499.559.205-2.201.352-2.465.147-.264.411-.557-.088-.999-.498-.44-3.083 2.584-3.435 2.848-.353.264-1.997.734.469-2.407 2.468-3.142 3.289-2.084 3.406-1.732.118.352.176.558.527.411.354-.146.765-1.204-.409-1.793-2.173-1.089-5.462 3.877-5.521 4.23-.058.352-1.144 1.996-1.555 1.614-.529-.617.91-3.786.293-4.521-.617-.734-3.082 2.349-3.61 3.141-.528.793.382-1.761.939-3.023s.206-1.321-.323-1.438c-.528-.118-1.496 3.259-1.614 3.669-.117.411-1.585 1.556-2.114 1.997-.527.44.793-4.286 1.087-4.874.293-.586-.44-.792-.44-.792-.304-.156-.442.303-.442.303s-.86 2.035-1.134 3.406c-.274 1.369-.392 2.426.273 3.014.665.586 2.466-1.214 2.466-1.214-.156 1.175.509 1.214.822 1.018.312-.196 1.564-1.84 2.387-2.779.823-.938.393.196.393.901 0 .704-.548 2.271.861 2.387 1.408.118 1.604-1.84 1.917-.979.94 2.153 3.014-.704 3.248-.978.235-.273-.194 1.331.04 1.843.665 1.138 1.879.036 2.427-.473s.783-1.8 1.291-.607c.509 1.193 1.449 1.077 1.957 1.077.509 0 1.528-.979 1.959-1.488.43-.509.312-.743-.039-1.175-.353-.431-.82.43-1.799 1.33zm1.446-11.704c.51.117-1.604 6.615-2.31 7.084.001.001 1.802-7.201 2.31-7.084z"/><circle cx="70.033" cy="21.472" r=".861"/><circle cx="80.631" cy="21.472" r=".861"/><path d="M77.539 28.439c-.234-.323-.587-.294-1.173.293-.589.587-.412.059-.206-.469.206-.529.38-.734 0-1.204-.383-.47-.764-.088-1.087.235-.322.323-2.465 1.761-3.054 2.143-.587.381-1.026-.264-.704-1.057 1.146-2.32 4.257-4.256 4.403-3.993.146.264-1.085.705-.675 1.292.411.587 1.057-.147 1.438-.559.383-.411 1.263-1.32.265-1.849-2.025-1.086-6.048 3.905-6.224 4.491-.176.587-1.145 1.321-1.878 1.85-.734.529.176-1.908.616-3.347.44-1.438.794-1.644.265-2.143-.528-.5-.881.322-.881.322-.264.999-1.673 5.167-.998 6.048.676.88 1.731-.176 2.084-.483.352-.307.146-.604 1.146.277.997.88 3.052-.881 3.698-1.439.646-.557.265.617.146 1.162-.117.544-1.232 1.481-1.727 2.009-.493.528-3.675 3.053-2.206 4.433 1.467 1.378 3.786-3.582 4.051-4.313.264-.731-.147-.267 1.291-1.734 1.439-1.466 1.645-1.641 1.41-1.965zm-5.978 6.928c-.354-.313 1.683-2.035 1.683-2.035s-1.331 2.349-1.683 2.035z"/></g></svg>