<svg xmlns="http://www.w3.org/2000/svg" width="623" height="278.333"><path d="M139.432 1.988c-75.767 0-137.179 61.411-137.179 137.179 0 75.761 61.412 137.178 137.179 137.178 75.761 0 137.178-61.417 137.178-137.178-.001-75.768-61.418-137.179-137.178-137.179zm-.472 266.81c-71.94 0-130.266-58.32-130.266-130.266s58.325-130.27 130.266-130.27c71.946 0 130.266 58.324 130.266 130.27 0 71.946-58.32 130.266-130.266 130.266zm-87.93-97.157v7.034h24.269s37.983 5.393 37.983-39.508c0-44.907-27.432-40.686-62.252-40.686v56.629h7.033v-50.648h24.097s19.167 1.054 23.738 22.861c4.571 21.807-4.222 44.317-29.545 44.317h-25.323zm62.252-73.266s4.575 3.74 6.218 6.087h23.211s19.464.466 19.464 16.88c0 16.416-10.317 19.462-17.823 19.462h-22.743v38.071h7.038v-31.271h15.944s20.164-.699 23.914-15.942c3.75-15.245-1.408-33.287-22.981-33.287h-32.242zm110.796 3.74l-3.518 5.393s-34.232-10.784-36.579 9.613c-2.346 20.403 26.023 14.069 35.404 19.699 9.38 5.626 14.539 19.698 7.971 30.716-6.562 11.018-28.602 19.228-51.112 6.097l4.221-4.926s33.529 12.192 41.972-6.563c3.982-9.147-4.455-22.039-20.637-22.977-16.176-.938-24.381-5.159-25.556-22.279-1.171-17.119 25.323-25.09 47.834-14.773zm120.339 4.639c-.369-6.217-.861-13.85-.861-18.343h-.123c-1.539 4.493-3.201 9.294-5.602 15.45l-8.74 22.59h-2.031l-8.188-22.036c-2.339-6.463-4.124-11.449-5.354-16.004h-.123c-.124 4.862-.432 12.064-.924 18.958l-1.293 19.082h-2.893l3.017-41.487h3.385l8.926 23.883c1.97 5.294 3.385 9.479 4.555 13.48h.185c1.047-3.816 2.523-7.879 4.616-13.419l9.295-23.944h3.509l2.77 41.487h-2.893l-1.233-19.697zm16.992 5.171l-5.109 14.526h-3.016l15.02-41.487h2.831l14.896 41.487h-3.017l-5.232-14.526h-16.373zm15.512-2.463l-5.048-13.85c-1.046-2.893-1.6-4.985-2.154-7.324h-.185c-.554 2.4-1.23 4.555-2.154 7.201l-5.047 13.973h14.588zm15.515-23.883c2.585-.615 6.094-.923 8.986-.923 5.417 0 8.864 1.169 11.203 3.509 1.785 1.661 2.893 4.432 2.893 7.324 0 5.602-3.323 9.172-8.125 10.834v.123c3.324 1.046 5.417 4.186 6.401 8.802 1.416 6.464 2.217 9.541 3.078 11.203h-3.017c-.677-1.231-1.538-4.862-2.646-10.095-1.293-5.971-3.878-8.68-9.356-8.926h-6.463v19.021h-2.954v-40.872zm2.954 19.451h6.586c6.402 0 10.588-3.57 10.588-9.048 0-6.341-4.679-8.926-11.203-8.926-2.831 0-4.924.308-5.971.554v17.42zm28.131-20.066h2.954v20.99h.185c1.231-1.601 2.462-3.017 3.57-4.31l14.711-16.681h3.57l-15.758 17.604 17.235 23.883h-3.509l-15.756-21.85-4.247 4.678v17.174h-2.954v-41.488zm50.167 20.867h-16.558v18.158h18.527v2.462h-21.481v-41.487h20.497v2.462h-17.543v15.942h16.558v2.463zm18.406-18.405h-13.542v-2.462h30.038v2.462h-13.542v39.025h-2.954v-39.025zm23.699-2.462v41.487h-2.954v-41.487h2.954zm10.097 41.487v-41.487h2.77l16.127 24.498c3.386 5.171 5.786 9.049 7.817 13.05l.123-.062c-.431-5.602-.492-10.341-.492-16.866v-20.62h2.831v41.487h-2.708l-15.819-24.129c-3.078-4.802-5.909-9.172-8.063-13.419l-.123.062c.308 5.109.369 9.603.369 16.496v20.99h-2.832zm69.003-1.847c-2.093.862-6.464 2.277-12.126 2.277-5.479 0-10.465-1.415-14.65-5.417-3.447-3.385-5.725-8.986-5.725-15.634 0-11.511 7.571-21.298 21.667-21.298 4.432 0 8.063 1.046 9.664 1.847l-.984 2.462c-2.155-1.047-4.863-1.785-8.864-1.785-11.388 0-18.404 7.387-18.404 18.65 0 11.695 6.832 18.651 17.789 18.651 4.37 0 7.14-.615 8.679-1.416v-14.649h-9.603v-2.4h12.558v18.712zm-280.514 48.878l-5.109 14.526h-3.016l15.02-41.487h2.831l14.896 41.487h-3.017l-5.232-14.526h-16.373zm15.512-2.462l-5.048-13.85c-1.046-2.893-1.6-4.985-2.154-7.324h-.185c-.554 2.4-1.23 4.555-2.154 7.201l-5.047 13.973h14.588zm15.575 16.989v-41.487h2.77l16.127 24.498c3.386 5.171 5.786 9.049 7.817 13.05l.123-.062c-.431-5.602-.492-10.341-.492-16.866v-20.62h2.831v41.487h-2.708l-15.819-24.129c-3.078-4.802-5.909-9.172-8.063-13.419l-.123.062c.308 5.109.369 9.603.369 16.496v20.99h-2.832zm39.212-40.872c3.2-.554 6.709-.923 10.648-.923 7.571 0 13.296 2.031 16.742 5.663 3.324 3.446 5.171 8.125 5.171 14.403 0 6.094-1.662 11.572-5.417 15.696-3.632 4.001-9.91 6.34-17.912 6.34-3.2 0-6.217-.062-9.232-.369v-40.81zm2.954 38.41c1.662.246 4.062.308 6.709.308 13.296 0 19.883-7.448 19.883-19.451.123-10.525-5.725-17.728-19.082-17.728-3.201 0-5.725.308-7.51.677v36.194zm50.353-38.41c3.2-.554 6.709-.923 10.648-.923 7.571 0 13.296 2.031 16.742 5.663 3.324 3.446 5.171 8.125 5.171 14.403 0 6.094-1.662 11.572-5.417 15.696-3.632 4.001-9.91 6.34-17.912 6.34-3.2 0-6.217-.062-9.232-.369v-40.81zm2.954 38.41c1.662.246 4.062.308 6.709.308 13.296 0 19.883-7.448 19.883-19.451.123-10.525-5.725-17.728-19.082-17.728-3.201 0-5.725.308-7.51.677v36.194zm56.385-18.158h-16.558v18.158h18.527v2.462h-21.481v-41.487h20.497v2.462h-17.543v15.942h16.558v2.463zm7.881 16.065c2.339 1.601 5.602 2.708 9.048 2.708 6.218 0 10.034-3.509 10.034-8.617 0-4.679-2.401-7.387-8.434-9.726-6.647-2.339-10.648-5.786-10.648-11.449 0-6.094 4.985-10.525 12.064-10.525 3.878 0 6.832.984 8.248 1.97l-1.107 2.462c-1.108-.801-3.755-1.97-7.325-1.97-6.709 0-8.987 4.309-8.987 7.571 0 4.616 2.647 6.955 8.618 9.294 6.832 2.771 10.464 5.848 10.464 12.065 0 6.032-4.309 11.448-13.173 11.448-3.569 0-7.756-1.169-9.91-2.831l1.108-2.4zm32.81-36.933v41.487h-2.954v-41.487h2.954zm39.826 39.641c-2.093.861-6.464 2.277-12.127 2.277-5.478 0-10.464-1.416-14.649-5.417-3.447-3.385-5.725-8.986-5.725-15.634 0-11.511 7.571-21.298 21.667-21.298 4.432 0 8.063 1.046 9.664 1.847l-.984 2.462c-2.155-1.047-4.863-1.785-8.864-1.785-11.388 0-18.404 7.387-18.404 18.65 0 11.695 6.832 18.651 17.789 18.651 4.37 0 7.14-.615 8.679-1.416v-14.649h-9.603v-2.4h12.558v18.712zm8.681 1.847v-41.487h2.77l16.127 24.498c3.386 5.171 5.786 9.049 7.817 13.05l.123-.062c-.431-5.602-.492-10.341-.492-16.866v-20.62h2.831v41.487h-2.708l-15.819-24.129c-3.078-4.802-5.909-9.172-8.063-13.419l-.123.062c.308 5.109.369 9.603.369 16.496v20.99h-2.832z" fill="#fff"/></svg>