<svg xmlns="http://www.w3.org/2000/svg" width="80" height="20.943"><path d="M36.555 19.955c-.042.155-.007.25.079.303h-.787c.108-.053.192-.147.234-.303l.89-3.366c.1-.379.126-.411 0-.628-.044-.081-.104-.189-.201-.29h1.45l1.241 2.334.537-2.031c.041-.154.005-.242-.074-.303h.787c-.111.061-.192.148-.234.303l-1.216 4.601s-1.908-3.642-1.892-3.702l-.814 3.082zm5.424-2.523c.057-.209-.045-.257-.13-.29l1.317-.169-.545 2.058c-.151.573.107.648.303.648.136 0 .312-.109.397-.203l.54-2.044c.055-.209-.045-.257-.131-.29l1.289-.169-.648 2.449c-.097.364-.077.473.107.533l-1.083.397c-.152-.066-.205-.229-.153-.445-.262.203-.559.432-.973.432-.497 0-.981-.297-.705-1.343l.415-1.564zm4.931.161h-.366l1.826-1.375-.229.862h.698l-.134.513h-.705l-.427 1.613c-.193.729.22.715.355.715.172 0 .246-.102.348-.176-.085.189-.375.594-.95.594-.739 0-1.002-.525-.832-1.174l.416-1.572zm5.093.189c-.214 0-.316.055-.446.162l-.532 2.011c-.041.155-.006.25.074.303h-1.397c.115-.053.2-.147.241-.303l.669-2.529c.056-.21-.053-.251-.14-.284l1.342-.169-.151.573c.296-.397.583-.573.797-.573.142 0 .191.015.248.047l-.343 1.296c.001-.324-.161-.534-.362-.534zm2.704 2.173c-.041.155 0 .25.08.303h-1.379c.108-.053.193-.147.234-.303l.668-2.523c.053-.209-.058-.257-.132-.29l1.317-.169-.788 2.982zm-.107-3.777c.087-.331.395-.595.679-.595.283 0 .451.264.363.595-.086.322-.393.586-.676.586-.284 0-.452-.264-.366-.586zm2.763 1.415h-.368l1.827-1.375-.229.862h.699l-.136.513h-.705l-.427 1.613c-.191.729.22.715.354.715.173 0 .247-.102.35-.176-.086.189-.376.594-.951.594-.739 0-1.003-.525-.832-1.174l.418-1.572zm4.052 2.362c-.041.155 0 .25.08.303h-1.379c.109-.053.193-.147.234-.303l.668-2.523c.056-.209-.058-.257-.132-.29l1.317-.169-.788 2.982zm-.106-3.777c.088-.331.395-.595.678-.595s.452.264.363.595c-.086.322-.393.586-.676.586s-.452-.264-.365-.586zm3.26 4.161c-1.209 0-1.315-.958-1.139-1.626.253-.957.992-1.74 2.01-1.74.994 0 1.364.709 1.109 1.674-.267 1.004-1.058 1.692-1.98 1.692zm.926-1.713c.175-.709.152-1.228-.192-1.222-.314.007-.612.438-.82 1.269-.222.904-.037 1.214.195 1.208.286-.007.569-.27.817-1.255zm5.168 1.329c-.041.155-.006.25.074.303h-1.344c.108-.053.192-.147.233-.303l.437-1.653c.053-.202.211-.661-.239-.661-.147 0-.369.122-.451.229l-.551 2.085c-.041.155-.009.25.073.303h-1.361c.108-.053.192-.147.233-.303l.67-2.529c.056-.21.005-.284-.088-.318l1.264-.141-.109.404c.32-.251.627-.398 1.018-.398.557 0 .828.385.646 1.066l-.505 1.916z" fill="#142A3E"/><path fill="#142A3E" d="M10.664 8.662l3.441-5.244h2.51c-.209.104-.392.287-.472.586l-2.057 7.677c-.077.286.008.469.158.586h-2.546c.225-.117.371-.3.448-.586l1.704-6.363c.042-.156.136-.325.136-.325l-.226.351-4.753 7.105-.951-6.949-.095-.325-.091.338-1.652 6.168c-.076.286.009.469.184.586h-1.492c.237-.117.407-.3.483-.586l2.057-7.677c.066-.247-.053-.481-.219-.586h2.595l.838 5.244z"/><path fill="#142A3E" d="M21.388 10.233c-.398 1.047-2.146 2.163-3.771 2.163-1.563 0-2.603-1.235-2.072-3.213.46-1.718 2.018-3.188 3.788-3.188 1.454 0 2.432.833 1.853 2.993h-3.758l-.053.195c-.213.885-.002 2.225 1.198 2.225 1.149-.001 2.19-.439 2.815-1.175zm-2.3-3.51c-.606 0-1.181.65-1.436 1.51h1.965c.248-.925-.019-1.51-.529-1.51z"/><path fill="#142A3E" d="M22.956 6.476c.535-.234 1.354-.481 2.348-.481.69 0 2.092.156 1.568 2.108l-.843 3.149c-.102.378-.164.521.172.625l-1.687.547c-.23-.183-.389-.312-.293-.808-.489.378-1.252.78-1.979.78-1.079 0-1.334-.949-1.145-1.652.132-.495.512-1.054 1.247-1.444.733-.43 2.024-.586 2.526-.924.209-.143.274-.39.318-.599.16-.599-.021-1.054-.566-1.054-.934 0-1.794.95-2.206 1.626l.54-1.873zm-.109 3.982c-.171.637.135.898.571.898.34 0 .637-.156.879-.339l.52-1.938-1.01.377c-.463.234-.828.507-.96 1.002z"/><path fill="#142A3E" d="M34.729 3.249l-2.044 7.261c-.061.361-.09.436.06.661l-2.375 1.413.258-.812c-.413.273-1.053.624-1.768.624-1.273 0-2.08-1.196-1.554-3.162.474-1.77 2.189-3.24 3.789-3.24.51 0 .709.117.972.312l.604-1.953c.111-.416-.113-.481-.297-.52l2.355-.584zm-4.626 8.133c.278 0 .495-.131.665-.222l1.087-4.06c-.12-.182-.2-.338-.563-.338-1.03 0-1.795 1.223-2.066 2.237-.532 1.979.391 2.383.877 2.383z"/><path fill="#142A3E" d="M33.428 13.133l1.733-6.396c.08-.299-.017-.481-.183-.585l2.357-.593-.121.491-1.703 6.467c-1.244 5.03-4.222 4.93-5.735 4.609 0 0 2.787-.738 3.652-3.993z"/><path fill="#142A3E" d="M40.403 8.305c1.976 0 2.62 1.444 2.152 3.188-.5 1.822-2.062 3.214-3.854 3.214-2.28 0-2.547-1.808-2.171-3.123.467-1.743 1.934-3.279 3.873-3.279zm-.26.703c-.783.026-1.448 1.015-1.832 2.537-.398 1.628-.049 2.446.612 2.421.747-.025 1.395-.768 1.812-2.511.343-1.367.239-2.472-.592-2.447z"/><path fill="#142A3E" d="M49.172 10.27l-1.003 3.749c-.077.286.002.441.164.559h-2.412c.227-.117.389-.272.465-.559l.899-3.358c.175-.651.108-1.262-.644-1.262-.449 0-.87.26-1.134.52l-1.098 4.1c-.077.286.003.441.165.559h-2.449c.226-.117.389-.272.465-.559l1.988-7.269c.108-.404-.101-.482-.289-.547l2.263-.576-.832 3.498c.304-.273 1.227-.82 2.038-.82 1.215 0 1.771.639 1.414 1.965z"/><path fill="#142A3E" d="M60.554 8.553l-.49 2.017c-.05-.676-.255-1.587-.945-1.587-.618 0-.912.325-.995.637-.123.456.28.677.732.976.676.469 1.398.977 1.086 2.147-.384 1.431-2.007 1.964-2.891 1.964-.68 0-1.241-.169-1.752-.521l.534-2.081c-.07.937.308 1.835 1.084 1.835.74 0 1.096-.469 1.176-.768.132-.495-.177-.612-.923-1.172-.849-.638-.976-1.158-.772-1.913.23-.858 1.083-1.783 2.732-1.783.29.001.904.067 1.424.249z"/><path fill="#142A3E" d="M64.588 8.305c1.974 0 2.619 1.444 2.15 3.188-.499 1.822-2.061 3.214-3.854 3.214-2.28 0-2.548-1.808-2.169-3.123.466-1.743 1.931-3.279 3.873-3.279zm-.262.703c-.784.026-1.448 1.015-1.832 2.537-.399 1.628-.05 2.446.612 2.421.747-.025 1.395-.768 1.813-2.511.343-1.367.237-2.472-.593-2.447z"/><path fill="#142A3E" d="M73.264 10.27l-1.004 3.749c-.076.286.004.441.166.559h-2.39c.251-.117.389-.272.467-.559l.867-3.241c.136-.507.354-1.366-.629-1.366-.376 0-.849.273-1.085.521l-1.093 4.086c-.078.286.014.441.164.559h-2.402c.227-.117.391-.272.467-.559l1.309-4.803c.107-.403-.03-.521-.22-.585l2.198-.556-.207 1.051c.564-.429 1.251-.82 2.062-.82 1.057-.001 1.668.702 1.33 1.964z"/><path fill="#142A3E" d="M55.601 10.27l-1.005 3.749c-.076.286.002.441.166.559h-2.389c.248-.117.388-.272.464-.559l.869-3.241c.136-.507.354-1.366-.629-1.366-.376 0-.849.273-1.085.521l-1.095 4.086c-.076.286.017.441.166.559h-2.401c.226-.117.388-.272.466-.559l1.308-4.803c.108-.403-.029-.521-.218-.585l2.198-.556-.208 1.051c.563-.429 1.252-.82 2.063-.82 1.054-.001 1.667.702 1.33 1.964z"/><path opacity=".7" fill="#142A3E" enable-background="new" d="M9.085 20.231c9.586 0 17.202-4.394 20.82-7.02-3.41 1.801-11.645 4.893-19.271 4.893-4.378 0-7.901-1.964-7.901-4.387 0-.977.576-1.879 1.549-2.608-2.296.896-3.806 2.414-3.806 4.138 0 2.752 3.914 4.984 8.609 4.984z"/><path opacity=".7" fill="#142A3E" enable-background="new" d="M66.408 2.851c5.268.648 8.692 2.626 8.692 5.303 0 .441-.104.87-.298 1.28 1.554-.949 2.48-2.139 2.48-3.433 0-3.097-4.58-5.377-11.859-5.615-7.279-.237-17.312 1.995-26.872 6.479 2.524-1.183 16.696-5.387 27.857-4.014z"/><path fill="#142A3E" d="M78.063 8.777h-.339v.938h-.216v-.938h-.341v-.176h.896v.176zm.847.613l.302-.79h.312v1.114h-.203v-.87h-.006l-.331.87h-.152l-.333-.87h-.004v.87h-.203v-1.113h.314l.304.789z"/></svg>