<svg xmlns="http://www.w3.org/2000/svg" width="80" height="24.699"><g fill="#142A3E"><path opacity=".7" enable-background="new" d="M16.879 13.031c-.065.18-.412-.049-.812-.049-.298 0-1.813.334-2.296.334-.757 0-.985-.426-2.077-.426-.883-.967-1.366-1.1-2.049-1.514l.031-.188c.968.063 1.154.121 2.217.521.094.034.243-.008.436.071.188.078.18.119.596.236.867.241.324.024 1.401.184.722.105.771.119 1.074.119.471 0 .719-.03.998-.51.293-.5.273-.403.411-.932.03-.12.092-.098.1-.003.109 1.497-.021 1.17-.046 1.582-.021.274.075.415.016.575zm-3.465 4.207c-.142-.346-.312-.982-.46-1.453-.171-.547-.171-.695-.171-1.033 0-.648-.446-1.15-.683-1.375.497 0 .938.393 1.669.393.32 0 1.104-.15 1.68-.246-.282 1.444-1.011 2.731-2.035 3.714zm.457.947c.57.104.476.117 1.015.062.125-.016.125.051.038.09-1.366.625-1.104.393-1.499.512-.261.08-.36.217-.53.217l-.3-1.041c-.226-.615-.842-1.098-1.086-1.758-.416-1.125-.008-1.562-.71-1.875-.448-.201-.876-.422-1.231-.689l.016-.191c0-.5-.047-1.366-.047-1.645l.001-.034c1.793 1.035 1.275.86 2.18 1.818.091.096.625.402.625 1.207 0 .338 0 .484.172 1.035.171.547.375 1.311.524 1.59.145.28.333.618.832.702zm-5.294.992l-.173-.004c.019-.742.172-1.266.172-1.766 0-.807.428-1.459.428-1.609 0-.312.293-1.008.462-1.617.354.266.655.412 1.108.604.46.195.038.365.515 1.652.242.652.859 1.135 1.081 1.748-1.05.629-2.278.992-3.593.992zm-.504-5.533c-.079-.227-.047-.539-.044-.551.007-.062.064-.111.128-.104.063.006.111.062.105.129-.001.002-.029.271.032.449.092.264.212.512.283.574.07.064.208.1.29.102.01-.1-.068-.373-.113-.525-.092-.312-.134-.457-.029-.531.021-.018.082-.049.164-.006-.075-.127-.164-.254-.35-.443-.089-.095-.119-.263-.107-.624l.028-.576.022-.519c0-.334-.02-.435-.042-.537-.021-.121-.046-.248-.046-.674 0-.394-.022-.569-.038-.688l-.011-.15c0-.185.018-.314.036-.44.018-.124.032-.243.032-.407 0-.396-.065-.441-.351-.636l-.005-.007c-.054-.037-.07-.109-.034-.164.038-.054.111-.067.163-.029l.01.007c.322.221.452.328.452.828 0 .181-.018.313-.036.438-.017.126-.033.242-.033.41l.012.123c.014.123.039.31.039.718 0 .4.021.516.043.627.022.109.048.226.048.582l-.024.532-.028.568c-.011.357.025.437.044.454.301.31.38.474.49.703l.079.158c.025.047.014.104-.021.137-.037.037-.096.043-.141.018l-.187-.109.05.174c.106.373.168.609.082.74-.031.047-.079.076-.134.082-.118.014-.359-.027-.506-.158-.162-.148-.321-.587-.352-.675zm.296-7.684c.042-.057.106-.05.166-.003.069.056.436.261.656.261.212 0 .17-.142.186-.227l.059-.206.007-.144c.039-.053.134-.012.125-.104l-.132-.31c3.364.409 5.995 3.209 6.138 6.651l-.057-.006c-.307 0-.354-.016-1.076-.12-1.078-.157-.536.061-1.4-.182-.416-.119-.407-.151-.598-.229s-.34-.034-.434-.067c-1.06-.398-1.25-.459-2.292-.536.014-.19.02-.412.02-.694 0-.424-.072-.797-.111-1.104-.04-.306-.044-.547-.105-.758-.28-.951-.758-1.062-.758-1.4 0-.148.047.037.094-.434-.132-.052-.351-.162-.436-.228-.061-.043-.094-.107-.052-.16zm-1.011 11.475c0 .338.16 1.117.26 1.678-2.946-.402-5.31-2.643-5.898-5.523.229-.086.407-.223.643-.223.35 0 .771.637 1.815.637 1.261 0 2.107-.473 2.505-.473.183 0 .528.111 1.052.111-.021.191-.042.441-.042.67 0 .617.091.789.091.953-.005 1.172-.426 1.397-.426 2.17zm-6.823-5.128c0-.742.424-.916.965-.916.259 0 .298-.136.415-.136.082 0 .023.123.208.136.133.006.376-.021.376.163 0 .161-.067.23-.067.298 0 .137.186.154.342.154.289 0 .156.046.323.046.479 0 .713-.709 1.752-.782l.609-.05.729.358c.399.288.345.489 1.124.946.098.397.308.467.405.627-.513 0-.857-.107-1.036-.107-.396 0-1.244.473-2.506.473-1.098 0-1.216-.639-1.814-.639-.564 0-.465.287-1.086.287-.469.001-.739-.298-.739-.858zm2.172-3.948c.23.11.508.123.646.293.34.425-.015 1.082 1.444 2.154-.604 0-.91.23-1.688.747l-.129-.03c-.063-.474-.322-.517-.669-.588-.07-.069-.175-.164-.378-.164-.113 0-.129.022-.227.059.175-.894.522-1.73 1.001-2.471zm.022-1.739c.502-.543.961-.359 1.357.007.19.177.311.106.396.188.06.057-.066.104.062.237.093.097.29.242.163.38-.109.115-.556.298-.625.327-.078.032-.117.123-.084.199.033.079.121.112.2.085.338-.118.377-.163.377-.163.167.208.128.367.452.438.654.14 1.068.018 1.631.569.189.187.447.345.695.451.151.506.323.853.323 1.106l-.01.239c-.166-.12-.259-.216-.366-.323l-.151-.153-.306-.207c-.114-.068-.272-.163-.325-.217l-.164-.176c-.277-.315-.658-.746-1.076-.746-.289 0-.458.092-.485.106-.111.062-.153.198-.092.311.061.112.196.153.307.093.01-.003.101-.053.271-.053.213 0 .54.371.734.59l.182.199c.095.093.255.188.411.286l.229.146.138.136c.135.14.273.28.561.466l.033.021c-.115.292-.288.376-.305.794v-.006c-.413-.314-.415-.466-.742-.704l-.732-.358-.66-.413c-1.5-1.104-.863-1.428-1.444-2.156-.286-.355-.538-.181-.955-.515-.408-.322-.361-.797 0-1.184zm4.734-1.357c.098.229.271.421.271.791 0 .491-.604.959-.604 1.769 0 .328.028.619.073.88-.672-.493-.628-.669-2.07-.849l-.07-.127s.144-.117.144-.377c0-.229-.234-.509-.234-.509 0-.065.023-.243-.297-.479.822-.553 1.767-.935 2.787-1.099zm9.926 6.49c0-.362-.04-.647-.047-.826-.006-.175-.1-.569-.503-.569s-.48.384-.521.555c-.042.168-.034.193-.175.402l-.136.209c-.307-3.556-3.108-6.396-6.642-6.767l-.029-.119c-.011-.101-.158-.603-.979-.603-.598 0-.896.296-.949.771-1.171.185-2.252.644-3.176 1.306l-.015-.007c-.122-.084-.44-.302-.813-.302-.375 0-.738.22-1.013.5-.407.417-.687 1.114-.044 1.773-.559.847-.949 1.812-1.123 2.849-.929.103-1.173.849-1.173 1.382 0 .88.491 1.269 1.214 1.341.628 3.131 3.212 5.551 6.424 5.936l.004.09c0 .346-.116.545-.116.721 0 .086.029.229.26.229l.363-.041c.242 0 .397.082.73.082.129 0 .707-.041.938-.055.099-.01.134-.156.032-.199l-.43-.109c-.124-.041-.396-.238-.562-.324-.143-.072-.303-.152-.403-.34h.07c1.358 0 2.631-.361 3.728-.996.05.234.012.283.091.506.129.365.421.453.755.334l.445-.211c.115-.043.312-.029.655-.15.342-.121.628-.264.786-.336.146-.068.508-.271.372-.65-.144-.406-.479-.34-.679-.32-.351.035-.232.037-.82-.062-.084-.018-.166-.049-.242-.115 1.164-1.09 1.979-2.545 2.262-4.184l.137-.01c.299 0 .474.123.68.123.385 0 .604-.326.604-.68l-.048-.433c-.001-.131.088-.337.088-.701z"/><path d="M19.735 15.255l-.092.602h2.801l.083-.602h-2.792zm4.374 0l.157.602h2.204l.157-.602h-2.518zm4.1 0l.084.602h2.802l-.093-.602h-2.793zm3.483 0c.583.48 1.42.768 2.555.768 2.021 0 2.896-.592 2.896-.592v-.176h-5.451zm6.489 0c.489.527 1.131.764 1.741.764.791 0 1.285-.373 1.586-.764h-3.327zm4.208 0c.396.414 1.035.787 1.865.787 1.557 0 2.648-.678 2.648-.678s.442.636 1.686.636c.951 0 1.811-.311 1.811-.311v-.438l-8.01.004zm8.564 0v.619h2.557v-.619h-2.557zm5.631 0c.686.527 1.623.771 2.605.771.98 0 1.922-.242 2.604-.771h-5.209zm6.744 0v.619h2.561v-.619h-2.561zm4.279 0c.363.367.885.619 1.471.619h4.438v-.619h-5.909zm7.448 0c.602.443 1.5.744 2.834.744 1.453 0 2.061-.305 2.061-.305v-.439h-4.895zm-55.199-.787l-.122.787h2.792l.113-.787h-2.783zm4.044 0l.209.787h2.519l.209-.787h-2.937zm4.2 0l.109.787h2.793l-.122-.787h-2.78zm2.942 0c.165.297.38.562.649.787h5.45v-.787h-1.899l-.324.006-.29-.006h-3.586zm6.634 0c.136.312.307.574.505.787h3.327c.244-.318.361-.645.404-.789l-4.236.002zm4.262 0c.027.215.188.51.449.787h8.01v-.787h-8.459zm9.015 0v.787h2.557v-.787h-2.557zm4.936 0c.182.312.418.572.695.787h5.215c.277-.215.516-.477.695-.787h-6.605zm7.439 0v.787h2.561v-.787h-2.561zm3.795 0c.088.283.256.559.484.787h5.908v-.787h-6.392zm7.215 0c.168.285.398.555.717.787h4.895v-.787h-5.612zm-51.697 0l.439-3.115.82 3.115h2.937l.821-3.115.439 3.115h2.78l-.096-.621c.064.219.149.426.258.621h3.586c-1.204-.068-1.401-.562-1.401-1.084h4.175c.045.414.142.773.272 1.084h4.236l.021-.078.008.078h8.459v-.332s-.246.043-.48.043c-.434 0-.887-.207-.887-.842v-1.963h1.363v-1.64h-1.354v-2.38h-2.742v2.375h-1.062v1.646h1.062v2.053c0 .352-.25.859-.887.859-.471 0-.832-.35-.832-.859v-6.064h-2.711v3.196s-.604-1.019-1.937-1.019c-.488 0-2.27.301-2.532 2.642l.004.047-.004-.047c-.32-1.66-1.373-2.625-3.271-2.625-2.428 0-3.518 1.691-3.518 3l.006.21-.743-4.832h-3.487l-1.016 3.866-1.017-3.866h-3.481l-1.012 6.533h2.784v-.001zm14.503 0v-.521s-.646.451-1.899.521h1.899zm16.366 0v-1.033c0-.244.555-1.501 1.791-1.501l.266.034c-.043.209-.066.433-.066.67v.256c0 .623.146 1.145.393 1.574h6.604c.248-.432.391-.951.391-1.574v-.256c0-2.104-1.754-3.079-3.689-3.079-1.34 0-2.592.467-3.234 1.447v-1.235s-.135-.043-.438-.043c-1.008 0-1.689.907-2.012 1.566v-1.56h-2.559v4.734h2.553zm12.375 0v-2.07c0-.426.08-.892.562-.892.484 0 .605.47.605.892v1.632c0 .146.021.293.062.438h6.396v-4.728h-2.686v4.345h-.662c-.182 0-.412-.146-.412-.443v-2.122c0-1.207-1.062-1.943-1.984-1.943-.754 0-1.406.4-1.887 1.387v-1.227h-2.559v4.733h2.557v-.002h.008zm14.062 0v-.619s-.52.336-1.279.336c-.758 0-1.551-.324-1.551-1.449 0-1.123.932-1.438 1.479-1.438l1.354.309v-1.743s-.67-.292-2.104-.292c-3.4 0-3.943 1.891-3.943 3.162 0 .521.094 1.156.438 1.732h5.609l-.003.002zm-9.115-5.37v-1.739h2.688v1.738h-2.688v.001zm-30.107 5.044c-.387 0-.881-.152-.881-1.424 0-1.27.494-1.424.881-1.424s.883.154.883 1.424c-.001 1.274-.497 1.424-.883 1.424zm-7.497-1.787c.097-.938.569-1.197.955-1.197.384 0 .857.26.955 1.197h-1.91zm25.92 1.787c-.387 0-.881-.152-.881-1.424 0-1.27.494-1.424.881-1.424s.881.154.881 1.424c0 1.274-.494 1.424-.881 1.424z"/></g></svg>