<svg xmlns="http://www.w3.org/2000/svg" width="80" height="52.5"><rect x=".078" y="3.438" fill="#142A3E" width="79.844" height="45.625"/><polygon fill="#fff" points="32.299,12.957 40.857,12.957 40.857,15.779 38.381,16.479 38.381,30.1 36.58,40.08 34.832,30.041 34.832,16.479 32.299,15.809"/><polygon fill="#828282" points="36.58,17.352 38.381,17.352 38.381,17.701 38.231,17.701 38.231,17.527 36.58,17.527"/><polygon fill="#828282" points="36.58,18.344 38.381,18.344 38.381,18.704 38.197,18.704 38.197,18.616 36.58,18.616"/><polygon opacity=".3" fill="#828282" enable-background="new" points="40.857,12.957 40.857,12.957 39.759,15.374 37.655,15.494 37.655,30.244 36.58,40.08 36.58,40.08 38.363,30.205 38.381,16.479 40.857,15.779"/><polygon opacity=".3" fill="#828282" enable-background="new" points="32.299,15.809 32.299,15.809 35.443,15.625 34.832,30.041 34.832,16.479"/><polygon fill="#fff" points="24.594,33.236 21.079,33.212 17.298,20.83 17.273,33.236 14.104,33.236 14.104,12.871 18.018,12.871 21.292,22.749 21.318,12.871 24.594,12.871"/><rect x="27.255" y="12.871" fill="#fff" width="3.542" height="20.365"/><path fill="#fff" d="M47.119 33.691c-2.212 0-5.434-1.146-5.434-4.66v-11.608c0-3.7 2.664-5.003 5.434-5.003 3.166 0 5.482 1.514 5.482 4.926v11.525c.003 3.834-3.115 4.82-5.482 4.82m1.781-16.425c0-1.146-.902-1.76-1.756-1.76-.799 0-1.756.508-1.756 1.68l.023 11.766c0 1.145.955 1.73 1.756 1.73.771 0 1.729-.509 1.729-1.65v-11.766h.004z"/><path fill="#fff" d="M62.169 33.236l-2.59-8.945h-1.377l-.025 8.945h-3.771v-20.365h6.24c2.055 0 4.728.771 4.728 4.072v3.729c0 3.3-2.334 3.354-2.334 3.354l2.839 9.211h-3.71v-.001zm-2.196-17.356h-1.885v5.458h1.688c1.576 0 1.941-1.012 1.941-1.812v-1.889c.001-1.171-.589-1.757-1.744-1.757"/><path d="M16.558 38.354c-.233.058-.485.104-.728.104-1.031 0-1.749-.531-1.749-1.64 0-1.125.667-1.754 1.749-1.754.212 0 .49.041.724.136l-.047.554c-.24-.139-.461-.172-.688-.172-.658 0-1.07.518-1.07 1.188s.401 1.17 1.082 1.17c.252 0 .549-.057.701-.137l.026.551zm.673-3.236h.64v1.896c0 .561.173.926.662.926.489 0 .66-.365.66-.926v-1.896h.639v2.099c0 .879-.481 1.239-1.299 1.239-.819 0-1.302-.36-1.302-1.239v-2.099zm5.262.605c-.202-.09-.425-.143-.647-.143-.221 0-.504.098-.504.455 0 .568 1.397.328 1.397 1.429 0 .722-.553.992-1.196.992-.347 0-.503-.048-.818-.125l.06-.593c.219.121.471.201.721.201.243 0 .568-.127.568-.424 0-.625-1.397-.365-1.397-1.451 0-.733.551-1.002 1.114-1.002.273 0 .529.039.762.119l-.06.542zm1.633-.087h-.915v-.518h2.467v.518h-.914v2.764h-.638v-2.764zm3.59-.574c1 0 1.562.695 1.562 1.688s-.553 1.706-1.562 1.706c-1.023 0-1.563-.7-1.563-1.706s.548-1.688 1.563-1.688zm0 2.877c.654 0 .896-.599.896-1.189 0-.577-.258-1.17-.896-1.17-.635 0-.896.593-.896 1.17 0 .594.243 1.189.896 1.189zm2.371-2.821h1.023l.758 2.487h.01l.758-2.487h1.022v3.28h-.611v-2.705h-.009l-.859 2.705h-.614l-.858-2.705-.007.009v2.696h-.613v-3.28zm10.788 3.318c-.236.058-.49.104-.734.104-1.047 0-1.774-.531-1.774-1.642 0-1.121.675-1.754 1.774-1.754.211 0 .493.041.729.139l-.047.553c-.244-.141-.467-.172-.696-.172-.668 0-1.085.52-1.085 1.188s.407 1.17 1.1 1.17c.254 0 .555-.057.705-.137l.028.551zm1.63-3.235h.729l1.271 3.279h-.721l-.276-.752h-1.308l-.28.752h-.673l1.258-3.279zm.354.656h-.008l-.47 1.354h.944l-.466-1.354zm2.239-.656h.699c.693 0 1.523-.024 1.523.89 0 .386-.256.703-.668.761v.008c.178.017.279.195.346.343l.516 1.28h-.723l-.389-1.022c-.09-.245-.176-.337-.448-.337h-.207v1.359h-.649v-3.282zm.649 1.401h.212c.32 0 .688-.047.688-.455 0-.396-.359-.429-.688-.429h-.212v.884zm2.407-1.401h.818c.702 0 1.348.207 1.348.99 0 .768-.553 1.045-1.246 1.045h-.272v1.244h-.647v-3.279h-.001zm.648 1.516h.228c.324 0 .617-.105.617-.486s-.283-.513-.617-.513h-.228v.999zm2.216-1.516h1.906v.517h-1.261v.81h1.155v.519h-1.155v.922h1.271v.519h-1.916v-3.287zm2.768 0h.794l1.234 2.451h.006v-2.451h.621v3.279h-.793l-1.232-2.453h-.01v2.453h-.62v-3.279zm4.194.517h-.926v-.517h2.496v.517h-.925v2.765h-.645v-2.765zm2.163-.517h.699c.693 0 1.523-.024 1.523.89 0 .386-.256.703-.667.761v.008c.177.017.278.195.343.343l.518 1.28h-.722l-.388-1.022c-.096-.248-.176-.34-.449-.34h-.209v1.36h-.648v-3.28zm.648 1.401h.212c.321 0 .687-.047.687-.455 0-.396-.359-.429-.687-.429h-.212v.884zm3.32.584l-1.182-1.981h.76l.764 1.377.779-1.377h.686l-1.159 1.981v1.297h-.647v-1.297h-.001z" fill="#fff"/><polygon fill="#142A3E" points="36.58,17.174 38.381,17.174 38.381,17.559 38.231,17.559 38.231,17.559 36.58,17.559"/><polygon fill="#142A3E" points="36.58,18.182 38.381,18.182 38.381,18.58 38.197,18.579 38.197,18.579 36.58,18.579"/></svg>