<?xml version="1.0" encoding="utf-8"?>
<!-- Generator: Adobe Illustrator 16.0.0, SVG Export Plug-In . SVG Version: 6.00 Build 0)  -->
<!DOCTYPE svg PUBLIC "-//W3C//DTD SVG 1.1//EN" "http://www.w3.org/Graphics/SVG/1.1/DTD/svg11.dtd">
<svg version="1.1" id="Layer_1" xmlns="http://www.w3.org/2000/svg" xmlns:xlink="http://www.w3.org/1999/xlink" x="0px" y="0px"
	 width="80px" height="52.5px" viewBox="0 0 80 52.5" enable-background="new 0 0 80 52.5" xml:space="preserve">
<g>
	<g>
		<g>
			<path fill="#142A3E" d="M13.702,38.682c0.619,0,0.619,0.74,0.619,0.895s0,0.896-0.619,0.896c-0.618,0-0.618-0.742-0.618-0.896
				S13.084,38.682,13.702,38.682z M13.702,40.326c0.453,0,0.453-0.611,0.453-0.75s0-0.75-0.453-0.75
				c-0.452,0-0.452,0.611-0.452,0.75S13.25,40.326,13.702,40.326z"/>
			<path fill="#142A3E" d="M14.508,38.699h0.971v0.145H15.07v1.611h-0.155v-1.611h-0.407V38.699z"/>
			<path fill="#142A3E" d="M15.7,38.699h0.971v0.145h-0.408v1.611h-0.155v-1.611H15.7V38.699z"/>
			<path fill="#142A3E" d="M17.345,38.699h0.167l0.583,1.756h-0.166l-0.153-0.484h-0.7l-0.158,0.484h-0.155L17.345,38.699z
				 M17.121,39.826h0.606l-0.297-0.961h-0.005L17.121,39.826z"/>
			<path fill="#142A3E" d="M18.232,38.699h0.167l0.314,1.568h0.005l0.364-1.568h0.214l0.33,1.568h0.005l0.343-1.568h0.155
				l-0.405,1.756h-0.196l-0.344-1.58h-0.006l-0.372,1.58h-0.184L18.232,38.699z"/>
			<path fill="#142A3E" d="M20.853,38.699h0.166l0.583,1.756h-0.166l-0.153-0.484h-0.699l-0.158,0.484h-0.156L20.853,38.699z
				 M20.628,39.826h0.606l-0.297-0.961h-0.005L20.628,39.826z"/>
			<path fill="#142A3E" d="M22.681,38.699h0.33c0.33,0,0.536,0.141,0.536,0.494c0,0.381-0.265,0.496-0.491,0.496h-0.219v0.766
				h-0.156V38.699z M22.837,39.543h0.158c0.231,0,0.386-0.078,0.386-0.35c0-0.35-0.263-0.35-0.408-0.35h-0.136V39.543z"/>
			<path fill="#142A3E" d="M23.967,38.699h0.156v0.77h0.684v-0.77h0.156v1.756h-0.156v-0.842h-0.684v0.842h-0.156V38.699z"/>
			<path fill="#142A3E" d="M25.901,38.699h0.166l0.584,1.756h-0.167l-0.152-0.484h-0.7l-0.158,0.484h-0.156L25.901,38.699z
				 M25.678,39.826h0.605l-0.296-0.961h-0.006L25.678,39.826z"/>
			<path fill="#142A3E" d="M27.005,38.699h0.406c0.304,0,0.463,0.189,0.463,0.447c0,0.299-0.196,0.396-0.345,0.426v0.004
				c0.05,0.01,0.138,0.037,0.178,0.15l0.265,0.729h-0.166l-0.214-0.602c-0.056-0.158-0.105-0.217-0.231-0.217h-0.199v0.818h-0.156
				V38.699z M27.161,39.49h0.214c0.315,0,0.332-0.285,0.332-0.336c0-0.289-0.23-0.311-0.342-0.311h-0.204V39.49z"/>
			<path fill="#142A3E" d="M28.385,38.699h0.238l0.488,1.523h0.005l0.488-1.523h0.239v1.756h-0.146v-1.611h-0.005l-0.519,1.611
				h-0.118l-0.521-1.611H28.53v1.611h-0.146V38.699z"/>
			<path fill="#142A3E" d="M30.781,38.699h0.167l0.583,1.756h-0.166l-0.153-0.484h-0.699l-0.158,0.484h-0.156L30.781,38.699z
				 M30.558,39.826h0.606l-0.297-0.961h-0.005L30.558,39.826z"/>
			<path fill="#142A3E" d="M32.827,40.416c-0.048,0.018-0.154,0.057-0.3,0.057c-0.521,0-0.744-0.436-0.744-0.906
				c0-0.453,0.214-0.885,0.755-0.885c0.091,0,0.211,0.018,0.294,0.057l-0.008,0.176c-0.048-0.039-0.173-0.088-0.299-0.088
				c-0.123,0-0.576,0.059-0.576,0.746c0,0.611,0.372,0.754,0.573,0.754c0.134,0,0.201-0.033,0.297-0.078L32.827,40.416z"/>
			<path fill="#142A3E" d="M33.312,38.699h0.744v0.145h-0.588v0.625h0.561v0.145h-0.561v0.695h0.616v0.146h-0.772V38.699z"/>
			<path fill="#142A3E" d="M34.55,38.699h0.156v1.105c0,0.266,0.051,0.521,0.364,0.521c0.33,0,0.365-0.285,0.365-0.521v-1.105h0.156
				v1.109c0,0.346-0.113,0.664-0.521,0.664c-0.406,0-0.521-0.287-0.521-0.664V38.699z"/>
			<path fill="#142A3E" d="M35.964,38.699h0.971v0.145h-0.407v1.611h-0.156v-1.611h-0.407V38.699z"/>
			<path fill="#142A3E" d="M37.308,38.699h0.155v1.756h-0.155V38.699z"/>
			<path fill="#142A3E" d="M38.973,40.416c-0.047,0.018-0.153,0.057-0.299,0.057c-0.521,0-0.745-0.436-0.745-0.906
				c0-0.453,0.214-0.885,0.755-0.885c0.091,0,0.211,0.018,0.295,0.057l-0.009,0.176c-0.047-0.039-0.173-0.088-0.299-0.088
				c-0.123,0-0.576,0.059-0.576,0.746c0,0.611,0.372,0.754,0.574,0.754c0.133,0,0.201-0.033,0.297-0.078L38.973,40.416z"/>
			<path fill="#142A3E" d="M39.873,38.699h0.167l0.583,1.756h-0.166l-0.153-0.484h-0.699l-0.159,0.484H39.29L39.873,38.699z
				 M39.649,39.826h0.606l-0.297-0.961h-0.006L39.649,39.826z"/>
			<path fill="#142A3E" d="M40.978,38.699h0.156v1.609h0.571v0.146h-0.728V38.699z"/>
			<path fill="#142A3E" d="M42.751,40.207c0.121,0.109,0.265,0.119,0.31,0.119c0.282,0,0.317-0.252,0.317-0.316
				c0-0.205-0.121-0.287-0.332-0.428c-0.244-0.166-0.316-0.277-0.316-0.477c0-0.389,0.354-0.424,0.458-0.424
				c0.141,0,0.236,0.039,0.276,0.055l-0.008,0.176c-0.067-0.041-0.148-0.086-0.279-0.086c-0.101,0-0.281,0.053-0.281,0.258
				c0,0.174,0.091,0.24,0.241,0.352c0.312,0.229,0.408,0.309,0.408,0.551c0,0.295-0.202,0.486-0.472,0.486
				c-0.108,0-0.241-0.025-0.331-0.084L42.751,40.207z"/>
			<path fill="#142A3E" d="M44.41,38.699h0.165l0.584,1.756h-0.166l-0.153-0.484h-0.699l-0.158,0.484h-0.156L44.41,38.699z
				 M44.186,39.826h0.606l-0.297-0.961H44.49L44.186,39.826z"/>
			<path fill="#142A3E" d="M45.514,38.699h0.156v1.609h0.57v0.146h-0.727V38.699z"/>
			<path fill="#142A3E" d="M46.613,38.699h0.744v0.145H46.77v0.625h0.561v0.145H46.77v0.695h0.616v0.146h-0.772V38.699z"/>
			<path fill="#142A3E" d="M47.801,40.207c0.121,0.109,0.264,0.119,0.31,0.119c0.282,0,0.316-0.252,0.316-0.316
				c0-0.205-0.12-0.287-0.331-0.428c-0.245-0.166-0.317-0.277-0.317-0.477c0-0.389,0.354-0.424,0.457-0.424
				c0.142,0,0.237,0.039,0.277,0.055l-0.008,0.176c-0.067-0.041-0.148-0.086-0.279-0.086c-0.101,0-0.281,0.053-0.281,0.258
				c0,0.174,0.09,0.24,0.241,0.352c0.312,0.229,0.407,0.309,0.407,0.551c0,0.295-0.2,0.486-0.47,0.486
				c-0.108,0-0.241-0.025-0.332-0.084L47.801,40.207z"/>
			<path fill="#142A3E" d="M50.626,40.006c0.061-0.121,0.105-0.326,0.118-0.543h0.146c-0.011,0.111-0.038,0.426-0.177,0.67
				l0.257,0.322h-0.198l-0.146-0.213c-0.021,0.043-0.156,0.23-0.443,0.23c-0.362,0-0.475-0.244-0.475-0.506
				c0-0.24,0.143-0.402,0.347-0.512c-0.095-0.115-0.188-0.244-0.188-0.412c0-0.125,0.091-0.361,0.393-0.361
				c0.226,0,0.347,0.176,0.347,0.334c0,0.244-0.163,0.369-0.342,0.484L50.626,40.006z M50.136,39.559
				c-0.185,0.131-0.272,0.232-0.272,0.436c0,0.072,0.05,0.332,0.33,0.332c0.141,0,0.276-0.084,0.353-0.193L50.136,39.559z
				 M50.248,38.826c-0.16,0-0.226,0.129-0.226,0.227c0,0.111,0.062,0.205,0.158,0.34c0.086-0.053,0.27-0.166,0.27-0.357
				C50.45,38.967,50.417,38.826,50.248,38.826z"/>
			<path fill="#142A3E" d="M52.058,38.699h0.238l0.488,1.523h0.005l0.488-1.523h0.239v1.756H53.37v-1.611h-0.005l-0.518,1.611
				h-0.118l-0.521-1.611h-0.005v1.611h-0.146V38.699z"/>
			<path fill="#142A3E" d="M54.454,38.699h0.167l0.583,1.756h-0.166l-0.153-0.484h-0.699l-0.158,0.484h-0.156L54.454,38.699z
				 M54.231,39.826h0.605l-0.296-0.961h-0.006L54.231,39.826z"/>
			<path fill="#142A3E" d="M55.56,38.699h0.201l0.737,1.559h0.004v-1.559h0.146v1.756h-0.201l-0.736-1.551h-0.006v1.551H55.56
				V38.699z"/>
			<path fill="#142A3E" d="M57.587,38.699h0.166l0.583,1.756h-0.165l-0.154-0.484h-0.699l-0.158,0.484h-0.156L57.587,38.699z
				 M57.363,39.826h0.606l-0.298-0.961h-0.004L57.363,39.826z"/>
			<path fill="#142A3E" d="M59.275,39.512h0.47v0.865c-0.126,0.066-0.262,0.096-0.404,0.096c-0.617,0-0.768-0.58-0.768-0.914
				c0-0.451,0.269-0.877,0.762-0.877c0.142,0,0.315,0.055,0.368,0.084l-0.009,0.172c-0.067-0.053-0.235-0.111-0.369-0.111
				c-0.252,0-0.586,0.191-0.586,0.748c0,0.322,0.146,0.752,0.608,0.752c0.091,0,0.161-0.01,0.241-0.053v-0.617h-0.313V39.512z"/>
			<path fill="#142A3E" d="M60.259,38.699h0.744v0.145h-0.588v0.625h0.561v0.145h-0.561v0.695h0.616v0.146h-0.772V38.699z"/>
			<path fill="#142A3E" d="M61.496,38.699h0.239l0.487,1.523h0.006l0.487-1.523h0.239v1.756H62.81v-1.611h-0.005l-0.519,1.611
				h-0.118l-0.521-1.611h-0.005v1.611h-0.146V38.699z"/>
			<path fill="#142A3E" d="M63.479,38.699h0.745v0.145h-0.589v0.625h0.561v0.145h-0.561v0.695h0.616v0.146h-0.772V38.699z"/>
			<path fill="#142A3E" d="M64.716,38.699h0.202l0.736,1.559h0.005v-1.559h0.146v1.756h-0.201l-0.737-1.551h-0.005v1.551h-0.146
				V38.699z"/>
			<path fill="#142A3E" d="M66.178,38.699h0.971v0.145h-0.406v1.611h-0.156v-1.611h-0.408V38.699z"/>
			<path fill="#142A3E" d="M68.522,38.699h0.166l0.584,1.756h-0.166l-0.153-0.484h-0.699l-0.159,0.484h-0.155L68.522,38.699z
				 M68.299,39.826h0.606l-0.297-0.961h-0.005L68.299,39.826z"/>
			<path fill="#142A3E" d="M69.627,38.699h0.156v1.609h0.57v0.146h-0.727V38.699z"/>
			<path fill="#142A3E" d="M70.727,38.699h0.156v1.609h0.571v0.146h-0.728V38.699z"/>
			<path fill="#142A3E" d="M71.826,38.699h0.155v1.756h-0.155V38.699z"/>
			<path fill="#142A3E" d="M72.92,38.699h0.166l0.584,1.756h-0.166l-0.154-0.484h-0.698l-0.158,0.484h-0.157L72.92,38.699z
				 M72.696,39.826h0.606l-0.298-0.961h-0.004L72.696,39.826z"/>
			<path fill="#142A3E" d="M74.024,38.699h0.201l0.737,1.559h0.006v-1.559h0.146v1.756h-0.201l-0.738-1.551h-0.004v1.551h-0.146
				V38.699z"/>
			<path fill="#142A3E" d="M76.623,40.416c-0.047,0.018-0.152,0.057-0.299,0.057c-0.521,0-0.744-0.436-0.744-0.906
				c0-0.453,0.213-0.887,0.754-0.887c0.09,0,0.211,0.02,0.295,0.059l-0.008,0.176c-0.048-0.039-0.174-0.088-0.3-0.088
				c-0.123,0-0.576,0.059-0.576,0.746c0,0.611,0.372,0.754,0.573,0.754c0.134,0,0.202-0.033,0.298-0.078L76.623,40.416z"/>
			<path fill="#142A3E" d="M77.108,38.699h0.745v0.145h-0.589v0.625h0.562v0.145h-0.562v0.695h0.616v0.146h-0.772V38.699z"/>
		</g>
		
			<line fill="none" stroke="#142A3E" stroke-width="0.3006" stroke-miterlimit="10" x1="3.987" y1="23.178" x2="8.297" y2="23.178"/>
		
			<line fill="none" stroke="#142A3E" stroke-width="0.3006" stroke-miterlimit="10" x1="2.814" y1="24.475" x2="9.607" y2="24.475"/>
		
			<line fill="none" stroke="#142A3E" stroke-width="0.3006" stroke-miterlimit="10" x1="2.367" y1="25.771" x2="9.971" y2="25.771"/>
		
			<line fill="none" stroke="#142A3E" stroke-width="0.3006" stroke-miterlimit="10" x1="2.814" y1="27.068" x2="9.439" y2="27.068"/>
		
			<line fill="none" stroke="#142A3E" stroke-width="0.3006" stroke-miterlimit="10" x1="3.987" y1="28.365" x2="8.297" y2="28.365"/>
		
			<line fill="none" stroke="#142A3E" stroke-width="0.3006" stroke-miterlimit="10" x1="3.987" y1="33.053" x2="8.297" y2="33.053"/>
		
			<line fill="none" stroke="#142A3E" stroke-width="0.3006" stroke-miterlimit="10" x1="2.814" y1="34.225" x2="9.607" y2="34.225"/>
		
			<line fill="none" stroke="#142A3E" stroke-width="0.3006" stroke-miterlimit="10" x1="2.367" y1="35.395" x2="9.971" y2="35.395"/>
		<path fill-rule="evenodd" clip-rule="evenodd" fill="#142A3E" d="M2.201,36.305c-0.167-1.18-0.014-2.301,0.582-3.343
			c0.567-0.995,1.386-1.749,2.313-2.396c1.001-0.699,2.023-1.369,2.999-2.103c0.447-0.337,0.852-0.759,1.191-1.206
			c0.691-0.912,0.69-1.771,0.076-2.737c-0.544-0.857-1.29-1.523-2.073-2.151c-0.271-0.217-0.549-0.424-0.853-0.659
			c0.367-0.258,0.716-0.508,1.072-0.745c0.04-0.026,0.15,0.005,0.198,0.045c1.227,1.025,2.12,2.254,2.38,3.877
			c0.273,1.71-0.203,3.185-1.364,4.453c-0.771,0.842-1.692,1.512-2.59,2.209c-1.173,0.914-2.306,1.873-3.198,3.076
			C2.564,35.125,2.244,35.656,2.201,36.305z"/>
		<path fill-rule="evenodd" clip-rule="evenodd" fill="#142A3E" d="M5.811,29.688c-0.326,0.222-0.635,0.443-0.958,0.645
			c-0.062,0.039-0.209,0.027-0.267-0.021c-0.97-0.818-1.852-1.719-2.22-2.974c-0.551-1.876-0.166-3.591,1.029-5.123
			c0.805-1.033,1.865-1.767,2.958-2.459c0.859-0.544,1.732-1.072,2.442-1.819c0.61-0.643,0.996-1.386,1.046-2.284
			c0.002-0.041,0.016-0.08,0.024-0.12c0.026-0.004,0.053-0.008,0.079-0.011c0.059,0.293,0.147,0.585,0.171,0.881
			c0.075,0.94-0.284,1.741-0.848,2.465c-0.749,0.964-1.73,1.659-2.707,2.368c-0.883,0.641-1.747,1.314-2.574,2.027
			c-0.404,0.349-0.746,0.792-1.043,1.24c-0.719,1.084-0.599,2.094,0.298,3.082c0.674,0.74,1.478,1.32,2.298,1.88
			c0.077,0.052,0.155,0.104,0.231,0.157C5.783,29.631,5.788,29.65,5.811,29.688z"/>
		<path fill-rule="evenodd" clip-rule="evenodd" fill="#142A3E" d="M10.086,36.256c-0.147-0.982-0.728-1.73-1.388-2.406
			c-0.668-0.684-1.399-1.307-2.103-1.955c-0.049-0.044-0.097-0.088-0.171-0.154c0.363-0.283,0.705-0.559,1.061-0.813
			c0.049-0.034,0.187-0.005,0.244,0.042c1.199,0.97,2.142,2.113,2.361,3.699c0.072,0.525,0.054,1.061,0.077,1.592
			C10.141,36.258,10.113,36.258,10.086,36.256z"/>
		<path fill-rule="evenodd" clip-rule="evenodd" fill="#142A3E" d="M2.408,15.481c0.064,1.488,0.92,2.477,2.049,3.291
			c0.438,0.316,0.894,0.611,1.362,0.93c-0.354,0.25-0.688,0.491-1.029,0.721c-0.041,0.027-0.141,0.023-0.181-0.008
			c-1.029-0.824-1.982-1.709-2.357-3.041C2.07,16.729,2.146,16.102,2.408,15.481z"/>
		<path fill="#142A3E" d="M4.346,11.812c0,0,1.518-0.733,3.208,0L5.819,9.024L4.346,11.812z"/>
		<rect x="2.201" y="36.305" fill="#142A3E" width="7.967" height="1.189"/>
		<path fill="#142A3E" d="M10.154,38.318h-3.97H2.201c0,0-0.396,5.158,3.983,5.158S10.154,38.318,10.154,38.318z"/>
	</g>
	<g>
		<path fill="#142A3E" d="M18.823,23.093c4.105,0,5.698,3.607,5.698,7.194c0,2.743-1.247,7.078-5.698,7.078
			c-3.933,0-5.679-3.51-5.679-7.078C13.145,26.7,14.794,23.093,18.823,23.093z M18.823,36.811c3.185,0,3.664-4.068,3.664-6.523
			c0-2.321-0.364-6.638-3.664-6.638c-3.242,0-3.646,4.125-3.646,6.638C15.178,32.59,15.619,36.811,18.823,36.811z"/>
		<path fill="#142A3E" d="M26.055,36.502h0.576c1.017,0,1.017-0.498,1.017-1.381v-9.668c0-0.921,0-1.497-0.998-1.497h-0.595v-0.557
			h4.278c2.725,0,5.564,0.48,5.564,3.761c0,2.686-2.725,3.549-5.276,3.549h-1.228v4.527c0,0.922,0.191,1.266,1.17,1.266h0.441v0.557
			h-4.95V36.502z M29.394,30.152h1.323c1.938,0,3.146-1.305,3.146-2.992c0-2.322-1.074-3.204-3.165-3.204h-1.305V30.152z"/>
		<path fill="#142A3E" d="M38.179,33.414c0.173,2.033,1.688,3.396,3.53,3.396c1.766,0,3.069-1.516,3.069-2.975
			c0-1.688-1.63-2.34-3.645-3.107c-1.267-0.48-3.664-1.248-3.664-3.818c0-2.781,2.206-3.817,4.566-3.817
			c0.651,0,1.189,0.153,1.61,0.288c0.442,0.153,0.787,0.307,1.074,0.307c0.27,0,0.441-0.365,0.461-0.595h0.557v3.53h-0.672v-0.077
			c0-0.134-0.307-2.897-3.05-2.897c-1.535,0-2.975,1.094-2.975,2.571c0,1.842,1.823,2.36,3.665,3.031
			c1.611,0.595,3.646,1.708,3.646,3.991c0,3.012-2.245,4.123-4.662,4.123c-0.711,0-1.4-0.133-1.919-0.268
			c-0.537-0.135-0.921-0.27-1.074-0.27c-0.288,0-0.499,0.25-0.519,0.537h-0.671v-3.951H38.179z"/>
		<path fill="#142A3E" d="M50.381,25.261h-0.039v9.534c0,0.979,0.02,1.707,0.844,1.707h0.845v0.557h-4.01v-0.557h0.844
			c0.691,0,0.691-0.633,0.691-2.396v-8.5c0-1.208,0-1.65-0.729-1.65h-0.806v-0.557h3.491l4.412,10.321l3.915-9.112
			c0.172-0.403,0.287-0.806,0.401-1.209h3.415v0.557h-0.671c-0.863,0-0.863,0.652-0.863,1.535v9.054
			c0,1.363,0.076,1.957,0.807,1.957h0.728v0.557h-4.834v-0.557h0.729c0.825,0,0.825-0.67,0.825-1.938v-9.304h-0.039l-4.681,10.935
			h-0.519L50.381,25.261z"/>
		<path fill="#142A3E" d="M67.665,32.57l-1.151,2.916c-0.076,0.191-0.096,0.365-0.096,0.498c0,0.48,0.671,0.518,1.304,0.518h0.192
			v0.557h-3.856v-0.557c1.074,0,1.478-0.613,1.861-1.533l4.777-11.761h0.69l4.796,12.068c0.288,0.729,0.614,1.189,1.324,1.227h0.287
			v0.557h-4.911v-0.557h0.23c0.479,0,1.266-0.02,1.266-0.498c0-0.25-0.096-0.48-0.269-0.902l-1.035-2.531H67.665z M72.845,32.014
			l-2.397-6.101l-2.552,6.101H72.845z"/>
	</g>
</g>
</svg>
