<svg xmlns="http://www.w3.org/2000/svg" width="80" height="52.5"><path d="M8.421 36.458c-1.354-2.378-2.713-6.571-.339-11.618 1.23-2.627 3.562-4.577 5.512-5.638-1.103-1.44.297-3.092.976-3.728.084-.084 0-.213-.086-.171-2.798 1.355-5.765 4.534-7.08 7.081-3.389 6.442-.72 11.829.806 14.161.211.334.508.461.211-.087zm-.043 2.413c-4.833-4.658-5.088-12.59-1.992-18.439 1.737-3.266 4.662-6.146 8.053-7.714.381-.214 1.144-.47 1.821-.68-.508-1.018.849-2.119 2.925-2.459l-.084-.126c-.892-.38-5.005.976-5.766.382-3.181 1.949-6.063 4.578-7.926 7.926-4.072 7.252-2.926 16.237 2.84 21.41.639.591.766.294.129-.3zm-4.495-21.408c.086-.043.13-.043.17.042-1.611 2.629-2.543 5.681-2.543 8.986 0 3.264.933 6.361 2.543 8.946.298.471.17.635-.295 0-2.375-3.262-3.731-6.189-3.646-11.064 0-1.228.17-2.5.426-3.562 1.057.553 2.541-2.88 3.345-3.348zm31.628 24.293c-.596.254-1.188.424-1.739.424-.807 0-1.486-.257-1.951-.808-.509-.553-.765-1.228-.765-2.075 0-.337.043-.767.127-1.23l1.484-8.393h-1.741l.212-.889h1.697l.765-4.198 2.247-.679-.85 4.876h3.053l-.17.891h-3.051l-1.527 8.69c-.084.47-.125.891-.125 1.273 0 .465.125.845.297 1.061.212.254.509.378.932.378.383 0 .807-.127 1.314-.378l-.209 1.057zm5.971 0c-.592.254-1.185.424-1.736.424-.807 0-1.481-.257-1.951-.808-.507-.553-.764-1.228-.764-2.075 0-.337.046-.767.129-1.23l1.482-8.393h-1.735l.209-.889h1.696l.72-4.198 2.29-.679-.85 4.876h3.604l-.172.891h-3.6l-1.528 8.69c-.082.47-.124.891-.124 1.273 0 .465.084.845.297 1.061.21.254.51.378.934.378.34 0 .805-.127 1.312-.378l-.213 1.057zm3.692-1.401c-.338 0-.594-.127-.764-.427-.211-.294-.297-.721-.297-1.312 0-1.145.213-2.461.596-3.9.377-1.479.848-2.625 1.352-3.516.68-1.104 1.527-1.608 2.631-1.608.467 0 .93.038 1.355.167.422.13.848.34 1.268.597l-.721 4.196c-2.242 3.854-4.063 5.803-5.42 5.803zm8.267 1.528l.125-.81h-.211c-.766-.044-1.186-.125-1.316-.17-.17-.041-.211-.211-.211-.468 0-.467.041-1.061.172-1.694l1.779-10.004h-2.162c-.42-.087-.803-.173-1.102-.216-.338-.041-.594-.041-.803-.041-1.908 0-3.689 1.102-5.344 3.35-1.697 2.248-2.504 4.666-2.504 7.294 0 1.021.172 1.779.596 2.248.377.511.936.764 1.736.764.938 0 1.947-.51 3.053-1.57 1.104-1.061 2.119-2.458 3.014-4.196l-.979 5.514h4.157v-.001zm2.455.127c.045-.937.088-1.614.088-1.992 0-3.603-.51-6.781-1.57-9.537-.211-.64-.764-.939-1.654-.939l-.213-.037.129-.767h3.561c.889 3.095 1.482 6.274 1.695 9.583 2.205-4.026 3.52-7.165 3.984-9.453h.594c1.146 3.096 1.867 6.314 2.078 9.707l1.061-1.695c1.652-2.715 2.457-4.701 2.457-6.061 0-.807-.209-1.482-.676-2.076h2.625c.043.254.043.467.043.635 0 1.061-.721 2.799-2.205 5.176-2.502 4.11-4.068 6.566-4.703 7.462h-.723c.086-.807.127-1.36.127-1.697 0-2.672-.379-5.214-1.143-7.589-1.104 2.629-2.629 5.514-4.496 8.692-.039.041-.17.251-.336.594h-.725l.002-.006zm15.393-1.655c-.342 0-.594-.127-.809-.427-.17-.294-.254-.721-.254-1.312 0-1.145.211-2.461.594-3.9.379-1.479.848-2.625 1.354-3.516.68-1.104 1.523-1.608 2.631-1.608.467 0 .928.038 1.352.167.426.13.85.34 1.27.597l-.719 4.196c-2.243 3.854-4.063 5.803-5.419 5.803zm8.266 1.528l.127-.81h-.215c-.764-.044-1.184-.125-1.309-.17-.174-.041-.215-.211-.215-.468 0-.467.041-1.061.172-1.694l1.777-10.004h-2.162c-.424-.087-.803-.173-1.145-.216-.295-.041-.549-.041-.764-.041-1.908 0-3.688 1.102-5.342 3.35-1.695 2.248-2.5 4.666-2.5 7.294 0 1.021.168 1.779.594 2.248.379.511.934.764 1.736.764.934 0 1.949-.51 3.053-1.57s2.121-2.458 3.012-4.196l-.974 5.513h4.155zm-68.379-.978c6.061 3.35 13.097.384 15.302-4.663 2.161-4.833.848-11.232-3.476-13.607-1.526-.891-3.094-1.272-4.577-1.272-5.088 0-9.2 4.325-9.2 9.628 0 4.871 3.433 8.857 7.926 9.535.637.04.807.253 0 .167-3.389-.254-6.188-2.626-7.375-4.62-.89-1.525-1.313-3.263-1.398-4.62-.212-2.245.339-4.41 1.353-6.233 2.927-5.383 9.751-6.993 15.134-3.983 5.383 2.967 7.334 9.752 4.366 15.176-3.728 6.782-11.532 8.52-18.272 4.75-1.355-.767-1.569-1.271-.55-.681.258.17.513.296.767.423z" fill="#142A3E"/></svg>