<svg xmlns="http://www.w3.org/2000/svg" width="80" height="29.631"><path d="M25.243 8.65l-1.632 6.156c1.455 0 2.411.054 3.194-3.268.607-2.577.002-2.95-1.562-2.888zm14.758-8.586c-12.987 0-23.512 6.619-23.512 14.787 0 5.011 3.965 9.437 10.026 12.108l2.452-9.062c.958-3.612 2.081-7.585 2.532-9.25.765-2.796 2.904-5.561 6.002-5.495 2.671.063 3.158 1.711 3.203 2.547.072 1.354-1.159 1.962-1.696 1.962-.837 0-1.527-.721-1.527-1.596 0-.874.688-1.672 1.527-1.672-.034-.417-.849-.745-1.507-.745-1.104.001-1.916 1.133-2.116 1.883l-1.594 6.004h5.022l-2.105 7.907h-2.983l1.84-6.919h-2.038l-4.162 15.512c3.192 1.02 6.805 1.597 10.633 1.597 12.986 0 23.509-6.62 23.509-14.783.005-8.166-10.519-14.785-23.506-14.785zm-9.994 11.473c-.69 3.125-1.66 4.334-6.656 4.256l-.976 3.65h-3.057l2.868-10.791h-1.309l.262-.99h5.967c2.182 0 3.392 1.688 2.901 3.875zm14.124 7.906h-6.329l4.317-6.917h-2.548l.262-.989h6.402l-4.387 6.918h2.547l-.264.988zm9.357-3.989l-.08.338h-5.025l-.387 1.446c-.227.836.037 1.518.576 1.518.537 0 1.023-.15 1.389-1.518l.182-.682h3.057c-.939 2.703-2.822 3.258-4.818 3.19-2.221-.076-3.471-1.953-2.896-4.293.869-3.537 2.939-4.296 5.182-4.296 2.074.001 3.375 1.672 2.82 4.297zm7.205-.891c-.793 0-1.68-.668-1.426-1.892-.238-.207-1.062 1.299-1.504 2.589.004.011-1.117 4.183-1.117 4.183h-2.98l1.838-6.918h-1.094l.264-.988h4.072l-.326 1.285c.67-1.078 1.611-1.513 2.271-1.513.822 0 1.492.73 1.492 1.626.005.898-.667 1.628-1.49 1.628zm-10.361-2.418c-.662-.038-1.164.685-1.387 1.521l-.281 1.063h1.965l.281-1.063c.221-.837.07-1.521-.578-1.521z" fill="#142A3E"/></svg>