<svg xmlns="http://www.w3.org/2000/svg" width="80" height="52.5"><g fill="#142A3E"><path d="M30.239 34.174c-2.667 4.303-7.413 7.181-12.846 7.181-8.34 0-15.104-6.759-15.104-15.106 0-8.339 6.763-15.101 15.104-15.101 5.265 0 9.896 2.695 12.6 6.776h2.676c-2.952-5.402-8.685-9.067-15.277-9.067-9.604-.001-17.392 7.786-17.392 17.391 0 9.61 7.786 17.396 17.392 17.396 6.751 0 12.589-3.849 15.473-9.47h-2.626zm-15.968-15.236s-1.395 8.752-1.649 10.991c-.254 2.236-1.903 1.438-1.903 1.438v1.774c4.059 1.145 4.692-5.579 4.692-5.579 1.648.132 6.975.386 7.357-4.871.382-5.253-8.497-3.753-8.497-3.753zm1.65 7.068l.513-4.657s4.431-1.5 4.303 1.343c-.125 2.843-4.816 3.314-4.816 3.314zm7.75-2.526l-1.538 9.797h2.028s-.324-8.151 4.468-8.709v-1.876s-1.646-.357-3.248 1.876v-1.085h-1.71v-.003z"/><polygon points="30.123,22.691 28.093,33.274 30.123,33.274 32.279,22.691"/><rect x="30.186" y="18.741" width="2.681" height="2.212"/><path d="M33.8 22.691h1.902v1.876s1.015-2.097 3.803-1.896c2.788.199 2.918 4.141 1.774 10.605h-2.789s3.041-8.71.127-8.71c-2.916 0-3.803 3.767-4.186 8.71h-2.151l1.52-10.585zm13.823-2.843l-.762 2.844h2.607v1.876h-2.986s-1.902 6.548 0 6.421l1.899-.132v1.904s-3.931 1.625-4.688-.707c-.762-2.336 1.267-7.488 1.267-7.488h-2.028v-1.876h2.536l.733-2.845 1.422.003z"/><path opacity=".7" enable-background="new" d="M51.172 18.052l-1.706 15.223h1.706s-.129-8.79 3.043-9.153c3.169-.361 2.406 2.944 1.521 9.153h2.033s2.787-10.522-2.156-10.616c-2.407-.039-3.929 1.907-3.929 1.907l1.139-6.514h-1.651z"/><path opacity=".7" enable-background="new" d="M60.085 23.48h2.37s-2.407 8.881.505 8.575c2.922-.308 3.932-4.288 4.185-8.575h1.779l-1.142 9.836h-1.647v-1.821s-2.155 1.782-3.552 1.782c-1.392 0-4.24-.307-2.498-9.797z"/><path opacity=".7" enable-background="new" d="M72.603 24.567l1.01-6.515h-2.283l-2.406 15.225h1.777l.636-2.038s.505 2.038 2.787 2.038c2.284 0 5.833-2.984 5.707-6.698-.127-3.709-4.295-6.019-7.228-2.012zm4.957 3.764c-.583 1.964-2.199 3.219-3.62 2.798-1.414-.421-2.087-2.354-1.502-4.319.583-1.965 2.2-3.217 3.617-2.796 1.418.416 2.091 2.353 1.505 4.317z"/></g></svg>