<svg xmlns="http://www.w3.org/2000/svg" width="156.605" height="50.305"><g fill="#142A3E"><path d="M.197 25.813c0-3.392 2.741-5.785 5.736-5.785h5.288l-2.197 3.594h-3.041c-2.794 0-3.045 4.286-.045 4.286 1.192 0 1.543-.499 2.292-1.797.402-.599 4.588-7.433 5.135-8.279.3-.499 1.25-2.392 3.147-3.24 1.745-.796 3.14-.75 3.987-.552 2.545.552 3.791 2.195 3.791 2.195l-2.189 3.442c-.451-1.895-2.098-2.193-2.749-2.193-1.795 0-2.246 1.049-2.79 1.846-.102.2-4.246 7.135-4.545 7.534-.944 1.642-2.498 4.634-6.133 4.634-2.745.004-5.687-2.292-5.687-5.685zm5.884 12.025h4.188s7.531-12.372 7.831-12.923c.354-.501.753-1.249 1.946-1.249 1.247 0 2.243.797 2.243 2.095 0 1.147-.747 2.24-2.243 2.24h-2.993l-2.195 3.497h5.192c2.842 0 5.734-2.042 5.734-5.487.05-4.494-3.493-5.941-5.686-5.941-2.246 0-3.942 1.25-4.842 2.696-.793 1.306-9.175 15.072-9.175 15.072zm32.507-10.077l1.444-.131c.066.583.225 1.056.48 1.435.253.366.638.67 1.168.904.526.224 1.12.34 1.781.34.586 0 1.101-.085 1.55-.263.45-.173.78-.413 1.002-.716.217-.3.333-.628.333-.991 0-.364-.111-.681-.324-.952-.212-.275-.56-.502-1.041-.684-.31-.121-1-.312-2.069-.564-1.065-.26-1.815-.498-2.239-.727-.555-.288-.969-.653-1.242-1.081-.268-.428-.406-.909-.406-1.445 0-.583.162-1.134.495-1.638.334-.514.819-.899 1.46-1.164.638-.261 1.345-.392 2.124-.392.865 0 1.622.134 2.279.415.657.276 1.165.683 1.516 1.225.354.533.547 1.146.568 1.827l-1.47.107c-.082-.729-.345-1.29-.801-1.659-.457-.376-1.131-.562-2.021-.562-.93 0-1.607.171-2.031.511-.421.344-.639.756-.639 1.23 0 .418.152.763.449 1.031.295.271 1.069.546 2.316.826 1.248.281 2.105.528 2.568.74.678.313 1.179.705 1.501 1.182.322.479.48 1.027.48 1.646s-.177 1.2-.53 1.751c-.355.548-.865.968-1.527 1.273-.659.299-1.4.451-2.231.451-1.05 0-1.931-.148-2.639-.456-.713-.301-1.268-.767-1.674-1.377-.402-.623-.614-1.322-.63-2.092zm16.636.643l1.4.188c-.151.964-.542 1.72-1.175 2.265-.632.544-1.405.819-2.325.819-1.152 0-2.077-.377-2.773-1.127-.699-.749-1.052-1.835-1.052-3.231 0-.909.153-1.7.454-2.378.299-.682.759-1.193 1.372-1.534.62-.34 1.279-.511 2.008-.511.912 0 1.661.231 2.239.692.581.464.955 1.114 1.117 1.969l-1.385.215c-.131-.565-.366-.988-.694-1.277-.34-.285-.746-.427-1.216-.427-.719 0-1.304.253-1.752.775-.453.513-.675 1.326-.675 2.438 0 1.131.212 1.95.646 2.461.439.513 1.001.776 1.699.776.556 0 1.025-.179 1.396-.52.376-.354.615-.877.716-1.593zm2.622 3.082v-11.601h1.425v4.164c.663-.772 1.507-1.157 2.518-1.157.618 0 1.163.124 1.618.37.46.245.79.582.989 1.019.199.433.295 1.062.295 1.884v5.33h-1.427v-5.331c0-.714-.155-1.227-.466-1.556-.303-.326-.741-.488-1.304-.488-.423 0-.823.11-1.194.331-.372.217-.64.516-.792.892-.161.374-.239.892-.239 1.55v4.6h-1.425l.002-.007zm14.769-2.708l1.468.188c-.229.863-.659 1.525-1.289 2.003-.628.473-1.433.712-2.408.712-1.229 0-2.204-.375-2.921-1.132-.723-.763-1.078-1.822-1.078-3.188 0-1.415.365-2.512 1.092-3.294.724-.781 1.67-1.168 2.832-1.168 1.123 0 2.042.381 2.75 1.145.715.768 1.071 1.845 1.071 3.231l-.006.378h-6.274c.053.922.319 1.626.788 2.122.467.488 1.052.73 1.751.73.525 0 .968-.129 1.343-.411.368-.278.661-.711.881-1.316zm-4.678-2.305h4.695c-.062-.706-.244-1.235-.541-1.587-.452-.546-1.043-.823-1.766-.823-.652 0-1.204.217-1.648.655-.446.44-.69 1.026-.74 1.755zm7.926 5.013v-8.402h1.276v1.274c.328-.596.632-.99.906-1.18.276-.189.585-.285.915-.285.479 0 .97.158 1.467.461l-.495 1.321c-.341-.205-.699-.311-1.043-.311-.311 0-.589.094-.836.284-.255.187-.423.449-.53.779-.161.508-.24 1.054-.24 1.659v4.403h-1.421l.001-.003zm5.416-9.964v-1.639h1.431v1.639h-1.431zm0 9.964v-8.402h1.431v8.402h-1.431zm3.6 0v-8.402h1.274v1.193c.615-.923 1.512-1.386 2.674-1.386.506 0 .971.092 1.396.272.423.182.741.421.95.717.207.293.364.645.444 1.054.047.261.081.725.081 1.383v5.168h-1.431v-5.111c0-.579-.049-1.015-.166-1.306-.108-.284-.304-.514-.586-.683-.286-.174-.618-.262-.997-.262-.606 0-1.122.194-1.572.583-.44.38-.658 1.11-.658 2.191v4.592h-1.41v-.003h.001zm8.75.697l1.392.203c.049.432.212.737.469.937.364.269.85.396 1.455.396.657 0 1.17-.127 1.522-.396.36-.268.603-.631.724-1.104.077-.29.111-.902.106-1.83-.622.734-1.397 1.105-2.327 1.105-1.159 0-2.052-.422-2.685-1.258-.625-.833-.943-1.834-.943-2.992 0-.8.142-1.54.436-2.22.287-.679.717-1.205 1.267-1.574.551-.37 1.199-.554 1.942-.554.992 0 1.812.403 2.456 1.203v-1.011h1.313v7.258c0 1.312-.136 2.242-.399 2.787-.272.549-.697.978-1.277 1.294-.577.314-1.284.478-2.129.478-1.005 0-1.819-.23-2.43-.68-.614-.46-.912-1.133-.892-2.042zm1.177-5.052c0 1.108.223 1.916.661 2.421.44.51.988.756 1.646.756.649 0 1.197-.246 1.646-.753.44-.506.661-1.293.661-2.372 0-1.031-.223-1.805-.683-2.326-.456-.524-1.006-.785-1.653-.785-.63 0-1.171.257-1.615.771-.44.514-.663 1.28-.663 2.288z"/><polygon points="102.351,28.001 102.351,26.576 106.726,26.576 106.726,28.001"/><path d="M108.486 31.486v-11.601h4.376c.771 0 1.36.039 1.764.111.576.094 1.048.276 1.44.544.376.265.693.641.93 1.12.234.48.346 1.006.346 1.582 0 .985-.311 1.822-.94 2.505-.632.682-1.764 1.03-3.404 1.03h-2.977v4.714h-1.533l-.002-.005zm1.536-6.088h2.998c.994 0 1.701-.184 2.111-.555.421-.37.619-.887.619-1.558 0-.485-.114-.901-.367-1.249-.244-.345-.565-.576-.965-.685-.264-.068-.732-.102-1.435-.102h-2.974v4.147l.013.002z"/><polygon points="119.084,31.486 119.084,19.885 120.51,19.885 120.51,31.486"/><path d="M122.187 27.283c0-1.557.435-2.709 1.301-3.458.72-.621 1.599-.935 2.642-.935 1.154 0 2.104.376 2.831 1.138.735.755 1.103 1.796 1.103 3.133 0 1.086-.162 1.931-.486 2.552-.328.615-.796 1.103-1.418 1.438-.613.347-1.302.519-2.029.519-1.176 0-2.127-.377-2.849-1.131-.73-.746-1.095-1.831-1.095-3.256zm1.469 0c0 1.079.235 1.884.702 2.417.475.538 1.056.805 1.771.805.703 0 1.301-.271 1.765-.805.466-.533.697-1.354.697-2.461 0-1.038-.228-1.831-.707-2.368-.47-.532-1.057-.8-1.764-.8-.709 0-1.306.268-1.77.8-.46.529-.694 1.336-.694 2.412zm13.59 4.203v-1.235c-.657.95-1.546 1.43-2.668 1.43-.496 0-.957-.098-1.396-.287-.42-.19-.743-.426-.95-.714-.206-.289-.359-.645-.44-1.056-.05-.287-.09-.726-.09-1.331v-5.208h1.431v4.659c0 .742.03 1.242.085 1.503.096.373.289.666.567.88.287.207.65.319 1.085.319.422 0 .824-.111 1.189-.327.379-.22.645-.522.799-.893.149-.375.23-.927.23-1.643v-4.5h1.423v8.402h-1.265v.001zm3.241.697l1.389.203c.052.432.218.737.476.937.36.269.849.396 1.447.396.665 0 1.171-.127 1.526-.396.361-.268.605-.631.728-1.104.079-.29.111-.902.106-1.83-.621.734-1.396 1.105-2.327 1.105-1.162 0-2.056-.422-2.682-1.258-.629-.833-.946-1.834-.946-2.992 0-.8.142-1.54.438-2.22.286-.679.707-1.205 1.266-1.574.551-.37 1.197-.554 1.939-.554.996 0 1.812.403 2.453 1.203v-1.011h1.314v7.258c0 1.312-.132 2.242-.399 2.787-.275.549-.692.978-1.269 1.294-.578.314-1.285.478-2.14.478-1.004 0-1.812-.23-2.419-.68-.618-.46-.914-1.133-.9-2.042zm1.184-5.052c0 1.108.218 1.916.656 2.421.438.51.986.756 1.647.756.647 0 1.197-.246 1.643-.753.447-.506.667-1.293.667-2.372 0-1.031-.222-1.805-.687-2.326-.451-.524-1.011-.785-1.648-.785s-1.169.257-1.616.771c-.441.514-.662 1.28-.662 2.288zm8.097 4.355v-11.601h1.424v4.164c.663-.772 1.508-1.157 2.518-1.157.616 0 1.167.124 1.622.37.451.245.783.582.981 1.019.198.433.292 1.062.292 1.884v5.33h-1.426v-5.331c0-.714-.152-1.227-.459-1.556-.305-.326-.749-.488-1.31-.488-.426 0-.819.11-1.194.331-.365.217-.638.516-.789.892-.159.374-.237.892-.237 1.55v4.6h-1.427v-.005h.005v-.002z"/></g></svg>