<svg xmlns="http://www.w3.org/2000/svg" width="80" height="20.943"><g fill="#152A3F"><path d="M5.268 8.454s.294.868-1.188 1.176c-1.483.31-3.95.104-3.894-.308.058-.409 1.211-4.5 2.552-3.886 1.341.614 2.671 1.483 3.029 2.608 0 0-1.89-.939-3.261.357-.001 0 2.747-.245 2.762.053zm1.393-1.356s.358-2.788-1.395-2.584c0 0 1.01-.793 1.751.485 0 0 .256-1.97 1.598-2.123 1.342-.152-4.922-.535-5.536 1.664-.178.539 3.275 2.633 3.582 2.558zm.717.001s-.356-3.25 1.241-3.94c.906-.332 1.625-.332 1.47.588-.155.922-.613 2.59-2.711 3.352zm3.17.842s-.716-.583 0-2.914c.716-2.329 2.48.345 2.48.345s1.1 1.11-.538 2.06c-1.636.944-1.942.509-1.942.509zm4.092.332s-.077-1.893-.946-.92c-.868.974-2.25 1.609-1.993 3.527.255 1.917 2.371 2.403 2.439 2.302.065-.103.883-.819.5-4.909zm-1.436 6.595s.584-.408 0-1.049c-.586-.639-3.093-3.5-2.324-.281.23.948 1.12 2.762 2.324 1.33zm-6.364-1.304s.356-1.125-.436-.535c-.793.586-3.323 2.938-2.71 3.322.614.385 4.364 2.659 8.115-.537.247-.256-3.266-3.709-4.104-2.838-.226.28 2.231 2.264 2.525 2.422 0 0-2.308-1.681-2.887-1.527-.58.154-1.485 1.971-1.403 2.328-.001-.001-.585-.819.9-2.635zm-3.765 1.998s-.735.588-1.783-1.381c-1.048-1.972-1.585-3.502-.409-3.453 1.177.051 4.397.075 4.551 1.173.153 1.102-2.359 3.661-2.359 3.661z"/><path d="M23.309 5.74l-1.547 1.365c-.543-.756-1.096-1.134-1.66-1.134-.274 0-.498.072-.672.22-.174.146-.262.312-.262.496s.062.357.187.521c.169.22.68.689 1.532 1.41.797.667 1.28 1.087 1.45 1.262.423.429.724.837.901 1.228.177.391.265.816.265 1.28 0 .899-.311 1.645-.934 2.229-.623.588-1.434.881-2.435.881-.782 0-1.463-.19-2.043-.574-.58-.383-1.077-.983-1.49-1.807l1.756-1.059c.528.971 1.136 1.455 1.823 1.455.359 0 .66-.105.904-.314.244-.207.366-.449.366-.723 0-.248-.092-.498-.276-.746-.185-.249-.591-.63-1.218-1.144-1.196-.975-1.968-1.727-2.317-2.257-.349-.529-.523-1.058-.523-1.585 0-.762.29-1.414.87-1.959.58-.545 1.296-.816 2.148-.816.548 0 1.069.127 1.565.381.496.255 1.032.718 1.61 1.39zm1.061 1.365h2.082l2.109 5.094 2.327-5.094h2.087l-5.084 11.088h-2.104l1.669-3.574-3.086-7.514zm9.765 0h2.037v.832c.462-.391.88-.66 1.255-.812.375-.151.759-.229 1.151-.229.805 0 1.487.28 2.049.844.473.478.708 1.184.708 2.119v5.365h-2.015v-3.556c0-.97-.043-1.612-.13-1.932-.087-.317-.238-.561-.454-.728-.216-.166-.482-.25-.8-.25-.412 0-.765.14-1.061.414-.296.275-.5.657-.614 1.145-.06.254-.089.803-.089 1.646v3.259h-2.037v-8.117zm15.162 0h2.036v8.119h-2.036v-.859c-.398.379-.797.65-1.195.818-.4.166-.834.25-1.302.25-1.048 0-1.954-.406-2.72-1.222-.766-.812-1.148-1.823-1.148-3.032 0-1.255.37-2.28 1.11-3.082.741-.802 1.64-1.201 2.698-1.201.486 0 .943.093 1.371.275.428.186.822.46 1.186.828v-.894zm-2.143 1.672c-.629 0-1.151.223-1.568.668-.416.444-.624 1.016-.624 1.712 0 .702.211 1.278.636 1.731.424.452.945.68 1.564.68.64 0 1.171-.223 1.592-.668s.633-1.029.633-1.751c0-.706-.212-1.278-.633-1.716-.421-.438-.954-.656-1.6-.656zm8.26-1.672v.895c.368-.368.766-.644 1.193-.828.428-.184.886-.275 1.373-.275 1.06 0 1.959.399 2.701 1.201.74.802 1.11 1.827 1.11 3.082 0 1.209-.383 2.221-1.147 3.032-.768.814-1.674 1.222-2.725 1.222-.468 0-.902-.084-1.306-.25-.403-.168-.804-.439-1.201-.818v3.828h-2.022v-11.089h2.024zm2.143 1.672c-.643 0-1.175.219-1.598.656-.423.437-.635 1.01-.635 1.716 0 .722.212 1.306.635 1.751s.955.668 1.598.668c.62 0 1.145-.228 1.569-.68.425-.453.638-1.029.638-1.731 0-.696-.209-1.268-.627-1.712-.416-.446-.946-.668-1.58-.668z" opacity=".8" enable-background="new"/><path d="M61.818 4.247h2.475c1.596 0 2.781.198 3.557.593.775.396 1.414 1.039 1.916 1.93s.754 1.93.754 3.118c0 .846-.142 1.622-.422 2.332-.281.709-.668 1.297-1.164 1.766-.494.467-1.029.791-1.604.969-.577.18-1.576.271-2.997.271h-2.514v-10.979h-.001zm2.075 2.015v6.925h.971c.955 0 1.646-.109 2.078-.328.431-.221.781-.588 1.056-1.105.272-.52.41-1.155.41-1.913 0-1.165-.325-2.068-.978-2.712-.588-.577-1.529-.865-2.828-.865l-.709-.002zm7.662.843h2.365l1.605 2.213 1.596-2.213h2.326l-2.756 3.819 3.115 4.3h-2.365l-1.93-2.664-1.923 2.664h-2.325l3.082-4.271-2.79-3.848z" enable-background="new"/></g></svg>