<?xml version="1.0" encoding="utf-8"?>
<!-- Generator: Adobe Illustrator 16.0.0, SVG Export Plug-In . SVG Version: 6.00 Build 0)  -->
<!DOCTYPE svg PUBLIC "-//W3C//DTD SVG 1.1//EN" "http://www.w3.org/Graphics/SVG/1.1/DTD/svg11.dtd">
<svg version="1.1" id="Layer_1" xmlns="http://www.w3.org/2000/svg" xmlns:xlink="http://www.w3.org/1999/xlink" x="0px" y="0px"
	 width="80px" height="80px" viewBox="0 0 80 80" enable-background="new 0 0 80 80" xml:space="preserve">
<g>
	<path fill-rule="evenodd" clip-rule="evenodd" fill="#3E6DB2" d="M37.93,42.664h1.266c0.133,0,0.225-0.031,0.248-0.127
		c0.02-0.07-0.014-0.154-0.065-0.186c-0.07-0.053-0.161-0.038-0.254-0.053c-0.102-0.019-0.202-0.08-0.202-0.207v-3.996l1.649,3.141
		c0.091,0.158,0.25,0.158,0.317,0.016l1.617-3.209v3.995c0,0.225-0.289,0.287-0.482,0.295c-0.117,0-0.186,0.135-0.154,0.209
		c0.025,0.074,0.09,0.117,0.199,0.117h1.77c0.127,0,0.16-0.043,0.188-0.111c0.025-0.07-0.031-0.215-0.135-0.215
		c-0.174,0-0.439-0.082-0.439-0.295l-0.012-4.42c0-0.084,0.008-0.258,0.066-0.353c0.045-0.074,0.131-0.133,0.371-0.144
		c0.174-0.017,0.25-0.325-0.055-0.325h-1.1c-0.086,0-0.137,0.042-0.16,0.084l-1.613,3.263l-1.78-3.263
		c-0.026-0.053-0.095-0.079-0.184-0.079h-1.027c-0.298,0-0.272,0.33-0.059,0.324c0.262-0.005,0.425,0.07,0.425,0.291l-0.003,4.691
		c0,0.154-0.186,0.191-0.392,0.217c-0.112,0.008-0.186,0.143-0.151,0.229C37.805,42.615,37.855,42.664,37.93,42.664L37.93,42.664z"
		/>
	<path fill-rule="evenodd" clip-rule="evenodd" fill="#3E6DB2" d="M9.099,45.127l-2.8-5.035h5.594L9.099,45.127L9.099,45.127z
		 M11.499,40.242H6.69l2.408,1.509L11.499,40.242L11.499,40.242z M11.561,40.352l-2.377,1.531v2.75L11.561,40.352L11.561,40.352z
		 M6.636,40.36l2.378,4.281l-0.002-2.75L6.636,40.36L6.636,40.36z"/>
	<path fill-rule="evenodd" clip-rule="evenodd" fill="#3E6DB2" d="M6.089,39.861L3.29,34.826h5.592L6.089,39.861L6.089,39.861z
		 M3.681,34.968l2.406,1.505l2.401-1.505H3.681L3.681,34.968z M6.17,36.619v2.754l2.377-4.282L6.17,36.619L6.17,36.619z
		 M3.626,35.093l2.379,4.282l-0.006-2.751L3.626,35.093L3.626,35.093z"/>
	<path fill-rule="evenodd" clip-rule="evenodd" fill="#3E6DB2" d="M3.292,45.174l2.8-5.034l2.795,5.034H3.292L3.292,45.174z
		 M3.681,45.031h4.807l-2.401-1.508L3.681,45.031L3.681,45.031z M6.17,43.385l2.377,1.531l-2.377-4.28V43.385L6.17,43.385z
		 M3.626,44.912l2.373-1.529l0.006-2.75L3.626,44.912L3.626,44.912z"/>
	<path fill-rule="evenodd" clip-rule="evenodd" fill="#3E6DB2" d="M9.099,34.873l2.794,5.032H6.299L9.099,34.873L9.099,34.873z
		 M6.692,39.764h4.806l-2.4-1.508L6.692,39.764L6.692,39.764z M11.561,39.652l-2.377-4.282v2.753L11.561,39.652L11.561,39.652z
		 M9.013,38.112l0.004-2.751l-2.379,4.282L9.013,38.112L9.013,38.112z"/>
	<path fill-rule="evenodd" clip-rule="evenodd" fill="#3E6DB2" d="M3.079,34.873l2.794,5.032H0.279L3.079,34.873L3.079,34.873z
		 M3.079,38.256L0.67,39.762h4.808L3.079,38.256L3.079,38.256z M0.615,39.646l2.372-1.53l0.007-2.751L0.615,39.646L0.615,39.646z
		 M3.159,35.371v2.75l2.377,1.531L3.159,35.371L3.159,35.371z"/>
	<path fill-rule="evenodd" clip-rule="evenodd" fill="#3E6DB2" d="M0.282,40.099h5.593l-2.792,5.034L0.282,40.099L0.282,40.099z
		 M0.67,40.242l2.408,1.509l2.4-1.509H0.67L0.67,40.242z M5.532,40.352l-2.379,1.531v2.75L5.532,40.352L5.532,40.352z M2.983,41.895
		l-2.376-1.53l2.38,4.28L2.983,41.895L2.983,41.895z"/>
	<path fill-rule="evenodd" clip-rule="evenodd" fill="#3E6DB2" d="M15.288,37.31c0.033-0.158,0.223-0.228,0.37-0.292
		c0.246-0.1,0.501-0.166,0.758-0.209c0.983-0.178,2.09-0.168,2.647,0.528c0.382,0.478,0.36,1.249-0.055,1.694
		c-0.214,0.223-0.657,0.419-0.853,0.451c0.181,0,0.365,0.069,0.531,0.134c0.165,0.061,0.443,0.264,0.643,0.488
		c0.42,0.489,0.323,1.284,0.004,1.825c-0.179,0.309-0.497,0.521-0.807,0.664c-0.521,0.24-1.126,0.225-1.695,0.172
		c-0.492-0.051-0.996-0.096-1.427-0.369c-0.083-0.062-0.18-0.174-0.144-0.281c0.047-0.132,0.217-0.132,0.288-0.164
		c0.074-0.035,0.092-0.09,0.092-0.152l0.017-4.105c0-0.066-0.004-0.111-0.035-0.111C15.469,37.582,15.256,37.465,15.288,37.31
		L15.288,37.31z M16.576,41.641c0,0.158,0.037,0.383,0.104,0.455c0.117,0.141,0.346,0.197,0.532,0.218
		c0.335,0.038,0.694-0.033,0.96-0.243c0.525-0.404,0.569-1.261,0.228-1.833c-0.131-0.229-0.353-0.383-0.603-0.462
		c-0.188-0.056-0.569-0.058-0.655-0.074c-0.137-0.022-0.229-0.187-0.164-0.308c0.08-0.14,0.265-0.12,0.418-0.134
		c0.272-0.033,0.557-0.106,0.746-0.303c0.238-0.228,0.312-0.588,0.258-0.903c-0.036-0.264-0.137-0.546-0.353-0.705
		c-0.282-0.207-0.729-0.245-1.069-0.117c-0.192,0.073-0.403,0.213-0.403,0.435V41.641L16.576,41.641z"/>
	<path fill-rule="evenodd" clip-rule="evenodd" fill="#3E6DB2" d="M45.609,42.465c-0.303,0.59-0.648,1.15-1.041,1.678
		c-0.021,0.037-0.053,0.107,0.043,0.107h0.627c0.068,0,0.1,0,0.143-0.121l1.92-4.664c0.076-0.198,0.172-0.213,0.354-0.235
		c0.096-0.01,0.131-0.251-0.08-0.251h-1.123c-0.252,0-0.178,0.247-0.068,0.251c0.129,0.006,0.225,0.013,0.289,0.027
		c0.127,0.033,0.16,0.181,0.111,0.284l-0.787,2.005l-0.877-2.039c-0.031-0.08-0.018-0.175,0.062-0.217
		c0.072-0.047,0.199-0.043,0.242-0.043c0.115-0.004,0.182-0.268-0.08-0.268h-1.387c-0.256,0-0.189,0.264-0.064,0.264
		c0.213,0,0.326,0.089,0.41,0.287L45.609,42.465L45.609,42.465z"/>
	<path fill-rule="evenodd" clip-rule="evenodd" fill="#3E6DB2" d="M67.359,41.583V39.22c0-0.085-0.006-0.186-0.084-0.233
		c-0.059-0.021-0.135,0.01-0.234,0.048l-0.764,0.283c-0.139,0.042-0.156,0.19-0.086,0.252c0.043,0.045,0.123,0.049,0.195,0.049
		c0.129,0,0.197,0.106,0.197,0.161l0.018,1.883c0,0.321,0.057,0.596,0.254,0.789c0.252,0.252,0.643,0.305,1.018,0.275
		c0.34-0.023,0.678-0.172,0.916-0.411l0.074,0.356h1.023c0.266,0,0.266-0.285,0.055-0.285c-0.139,0-0.246-0.074-0.336-0.145
		c-0.047-0.037-0.084-0.121-0.084-0.271v-2.794c0-0.121-0.062-0.174-0.115-0.19c-0.064-0.021-0.17,0.017-0.23,0.042l-0.754,0.313
		c-0.133,0.061-0.137,0.188-0.096,0.251c0.033,0.038,0.084,0.042,0.127,0.042c0.164-0.004,0.281,0.049,0.281,0.145l0.006,1.771
		C68.742,42.451,67.359,42.648,67.359,41.583L67.359,41.583z"/>
	<path fill-rule="evenodd" clip-rule="evenodd" fill="#3E6DB2" d="M61.633,40c-0.473-0.474-1.541-1.251-1.807-1.409
		c-0.26-0.162-0.408-0.512-0.334-0.812c0.049-0.197,0.18-0.357,0.346-0.451c0.234-0.129,0.584-0.119,0.77-0.059
		c0.451,0.146,0.814,0.464,1.061,0.848c0.061,0.091,0.219,0.027,0.256-0.077c0.025-0.066,0.025-0.15,0.025-0.208
		c-0.014-0.341-0.084-0.718-0.227-1.011c-0.027-0.063-0.09-0.164-0.182-0.164c-0.227-0.017-0.137,0.191-0.359,0.223
		c-0.047,0-0.139-0.021-0.213-0.036c-0.256-0.076-0.553-0.122-0.85-0.111c-0.379,0.015-0.771,0.115-1.062,0.342
		c-0.381,0.313-0.531,0.86-0.414,1.34c0.096,0.397,0.426,0.717,0.744,0.984c0.473,0.395,1.092,0.683,1.486,1.13
		c0.217,0.247,0.357,0.541,0.344,0.906c-0.008,0.24-0.131,0.485-0.328,0.645c-0.236,0.186-0.568,0.225-0.85,0.2
		c-0.307-0.015-0.615-0.175-0.85-0.386c-0.16-0.133-0.271-0.362-0.438-0.506c-0.094-0.068-0.238-0.101-0.322-0.01
		c-0.062,0.062-0.062,0.191-0.053,0.238l0.248,1.072c0.023,0.096,0.127,0.15,0.184,0.15c0.184,0,0.307-0.211,0.486-0.211
		c0.131,0,0.246,0.084,0.373,0.107c0.467,0.104,1.023,0.131,1.488-0.08c0.334-0.141,0.641-0.418,0.793-0.762
		C62.238,41.252,62.094,40.475,61.633,40L61.633,40z"/>
	<path fill-rule="evenodd" clip-rule="evenodd" fill="#3E6DB2" d="M75.652,41.654c0.24-0.668,0.244-1.477-0.176-2.044
		c-0.244-0.335-0.652-0.615-1.061-0.621c-0.23,0-0.486,0.017-0.699,0.127c-0.109,0.064-0.258,0.208-0.188,0.331
		c0.031,0.047,0.059,0.073,0.145,0.073c0.109,0.005,0.209-0.083,0.312-0.102c0.195-0.038,0.402-0.014,0.566,0.113
		c0.342,0.27,0.389,0.887,0.393,1.183c0,0.045-0.004,0.894-0.248,1.252c-0.201,0.332-0.664,0.463-1.029,0.32
		c-0.182-0.068-0.342-0.261-0.342-0.445v-4.924c0-0.086-0.021-0.16-0.09-0.19c-0.053-0.027-0.123-0.018-0.252,0.042l-0.73,0.318
		c-0.139,0.065-0.191,0.159-0.121,0.25c0.047,0.051,0.143,0.068,0.211,0.068c0.113,0,0.219,0.113,0.219,0.212v4.374
		c0,0.125-0.246,0.073-0.344,0.132c-0.086,0.051-0.1,0.176-0.035,0.244c0.035,0.035,0.098,0.08,0.156,0.1
		c0.52,0.25,1.125,0.34,1.721,0.307c0.375-0.025,0.781-0.125,1.066-0.357C75.367,42.219,75.547,41.959,75.652,41.654L75.652,41.654z
		"/>
	<path fill-rule="evenodd" clip-rule="evenodd" fill="#3E6DB2" d="M78.322,38.986c-0.229,0-0.488,0.016-0.701,0.126
		c-0.105,0.064-0.254,0.208-0.184,0.331c0.029,0.047,0.057,0.063,0.141,0.074c0.09,0.011,0.215-0.091,0.316-0.102
		c0.195-0.03,0.4-0.017,0.564,0.113c0.34,0.269,0.383,0.887,0.395,1.183c0,0.044-0.012,0.888-0.25,1.253
		c-0.201,0.332-0.662,0.463-1.031,0.32c-0.18-0.07-0.342-0.262-0.342-0.445v-4.926c0-0.084-0.02-0.158-0.088-0.195
		c-0.053-0.022-0.121-0.011-0.256,0.048l-0.727,0.318c-0.141,0.065-0.191,0.16-0.121,0.25c0.045,0.053,0.143,0.069,0.213,0.069
		c0.109,0,0.217,0.11,0.217,0.21v4.375c0,0.119-0.244,0.072-0.352,0.13c-0.078,0.051-0.09,0.178-0.027,0.244
		c0.033,0.037,0.098,0.08,0.156,0.102c0.52,0.25,1.125,0.342,1.721,0.307c0.377-0.025,0.781-0.127,1.068-0.359
		c0.238-0.197,0.418-0.461,0.523-0.76c0.234-0.668,0.246-1.475-0.174-2.05C79.141,39.272,78.646,38.99,78.322,38.986L78.322,38.986z
		"/>
	<path fill-rule="evenodd" clip-rule="evenodd" fill="#3E6DB2" d="M66.096,44.102c-0.082-0.072-0.225-0.004-0.326-0.062
		l-0.049-0.049c-0.027-0.025-0.045-0.076-0.055-0.111l0.006-3.256c0-0.525-0.01-1.131,0.111-1.657
		c0.012-0.068-0.08-0.131-0.143-0.15c-0.076-0.015-0.154,0.027-0.221,0.071c-0.105,0.069-0.178,0.186-0.225,0.319
		c-0.713-0.343-1.66-0.357-2.227,0.222c-0.291,0.299-0.463,0.751-0.5,1.133c-0.064,0.53-0.01,1.089,0.256,1.54
		c0.176,0.287,0.445,0.521,0.781,0.615c0.264,0.082,0.578,0.07,0.838,0c0.201-0.053,0.449-0.207,0.377-0.391
		c-0.059-0.162-0.285-0.055-0.43-0.012c-0.219,0.064-0.447,0.012-0.59-0.107c-0.178-0.148-0.281-0.396-0.328-0.59
		c-0.129-0.515-0.137-1.151,0.1-1.667c0.09-0.195,0.229-0.371,0.42-0.467c0.174-0.084,0.383-0.079,0.562-0.021
		c0.145,0.043,0.229,0.085,0.32,0.188c0.084,0.111,0.133,0.278,0.133,0.384v3.802c0,0.078-0.039,0.172-0.109,0.219
		c-0.119,0.062-0.295-0.025-0.396,0.062c-0.059,0.049-0.078,0.133-0.035,0.191c0.035,0.064,0.115,0.064,0.184,0.078h1.303
		c0.105-0.014,0.248,0,0.291-0.094C66.178,44.23,66.145,44.15,66.096,44.102L66.096,44.102z"/>
	<path fill-rule="evenodd" clip-rule="evenodd" fill="#3E6DB2" d="M49.154,42.277c-0.264-0.082-0.492-0.334-0.594-0.555
		c-0.227-0.512-0.232-1.11-0.049-1.64c0.082-0.261,0.227-0.521,0.48-0.632c0.17-0.075,0.361-0.097,0.537-0.029
		c0.197,0.085,0.357,0.266,0.389,0.478c0.02,0.138-0.061,0.337-0.139,0.394l-0.967,0.633c-0.096,0.062-0.141,0.224-0.068,0.318
		c0.062,0.086,0.219,0.075,0.307,0.021l1.383-0.839c0.174-0.102,0.338-0.291,0.318-0.511c-0.037-0.324-0.309-0.588-0.592-0.732
		c-0.588-0.311-1.375-0.254-1.912,0.144c-0.615,0.46-0.801,1.316-0.641,2.061c0.115,0.562,0.531,1.076,1.088,1.277
		c0.404,0.135,0.891,0.131,1.268,0.012c0.156-0.043,0.307-0.115,0.426-0.191c0.17-0.1,0.342-0.227,0.424-0.381
		c0.039-0.07,0.066-0.144,0.057-0.225c-0.023-0.089-0.139-0.147-0.229-0.12c-0.172,0.052-0.414,0.345-0.635,0.444
		C49.76,42.324,49.424,42.361,49.154,42.277L49.154,42.277z"/>
	<path fill-rule="evenodd" clip-rule="evenodd" fill="#3E6DB2" d="M54.795,40.185c-0.061-0.047-0.219-0.154-0.273-0.335
		c-0.035-0.131,0.043-0.291,0.162-0.381c0.221-0.159,0.545-0.068,0.764,0.09c0.168,0.133,0.307,0.312,0.408,0.473
		c0.053,0.095,0.26-0.034,0.242-0.124l-0.156-0.764c-0.016-0.079-0.064-0.126-0.133-0.132c-0.135-0.021-0.219,0.132-0.25,0.117
		c-0.395-0.132-0.875-0.202-1.281-0.021c-0.188,0.069-0.365,0.203-0.461,0.396c-0.148,0.257-0.141,0.594,0,0.848
		c0.078,0.153,0.18,0.261,0.303,0.352c0.33,0.249,0.707,0.497,1.066,0.727c0.24,0.152,0.35,0.51,0.188,0.736
		c-0.113,0.154-0.32,0.209-0.508,0.209c-0.316-0.025-0.592-0.225-0.781-0.475c-0.104-0.119-0.193-0.301-0.348-0.252
		c-0.068,0.023-0.15,0.096-0.117,0.252l0.139,0.793c0.012,0.064,0.062,0.102,0.1,0.102c0.123,0,0.129-0.07,0.219-0.107
		c0.076-0.031,0.139-0.049,0.219-0.043c0.105,0.018,0.186,0.074,0.291,0.09c0.572,0.119,1.291-0.041,1.557-0.584
		c0.152-0.312,0.133-0.727-0.07-1.014C55.6,40.462,55.412,40.714,54.795,40.185L54.795,40.185z"/>
	<path fill-rule="evenodd" clip-rule="evenodd" fill="#3E6DB2" d="M25.019,41.902c-0.102-0.123-0.192-0.303-0.345-0.254
		c-0.069,0.02-0.144,0.094-0.117,0.254l0.136,0.785c0.012,0.062,0.064,0.105,0.102,0.105c0.122,0,0.129-0.068,0.219-0.111
		c0.074-0.031,0.14-0.041,0.218-0.037c0.106,0.012,0.187,0.07,0.292,0.09c0.572,0.119,1.291-0.047,1.555-0.584
		c0.154-0.319,0.132-0.727-0.07-1.014c-0.438-0.626-0.643-0.433-1.278-0.952c-0.06-0.046-0.217-0.158-0.271-0.333
		c-0.039-0.134,0.041-0.294,0.159-0.382c0.22-0.161,0.551-0.07,0.764,0.088c0.171,0.133,0.308,0.308,0.408,0.476
		c0.055,0.095,0.261-0.037,0.246-0.125l-0.159-0.769c-0.018-0.075-0.063-0.123-0.133-0.131c-0.133-0.019-0.217,0.131-0.25,0.121
		c-0.388-0.133-0.876-0.2-1.282-0.027c-0.496,0.216-0.74,0.722-0.462,1.25c0.081,0.148,0.183,0.261,0.303,0.352
		c0.33,0.246,0.706,0.492,1.068,0.726c0.243,0.153,0.35,0.508,0.186,0.737c-0.113,0.154-0.319,0.208-0.511,0.202
		C25.488,42.349,25.209,42.15,25.019,41.902L25.019,41.902z"/>
	<path fill-rule="evenodd" clip-rule="evenodd" fill="#3E6DB2" d="M21.628,39.011l-0.134,0.046c-0.212,0.08-0.356,0.28-0.451,0.483
		v-0.445c0-0.107-0.077-0.126-0.228-0.069l-0.871,0.349c-0.122,0.048-0.133,0.172-0.074,0.229c0.042,0.053,0.126,0.058,0.19,0.058
		c0.097,0,0.219,0.012,0.219,0.131v2.417c0,0.172-0.25,0.097-0.382,0.172c-0.085,0.041-0.096,0.164-0.05,0.229
		c0.023,0.021,0.056,0.053,0.125,0.053h1.409c0.082,0,0.149-0.053,0.167-0.123c0.007-0.037-0.01-0.098-0.053-0.139
		c-0.106-0.089-0.281-0.006-0.376-0.104c-0.032-0.039-0.06-0.066-0.06-0.113v-1.827c0-0.274,0.117-0.579,0.364-0.706
		c0.062-0.036,0.146-0.047,0.22-0.042c0.143,0.011,0.289,0.06,0.412,0.161c0.035,0.037,0.083,0.024,0.114-0.022l0.267-0.368
		c0.118-0.174-0.185-0.339-0.377-0.381C21.912,38.969,21.771,38.979,21.628,39.011L21.628,39.011z"/>
	<path fill-rule="evenodd" clip-rule="evenodd" fill="#3E6DB2" d="M52.775,39.011l-0.133,0.046c-0.215,0.08-0.357,0.28-0.449,0.483
		v-0.445c0-0.107-0.084-0.126-0.23-0.069l-0.871,0.349c-0.123,0.048-0.135,0.172-0.074,0.229c0.043,0.053,0.127,0.058,0.189,0.058
		c0.098,0,0.219,0.012,0.219,0.131v2.417c0,0.172-0.25,0.097-0.383,0.172c-0.086,0.041-0.094,0.164-0.047,0.229
		c0.021,0.021,0.051,0.053,0.119,0.053h1.41c0.086,0,0.154-0.053,0.17-0.123c0.006-0.037-0.012-0.098-0.053-0.139
		c-0.105-0.089-0.281-0.006-0.379-0.104c-0.029-0.039-0.057-0.066-0.057-0.113v-1.827c0-0.274,0.115-0.579,0.359-0.706
		c0.064-0.036,0.15-0.047,0.223-0.042c0.145,0.011,0.289,0.06,0.412,0.161c0.037,0.037,0.084,0.024,0.115-0.022l0.264-0.368
		c0.119-0.174-0.186-0.339-0.375-0.381C53.062,38.969,52.916,38.979,52.775,39.011L52.775,39.011z"/>
	<path fill-rule="evenodd" clip-rule="evenodd" fill="#3E6DB2" d="M29.381,42.521c0.053-0.043,0.103-0.158,0.077-0.241
		c-0.019-0.065-0.077-0.1-0.159-0.11c-0.174-0.027-0.261,0.117-0.461,0.11c-0.124-0.002-0.212-0.11-0.212-0.263v-2.444
		c0-0.079,0.064-0.155,0.132-0.155H29.3c0.159,0,0.159-0.312,0-0.312h-0.673v-1.396c0-0.127-0.082-0.16-0.166-0.118l-0.553,0.307
		c-0.049,0.029-0.068,0.061-0.068,0.125v1.083h-0.478c-0.15,0-0.15,0.312,0,0.312h0.361c0.079,0,0.117,0.043,0.117,0.155v2.444
		c0,0.263,0.153,0.584,0.345,0.668c0.234,0.119,0.546,0.107,0.77,0.043C29.146,42.676,29.286,42.605,29.381,42.521L29.381,42.521z"
		/>
	<path fill-rule="evenodd" clip-rule="evenodd" fill="#3E6DB2" d="M37.404,41.211c0.047,0,0.089-0.049,0.089-0.092v-0.413
		c0-0.047-0.042-0.09-0.089-0.09h-1.883c-0.041,0-0.088,0.043-0.088,0.09v0.413c0,0.043,0.047,0.092,0.088,0.092H37.404
		L37.404,41.211z"/>
	<path fill-rule="evenodd" clip-rule="evenodd" fill="#3E6DB2" d="M33.566,42.664H35c0.111,0,0.161-0.197,0.055-0.271
		c-0.069-0.047-0.204-0.031-0.295-0.061c-0.075-0.023-0.13-0.1-0.13-0.162v-5.333c0-0.09-0.082-0.148-0.252-0.085l-0.802,0.33
		c-0.136,0.052-0.174,0.193-0.117,0.255c0.028,0.026,0.071,0.042,0.107,0.042c0.213,0,0.293,0.036,0.293,0.243v4.547
		c0,0.08-0.051,0.139-0.107,0.162c-0.111,0.051-0.293-0.014-0.345,0.119C33.371,42.547,33.44,42.664,33.566,42.664L33.566,42.664z"
		/>
	<path fill-rule="evenodd" clip-rule="evenodd" fill="#3E6DB2" d="M24.263,42.381c-0.142-0.008-0.206-0.024-0.252-0.067
		c-0.049-0.035-0.102-0.104-0.102-0.171v-3.03c0-0.095-0.123-0.166-0.239-0.111l-0.904,0.371c-0.083,0.041-0.115,0.153-0.052,0.217
		c0.039,0.032,0.084,0.049,0.122,0.049c0.121,0.004,0.292,0.031,0.292,0.205v2.299c0,0.072-0.12,0.189-0.214,0.199
		c-0.117,0.015-0.232,0.059-0.236,0.152c-0.008,0.092,0.056,0.16,0.158,0.16h1.381c0.101,0,0.144-0.059,0.158-0.105
		C24.375,42.49,24.354,42.389,24.263,42.381L24.263,42.381z"/>
	<path fill-rule="evenodd" clip-rule="evenodd" fill="#3E6DB2" d="M71.529,42.313c-0.047-0.035-0.1-0.104-0.1-0.171v-3.03
		c0-0.095-0.121-0.166-0.238-0.111l-0.902,0.371c-0.086,0.041-0.119,0.153-0.055,0.217c0.037,0.032,0.086,0.049,0.123,0.049
		c0.119,0.004,0.291,0.031,0.291,0.205v2.299c0,0.082-0.121,0.189-0.211,0.199c-0.117,0.015-0.234,0.059-0.24,0.152
		c-0.004,0.092,0.057,0.16,0.16,0.16h1.381c0.1,0,0.143-0.059,0.158-0.105c0-0.059-0.02-0.16-0.111-0.168
		C71.643,42.375,71.576,42.356,71.529,42.313L71.529,42.313z"/>
	<path fill-rule="evenodd" clip-rule="evenodd" fill="#3E6DB2" d="M70.998,37.071c-0.271,0-0.494,0.223-0.494,0.489
		c0,0.277,0.223,0.5,0.494,0.5s0.488-0.224,0.488-0.5C71.486,37.294,71.27,37.071,70.998,37.071L70.998,37.071z"/>
	<path fill-rule="evenodd" clip-rule="evenodd" fill="#3E6DB2" d="M23.972,37.565c0-0.271-0.223-0.49-0.489-0.49
		c-0.275,0-0.5,0.219-0.5,0.49c0,0.27,0.225,0.493,0.5,0.493C23.749,38.059,23.972,37.835,23.972,37.565L23.972,37.565z"/>
	<path fill-rule="evenodd" clip-rule="evenodd" fill="#3E6DB2" d="M32.2,42.602c-0.523,0.254-1.373,0.246-1.945-0.062
		c-0.501-0.27-0.917-1.185-0.855-1.828c0.084-0.886,0.463-1.353,1.003-1.57c0.686-0.274,1.414-0.187,1.851,0.037
		c0.534,0.28,0.896,0.831,0.914,1.475C33.233,41.32,32.897,42.262,32.2,42.602L32.2,42.602z M30.54,39.751
		c-0.357,0.476-0.41,1.534-0.084,2.145c0.367,0.691,1.249,0.637,1.627,0.02c0.323-0.529,0.369-1.534-0.014-2.117
		C31.706,39.249,30.998,39.165,30.54,39.751L30.54,39.751z"/>
</g>
<g>
</g>
<g>
</g>
<g>
</g>
<g>
</g>
<g>
</g>
<g>
</g>
</svg>
