<?xml version="1.0" encoding="utf-8"?>
<!-- Generator: Adobe Illustrator 16.0.0, SVG Export Plug-In . SVG Version: 6.00 Build 0)  -->
<!DOCTYPE svg PUBLIC "-//W3C//DTD SVG 1.1//EN" "http://www.w3.org/Graphics/SVG/1.1/DTD/svg11.dtd">
<svg version="1.1" id="Layer_1" xmlns="http://www.w3.org/2000/svg" xmlns:xlink="http://www.w3.org/1999/xlink" x="0px" y="0px"
	 width="147.32px" height="50.304px" viewBox="21.59 -36.982 147.32 50.304" enable-background="new 21.59 -36.982 147.32 50.304"
	 xml:space="preserve">
<g>
	<g>
		<path fill="#142A3E" d="M102.137-11.791l-6.4-11.507h12.787L102.137-11.791L102.137-11.791z M107.619-22.954h-10.99l5.504,3.448
			L107.619-22.954L107.619-22.954z M107.762-22.704l-5.43,3.5v6.285L107.762-22.704L107.762-22.704z M96.506-22.687l5.438,9.782
			l-0.004-6.285L96.506-22.687L96.506-22.687z"/>
		<path fill="#142A3E" d="M95.256-23.827l-6.396-11.505h12.779L95.256-23.827L95.256-23.827z M89.756-35.009l5.496,3.439
			l5.486-3.439H89.756L89.756-35.009z M95.441-31.234v6.293l5.432-9.787L95.441-31.234L95.441-31.234z M89.627-34.722l5.438,9.786
			l-0.014-6.287L89.627-34.722L89.627-34.722z"/>
		<path fill="#142A3E" d="M88.863-11.684l6.4-11.505l6.389,11.505H88.863L88.863-11.684z M89.756-12.01h10.986l-5.49-3.448
			L89.756-12.01L89.756-12.01z M95.441-15.773l5.432,3.5l-5.432-9.782V-15.773L95.441-15.773z M89.627-12.281l5.424-3.495
			l0.014-6.285L89.627-12.281L89.627-12.281z"/>
		<path fill="#142A3E" d="M102.137-35.225l6.387,11.498H95.736L102.137-35.225L102.137-35.225z M96.635-24.048h10.982l-5.482-3.446
			L96.635-24.048L96.635-24.048z M107.762-24.304l-5.43-9.784v6.291L107.762-24.304L107.762-24.304z M101.941-27.824l0.008-6.287
			l-5.436,9.786L101.941-27.824L101.941-27.824z"/>
		<path fill="#142A3E" d="M88.377-35.225l6.385,11.498H81.979L88.377-35.225L88.377-35.225z M88.377-27.494l-5.506,3.441h10.99
			L88.377-27.494L88.377-27.494z M82.746-24.318l5.422-3.495l0.016-6.287L82.746-24.318L82.746-24.318z M88.561-34.087v6.285
			l5.432,3.498L88.561-34.087L88.561-34.087z"/>
		<path fill="#142A3E" d="M81.986-23.282h12.781l-6.381,11.505L81.986-23.282L81.986-23.282z M82.871-22.954l5.504,3.448
			l5.484-3.448H82.871L82.871-22.954z M93.984-22.704l-5.438,3.5v6.285L93.984-22.704L93.984-22.704z M88.158-19.178l-5.432-3.491
			l5.441,9.775L88.158-19.178L88.158-19.178z"/>
	</g>
	<g>
		<path fill="#142A3E" d="M73.422,7.749h2.893c0.307,0,0.516-0.07,0.566-0.289c0.047-0.162-0.031-0.354-0.146-0.43
			c-0.16-0.124-0.365-0.086-0.58-0.124c-0.232-0.047-0.463-0.183-0.463-0.474v-9.13l3.77,7.18c0.209,0.361,0.572,0.361,0.725,0.04
			l3.688-7.333v9.13c0,0.518-0.66,0.656-1.096,0.674c-0.266,0-0.43,0.309-0.35,0.477c0.055,0.17,0.205,0.268,0.453,0.268h4.047
			c0.291,0,0.365-0.098,0.43-0.254c0.049-0.154-0.07-0.491-0.309-0.491c-0.406,0-1.004-0.188-1.004-0.674L86.018-3.783
			c0-0.192,0.02-0.591,0.145-0.81c0.102-0.167,0.307-0.303,0.848-0.328c0.396-0.04,0.57-0.743-0.127-0.743h-2.52
			c-0.197,0-0.312,0.096-0.367,0.192l-3.678,7.459L76.25-5.472c-0.057-0.12-0.217-0.181-0.422-0.181h-2.346
			c-0.68,0-0.617,0.754-0.137,0.741c0.602-0.011,0.975,0.158,0.975,0.665L74.312,6.47c0,0.349-0.426,0.433-0.898,0.5
			c-0.256,0.019-0.424,0.326-0.344,0.523C73.137,7.637,73.248,7.749,73.422,7.749L73.422,7.749z"/>
		<path fill="#142A3E" d="M21.676-4.488c0.076-0.361,0.51-0.522,0.846-0.667c0.562-0.229,1.145-0.379,1.731-0.479
			c2.246-0.406,4.776-0.384,6.05,1.207c0.873,1.094,0.82,2.854-0.129,3.873c-0.488,0.509-1.498,0.957-1.948,1.028
			c0.413,0,0.834,0.156,1.213,0.309c0.377,0.139,1.01,0.603,1.47,1.113c0.96,1.116,0.737,2.936,0.009,4.172
			c-0.408,0.711-1.136,1.192-1.845,1.514C27.882,8.132,26.5,8.1,25.2,7.977c-1.125-0.119-2.276-0.221-3.26-0.842
			c-0.19-0.143-0.412-0.399-0.333-0.639c0.11-0.308,0.499-0.308,0.658-0.375c0.169-0.08,0.213-0.209,0.213-0.348l0.039-9.38
			c0-0.149-0.01-0.252-0.08-0.252C22.09-3.865,21.602-4.133,21.676-4.488L21.676-4.488z M24.62,5.41
			c0,0.361,0.085,0.877,0.237,1.039c0.265,0.324,0.79,0.451,1.214,0.503c0.765,0.085,1.586-0.071,2.193-0.558
			c1.201-0.918,1.301-2.879,0.523-4.189c-0.299-0.525-0.807-0.877-1.378-1.059c-0.43-0.129-1.298-0.133-1.494-0.167
			c-0.316-0.052-0.523-0.431-0.375-0.705C25.723-0.047,26.146,0,26.496-0.033c0.619-0.074,1.273-0.241,1.705-0.692
			c0.541-0.522,0.713-1.343,0.589-2.064c-0.081-0.603-0.312-1.248-0.809-1.611c-0.642-0.473-1.666-0.558-2.44-0.266
			C25.102-4.501,24.62-4.18,24.62-3.671V5.41L24.62,5.41z"/>
		<path fill="#142A3E" d="M90.969,7.294c-0.691,1.348-1.48,2.629-2.379,3.836c-0.047,0.084-0.121,0.244,0.098,0.244h1.436
			c0.154,0,0.227,0,0.326-0.277l4.389-10.659c0.172-0.451,0.393-0.486,0.809-0.535c0.225-0.025,0.307-0.574-0.176-0.574h-2.566
			c-0.576,0-0.414,0.564-0.154,0.574c0.299,0.013,0.52,0.031,0.66,0.06c0.291,0.075,0.363,0.415,0.252,0.649l-1.799,4.582
			l-2.004-4.66C89.791,0.35,89.812,0.134,90,0.037c0.162-0.106,0.455-0.098,0.553-0.098c0.262-0.009,0.416-0.613-0.182-0.613h-3.172
			c-0.584,0-0.432,0.604-0.145,0.604c0.486,0,0.744,0.203,0.938,0.653L90.969,7.294L90.969,7.294z"/>
		<path fill="#142A3E" d="M140.676,5.278v-5.4c0-0.193-0.014-0.424-0.193-0.531c-0.141-0.049-0.307,0.025-0.533,0.111L138.203,0.1
			c-0.318,0.097-0.355,0.434-0.197,0.576c0.098,0.105,0.281,0.114,0.447,0.114c0.293,0,0.443,0.239,0.443,0.366l0.047,4.305
			c0,0.732,0.131,1.361,0.58,1.803c0.576,0.576,1.471,0.697,2.328,0.623c0.777-0.047,1.551-0.393,2.094-0.935l0.17,0.808h2.332
			c0.615,0,0.615-0.653,0.133-0.653c-0.326,0-0.562-0.164-0.768-0.33c-0.107-0.084-0.191-0.276-0.191-0.62v-6.383
			c0-0.276-0.143-0.397-0.264-0.433c-0.146-0.049-0.389,0.04-0.527,0.096l-1.723,0.715c-0.303,0.141-0.312,0.43-0.219,0.572
			c0.076,0.088,0.191,0.097,0.291,0.097c0.375-0.009,0.643,0.111,0.643,0.333l0.014,4.046
			C143.838,7.262,140.676,7.712,140.676,5.278L140.676,5.278z"/>
		<path fill="#142A3E" d="M127.592,1.66c-1.082-1.084-3.521-2.859-4.131-3.22c-0.596-0.371-0.932-1.169-0.764-1.854
			c0.113-0.449,0.412-0.815,0.791-1.029c0.535-0.294,1.334-0.272,1.76-0.136c1.031,0.333,1.859,1.06,2.428,1.939
			c0.141,0.208,0.506,0.06,0.586-0.176c0.057-0.152,0.057-0.344,0.057-0.476c-0.039-0.779-0.193-1.641-0.525-2.312
			c-0.061-0.143-0.207-0.373-0.418-0.373c-0.52-0.042-0.314,0.433-0.818,0.509c-0.107,0-0.318-0.047-0.486-0.083
			c-0.588-0.172-1.266-0.279-1.943-0.252c-0.869,0.036-1.762,0.261-2.426,0.783c-0.875,0.712-1.215,1.964-0.947,3.062
			c0.219,0.907,0.973,1.638,1.701,2.248c1.08,0.903,2.494,1.562,3.393,2.582c0.494,0.562,0.812,1.236,0.785,2.071
			c-0.018,0.543-0.299,1.103-0.746,1.475c-0.539,0.427-1.299,0.514-1.945,0.453c-0.705-0.033-1.406-0.396-1.947-0.879
			c-0.365-0.311-0.617-0.826-0.998-1.158c-0.215-0.154-0.541-0.234-0.732-0.027c-0.141,0.144-0.141,0.432-0.125,0.545l0.566,2.444
			c0.049,0.227,0.291,0.342,0.424,0.342c0.424,0,0.705-0.482,1.107-0.482c0.299,0,0.562,0.191,0.852,0.244
			c1.068,0.236,2.336,0.299,3.398-0.184c0.762-0.326,1.467-0.956,1.816-1.743C128.975,4.522,128.646,2.742,127.592,1.66
			L127.592,1.66z"/>
		<path fill="#142A3E" d="M159.627,5.44c0.549-1.527,0.559-3.382-0.4-4.672c-0.559-0.766-1.49-1.404-2.426-1.417
			c-0.525,0-1.105,0.038-1.6,0.29c-0.242,0.143-0.588,0.475-0.43,0.754c0.07,0.109,0.139,0.168,0.334,0.168
			c0.25,0.011,0.479-0.189,0.715-0.234c0.445-0.088,0.92-0.033,1.295,0.259c0.781,0.616,0.887,2.026,0.896,2.702
			c0,0.104-0.01,2.045-0.566,2.861c-0.453,0.76-1.512,1.061-2.346,0.732c-0.422-0.156-0.781-0.598-0.781-1.018v-11.25
			c0-0.197-0.047-0.366-0.213-0.433c-0.119-0.061-0.281-0.042-0.574,0.096l-1.668,0.726c-0.322,0.147-0.432,0.364-0.277,0.571
			c0.115,0.116,0.334,0.154,0.484,0.154c0.258,0,0.504,0.259,0.504,0.487v9.996c0,0.285-0.562,0.165-0.789,0.301
			c-0.199,0.117-0.23,0.402-0.076,0.559c0.076,0.078,0.225,0.184,0.35,0.227c1.191,0.572,2.572,0.777,3.939,0.703
			c0.857-0.051,1.781-0.285,2.432-0.809C158.979,6.731,159.389,6.137,159.627,5.44L159.627,5.44z"/>
		<path fill="#142A3E" d="M165.732-0.658c-0.525,0-1.117,0.037-1.604,0.287c-0.238,0.148-0.58,0.477-0.422,0.757
			c0.061,0.109,0.133,0.144,0.324,0.167c0.205,0.027,0.49-0.207,0.721-0.231c0.439-0.069,0.908-0.04,1.285,0.257
			c0.777,0.615,0.875,2.028,0.906,2.705c0,0.1-0.033,2.031-0.572,2.863c-0.459,0.759-1.512,1.057-2.355,0.732
			c-0.41-0.161-0.781-0.604-0.781-1.019V-5.394c0-0.192-0.049-0.361-0.201-0.446c-0.127-0.049-0.277-0.024-0.584,0.109l-1.668,0.728
			c-0.328,0.147-0.438,0.366-0.277,0.571c0.104,0.121,0.334,0.156,0.486,0.156c0.244,0,0.496,0.25,0.496,0.48v9.999
			c0,0.272-0.551,0.165-0.803,0.299c-0.18,0.116-0.213,0.406-0.062,0.554c0.076,0.084,0.229,0.184,0.357,0.237
			c1.189,0.57,2.57,0.783,3.932,0.705c0.861-0.053,1.785-0.291,2.441-0.816c0.539-0.452,0.955-1.054,1.189-1.741
			c0.533-1.527,0.561-3.375-0.398-4.684C167.604-0.004,166.471-0.647,165.732-0.658L165.732-0.658z"/>
		<path fill="#142A3E" d="M137.791,11.034c-0.188-0.16-0.516-0.012-0.744-0.143l-0.111-0.111c-0.062-0.059-0.104-0.174-0.129-0.254
			l0.014-7.442c0-1.201-0.021-2.584,0.256-3.787c0.025-0.154-0.184-0.299-0.328-0.342c-0.176-0.035-0.354,0.061-0.512,0.161
			c-0.238,0.158-0.408,0.429-0.52,0.729c-1.629-0.783-3.787-0.816-5.092,0.507c-0.664,0.685-1.057,1.716-1.143,2.591
			c-0.145,1.205-0.021,2.486,0.588,3.516c0.4,0.656,1.016,1.192,1.783,1.403c0.604,0.188,1.32,0.162,1.914,0
			c0.459-0.119,1.027-0.473,0.861-0.892c-0.133-0.37-0.648-0.132-0.982-0.031c-0.502,0.144-1.021,0.031-1.35-0.241
			c-0.406-0.337-0.641-0.906-0.748-1.348c-0.297-1.186-0.314-2.631,0.229-3.81c0.207-0.446,0.523-0.849,0.961-1.069
			c0.398-0.191,0.875-0.181,1.283-0.049c0.334,0.098,0.525,0.193,0.73,0.431c0.191,0.252,0.303,0.634,0.303,0.88v8.688
			c0,0.178-0.088,0.393-0.246,0.502c-0.273,0.143-0.676-0.057-0.904,0.143c-0.137,0.111-0.18,0.303-0.076,0.432
			c0.076,0.145,0.26,0.145,0.422,0.176h2.984c0.238-0.031,0.566,0,0.664-0.215C137.979,11.327,137.898,11.143,137.791,11.034
			L137.791,11.034z"/>
		<path fill="#142A3E" d="M99.072,6.864c-0.605-0.188-1.125-0.764-1.359-1.271c-0.521-1.174-0.529-2.538-0.111-3.751
			c0.182-0.599,0.52-1.192,1.096-1.445c0.389-0.172,0.818-0.225,1.221-0.066c0.451,0.194,0.814,0.609,0.895,1.094
			c0.047,0.316-0.141,0.77-0.322,0.901l-2.211,1.446c-0.221,0.143-0.322,0.518-0.148,0.728c0.141,0.196,0.5,0.165,0.701,0.047
			l3.166-1.919c0.396-0.234,0.771-0.666,0.721-1.168c-0.084-0.74-0.711-1.344-1.352-1.674c-1.352-0.709-3.143-0.58-4.371,0.333
			C95.59,1.17,95.16,3.12,95.525,4.83c0.264,1.285,1.215,2.458,2.486,2.917c0.924,0.309,2.043,0.299,2.904,0.027
			c0.357-0.1,0.707-0.26,0.98-0.434c0.387-0.23,0.779-0.522,0.967-0.871c0.09-0.156,0.146-0.333,0.133-0.518
			c-0.051-0.203-0.32-0.335-0.525-0.274c-0.396,0.123-0.945,0.792-1.455,1.016C100.459,6.973,99.688,7.055,99.072,6.864
			L99.072,6.864z"/>
		<path fill="#142A3E" d="M111.963,2.082c-0.141-0.109-0.5-0.35-0.623-0.768c-0.08-0.299,0.1-0.665,0.371-0.871
			c0.504-0.361,1.246-0.153,1.752,0.206c0.385,0.306,0.703,0.714,0.926,1.085c0.127,0.217,0.602-0.078,0.555-0.283l-0.357-1.748
			c-0.037-0.181-0.143-0.288-0.305-0.304c-0.309-0.047-0.502,0.304-0.57,0.269c-0.904-0.302-2-0.463-2.928-0.047
			c-0.432,0.156-0.828,0.463-1.055,0.903c-0.334,0.587-0.32,1.356,0,1.939c0.18,0.349,0.418,0.596,0.699,0.806
			c0.754,0.568,1.615,1.136,2.43,1.662c0.549,0.346,0.807,1.168,0.43,1.682c-0.256,0.348-0.729,0.477-1.16,0.477
			c-0.725-0.053-1.357-0.518-1.787-1.089c-0.236-0.268-0.438-0.689-0.797-0.575c-0.152,0.049-0.34,0.223-0.266,0.575l0.318,1.812
			c0.031,0.143,0.143,0.236,0.232,0.236c0.281,0,0.297-0.156,0.504-0.24c0.17-0.066,0.316-0.113,0.5-0.098
			c0.238,0.045,0.43,0.166,0.664,0.205c1.309,0.271,2.951-0.094,3.562-1.334c0.344-0.715,0.307-1.666-0.156-2.319
			C113.805,2.716,113.373,3.292,111.963,2.082L111.963,2.082z"/>
		<path fill="#142A3E" d="M43.914,6.006c-0.232-0.281-0.438-0.691-0.789-0.58c-0.154,0.047-0.328,0.217-0.264,0.58L43.172,7.8
			c0.027,0.141,0.143,0.238,0.232,0.238c0.279,0,0.297-0.152,0.504-0.25c0.166-0.07,0.32-0.094,0.498-0.084
			c0.24,0.029,0.428,0.154,0.666,0.205c1.309,0.273,2.951-0.105,3.555-1.334c0.352-0.727,0.301-1.666-0.16-2.322
			c-1-1.432-1.469-0.989-2.918-2.176c-0.141-0.105-0.496-0.359-0.619-0.762c-0.09-0.306,0.094-0.672,0.363-0.873
			c0.504-0.367,1.258-0.158,1.746,0.201c0.393,0.306,0.707,0.707,0.932,1.092c0.129,0.217,0.598-0.085,0.562-0.286L48.17-0.312
			c-0.041-0.17-0.143-0.281-0.305-0.299c-0.303-0.045-0.494,0.299-0.57,0.276c-0.887-0.304-2.002-0.458-2.93-0.062
			c-1.133,0.495-1.689,1.653-1.057,2.856c0.186,0.34,0.42,0.596,0.695,0.809c0.752,0.562,1.611,1.117,2.438,1.66
			c0.557,0.348,0.803,1.162,0.428,1.683c-0.258,0.347-0.729,0.476-1.17,0.462C44.986,7.028,44.35,6.573,43.914,6.006L43.914,6.006z"
			/>
		<path fill="#142A3E" d="M36.165-0.6l-0.306,0.104c-0.484,0.184-0.812,0.641-1.031,1.105v-1.018c0-0.244-0.176-0.288-0.521-0.156
			l-1.991,0.799c-0.277,0.109-0.304,0.393-0.168,0.524c0.096,0.122,0.287,0.134,0.434,0.134c0.222,0,0.501,0.027,0.501,0.299v5.523
			c0,0.393-0.571,0.224-0.874,0.393c-0.193,0.094-0.221,0.375-0.113,0.526c0.05,0.047,0.128,0.123,0.285,0.123h3.218
			c0.188,0,0.341-0.123,0.381-0.281c0.02-0.086-0.021-0.227-0.12-0.321C35.619,6.949,35.216,7.142,35,6.916
			c-0.073-0.089-0.137-0.146-0.137-0.254V2.477c0-0.625,0.264-1.322,0.829-1.613c0.142-0.08,0.333-0.107,0.505-0.096
			c0.327,0.027,0.661,0.139,0.942,0.368c0.077,0.083,0.189,0.054,0.258-0.049l0.612-0.841c0.271-0.398-0.425-0.775-0.861-0.871
			C36.814-0.696,36.492-0.674,36.165-0.6L36.165-0.6z"/>
		<path fill="#142A3E" d="M107.346-0.6l-0.303,0.104c-0.498,0.184-0.816,0.641-1.027,1.105v-1.018c0-0.244-0.191-0.288-0.525-0.156
			l-1.988,0.799c-0.281,0.109-0.311,0.393-0.17,0.524c0.1,0.122,0.291,0.134,0.432,0.134c0.225,0,0.502,0.027,0.502,0.299v5.523
			c0,0.393-0.57,0.224-0.877,0.393c-0.197,0.094-0.215,0.375-0.107,0.526c0.047,0.047,0.117,0.123,0.273,0.123h3.219
			c0.197,0,0.354-0.123,0.391-0.281c0.014-0.086-0.027-0.227-0.121-0.321c-0.24-0.205-0.645-0.013-0.867-0.238
			c-0.066-0.089-0.137-0.146-0.137-0.254V2.477c0-0.625,0.258-1.322,0.816-1.613c0.145-0.08,0.34-0.107,0.514-0.096
			c0.334,0.027,0.662,0.139,0.943,0.368c0.078,0.083,0.191,0.054,0.256-0.049l0.609-0.841c0.27-0.398-0.43-0.775-0.857-0.871
			C108.002-0.696,107.67-0.674,107.346-0.6L107.346-0.6z"/>
		<path fill="#142A3E" d="M53.883,7.421c0.123-0.098,0.238-0.362,0.176-0.553c-0.043-0.145-0.176-0.23-0.363-0.248
			c-0.396-0.061-0.596,0.268-1.053,0.248c-0.283-0.004-0.484-0.248-0.484-0.601V0.686c0-0.182,0.146-0.355,0.303-0.355h1.238
			c0.361,0,0.361-0.712,0-0.712H52.16v-3.191c0-0.29-0.188-0.366-0.379-0.27L50.518-3.14c-0.113,0.064-0.156,0.141-0.156,0.286
			v2.476H49.27c-0.344,0-0.344,0.711,0,0.711h0.824c0.18,0,0.266,0.099,0.266,0.355v5.579c0,0.607,0.35,1.335,0.791,1.529
			c0.531,0.27,1.248,0.242,1.76,0.098C53.346,7.776,53.666,7.612,53.883,7.421L53.883,7.421z"/>
		<path fill="#142A3E" d="M72.219,4.428c0.107,0,0.203-0.111,0.203-0.21V3.274c0-0.106-0.096-0.205-0.203-0.205h-4.303
			c-0.094,0-0.201,0.099-0.201,0.205v0.944c0,0.099,0.107,0.21,0.201,0.21H72.219L72.219,4.428z"/>
		<path fill="#142A3E" d="M63.447,7.749h3.277c0.254,0,0.369-0.451,0.129-0.618c-0.158-0.109-0.467-0.072-0.676-0.141
			c-0.17-0.052-0.299-0.23-0.299-0.371V-5.568c0-0.206-0.188-0.337-0.576-0.194l-1.832,0.754c-0.311,0.118-0.398,0.44-0.268,0.583
			c0.064,0.058,0.162,0.096,0.244,0.096c0.488,0,0.67,0.083,0.67,0.556V6.617c0,0.184-0.117,0.321-0.244,0.371
			c-0.252,0.115-0.67-0.036-0.789,0.272C63.002,7.481,63.16,7.749,63.447,7.749L63.447,7.749z"/>
		<path fill="#142A3E" d="M42.189,7.102c-0.326-0.018-0.471-0.051-0.578-0.149c-0.113-0.076-0.232-0.239-0.232-0.394v-6.925
			c0-0.216-0.281-0.38-0.547-0.252l-2.064,0.846c-0.189,0.094-0.264,0.349-0.122,0.495c0.09,0.074,0.192,0.111,0.279,0.111
			c0.277,0.012,0.667,0.072,0.667,0.469v5.256c0,0.164-0.274,0.432-0.488,0.453c-0.268,0.039-0.527,0.137-0.537,0.348
			c-0.021,0.211,0.128,0.365,0.358,0.365h3.157c0.232,0,0.332-0.139,0.361-0.24C42.443,7.352,42.395,7.119,42.189,7.102
			L42.189,7.102z"/>
		<path fill="#142A3E" d="M150.207,6.944c-0.109-0.08-0.23-0.239-0.23-0.391v-6.928c0-0.219-0.275-0.379-0.543-0.252l-2.061,0.848
			c-0.197,0.094-0.273,0.348-0.127,0.496c0.084,0.073,0.197,0.111,0.281,0.111c0.271,0.009,0.664,0.071,0.664,0.469v5.26
			c0,0.186-0.275,0.429-0.482,0.449c-0.266,0.037-0.533,0.141-0.547,0.348c-0.01,0.209,0.131,0.359,0.365,0.359h3.158
			c0.227,0,0.324-0.137,0.359-0.238c0-0.137-0.047-0.362-0.254-0.385C150.469,7.088,150.314,7.041,150.207,6.944L150.207,6.944z"/>
		<path fill="#142A3E" d="M148.992-5.035c-0.617,0-1.129,0.511-1.129,1.118c0,0.632,0.512,1.143,1.129,1.143
			c0.619,0,1.115-0.513,1.115-1.143C150.107-4.524,149.611-5.035,148.992-5.035L148.992-5.035z"/>
		<path fill="#142A3E" d="M41.523-3.906c0-0.621-0.512-1.118-1.117-1.118c-0.629,0-1.144,0.5-1.144,1.118
			c0,0.616,0.515,1.125,1.144,1.125C41.012-2.779,41.523-3.287,41.523-3.906L41.523-3.906z"/>
		<path fill="#142A3E" d="M60.326,7.606c-1.195,0.58-3.139,0.561-4.445-0.143c-1.145-0.619-2.096-2.709-1.953-4.178
			c0.193-2.024,1.061-3.094,2.295-3.589c1.566-0.622,3.23-0.427,4.229,0.085c1.221,0.641,2.047,1.898,2.09,3.372
			C62.686,4.676,61.918,6.829,60.326,7.606L60.326,7.606z M56.531,1.092c-0.812,1.088-0.936,3.506-0.191,4.904
			c0.84,1.577,2.855,1.459,3.719,0.047c0.738-1.207,0.844-3.506-0.033-4.838C59.197-0.056,57.578-0.248,56.531,1.092L56.531,1.092z"
			/>
	</g>
</g>
</svg>
