<?xml version="1.0" encoding="utf-8"?>
<!-- Generator: Adobe Illustrator 16.0.0, SVG Export Plug-In . SVG Version: 6.00 Build 0)  -->
<!DOCTYPE svg PUBLIC "-//W3C//DTD SVG 1.1//EN" "http://www.w3.org/Graphics/SVG/1.1/DTD/svg11.dtd">
<svg version="1.1" id="Layer_1" xmlns="http://www.w3.org/2000/svg" xmlns:xlink="http://www.w3.org/1999/xlink" x="0px" y="0px"
	 width="80px" height="80px" viewBox="0 0 80 80" enable-background="new 0 0 80 80" xml:space="preserve">
<g>
	<path fill="#3E6DB2" d="M38.915,34.654c-1.544-0.132,1.411-6.492,1.013-7.053c-0.398-0.561-4.372,0.561-5.471,0.693
		c-1.099,0.134-1.021-3.179-1.551-3.666c-0.53-0.487-4.107,4.991-5.264,5.918c-1.157,0.927-2.156-0.397-0.928-3.577
		c1.228-3.18,2.217-6.493,1.749-7.537c-0.468-1.043-2.182,0.779-3.546,1.31c-1.496-0.265-3.538-6.36-4.639-6.534
		c-1.1-0.174-2.344,6.137-3.79,6.269c-1.446,0.133-3.06-1.722-4.474-1.044c-1.415,0.678,3.402,10.717,2.278,11.379
		c-1.125,0.662-4.308-3.842-5.236-4.734c-0.928-0.891-1.457-1.891-1.854,0c-0.397,1.892-0.928,2.349-2.385,2.084
		c-1.457-0.266-5.035-1.855-4.107,0.927c2.12,5.565,1.325,5.565-0.53,5.565c-1.855,0,11.289,9.541,11.289,9.541v16.693
		c0,0-0.159,5.035,3.388,4.903c4.739,0,4.403-3.711,5.38-3.711c0.976,0,1.673,3.711,5.131,3.711c3.459,0,4.02-5.301,4.02-5.301
		V44.195c0,0,4.844-3.711,7.676-6.096C39.896,35.714,40.458,34.787,38.915,34.654z M20.136,28.015c2.853,0,5.166,2.314,5.166,5.167
		c0,2.854-2.313,5.167-5.166,5.167c-2.854,0-5.167-2.313-5.167-5.167C14.97,30.329,17.283,28.015,20.136,28.015z M34.96,36.377
		l-7.755,6.756c0,0,0.004,16.43,0,17.49c-0.005,1.06-0.394,3.312-2.655,3.312c-2.261,0-3.047-2.65-3.047-2.65V55.06
		c0,0,0.274-4.62-1.224-4.62c-1.498,0-1.571,2.234-1.571,2.234v8.348c0,0-0.063,2.915-2.681,2.915c-3.498,0-2.73-4.107-2.73-4.107
		V43.002c0,0-4.902-3.975-7.419-6.095c-2.518-2.12-2.252-3.312-1.59-4.504c0.663-1.192,2.121-2.518,6.096,0.779
		C19.657,41.248,19.982,40,19.982,40c2.016-0.154,4.563-2.231,4.563-2.231s4.352-3.875,6.022-5.167
		c1.67-1.292,3.895-2.286,4.944-0.1C36.562,34.688,34.96,36.377,34.96,36.377z"/>
	<g>
		<path fill="#3E6DB2" d="M45.476,38.533c-0.269-0.121-0.841-0.381-1.552-0.381c-1.447,0-1.949,1.491-1.949,2.704
			c0,1.786,1.083,2.565,2.21,2.565c0.571,0,1.057-0.19,1.36-0.303v0.685c-0.304,0.112-0.832,0.303-1.577,0.303
			c-2.158,0-2.878-1.759-2.878-3.241c0-0.858,0.252-1.854,0.78-2.461c0.633-0.728,1.534-0.875,2.071-0.875
			c0.521,0,1.031,0.096,1.534,0.243V38.533z"/>
		<path fill="#3E6DB2" d="M48.844,41.177v-0.399c0-0.312,0-0.901-0.937-0.901c-0.728,0-1.23,0.269-1.499,0.408v-0.711
			c0.373-0.139,0.884-0.321,1.655-0.321c1.274,0,1.612,0.512,1.612,1.552v1.915c0,0.355,0,0.72,0.425,0.72
			c0.078,0,0.182-0.026,0.26-0.043l0.078,0.494c-0.243,0.077-0.425,0.139-0.633,0.139c-0.615,0-0.745-0.391-0.832-0.633
			c-0.243,0.199-0.763,0.633-1.517,0.633c-0.78,0-1.447-0.485-1.447-1.257c0-1.127,1.179-1.595,2.313-1.595H48.844z M48.592,41.696
			c-0.346,0-1.725,0-1.725,0.928c0,0.277,0.156,0.736,0.815,0.736c0.294,0,0.693-0.121,1.161-0.503v-1.161H48.592z"/>
		<path fill="#3E6DB2" d="M50.989,39.356h0.832l-0.052,0.858h0.052c0.468-0.78,1.136-0.962,1.56-0.962
			c0.355,0,0.789,0.13,1.023,0.442c0.217,0.294,0.285,0.52,0.285,1.109v3.146h-0.832v-2.921c0-0.364,0-0.988-0.728-0.988
			c-0.373,0-0.771,0.19-1.309,0.901v3.008h-0.832V39.356z"/>
		<path fill="#3E6DB2" d="M58.404,41.177v-0.399c0-0.312,0-0.901-0.937-0.901c-0.728,0-1.23,0.269-1.499,0.408v-0.711
			c0.373-0.139,0.884-0.321,1.655-0.321c1.274,0,1.612,0.512,1.612,1.552v1.915c0,0.355,0,0.72,0.425,0.72
			c0.078,0,0.182-0.026,0.26-0.043l0.078,0.494c-0.243,0.077-0.425,0.139-0.633,0.139c-0.615,0-0.745-0.391-0.832-0.633
			c-0.243,0.199-0.763,0.633-1.517,0.633c-0.78,0-1.447-0.485-1.447-1.257c0-1.127,1.179-1.595,2.313-1.595H58.404z M58.152,41.696
			c-0.346,0-1.725,0-1.725,0.928c0,0.277,0.156,0.736,0.815,0.736c0.294,0,0.693-0.121,1.161-0.503v-1.161H58.152z"/>
		<path fill="#3E6DB2" d="M63.557,43.092h-0.052c-0.164,0.26-0.606,0.962-1.508,0.962c-1.118,0-1.682-0.962-1.682-2.253
			c0-1.717,0.928-2.549,1.933-2.549c0.746,0,1.075,0.399,1.257,0.624h0.052l-0.052-0.624v-1.984h0.832v6.683h-0.832L63.557,43.092z
			 M63.505,40.5c-0.528-0.563-0.953-0.624-1.144-0.624c-0.312,0-0.572,0.156-0.746,0.338c-0.32,0.338-0.416,0.893-0.416,1.508
			c0,0.312,0,1.62,0.971,1.62c0.087,0,0.711,0,1.335-0.884V40.5z"/>
		<path fill="#3E6DB2" d="M66.006,39.98h-1.672v-0.624h2.504v4.594h-0.832V39.98z M65.902,37.268h1.04v1.04h-1.04V37.268z"/>
		<path fill="#3E6DB2" d="M70.147,41.177v-0.399c0-0.312,0-0.901-0.937-0.901c-0.728,0-1.23,0.269-1.499,0.408v-0.711
			c0.373-0.139,0.884-0.321,1.655-0.321c1.274,0,1.612,0.512,1.612,1.552v1.915c0,0.355,0,0.72,0.425,0.72
			c0.078,0,0.182-0.026,0.26-0.043l0.078,0.494c-0.243,0.077-0.425,0.139-0.633,0.139c-0.615,0-0.745-0.391-0.832-0.633
			c-0.242,0.199-0.763,0.633-1.517,0.633c-0.78,0-1.447-0.485-1.447-1.257c0-1.127,1.179-1.595,2.313-1.595H70.147z M69.896,41.696
			c-0.348,0-1.726,0-1.726,0.928c0,0.277,0.156,0.736,0.815,0.736c0.294,0,0.693-0.121,1.161-0.503v-1.161H69.896z"/>
		<path fill="#3E6DB2" d="M72.293,39.356h0.832l-0.052,0.858h0.052c0.468-0.78,1.135-0.962,1.56-0.962
			c0.355,0,0.789,0.13,1.023,0.442c0.216,0.294,0.286,0.52,0.286,1.109v3.146h-0.832v-2.921c0-0.364,0-0.988-0.729-0.988
			c-0.373,0-0.771,0.19-1.309,0.901v3.008h-0.832V39.356z"/>
		<path fill="#3E6DB2" d="M41.547,47.741h1.614c0.651,0,1.987,0,1.987,1.526c0,0.509-0.175,1.113-0.597,1.424
			c-0.389,0.277-0.851,0.5-1.685,0.5h-0.557v2.298h-0.764V47.741z M42.311,50.619h0.477c0.62,0,0.922-0.127,1.145-0.31
			c0.247-0.199,0.406-0.645,0.406-1.05c0-0.946-0.906-0.946-1.265-0.946h-0.763V50.619z"/>
		<path fill="#3E6DB2" d="M48.169,50.945V50.58c0-0.287,0-0.827-0.858-0.827c-0.668,0-1.129,0.246-1.375,0.374v-0.652
			c0.342-0.127,0.811-0.294,1.519-0.294c1.168,0,1.479,0.469,1.479,1.423v1.757c0,0.326,0,0.66,0.39,0.66
			c0.071,0,0.167-0.024,0.238-0.04l0.071,0.453c-0.223,0.071-0.39,0.127-0.58,0.127c-0.564,0-0.684-0.357-0.764-0.58
			c-0.223,0.183-0.699,0.58-1.391,0.58c-0.716,0-1.328-0.445-1.328-1.152c0-1.033,1.081-1.463,2.123-1.463H48.169z M47.938,51.422
			c-0.317,0-1.582,0-1.582,0.851c0,0.255,0.144,0.676,0.747,0.676c0.271,0,0.637-0.111,1.065-0.461v-1.065H47.938z"/>
		<path fill="#3E6DB2" d="M53.663,51.581h-2.862c0.016,0.238,0.032,0.612,0.311,0.946c0.381,0.469,1.089,0.485,1.231,0.485
			c0.096,0,0.612,0,1.344-0.295v0.604c-0.334,0.111-0.787,0.263-1.446,0.263c-0.764,0-1.28-0.191-1.638-0.517
			c-0.525-0.485-0.62-1.225-0.62-1.638c0-1.161,0.723-2.25,1.979-2.25c1.613,0,1.701,1.375,1.701,2.154V51.581z M52.852,51.009
			c0.009-0.326,0.017-1.256-0.945-1.256c-0.47,0-1.002,0.318-1.081,1.256H52.852z"/>
		<path fill="#3E6DB2" d="M57.287,52.702h-0.048c-0.15,0.238-0.556,0.883-1.383,0.883c-1.025,0-1.542-0.883-1.542-2.067
			c0-1.574,0.851-2.337,1.772-2.337c0.684,0,0.986,0.365,1.152,0.572h0.048l-0.048-0.572v-1.82h0.764v6.129h-0.764L57.287,52.702z
			 M57.239,50.325c-0.484-0.517-0.874-0.572-1.049-0.572c-0.286,0-0.524,0.143-0.684,0.31c-0.294,0.311-0.382,0.819-0.382,1.384
			c0,0.286,0,1.486,0.891,1.486c0.079,0,0.651,0,1.224-0.811V50.325z"/>
		<path fill="#3E6DB2" d="M60.412,49.849h-1.534v-0.573h2.297v4.214h-0.763V49.849z M60.316,47.36h0.954v0.953h-0.954V47.36z"/>
		<path fill="#3E6DB2" d="M65.165,50.945V50.58c0-0.287,0-0.827-0.858-0.827c-0.668,0-1.129,0.246-1.375,0.374v-0.652
			c0.342-0.127,0.811-0.294,1.519-0.294c1.168,0,1.479,0.469,1.479,1.423v1.757c0,0.326,0,0.66,0.39,0.66
			c0.071,0,0.167-0.024,0.238-0.04l0.071,0.453c-0.223,0.071-0.39,0.127-0.58,0.127c-0.564,0-0.684-0.357-0.764-0.58
			c-0.223,0.183-0.699,0.58-1.391,0.58c-0.716,0-1.328-0.445-1.328-1.152c0-1.033,1.081-1.463,2.123-1.463H65.165z M64.935,51.422
			c-0.317,0-1.582,0-1.582,0.851c0,0.255,0.144,0.676,0.747,0.676c0.271,0,0.637-0.111,1.065-0.461v-1.065H64.935z"/>
		<path fill="#3E6DB2" d="M66.796,49.943h-1.05v-0.572h1.05v-0.906h0.763v0.906h1.868v0.572h-1.868v2.163
			c0,0.413,0.023,0.564,0.175,0.684c0.238,0.198,0.62,0.223,0.827,0.223c0.317,0,0.636-0.04,0.946-0.111v0.588
			c-0.564,0.096-0.994,0.096-1.09,0.096c-1.423,0-1.621-0.525-1.621-1.606V49.943z"/>
		<path fill="#3E6DB2" d="M70.508,49.275h0.764l-0.048,0.787h0.048c0.572-0.866,1.264-0.882,1.565-0.882
			c0.342,0,0.589,0.056,0.779,0.095v1.201h-0.572v-0.604c-0.104-0.023-0.183-0.04-0.326-0.04c-0.778,0-1.271,0.668-1.446,0.914
			v2.743h-0.764V49.275z"/>
		<path fill="#3E6DB2" d="M74.705,49.849h-1.534v-0.573h2.297v4.214h-0.763V49.849z M74.609,47.36h0.954v0.953h-0.954V47.36z"/>
		<path fill="#3E6DB2" d="M79.904,50.023c-0.302-0.111-0.755-0.271-1.279-0.271c-1.042,0-1.479,0.755-1.479,1.63
			c0,1.01,0.58,1.63,1.582,1.63c0.556,0,1.033-0.176,1.248-0.263v0.604c-0.278,0.095-0.676,0.23-1.352,0.23
			c-0.906,0-1.407-0.278-1.726-0.604c-0.469-0.477-0.564-1.137-0.564-1.598c0-1.105,0.572-2.202,2.218-2.202
			c0.557,0,0.986,0.095,1.352,0.198V50.023z"/>
		<path fill="#3E6DB2" d="M41.293,62.146c0.35,0.159,1.01,0.453,1.741,0.453c0.651,0,1.192-0.357,1.192-1.009
			c0-0.462-0.39-0.74-0.684-0.898l-1.113-0.589c-0.708-0.373-1.098-0.771-1.098-1.471c0-0.477,0.207-0.898,0.549-1.16
			c0.215-0.167,0.533-0.334,1.209-0.334c0.651,0,1.145,0.135,1.486,0.238v0.66c-0.263-0.104-0.835-0.326-1.495-0.326
			c-0.413,0-1.033,0.135-1.033,0.811c0,0.517,0.549,0.803,0.771,0.914l1.041,0.541c0.628,0.326,1.129,0.708,1.129,1.503
			c0,0.572-0.278,1.12-0.818,1.423c-0.366,0.198-0.835,0.271-1.232,0.271c-0.62,0-1.192-0.151-1.646-0.278V62.146z"/>
		<path fill="#3E6DB2" d="M45.848,60.923c0-1.146,0.564-2.202,1.987-2.202c1.463,0,1.987,1.112,1.987,2.202
			c0,1.121-0.548,2.202-1.987,2.202C46.356,63.125,45.848,61.996,45.848,60.923z M49.012,60.923c0-0.835-0.31-1.63-1.177-1.63
			c-0.866,0-1.176,0.795-1.176,1.63c0,0.811,0.294,1.63,1.176,1.63C48.733,62.553,49.012,61.702,49.012,60.923z"/>
		<path fill="#3E6DB2" d="M54.434,59.563c-0.302-0.111-0.755-0.271-1.279-0.271c-1.042,0-1.479,0.755-1.479,1.63
			c0,1.01,0.58,1.63,1.582,1.63c0.556,0,1.033-0.176,1.248-0.263v0.604c-0.278,0.095-0.676,0.23-1.352,0.23
			c-0.906,0-1.407-0.278-1.726-0.604c-0.469-0.477-0.564-1.137-0.564-1.598c0-1.105,0.572-2.202,2.218-2.202
			c0.557,0,0.986,0.095,1.352,0.198V59.563z"/>
		<path fill="#3E6DB2" d="M55.069,59.389h-1.534v-0.573h2.297v4.214h-0.763V59.389z M54.974,56.9h0.954v0.953h-0.954V56.9z"/>
		<path fill="#3E6DB2" d="M60.61,61.121h-2.862c0.016,0.238,0.032,0.612,0.311,0.946c0.381,0.469,1.089,0.485,1.231,0.485
			c0.096,0,0.612,0,1.344-0.295v0.604c-0.334,0.111-0.787,0.263-1.446,0.263c-0.764,0-1.28-0.191-1.638-0.517
			c-0.525-0.485-0.62-1.225-0.62-1.638c0-1.161,0.723-2.25,1.979-2.25c1.613,0,1.701,1.375,1.701,2.154V61.121z M59.799,60.549
			c0.009-0.326,0.017-1.256-0.945-1.256c-0.47,0-1.002,0.318-1.081,1.256H59.799z"/>
		<path fill="#3E6DB2" d="M62.726,59.483h-1.05v-0.572h1.05v-0.906h0.763v0.906h1.868v0.572h-1.868v2.163
			c0,0.413,0.023,0.564,0.175,0.684c0.238,0.198,0.62,0.223,0.827,0.223c0.317,0,0.636-0.04,0.946-0.111v0.588
			c-0.564,0.096-0.994,0.096-1.09,0.096c-1.423,0-1.621-0.525-1.621-1.606V59.483z"/>
		<path fill="#3E6DB2" d="M66.501,63.991h0.317c0.645,0,0.795-0.215,1.042-0.739l0.19-0.405l-1.772-4.031h0.795l1.375,3.156
			l1.392-3.156h0.684L68.4,63.57c-0.445,0.993-1.081,0.993-1.574,0.993h-0.325V63.991z"/>
	</g>
</g>
<g>
</g>
<g>
</g>
<g>
</g>
<g>
</g>
<g>
</g>
<g>
</g>
</svg>
