<?xml version="1.0" encoding="utf-8"?>
<!-- Generator: Adobe Illustrator 16.0.0, SVG Export Plug-In . SVG Version: 6.00 Build 0)  -->
<!DOCTYPE svg PUBLIC "-//W3C//DTD SVG 1.1//EN" "http://www.w3.org/Graphics/SVG/1.1/DTD/svg11.dtd">
<svg version="1.1" id="Layer_1" xmlns="http://www.w3.org/2000/svg" xmlns:xlink="http://www.w3.org/1999/xlink" x="0px" y="0px"
	 width="200.5px" height="88.766px" viewBox="0 0 200.5 88.766" enable-background="new 0 0 200.5 88.766" xml:space="preserve">
<g>
	<g>
		<path fill="#FFFFFF" d="M44.175,2.566c-23.097,0-41.817,18.721-41.817,41.816s18.721,41.816,41.817,41.816
			c23.096,0,41.818-18.721,41.818-41.816S67.271,2.565,44.175,2.566z M44.031,83.9c-21.93,0-39.71-17.778-39.71-39.709
			c0-21.932,17.78-39.711,39.71-39.711c21.933-0.003,39.71,17.778,39.71,39.71C83.741,66.12,65.964,83.9,44.031,83.9z"/>
		<path fill="#FFFFFF" d="M17.227,54.282v2.146h7.398c0,0,11.579,1.645,11.579-12.045c0-13.688-8.362-12.402-18.978-12.402
			c0,17.263,0,17.263,0,17.263h2.145V33.804h7.347c0,0,5.842,0.321,7.235,6.97c1.394,6.647-1.286,13.508-9.007,13.508H17.227z"/>
		<path fill="#FFFFFF" d="M36.204,31.949c0,0,1.396,1.142,1.896,1.855h7.075c0,0,5.934,0.142,5.934,5.146s-3.145,5.933-5.433,5.933
			c-2.287,0-6.933,0-6.933,0v11.605h2.145v-9.531h4.86c0,0,6.146-0.214,7.29-4.86c1.144-4.647-0.43-10.147-7.007-10.147
			C39.457,31.949,36.204,31.949,36.204,31.949z"/>
		<path fill="#FFFFFF" d="M69.979,33.088l-1.073,1.646c0,0-10.435-3.288-11.149,2.931c-0.717,6.217,7.932,4.286,10.792,6.004
			c2.859,1.715,4.432,6.003,2.43,9.362c-2.001,3.357-8.719,5.863-15.581,1.859l1.287-1.502c0,0,10.221,3.717,12.794-2.001
			c1.214-2.787-1.358-6.719-6.29-7.005c-4.932-0.285-7.433-1.571-7.791-6.789C55.039,32.374,63.117,29.944,69.979,33.088z"/>
	</g>
	<g>
		<path fill="#FFFFFF" d="M106.478,35.356c-0.075-1.633-0.169-3.604-0.15-5.312h-0.056c-0.413,1.539-0.938,3.247-1.502,4.842
			l-1.857,5.48h-1.765l-1.689-5.405c-0.488-1.614-0.938-3.34-1.276-4.917h-0.038c-0.057,1.651-0.131,3.66-0.226,5.386l-0.281,5.086
			h-2.158l0.844-12.65h3.041l1.651,5.086c0.451,1.482,0.845,2.984,1.164,4.392h0.057c0.338-1.37,0.77-2.928,1.257-4.411l1.746-5.067
			h3.003l0.731,12.65h-2.252L106.478,35.356z"/>
		<path fill="#FFFFFF" d="M113.738,36.932l-1.089,3.585h-2.383l4.054-12.65h2.946l4.11,12.65h-2.496l-1.145-3.585H113.738z
			 M117.36,35.187l-0.994-3.116c-0.244-0.77-0.451-1.633-0.639-2.365h-0.037c-0.188,0.732-0.395,1.614-0.601,2.365l-0.977,3.116
			H117.36z"/>
		<path fill="#FFFFFF" d="M123.14,28.055c0.882-0.169,2.158-0.282,3.49-0.282c1.82,0,3.041,0.3,3.904,1.014
			c0.694,0.582,1.088,1.464,1.088,2.552c0,1.633-1.107,2.74-2.309,3.153v0.056c0.92,0.338,1.465,1.22,1.765,2.44
			c0.413,1.576,0.751,3.041,0.995,3.528h-2.365c-0.188-0.375-0.507-1.408-0.845-2.984c-0.375-1.651-0.957-2.177-2.271-2.214h-1.164
			v5.199h-2.289V28.055z M125.429,33.629h1.37c1.558,0,2.515-0.826,2.515-2.083c0-1.37-0.957-2.027-2.458-2.027
			c-0.732,0-1.201,0.056-1.427,0.112V33.629z"/>
		<path fill="#FFFFFF" d="M133.816,27.867h2.289v5.818h0.057c0.3-0.488,0.619-0.938,0.92-1.37l3.321-4.448h2.834l-4.354,5.387
			l4.636,7.263h-2.703l-3.565-5.799l-1.146,1.351v4.448h-2.289V27.867z"/>
		<path fill="#FFFFFF" d="M151.813,34.906h-4.768v3.716h5.331v1.896h-7.639v-12.65h7.356v1.896h-5.049v3.266h4.768V34.906z"/>
		<path fill="#FFFFFF" d="M157.011,29.801h-3.604v-1.933h9.553v1.933h-3.641v10.717h-2.309V29.801z"/>
		<path fill="#FFFFFF" d="M166.749,27.867v12.65h-2.308v-12.65H166.749z"/>
		<path fill="#FFFFFF" d="M169.376,40.517v-12.65h2.646l3.266,5.424c0.826,1.407,1.577,2.871,2.158,4.241h0.038
			c-0.169-1.689-0.207-3.322-0.207-5.255v-4.411h2.14v12.65h-2.402l-3.303-5.574c-0.808-1.389-1.633-2.928-2.252-4.354l-0.075,0.019
			c0.094,1.633,0.131,3.303,0.131,5.387v4.523H169.376z"/>
		<path fill="#FFFFFF" d="M192.215,39.935c-0.808,0.3-2.384,0.713-4.055,0.713c-2.14,0-3.772-0.544-4.974-1.689
			c-1.126-1.07-1.764-2.74-1.764-4.655c0.019-4.016,2.853-6.569,7.038-6.569c1.558,0,2.777,0.319,3.359,0.601l-0.507,1.858
			c-0.694-0.319-1.539-0.544-2.871-0.544c-2.703,0-4.599,1.595-4.599,4.542c0,2.872,1.765,4.579,4.392,4.579
			c0.845,0,1.445-0.112,1.746-0.244v-3.172h-2.233v-1.821h4.467V39.935z"/>
		<path fill="#FFFFFF" d="M98.332,55.697l-1.088,3.585H94.86l4.054-12.649h2.946l4.11,12.649h-2.496l-1.145-3.585H98.332z
			 M101.955,53.952l-0.996-3.115c-0.243-0.77-0.45-1.633-0.638-2.365h-0.037c-0.188,0.732-0.395,1.614-0.601,2.365l-0.976,3.115
			H101.955z"/>
		<path fill="#FFFFFF" d="M107.714,59.282V46.633h2.646l3.266,5.424c0.826,1.407,1.577,2.871,2.158,4.241h0.038
			c-0.169-1.688-0.207-3.322-0.207-5.255v-4.41h2.14v12.649h-2.402l-3.303-5.574c-0.808-1.389-1.633-2.928-2.252-4.354l-0.075,0.019
			c0.094,1.634,0.131,3.304,0.131,5.387v4.523H107.714z"/>
		<path fill="#FFFFFF" d="M120.419,46.802c1.032-0.15,2.308-0.264,3.678-0.264c2.365,0,3.979,0.488,5.143,1.465
			c1.239,0.994,1.99,2.515,1.99,4.654c0,2.271-0.77,3.941-1.971,5.029c-1.258,1.146-3.266,1.728-5.725,1.728
			c-1.333,0-2.346-0.075-3.115-0.169V46.802z M122.727,57.537c0.319,0.056,0.808,0.056,1.276,0.056
			c3.003,0.02,4.786-1.651,4.786-4.86c0.019-2.778-1.595-4.393-4.485-4.393c-0.732,0-1.239,0.057-1.577,0.132V57.537z"/>
		<path fill="#FFFFFF" d="M137.119,46.802c1.032-0.15,2.308-0.264,3.678-0.264c2.365,0,3.979,0.488,5.143,1.465
			c1.239,0.994,1.99,2.515,1.99,4.654c0,2.271-0.77,3.941-1.971,5.029c-1.258,1.146-3.267,1.728-5.725,1.728
			c-1.333,0-2.347-0.075-3.115-0.169V46.802z M139.427,57.537c0.319,0.056,0.808,0.056,1.276,0.056
			c3.003,0.02,4.786-1.651,4.786-4.86c0.019-2.778-1.596-4.393-4.485-4.393c-0.732,0-1.239,0.057-1.577,0.132V57.537z"/>
		<path fill="#FFFFFF" d="M157.011,53.671h-4.768v3.716h5.331v1.896h-7.639V46.633h7.356v1.896h-5.049v3.266h4.768V53.671z"/>
		<path fill="#FFFFFF" d="M159.562,56.767c0.732,0.432,1.877,0.807,3.06,0.807c1.464,0,2.289-0.694,2.289-1.727
			c0-0.957-0.638-1.521-2.233-2.103c-2.102-0.75-3.435-1.857-3.435-3.678c0-2.084,1.728-3.642,4.486-3.642
			c1.37,0,2.364,0.301,3.021,0.639l-0.544,1.857c-0.47-0.244-1.352-0.601-2.534-0.601c-1.464,0-2.083,0.77-2.083,1.521
			c0,0.976,0.731,1.427,2.421,2.083c2.196,0.826,3.247,1.934,3.247,3.754c0,2.046-1.539,3.81-4.786,3.81
			c-1.352,0-2.74-0.375-3.435-0.807L159.562,56.767z"/>
		<path fill="#FFFFFF" d="M171.646,46.633v12.649h-2.308V46.633H171.646z"/>
		<path fill="#FFFFFF" d="M184.428,58.7c-0.808,0.301-2.384,0.714-4.055,0.714c-2.14,0-3.772-0.545-4.974-1.689
			c-1.126-1.07-1.764-2.74-1.764-4.654c0.019-4.017,2.853-6.569,7.038-6.569c1.558,0,2.777,0.319,3.359,0.601l-0.507,1.858
			c-0.694-0.319-1.539-0.545-2.871-0.545c-2.703,0-4.599,1.596-4.599,4.542c0,2.872,1.765,4.58,4.392,4.58
			c0.845,0,1.445-0.113,1.746-0.244v-3.172h-2.233v-1.82h4.467V58.7z"/>
		<path fill="#FFFFFF" d="M186.771,59.282V46.633h2.646l3.266,5.424c0.826,1.407,1.577,2.871,2.158,4.241h0.038
			c-0.169-1.688-0.207-3.322-0.207-5.255v-4.41h2.14v12.649h-2.402l-3.303-5.574c-0.808-1.389-1.633-2.928-2.252-4.354l-0.075,0.019
			c0.094,1.634,0.131,3.304,0.131,5.387v4.523H186.771z"/>
	</g>
</g>
</svg>
