<?xml version="1.0" encoding="utf-8"?>
<!-- Generator: Adobe Illustrator 16.0.0, SVG Export Plug-In . SVG Version: 6.00 Build 0)  -->
<!DOCTYPE svg PUBLIC "-//W3C//DTD SVG 1.1//EN" "http://www.w3.org/Graphics/SVG/1.1/DTD/svg11.dtd">
<svg version="1.1" id="Layer_1" xmlns="http://www.w3.org/2000/svg" xmlns:xlink="http://www.w3.org/1999/xlink" x="0px" y="0px"
	 width="231.118px" height="88.766px" viewBox="0 0 231.118 88.766" enable-background="new 0 0 231.118 88.766"
	 xml:space="preserve">
<g>
	<g>
		<g>
			<g>
				<path fill="#FFFFFF" d="M42.048,2.734c-23,0-41.647,18.642-41.647,41.646c0,23.001,18.647,41.651,41.647,41.651
					c23.001,0,41.648-18.65,41.648-41.651C83.696,21.377,65.05,2.734,42.048,2.734z M41.909,83.738
					c-21.843,0-39.551-17.703-39.551-39.552c0-21.84,17.708-39.551,39.551-39.551c21.84,0,39.549,17.71,39.549,39.551
					C81.458,66.035,63.75,83.738,41.909,83.738z"/>
				<path fill="#FFFFFF" d="M15.21,54.241v2.136h7.369c0,0,11.528,1.64,11.528-11.996c0-13.631-8.326-12.353-18.897-12.353
					c0,17.196,0,17.196,0,17.196h2.135V33.845h7.314c0,0,5.821,0.317,7.208,6.939c1.388,6.62-1.28,13.457-8.968,13.457H15.21z"/>
				<path fill="#FFFFFF" d="M34.108,31.993c0,0,1.393,1.141,1.89,1.852h7.047c0,0,5.909,0.139,5.909,5.128
					c0,4.981-3.132,5.905-5.41,5.905c-2.281,0-6.907,0-6.907,0v11.563h2.137v-9.496h4.84c0,0,6.123-0.217,7.26-4.841
					c1.138-4.625-0.424-10.11-6.978-10.11C37.352,31.993,34.108,31.993,34.108,31.993z"/>
				<path fill="#FFFFFF" d="M67.749,33.135l-1.069,1.634c0,0-10.392-3.275-11.105,2.92c-0.711,6.194,7.902,4.271,10.751,5.98
					c2.846,1.708,4.413,5.982,2.418,9.328c-1.991,3.346-8.684,5.835-15.52,1.852l1.282-1.502c0,0,10.179,3.708,12.741-1.989
					c1.212-2.775-1.352-6.693-6.263-6.978c-4.912-0.282-7.403-1.563-7.76-6.762C52.869,32.42,60.913,29.999,67.749,33.135z"/>
			</g>
			<g>
				<path fill="#FFFFFF" d="M121.135,35.267c-4.405-12.141-16.146-8.538-16.146-8.538c-12.143,4.134-14.146,18.013-12.275,26.416
					c1.867,8.412,8.669,11.476,14.943,9.345C113.929,60.356,125.538,47.41,121.135,35.267z M107.739,60.408
					c-5.207,1.887-10.86-0.827-12.41-8.255c-1.546-7.428,0.114-19.692,10.193-23.352c0,0,9.75-3.181,13.407,7.548
					C122.588,47.084,112.946,58.524,107.739,60.408z"/>
				<path fill="#FFFFFF" d="M122.102,50.612c0,0,1.03-1.133,0.632-1.8c-0.398-0.67,0-3.604,2.87-0.736
					c2.868,2.87,4.402,3.67,2.271,6.54c-2.137,2.87-3.938,5.612-3.406,6.375c0.536,0.764,5.135-5.239,6.003-4.106
					c0.871,1.138,1.136,1,0,2.204c-1.131,1.196-5.403,6.799-8.007,4.669c-2.603-2.137,2.538-9.006,3.34-10.072
					c0.8-1.071,0.668-1.405,0-1.938s-0.668-1.465-2.604,1.334c-1.934,2.805-4.733,6.873-5.805,5.007
					C116.332,56.213,118.746,56.549,122.102,50.612z"/>
				<path fill="#FFFFFF" d="M198.346,60.174c-2.218,2.053-2.674-1.243-2.937-2.398c-0.266-1.157,0.089-2.493,1.066-3.736
					c0.981-1.246,3.295-5.159,5.072-9.072c1.779-3.916,4.54-13.435,0.979-14.323c-3.556-0.89-5.604,7.65-8.275,16.902
					c-2.664,9.246-0.889,10.05-0.889,10.05s0,0-1.064,0c-1.067,0-3.249,2.56-4.385,3.823c-1.131,1.272,0.47-4.997,0.802-5.601
					c0.334-0.6,0.936-1.265-0.198-2.269c-1.136-0.998-7.005,5.871-7.805,6.47c-0.799,0.602-4.537,1.668,1.069-5.466
					c5.6-7.142,7.47-4.738,7.739-3.938c0.266,0.799,0.4,1.267,1.196,0.937c0.802-0.334,1.736-2.737-0.931-4.081
					c-4.938-2.475-12.407,8.813-12.541,9.614c-0.138,0.8-2.608,4.536-3.538,3.674c-1.204-1.406,2.069-8.61,0.666-10.275
					c-1.402-1.669-7.007,5.335-8.203,7.134c-1.202,1.804,0.864-4.003,2.13-6.869c1.271-2.864,0.47-3.002-0.73-3.27
					c-1.2-0.267-3.404,7.402-3.67,8.34c-0.27,0.931-3.603,3.538-4.805,4.54c-1.196,0.999,1.799-9.743,2.469-11.077
					c0.668-1.337-1.002-1.803-1.002-1.803c-0.689-0.355-1.001,0.685-1.001,0.685s-1.955,4.632-2.585,7.742
					c-0.615,3.115-0.883,5.514,0.63,6.855c1.51,1.327,5.6-2.761,5.6-2.761c-0.354,2.667,1.153,2.761,1.868,2.313
					s3.562-4.184,5.433-6.317c1.866-2.135,0.884,0.439,0.884,2.045c0,1.603-1.244,5.158,1.962,5.426
					c3.199,0.265,3.643-4.18,4.355-2.225c2.135,4.893,6.847-1.599,7.383-2.222c0.534-0.628-0.447,3.021,0.089,4.188
					c1.513,2.588,4.271,0.081,5.514-1.077c1.249-1.155,1.783-4.09,2.935-1.374c1.158,2.71,3.295,2.44,4.451,2.44
					c1.153,0,3.471-2.222,4.448-3.38c0.978-1.155,0.715-1.688-0.089-2.667C201.637,56.173,200.569,58.13,198.346,60.174z
					 M201.635,33.573c1.155,0.267-3.647,15.033-5.246,16.106C196.389,49.679,200.48,33.31,201.635,33.573z"/>
				<circle fill="#FFFFFF" cx="138.3" cy="41.582" r="1.958"/>
				<circle fill="#FFFFFF" cx="162.389" cy="41.582" r="1.958"/>
				<path fill="#FFFFFF" d="M155.36,57.419c-0.536-0.736-1.334-0.67-2.668,0.668c-1.335,1.332-0.935,0.132-0.467-1.068
					c0.467-1.2,0.866-1.672,0-2.74c-0.868-1.064-1.734-0.196-2.474,0.536c-0.732,0.736-5.603,4.005-6.932,4.871
					c-1.336,0.867-2.342-0.599-1.607-2.404c2.609-5.266,9.677-9.672,10.011-9.069c0.334,0.601-2.472,1.602-1.536,2.936
					c0.933,1.331,2.404-0.336,3.271-1.268c0.868-0.932,2.868-3.002,0.599-4.204c-4.604-2.468-13.744,8.878-14.143,10.211
					c-0.399,1.33-2.604,3.002-4.269,4.202c-1.664,1.204,0.402-4.34,1.402-7.61c1-3.267,1.799-3.736,0.602-4.869
					c-1.203-1.128-2.004,0.736-2.004,0.736c-0.6,2.27-3.803,11.743-2.27,13.747c1.539,1.995,3.938-0.405,4.74-1.102
					c0.798-0.696,0.33-1.372,2.604,0.63c2.265,2.004,6.934-2.002,8.401-3.269c1.469-1.268,0.599,1.4,0.331,2.639
					c-0.261,1.237-2.799,3.368-3.922,4.57c-1.117,1.196-8.351,6.937-5.018,10.073c3.342,3.135,8.608-8.143,9.207-9.804
					c0.602-1.664-0.33-0.607,2.938-3.938C155.426,58.552,155.892,58.149,155.36,57.419z M141.773,73.163
					c-0.801-0.706,3.823-4.628,3.823-4.628S142.575,73.874,141.773,73.163z"/>
			</g>
		</g>
	</g>
	<g>
		<path fill="#FFFFFF" stroke="#FFFFFF" stroke-miterlimit="10" d="M153.743,70.605v3.922h4.912v-3.922h0.634v8.899h-0.634v-4.451
			h-4.912v4.451h-0.634v-8.899H153.743z"/>
		<path fill="#FFFFFF" stroke="#FFFFFF" stroke-miterlimit="10" d="M166.673,75.08h-3.552v3.896h3.973v0.528h-4.606v-8.899h4.398
			v0.528h-3.765v3.42h3.552V75.08L166.673,75.08z"/>
		<path fill="#FFFFFF" stroke="#FFFFFF" stroke-miterlimit="10" d="M170.77,76.389l-1.097,3.115h-0.646l3.222-8.897h0.607
			l3.193,8.897h-0.647l-1.121-3.115H170.77z M174.097,75.859l-1.082-2.969c-0.225-0.622-0.343-1.071-0.462-1.573h-0.04
			c-0.12,0.517-0.264,0.978-0.462,1.547l-1.083,2.995H174.097z"/>
		<path fill="#FFFFFF" stroke="#FFFFFF" stroke-miterlimit="10" d="M178.486,70.605h0.633v8.371h3.961v0.528h-4.596v-8.899H178.486z
			"/>
		<path fill="#FFFFFF" stroke="#FFFFFF" stroke-miterlimit="10" d="M186.12,71.134h-2.904v-0.528h6.444v0.528h-2.904v8.371h-0.634
			v-8.371H186.12z"/>
		<path fill="#FFFFFF" stroke="#FFFFFF" stroke-miterlimit="10" d="M192.262,70.605v3.922h4.912v-3.922h0.634v8.899h-0.634v-4.451
			h-4.912v4.451h-0.631v-8.899H192.262z"/>
		<path fill="#FFFFFF" stroke="#FFFFFF" stroke-miterlimit="10" d="M207.043,79.186c-0.449,0.225-1.308,0.449-2.404,0.449
			c-2.151,0-4.212-1.372-4.212-4.527c0-2.642,1.704-4.649,4.518-4.649c1.135,0,1.795,0.252,2.058,0.397l-0.198,0.528
			c-0.447-0.225-1.095-0.383-1.848-0.383c-2.402,0-3.868,1.557-3.868,4.119c0,2.416,1.373,3.973,3.763,3.973
			c0.751,0,1.49-0.158,2.006-0.409L207.043,79.186z"/>
		<path fill="#FFFFFF" stroke="#FFFFFF" stroke-miterlimit="10" d="M210.667,76.389l-1.098,3.115h-0.647l3.223-8.897h0.606
			l3.196,8.897h-0.647l-1.124-3.115H210.667z M213.994,75.859l-1.083-2.969c-0.225-0.622-0.344-1.071-0.464-1.573h-0.038
			c-0.119,0.517-0.265,0.978-0.464,1.547l-1.08,2.995H213.994z"/>
		<path fill="#FFFFFF" stroke="#FFFFFF" stroke-miterlimit="10" d="M218.381,70.736c0.555-0.131,1.308-0.198,1.927-0.198
			c1.164,0,1.902,0.251,2.404,0.755c0.383,0.356,0.619,0.949,0.619,1.571c0,1.2-0.712,1.967-1.742,2.323v0.026
			c0.712,0.225,1.162,0.896,1.372,1.888c0.304,1.387,0.476,2.047,0.662,2.403h-0.647c-0.146-0.264-0.33-1.043-0.569-2.164
			c-0.277-1.281-0.832-1.862-2.008-1.917h-1.386v4.081h-0.634v-8.769H218.381z M219.015,74.908h1.412c1.372,0,2.27-0.766,2.27-1.941
			c0-1.357-1.002-1.914-2.402-1.914c-0.607,0-1.057,0.066-1.281,0.119v3.736H219.015z"/>
		<path fill="#FFFFFF" stroke="#FFFFFF" stroke-miterlimit="10" d="M230.294,75.08h-3.552v3.896h3.975v0.528h-4.608v-8.899h4.396
			v0.528h-3.762v3.42h3.552V75.08z"/>
	</g>
</g>
</svg>
