<?xml version="1.0" encoding="utf-8"?>
<!-- Generator: Adobe Illustrator 16.0.0, SVG Export Plug-In . SVG Version: 6.00 Build 0)  -->
<!DOCTYPE svg PUBLIC "-//W3C//DTD SVG 1.1//EN" "http://www.w3.org/Graphics/SVG/1.1/DTD/svg11.dtd">
<svg version="1.1" id="Layer_1" xmlns="http://www.w3.org/2000/svg" xmlns:xlink="http://www.w3.org/1999/xlink" x="0px" y="0px"
	 width="150px" height="54.902px" viewBox="0 0 150 54.902" enable-background="new 0 0 150 54.902" xml:space="preserve">
<g>
	<g>
		<g>
			<g>
				<path d="M27.268,0.979c-14.621,0-26.473,11.849-26.473,26.472c0,14.618,11.853,26.474,26.473,26.474
					c14.62,0,26.472-11.855,26.472-26.474C53.74,12.827,41.888,0.979,27.268,0.979z M27.179,52.465
					c-13.885,0-25.14-11.252-25.14-25.139c0-13.882,11.255-25.14,25.14-25.14c13.882,0,25.138,11.258,25.138,25.14
					C52.317,41.213,41.062,52.465,27.179,52.465z"/>
				<path d="M10.208,33.717v1.357h4.685c0,0,7.328,1.042,7.328-7.624c0-8.665-5.293-7.853-12.013-7.853c0,10.929,0,10.929,0,10.929
					h1.358v-9.773h4.649c0,0,3.7,0.201,4.582,4.411c0.882,4.208-0.813,8.553-5.7,8.553H10.208z"/>
				<path d="M22.221,19.576c0,0,0.884,0.726,1.201,1.177h4.479c0,0,3.756,0.088,3.756,3.26c0,3.166-1.992,3.753-3.439,3.753
					c-1.449,0-4.39,0-4.39,0v7.349h1.358v-6.035h3.077c0,0,3.893-0.137,4.614-3.077c0.724-2.939-0.27-6.426-4.435-6.426
					C24.282,19.576,22.221,19.576,22.221,19.576z"/>
				<path d="M43.604,20.302l-0.679,1.038c0,0-6.605-2.082-7.059,1.856c-0.452,3.937,5.022,2.714,6.833,3.801
					c1.809,1.086,2.806,3.803,1.538,5.929c-1.266,2.127-5.52,3.709-9.865,1.178l0.815-0.955c0,0,6.47,2.357,8.098-1.265
					c0.771-1.763-0.859-4.253-3.981-4.434s-4.706-0.995-4.933-4.299S39.259,18.309,43.604,20.302z"/>
			</g>
			<g>
				<path d="M77.538,21.657c-2.801-7.717-10.263-5.428-10.263-5.428c-7.719,2.628-8.992,11.449-7.803,16.79
					c1.188,5.347,5.511,7.295,9.499,5.939C72.957,37.604,80.335,29.375,77.538,21.657z M69.023,37.636
					c-3.31,1.2-6.903-0.524-7.888-5.246c-0.984-4.721,0.072-12.516,6.479-14.842c0,0,6.198-2.022,8.522,4.798
					C78.461,29.168,72.333,36.439,69.023,37.636z"/>
				<path d="M78.153,31.41c0,0,0.654-0.719,0.4-1.144c-0.254-0.427,0-2.291,1.824-0.469c1.822,1.824,2.798,2.333,1.443,4.157
					c-1.358,1.823-2.504,3.566-2.165,4.051c0.34,0.484,3.265-3.331,3.816-2.61c0.553,0.724,0.721,0.637,0,1.402
					c-0.72,0.761-3.436,4.321-5.09,2.968c-1.654-1.359,1.613-5.726,2.122-6.404c0.509-0.68,0.425-0.892,0-1.23
					c-0.424-0.338-0.424-0.931-1.655,0.848c-1.228,1.784-3.01,4.37-3.688,3.183C74.484,34.971,76.019,35.184,78.153,31.41z"/>
				<path d="M126.615,37.487c-1.41,1.306-1.699-0.79-1.866-1.524c-0.169-0.735,0.057-1.583,0.678-2.375
					c0.624-0.792,2.094-3.279,3.224-5.766c1.13-2.489,2.885-8.54,0.623-9.104c-2.261-0.566-3.563,4.863-5.26,10.743
					c-1.694,5.876-0.566,6.387-0.566,6.387s0,0-0.677,0c-0.679,0-2.064,1.627-2.787,2.432c-0.719,0.808,0.299-3.176,0.511-3.561
					c0.212-0.381,0.594-0.805-0.127-1.442c-0.721-0.635-4.452,3.731-4.962,4.112c-0.507,0.383-2.883,1.062,0.681-3.475
					c3.561-4.539,4.747-3.011,4.919-2.504c0.169,0.509,0.254,0.807,0.76,0.597c0.511-0.214,1.105-1.74-0.591-2.595
					c-3.14-1.573-7.886,5.603-7.972,6.111c-0.087,0.509-1.657,2.883-2.248,2.334c-0.766-0.894,1.314-5.472,0.423-6.531
					s-4.454,3.393-5.215,4.536c-0.764,1.146,0.55-2.544,1.354-4.366c0.808-1.82,0.299-1.908-0.465-2.077
					c-0.764-0.17-2.164,4.704-2.333,5.3c-0.17,0.591-2.289,2.249-3.054,2.885c-0.761,0.637,1.144-6.193,1.569-7.041
					c0.424-0.849-0.637-1.144-0.637-1.144c-0.438-0.227-0.636,0.435-0.636,0.435s-1.243,2.942-1.644,4.92
					c-0.392,1.98-0.561,3.506,0.4,4.358c0.959,0.844,3.561-1.756,3.561-1.756c-0.226,1.696,0.733,1.756,1.187,1.47
					c0.455-0.282,2.264-2.657,3.452-4.014c1.187-1.357,0.563,0.279,0.563,1.3c0,1.018-0.791,3.278,1.246,3.449
					c2.034,0.168,2.314-2.657,2.769-1.415c1.357,3.109,4.353-1.017,4.693-1.412c0.34-0.398-0.284,1.923,0.057,2.662
					c0.961,1.645,2.715,0.052,3.505-0.685c0.793-0.735,1.133-2.6,1.865-0.874c0.735,1.724,2.094,1.553,2.828,1.553
					s2.206-1.414,2.829-2.148c0.621-0.733,0.453-1.073-0.058-1.696C128.707,34.945,128.027,36.188,126.615,37.487z M128.705,20.58
					c0.735,0.17-2.317,9.556-3.334,10.237C125.371,30.817,127.971,20.413,128.705,20.58z"/>
				<circle cx="88.448" cy="25.671" r="1.244"/>
				<circle cx="103.759" cy="25.671" r="1.244"/>
				<path d="M99.291,35.736c-0.34-0.469-0.847-0.427-1.695,0.425c-0.85,0.847-0.594,0.084-0.297-0.679
					c0.297-0.764,0.551-1.062,0-1.743c-0.553-0.677-1.103-0.124-1.572,0.342c-0.467,0.468-3.562,2.545-4.406,3.097
					c-0.849,0.551-1.488-0.38-1.021-1.528c1.658-3.348,6.15-6.148,6.363-5.766c0.212,0.383-1.571,1.02-0.978,1.866
					c0.593,0.846,1.528-0.214,2.079-0.807c0.553-0.591,1.824-1.907,0.382-2.671c-2.927-1.569-8.736,5.642-8.99,6.49
					c-0.254,0.845-1.654,1.907-2.714,2.67c-1.058,0.766,0.256-2.758,0.892-4.837c0.636-2.075,1.145-2.374,0.382-3.095
					c-0.765-0.717-1.273,0.469-1.273,0.469c-0.381,1.44-2.416,7.463-1.442,8.735c0.978,1.271,2.502-0.255,3.013-0.699
					c0.508-0.442,0.211-0.87,1.654,0.4c1.44,1.273,4.408-1.271,5.342-2.077c0.933-0.806,0.38,0.891,0.211,1.677
					c-0.167,0.787-1.779,2.141-2.493,2.904c-0.711,0.761-5.309,4.409-3.189,6.404c2.123,1.991,5.472-5.176,5.852-6.232
					c0.383-1.059-0.21-0.387,1.867-2.504C99.334,36.457,99.63,36.201,99.291,35.736z M90.654,45.744
					c-0.509-0.449,2.432-2.941,2.432-2.941S91.164,46.196,90.654,45.744z"/>
			</g>
		</g>
	</g>
	<g>
		<path d="M97.547,42.116v2.367h2.736v-2.367h0.738v5.656h-0.738v-2.652h-2.736v2.652h-0.738v-5.656H97.547z"/>
		<path d="M105.885,45.121h-2.191v2.039h2.451v0.613h-3.189v-5.656h3.062v0.612h-2.324v1.788h2.191V45.121z"/>
		<path d="M108.682,45.993l-0.588,1.779h-0.756l1.93-5.656h0.873l1.932,5.656h-0.781l-0.604-1.779H108.682z M110.545,45.422
			l-0.562-1.628c-0.127-0.369-0.211-0.705-0.295-1.032h-0.016c-0.084,0.327-0.168,0.68-0.285,1.024l-0.555,1.636H110.545z"/>
		<path d="M113.568,42.116h0.738v5.043h2.418v0.613h-3.156V42.116z"/>
		<path d="M118.547,42.737h-1.721v-0.621h4.189v0.621h-1.73v5.036h-0.738V42.737z"/>
		<path d="M123.049,42.116v2.367h2.734v-2.367h0.74v5.656h-0.74v-2.652h-2.734v2.652h-0.738v-5.656H123.049z"/>
		<path d="M132.408,47.596c-0.26,0.134-0.805,0.269-1.494,0.269c-1.594,0-2.785-1.007-2.785-2.87c0-1.779,1.199-2.971,2.953-2.971
			c0.697,0,1.15,0.151,1.344,0.251l-0.186,0.596c-0.268-0.135-0.662-0.235-1.133-0.235c-1.326,0-2.207,0.848-2.207,2.333
			c0,1.394,0.797,2.274,2.166,2.274c0.453,0,0.906-0.092,1.199-0.235L132.408,47.596z"/>
		<path d="M134.955,45.993l-0.588,1.779h-0.754l1.93-5.656h0.873l1.93,5.656h-0.781l-0.604-1.779H134.955z M136.818,45.422
			l-0.562-1.628c-0.125-0.369-0.209-0.705-0.293-1.032h-0.018c-0.084,0.327-0.168,0.68-0.285,1.024l-0.553,1.636H136.818z"/>
		<path d="M139.852,42.191c0.369-0.067,0.906-0.117,1.4-0.117c0.781,0,1.293,0.151,1.637,0.461c0.277,0.252,0.445,0.638,0.445,1.083
			c0,0.739-0.471,1.234-1.057,1.435v0.025c0.428,0.151,0.688,0.554,0.822,1.141c0.184,0.789,0.318,1.334,0.436,1.553h-0.756
			c-0.092-0.168-0.217-0.646-0.369-1.351c-0.168-0.781-0.479-1.074-1.141-1.1h-0.688v2.451h-0.73V42.191z M140.582,44.768h0.746
			c0.781,0,1.275-0.428,1.275-1.074c0-0.73-0.529-1.049-1.301-1.049c-0.352,0-0.596,0.025-0.721,0.059V44.768z"/>
		<path d="M147.961,45.121h-2.191v2.039h2.451v0.613h-3.189v-5.656h3.062v0.612h-2.324v1.788h2.191V45.121z"/>
	</g>
</g>
<g>
</g>
<g>
</g>
<g>
</g>
<g>
</g>
<g>
</g>
<g>
</g>
</svg>
