<?xml version="1.0" encoding="utf-8"?>
<!-- Generator: Adobe Illustrator 16.0.0, SVG Export Plug-In . SVG Version: 6.00 Build 0)  -->
<!DOCTYPE svg PUBLIC "-//W3C//DTD SVG 1.1//EN" "http://www.w3.org/Graphics/SVG/1.1/DTD/svg11.dtd">
<svg version="1.1" id="Layer_1" xmlns="http://www.w3.org/2000/svg" xmlns:xlink="http://www.w3.org/1999/xlink" x="0px" y="0px"
	 width="231.118px" height="88.766px" viewBox="0 0 231.118 88.766" enable-background="new 0 0 231.118 88.766"
	 xml:space="preserve">
<g>
	<g>
		<path fill="#FFFFFF" d="M60.137,2.558c-23.1,0-41.825,18.728-41.825,41.824c0,23.1,18.725,41.824,41.825,41.824
			c23.101,0,41.826-18.727,41.826-41.824S83.238,2.557,60.137,2.558z M59.993,83.909c-21.934,0-39.718-17.782-39.718-39.719
			s17.784-39.72,39.718-39.72c21.937-0.002,39.718,17.783,39.718,39.72C99.711,66.125,81.93,83.909,59.993,83.909z"/>
		<path fill="#FFFFFF" d="M33.184,54.286v2.146h7.4c0,0,11.58,1.646,11.58-12.047S43.801,31.98,33.183,31.98
			c0,17.269,0,17.269,0,17.269h2.147V33.802h7.347c0,0,5.845,0.321,7.238,6.972c1.394,6.647-1.289,13.514-9.009,13.514
			L33.184,54.286L33.184,54.286z"/>
		<path fill="#FFFFFF" d="M52.164,31.948c0,0,1.397,1.142,1.897,1.854h7.075c0,0,5.936,0.142,5.936,5.147
			c0,5.005-3.146,5.934-5.433,5.934c-2.288,0-6.935,0-6.935,0v11.608h2.145V46.96h4.862c0,0,6.146-0.214,7.291-4.862
			c1.145-4.646-0.429-10.146-7.007-10.146C55.419,31.948,52.164,31.948,52.164,31.948z"/>
		<path fill="#FFFFFF" d="M85.946,33.087l-1.072,1.646c0,0-10.437-3.288-11.152,2.935c-0.717,6.218,7.934,4.287,10.794,6.005
			c2.859,1.715,4.433,6.004,2.43,9.364c-2.002,3.354-8.721,5.861-15.584,1.856l1.287-1.501c0,0,10.223,3.716,12.797-2.001
			c1.215-2.789-1.358-6.721-6.292-7.008c-4.934-0.284-7.434-1.571-7.792-6.789C71.004,32.373,79.084,29.942,85.946,33.087z"/>
	</g>
	<g>
		<path fill="#FFFFFF" d="M122.454,35.354c-0.074-1.633-0.17-3.604-0.148-5.312h-0.059c-0.412,1.539-0.937,3.248-1.502,4.843
			l-1.855,5.481h-1.766l-1.688-5.406c-0.489-1.613-0.939-3.34-1.276-4.918h-0.038c-0.057,1.648-0.131,3.662-0.227,5.388
			l-0.281,5.086h-2.159l0.844-12.649h3.042l1.653,5.086c0.449,1.48,0.846,2.983,1.16,4.393h0.059c0.34-1.369,0.771-2.927,1.258-4.41
			l1.748-5.066h3.002l0.734,12.649H122.7L122.454,35.354z"/>
		<path fill="#FFFFFF" d="M129.715,36.93l-1.092,3.587h-2.383l4.057-12.65h2.945l4.108,12.65h-2.496l-1.146-3.587H129.715z
			 M133.336,35.186l-0.994-3.116c-0.244-0.771-0.45-1.634-0.639-2.364h-0.037c-0.188,0.73-0.396,1.612-0.604,2.364l-0.979,3.116
			H133.336z"/>
		<path fill="#FFFFFF" d="M139.12,28.052c0.883-0.168,2.157-0.281,3.487-0.281c1.822,0,3.043,0.301,3.906,1.017
			c0.694,0.582,1.088,1.464,1.088,2.553c0,1.633-1.104,2.739-2.31,3.153v0.056c0.92,0.338,1.465,1.221,1.767,2.438
			c0.412,1.576,0.75,3.042,0.993,3.528h-2.364c-0.188-0.375-0.506-1.407-0.845-2.98c-0.375-1.652-0.956-2.182-2.271-2.218h-1.163
			v5.2h-2.289V28.052L139.12,28.052z M141.411,33.628h1.368c1.56,0,2.517-0.827,2.517-2.083c0-1.37-0.957-2.027-2.459-2.027
			c-0.733,0-1.201,0.059-1.426,0.112V33.628L141.411,33.628z"/>
		<path fill="#FFFFFF" d="M149.795,27.865h2.289v5.816h0.058c0.301-0.486,0.619-0.938,0.92-1.369l3.321-4.447h2.834l-4.354,5.389
			l4.64,7.264h-2.705l-3.567-5.8l-1.146,1.351v4.449h-2.289V27.865L149.795,27.865z"/>
		<path fill="#FFFFFF" d="M167.795,34.905h-4.769v3.719h5.33v1.896h-7.642V27.866h7.357v1.896h-5.05v3.268h4.771v1.875H167.795z"/>
		<path fill="#FFFFFF" d="M172.999,29.799h-3.606v-1.933h9.555v1.933h-3.641v10.719h-2.31V29.799H172.999z"/>
		<path fill="#FFFFFF" d="M182.736,27.865v12.65h-2.31v-12.65H182.736z"/>
		<path fill="#FFFFFF" d="M185.363,40.517V27.865h2.648l3.266,5.425c0.826,1.405,1.576,2.871,2.158,4.243h0.039
			c-0.17-1.69-0.207-3.324-0.207-5.26v-4.409h2.14v12.649h-2.4L189.7,34.94c-0.806-1.388-1.632-2.928-2.253-4.354l-0.073,0.019
			c0.097,1.636,0.131,3.307,0.131,5.391v4.521H185.363z"/>
		<path fill="#FFFFFF" d="M208.208,39.934c-0.811,0.301-2.387,0.713-4.057,0.713c-2.141,0-3.771-0.544-4.975-1.688
			c-1.125-1.071-1.764-2.742-1.764-4.656c0.018-4.017,2.854-6.57,7.033-6.57c1.562,0,2.779,0.318,3.361,0.603l-0.508,1.855
			c-0.691-0.315-1.535-0.544-2.869-0.544c-2.703,0-4.602,1.599-4.602,4.543c0,2.873,1.766,4.58,4.395,4.58
			c0.844,0,1.443-0.108,1.746-0.244v-3.173h-2.234v-1.818h4.471v6.399H208.208L208.208,39.934z"/>
		<path fill="#FFFFFF" d="M114.306,55.7l-1.088,3.587h-2.385l4.055-12.652h2.946l4.11,12.652h-2.495l-1.146-3.587H114.306z
			 M117.929,53.955l-0.995-3.116c-0.244-0.771-0.451-1.632-0.641-2.364h-0.037c-0.188,0.732-0.395,1.613-0.599,2.364l-0.977,3.116
			H117.929z"/>
		<path fill="#FFFFFF" d="M123.689,59.287V46.635h2.646l3.269,5.424c0.826,1.408,1.578,2.872,2.158,4.243h0.038
			c-0.17-1.69-0.207-3.324-0.207-5.257v-4.41h2.142v12.652h-2.401l-3.307-5.576c-0.806-1.392-1.633-2.929-2.252-4.354l-0.074,0.021
			c0.096,1.634,0.133,3.304,0.133,5.388v4.524L123.689,59.287L123.689,59.287z"/>
		<path fill="#FFFFFF" d="M136.396,46.803c1.033-0.151,2.312-0.264,3.681-0.264c2.364,0,3.979,0.484,5.146,1.464
			c1.237,0.995,1.989,2.517,1.989,4.657c0,2.27-0.771,3.938-1.974,5.026c-1.258,1.147-3.266,1.729-5.728,1.729
			c-1.331,0-2.346-0.074-3.114-0.17V46.803L136.396,46.803z M138.708,57.542c0.315,0.055,0.808,0.055,1.272,0.055
			c3.006,0.021,4.789-1.652,4.789-4.861c0.021-2.776-1.599-4.395-4.483-4.395c-0.734,0-1.242,0.057-1.578,0.134V57.542z"/>
		<path fill="#FFFFFF" d="M153.101,46.803c1.028-0.151,2.308-0.264,3.678-0.264c2.365,0,3.979,0.484,5.146,1.464
			c1.238,0.995,1.99,2.517,1.99,4.657c0,2.27-0.771,3.938-1.974,5.026c-1.256,1.147-3.269,1.729-5.728,1.729
			c-1.332,0-2.346-0.074-3.112-0.17V46.803L153.101,46.803z M155.409,57.542c0.317,0.055,0.807,0.055,1.276,0.055
			c3.002,0.021,4.787-1.652,4.787-4.861c0.019-2.776-1.599-4.395-4.486-4.395c-0.731,0-1.237,0.057-1.577,0.134V57.542
			L155.409,57.542z"/>
		<path fill="#FFFFFF" d="M172.999,53.675h-4.771v3.716h5.33v1.896h-7.64V46.635h7.356v1.896h-5.049v3.268h4.769v1.876H172.999z"/>
		<path fill="#FFFFFF" d="M175.547,56.77c0.729,0.435,1.877,0.81,3.06,0.81c1.465,0,2.291-0.694,2.291-1.729
			c0-0.957-0.64-1.521-2.233-2.103c-2.103-0.749-3.435-1.857-3.435-3.682c0-2.084,1.728-3.643,4.485-3.643
			c1.369,0,2.363,0.303,3.021,0.64l-0.545,1.858c-0.469-0.244-1.353-0.604-2.535-0.604c-1.465,0-2.084,0.771-2.084,1.521
			c0,0.978,0.732,1.428,2.425,2.084c2.194,0.826,3.244,1.935,3.244,3.754c0,2.046-1.539,3.812-4.785,3.812
			c-1.353,0-2.74-0.377-3.437-0.811L175.547,56.77z"/>
		<path fill="#FFFFFF" d="M187.633,46.635v12.652h-2.309V46.635H187.633z"/>
		<path fill="#FFFFFF" d="M200.417,58.703c-0.807,0.303-2.385,0.715-4.055,0.715c-2.141,0-3.771-0.545-4.977-1.69
			c-1.123-1.066-1.762-2.74-1.762-4.652c0.018-4.02,2.854-6.57,7.037-6.57c1.561,0,2.775,0.319,3.359,0.601l-0.508,1.859
			c-0.693-0.319-1.539-0.545-2.871-0.545c-2.703,0-4.602,1.596-4.602,4.544c0,2.871,1.766,4.58,4.395,4.58
			c0.844,0,1.443-0.113,1.746-0.244v-3.173h-2.232v-1.819h4.467v6.397L200.417,58.703L200.417,58.703z"/>
		<path fill="#FFFFFF" d="M202.763,59.287V46.635h2.644l3.27,5.424c0.824,1.408,1.578,2.872,2.158,4.243h0.037
			c-0.168-1.69-0.205-3.324-0.205-5.257v-4.41h2.142v12.652h-2.401l-3.306-5.576c-0.81-1.392-1.636-2.929-2.252-4.354l-0.076,0.021
			c0.095,1.634,0.131,3.304,0.131,5.388v4.524L202.763,59.287L202.763,59.287z"/>
	</g>
</g>
</svg>
