<?xml version="1.0" encoding="utf-8"?>
<!-- Generator: Adobe Illustrator 16.0.0, SVG Export Plug-In . SVG Version: 6.00 Build 0)  -->
<!DOCTYPE svg PUBLIC "-//W3C//DTD SVG 1.1//EN" "http://www.w3.org/Graphics/SVG/1.1/DTD/svg11.dtd">
<svg version="1.1" id="Layer_1" xmlns="http://www.w3.org/2000/svg" xmlns:xlink="http://www.w3.org/1999/xlink" x="0px" y="0px"
	 width="231.118px" height="88.766px" viewBox="0 0 231.118 88.766" enable-background="new 0 0 231.118 88.766"
	 xml:space="preserve">
<g>
	<g>
		<path fill="#FFFFFF" d="M60.137,2.558c-23.1,0-41.825,18.726-41.825,41.824c0,23.1,18.725,41.824,41.825,41.824
			c23.101,0,41.826-18.725,41.826-41.824C101.963,21.284,83.238,2.557,60.137,2.558z M59.993,83.909
			c-21.934,0-39.718-17.782-39.718-39.717c0-21.937,17.784-39.72,39.718-39.72C81.93,4.469,99.711,22.254,99.711,44.191
			C99.711,66.125,81.93,83.909,59.993,83.909z"/>
		<path fill="#FFFFFF" d="M33.184,54.286v2.146h7.4c0,0,11.58,1.646,11.58-12.047s-8.363-12.405-18.981-12.405
			c0,17.267,0,17.267,0,17.267h2.147V33.802h7.347c0,0,5.845,0.321,7.238,6.972c1.394,6.647-1.289,13.512-9.009,13.512H33.184z"/>
		<path fill="#FFFFFF" d="M52.164,31.948c0,0,1.397,1.142,1.897,1.854h7.075c0,0,5.936,0.142,5.936,5.147
			c0,5.005-3.146,5.934-5.433,5.934c-2.288,0-6.935,0-6.935,0v11.608h2.145V46.96h4.862c0,0,6.146-0.214,7.291-4.862
			c1.145-4.647-0.429-10.148-7.007-10.148C55.419,31.948,52.164,31.948,52.164,31.948z"/>
		<path fill="#FFFFFF" d="M85.946,33.087l-1.072,1.646c0,0-10.437-3.288-11.152,2.933c-0.717,6.218,7.934,4.287,10.794,6.005
			c2.859,1.715,4.433,6.004,2.43,9.364c-2.002,3.356-8.721,5.863-15.584,1.858l1.287-1.501c0,0,10.223,3.716,12.797-2.001
			c1.215-2.789-1.358-6.721-6.292-7.008c-4.934-0.284-7.434-1.571-7.792-6.789C71.004,32.373,79.084,29.942,85.946,33.087z"/>
	</g>
	<g>
		<path fill="#FFFFFF" d="M122.454,35.354c-0.075-1.633-0.17-3.604-0.15-5.312h-0.057c-0.412,1.539-0.937,3.248-1.502,4.843
			l-1.857,5.481h-1.765l-1.689-5.406c-0.489-1.613-0.939-3.34-1.276-4.918h-0.038c-0.057,1.65-0.131,3.662-0.227,5.388l-0.281,5.086
			h-2.159l0.844-12.651h3.042l1.651,5.086c0.451,1.482,0.846,2.985,1.162,4.393h0.057c0.34-1.369,0.771-2.927,1.259-4.41
			l1.747-5.068h3.003l0.733,12.651h-2.254L122.454,35.354z"/>
		<path fill="#FFFFFF" d="M129.715,36.93l-1.091,3.587h-2.383l4.056-12.652h2.945l4.11,12.652h-2.496l-1.146-3.587H129.715z
			 M133.336,35.186l-0.994-3.116c-0.244-0.771-0.45-1.634-0.638-2.366h-0.038c-0.188,0.732-0.395,1.614-0.602,2.366l-0.977,3.116
			H133.336z"/>
		<path fill="#FFFFFF" d="M139.119,28.052c0.883-0.168,2.158-0.281,3.488-0.281c1.822,0,3.043,0.301,3.906,1.015
			c0.695,0.582,1.088,1.464,1.088,2.553c0,1.633-1.105,2.739-2.309,3.153v0.056c0.92,0.338,1.465,1.221,1.766,2.44
			c0.412,1.576,0.75,3.042,0.994,3.528h-2.365c-0.188-0.375-0.506-1.407-0.844-2.982c-0.375-1.652-0.957-2.18-2.271-2.216h-1.164
			v5.2h-2.289V28.052L139.119,28.052z M141.41,33.628h1.369c1.559,0,2.516-0.827,2.516-2.083c0-1.37-0.957-2.027-2.459-2.027
			c-0.734,0-1.201,0.057-1.426,0.112V33.628z"/>
		<path fill="#FFFFFF" d="M149.796,27.865h2.289v5.818h0.057c0.301-0.486,0.619-0.938,0.92-1.369l3.322-4.449h2.834l-4.354,5.389
			l4.639,7.264h-2.705l-3.568-5.8l-1.145,1.351v4.449h-2.289V27.865z"/>
		<path fill="#FFFFFF" d="M167.796,34.905h-4.768v3.717h5.33v1.896h-7.641V27.866h7.357v1.896h-5.049v3.268h4.77V34.905
			L167.796,34.905z"/>
		<path fill="#FFFFFF" d="M172.998,29.799h-3.607v-1.933h9.555v1.933h-3.641v10.719h-2.309V29.799H172.998z"/>
		<path fill="#FFFFFF" d="M182.736,27.865v12.652h-2.309V27.865H182.736z"/>
		<path fill="#FFFFFF" d="M185.363,40.517V27.865h2.648l3.266,5.425c0.826,1.407,1.576,2.871,2.158,4.243h0.039
			c-0.17-1.69-0.207-3.324-0.207-5.258v-4.411h2.139v12.651h-2.4l-3.307-5.575c-0.805-1.388-1.631-2.928-2.252-4.354l-0.074,0.019
			c0.096,1.634,0.131,3.305,0.131,5.389v4.523H185.363z"/>
		<path fill="#FFFFFF" d="M208.208,39.934c-0.811,0.301-2.387,0.713-4.057,0.713c-2.141,0-3.771-0.544-4.975-1.688
			c-1.125-1.071-1.764-2.742-1.764-4.656c0.018-4.017,2.854-6.57,7.035-6.57c1.561,0,2.779,0.318,3.361,0.601l-0.506,1.857
			c-0.693-0.317-1.537-0.544-2.871-0.544c-2.703,0-4.6,1.597-4.6,4.543c0,2.873,1.764,4.58,4.393,4.58
			c0.844,0,1.445-0.11,1.746-0.244v-3.173h-2.234v-1.82h4.469v6.401H208.208z"/>
		<path fill="#FFFFFF" d="M114.306,55.7l-1.088,3.587h-2.385l4.055-12.652h2.947l4.111,12.652h-2.497l-1.146-3.587H114.306z
			 M117.929,53.955l-0.995-3.116c-0.244-0.771-0.451-1.632-0.64-2.364h-0.037c-0.188,0.732-0.394,1.613-0.6,2.364l-0.977,3.116
			H117.929z"/>
		<path fill="#FFFFFF" d="M123.689,59.287V46.635h2.646l3.267,5.424c0.826,1.408,1.578,2.872,2.158,4.243h0.039
			c-0.17-1.69-0.207-3.324-0.207-5.257v-4.41h2.141v12.652h-2.402l-3.306-5.576c-0.806-1.39-1.633-2.929-2.252-4.354l-0.075,0.019
			c0.095,1.634,0.132,3.304,0.132,5.388v4.524H123.689L123.689,59.287z"/>
		<path fill="#FFFFFF" d="M136.396,46.803c1.033-0.151,2.311-0.264,3.68-0.264c2.365,0,3.98,0.486,5.145,1.464
			c1.238,0.995,1.99,2.517,1.99,4.657c0,2.27-0.771,3.939-1.973,5.028c-1.258,1.147-3.266,1.729-5.727,1.729
			c-1.332,0-2.346-0.074-3.115-0.17V46.803L136.396,46.803z M138.707,57.542c0.316,0.055,0.807,0.055,1.273,0.055
			c3.006,0.02,4.789-1.652,4.789-4.861c0.02-2.778-1.598-4.395-4.484-4.395c-0.734,0-1.242,0.057-1.578,0.134V57.542z"/>
		<path fill="#FFFFFF" d="M153.101,46.803c1.029-0.151,2.307-0.264,3.678-0.264c2.365,0,3.979,0.486,5.145,1.464
			c1.238,0.995,1.99,2.517,1.99,4.657c0,2.27-0.77,3.939-1.973,5.028c-1.256,1.147-3.268,1.729-5.727,1.729
			c-1.332,0-2.346-0.074-3.113-0.17V46.803z M155.408,57.542c0.318,0.055,0.807,0.055,1.277,0.055
			c3.002,0.02,4.787-1.652,4.787-4.861c0.018-2.778-1.598-4.395-4.486-4.395c-0.732,0-1.238,0.057-1.578,0.134V57.542z"/>
		<path fill="#FFFFFF" d="M172.998,53.675h-4.77v3.716h5.33v1.896h-7.639V46.635h7.357v1.896h-5.049v3.268h4.768v1.876H172.998z"/>
		<path fill="#FFFFFF" d="M175.548,56.77c0.73,0.433,1.877,0.808,3.059,0.808c1.465,0,2.291-0.694,2.291-1.729
			c0-0.957-0.639-1.521-2.234-2.103c-2.102-0.749-3.434-1.857-3.434-3.68c0-2.084,1.727-3.643,4.486-3.643
			c1.369,0,2.363,0.303,3.021,0.64l-0.545,1.858c-0.469-0.244-1.352-0.602-2.535-0.602c-1.465,0-2.084,0.769-2.084,1.521
			c0,0.978,0.732,1.428,2.424,2.084c2.195,0.826,3.244,1.935,3.244,3.754c0,2.046-1.539,3.812-4.785,3.812
			c-1.352,0-2.74-0.376-3.436-0.809L175.548,56.77z"/>
		<path fill="#FFFFFF" d="M187.634,46.635v12.652h-2.309V46.635H187.634z"/>
		<path fill="#FFFFFF" d="M200.417,58.703c-0.807,0.303-2.385,0.715-4.055,0.715c-2.141,0-3.771-0.545-4.977-1.69
			c-1.123-1.068-1.762-2.74-1.762-4.654c0.018-4.018,2.854-6.57,7.037-6.57c1.561,0,2.777,0.319,3.361,0.601l-0.508,1.859
			c-0.693-0.319-1.539-0.545-2.871-0.545c-2.703,0-4.6,1.596-4.6,4.544c0,2.871,1.764,4.58,4.393,4.58
			c0.844,0,1.445-0.113,1.746-0.244v-3.173h-2.234v-1.819h4.467v6.397H200.417z"/>
		<path fill="#FFFFFF" d="M202.763,59.287V46.635h2.643l3.27,5.424c0.824,1.408,1.578,2.872,2.158,4.243h0.037
			c-0.168-1.69-0.205-3.324-0.205-5.257v-4.41h2.141v12.652h-2.402l-3.305-5.576c-0.809-1.39-1.635-2.929-2.252-4.354l-0.076,0.019
			c0.094,1.634,0.131,3.304,0.131,5.388v4.524H202.763L202.763,59.287z"/>
	</g>
</g>
</svg>
