<?xml version="1.0" encoding="utf-8"?>
<!-- Generator: Adobe Illustrator 16.0.0, SVG Export Plug-In . SVG Version: 6.00 Build 0)  -->
<!DOCTYPE svg PUBLIC "-//W3C//DTD SVG 1.1//EN" "http://www.w3.org/Graphics/SVG/1.1/DTD/svg11.dtd">
<svg version="1.1" id="Layer_1" xmlns="http://www.w3.org/2000/svg" xmlns:xlink="http://www.w3.org/1999/xlink" x="0px" y="0px"
	 width="231.118px" height="88.765px" viewBox="0 0 231.118 88.765" enable-background="new 0 0 231.118 88.765"
	 xml:space="preserve">
<g>
	<g>
		<g>
			<g>
				<path fill="#FFFFFF" d="M43.88,4.191c-22.196,0-40.191,17.989-40.191,40.189c0,22.195,17.995,40.193,40.191,40.193
					S84.07,66.576,84.07,44.38C84.07,22.181,66.077,4.191,43.88,4.191z M43.746,82.36c-21.079,0-38.167-17.084-38.167-38.167
					c0-21.076,17.088-38.167,38.167-38.167c21.076,0,38.165,17.091,38.165,38.167C81.911,65.276,64.822,82.36,43.746,82.36z"/>
				<path fill="#FFFFFF" d="M17.981,53.896v2.061h7.112c0,0,11.125,1.582,11.125-11.576c0-13.155-8.036-11.921-18.237-11.921
					c0,16.594,0,16.594,0,16.594h2.061V34.214H27.1c0,0,5.618,0.305,6.956,6.696c1.34,6.389-1.235,12.986-8.654,12.986H17.981z"/>
				<path fill="#FFFFFF" d="M36.218,32.427c0,0,1.343,1.101,1.823,1.787h6.801c0,0,5.702,0.133,5.702,4.948
					c0,4.807-3.023,5.698-5.221,5.698c-2.201,0-6.665,0-6.665,0v11.158h2.062v-9.164h4.671c0,0,5.91-0.208,7.006-4.671
					c1.099-4.463-0.409-9.756-6.733-9.756C39.347,32.427,36.218,32.427,36.218,32.427z"/>
				<path fill="#FFFFFF" d="M68.681,33.528l-1.031,1.576c0,0-10.028-3.16-10.717,2.819c-0.686,5.977,7.626,4.121,10.375,5.771
					c2.746,1.648,4.259,5.773,2.334,9c-1.922,3.23-8.38,5.631-14.976,1.788l1.237-1.45c0,0,9.822,3.579,12.295-1.92
					c1.17-2.677-1.305-6.458-6.044-6.732c-4.74-0.273-7.144-1.509-7.488-6.526C54.322,32.839,62.085,30.502,68.681,33.528z"/>
			</g>
			<g>
				<path fill="#FFFFFF" d="M120.2,35.586c-4.251-11.716-15.581-8.24-15.581-8.24c-11.718,3.99-13.651,17.383-11.846,25.491
					c1.802,8.118,8.366,11.075,14.42,9.018C113.246,59.797,124.447,47.304,120.2,35.586z M107.272,59.846
					c-5.024,1.822-10.479-0.797-11.975-7.966c-1.493-7.167,0.109-19.002,9.836-22.534c0,0,9.409-3.069,12.938,7.285
					C121.602,46.99,112.297,58.029,107.272,59.846z"/>
				<path fill="#FFFFFF" d="M121.134,50.394c0,0,0.993-1.093,0.608-1.736c-0.385-0.647,0-3.479,2.769-0.712
					c2.768,2.77,4.249,3.542,2.193,6.312c-2.063,2.769-3.802,5.415-3.288,6.151c0.517,0.736,4.956-5.057,5.794-3.963
					c0.839,1.099,1.094,0.966,0,2.127c-1.093,1.155-5.215,6.562-7.728,4.507c-2.512-2.063,2.45-8.693,3.223-9.722
					c0.772-1.032,0.645-1.354,0-1.869c-0.644-0.513-0.644-1.413-2.514,1.288c-1.864,2.707-4.568,6.633-5.6,4.832
					C115.564,55.798,117.893,56.123,121.134,50.394z"/>
				<path fill="#FFFFFF" d="M194.709,59.62c-2.141,1.98-2.579-1.199-2.833-2.315c-0.256-1.116,0.086-2.405,1.029-3.605
					c0.946-1.202,3.179-4.979,4.894-8.754c1.716-3.779,4.381-12.965,0.945-13.822c-3.432-0.859-5.408,7.383-7.985,16.311
					c-2.571,8.922-0.859,9.697-0.859,9.697s0,0-1.027,0c-1.03,0-3.135,2.47-4.23,3.69c-1.092,1.228,0.453-4.822,0.774-5.404
					c0.321-0.579,0.901-1.222-0.192-2.19c-1.095-0.964-6.759,5.666-7.532,6.244c-0.771,0.581-4.378,1.61,1.032-5.275
					c5.405-6.892,7.208-4.573,7.468-3.801c0.256,0.772,0.387,1.223,1.154,0.904c0.774-0.323,1.677-2.64-0.898-3.938
					c-4.766-2.389-11.972,8.505-12.102,9.278c-0.132,0.772-2.516,4.377-3.414,3.544c-1.162-1.356,1.997-8.308,0.643-9.916
					c-1.354-1.609-6.761,5.15-7.916,6.885c-1.16,1.74,0.834-3.863,2.056-6.628c1.226-2.764,0.453-2.896-0.706-3.155
					c-1.158-0.257-3.285,7.143-3.541,8.048c-0.259,0.897-3.477,3.413-4.637,4.38c-1.155,0.965,1.736-9.403,2.383-10.69
					c0.644-1.288-0.967-1.738-0.967-1.738c-0.665-0.343-0.966,0.661-0.966,0.661s-1.888,4.469-2.494,7.47
					c-0.595,3.007-0.853,5.321,0.606,6.616c1.457,1.281,5.405-2.665,5.405-2.665c-0.342,2.575,1.114,2.665,1.803,2.232
					c0.69-0.431,3.437-4.036,5.241-6.095c1.802-2.06,0.854,0.424,0.854,1.973c0,1.546-1.2,4.978,1.893,5.237
					c3.088,0.255,3.515-4.034,4.203-2.148c2.061,4.721,6.608-1.542,7.125-2.144c0.516-0.605-0.431,2.917,0.086,4.042
					c1.459,2.497,4.122,0.078,5.321-1.04c1.204-1.116,1.72-3.947,2.832-1.327c1.117,2.617,3.18,2.357,4.294,2.357
					s3.349-2.146,4.294-3.262c0.943-1.115,0.688-1.629-0.087-2.575C197.885,55.76,196.853,57.647,194.709,59.62z M197.883,33.951
					c1.115,0.258-3.519,14.508-5.062,15.543C192.821,49.494,196.767,33.697,197.883,33.951z"/>
				<circle fill="#FFFFFF" cx="136.764" cy="41.68" r="1.889"/>
				<circle fill="#FFFFFF" cx="160.01" cy="41.68" r="1.889"/>
				<path fill="#FFFFFF" d="M153.227,56.962c-0.517-0.711-1.287-0.647-2.574,0.645c-1.29,1.285-0.902,0.126-0.451-1.031
					c0.451-1.159,0.836-1.614,0-2.645c-0.839-1.028-1.674-0.189-2.387,0.518c-0.708,0.711-5.407,3.865-6.69,4.701
					c-1.288,0.836-2.259-0.578-1.55-2.32c2.517-5.082,9.337-9.334,9.66-8.753c0.321,0.581-2.386,1.546-1.483,2.833
					c0.9,1.285,2.32-0.324,3.156-1.224c0.839-0.898,2.769-2.896,0.579-4.056c-4.443-2.381-13.264,8.566-13.648,9.853
					c-0.386,1.284-2.512,2.897-4.12,4.055c-1.606,1.162,0.388-4.187,1.354-7.343c0.965-3.153,1.736-3.605,0.579-4.699
					c-1.16-1.089-1.933,0.71-1.933,0.71c-0.579,2.189-3.669,11.332-2.19,13.265c1.484,1.927,3.799-0.389,4.574-1.062
					c0.771-0.672,0.32-1.323,2.512,0.608c2.187,1.933,6.692-1.931,8.108-3.154c1.417-1.224,0.578,1.352,0.321,2.546
					c-0.253,1.194-2.701,3.25-3.785,4.41c-1.079,1.155-8.06,6.693-4.842,9.722c3.224,3.024,8.306-7.859,8.884-9.462
					c0.581-1.606-0.319-0.586,2.835-3.801C153.292,58.056,153.741,57.668,153.227,56.962z M140.115,72.155
					c-0.772-0.682,3.69-4.467,3.69-4.467S140.888,72.842,140.115,72.155z"/>
			</g>
		</g>
	</g>
	<g>
		<path fill="#FFFFFF" d="M151.666,69.687v3.784h4.74v-3.784h0.611v8.587h-0.611V73.98h-4.74v4.294h-0.611v-8.587H151.666z"/>
		<path fill="#FFFFFF" d="M164.144,74.006h-3.427v3.758h3.835v0.51h-4.446v-8.587h4.243v0.51h-3.631v3.3h3.427V74.006z"/>
		<path fill="#FFFFFF" d="M168.098,75.268l-1.058,3.007h-0.624l3.109-8.587h0.586l3.083,8.587h-0.625l-1.083-3.007H168.098z
			 M171.309,74.758l-1.045-2.867c-0.216-0.599-0.331-1.032-0.446-1.516h-0.038c-0.115,0.497-0.255,0.943-0.446,1.491l-1.044,2.892
			H171.309z"/>
		<path fill="#FFFFFF" d="M175.543,69.687h0.611v8.078h3.822v0.51h-4.434V69.687z"/>
		<path fill="#FFFFFF" d="M182.911,70.197h-2.803v-0.51h6.218v0.51h-2.803v8.078h-0.611V70.197z"/>
		<path fill="#FFFFFF" d="M188.839,69.687v3.784h4.74v-3.784h0.611v8.587h-0.611V73.98h-4.74v4.294h-0.611v-8.587H188.839z"/>
		<path fill="#FFFFFF" d="M203.101,77.969c-0.433,0.216-1.261,0.433-2.319,0.433c-2.077,0-4.064-1.325-4.064-4.37
			c0-2.548,1.644-4.485,4.358-4.485c1.096,0,1.732,0.242,1.987,0.382l-0.191,0.509c-0.433-0.216-1.058-0.369-1.784-0.369
			c-2.319,0-3.733,1.503-3.733,3.975c0,2.332,1.325,3.835,3.631,3.835c0.726,0,1.439-0.153,1.937-0.395L203.101,77.969z"/>
		<path fill="#FFFFFF" d="M206.597,75.268l-1.058,3.007h-0.624l3.109-8.587h0.586l3.083,8.587h-0.625l-1.083-3.007H206.597z
			 M209.808,74.758l-1.045-2.867c-0.216-0.599-0.331-1.032-0.446-1.516h-0.038c-0.115,0.497-0.255,0.943-0.446,1.491l-1.044,2.892
			H209.808z"/>
		<path fill="#FFFFFF" d="M214.043,69.814c0.535-0.127,1.261-0.191,1.86-0.191c1.122,0,1.835,0.242,2.319,0.727
			c0.37,0.344,0.599,0.917,0.599,1.516c0,1.159-0.688,1.898-1.682,2.242v0.026c0.688,0.216,1.122,0.866,1.325,1.822
			c0.293,1.338,0.458,1.975,0.637,2.319h-0.625c-0.14-0.255-0.318-1.006-0.548-2.089c-0.268-1.236-0.803-1.797-1.937-1.848h-1.338
			v3.937h-0.611V69.814z M214.654,73.84h1.363c1.325,0,2.191-0.739,2.191-1.873c0-1.312-0.968-1.848-2.319-1.848
			c-0.586,0-1.019,0.063-1.236,0.115V73.84z"/>
		<path fill="#FFFFFF" d="M225.539,74.006h-3.427v3.758h3.835v0.51H221.5v-8.587h4.243v0.51h-3.631v3.3h3.427V74.006z"/>
	</g>
</g>
</svg>
