<?xml version="1.0" encoding="utf-8"?>
<!-- Generator: Adobe Illustrator 16.0.0, SVG Export Plug-In . SVG Version: 6.00 Build 0)  -->
<!DOCTYPE svg PUBLIC "-//W3C//DTD SVG 1.1//EN" "http://www.w3.org/Graphics/SVG/1.1/DTD/svg11.dtd">
<svg version="1.1" id="Layer_1" xmlns="http://www.w3.org/2000/svg" xmlns:xlink="http://www.w3.org/1999/xlink" x="0px" y="0px"
	 width="128.004px" height="54.902px" viewBox="0 0 128.004 54.902" enable-background="new 0 0 128.004 54.902"
	 xml:space="preserve">
<g>
	<g>
		<path d="M27.865,0.504c-14.884,0-26.949,12.064-26.949,26.947c0,14.884,12.065,26.947,26.949,26.947
			c14.884,0,26.949-12.063,26.949-26.947C54.814,12.568,42.749,0.503,27.865,0.504z M27.772,52.918
			c-14.132,0-25.591-11.457-25.591-25.59c0-14.134,11.458-25.591,25.591-25.591c14.134-0.002,25.591,11.456,25.591,25.59
			C53.363,41.459,41.906,52.918,27.772,52.918z"/>
		<path d="M10.499,33.831v1.383h4.768c0,0,7.462,1.059,7.462-7.763c0-8.82-5.39-7.992-12.23-7.992c0,11.124,0,11.124,0,11.124h1.382
			v-9.948h4.734c0,0,3.765,0.207,4.663,4.491c0.897,4.284-0.829,8.705-5.805,8.705H10.499z"/>
		<path d="M22.729,19.438c0,0,0.899,0.736,1.221,1.196h4.56c0,0,3.824,0.091,3.824,3.315s-2.027,3.823-3.501,3.823
			c-1.474,0-4.468,0-4.468,0v7.479h1.382V29.11h3.132c0,0,3.961-0.138,4.698-3.132c0.737-2.995-0.277-6.54-4.515-6.54
			C24.825,19.438,22.729,19.438,22.729,19.438z"/>
		<path d="M44.494,20.173l-0.691,1.061c0,0-6.725-2.118-7.186,1.89c-0.461,4.006,5.112,2.762,6.955,3.868
			c1.843,1.104,2.856,3.868,1.566,6.034c-1.29,2.163-5.619,3.777-10.041,1.197l0.83-0.968c0,0,6.586,2.396,8.245-1.289
			c0.782-1.796-0.875-4.33-4.054-4.515c-3.178-0.184-4.79-1.012-5.021-4.375C34.866,19.713,40.072,18.146,44.494,20.173z"/>
	</g>
	<g>
		<path d="M68.019,21.633c-0.048-1.053-0.109-2.323-0.097-3.424h-0.037c-0.266,0.992-0.605,2.093-0.968,3.122l-1.198,3.533h-1.138
			l-1.089-3.485c-0.315-1.041-0.605-2.154-0.823-3.17h-0.024c-0.036,1.065-0.084,2.359-0.145,3.473l-0.182,3.279h-1.392l0.544-8.156
			h1.96l1.065,3.279c0.29,0.956,0.544,1.924,0.75,2.832h0.036c0.218-0.883,0.496-1.888,0.811-2.844l1.125-3.267h1.936l0.472,8.156
			h-1.452L68.019,21.633z"/>
		<path d="M72.696,22.65l-0.702,2.311h-1.537l2.614-8.156h1.9l2.649,8.156h-1.608l-0.739-2.311H72.696z M75.031,21.524l-0.642-2.009
			c-0.157-0.496-0.29-1.053-0.411-1.524h-0.024c-0.121,0.472-0.254,1.041-0.387,1.524l-0.629,2.009H75.031z"/>
		<path d="M78.754,16.926c0.568-0.109,1.392-0.181,2.25-0.181c1.174,0,1.961,0.193,2.518,0.653c0.447,0.375,0.701,0.944,0.701,1.646
			c0,1.053-0.714,1.767-1.488,2.033v0.037c0.593,0.218,0.944,0.786,1.138,1.573c0.267,1.017,0.484,1.96,0.642,2.275h-1.525
			c-0.12-0.242-0.326-0.908-0.544-1.924c-0.242-1.065-0.617-1.404-1.464-1.428h-0.751v3.352h-1.476V16.926z M80.229,20.52h0.884
			c1.004,0,1.621-0.532,1.621-1.343c0-0.883-0.617-1.307-1.585-1.307c-0.472,0-0.774,0.037-0.92,0.073V20.52z"/>
		<path d="M85.635,16.805h1.476v3.751h0.037c0.193-0.315,0.398-0.605,0.593-0.883l2.142-2.868h1.827l-2.808,3.473l2.989,4.683
			h-1.743l-2.299-3.739l-0.738,0.871v2.868h-1.476V16.805z"/>
		<path d="M97.234,21.343h-3.073v2.396h3.437v1.222h-4.925v-8.156h4.743v1.222h-3.255v2.105h3.073V21.343z"/>
		<path d="M100.582,18.052h-2.323v-1.247h6.159v1.247h-2.348v6.909h-1.488V18.052z"/>
		<path d="M106.858,16.805v8.156h-1.488v-8.156H106.858z"/>
		<path d="M108.55,24.961v-8.156h1.706l2.105,3.497c0.533,0.908,1.017,1.852,1.392,2.735h0.024
			c-0.108-1.089-0.133-2.142-0.133-3.388v-2.844h1.379v8.156h-1.549l-2.129-3.594c-0.521-0.896-1.053-1.888-1.452-2.807
			l-0.049,0.012c0.061,1.053,0.085,2.13,0.085,3.473v2.916H108.55z"/>
		<path d="M123.271,24.586c-0.521,0.193-1.537,0.459-2.614,0.459c-1.379,0-2.432-0.351-3.206-1.089
			c-0.727-0.689-1.138-1.767-1.138-3.001c0.012-2.589,1.839-4.235,4.538-4.235c1.004,0,1.79,0.206,2.165,0.387l-0.326,1.198
			c-0.448-0.206-0.992-0.351-1.852-0.351c-1.742,0-2.965,1.028-2.965,2.928c0,1.851,1.138,2.952,2.832,2.952
			c0.544,0,0.932-0.072,1.125-0.157v-2.045h-1.439v-1.174h2.88V24.586z"/>
		<path d="M62.768,34.743l-0.702,2.311h-1.537l2.614-8.156h1.9l2.65,8.156h-1.609l-0.738-2.311H62.768z M65.103,33.617l-0.642-2.009
			c-0.157-0.496-0.29-1.053-0.411-1.524h-0.024c-0.121,0.472-0.254,1.041-0.387,1.524l-0.629,2.009H65.103z"/>
		<path d="M68.813,37.054v-8.156h1.706l2.105,3.497c0.532,0.908,1.016,1.852,1.392,2.735h0.024
			c-0.109-1.089-0.133-2.142-0.133-3.388v-2.844h1.379v8.156h-1.549l-2.13-3.594c-0.52-0.896-1.053-1.888-1.452-2.807l-0.048,0.012
			c0.061,1.053,0.085,2.13,0.085,3.473v2.916H68.813z"/>
		<path d="M77,29.007c0.665-0.097,1.488-0.169,2.371-0.169c1.525,0,2.565,0.314,3.315,0.943c0.799,0.642,1.283,1.622,1.283,3.001
			c0,1.464-0.496,2.541-1.271,3.243c-0.811,0.738-2.105,1.113-3.69,1.113c-0.859,0-1.513-0.048-2.009-0.109V29.007z M78.488,35.928
			c0.205,0.037,0.521,0.037,0.822,0.037c1.937,0.012,3.086-1.065,3.086-3.134C82.408,31.04,81.368,30,79.505,30
			c-0.473,0-0.799,0.036-1.017,0.084V35.928z"/>
		<path d="M87.763,29.007c0.665-0.097,1.488-0.169,2.371-0.169c1.525,0,2.565,0.314,3.315,0.943
			c0.799,0.642,1.283,1.622,1.283,3.001c0,1.464-0.496,2.541-1.271,3.243c-0.811,0.738-2.105,1.113-3.69,1.113
			c-0.859,0-1.513-0.048-2.009-0.109V29.007z M89.251,35.928c0.205,0.037,0.521,0.037,0.822,0.037
			c1.937,0.012,3.086-1.065,3.086-3.134C93.171,31.04,92.131,30,90.268,30c-0.473,0-0.799,0.036-1.017,0.084V35.928z"/>
		<path d="M100.584,33.436h-3.073v2.396h3.437v1.222h-4.925v-8.156h4.743v1.222h-3.255v2.105h3.073V33.436z"/>
		<path d="M102.226,35.432c0.472,0.278,1.21,0.521,1.973,0.521c0.943,0,1.476-0.448,1.476-1.113c0-0.617-0.411-0.98-1.439-1.355
			c-1.355-0.484-2.215-1.198-2.215-2.372c0-1.343,1.113-2.347,2.893-2.347c0.883,0,1.524,0.193,1.948,0.411l-0.352,1.198
			c-0.303-0.157-0.871-0.387-1.633-0.387c-0.944,0-1.344,0.496-1.344,0.98c0,0.629,0.472,0.919,1.562,1.343
			c1.415,0.532,2.093,1.246,2.093,2.42c0,1.319-0.992,2.457-3.086,2.457c-0.871,0-1.767-0.242-2.214-0.521L102.226,35.432z"/>
		<path d="M110.015,28.898v8.156h-1.488v-8.156H110.015z"/>
		<path d="M118.253,36.679c-0.521,0.193-1.537,0.459-2.614,0.459c-1.379,0-2.432-0.351-3.206-1.089
			c-0.727-0.689-1.138-1.767-1.138-3.001c0.012-2.589,1.839-4.235,4.538-4.235c1.004,0,1.79,0.206,2.165,0.387l-0.326,1.198
			c-0.448-0.206-0.992-0.351-1.852-0.351c-1.742,0-2.965,1.028-2.965,2.928c0,1.851,1.138,2.952,2.832,2.952
			c0.544,0,0.932-0.072,1.125-0.157v-2.045h-1.439v-1.174h2.88V36.679z"/>
		<path d="M119.76,37.054v-8.156h1.706l2.105,3.497c0.533,0.908,1.017,1.852,1.392,2.735h0.024
			c-0.108-1.089-0.133-2.142-0.133-3.388v-2.844h1.379v8.156h-1.549l-2.129-3.594c-0.521-0.896-1.053-1.888-1.452-2.807
			l-0.049,0.012c0.061,1.053,0.085,2.13,0.085,3.473v2.916H119.76z"/>
	</g>
</g>
<g>
</g>
<g>
</g>
<g>
</g>
<g>
</g>
<g>
</g>
<g>
</g>
</svg>
