<?xml version="1.0" encoding="utf-8"?>
<!-- Generator: Adobe Illustrator 16.0.0, SVG Export Plug-In . SVG Version: 6.00 Build 0)  -->
<!DOCTYPE svg PUBLIC "-//W3C//DTD SVG 1.1//EN" "http://www.w3.org/Graphics/SVG/1.1/DTD/svg11.dtd">
<svg version="1.1" id="Layer_1" xmlns="http://www.w3.org/2000/svg" xmlns:xlink="http://www.w3.org/1999/xlink" x="0px" y="0px"
	 width="150px" height="54.902px" viewBox="0 0 150 54.902" enable-background="new 0 0 150 54.902" xml:space="preserve">
<g>
	<g>
		<path d="M39.291,0.504c-14.884,0-26.949,12.064-26.949,26.947c0,14.884,12.065,26.947,26.949,26.947
			c14.884,0,26.949-12.063,26.949-26.947C66.24,12.568,54.175,0.503,39.291,0.504z M39.198,52.918
			c-14.132,0-25.591-11.457-25.591-25.59c0-14.134,11.458-25.591,25.591-25.591c14.134-0.002,25.591,11.456,25.591,25.59
			C64.789,41.459,53.332,52.918,39.198,52.918z"/>
		<path d="M21.925,33.831v1.383h4.768c0,0,7.462,1.06,7.462-7.763c0-8.82-5.39-7.992-12.23-7.992c0,11.124,0,11.124,0,11.124h1.382
			v-9.948h4.734c0,0,3.765,0.207,4.663,4.491c0.897,4.284-0.829,8.705-5.805,8.705H21.925z"/>
		<path d="M34.155,19.438c0,0,0.899,0.735,1.221,1.195h4.56c0,0,3.824,0.092,3.824,3.315s-2.027,3.823-3.501,3.823s-4.468,0-4.468,0
			v7.479h1.382V29.11h3.132c0,0,3.961-0.138,4.698-3.132c0.737-2.995-0.277-6.54-4.515-6.54
			C36.251,19.438,34.155,19.438,34.155,19.438z"/>
		<path d="M55.92,20.173l-0.691,1.062c0,0-6.725-2.118-7.186,1.89c-0.461,4.006,5.112,2.762,6.955,3.868
			c1.843,1.104,2.856,3.868,1.566,6.034c-1.29,2.163-5.619,3.776-10.041,1.197l0.83-0.969c0,0,6.586,2.396,8.245-1.289
			c0.782-1.796-0.875-4.33-4.054-4.515c-3.178-0.184-4.79-1.012-5.021-4.375S51.498,18.146,55.92,20.173z"/>
	</g>
	<g>
		<path d="M79.445,21.633c-0.049-1.053-0.109-2.322-0.098-3.424h-0.037c-0.266,0.992-0.605,2.093-0.968,3.122l-1.198,3.533h-1.138
			l-1.089-3.485c-0.315-1.041-0.605-2.153-0.823-3.17h-0.024c-0.036,1.065-0.084,2.359-0.145,3.474l-0.182,3.278h-1.392l0.544-8.155
			h1.96l1.065,3.278c0.29,0.956,0.544,1.924,0.75,2.832h0.036c0.218-0.883,0.496-1.888,0.811-2.844l1.125-3.267h1.936l0.473,8.155
			h-1.452L79.445,21.633z"/>
		<path d="M84.121,22.65l-0.701,2.311h-1.537l2.613-8.155h1.9l2.649,8.155h-1.608l-0.738-2.311H84.121z M86.457,21.524l-0.643-2.009
			c-0.156-0.496-0.289-1.054-0.41-1.524H85.38c-0.121,0.472-0.254,1.041-0.388,1.524l-0.629,2.009H86.457z"/>
		<path d="M90.18,16.926c0.568-0.108,1.393-0.181,2.25-0.181c1.174,0,1.961,0.193,2.518,0.653c0.447,0.375,0.701,0.943,0.701,1.646
			c0,1.054-0.714,1.768-1.488,2.033v0.037c0.594,0.218,0.945,0.786,1.139,1.573c0.268,1.017,0.484,1.96,0.643,2.274h-1.525
			c-0.12-0.242-0.326-0.907-0.545-1.924c-0.241-1.064-0.616-1.404-1.463-1.428h-0.752v3.352h-1.476L90.18,16.926L90.18,16.926z
			 M91.654,20.52h0.885c1.004,0,1.621-0.532,1.621-1.344c0-0.883-0.617-1.307-1.586-1.307c-0.472,0-0.773,0.037-0.92,0.073V20.52z"
			/>
		<path d="M97.061,16.805h1.477v3.751h0.037c0.192-0.315,0.397-0.605,0.593-0.884l2.142-2.867h1.827l-2.808,3.473l2.988,4.683
			h-1.742l-2.299-3.738l-0.738,0.87v2.868h-1.477V16.805z"/>
		<path d="M108.66,21.343h-3.073v2.396h3.437v1.222h-4.925v-8.155h4.743v1.222h-3.255v2.104h3.073V21.343z"/>
		<path d="M112.008,18.052h-2.323v-1.246h6.159v1.246h-2.348v6.909h-1.488V18.052z"/>
		<path d="M118.283,16.805v8.155h-1.487v-8.155H118.283z"/>
		<path d="M119.976,24.961v-8.155h1.706l2.105,3.496c0.533,0.908,1.017,1.853,1.392,2.735h0.024
			c-0.108-1.089-0.133-2.142-0.133-3.388v-2.844h1.379v8.155H124.9l-2.129-3.594c-0.521-0.896-1.054-1.888-1.453-2.807l-0.049,0.012
			c0.061,1.053,0.086,2.13,0.086,3.473v2.916H119.976z"/>
		<path d="M134.697,24.586c-0.521,0.193-1.537,0.459-2.614,0.459c-1.38,0-2.433-0.351-3.206-1.089
			c-0.727-0.688-1.139-1.767-1.139-3.001c0.013-2.589,1.84-4.235,4.539-4.235c1.004,0,1.789,0.206,2.164,0.388l-0.326,1.198
			c-0.447-0.206-0.991-0.352-1.852-0.352c-1.742,0-2.965,1.028-2.965,2.928c0,1.852,1.139,2.952,2.832,2.952
			c0.544,0,0.932-0.071,1.125-0.157v-2.045h-1.439v-1.174h2.881V24.586z"/>
		<path d="M74.194,34.743l-0.702,2.312h-1.537l2.614-8.156h1.9l2.65,8.156H77.51l-0.738-2.312H74.194z M76.529,33.617l-0.643-2.009
			c-0.156-0.496-0.29-1.053-0.411-1.524h-0.024c-0.121,0.473-0.254,1.041-0.387,1.524l-0.629,2.009H76.529z"/>
		<path d="M80.238,37.054v-8.156h1.707l2.104,3.497c0.532,0.907,1.017,1.852,1.392,2.734h0.024
			c-0.108-1.089-0.133-2.142-0.133-3.388v-2.844h1.379v8.156h-1.55l-2.129-3.595c-0.521-0.896-1.053-1.888-1.453-2.807l-0.047,0.012
			c0.061,1.053,0.084,2.13,0.084,3.474v2.916H80.238z"/>
		<path d="M88.426,29.007c0.665-0.097,1.488-0.169,2.371-0.169c1.525,0,2.564,0.314,3.314,0.943
			c0.799,0.642,1.283,1.622,1.283,3.001c0,1.464-0.496,2.541-1.271,3.243c-0.812,0.738-2.105,1.113-3.69,1.113
			c-0.859,0-1.513-0.049-2.009-0.109L88.426,29.007L88.426,29.007z M89.914,35.927c0.205,0.037,0.521,0.037,0.822,0.037
			c1.937,0.013,3.086-1.064,3.086-3.134C93.834,31.04,92.794,30,90.931,30c-0.473,0-0.799,0.036-1.017,0.084V35.927z"/>
		<path d="M99.189,29.007c0.664-0.097,1.487-0.169,2.37-0.169c1.525,0,2.565,0.314,3.315,0.943c0.799,0.642,1.283,1.622,1.283,3.001
			c0,1.464-0.496,2.541-1.271,3.243c-0.811,0.738-2.105,1.113-3.689,1.113c-0.859,0-1.514-0.049-2.01-0.109v-8.022H99.189z
			 M100.677,35.927c0.205,0.037,0.521,0.037,0.822,0.037c1.937,0.013,3.086-1.064,3.086-3.134c0.012-1.791-1.028-2.831-2.892-2.831
			c-0.473,0-0.799,0.036-1.017,0.084V35.927z"/>
		<path d="M112.01,33.436h-3.072v2.396h3.437v1.223h-4.925v-8.156h4.742v1.222h-3.254v2.105h3.072V33.436z"/>
		<path d="M113.652,35.432c0.472,0.277,1.209,0.521,1.973,0.521c0.943,0,1.476-0.448,1.476-1.113c0-0.616-0.411-0.979-1.438-1.354
			c-1.355-0.484-2.215-1.198-2.215-2.372c0-1.343,1.112-2.347,2.893-2.347c0.883,0,1.523,0.192,1.947,0.41l-0.352,1.198
			c-0.303-0.157-0.871-0.387-1.633-0.387c-0.943,0-1.344,0.496-1.344,0.979c0,0.63,0.472,0.92,1.562,1.344
			c1.414,0.531,2.092,1.246,2.092,2.42c0,1.318-0.992,2.457-3.086,2.457c-0.871,0-1.767-0.242-2.213-0.521L113.652,35.432z"/>
		<path d="M121.441,28.898v8.156h-1.488v-8.156H121.441z"/>
		<path d="M129.679,36.679c-0.521,0.192-1.537,0.459-2.614,0.459c-1.379,0-2.432-0.352-3.205-1.09
			c-0.728-0.688-1.139-1.767-1.139-3.001c0.012-2.589,1.839-4.234,4.538-4.234c1.004,0,1.79,0.206,2.165,0.387l-0.326,1.198
			c-0.447-0.206-0.992-0.352-1.852-0.352c-1.742,0-2.965,1.028-2.965,2.929c0,1.851,1.138,2.951,2.832,2.951
			c0.543,0,0.932-0.071,1.125-0.156v-2.045h-1.439v-1.175h2.88V36.679z"/>
		<path d="M131.186,37.054v-8.156h1.706l2.104,3.497c0.533,0.907,1.018,1.852,1.393,2.734h0.023
			c-0.107-1.089-0.133-2.142-0.133-3.388v-2.844h1.379v8.156h-1.549l-2.129-3.595c-0.521-0.896-1.053-1.888-1.451-2.807
			l-0.049,0.012c0.061,1.053,0.084,2.13,0.084,3.474v2.916H131.186z"/>
	</g>
</g>
</svg>
