<?xml version="1.0" encoding="utf-8"?>
<!-- Generator: Adobe Illustrator 16.0.0, SVG Export Plug-In . SVG Version: 6.00 Build 0)  -->
<!DOCTYPE svg PUBLIC "-//W3C//DTD SVG 1.1//EN" "http://www.w3.org/Graphics/SVG/1.1/DTD/svg11.dtd">
<svg version="1.1" id="Layer_1" xmlns="http://www.w3.org/2000/svg" xmlns:xlink="http://www.w3.org/1999/xlink" x="0px" y="0px"
	 width="150px" height="54.902px" viewBox="0 0 150 54.902" enable-background="new 0 0 150 54.902" xml:space="preserve">
<g>
	<g>
		<g>
			<g>
				<path d="M27.76,0.978c-14.621,0-26.473,11.849-26.473,26.472c0,14.618,11.853,26.474,26.473,26.474S54.232,42.069,54.232,27.45
					C54.232,12.826,42.38,0.978,27.76,0.978z M27.671,52.464c-13.885,0-25.14-11.252-25.14-25.139
					c0-13.882,11.255-25.14,25.14-25.14c13.882,0,25.138,11.258,25.138,25.14C52.809,41.212,41.554,52.464,27.671,52.464z"/>
				<path d="M10.7,33.716v1.357h4.685c0,0,7.328,1.042,7.328-7.624c0-8.665-5.293-7.853-12.013-7.853c0,10.929,0,10.929,0,10.929
					h1.358v-9.773h4.649c0,0,3.7,0.201,4.582,4.411c0.882,4.208-0.813,8.553-5.7,8.553H10.7z"/>
				<path d="M22.713,19.575c0,0,0.884,0.726,1.201,1.177h4.479c0,0,3.756,0.088,3.756,3.261c0,3.166-1.992,3.753-3.439,3.753
					c-1.449,0-4.39,0-4.39,0v7.349h1.358v-6.035h3.077c0,0,3.893-0.137,4.614-3.077c0.724-2.938-0.27-6.426-4.435-6.426
					C24.774,19.575,22.713,19.575,22.713,19.575z"/>
				<path d="M44.096,20.301l-0.679,1.038c0,0-6.605-2.082-7.059,1.856c-0.452,3.937,5.022,2.714,6.833,3.801
					c1.809,1.086,2.806,3.803,1.538,5.929c-1.266,2.127-5.52,3.709-9.865,1.179l0.815-0.955c0,0,6.47,2.356,8.098-1.266
					c0.771-1.763-0.859-4.253-3.981-4.434c-3.122-0.181-4.706-0.995-4.933-4.299S39.751,18.308,44.096,20.301z"/>
			</g>
			<g>
				<path d="M78.03,21.656c-2.801-7.717-10.263-5.428-10.263-5.428c-7.719,2.628-8.992,11.448-7.803,16.79
					c1.188,5.347,5.511,7.295,9.499,5.938C73.449,37.603,80.827,29.374,78.03,21.656z M69.515,37.635
					c-3.31,1.2-6.903-0.523-7.888-5.245c-0.984-4.722,0.072-12.517,6.479-14.843c0,0,6.198-2.021,8.523,4.799
					C78.953,29.167,72.825,36.438,69.515,37.635z"/>
				<path d="M78.645,31.409c0,0,0.654-0.719,0.4-1.144c-0.254-0.428,0-2.291,1.824-0.47c1.822,1.824,2.798,2.333,1.443,4.157
					c-1.358,1.823-2.504,3.566-2.166,4.051c0.341,0.484,3.266-3.331,3.816-2.609c0.553,0.724,0.721,0.637,0,1.401
					c-0.72,0.762-3.436,4.321-5.09,2.969c-1.654-1.359,1.613-5.727,2.122-6.404c0.509-0.68,0.425-0.893,0-1.23
					c-0.424-0.338-0.424-0.931-1.655,0.849c-1.228,1.784-3.01,4.37-3.688,3.183C74.976,34.97,76.512,35.183,78.645,31.409z"/>
				<path d="M127.107,37.486c-1.41,1.306-1.699-0.79-1.866-1.524c-0.169-0.734,0.058-1.583,0.678-2.375
					c0.624-0.792,2.095-3.278,3.224-5.766c1.131-2.489,2.886-8.54,0.623-9.104c-2.26-0.565-3.562,4.863-5.26,10.743
					c-1.693,5.876-0.565,6.388-0.565,6.388s0,0-0.677,0c-0.68,0-2.064,1.627-2.787,2.432c-0.719,0.808,0.299-3.176,0.511-3.562
					c0.212-0.381,0.594-0.805-0.127-1.441c-0.722-0.635-4.452,3.73-4.962,4.112c-0.508,0.383-2.883,1.062,0.681-3.476
					c3.562-4.539,4.747-3.011,4.919-2.504c0.169,0.509,0.254,0.807,0.76,0.597c0.512-0.214,1.105-1.739-0.591-2.595
					c-3.14-1.573-7.886,5.604-7.972,6.111c-0.087,0.509-1.657,2.883-2.248,2.334c-0.766-0.895,1.314-5.473,0.423-6.531
					s-4.454,3.393-5.215,4.536c-0.765,1.146,0.55-2.544,1.354-4.366c0.808-1.82,0.299-1.908-0.466-2.077
					c-0.764-0.17-2.163,4.704-2.333,5.3c-0.17,0.592-2.289,2.249-3.054,2.886c-0.761,0.637,1.144-6.193,1.569-7.041
					c0.424-0.85-0.637-1.145-0.637-1.145c-0.438-0.227-0.637,0.436-0.637,0.436s-1.243,2.941-1.645,4.92
					c-0.392,1.979-0.561,3.506,0.4,4.357c0.959,0.845,3.561-1.756,3.561-1.756c-0.226,1.696,0.734,1.756,1.188,1.471
					c0.455-0.282,2.264-2.657,3.452-4.015c1.187-1.356,0.563,0.279,0.563,1.3c0,1.019-0.791,3.278,1.246,3.449
					c2.033,0.168,2.313-2.657,2.769-1.415c1.356,3.109,4.353-1.017,4.692-1.412c0.34-0.397-0.283,1.923,0.058,2.662
					c0.961,1.646,2.715,0.052,3.505-0.685c0.793-0.735,1.133-2.601,1.865-0.874c0.734,1.724,2.094,1.553,2.828,1.553
					c0.733,0,2.205-1.414,2.828-2.147c0.621-0.733,0.453-1.073-0.058-1.696C129.199,34.944,128.52,36.187,127.107,37.486z
					 M129.197,20.579c0.734,0.17-2.316,9.556-3.334,10.237C125.863,30.816,128.463,20.412,129.197,20.579z"/>
				<circle cx="88.94" cy="25.67" r="1.244"/>
				<circle cx="104.251" cy="25.67" r="1.244"/>
				<path d="M99.783,35.735c-0.34-0.469-0.848-0.427-1.695,0.425c-0.85,0.847-0.594,0.084-0.297-0.679
					c0.297-0.765,0.551-1.062,0-1.743c-0.553-0.677-1.104-0.124-1.572,0.342c-0.467,0.468-3.562,2.545-4.406,3.097
					c-0.848,0.552-1.487-0.38-1.021-1.527c1.658-3.349,6.15-6.148,6.363-5.767c0.212,0.384-1.571,1.021-0.978,1.866
					c0.592,0.847,1.527-0.214,2.078-0.807c0.553-0.591,1.824-1.907,0.383-2.671c-2.928-1.569-8.736,5.642-8.99,6.49
					c-0.254,0.845-1.654,1.906-2.715,2.67c-1.058,0.766,0.257-2.759,0.893-4.838c0.637-2.074,1.145-2.373,0.382-3.095
					c-0.765-0.717-1.272,0.469-1.272,0.469c-0.381,1.44-2.416,7.464-1.442,8.735c0.978,1.271,2.502-0.255,3.013-0.699
					c0.508-0.441,0.211-0.87,1.654,0.4c1.439,1.272,4.408-1.271,5.342-2.077s0.381,0.891,0.211,1.677
					c-0.166,0.787-1.779,2.142-2.492,2.904c-0.711,0.761-5.31,4.409-3.189,6.404c2.123,1.991,5.473-5.176,5.852-6.232
					c0.383-1.059-0.209-0.387,1.867-2.504C99.826,36.456,100.122,36.2,99.783,35.735z M91.146,45.743
					c-0.51-0.449,2.432-2.941,2.432-2.941S91.656,46.195,91.146,45.743z"/>
			</g>
		</g>
	</g>
	<g>
		<path d="M98.039,42.115v2.367h2.736v-2.367h0.738v5.656h-0.738v-2.652h-2.736v2.652h-0.738v-5.656H98.039z"/>
		<path d="M106.377,45.12h-2.191v2.039h2.451v0.613h-3.188v-5.656h3.062v0.612h-2.324v1.788h2.191V45.12z"/>
		<path d="M109.174,45.992l-0.588,1.779h-0.756l1.93-5.656h0.873l1.933,5.656h-0.781l-0.604-1.779H109.174z M111.037,45.421
			l-0.562-1.628c-0.127-0.369-0.211-0.705-0.295-1.031h-0.016c-0.084,0.326-0.168,0.68-0.285,1.023l-0.555,1.636H111.037z"/>
		<path d="M114.061,42.115h0.738v5.043h2.418v0.613h-3.156V42.115z"/>
		<path d="M119.039,42.736h-1.721v-0.621h4.189v0.621h-1.73v5.036h-0.738V42.736z"/>
		<path d="M123.541,42.115v2.367h2.734v-2.367h0.74v5.656h-0.74v-2.652h-2.734v2.652h-0.738v-5.656H123.541z"/>
		<path d="M132.9,47.595c-0.26,0.134-0.805,0.269-1.494,0.269c-1.594,0-2.785-1.007-2.785-2.87c0-1.779,1.199-2.971,2.953-2.971
			c0.697,0,1.15,0.15,1.344,0.251l-0.186,0.596c-0.268-0.135-0.662-0.235-1.133-0.235c-1.326,0-2.207,0.849-2.207,2.333
			c0,1.395,0.797,2.274,2.166,2.274c0.453,0,0.906-0.092,1.199-0.235L132.9,47.595z"/>
		<path d="M135.447,45.992l-0.588,1.779h-0.754l1.93-5.656h0.873l1.93,5.656h-0.781l-0.604-1.779H135.447z M137.311,45.421
			l-0.562-1.628c-0.125-0.369-0.209-0.705-0.293-1.031h-0.018c-0.084,0.326-0.168,0.68-0.285,1.023l-0.553,1.636H137.311z"/>
		<path d="M140.344,42.19c0.369-0.067,0.906-0.117,1.4-0.117c0.781,0,1.293,0.151,1.637,0.461c0.277,0.252,0.445,0.638,0.445,1.083
			c0,0.739-0.471,1.234-1.057,1.435v0.025c0.428,0.151,0.688,0.554,0.822,1.141c0.184,0.789,0.317,1.334,0.436,1.554h-0.756
			c-0.092-0.168-0.217-0.646-0.369-1.352c-0.168-0.78-0.479-1.073-1.141-1.1h-0.688v2.451h-0.729V42.19L140.344,42.19z
			 M141.074,44.767h0.746c0.781,0,1.275-0.429,1.275-1.074c0-0.73-0.529-1.049-1.302-1.049c-0.352,0-0.596,0.024-0.721,0.059
			L141.074,44.767L141.074,44.767z"/>
		<path d="M148.453,45.12h-2.191v2.039h2.451v0.613h-3.188v-5.656h3.062v0.612h-2.324v1.788h2.191V45.12z"/>
	</g>
</g>
</svg>
