<?xml version="1.0" encoding="utf-8"?>
<!-- Generator: Adobe Illustrator 16.0.0, SVG Export Plug-In . SVG Version: 6.00 Build 0)  -->
<!DOCTYPE svg PUBLIC "-//W3C//DTD SVG 1.1//EN" "http://www.w3.org/Graphics/SVG/1.1/DTD/svg11.dtd">
<svg version="1.1" id="Layer_1" xmlns="http://www.w3.org/2000/svg" xmlns:xlink="http://www.w3.org/1999/xlink" x="0px" y="0px"
	 width="80px" height="80px" viewBox="0 0 80 80" enable-background="new 0 0 80 80" xml:space="preserve">
<g>
	<path fill-rule="evenodd" clip-rule="evenodd" fill="#3E6DB2" d="M7.558,38.396l0.023-0.047h0.043H7.78h2.103h0.024h0.154
		l0.022,0.047l0.021,0.043v0.42v0.066l-0.021,0.021l-0.022,0.022H9.818H8.511H8.355l-0.043,0.024v0.043v0.022v0.598v0.022v0.065
		h0.022L8.4,39.767h0.508l0.754,0.024h0.11h0.045l0,0l0.021,0.019v0.069l0.025,0.376v0.043l-0.025,0.043l-0.042,0.022H9.751H8.467
		H8.422H8.355l-0.021,0.021l-0.022,0.047v1.24v0.152L8.29,41.851H8.158H7.979H7.647H7.603v-0.025L7.581,41.76v-0.064l-0.023-3.035
		V38.396L7.558,38.396L7.558,38.396z M10.148,39.679v-0.29v-0.022l0.025-0.022h0.285h0.093h0.108l0.132,0.022l0.044,0.022v0.178
		v0.112l0.023,1.153v0.021v0.065l0.021,0.134l0.023,0.087l0.067,0.065l0.11,0.088l0.067,0.025l0.132,0.021l0.134-0.021l0.087-0.047
		l0.089-0.066l0.089-0.087l0.045-0.178l0.021-0.108v-0.355v-0.068v-0.486v-0.377v-0.044V39.39v-0.022l0.022-0.022h0.087h0.4h0.109
		l0.046,0.022v0.047v0.065v0.065v0.156l0.022,1.838v0.264v0.022l-0.022,0.044h-0.135h-0.441l-0.045-0.019l-0.022-0.048l-0.022-0.13
		v-0.025h-0.021H11.7l-0.022,0.025l-0.022,0.044l-0.044,0.018l-0.044,0.047L11.5,41.825l-0.11,0.069l-0.11,0.021l-0.11,0.021
		l-0.245,0.02l-0.109-0.02l-0.067-0.021l-0.134-0.047l-0.063-0.044l-0.114-0.065l-0.11-0.112l-0.065-0.108l-0.067-0.131
		l-0.045-0.225v-0.109v-1.373V39.679L10.148,39.679L10.148,39.679z M12.563,42.492v-0.225V42.18l0.021-0.021l0,0h0.112l0,0
		l0.134-0.021l0.042-0.021l0.069-0.065l0.02-0.069l0.023-0.155l-0.023-1.33v-0.729V39.39v-0.022l0.023-0.022l0.132-0.021h0.021
		h0.378h0.042l0.047,0.021l0.042,0.022v0.069v0.199l0.024,1.792v0.511v0.178l-0.024,0.221l-0.018,0.066l-0.07,0.09l-0.063,0.062
		l-0.087,0.068l-0.135,0.045l-0.111,0.023l0,0l-0.112,0.021l-0.131-0.021h-0.309h-0.045v-0.023v-0.066V42.492L12.563,42.492
		L12.563,42.492z M13.048,38.349h0.047h0.399h0.09h0.021l0.023,0.021v0.047v0.177v0.265v0.044v0.022l-0.023,0.021h-0.598
		l-0.022-0.021H12.96v-0.088v-0.398v-0.043v-0.025L13.048,38.349L13.048,38.349L13.048,38.349z M14.135,41.803l-0.022-2.214V39.39
		l0.022-0.044l0,0h0.02h0.089h0.378h0.132l0.023,0.022H14.8v0.112v0.065v0.065l0,0l0.022,2.149v0.065L14.8,41.851h-0.021h-0.576
		h-0.047L14.135,41.803L14.135,41.803L14.135,41.803z M14.113,38.548v-0.065l0.022-0.087v-0.025h0.045h0.507h0.022h0.045
		l0.023,0.047v0.041v0.246v0.044v0.068v0.109v0.021h-0.023h-0.6h-0.02v-0.021l-0.022-0.088v-0.243V38.548L14.113,38.548
		L14.113,38.548z M15.154,41.094h0.088h0.221h0.044h0.176h0.025v0.046l0.044,0.132l0.067,0.09l0.065,0.065l0.09,0.047l0.196,0.065
		l0.089-0.021l0.044,0.021l0.155-0.043l0.088-0.022l0.131-0.065l0.046-0.115v-0.065v-0.065l-0.046-0.068l-0.107-0.084l-0.156-0.047
		l-0.111-0.022l-0.264-0.065l-0.245-0.043l-0.066-0.025l-0.112-0.043l-0.134-0.065l-0.131-0.09l-0.045-0.043l-0.065-0.069
		l-0.021-0.087l-0.045-0.043l-0.021-0.156v-0.174l0.021-0.137l0.067-0.131l0.043-0.065l0.045-0.066l0.065-0.068l0.067-0.066
		l0.09-0.043l0.087-0.043l0.133-0.069l0.156-0.021l0.065-0.022h0.109l0.067-0.021l0.133,0.021h0.155l0.132,0.043h0.047l0.065,0.022
		l0.176,0.09l0.114,0.087l0.085,0.065l0.112,0.156l0.067,0.131l0.044,0.137V40.1v0.022l-0.025,0.021h-0.175h-0.065l-0.068,0.022
		h-0.22l-0.023-0.022l-0.087-0.177l-0.091-0.087l-0.109-0.069l-0.157-0.019h-0.177l-0.109,0.019l-0.11,0.047l-0.065,0.041
		l-0.045,0.068v0.069V40.1l0.045,0.065l0.065,0.044l0.198,0.068l0.157,0.041l0.132,0.024l0.133,0.022l0.29,0.068l0.043,0.021
		l0.087,0.022l0.177,0.087l0.089,0.09l0.067,0.066l0.088,0.134l0.045,0.24v0.09l-0.023,0.178l-0.021,0.065l-0.044,0.134
		l-0.111,0.135l-0.089,0.086l-0.108,0.069l-0.045,0.044l-0.11,0.043l-0.134,0.043h-0.087l-0.068,0.021h-0.088l-0.065,0.022H16.15
		l-0.221-0.044l-0.134-0.023l-0.132-0.041l-0.156-0.065l-0.131-0.116l-0.114-0.131l-0.063-0.107l-0.045-0.069l-0.067-0.243V41.14
		l0.024-0.021L15.154,41.094L15.154,41.094L15.154,41.094z M17.591,41.074l0.021-0.064l0.043-0.134l0.067-0.134l0.11-0.109
		l0.133-0.087l0.11-0.069l0.245-0.09l0.154-0.021l0.066-0.022l0.156-0.024l0.178-0.041l0.177-0.022l0.112-0.069l0.043-0.021
		l0.045-0.065v-0.09l-0.023-0.043l-0.043-0.087l-0.07-0.044l-0.107-0.043l-0.134-0.024H18.74l-0.154,0.024l-0.112,0.043
		l-0.065,0.063l-0.067,0.093L18.32,40.1l-0.023,0.022l-0.131,0.021l-0.378-0.021h-0.044V40.1l-0.021-0.021l0.043-0.181l0.045-0.131
		l0.044-0.109l0.065-0.09l0.092-0.066l0.043-0.043l0.155-0.09l0.087-0.043l0.222-0.043l0.199-0.022h0.246l0.087,0.022l0.221,0.043
		l0.177,0.043l0.042,0.022l0.157,0.09l0.112,0.131l0.089,0.18l0.042,0.175l0.021,0.069v0.043l0.025,0.177v0.087v0.066l0,0v0.156
		v0.199v0.177l0.021,0.178v0.511l0.022,0.044v0.044v0.018l0.047,0.068v0.022v0.025h-0.025H19.98h-0.177l-0.243,0.019h-0.069h-0.087
		l-0.044-0.019l-0.046-0.155l-0.021-0.066l0,0h-0.021h-0.02l-0.067,0.088l-0.112,0.086l-0.134,0.066l-0.174,0.047l-0.134,0.021
		h-0.244l-0.243-0.068l-0.178-0.066l-0.133-0.107l-0.089-0.092l-0.065-0.086l-0.043-0.109l-0.044-0.09v-0.156V41.074L17.591,41.074
		L17.591,41.074z M18.274,41.031v0.152l0.045,0.088l0.045,0.047l0.089,0.064l0.064,0.025l0.199,0.019l0.135-0.019l0.065-0.025
		l0.089-0.021l0.156-0.109l0.043-0.068l0.045-0.109l0.02-0.112v-0.178v-0.152v-0.025h-0.02h-0.023l-0.29,0.09l-0.065,0.022
		l-0.043,0.021h-0.066l-0.109,0.043l-0.201,0.069l-0.112,0.065l-0.045,0.065L18.274,41.031L18.274,41.031L18.274,41.031z
		 M20.089,39.346h0.024h0.464l0.089,0.022l0.045,0.047l0.042,0.153l0.267,0.953v0.065l0.043,0.112l0.022,0.109h0.023l0,0
		l0.043-0.087l0.045-0.174l0.023-0.112l0.044-0.134l0.132-0.489l0.089-0.374l0.021-0.069l0,0l0.045-0.022h0.065h0.043h0.244
		l0.045-0.021l0.134,0.021l0.043,0.022l0.045,0.09l0.021,0.109l0.022,0.021v0.046l0.308,1.084l0.045,0.134h0.023v-0.021l0.045-0.134
		l0.043-0.203l0.021-0.109l0.089-0.243l0.067-0.309l0.042-0.133l0.069-0.243l0.02-0.112l0.043-0.021h0.089l0.289,0.021h0.246h0.021
		v0.022v0.047l-0.067,0.221l-0.577,1.904l0,0l-0.021,0.09l-0.065,0.174l-0.023,0.048h-0.021l-0.087,0.019h-0.377l-0.11-0.019
		l-0.043-0.025l-0.045-0.152l-0.132-0.468l-0.087-0.352l-0.068-0.268l-0.087-0.268l-0.023-0.019l0,0l-0.022,0.066v0.021
		l-0.199,0.688l-0.088,0.309l-0.065,0.221l-0.045,0.131v0.068l-0.045,0.048l-0.045,0.019H20.91h-0.109l-0.069-0.019v-0.048
		l-0.065-0.155l-0.64-2.146l-0.025-0.087V39.39l0.025-0.022l0,0L20.089,39.346L20.089,39.346L20.089,39.346z M23.677,41.074
		l0.022-0.09l0.045-0.13l0.09-0.134l0.109-0.112l0.177-0.112l0.132-0.062l0.089-0.025l0.176-0.043l0.221-0.047l0.133-0.019
		l0.224-0.043l0.109-0.021l0.067-0.047l0.043-0.065l0.021-0.043l-0.021-0.088l-0.022-0.046l-0.043-0.065l-0.045-0.044l-0.109-0.043
		l-0.112-0.024h-0.132h-0.089l-0.045,0.024l-0.065,0.019l-0.045,0.024l-0.11,0.063l-0.021,0.025l-0.043,0.112l-0.021,0.087h-0.025
		h-0.067l-0.088,0.021h-0.353l-0.044-0.021L23.812,40.1l0.023-0.134l0.044-0.175l0.087-0.18l0.156-0.153l0.087-0.043l0.089-0.069
		l0.134-0.043l0.132-0.021h0.043l0.069-0.022h0.132h0.022h0.243l0.132,0.022l0.111,0.021l0.065,0.022l0.136,0.043l0.089,0.047
		l0.153,0.087l0.045,0.066l0.088,0.112l0.065,0.155l0.067,0.265v0.178v0.177l0.022,0.399v0.199v0.087v0.088v0.065v0.336l0.045,0.152
		l0.02,0.021v0.022v0.025l-0.042,0.019h-0.112h-0.043h-0.156h-0.174h-0.089l-0.047-0.019l-0.02-0.048l-0.047-0.155v-0.019h-0.021
		l-0.065,0.088l-0.089,0.086l-0.132,0.066l-0.156,0.047l-0.155,0.021h-0.156h-0.021H24.54l-0.176-0.021l-0.179-0.047l-0.131-0.066
		l-0.11-0.086l-0.087-0.069l-0.093-0.13l-0.043-0.109l-0.043-0.181V41.074L23.677,41.074L23.677,41.074z M24.386,41.01l-0.022,0.043
		v0.041l0.022,0.111l0.025,0.088l0.042,0.025l0.087,0.064l0.112,0.044h0.131h0.047l0.109-0.019l0.112-0.025l0.109-0.043l0.09-0.088
		l0.065-0.09l0.021-0.109l0.022-0.112v-0.156V40.72v-0.066l-0.022-0.046h-0.021l-0.178,0.069l-0.42,0.13l-0.221,0.09L24.386,41.01
		L24.386,41.01L24.386,41.01z M28.482,41.673v-3.233v-0.043l0.045-0.025h0.089h0.352h0.843h0.221l0.268,0.047l0.177,0.065
		l0.153,0.091l0.156,0.108l0.089,0.109l0.11,0.156l0.067,0.156l0.065,0.287v0.199l-0.022,0.112l-0.02,0.133l-0.023,0.088
		L30.985,40.1l-0.046,0.065l-0.064,0.09l-0.156,0.131l-0.155,0.109l-0.177,0.069l-0.199,0.068h-0.132l0,0h-0.29h-0.199l-0.309,0.021
		l-0.022,0.022l-0.021,0.087v0.156v0.798v0.108l-0.023,0.044h-0.043h-0.599l-0.043-0.019h-0.023V41.76V41.673L28.482,41.673
		L28.482,41.673z M29.214,38.994v0.043v0.842v0.019l0.021,0.093l0.022,0.044h0.021h0.134h0.527h0.047l0.043-0.025l0.067-0.019
		l0.156-0.093l0.067-0.087l0.043-0.087l0.022-0.134v-0.152v-0.069l-0.045-0.13L30.3,39.168l-0.069-0.065l-0.067-0.043l-0.087-0.047
		l-0.155-0.043l-0.199-0.022l-0.378,0.022h-0.087h-0.022L29.214,38.994L29.214,38.994L29.214,38.994z M31.406,38.439l0.021-0.021
		l0.089-0.022h0.42l0,0h0.089l0.043,0.022l0.024,0.021l0.019,0.065v0.069v0.95v0.022l0.024,0.065l0,0l0.021-0.022l0.043-0.043
		l0.156-0.131l0.134-0.069l0.133-0.021l0.174-0.043l0.069,0.021H33l0.131,0.022l0.088,0.043l0.089,0.047l0.176,0.131l0.133,0.178
		l0.044,0.156l0.046,0.156v0.174v0.312l0.022,0.221v0.221v0.772v0.091l-0.022,0.044l-0.021,0.025h-0.623l0,0l-0.021-0.025v-0.135
		v-0.039l0,0v-1.175l-0.024-0.044v-0.159L33,40.209l-0.025-0.087l-0.087-0.087l-0.065-0.069l-0.089-0.043l-0.088-0.025l-0.111,0.025
		l-0.089,0.021l-0.11,0.046l-0.065,0.066l-0.069,0.087l-0.043,0.112l-0.046,0.178v0.043v0.131l0,0v0.555v0.663v0.044l-0.019,0.025
		h-0.043h-0.136h-0.087h-0.243h-0.045h-0.042H31.45l-0.023-0.044l-0.021-0.091l0,0v-3.121V38.439L31.406,38.439L31.406,38.439z
		 M33.951,41.074l0.067-0.199l0.089-0.156l0.155-0.134l0.11-0.065l0.067-0.044l0.153-0.043l0.112-0.047l0.087-0.021l0.267-0.047
		l0.308-0.062l0.112-0.046l0.043-0.022l0.045-0.065l0.043-0.065v-0.047l-0.021-0.087l-0.043-0.065l-0.112-0.047l-0.068-0.043
		l-0.153-0.022l-0.154,0.022l-0.112,0.024l-0.043,0.019l-0.134,0.087l-0.064,0.093v0.088l-0.023,0.043l-0.067,0.021l-0.13-0.021
		h-0.023h-0.244h-0.11h-0.023V40.1v-0.065l0.023-0.112l0.042-0.178l0.112-0.156l0.087-0.065l0.09-0.087l0.153-0.069l0.112-0.043
		l0.242-0.043h0.112l0.067-0.022h0.107l0.201,0.022l0.112,0.021l0.108,0.022l0.091,0.021l0.087,0.044l0.112,0.047l0.111,0.087
		l0.043,0.065l0.045,0.046l0.064,0.131l0.044,0.112l0.023,0.13v0.09l0.023,0.065v0.069v0.199v0.021l0.023,0.377v0.199v0.262v0.134
		l0.021,0.155l0.022,0.152l0.021,0.047v0.021v0.022l-0.043,0.025h-0.177h-0.308h-0.09l-0.042-0.025l-0.046-0.13l-0.023-0.066v-0.025
		h-0.021l-0.024,0.044l-0.021,0.048l-0.068,0.039l-0.088,0.091l-0.112,0.044l-0.088,0.025l-0.044,0.021l0,0h-0.109l-0.11,0.021
		h-0.067h-0.134l-0.087-0.021h-0.067l-0.066-0.021l-0.043-0.025l-0.156-0.066l-0.132-0.086l-0.088-0.069l-0.022-0.044l-0.069-0.086
		l-0.021-0.066l-0.046-0.133l-0.021-0.113V41.074L33.951,41.074L33.951,41.074z M34.682,40.984l-0.046,0.11v0.09l0.024,0.068
		l0.065,0.066l0.087,0.064l0.091,0.025l0.156,0.019h0.108l0.18-0.065l0.087-0.043l0.112-0.113l0.064-0.111l0.024-0.131v-0.33v-0.047
		h-0.024H35.59l-0.043,0.047l-0.156,0.044l-0.043,0.021H35.28l-0.153,0.043l-0.156,0.043l-0.134,0.069l-0.068,0.043L34.682,40.984
		L34.682,40.984L34.682,40.984z M36.674,41.717v-0.044l-0.021-1.972v-0.333l0,0l0.021-0.022h0.046h0.552l0.023,0.022l0.023,0.047
		l0.023,0.174l0.021,0.022l0,0l0.022-0.022l0.065-0.087l0.023-0.043l0.068-0.043l0.131-0.112l0.111-0.021l0.112-0.022h0.087
		l0.089,0.022l0.022,0.021l0.022,0.022l0,0v0.199v0.044v0.177v0.065v0.047h-0.022h-0.155l-0.112,0.022l-0.13,0.065l-0.114,0.065
		l-0.064,0.112l-0.089,0.156l-0.044,0.131v0.087v0.025v1.083v0.025l-0.022,0.066v0.064v0.065l-0.021,0.025l-0.023,0.019h-0.267
		h-0.308l-0.047-0.019l-0.022-0.048V41.717L36.674,41.717L36.674,41.717z M38.379,41.582v-0.131V39.81v-0.087V39.39v-0.022h0.022
		l0.134-0.022h0.244H39l0.022,0.022l0.021,0.047l0.023,0.153v0.021h0.024h0.019l0.068-0.109l0.199-0.134l0.154-0.065h0.134h0.199
		l0.199,0.021l0.131,0.065l0.066,0.047l0.068,0.043l0.064,0.065l0.089,0.134v0.022h0.023l0.065-0.068l0.047-0.065l0.043-0.065
		l0.089-0.065l0.041-0.025l0.09-0.044l0.068-0.021l0.176-0.043h0.065h0.044h0.069h0.174l0.176,0.065l0.112,0.069l0.065,0.043
		l0.046,0.043l0.066,0.066l0.021,0.021l0.068,0.134l0.021,0.087l0.043,0.199v0.134l0.023,0.066v0.554l-0.023,0.971v0.025v0.065
		v0.025l0,0h-0.133l-0.509,0.019l-0.022-0.019l-0.022-0.048v-1.326v-0.243L41.37,40.1l-0.022-0.09l-0.112-0.112l-0.088-0.019
		l-0.11-0.022l-0.087,0.022l-0.134,0.043l-0.111,0.087l-0.066,0.09l-0.021,0.109l-0.025,0.133v0.044v0.29l-0.022,1.019v0.13v0.025
		l-0.043,0.019h-0.575h-0.021l-0.023-0.044l-0.024-0.108v-1.331v-0.152l-0.019-0.112l-0.046-0.087l-0.088-0.112l-0.065-0.025
		l-0.089-0.019h-0.157l-0.088,0.043l-0.088,0.043l-0.065,0.069L39.134,40.1l-0.024,0.087l-0.019,0.069v0.043l-0.024,0.109v0.068
		v1.305v0.044l-0.023,0.044H39h-0.555h-0.02l-0.024-0.019l-0.022-0.155V41.582L38.379,41.582L38.379,41.582z M42.408,41.074v-0.112
		l0.046-0.13l0.065-0.091l0.068-0.087l0.199-0.133l0.178-0.087l0.063-0.025l0.066-0.022l0.178-0.068l0.199-0.019l0.066-0.021h0.112
		l0.221-0.068l0.065-0.044l0.066-0.065l0.021-0.043v-0.09l-0.021-0.068l-0.044-0.063l-0.066-0.043l-0.09-0.024l-0.131-0.043
		l-0.178,0.021l-0.089,0.022h-0.043l-0.09,0.043l0,0l-0.066,0.069l-0.043,0.043l-0.022,0.087l-0.023,0.069L43.095,40.1l-0.066,0.022
		h-0.021h-0.332L42.542,40.1l0,0l-0.022-0.021v-0.069l0.068-0.218l0.044-0.112l0.108-0.156l0.111-0.087l0.135-0.091l0.087-0.043
		l0.067-0.021h0.065l0.156-0.022l0.132-0.021h0.044h0.155l0.153,0.021l0.135,0.022l0.155,0.021l0.086,0.043l0.135,0.069l0.089,0.087
		l0.088,0.066l0.089,0.177l0.044,0.134l0.047,0.264v0.156v0.087l0.021,0.09v0.2v0.507v0.334l0.044,0.155l0.043,0.087v0.043H44.8
		l-0.266,0.022h-0.177h-0.135h-0.042l-0.02-0.022l-0.049-0.155l-0.021-0.044v-0.021h-0.022l-0.021,0.021l-0.067,0.092l-0.089,0.064
		l-0.11,0.065l-0.11,0.044l-0.178,0.047h-0.155l-0.133-0.021h-0.089l-0.152-0.044l-0.067-0.025l-0.132-0.065l-0.157-0.112
		l-0.089-0.087l-0.065-0.134l-0.046-0.155l-0.02-0.109L42.408,41.074L42.408,41.074L42.408,41.074z M43.095,40.984v0.178
		l0.022,0.065l0.068,0.091l0.042,0.043l0.156,0.047h0.221l0.135-0.047l0.153-0.09l0.044-0.044l0.066-0.088l0.021-0.065l0.046-0.155
		v-0.265l-0.021-0.068v-0.021h-0.025l-0.177,0.068l-0.196,0.065l-0.137,0.043l-0.175,0.043l-0.088,0.047l-0.045,0.043l-0.065,0.065
		L43.095,40.984L43.095,40.984L43.095,40.984z M45.044,40.521v-0.087l0.021-0.199l0.046-0.134l0.045-0.09l0.108-0.218l0.091-0.112
		l0.087-0.112l0.11-0.109l0.087-0.043l0.048-0.025l0.154-0.065l0.132-0.043l0.112-0.043h0.09h0.086h0.199l0.312,0.065l0.152,0.065
		l0.199,0.134l0.091,0.087l0.088,0.134l0.111,0.174l0.044,0.137v0.087v0.021l-0.044,0.022H47.17l-0.065,0.021h-0.224h-0.044
		l-0.022-0.021l-0.064-0.13l-0.066-0.112l-0.11-0.088l-0.112-0.043h-0.043h-0.181l-0.108,0.019l-0.088,0.047l-0.09,0.087
		l-0.064,0.091l-0.069,0.108l-0.043,0.175l-0.021,0.177v0.09l0.021,0.199l0.022,0.091l0.021,0.087v0.069l0.046,0.062l0.088,0.134
		l0.109,0.065l0.136,0.068l0.156,0.021l0.175-0.043l0.132-0.047l0.068-0.088l0.066-0.111l0.021-0.062l0.022-0.069l0.021-0.022h0.091
		h0.309h0.2l0.02,0.022v0.021v0.09l-0.043,0.131l-0.064,0.156l-0.046,0.065l-0.066,0.112l-0.088,0.108l-0.134,0.112l-0.155,0.091
		l-0.266,0.087h-0.154h-0.265h-0.089l-0.199-0.068l-0.221-0.066l-0.069-0.068l-0.108-0.062l-0.09-0.091l-0.044-0.043L45.22,41.34
		l-0.087-0.2l-0.046-0.108l-0.021-0.112l-0.021-0.156v-0.065v-0.044v-0.046V40.521L45.044,40.521L45.044,40.521z M47.702,40.386
		l0.045-0.265l0.021-0.065l0.024-0.09l0.064-0.131l0.089-0.133l0.11-0.134l0.044-0.044l0.045-0.043l0.088-0.065l0.157-0.09
		l0.22-0.087l0.131-0.025h0.111h0.067h0.11l0.112,0.025h0.087l0.134,0.043l0.108,0.043l0.046,0.021l0.066,0.044l0.154,0.112
		l0.044,0.066l0.089,0.068l0.136,0.199l0.063,0.131l0.069,0.199l0.065,0.29l0.021,0.109v0.134v0.043l-0.021,0.022h-0.135h-1.593
		h-0.023l-0.043,0.021l-0.021,0.022v0.047l0.043,0.13l0.089,0.156l0.063,0.065l0.089,0.088l0.091,0.025l0.108,0.043h0.091h0.108
		l0.069-0.021l0.108-0.047l0.112-0.065l0.046-0.065l0.086-0.109h0.022h0.088h0.045h0.067l0.153,0.021h0.156h0.066l0.065,0.02h0.023
		v0.046l-0.067,0.153l-0.066,0.115l-0.042,0.088l-0.136,0.133l-0.176,0.105l-0.178,0.091l-0.089,0.044l-0.156,0.047l-0.177,0.021
		h-0.131l-0.045-0.021l-0.046,0.021l-0.176-0.021l-0.132-0.047l-0.112-0.044l-0.134-0.065l-0.131-0.112l-0.2-0.174l-0.066-0.112
		l-0.065-0.134l-0.064-0.134l-0.045-0.175l-0.045-0.199v-0.156v-0.019v-0.069V40.386L47.702,40.386L47.702,40.386z M48.453,40.078
		l-0.043,0.131l0.022,0.025v0.021h0.021h0.511h0.087h0.157h0.085h0.135l0.021-0.021v-0.025l-0.021-0.087l-0.02-0.087l-0.115-0.137
		l-0.085-0.063l-0.066-0.024l-0.135-0.043h-0.134l-0.154,0.043l-0.088,0.047l-0.109,0.109L48.453,40.078L48.453,40.078
		L48.453,40.078z M50.58,40.897v-0.663v-0.91l0.022-0.043l0.043-0.022h0.044h0.467H51.2l0.043,0.022v0.021l0.023,0.043v0.091l0,0
		v1.059v0.181l0.021,0.199v0.134l0.021,0.043l0.067,0.087l0.11,0.088l0.179,0.024l0.133-0.024l0.108-0.044l0.112-0.09l0.064-0.11
		l0.022-0.087l0.046-0.221v-0.312v-0.178V40.1v-0.021v-0.577v-0.156l0.021-0.065h0.022l0.221-0.022l0.043,0.022h0.268h0.044h0.048
		l0.019,0.043v0.09l-0.019,2.167v0.091v0.062v0.025l-0.025,0.021l-0.044,0.021h-0.532l-0.044-0.021l-0.021-0.047v-0.131
		l-0.025-0.043h-0.021l-0.043,0.043l-0.044,0.044l-0.134,0.112l-0.087,0.043l-0.069,0.022l-0.13,0.025l-0.09,0.019h-0.088
		l-0.089-0.019h-0.066l-0.177-0.048l-0.089-0.043l-0.135-0.064l-0.043-0.066l-0.066-0.068l-0.088-0.134l-0.066-0.155l-0.022-0.178
		v-0.11V40.897L50.58,40.897L50.58,40.897z M53.238,39.767h-0.091h-0.021l-0.023-0.065v-0.2l0.023-0.156l0.021-0.021l0.045-0.022
		l0.046,0.022h0.153l0.046-0.022l0.021-0.021v-0.069l0.021-0.065v-0.021v-0.112v-0.352v-0.112l0.024-0.043h0.021h0.44h0.156
		l0.021,0.021v0.047v0.685l0.021,0.043l0.046,0.022h0.155h0.132h0.064l0.025,0.021l0.022,0.044v0.025v0.221v0.109l-0.022,0.022
		l-0.112,0.024h-0.198H54.19l-0.047,0.019v0.047v0.152l-0.021,0.953v0.047l0.021,0.152l0.021,0.043l0.067,0.066l0.045,0.021
		l0.133,0.025l0.178,0.021h0.022v0.021l0.021,0.065l-0.021,0.091l0.021,0.064v0.178l-0.021,0.043l-0.022,0.022l-0.045,0.025h-0.045
		h-0.244H54.1h-0.065l-0.111-0.025l-0.135-0.044l-0.109-0.064l-0.088-0.069l-0.065-0.13l-0.046-0.091l-0.021-0.155v-0.639v-0.068
		v-0.131v-0.047v-0.087v-0.134v-0.243v-0.088l-0.021-0.043h-0.024l-0.065-0.024H53.238L53.238,39.767L53.238,39.767z M54.941,39.39
		v-0.044l0.022-0.021h0.065h0.067h0.441l0.068,0.021v0.022l0.02,0.047v0.131l-0.02,2.127v0.108l-0.024,0.044l-0.019,0.025h-0.069
		h-0.089h-0.309h-0.112l-0.043-0.025l-0.021-0.022v-0.068l0,0l0.021-2.077V39.39L54.941,39.39L54.941,39.39z M54.964,38.396
		l0.021-0.047h0.045h0.067h0.044h0.375h0.066l0.024,0.021v0.025l0.02,0.109v0.134l-0.02,0.243v0.022v0.022h-0.024l-0.177,0.021
		h-0.109h-0.267l-0.045-0.021l-0.021-0.022v-0.087v-0.243V38.396L54.964,38.396L54.964,38.396z M55.914,40.564v-0.199l0.045-0.178
		l0.045-0.196l0.046-0.133l0.088-0.156l0.131-0.134l0.047-0.066l0.108-0.087l0.134-0.09l0.044-0.022l0.047-0.021l0.175-0.069
		l0.178-0.019h0.045l0.132-0.024l0.197,0.024l0.225,0.044l0.086,0.021l0.157,0.087l0.13,0.091l0.156,0.174l0.134,0.199l0.044,0.087
		l0.044,0.137v0.021l-0.021,0.022L58.284,40.1l-0.441,0.022h-0.088h-0.069L57.664,40.1L57.6,39.99l-0.068-0.111l-0.087-0.069
		l-0.091-0.065h-0.066l-0.109-0.021l-0.11,0.021l-0.133,0.065l-0.089,0.069l-0.066,0.043l-0.066,0.112l-0.045,0.13l-0.02,0.153
		v0.358v0.065l0.02,0.091l0.021,0.152l0.047,0.069l0.066,0.087l0.088,0.065l0.045,0.066l0.133,0.047h0.066h0.131h0.067l0.091-0.025
		l0.131-0.088l0.066-0.111l0.065-0.11l0.023-0.065l0.022-0.043h0.042h0.334h0.155l0.088,0.021l0,0l0.022,0.022v0.065l-0.043,0.2
		l-0.089,0.156l-0.066,0.087l-0.156,0.177l-0.134,0.113l-0.063,0.018l-0.048,0.047l-0.153,0.044l-0.066,0.025l-0.067,0.019
		l-0.042,0.025h-0.157h-0.153l-0.155-0.025h-0.065l-0.134-0.044l-0.066-0.022l-0.133-0.068l-0.177-0.087l-0.112-0.108l-0.066-0.088
		l-0.111-0.133l-0.087-0.179l-0.043-0.177l-0.046-0.178l-0.023-0.087V40.564L55.914,40.564L55.914,40.564z M58.641,41.031
		l0.021-0.156l0.044-0.112l0.109-0.156l0.089-0.062l0.155-0.112l0.222-0.091l0.398-0.087h0.087l0.094-0.021h0.087l0.151-0.047
		l0.09-0.043l0.068-0.065l0.022-0.088v-0.046l-0.022-0.065l-0.068-0.088l-0.11-0.068h-0.066l-0.133-0.044l-0.089,0.022l-0.132,0.022
		h-0.045l-0.089,0.068l-0.065,0.043l-0.066,0.063l-0.046,0.137l-0.022,0.021l-0.043,0.022h-0.044h-0.333h-0.045l-0.065-0.022h-0.021
		v-0.021v-0.069l0.067-0.221l0.044-0.134l0.043-0.065l0.088-0.087l0.11-0.068l0.067-0.065l0.11-0.043l0.156-0.043l0.133-0.025h0.042
		h0.133h0.068h0.064h0.091h0.088l0.11,0.025l0.178,0.043l0.199,0.065l0.133,0.091l0.066,0.087l0.089,0.087l0.065,0.199v0.069
		l0.022,0.043v0.043l0.023,0.069v0.021l0.021,0.489v0.239v0.355v0.112v0.156v0.019v0.091l0.046,0.178l0.022,0.039l0.021,0.025
		l-0.021,0.021h-0.047l-0.175,0.021h-0.091h-0.088h-0.066h-0.152H60.41l-0.022-0.021l-0.044-0.134l-0.025-0.065v-0.021h-0.021
		l-0.019,0.021l-0.068,0.065l-0.088,0.087l-0.111,0.068l-0.151,0.048h-0.07l-0.023,0.019h-0.133h-0.109h-0.065l-0.088-0.019
		l-0.179-0.025l-0.157-0.065l-0.088-0.064l-0.043-0.022l-0.064-0.044l-0.112-0.155l-0.065-0.155l-0.021-0.091v-0.109V41.031
		L58.641,41.031L58.641,41.031z M59.324,40.962l-0.021,0.069v0.062l0.021,0.09l0.047,0.068l0.043,0.02l0.156,0.09h0.152l0.199-0.021
		l0.09-0.047l0.156-0.088l0.043-0.065l0.068-0.087v-0.09l0.019-0.087v-0.069v-0.13v-0.112l-0.019-0.019h-0.022l-0.158,0.04
		l-0.087,0.022l-0.044,0.046h-0.046h-0.022l-0.151,0.044l-0.09,0.022l-0.221,0.112l-0.066,0.065L59.324,40.962L59.324,40.962
		L59.324,40.962z M61.384,38.396v-0.069l0.024-0.021h0.109h0.09h0.329h0.045l0.045,0.021l0.043,0.022v0.047v0.087l-0.021,3.277
		v0.021v0.021h-0.022l-0.198,0.022l-0.091-0.022H61.43h-0.046v-0.021l-0.021-0.064v-0.044l0.021-3.214V38.396L61.384,38.396
		L61.384,38.396z M63.865,40.386v-0.087v-0.09l-0.022-0.33l0.022-0.069v-0.065l0.021-0.156l0.042-0.221l0.025-0.087l0.044-0.088
		l0.021-0.068l0.047-0.088l0.109-0.199l0.09-0.111l0.108-0.131h0.021l0.045-0.047l0.089-0.09l0.135-0.062l0.13-0.069l0.134-0.065
		l0.135-0.044l0.154-0.022h0.065h0.066l0.133-0.025h0.133l0.33,0.047l0.045,0.022l0.067,0.022l0.089,0.021l0.088,0.022l0.046,0.021
		l0.043,0.022l0.044,0.021l0.091,0.069l0.155,0.109l0.02,0.047l0.068,0.043l0.021,0.043l0.091,0.088l0.02,0.021l0.068,0.156
		l0.087,0.199l0.046,0.199l-0.022,0.022l-0.023,0.022h-0.066H66.83h-0.156h-0.196h-0.133l-0.023-0.022l-0.021-0.065l-0.089-0.156
		l-0.067-0.109l-0.068-0.068l-0.063-0.065l-0.088-0.022l-0.068-0.043l-0.197-0.068l-0.223,0.021l-0.198,0.025l-0.09,0.043
		l-0.131,0.087l-0.113,0.09l-0.044,0.044l-0.021,0.065l-0.067,0.065l-0.021,0.069l-0.045,0.065l-0.021,0.112l-0.068,0.199
		l-0.021,0.222v0.199l0.021,0.087l-0.021,0.044l0.068,0.312l0.042,0.133l0.022,0.087l0.044,0.065l0.046,0.069l0.109,0.156
		l0.044,0.021l0.091,0.065l0.154,0.109l0.153,0.044h0.089h0.178l0.177-0.044l0.154-0.065l0.089-0.068l0.066-0.062l0.11-0.134
		l0.046-0.112l0.022-0.065l0.021-0.066l0.023-0.021h0.043h0.022l0.553,0.021l0,0l0.068,0.022h0.021v0.021l-0.021,0.065l-0.022,0.069
		v0.087l-0.066,0.175l-0.066,0.111l-0.065,0.113l-0.068,0.09l-0.111,0.109l-0.088,0.086l-0.087,0.044l-0.135,0.087l-0.131,0.068
		l-0.089,0.022l-0.135,0.044h-0.042l-0.178,0.025l-0.244,0.021h-0.111l-0.11-0.021l-0.243-0.069l-0.155-0.044l-0.111-0.047
		l-0.044-0.039l-0.087-0.048l-0.046-0.019l-0.131-0.111l-0.112-0.091l-0.046-0.065l-0.065-0.068v-0.021l-0.021-0.02l-0.112-0.158
		l-0.088-0.175l-0.044-0.112l-0.021-0.043l-0.046-0.178L63.865,40.386L63.865,40.386L63.865,40.386z M67.34,40.318l0.046-0.24
		l0.088-0.199l0.065-0.134l0.046-0.065l0.044-0.044l0.044-0.046l0.109-0.109l0.044-0.043l0.046-0.022l0.089-0.069l0.155-0.065
		l0.066-0.022l0.064-0.021l0.202-0.044l0.13-0.024h0.245l0.199,0.043l0.089,0.025l0.064,0.021l0.09,0.043l0.221,0.134l0.111,0.087
		l0.155,0.2l0.045,0.087l0.043,0.047l0.022,0.065l0.088,0.243l0.022,0.09v0.043l0.022,0.066l0,0v0.112v0.087l-0.022,0.156
		l-0.022,0.199l-0.042,0.134l-0.046,0.109l-0.065,0.09l-0.112,0.175l-0.066,0.091l-0.046,0.043l-0.087,0.087l-0.265,0.155
		l-0.067,0.022h-0.021l0,0h-0.021l-0.045,0.025h-0.044l-0.046,0.019h-0.044l-0.043,0.025h-0.044h-0.065l-0.046,0.021h-0.066h-0.044
		l-0.046-0.021h-0.043h-0.044h-0.021l0,0h-0.022l-0.224-0.069l-0.109-0.044l-0.181-0.086l-0.063-0.048l-0.021-0.019l-0.045-0.025
		l-0.111-0.13l-0.065-0.065l-0.112-0.181l-0.088-0.175l-0.063-0.246l-0.025-0.174v-0.178V40.318L67.34,40.318L67.34,40.318z
		 M68.026,40.386v0.134v0.112l0.025,0.174l0.019,0.069l0.023,0.065l0.045,0.069l0.087,0.13l0.046,0.065l0.065,0.047l0.135,0.066
		l0.087,0.021h0.177h0.089l0.153-0.068l0.111-0.088l0.111-0.131l0.066-0.156l0.022-0.134v-0.087l0.024-0.069v-0.087l-0.024-0.178
		l-0.022-0.133l-0.044-0.153l-0.089-0.112l-0.087-0.087l-0.113-0.09l-0.133-0.043l-0.132-0.022l-0.177,0.022l-0.09,0.043
		l-0.109,0.068l-0.089,0.088l-0.021,0.021l-0.044,0.046L68.094,40.1l-0.067,0.218V40.386L68.026,40.386L68.026,40.386z
		 M70.173,41.518v-0.109V41.34v-0.135v-0.043l0.024-0.022l0,0l0.112-0.021h0.062h0.335h0.021l0.021,0.044l0.021,0.021v0.225v0.065
		v0.174v0.069l-0.021,0.043h-0.021h-0.486h-0.024h-0.021l-0.024-0.064V41.518L70.173,41.518L70.173,41.518z M71.215,41.803h-0.067
		h-0.044l-0.021-0.043l-0.023-0.025v-0.572l0.023-0.044l0.021-0.024h0.044h0.043h0.444l0.135,0.024h0.021l0.022,0.021v0.132v0.09
		v0.312v0.265L71.79,42.05l-0.087,0.177l-0.11,0.154l-0.112,0.086l-0.045,0.047l-0.067,0.021l-0.043,0.045l-0.178,0.043h-0.02
		h-0.024l-0.021-0.043v-0.133l0.021-0.045l0.133-0.088l0.11-0.088l0.068-0.133l0.065-0.178l-0.021-0.091l0,0l-0.091-0.022H71.215
		L71.215,41.803L71.215,41.803z M72.257,38.284l0.021-0.043h0.132h0.354l0.133,0.022h0.023h0.043v0.021v0.087v2.639v0.084v0.024
		l0.022,0.021h0.046h0.154h0.089l1.195,0.022h0.109l0.022,0.021l0.024,0.021v0.113v0.398v0.018v0.025l-0.047,0.021h-0.086
		l-2.017-0.021h-0.153h-0.066l-0.047-0.025v-0.039v-0.066l0.047-3.233V38.284L72.257,38.284L72.257,38.284z M74.803,39.723h-0.089
		l-0.045-0.022v-0.044l-0.022-0.333l0.022-0.043l0.023-0.022h0.021h0.244l0.021-0.021l0.021-0.025v-0.043v-0.573v-0.09l0.021-0.046
		h0.023h0.067h0.023h0.375h0.044h0.088l0.046,0.024v0.022v0.069l0,0v0.196v0.199v0.156l0.021,0.112l0.021,0.021h0.109h0.112h0.043
		h0.069l0.063,0.022l0.023,0.021v0.309v0.09H76.13l-0.021,0.022h-0.244h-0.046l-0.064,0.021h-0.044l-0.021,0.022v0.043v0.91v0.087
		v0.268l0.043,0.088l0.065,0.065l0.09,0.024l0.266,0.02l0.021,0.021l0,0v0.047v0.42v0.021h-0.021l-0.066,0.021h-0.111h-0.265H75.62
		h-0.108l-0.158-0.043l-0.084-0.064l-0.133-0.135l-0.07-0.109l-0.044-0.111v-0.2l-0.021-1.305v-0.09h-0.021l-0.021-0.021H74.803
		L74.803,39.723L74.803,39.723z M76.594,39.723l0.112-0.178l0.065-0.087l0.112-0.112l0.154-0.087l0.091-0.047l0.109-0.043
		l0.066-0.022h0.065l0.134-0.021l0.197,0.021l0.089,0.022l0.113,0.043l0.109,0.069l0.067,0.043l0.043,0.021l0.045,0.069l0.064,0.043
		l0,0V39.39l0.023-0.152l-0.023-0.489l0.023-0.309v-0.09v-0.065v-0.021h0.02l0.091-0.022h0.377h0.023h0.132l0.023,0.022l0.021,0.043
		v0.09v0.221v3.012v0.066l-0.021,0.039l-0.023,0.025h-0.067h-0.484h-0.024h-0.047l-0.02-0.025l-0.023-0.152v-0.021h-0.02
		l-0.09,0.068l-0.088,0.066l-0.132,0.064l-0.088,0.043l-0.137,0.048H77.57h-0.066H77.37l-0.22-0.048l-0.046-0.021l-0.153-0.086
		l-0.091-0.092l-0.108-0.107l-0.09-0.113l-0.021-0.021l-0.068-0.109v-0.024l-0.021-0.044l-0.023-0.044l-0.021-0.046l-0.021-0.062
		l-0.022-0.069l-0.022-0.065l-0.021-0.09V40.72l-0.024-0.066v-0.09v-0.069v-0.062l0.024-0.091v-0.065l0.021-0.068v-0.044
		l0.022-0.065v-0.043l0.022-0.066v-0.024l0.021-0.043v-0.025l0,0v-0.019L76.594,39.723L76.594,39.723L76.594,39.723z M77.104,40.455
		v0.131l0.024,0.112l0.021,0.134l0.042,0.108l0.067,0.112l0.09,0.109l0.154,0.065l0.175,0.024l0.156-0.024l0.112-0.044l0.042-0.044
		l0.067-0.046l0.089-0.11l0.042-0.108l0.045-0.222v-0.336l-0.045-0.196l-0.042-0.112l-0.044-0.087l-0.066-0.065l-0.088-0.09h-0.044
		l-0.068-0.043l-0.11-0.022H77.66h-0.09l-0.112,0.043L77.35,39.81l-0.021,0.047l-0.046,0.041l-0.066,0.093l-0.065,0.175
		l-0.046,0.221V40.455L77.104,40.455L77.104,40.455z M79.296,41.205V41.14v-0.021l0.024-0.024h0.108l0.312,0.024h0.087h0.021
		l0.025,0.065v0.489v0.044l-0.025,0.018l-0.021,0.025h-0.485H79.32l-0.044-0.043v-0.069l0.02-0.42V41.205L79.296,41.205z"/>
	<polygon fill-rule="evenodd" clip-rule="evenodd" fill="#FFFFFF" points="0.274,43.178 6.563,43.178 6.563,36.823 0.274,36.823 
		0.274,43.178 	"/>
	<path opacity="0.7" fill-rule="evenodd" clip-rule="evenodd" fill="#3E6DB2" d="M5.167,37.664c-0.088,0-0.154,0-0.312,0.021
		c-0.618,0-0.973,0.355-0.973,1.041v0.819h2.68v-2.722H5.167V37.664L5.167,37.664z"/>
	<path fill-rule="evenodd" clip-rule="evenodd" fill="#3E6DB2" d="M3.082,40.365l-1.79,0.084l-0.041-0.84l1.723-0.082l-0.042-0.861
		c-0.055-1.173,0.78-1.812,1.618-1.917c0.045-0.001,0.197-0.031,0.219-0.033l-4.644,0.223l0.302,6.347l2.788-0.133L3.082,40.365
		L3.082,40.365z"/>
	<polygon opacity="0.7" fill-rule="evenodd" clip-rule="evenodd" fill="#3E6DB2" points="3.883,43.178 6.563,43.178 6.563,40.386 
		3.883,40.386 3.883,43.178 	"/>
</g>
<g>
</g>
<g>
</g>
<g>
</g>
<g>
</g>
<g>
</g>
<g>
</g>
</svg>
