<?xml version="1.0" encoding="utf-8"?>
<!-- Generator: Adobe Illustrator 16.0.0, SVG Export Plug-In . SVG Version: 6.00 Build 0)  -->
<!DOCTYPE svg PUBLIC "-//W3C//DTD SVG 1.1//EN" "http://www.w3.org/Graphics/SVG/1.1/DTD/svg11.dtd">
<svg version="1.1" id="Layer_1" xmlns="http://www.w3.org/2000/svg" xmlns:xlink="http://www.w3.org/1999/xlink" x="0px" y="0px"
	 width="147.32px" height="50.304px" viewBox="21.59 -36.982 147.32 50.304" enable-background="new 21.59 -36.982 147.32 50.304"
	 xml:space="preserve">
<g>
	<path fill="#152A3F" d="M90.434-4.655c0-1.294,1.002-2.452,2.643-2.452c2.034,0,2.481,0.841,2.869,1.742l0.483,1.163h0.357
		l0.191-3.388c-0.645-0.161-2.583-0.388-3.353-0.388c-3.997,0-5.637,2.487-5.637,4.253c0,4.575,7.182,3.907,7.182,7.934
		c0,1.867-1.545,2.678-3.155,2.678c-0.907,0-1.646-0.298-2.064-0.65c-0.256-0.191-0.871-1.39-1.127-2.547h-0.353l-0.196,3.775
		c0.841,0.09,1.741,0.281,2.935,0.281c5.124,0,6.412-2.512,6.412-4.444C97.621-1.857,90.434-0.825,90.434-4.655"/>
	<path fill="#152A3F" d="M108.454,5.104c-0.555,0.555-1.456,1.264-2.393,1.264c-0.608,0-1.604-0.555-1.604-2.034V-6.557h3.704
		v-0.871h-3.704v-3.769h-0.453c-0.645,1.961-2.81,3.644-4.581,4.055v0.584h2.583v5.41c0,1.807-0.102,4.516-0.102,5.965
		c0,2.607,1.682,2.995,2.518,2.995c1.449,0,2.48-0.478,4.509-2.094L108.454,5.104"/>
	<path fill="#152A3F" d="M122.566-2.012c0.71-0.036,0.931-0.233,0.931-1.002c0-2.803-1.801-4.963-5.606-4.963
		c-4.963,0-7.409,4.122-7.409,8.029c0,4.534,2.738,7.695,6.83,7.695c2.226,0,4.224-0.639,5.703-2.321l-0.448-0.579
		c-0.937,0.966-2.225,1.45-3.645,1.45c-3.806,0-5.541-3.639-5.541-7.212c0-0.364,0.036-0.746,0.06-1.097 M117.348-7.303
		c2.284,0,3.251,1.551,3.251,3.71v0.579c-0.483,0.03-0.931,0.03-1.963,0.066l-5.13,0.125C113.959-5.49,115.379-7.303,117.348-7.303"
		/>
	<path fill="#152A3F" d="M129.528,4.012V-8.753c0-2.186,0.131-4.38,0.196-6.57c-1.747,0.192-3.52,0.258-5.291,0.258v0.451
		l1.903,0.613c0.227,0.064,0.447,0.192,0.513,0.355c0.102,0.224,0.227,1.387,0.227,2.739v14.92c0,1.575-0.125,2.124-1.127,2.446
		l-1.516,0.519v0.448c1.193-0.131,2.481-0.257,3.771-0.257c1.324,0,2.678,0.126,3.967,0.257V6.977l-1.581-0.519
		C129.594,6.136,129.528,5.587,129.528,4.012"/>
	<path fill="#152A3F" d="M139.549,6.458c-0.996-0.322-1.062-0.871-1.062-2.446V-8.753c0-2.186,0.131-4.38,0.197-6.57
		c-1.742,0.192-3.52,0.258-5.285,0.258v0.451l1.896,0.613c0.227,0.064,0.447,0.192,0.514,0.355c0.101,0.224,0.227,1.385,0.227,2.736
		V4.012c0,1.575-0.126,2.124-1.128,2.446l-1.509,0.513v0.454c1.187-0.131,2.476-0.257,3.764-0.257c1.324,0,2.679,0.126,3.961,0.257
		V6.971L139.549,6.458"/>
	<path fill="#152A3F" d="M154.241,4.877v-8.983c0-3-2.249-3.872-4.826-3.872c-2.517,0-4.384,1.294-5.899,3.71l0.806,0.447
		c0.966-1.45,2.511-2.481,4.282-2.481c1.838,0,3.258,0.68,3.258,3.066v1.7h-0.233c-5.309,0-9.049,1.646-9.049,5.327
		c0,2.768,1.897,3.955,4.253,3.955c2.351,0,3.74-1.378,4.993-3.061h0.065l-0.096,2.738c0.775-0.131,1.575-0.257,2.356-0.257
		c0.806,0,1.641,0.126,2.481,0.257V6.977C154.599,6.589,154.241,6.428,154.241,4.877 M151.795,2.014c0,2.571-1.706,4.062-3.77,4.062
		c-1.837,0-2.738-1.098-2.738-2.804c0-3.478,3.896-3.931,6.508-3.931V2.014"/>
	<path fill="#152A3F" d="M83.776,4.877v-8.983c0-3-2.261-3.872-4.837-3.872c-2.512,0-4.385,1.294-5.899,3.71l0.811,0.447
		c0.961-1.45,2.512-2.481,4.283-2.481c1.837,0,3.257,0.68,3.257,3.066v1.7h-0.227c-5.321,0-9.055,1.646-9.055,5.327
		c0,2.768,1.896,3.955,4.253,3.955c2.35,0,3.74-1.378,4.992-3.061h0.066l-0.096,2.738c0.775-0.131,1.58-0.257,2.35-0.257
		c0.806,0,1.646,0.126,2.481,0.257V6.977C84.129,6.589,83.776,6.428,83.776,4.877 M81.325,2.014c0,2.571-1.706,4.062-3.771,4.062
		c-1.837,0-2.743-1.098-2.743-2.804c0-3.478,3.9-3.931,6.514-3.931V2.014"/>
	<path fill="#152A3F" d="M160.945-4.655c0-1.294,1.002-2.452,2.643-2.452c2.028,0,2.487,0.841,2.869,1.742l0.483,1.163h0.357
		l0.191-3.388c-0.645-0.161-2.583-0.388-3.353-0.388c-3.996,0-5.637,2.487-5.637,4.253c0,4.575,7.188,3.907,7.188,7.934
		c0,1.867-1.551,2.678-3.161,2.678c-0.9,0-1.646-0.298-2.064-0.65c-0.256-0.191-0.87-1.39-1.121-2.547h-0.357l-0.197,3.775
		c0.835,0.09,1.742,0.281,2.935,0.281c5.124,0,6.412-2.512,6.412-4.444C168.133-1.857,160.945-0.825,160.945-4.655"/>
	<path opacity="0.3" fill="#152A3F" d="M65.834-15.796c-3.448,3.015-8.354,5.808-13.216,8.654
		c-1.226,5.863-2.669,11.464-5.142,15.324c5.419-2.649,10.723-9.706,13.496-15.754c2.696,0.608,5.387,2.255,7.021,3.752
		C68.417-8.49,67.308-12.332,65.834-15.796"/>
	<path opacity="0.3" fill="#152A3F" d="M60.889-31.842c-2.171,1.938-3.653,5.205-4.822,9.122c2.648,0.699,5.115,1.296,7.304,1.664
		C61.671-24.616,60.299-28.003,60.889-31.842"/>
	<path fill="#152A3F" d="M22.367-27.788C32.52-26.426,41.39-21.02,47.614-13.523C43.758-9.355,38.554-2.251,37.343,4.704
		c2.869-4.432,9.027-8.178,15.275-11.846c1.119-5.353,2.064-10.924,3.451-15.578C45.622-25.492,32.371-29.849,22.367-27.788"/>
	<path fill="#152A3F" d="M63.37-21.055c0.806,1.691,1.688,3.424,2.464,5.26c1.885-1.644,3.328-3.354,4.092-5.178
		C68.262-20.505,66.019-20.614,63.37-21.055"/>
	<path opacity="0.9" fill="#152A3F" d="M63.37-21.055c-2.188-0.368-4.655-0.965-7.304-1.664c-1.384,4.651-2.329,10.224-3.448,15.578
		c4.862-2.846,9.768-5.642,13.216-8.654C65.059-17.632,64.176-19.365,63.37-21.055"/>
</g>
</svg>
