<?xml version="1.0" encoding="utf-8"?>
<!-- Generator: Adobe Illustrator 16.0.0, SVG Export Plug-In . SVG Version: 6.00 Build 0)  -->
<!DOCTYPE svg PUBLIC "-//W3C//DTD SVG 1.1//EN" "http://www.w3.org/Graphics/SVG/1.1/DTD/svg11.dtd">
<svg version="1.1" id="Layer_1" xmlns="http://www.w3.org/2000/svg" xmlns:xlink="http://www.w3.org/1999/xlink" x="0px" y="0px"
	 width="80px" height="6.57px" viewBox="0 36.716 80 6.57" enable-background="new 0 36.716 80 6.57" xml:space="preserve">
<g>
	<path fill="#142A3E" d="M7.558,38.396l0.023-0.047h0.043H7.78h2.103h0.024h0.154l0.022,0.047l0.021,0.043v0.42v0.066l-0.021,0.021
		l-0.022,0.022H9.818H8.511H8.355l-0.043,0.024v0.043v0.022v0.598v0.022v0.065h0.022L8.4,39.767h0.508l0.754,0.024h0.11h0.045l0,0
		l0.021,0.019v0.069l0.025,0.376v0.043l-0.025,0.043l-0.042,0.022H9.751H8.467H8.422H8.355l-0.021,0.021l-0.022,0.047v1.24v0.152
		L8.29,41.852H8.158H7.979H7.647H7.603v-0.024L7.581,41.76v-0.064l-0.023-3.033V38.396L7.558,38.396L7.558,38.396z M10.148,39.679
		v-0.29v-0.022l0.025-0.022h0.285h0.093h0.108l0.132,0.022l0.044,0.022v0.178v0.112l0.023,1.153v0.021v0.063l0.021,0.134
		l0.023,0.088l0.067,0.064l0.11,0.088l0.067,0.023l0.132,0.021l0.134-0.021l0.087-0.047l0.089-0.064l0.089-0.087l0.045-0.179
		l0.021-0.107v-0.355v-0.068v-0.486v-0.377V39.5v-0.11v-0.022l0.022-0.022h0.087h0.4h0.109l0.046,0.022v0.047v0.065v0.065v0.156
		l0.022,1.838v0.264v0.022l-0.022,0.044h-0.135h-0.441l-0.045-0.02l-0.022-0.049l-0.022-0.13v-0.024h-0.021H11.7l-0.022,0.024
		l-0.022,0.044l-0.044,0.02l-0.044,0.047L11.5,41.825l-0.11,0.069l-0.11,0.021l-0.11,0.021l-0.245,0.021l-0.109-0.021l-0.067-0.021
		l-0.134-0.047l-0.063-0.044l-0.114-0.065l-0.11-0.112l-0.065-0.106l-0.067-0.131l-0.045-0.226v-0.108v-1.373V39.68L10.148,39.679
		L10.148,39.679z M12.563,42.492v-0.225V42.18l0.021-0.021l0,0h0.112l0,0l0.134-0.021l0.042-0.021l0.069-0.065l0.02-0.069
		l0.023-0.153l-0.023-1.33V39.77v-0.38v-0.022l0.023-0.022l0.132-0.021h0.021h0.378h0.042l0.047,0.021l0.042,0.022v0.069v0.199
		l0.024,1.792v0.512v0.179l-0.024,0.221l-0.018,0.066l-0.07,0.09l-0.063,0.062l-0.087,0.067l-0.135,0.045l-0.111,0.022l0,0
		l-0.112,0.021l-0.131-0.021H12.61h-0.045v-0.022v-0.065v-0.11L12.563,42.492L12.563,42.492z M13.048,38.349h0.047h0.399h0.09h0.021
		l0.023,0.021v0.047v0.177v0.265v0.044v0.022l-0.023,0.021h-0.598l-0.022-0.021H12.96v-0.088v-0.398v-0.043v-0.025L13.048,38.349
		L13.048,38.349L13.048,38.349z M14.135,41.803l-0.022-2.214V39.39l0.022-0.044l0,0h0.02h0.089h0.378h0.132l0.023,0.022H14.8v0.112
		v0.065v0.065l0,0l0.022,2.149v0.065L14.8,41.852h-0.021h-0.576h-0.047L14.135,41.803L14.135,41.803L14.135,41.803z M14.113,38.548
		v-0.065l0.022-0.087v-0.025h0.045h0.507h0.022h0.045l0.023,0.047v0.041v0.246v0.044v0.068v0.109v0.021h-0.023h-0.6h-0.02v-0.021
		l-0.022-0.088v-0.243L14.113,38.548L14.113,38.548L14.113,38.548z M15.154,41.094h0.088h0.221h0.044h0.176h0.025v0.047l0.044,0.131
		l0.067,0.09l0.065,0.065l0.09,0.048l0.196,0.064l0.089-0.021l0.044,0.021l0.155-0.043l0.088-0.021l0.131-0.064l0.046-0.115V41.23
		v-0.064l-0.046-0.068l-0.107-0.084l-0.156-0.047l-0.111-0.021l-0.264-0.064l-0.245-0.043l-0.066-0.023l-0.112-0.043l-0.134-0.065
		l-0.131-0.091l-0.045-0.043L15.241,40.5l-0.021-0.087l-0.045-0.043l-0.021-0.156V40.04l0.021-0.137l0.067-0.131l0.043-0.065
		l0.045-0.066l0.065-0.068l0.067-0.066l0.09-0.043l0.087-0.043l0.133-0.069l0.156-0.021l0.065-0.022h0.109l0.067-0.021l0.133,0.021
		h0.155l0.132,0.043h0.047l0.065,0.022l0.176,0.09l0.114,0.087l0.085,0.065l0.112,0.156l0.067,0.131l0.044,0.137v0.06v0.022
		l-0.025,0.021h-0.175h-0.065l-0.068,0.022h-0.22l-0.023-0.022l-0.087-0.177l-0.091-0.087l-0.109-0.069l-0.157-0.019h-0.177
		l-0.109,0.019l-0.11,0.047l-0.065,0.041l-0.045,0.068v0.069V40.1l0.045,0.065l0.065,0.044l0.198,0.068l0.157,0.041l0.132,0.024
		l0.133,0.022l0.29,0.068l0.043,0.021l0.087,0.022l0.177,0.087l0.089,0.09l0.067,0.064l0.088,0.135l0.045,0.239v0.091l-0.023,0.178
		l-0.021,0.064l-0.044,0.135l-0.111,0.135l-0.089,0.086l-0.108,0.07l-0.045,0.043l-0.11,0.043l-0.134,0.043h-0.087L16.549,42h-0.088
		l-0.065,0.021H16.15l-0.221-0.043l-0.134-0.023l-0.132-0.041l-0.156-0.064l-0.131-0.117l-0.114-0.131l-0.063-0.105l-0.045-0.069
		l-0.067-0.241v-0.043l0.024-0.021L15.154,41.094L15.154,41.094L15.154,41.094z M17.591,41.074l0.021-0.064l0.043-0.134l0.067-0.134
		l0.11-0.109l0.133-0.087l0.11-0.069l0.245-0.09l0.154-0.021l0.066-0.022l0.156-0.024l0.178-0.041l0.177-0.022l0.112-0.069
		l0.043-0.021l0.045-0.065v-0.09l-0.023-0.043l-0.043-0.087l-0.07-0.044l-0.107-0.043l-0.134-0.024H18.74l-0.154,0.024l-0.112,0.043
		l-0.065,0.063l-0.067,0.093L18.32,40.1l-0.023,0.022l-0.131,0.021l-0.378-0.021h-0.044V40.1l-0.021-0.021l0.043-0.181l0.045-0.131
		l0.044-0.109l0.065-0.09l0.092-0.066l0.043-0.043l0.155-0.09l0.087-0.043l0.222-0.043l0.199-0.022h0.246l0.087,0.022l0.221,0.043
		l0.177,0.043l0.042,0.022l0.157,0.09l0.112,0.131l0.089,0.18l0.042,0.175l0.021,0.069v0.043l0.025,0.177v0.087v0.066l0,0v0.155
		v0.199v0.178l0.021,0.178v0.511l0.022,0.044v0.044v0.019l0.047,0.068v0.021v0.025h-0.025H19.98h-0.177L19.56,41.87h-0.069h-0.087
		l-0.044-0.019l-0.046-0.156l-0.021-0.065l0,0h-0.021h-0.02l-0.067,0.088l-0.112,0.087l-0.134,0.065l-0.174,0.047l-0.134,0.021
		h-0.244l-0.243-0.066l-0.178-0.064l-0.133-0.107l-0.089-0.092l-0.065-0.086l-0.043-0.109l-0.044-0.09v-0.156L17.591,41.074
		L17.591,41.074L17.591,41.074z M18.274,41.031v0.152l0.045,0.088l0.045,0.047l0.089,0.062l0.064,0.025l0.199,0.019l0.135-0.019
		l0.065-0.025l0.089-0.021l0.156-0.108l0.043-0.067l0.045-0.108l0.02-0.112v-0.178v-0.152v-0.025h-0.02h-0.023l-0.29,0.092
		l-0.065,0.021l-0.043,0.021h-0.066l-0.109,0.043l-0.201,0.068l-0.112,0.064l-0.045,0.064L18.274,41.031L18.274,41.031
		L18.274,41.031z M20.089,39.346h0.024h0.464l0.089,0.022l0.045,0.047l0.042,0.153l0.267,0.954v0.064l0.043,0.112l0.022,0.108h0.023
		l0,0l0.043-0.087l0.045-0.175l0.023-0.112l0.044-0.134l0.132-0.489l0.089-0.374l0.021-0.069l0,0l0.045-0.022h0.065h0.043h0.244
		l0.045-0.021l0.134,0.021l0.043,0.022l0.045,0.09l0.021,0.109l0.022,0.021v0.046l0.308,1.084l0.045,0.135h0.023V40.83l0.045-0.135
		l0.043-0.202l0.021-0.109l0.089-0.243l0.067-0.309l0.042-0.133l0.069-0.243l0.02-0.112l0.043-0.021h0.089l0.289,0.021h0.246h0.021
		v0.022v0.047l-0.067,0.221l-0.577,1.904l0,0l-0.021,0.09l-0.065,0.174l-0.023,0.05h-0.021l-0.087,0.019h-0.377l-0.11-0.019
		l-0.043-0.025l-0.045-0.152l-0.132-0.468l-0.087-0.353l-0.068-0.269l-0.087-0.268l-0.023-0.019l0,0l-0.022,0.066v0.021
		l-0.199,0.688l-0.088,0.309l-0.065,0.222l-0.045,0.131v0.067l-0.045,0.05L21.33,41.87h-0.42h-0.109l-0.069-0.019v-0.05
		l-0.065-0.153l-0.64-2.146l-0.025-0.087V39.39l0.025-0.022l0,0L20.089,39.346L20.089,39.346L20.089,39.346z M23.677,41.074
		l0.022-0.09l0.045-0.131l0.09-0.134l0.109-0.112l0.177-0.111l0.132-0.062l0.089-0.025l0.176-0.043l0.221-0.047l0.133-0.019
		l0.224-0.043l0.109-0.021l0.067-0.047l0.043-0.065l0.021-0.043l-0.021-0.088l-0.022-0.046l-0.043-0.065l-0.045-0.044l-0.109-0.043
		l-0.112-0.024h-0.132h-0.089l-0.045,0.024l-0.065,0.019l-0.045,0.024l-0.11,0.063l-0.021,0.025l-0.043,0.112l-0.021,0.087h-0.025
		H24.32l-0.088,0.021h-0.353l-0.044-0.021L23.812,40.1l0.023-0.134l0.044-0.175l0.087-0.18l0.156-0.153l0.087-0.043l0.089-0.069
		l0.134-0.043l0.132-0.021h0.043l0.069-0.022h0.132h0.022h0.243l0.132,0.022l0.111,0.021l0.065,0.022l0.136,0.043l0.089,0.047
		l0.153,0.087l0.045,0.066l0.088,0.112l0.065,0.155l0.067,0.265v0.178v0.177l0.022,0.398v0.198v0.089v0.088v0.063v0.336l0.045,0.152
		l0.02,0.021v0.022v0.024l-0.042,0.02h-0.112h-0.043h-0.156h-0.174h-0.089l-0.047-0.02l-0.02-0.049l-0.047-0.154v-0.02H25.36
		l-0.065,0.088l-0.089,0.086l-0.132,0.066l-0.156,0.047l-0.155,0.021h-0.156h-0.021H24.54l-0.176-0.021l-0.179-0.047l-0.131-0.066
		l-0.11-0.086l-0.087-0.068l-0.093-0.131l-0.043-0.107l-0.043-0.182v-0.151L23.677,41.074L23.677,41.074z M24.386,41.01
		l-0.021,0.043v0.041l0.021,0.111l0.025,0.088l0.042,0.025l0.087,0.062l0.112,0.044h0.131h0.047l0.109-0.019l0.112-0.025
		l0.109-0.043l0.09-0.088l0.065-0.09l0.021-0.109l0.022-0.111v-0.155v-0.063v-0.066l-0.022-0.047h-0.021l-0.178,0.069l-0.42,0.13
		l-0.221,0.09L24.386,41.01L24.386,41.01L24.386,41.01z M28.482,41.673V38.44v-0.043l0.045-0.025h0.089h0.352h0.843h0.221
		l0.268,0.047l0.177,0.065l0.153,0.091l0.156,0.108l0.089,0.109l0.11,0.156l0.067,0.156l0.065,0.287v0.199l-0.022,0.112l-0.02,0.133
		l-0.023,0.088L30.985,40.1l-0.046,0.065l-0.064,0.09l-0.156,0.131l-0.155,0.109l-0.177,0.069l-0.199,0.066h-0.132l0,0h-0.29h-0.199
		l-0.309,0.021l-0.022,0.021l-0.021,0.087v0.156v0.798v0.108l-0.023,0.044h-0.043H28.55l-0.043-0.02h-0.023v-0.09v-0.087h-0.002
		V41.673z M29.214,38.994v0.043v0.842v0.019l0.021,0.093l0.022,0.044h0.021h0.134h0.527h0.047l0.043-0.025l0.067-0.019l0.156-0.093
		l0.067-0.087l0.043-0.087l0.022-0.134v-0.152v-0.069l-0.045-0.13L30.3,39.168l-0.069-0.065l-0.067-0.043l-0.087-0.047l-0.155-0.043
		l-0.199-0.021l-0.378,0.021h-0.087h-0.022L29.214,38.994L29.214,38.994L29.214,38.994z M31.406,38.439l0.021-0.021l0.089-0.022
		h0.42l0,0h0.089l0.043,0.022l0.024,0.021l0.019,0.065v0.069v0.95v0.022l0.024,0.065l0,0l0.021-0.022l0.043-0.043l0.156-0.131
		l0.134-0.069l0.133-0.021l0.174-0.043l0.069,0.021H33l0.131,0.022l0.088,0.043l0.089,0.047l0.176,0.131l0.133,0.178l0.044,0.156
		l0.046,0.156v0.174v0.312l0.022,0.221v0.221v0.771v0.092l-0.022,0.044l-0.021,0.024h-0.623l0,0l-0.021-0.024v-0.136v-0.039l0,0
		v-1.174l-0.024-0.044v-0.159L33,40.209l-0.025-0.087l-0.087-0.087l-0.065-0.069l-0.089-0.043l-0.088-0.025l-0.111,0.025
		l-0.089,0.021l-0.11,0.046l-0.065,0.066l-0.069,0.087l-0.043,0.112l-0.046,0.178v0.043v0.131l0,0v0.555v0.663v0.044l-0.019,0.025
		h-0.043h-0.136h-0.087h-0.243H31.54h-0.042H31.45l-0.023-0.045l-0.021-0.092l0,0v-3.121V38.439L31.406,38.439L31.406,38.439z
		 M33.951,41.074l0.067-0.199l0.089-0.156l0.155-0.134l0.11-0.065l0.067-0.042l0.153-0.043l0.112-0.047l0.087-0.021l0.267-0.047
		l0.308-0.062l0.112-0.046l0.043-0.022l0.045-0.065l0.043-0.065v-0.047l-0.021-0.087l-0.043-0.065l-0.112-0.047l-0.068-0.043
		l-0.153-0.022l-0.154,0.022l-0.112,0.024l-0.043,0.019L34.769,39.9l-0.064,0.093v0.088l-0.023,0.043l-0.067,0.021l-0.13-0.021
		h-0.023h-0.244h-0.11h-0.023V40.1v-0.065l0.023-0.112l0.042-0.178l0.112-0.156l0.087-0.065l0.09-0.087l0.153-0.069l0.112-0.043
		l0.242-0.043h0.112l0.067-0.022h0.107l0.201,0.022l0.112,0.021l0.108,0.022l0.091,0.021l0.087,0.044l0.112,0.047l0.111,0.087
		l0.043,0.065l0.045,0.046l0.064,0.131l0.044,0.112l0.023,0.13v0.09l0.023,0.065v0.069v0.199v0.021l0.023,0.377v0.198v0.263v0.134
		l0.021,0.155l0.022,0.151l0.021,0.047v0.021v0.021l-0.043,0.025h-0.177h-0.308h-0.09l-0.042-0.025l-0.046-0.129l-0.023-0.065V41.6
		h-0.021l-0.024,0.045l-0.021,0.047L35.52,41.73l-0.088,0.092l-0.112,0.044l-0.088,0.024l-0.044,0.021l0,0h-0.109l-0.11,0.021
		h-0.067h-0.134l-0.087-0.021h-0.067l-0.066-0.021l-0.043-0.024L34.349,41.8l-0.132-0.086l-0.088-0.069l-0.022-0.043l-0.069-0.086
		l-0.021-0.065l-0.046-0.134l-0.021-0.112L33.951,41.074L33.951,41.074L33.951,41.074z M34.682,40.984l-0.046,0.108v0.091
		l0.024,0.067l0.065,0.065l0.087,0.063l0.091,0.025l0.156,0.019h0.108l0.18-0.064l0.087-0.043l0.112-0.112l0.064-0.111l0.024-0.131
		v-0.33v-0.047H35.61h-0.02l-0.043,0.047l-0.156,0.044l-0.043,0.021H35.28l-0.153,0.043l-0.156,0.043l-0.134,0.068l-0.068,0.043
		L34.682,40.984L34.682,40.984L34.682,40.984z M36.674,41.717v-0.044l-0.021-1.972v-0.333l0,0l0.021-0.022h0.046h0.552l0.023,0.022
		l0.023,0.047l0.023,0.174l0.021,0.022l0,0l0.022-0.022l0.065-0.087l0.023-0.043l0.068-0.043l0.131-0.112l0.111-0.021l0.112-0.022
		h0.087l0.089,0.022l0.022,0.021l0.022,0.022l0,0v0.199v0.044v0.177v0.065v0.047h-0.022h-0.155l-0.112,0.022l-0.13,0.065
		l-0.114,0.065l-0.064,0.112l-0.089,0.156l-0.044,0.131v0.087v0.025v1.082v0.024l-0.022,0.065v0.063v0.065l-0.021,0.025
		l-0.023,0.019h-0.267h-0.308l-0.047-0.019l-0.022-0.05V41.717L36.674,41.717L36.674,41.717z M38.379,41.582v-0.131V39.81v-0.087
		V39.39v-0.022h0.022l0.134-0.022h0.244H39l0.022,0.022l0.021,0.047l0.023,0.153v0.021h0.024h0.019l0.068-0.109l0.199-0.134
		l0.154-0.065h0.134h0.199l0.199,0.021l0.131,0.065l0.066,0.047l0.068,0.043l0.064,0.065l0.089,0.134v0.021h0.023l0.065-0.068
		l0.047-0.065l0.043-0.065l0.089-0.065l0.041-0.025l0.09-0.044l0.067-0.021l0.177-0.043h0.065h0.043H41.3h0.175l0.176,0.065
		l0.111,0.069l0.065,0.043l0.046,0.043l0.066,0.066l0.021,0.021l0.067,0.134l0.021,0.087l0.043,0.199v0.134l0.022,0.066v0.555
		l-0.022,0.971v0.024v0.065v0.025l0,0h-0.133l-0.509,0.019l-0.022-0.019l-0.021-0.05v-1.326v-0.243L41.37,40.1l-0.022-0.09
		l-0.111-0.112l-0.088-0.019l-0.109-0.022l-0.087,0.022l-0.136,0.043l-0.109,0.087l-0.064,0.09l-0.021,0.109l-0.025,0.133v0.044
		v0.29l-0.021,1.019v0.132v0.024l-0.043,0.02h-0.575h-0.021l-0.023-0.044l-0.024-0.108v-1.331v-0.152l-0.019-0.112l-0.046-0.087
		l-0.088-0.112l-0.065-0.025l-0.089-0.019h-0.157l-0.088,0.043l-0.088,0.043l-0.065,0.069l-0.05,0.066l-0.024,0.087l-0.019,0.069
		v0.043l-0.024,0.109v0.068v1.305v0.044l-0.023,0.044H39h-0.555h-0.02l-0.024-0.02l-0.022-0.154V41.582L38.379,41.582L38.379,41.582
		z M42.408,41.074v-0.112l0.046-0.13l0.065-0.091l0.066-0.087l0.199-0.133l0.178-0.087l0.062-0.025l0.065-0.022l0.179-0.068
		l0.199-0.019l0.065-0.021h0.112l0.221-0.068l0.064-0.044L44,40.102l0.021-0.043v-0.09L44,39.901l-0.044-0.063l-0.065-0.043
		L43.8,39.771l-0.131-0.043l-0.178,0.021l-0.089,0.022h-0.043l-0.09,0.043l0,0l-0.066,0.069l-0.043,0.043l-0.021,0.087l-0.022,0.069
		L43.096,40.1l-0.066,0.022h-0.021h-0.332L42.542,40.1l0,0l-0.022-0.021V40.01l0.068-0.218l0.044-0.112l0.108-0.156l0.111-0.087
		l0.135-0.091l0.087-0.043l0.067-0.021h0.063l0.155-0.022l0.133-0.021h0.044h0.153l0.154,0.021l0.135,0.022l0.154,0.021l0.086,0.043
		l0.135,0.069l0.09,0.087l0.089,0.066l0.089,0.177l0.044,0.134l0.047,0.264v0.156v0.087l0.021,0.09v0.2v0.508v0.334l0.043,0.154
		l0.043,0.087v0.043H44.8l-0.266,0.022h-0.177h-0.135H44.18l-0.02-0.022l-0.049-0.155l-0.021-0.043v-0.021h-0.021l-0.021,0.021
		l-0.065,0.092l-0.09,0.063l-0.109,0.065l-0.11,0.044l-0.178,0.047H43.34l-0.133-0.021h-0.089l-0.152-0.045l-0.067-0.024
		l-0.131-0.065l-0.158-0.111l-0.088-0.088l-0.064-0.134l-0.046-0.155l-0.021-0.107L42.408,41.074L42.408,41.074L42.408,41.074z
		 M43.096,40.984v0.178l0.021,0.064l0.068,0.092l0.041,0.043l0.155,0.047h0.222l0.135-0.047l0.154-0.09l0.043-0.045l0.065-0.088
		l0.021-0.064l0.045-0.155v-0.265l-0.021-0.068v-0.021h-0.024l-0.178,0.068l-0.195,0.065l-0.137,0.043l-0.176,0.043l-0.088,0.047
		l-0.045,0.043l-0.064,0.065L43.096,40.984L43.096,40.984L43.096,40.984z M45.044,40.521v-0.087l0.021-0.199l0.047-0.134l0.046-0.09
		l0.106-0.218l0.092-0.112l0.086-0.112l0.11-0.109l0.087-0.043l0.049-0.025l0.153-0.065l0.132-0.043l0.112-0.043h0.09h0.087h0.198
		l0.312,0.065l0.152,0.065l0.199,0.134l0.091,0.087l0.088,0.134l0.111,0.174l0.044,0.137v0.087v0.021l-0.044,0.022H47.17
		l-0.064,0.021h-0.225h-0.044l-0.022-0.021l-0.062-0.13l-0.064-0.112l-0.11-0.088l-0.112-0.043H46.42h-0.182l-0.107,0.019
		l-0.088,0.047l-0.09,0.087l-0.064,0.091l-0.068,0.108l-0.043,0.175l-0.021,0.177v0.09l0.021,0.199l0.021,0.091l0.021,0.087v0.069
		l0.046,0.062l0.088,0.135l0.108,0.064l0.137,0.068l0.156,0.021l0.174-0.043l0.133-0.047l0.068-0.088l0.064-0.11l0.021-0.062
		l0.021-0.069l0.021-0.021h0.092h0.309h0.2l0.021,0.021v0.021v0.091l-0.043,0.131l-0.063,0.155l-0.046,0.064l-0.064,0.112
		l-0.09,0.106l-0.134,0.112l-0.155,0.091l-0.266,0.088h-0.154H46.2h-0.091l-0.197-0.067l-0.223-0.065l-0.067-0.068l-0.106-0.062
		l-0.092-0.091L45.38,41.54l-0.157-0.199l-0.089-0.198l-0.046-0.108l-0.021-0.112l-0.021-0.156v-0.063v-0.045v-0.046L45.044,40.521
		L45.044,40.521L45.044,40.521z M47.702,40.386l0.045-0.265l0.021-0.065l0.024-0.09l0.063-0.131l0.09-0.133l0.109-0.134l0.045-0.044
		l0.045-0.043l0.088-0.065l0.156-0.09l0.221-0.087l0.131-0.025h0.111h0.065h0.108l0.113,0.025h0.086l0.135,0.043l0.107,0.043
		l0.047,0.021l0.065,0.044l0.153,0.112l0.045,0.066l0.089,0.068l0.136,0.199l0.062,0.131l0.069,0.199l0.063,0.29l0.021,0.109v0.134
		v0.043l-0.021,0.022h-0.135h-1.594H48.45l-0.043,0.021l-0.021,0.022v0.047l0.043,0.129l0.088,0.156l0.062,0.064l0.089,0.088
		l0.093,0.023l0.106,0.043h0.091h0.107l0.068-0.021l0.108-0.047l0.112-0.065l0.045-0.063l0.086-0.109h0.022H49.6h0.045h0.066
		l0.152,0.021h0.156h0.065l0.063,0.02h0.023v0.048l-0.066,0.151l-0.065,0.115l-0.042,0.088l-0.137,0.133l-0.176,0.104l-0.179,0.092
		l-0.089,0.044l-0.156,0.047l-0.177,0.021h-0.131l-0.045-0.021l-0.046,0.021l-0.176-0.021l-0.133-0.047l-0.111-0.044l-0.135-0.065
		l-0.132-0.11l-0.198-0.174l-0.066-0.113l-0.064-0.133l-0.063-0.136l-0.046-0.175l-0.045-0.197v-0.156v-0.021v-0.069v-0.09
		L47.702,40.386L47.702,40.386z M48.453,40.078l-0.043,0.131l0.021,0.025v0.021h0.021h0.511h0.087h0.157h0.085h0.135l0.021-0.021
		v-0.025l-0.021-0.087l-0.02-0.087l-0.115-0.137l-0.085-0.063l-0.064-0.024l-0.137-0.043h-0.134l-0.154,0.043l-0.088,0.047
		l-0.108,0.109L48.453,40.078L48.453,40.078L48.453,40.078z M50.58,40.896v-0.664v-0.91l0.021-0.043l0.043-0.022h0.045h0.467H51.2
		l0.043,0.022v0.021l0.022,0.043v0.091l0,0v1.059v0.181l0.021,0.199v0.134l0.021,0.043l0.066,0.088l0.109,0.088l0.18,0.023
		l0.133-0.023l0.107-0.043l0.113-0.092l0.062-0.109l0.021-0.086l0.045-0.223v-0.312v-0.178V40.1v-0.021v-0.577v-0.156l0.021-0.065
		h0.021l0.222-0.022l0.043,0.022h0.269h0.043h0.049l0.02,0.043v0.09l-0.02,2.167v0.091v0.062v0.023l-0.024,0.021L52.744,41.8h-0.532
		l-0.044-0.021l-0.021-0.047v-0.131l-0.024-0.043h-0.021l-0.043,0.043l-0.043,0.045l-0.136,0.11L51.793,41.8l-0.068,0.022
		l-0.129,0.023l-0.092,0.021h-0.088l-0.089-0.021h-0.065L51.087,41.8l-0.089-0.043l-0.135-0.063l-0.043-0.065l-0.066-0.067
		l-0.088-0.135L50.6,41.27l-0.021-0.178v-0.109L50.58,40.896L50.58,40.896L50.58,40.896z M53.238,39.767h-0.092h-0.021l-0.021-0.065
		v-0.2l0.021-0.156l0.021-0.021l0.045-0.022l0.047,0.022h0.152l0.047-0.022l0.021-0.021v-0.069l0.021-0.065v-0.021v-0.112v-0.352
		v-0.112l0.024-0.043h0.021h0.44h0.156l0.021,0.021v0.047v0.685l0.021,0.043l0.046,0.022h0.155h0.132h0.063l0.024,0.021l0.021,0.044
		v0.025v0.221v0.109l-0.021,0.022l-0.11,0.024h-0.199h-0.084l-0.047,0.019v0.047v0.152l-0.021,0.953v0.047l0.021,0.152l0.021,0.043
		l0.065,0.066l0.045,0.021l0.135,0.024l0.178,0.021h0.021v0.021l0.021,0.064l-0.021,0.092l0.021,0.063v0.178l-0.02,0.045
		l-0.022,0.022l-0.045,0.025h-0.045h-0.244H54.1h-0.063l-0.111-0.025l-0.135-0.045l-0.108-0.063l-0.089-0.069l-0.063-0.129
		l-0.047-0.092L53.46,41.27v-0.64v-0.067v-0.13v-0.047v-0.087v-0.134V39.92v-0.088l-0.021-0.043h-0.024l-0.065-0.024h-0.111V39.767
		L53.238,39.767z M54.941,39.39v-0.044l0.021-0.021h0.063h0.068h0.44l0.067,0.021v0.022l0.021,0.047v0.131l-0.021,2.127v0.108
		l-0.023,0.044l-0.02,0.024H55.49H55.4h-0.31h-0.11l-0.043-0.024l-0.021-0.022v-0.068l0,0l0.021-2.075V39.39H54.941L54.941,39.39z
		 M54.964,38.396l0.021-0.047h0.045h0.068h0.043h0.375h0.066l0.023,0.021v0.025l0.021,0.109v0.134l-0.021,0.243v0.022v0.022h-0.023
		l-0.178,0.021h-0.108h-0.267l-0.045-0.021l-0.021-0.022v-0.087v-0.243L54.964,38.396L54.964,38.396L54.964,38.396z M55.914,40.564
		v-0.199l0.045-0.178l0.045-0.196l0.046-0.133l0.089-0.156l0.131-0.134l0.047-0.066l0.107-0.087l0.135-0.09l0.043-0.022l0.047-0.021
		l0.177-0.069l0.178-0.019h0.045l0.134-0.024l0.195,0.024l0.227,0.044l0.086,0.021l0.156,0.087l0.131,0.091l0.154,0.174l0.135,0.199
		l0.045,0.087l0.043,0.137v0.021l-0.021,0.022L58.284,40.1l-0.441,0.022h-0.088h-0.069L57.664,40.1L57.6,39.99l-0.066-0.111
		l-0.088-0.069l-0.092-0.065h-0.064l-0.107-0.021l-0.111,0.021l-0.133,0.065l-0.088,0.069l-0.066,0.043l-0.066,0.112l-0.045,0.13
		l-0.02,0.153v0.358v0.065l0.02,0.091l0.021,0.151l0.047,0.068l0.066,0.088l0.088,0.064l0.045,0.064l0.133,0.047h0.064h0.133h0.065
		l0.091-0.023l0.133-0.088l0.064-0.111l0.064-0.109l0.022-0.064l0.022-0.043h0.041h0.334h0.156l0.088,0.021l0,0l0.021,0.021v0.063
		l-0.043,0.201l-0.089,0.155l-0.066,0.087l-0.154,0.178l-0.136,0.112l-0.062,0.019l-0.049,0.048l-0.152,0.044l-0.066,0.023
		l-0.066,0.021l-0.043,0.024H57.29h-0.153l-0.154-0.024h-0.064l-0.134-0.044l-0.066-0.022l-0.133-0.067l-0.177-0.086l-0.112-0.108
		l-0.065-0.088l-0.11-0.134l-0.088-0.178l-0.044-0.179l-0.045-0.178l-0.022-0.087v-0.135h-0.007V40.564z M58.641,41.031l0.021-0.156
		l0.044-0.111l0.108-0.156l0.09-0.062l0.154-0.112l0.223-0.091l0.398-0.087h0.086l0.094-0.021h0.088l0.15-0.047l0.09-0.043
		l0.067-0.065l0.021-0.088v-0.046l-0.021-0.065l-0.067-0.088l-0.109-0.068h-0.066l-0.133-0.044l-0.089,0.022l-0.132,0.022h-0.045
		l-0.09,0.068l-0.064,0.043l-0.066,0.063l-0.045,0.137l-0.021,0.021l-0.043,0.022h-0.045h-0.334h-0.045l-0.063-0.022h-0.021v-0.021
		v-0.069l0.066-0.221l0.045-0.134l0.043-0.065l0.088-0.087l0.109-0.068l0.066-0.065l0.109-0.043l0.156-0.043l0.133-0.025h0.042
		h0.134h0.067h0.063h0.092h0.088l0.109,0.025l0.179,0.043l0.198,0.065l0.134,0.091l0.065,0.087l0.09,0.087l0.063,0.199v0.069
		l0.021,0.043v0.043l0.023,0.069v0.021l0.021,0.489v0.239v0.354v0.111v0.156v0.019v0.091l0.045,0.178l0.021,0.039l0.021,0.025
		l-0.021,0.021h-0.047l-0.175,0.021h-0.091H60.65h-0.065h-0.151H60.41l-0.021-0.021l-0.045-0.135l-0.025-0.064v-0.021h-0.021
		l-0.019,0.021l-0.068,0.064l-0.088,0.088l-0.111,0.066l-0.15,0.049h-0.069l-0.022,0.02h-0.133h-0.109h-0.064l-0.088-0.02
		l-0.18-0.024l-0.156-0.065l-0.088-0.064l-0.043-0.021l-0.064-0.044l-0.111-0.154l-0.064-0.154l-0.021-0.092v-0.11v-0.089H58.641
		L58.641,41.031z M59.324,40.962l-0.021,0.069v0.062l0.021,0.091l0.047,0.067l0.043,0.021l0.156,0.09h0.152l0.197-0.021l0.092-0.047
		l0.154-0.088l0.043-0.063l0.066-0.088v-0.091l0.021-0.087v-0.068v-0.131v-0.111l-0.021-0.02h-0.021l-0.157,0.04l-0.086,0.021
		l-0.046,0.048H59.92h-0.021l-0.15,0.044l-0.09,0.021l-0.221,0.111l-0.066,0.064L59.324,40.962L59.324,40.962L59.324,40.962z
		 M61.384,38.396v-0.069l0.024-0.021h0.109h0.09h0.328h0.045l0.045,0.021l0.043,0.022v0.047v0.087l-0.021,3.277v0.021v0.021h-0.021
		l-0.197,0.022l-0.092-0.022H61.43h-0.046v-0.021l-0.021-0.064v-0.044l0.021-3.214V38.396L61.384,38.396L61.384,38.396z
		 M63.865,40.386v-0.087v-0.09l-0.022-0.33l0.022-0.069v-0.065l0.021-0.156l0.04-0.221l0.025-0.087l0.044-0.088l0.021-0.068
		l0.047-0.088l0.108-0.199l0.091-0.111l0.107-0.131h0.021l0.045-0.047l0.09-0.09l0.135-0.062l0.13-0.069l0.134-0.065l0.135-0.044
		l0.154-0.021h0.064h0.066l0.133-0.025h0.133l0.33,0.047l0.045,0.022l0.068,0.022l0.088,0.021l0.088,0.022l0.047,0.021l0.043,0.022
		l0.043,0.021l0.092,0.069l0.154,0.109l0.021,0.047l0.068,0.043l0.021,0.043l0.092,0.088l0.021,0.021l0.067,0.156l0.086,0.199
		l0.048,0.199l-0.022,0.022l-0.021,0.022H66.92h-0.09h-0.156h-0.195h-0.133l-0.022-0.022l-0.021-0.065l-0.089-0.156l-0.066-0.109
		l-0.067-0.068l-0.063-0.065l-0.088-0.022l-0.068-0.043l-0.195-0.068l-0.225,0.021l-0.196,0.025l-0.091,0.043l-0.131,0.087
		l-0.112,0.09l-0.046,0.044l-0.021,0.065l-0.067,0.065l-0.021,0.069l-0.045,0.065l-0.021,0.112l-0.068,0.199L64.6,39.877v0.199
		l0.021,0.087L64.6,40.207l0.068,0.312l0.042,0.133l0.022,0.087l0.043,0.065l0.047,0.067l0.109,0.155l0.043,0.021l0.092,0.065
		l0.152,0.108l0.153,0.043h0.089h0.18l0.176-0.043l0.154-0.064l0.09-0.068l0.064-0.062l0.109-0.135l0.045-0.11l0.022-0.065
		l0.021-0.064l0.022-0.021h0.043h0.021l0.553,0.021l0,0l0.068,0.021h0.021v0.021l-0.021,0.064l-0.022,0.069v0.087l-0.065,0.175
		L66.878,41.2l-0.065,0.112l-0.066,0.09l-0.111,0.108L66.546,41.6l-0.087,0.045l-0.135,0.086l-0.131,0.068l-0.09,0.021l-0.136,0.045
		h-0.042l-0.178,0.025l-0.244,0.021h-0.109l-0.11-0.021l-0.243-0.07l-0.154-0.043l-0.111-0.047l-0.045-0.039l-0.086-0.049
		l-0.047-0.02l-0.131-0.109l-0.111-0.093l-0.047-0.063l-0.063-0.068v-0.021l-0.021-0.02l-0.111-0.158l-0.088-0.175l-0.045-0.112
		l-0.021-0.043l-0.046-0.178L63.865,40.386L63.865,40.386L63.865,40.386z M67.34,40.318l0.047-0.24l0.088-0.199l0.064-0.134
		l0.046-0.065l0.044-0.044l0.044-0.046l0.109-0.109l0.044-0.043l0.046-0.022l0.089-0.069l0.155-0.065l0.065-0.022l0.063-0.021
		l0.202-0.044l0.13-0.024h0.245l0.197,0.043l0.09,0.025l0.063,0.021l0.091,0.043l0.221,0.134l0.111,0.087l0.154,0.2l0.045,0.087
		l0.043,0.047l0.021,0.065l0.088,0.243l0.023,0.09v0.043l0.021,0.066l0,0v0.112v0.087l-0.021,0.156l-0.023,0.197l-0.041,0.134
		l-0.047,0.109l-0.064,0.09l-0.111,0.175l-0.065,0.092l-0.048,0.043l-0.086,0.088l-0.266,0.153l-0.066,0.022h-0.021l0,0h-0.021
		l-0.045,0.023h-0.043l-0.047,0.021h-0.043l-0.043,0.024h-0.045h-0.064l-0.047,0.021h-0.065h-0.044l-0.046-0.021h-0.043h-0.044
		h-0.021l0,0H68.45l-0.226-0.068l-0.107-0.044l-0.182-0.087l-0.062-0.049l-0.021-0.019l-0.045-0.024l-0.111-0.131l-0.064-0.063
		l-0.111-0.183l-0.088-0.175l-0.062-0.245l-0.025-0.175v-0.178v-0.136H67.34V40.318z M68.025,40.386v0.134v0.112l0.024,0.175
		l0.021,0.068l0.021,0.064l0.047,0.068l0.086,0.131l0.047,0.064l0.063,0.047l0.136,0.064l0.088,0.021h0.176h0.09l0.152-0.068
		l0.11-0.088l0.111-0.131l0.065-0.156l0.021-0.134v-0.087l0.023-0.068v-0.088l-0.023-0.178l-0.021-0.133l-0.045-0.153L69.13,39.94
		l-0.087-0.087l-0.113-0.09l-0.133-0.043l-0.13-0.02l-0.177,0.022l-0.09,0.043l-0.109,0.068l-0.089,0.088l-0.021,0.021l-0.045,0.046
		L68.094,40.1l-0.066,0.218v0.068H68.025L68.025,40.386z M70.173,41.518V41.41v-0.07v-0.135v-0.043l0.024-0.021l0,0l0.111-0.021
		h0.062h0.335h0.021l0.021,0.044l0.021,0.021v0.226v0.065v0.174v0.067l-0.021,0.043h-0.021h-0.485h-0.024h-0.021l-0.022-0.063
		V41.518L70.173,41.518L70.173,41.518z M71.215,41.803h-0.066h-0.045l-0.021-0.043l-0.022-0.025v-0.57l0.022-0.044l0.021-0.022
		h0.045h0.043h0.443l0.135,0.022h0.021l0.021,0.021v0.131v0.09v0.312v0.266l-0.022,0.11l-0.087,0.177l-0.11,0.154l-0.112,0.086
		l-0.045,0.047l-0.065,0.021l-0.043,0.045l-0.179,0.043h-0.021h-0.024l-0.021-0.043v-0.133l0.021-0.045l0.133-0.088l0.111-0.088
		l0.067-0.135l0.065-0.178l-0.021-0.091l0,0l-0.091-0.022L71.215,41.803L71.215,41.803L71.215,41.803z M72.257,38.284l0.021-0.043
		h0.134h0.354l0.133,0.022h0.022h0.043v0.021v0.087v2.639v0.084v0.024l0.021,0.021h0.048h0.153h0.088l1.195,0.022h0.109l0.021,0.021
		l0.023,0.021v0.113v0.396v0.02v0.023l-0.047,0.021H74.49l-2.018-0.021H72.32h-0.065l-0.047-0.023v-0.039v-0.066l0.047-3.233v-0.11
		H72.257L72.257,38.284z M74.803,39.723h-0.089l-0.045-0.022v-0.044l-0.022-0.333l0.022-0.043l0.022-0.022h0.021h0.244l0.021-0.021
		l0.021-0.025V39.17v-0.573v-0.09l0.021-0.046h0.022h0.065h0.023h0.375h0.045h0.088l0.045,0.024v0.022v0.069l0,0v0.196v0.199v0.156
		l0.021,0.112l0.021,0.021h0.107h0.111h0.044h0.067l0.063,0.022l0.022,0.021v0.309v0.09H76.13l-0.021,0.022h-0.244h-0.047
		l-0.063,0.021h-0.044l-0.021,0.022v0.043v0.911v0.086v0.27l0.043,0.088l0.065,0.064l0.091,0.023l0.266,0.02l0.021,0.021l0,0v0.047
		v0.42v0.021h-0.021l-0.065,0.021h-0.11h-0.266H75.62h-0.108l-0.158-0.043l-0.084-0.063l-0.133-0.135l-0.07-0.108l-0.043-0.111
		v-0.198l-0.021-1.307v-0.09H74.98l-0.021-0.021L74.803,39.723L74.803,39.723L74.803,39.723z M76.594,39.723l0.112-0.178
		l0.065-0.087l0.11-0.112l0.154-0.087l0.091-0.047l0.107-0.043l0.066-0.022h0.065l0.134-0.021l0.197,0.021l0.089,0.022l0.112,0.043
		l0.108,0.069l0.067,0.043l0.043,0.021l0.045,0.069l0.062,0.043l0,0V39.39l0.023-0.152l-0.023-0.489l0.023-0.309v-0.09v-0.065
		v-0.021h0.02l0.092-0.022h0.377h0.023h0.131l0.023,0.022l0.021,0.043v0.09v0.221v3.012v0.065l-0.021,0.039l-0.023,0.024h-0.065
		h-0.484H78.32h-0.047l-0.021-0.024l-0.021-0.151v-0.021H78.21l-0.09,0.066l-0.088,0.064L77.9,41.76l-0.088,0.043l-0.139,0.049
		H77.57h-0.066H77.37l-0.22-0.049l-0.047-0.021l-0.152-0.087l-0.092-0.092l-0.107-0.106l-0.09-0.113l-0.021-0.021l-0.066-0.109
		V41.23l-0.021-0.045l-0.021-0.043l-0.021-0.048l-0.021-0.062l-0.021-0.069L76.443,40.9l-0.021-0.09V40.72l-0.023-0.065v-0.09
		v-0.069v-0.062l0.023-0.091v-0.065l0.021-0.068v-0.044l0.021-0.065v-0.043l0.021-0.066v-0.024l0.021-0.043v-0.025l0,0V39.88
		L76.594,39.723L76.594,39.723L76.594,39.723z M77.104,40.455v0.131l0.024,0.112l0.021,0.134l0.043,0.107l0.066,0.111l0.09,0.109
		l0.154,0.064l0.175,0.023l0.156-0.023l0.112-0.045l0.041-0.043l0.068-0.047l0.088-0.109l0.043-0.107l0.045-0.223v-0.335
		l-0.045-0.196l-0.043-0.112L78.1,39.921l-0.065-0.065l-0.089-0.09H77.9l-0.067-0.043l-0.11-0.022H77.66h-0.09l-0.112,0.043
		L77.35,39.81l-0.021,0.047l-0.046,0.041l-0.066,0.093l-0.064,0.175l-0.047,0.221v0.068H77.104L77.104,40.455z M79.296,41.205
		v-0.064V41.12l0.024-0.022h0.106l0.312,0.022h0.088h0.021l0.024,0.063v0.489v0.044l-0.024,0.018l-0.021,0.025h-0.485H79.32
		l-0.045-0.043v-0.068l0.021-0.42V41.205L79.296,41.205z"/>
	<polygon fill="#FFFFFF" points="0.274,43.178 6.563,43.178 6.563,36.823 0.274,36.823 	"/>
	<path opacity="0.7" fill="#142A3E" enable-background="new    " d="M5.167,37.664c-0.088,0-0.154,0-0.312,0.021
		c-0.618,0-0.973,0.355-0.973,1.041v0.819h2.68v-2.722H5.167V37.664L5.167,37.664z"/>
	<path fill="#142A3E" d="M3.082,40.365l-1.79,0.084l-0.041-0.84l1.723-0.082l-0.042-0.861c-0.055-1.173,0.78-1.812,1.618-1.917
		c0.045-0.001,0.197-0.031,0.219-0.033l-4.644,0.223l0.302,6.347l2.788-0.134L3.082,40.365L3.082,40.365z"/>
	<polygon opacity="0.7" fill="#142A3E" enable-background="new    " points="3.883,43.178 6.563,43.178 6.563,40.386 3.883,40.386 	
		"/>
</g>
</svg>
