<?xml version="1.0" encoding="utf-8"?>
<!-- Generator: Adobe Illustrator 16.0.0, SVG Export Plug-In . SVG Version: 6.00 Build 0)  -->
<!DOCTYPE svg PUBLIC "-//W3C//DTD SVG 1.1//EN" "http://www.w3.org/Graphics/SVG/1.1/DTD/svg11.dtd">
<svg version="1.1" id="Layer_1" xmlns="http://www.w3.org/2000/svg" xmlns:xlink="http://www.w3.org/1999/xlink" x="0px" y="0px"
	 width="80px" height="24.698px" viewBox="0 3.322 80 24.698" enable-background="new 0 3.322 80 24.698" xml:space="preserve">
<g>
	<rect x="0.113" y="19.151" fill="#152A3F" width="0.81" height="0.84"/>
	<rect x="1.692" y="19.879" fill="#152A3F" width="0.909" height="0.936"/>
	<rect x="3.396" y="19.459" fill="#152A3F" width="1.104" height="1.131"/>
	<rect x="3.005" y="21.555" fill="#152A3F" width="1.131" height="1.146"/>
	<rect x="5.758" y="19.571" fill="#152A3F" width="1.327" height="1.242"/>
	<rect x="5.59" y="21.889" fill="#152A3F" width="1.342" height="1.328"/>
	<rect x="8.23" y="22.448" fill="#152A3F" width="1.37" height="1.359"/>
	<path fill="#152A3F" d="M7.561,17.979c0,0,0.265,1.244,0.503,1.453h1.424v1.648H9.152c0,0,0.517,0.67,1.062,0.953v-1.021h1.564
		v1.621h-0.614c0,0,3.855,2.375,7.81-0.936c0,0-3.115,0.686-7.656-1.805C8.579,18.326,7.825,18.049,7.561,17.979z"/>
	<path fill="#152A3F" d="M1.692,17.561c0,0,3.311-5.197,12.504,0c4.331,2.514,7.376,1.611,9.974-2.312c0,0-2.138,9.099-11.238,4.628
		C9.81,18.174,5.171,14.906,1.692,17.561z"/>
	<path fill="#152A3F" d="M12.018,15.655c0,0-2.878-1.112-4.457-1.142L6.26,13.395c0,0-0.53-0.225-0.278-0.728
		c0.252-0.501,0.783-1.396,0.783-1.396s0.224-0.446,0.797-0.252c0.572,0.197,1.801,0.672,1.801,0.672s0.503-0.614,1.09-0.978
		l-0.308-1.816c0,0-0.251-0.529,0.53-0.811c0.782-0.278,1.174-0.419,1.174-0.419s0.391-0.306,0.781,0.308
		c0.392,0.614,0.979,1.537,0.979,1.537s0.81-0.084,1.48,0l0.811-1.396c0,0,0.279-0.796,1.006-0.524
		c0.727,0.272,1.341,0.524,1.341,0.524s0.419,0.027,0.279,0.781c-0.14,0.756-0.251,1.79-0.251,1.79s0.614,0.393,1.061,0.909
		l1.704-0.601c0,0,0.614-0.308,0.838,0.167l0.727,1.258c0,0,0.391,0.364-0.141,0.81c-0.529,0.446-1.37,1.146-1.37,1.146
		s0.225,1.396,0.253,1.507c0.026,0.113,1.005,0.419,1.005,0.419s-2.207,2.906-5.783,1.396c0,0,1.257-2.038-0.923-3.462
		C13.916,13.285,12.353,14.729,12.018,15.655z"/>
	<polygon fill="#152A3F" points="29.229,11.749 29.229,19.385 30.252,19.385 30.252,15.883 37.351,15.883 37.351,19.385 
		38.411,19.385 38.411,11.749 37.368,11.749 37.368,14.972 30.271,14.972 30.271,11.749 	"/>
	<path fill="#152A3F" d="M45.434,14.636c-0.633-0.932-4.639-0.634-5.346-0.317c-0.708,0.317-0.652,1.336-0.652,1.336h0.875
		c0.226-0.544-0.168-0.87,1.976-0.907c2.142-0.038,2.233,0.242,2.496,0.501c0.26,0.261,0.276,1.824,0.276,1.824s0,0-0.242-0.33
		c-0.575-0.665-3.146-0.486-4.283-0.45c-1.135,0.038-1.471,0.987-1.249,2.124c0.223,1.137,1.715,1.061,1.715,1.061s1.192,0,2.364,0
		c1.173,0,1.66-0.709,1.66-0.709v0.617h0.781c0,0,0-1.807,0-2.552C45.807,16.088,45.843,15.231,45.434,14.636z M44.895,17.838
		c0,0.895-1.137,0.895-1.137,0.895s-2.087,0-2.568,0c-0.483,0-1.082-0.094-1.082-0.895s0.97-0.836,0.97-0.836s1.118,0,2.553,0
		C45.061,17.002,44.895,17.838,44.895,17.838z"/>
	<rect x="46.794" y="11.749" fill="#152A3F" width="0.819" height="7.729"/>
	<polygon fill="#152A3F" points="48.117,11.749 57.448,11.749 57.448,13.686 54.003,13.686 54.003,19.479 51.543,19.479 
		51.543,13.648 48.117,13.648 	"/>
	<path fill="#152A3F" d="M61.658,13.891c-2.496-0.11-5.348-0.334-5.327,1.725c0.019,2.057-0.261,3.49,1.321,3.75
		c1.586,0.262,5.83,0.729,5.961-1.693h-2.012c0,0,0.221,0.668-1.595,0.668s-1.629-0.426-1.739-1.248h5.383
		C63.65,17.092,64.154,14.002,61.658,13.891z M61.562,16.07h-3.295c0,0-0.279-1.024,1.739-1.024S61.562,16.07,61.562,16.07z"/>
	<path fill="#152A3F" d="M69.688,16.181h2.086c0,0,0.039-2.066-1.638-2.197c-1.675-0.131-3.559-0.336-5.03,0.28
		c-0.688,0.354-0.894,1.376-0.873,2.345c0.02,0.97-0.073,2.591,1.715,2.776c1.789,0.188,4.88,0.393,5.494-0.729
		c0.262-0.67,0.334-1.434,0.334-1.434h-2.086c0,0,0.057,0.838-1.324,0.838c-1.377,0-2.086-0.094-2.066-0.875
		c0.02-0.78-0.296-1.806,1.25-1.806C69.096,15.38,69.5,15.287,69.688,16.181z"/>
	<path fill="#152A3F" d="M72.48,11.731h1.992v3.241c0,0,0.43-1.192,2.144-1.127s3.271,0.072,3.271,2.843c0,2.773,0,2.773,0,2.773
		h-2.099v-2.867c0,0,0.29-1.25-1.604-1.25c-1.896,0-1.654,1.171-1.654,1.49c0,0.318,0,2.627,0,2.627H72.48V11.731L72.48,11.731z"/>
</g>
</svg>
