<?xml version="1.0" encoding="utf-8"?>
<!-- Generator: Adobe Illustrator 16.0.0, SVG Export Plug-In . SVG Version: 6.00 Build 0)  -->
<!DOCTYPE svg PUBLIC "-//W3C//DTD SVG 1.1//EN" "http://www.w3.org/Graphics/SVG/1.1/DTD/svg11.dtd">
<svg version="1.1" id="Layer_1" xmlns="http://www.w3.org/2000/svg" xmlns:xlink="http://www.w3.org/1999/xlink" x="0px" y="0px"
	 width="80px" height="15.997px" viewBox="0 32.001 80 15.997" enable-background="new 0 32.001 80 15.997" xml:space="preserve">
<g>
	<rect x="0.795" y="43.42" fill="#152A3F" width="0.796" height="0.824"/>
	<rect x="2.347" y="44.135" fill="#152A3F" width="0.893" height="0.92"/>
	<rect x="4.022" y="43.723" fill="#152A3F" width="1.085" height="1.112"/>
	<rect x="3.637" y="45.782" fill="#152A3F" width="1.112" height="1.126"/>
	<rect x="6.343" y="43.832" fill="#152A3F" width="1.304" height="1.223"/>
	<rect x="6.178" y="46.111" fill="#152A3F" width="1.318" height="1.305"/>
	<rect x="8.773" y="46.661" fill="#152A3F" width="1.346" height="1.337"/>
	<path fill="#152A3F" d="M8.114,42.268c0,0,0.261,1.223,0.495,1.428h1.4v1.621h-0.33c0,0,0.508,0.658,1.044,0.935v-1.003h1.538
		v1.593h-0.604c0,0,3.79,2.334,7.676-0.92c0,0-3.062,0.673-7.525-1.771C9.116,42.609,8.375,42.336,8.114,42.268z"/>
	<path fill="#152A3F" d="M2.347,41.855c0,0,3.254-5.108,12.29,0c4.257,2.471,7.25,1.584,9.804-2.271c0,0-2.101,8.943-11.047,4.55
		C10.325,42.459,5.766,39.246,2.347,41.855z"/>
	<path fill="#152A3F" d="M12.495,39.983c0,0-2.829-1.094-4.381-1.122l-1.277-1.099c0,0-0.522-0.22-0.274-0.714
		c0.247-0.495,0.769-1.374,0.769-1.374s0.22-0.439,0.783-0.247c0.563,0.192,1.771,0.659,1.771,0.659s0.495-0.604,1.071-0.961
		l-0.302-1.785c0,0-0.247-0.521,0.522-0.796c0.769-0.274,1.153-0.412,1.153-0.412s0.385-0.302,0.769,0.302
		c0.384,0.604,0.961,1.511,0.961,1.511s0.796-0.083,1.456,0l0.796-1.373c0,0,0.274-0.783,0.989-0.515
		c0.714,0.268,1.318,0.515,1.318,0.515s0.412,0.027,0.275,0.769c-0.137,0.742-0.247,1.758-0.247,1.758s0.604,0.386,1.043,0.894
		l1.675-0.591c0,0,0.604-0.302,0.824,0.165l0.714,1.236c0,0,0.384,0.357-0.138,0.796c-0.521,0.439-1.346,1.126-1.346,1.126
		s0.22,1.373,0.248,1.483c0.027,0.11,0.988,0.412,0.988,0.412s-2.169,2.856-5.685,1.373c0,0,1.236-2.004-0.907-3.405
		C14.362,37.653,12.824,39.073,12.495,39.983z"/>
	<polygon fill="#152A3F" points="29.412,36.143 29.412,43.648 30.419,43.648 30.419,40.208 37.395,40.208 37.395,43.648 
		38.438,43.648 38.438,36.143 37.413,36.143 37.413,39.311 30.438,39.311 30.438,36.143 	"/>
	<path fill="#152A3F" d="M45.341,38.981c-0.622-0.916-4.56-0.623-5.255-0.312c-0.696,0.312-0.641,1.314-0.641,1.314h0.86
		c0.22-0.536-0.165-0.856,1.941-0.893c2.105-0.037,2.195,0.238,2.453,0.494c0.256,0.256,0.273,1.794,0.273,1.794s0,0-0.238-0.325
		c-0.566-0.655-3.094-0.479-4.211-0.443c-1.116,0.037-1.445,0.971-1.227,2.088c0.219,1.117,1.686,1.044,1.686,1.044s1.172,0,2.324,0
		c1.153,0,1.631-0.696,1.631-0.696v0.604h0.769c0,0,0-1.775,0-2.508C45.707,40.409,45.743,39.567,45.341,38.981z M44.811,42.13
		c0,0.879-1.117,0.879-1.117,0.879s-2.051,0-2.526,0s-1.062-0.092-1.062-0.879c0-0.788,0.952-0.823,0.952-0.823s1.1,0,2.51,0
		C44.975,41.307,44.811,42.13,44.811,42.13z"/>
	<rect x="46.678" y="36.143" fill="#152A3F" width="0.807" height="7.599"/>
	<polygon fill="#152A3F" points="47.979,36.143 57.15,36.143 57.15,38.047 53.764,38.047 53.764,43.742 51.346,43.742 51.346,38.01 
		47.979,38.01 	"/>
	<path fill="#152A3F" d="M61.288,38.249c-2.453-0.11-5.255-0.329-5.236,1.694c0.019,2.022-0.256,3.432,1.3,3.688
		c1.558,0.256,5.73,0.715,5.858-1.666h-1.978c0,0,0.217,0.659-1.566,0.659s-1.602-0.421-1.71-1.228h5.291
		C63.247,41.396,63.741,38.358,61.288,38.249z M61.195,40.391h-3.239c0,0-0.274-1.007,1.71-1.007S61.195,40.391,61.195,40.391z"/>
	<path fill="#152A3F" d="M69.18,40.5h2.051c0,0,0.037-2.032-1.61-2.16s-3.498-0.33-4.944,0.275
		c-0.677,0.348-0.879,1.354-0.859,2.307c0.019,0.951-0.073,2.545,1.685,2.729c1.758,0.183,4.797,0.385,5.401-0.715
		c0.256-0.658,0.328-1.41,0.328-1.41h-2.049c0,0,0.055,0.824-1.302,0.824c-1.354,0-2.051-0.092-2.032-0.859
		c0.02-0.768-0.291-1.776,1.229-1.776S68.996,39.622,69.18,40.5z"/>
	<path fill="#152A3F" d="M71.926,36.125h1.959v3.186c0,0,0.422-1.173,2.105-1.108c1.685,0.064,3.215,0.071,3.215,2.796
		c0,2.726,0,2.726,0,2.726h-2.062v-2.819c0,0,0.285-1.228-1.578-1.228s-1.625,1.153-1.625,1.465s0,2.582,0,2.582h-2.015
		L71.926,36.125L71.926,36.125z"/>
</g>
</svg>
