<?xml version="1.0" encoding="utf-8"?>
<!-- Generator: Adobe Illustrator 16.0.0, SVG Export Plug-In . SVG Version: 6.00 Build 0)  -->
<!DOCTYPE svg PUBLIC "-//W3C//DTD SVG 1.1//EN" "http://www.w3.org/Graphics/SVG/1.1/DTD/svg11.dtd">
<svg version="1.1" id="Layer_1" xmlns="http://www.w3.org/2000/svg" xmlns:xlink="http://www.w3.org/1999/xlink" x="0px" y="0px"
	 width="80px" height="45.625px" viewBox="0 0 80 45.625" enable-background="new 0 0 80 45.625" xml:space="preserve">
<g>
	<path fill-rule="evenodd" clip-rule="evenodd" fill="#142A3E" d="M40.646,21.984c-0.327-0.099-0.66-0.047-0.997-0.055
		c0,0.483,0,0.945,0,1.422c0.31-0.007,0.609,0.027,0.907-0.036c0.043-0.01,0.088-0.024,0.129-0.04
		c0.316-0.121,0.449-0.329,0.441-0.687C41.119,22.286,40.957,22.079,40.646,21.984z"/>
	<path fill-rule="evenodd" clip-rule="evenodd" fill="#142A3E" d="M34.971,29.498c0.303,0.032,0.827,0.021,0.956-0.019
		c-0.153-0.346-0.308-0.689-0.474-1.063C35.286,28.792,35.131,29.136,34.971,29.498z"/>
	<path fill-rule="evenodd" clip-rule="evenodd" fill="#142A3E" d="M62.596,21.439c-0.123-2.585-0.709-5.067-1.73-7.438
		c-2.18-5.051-5.727-8.84-10.613-11.366c-1.986-1.026-4.09-1.711-6.291-2.1c-0.984-0.174-1.979-0.28-2.977-0.321
		c-0.068-0.003-0.135-0.019-0.201-0.029c-0.511,0-1.022,0-1.533,0c-0.072,0.011-0.145,0.027-0.217,0.031
		c-2.094,0.093-4.137,0.461-6.125,1.123c-3.305,1.1-6.207,2.864-8.692,5.3c-3.046,2.984-5.093,6.55-6.144,10.683
		c-0.249,0.98-0.43,1.975-0.53,2.981c-0.052,0.52-0.088,1.042-0.132,1.562c-0.006,0.066-0.025,0.132-0.038,0.198
		c0,0.512,0,1.023,0,1.534c0.021,0.15,0.052,0.301,0.062,0.451c0.329,5.464,2.345,10.218,6.069,14.222
		c3.121,3.354,6.938,5.541,11.402,6.594c1.101,0.26,2.217,0.431,3.346,0.513c0.175,0.013,0.351,0.021,0.526,0.035
		c0.056,0.004,0.11,0.019,0.165,0.028c0.728,0,1.454,0,2.18,0c0.057-0.01,0.111-0.026,0.166-0.029
		c4.059-0.23,7.797-1.446,11.182-3.696c4.359-2.896,7.375-6.844,9.049-11.807c0.426-1.26,0.723-2.554,0.906-3.872
		c0.084-0.607,0.162-1.215,0.172-1.83c0-0.056,0.02-0.11,0.029-0.166c0-0.817,0-1.635,0-2.453
		C62.617,21.537,62.598,21.488,62.596,21.439z M23.423,26.636c-0.713,0-1.424,0-2.147,0c0-2.146,0-4.283,0-6.432
		c0.714,0,1.42,0,2.13,0c0.001,0.001,0.005,0.005,0.009,0.008c0.004,0.004,0.01,0.009,0.012,0.013
		c0.003,0.017,0.008,0.034,0.008,0.05c0,2.095,0.001,4.189,0,6.284C23.435,26.58,23.429,26.603,23.423,26.636z M25.997,30.305
		c-0.082-0.178-0.166-0.362-0.253-0.555c-0.391,0-0.78,0-1.184,0c-0.081,0.18-0.165,0.364-0.254,0.558c-0.077,0-0.153,0-0.26,0
		c0.326-0.737,0.658-1.458,0.987-2.187c0.057-0.005,0.105-0.007,0.155-0.011c0.066-0.006,0.102,0.027,0.128,0.087
		c0.309,0.688,0.619,1.373,0.929,2.061c0.004,0.01,0.003,0.021,0.005,0.047C26.17,30.305,26.089,30.305,25.997,30.305z
		 M28.983,30.299c-0.134,0.052-0.215,0.005-0.296-0.099c-0.381-0.494-0.77-0.982-1.156-1.473c-0.035-0.043-0.071-0.087-0.107-0.131
		c-0.013,0.003-0.025,0.005-0.039,0.007c0,0.564,0,1.128,0,1.703c-0.089,0-0.159,0-0.24,0c0-0.724,0-1.44,0-2.161
		c0.147-0.048,0.243-0.009,0.338,0.114c0.36,0.473,0.732,0.938,1.102,1.406c0.038,0.049,0.078,0.096,0.129,0.157
		c0.052-0.121,0.022-0.232,0.027-0.339c0.006-0.114,0.001-0.228,0.001-0.341c0-0.107,0-0.216,0-0.323c0-0.113,0-0.227,0-0.341
		c0-0.111,0-0.224,0-0.344c0.061-0.005,0.099-0.009,0.137-0.008c0.032,0,0.065,0.007,0.105,0.011
		C28.983,28.866,28.983,29.583,28.983,30.299z M30.293,30.308c-0.069,0-0.14,0-0.224,0c0-0.725,0-1.445,0-2.173
		c0.078,0,0.145,0,0.209,0C30.321,28.252,30.333,30.086,30.293,30.308z M30.622,26.639c-0.061,0.003-0.12,0.009-0.181,0.009
		c-0.522,0.001-1.045-0.002-1.567,0.003c-0.12,0.002-0.196-0.037-0.271-0.132c-0.705-0.882-1.414-1.761-2.123-2.641
		c-0.037-0.046-0.078-0.091-0.117-0.136c-0.011,0.004-0.02,0.008-0.03,0.011c0,0.956,0,1.911,0,2.861
		c-0.14,0.04-1.881,0.052-2.121,0.019c-0.036-0.127-0.042-6.252-0.004-6.434c0.053-0.002,0.108-0.008,0.163-0.008
		c0.557,0,1.113,0.003,1.669-0.003c0.121-0.001,0.197,0.041,0.271,0.134c0.674,0.842,1.352,1.681,2.028,2.521
		c0.038,0.046,0.079,0.091,0.143,0.164c0-0.952,0-1.869,0-2.779c0.131-0.043,1.909-0.055,2.142-0.017
		C30.622,22.346,30.622,24.483,30.622,26.639z M33.466,30.305c-0.073,0-0.148,0-0.239,0c0-0.555,0-1.109,0-1.663
		c-0.015-0.004-0.029-0.009-0.044-0.013c-0.245,0.358-0.49,0.716-0.753,1.101c-0.269-0.375-0.506-0.743-0.774-1.123
		c-0.046,0.161-0.02,0.3-0.024,0.437c-0.006,0.142-0.002,0.283-0.002,0.426c0,0.136,0,0.272,0,0.408c0,0.141,0,0.281,0,0.432
		c-0.089,0-0.159,0-0.24,0c0-0.726,0-1.442,0-2.158c0.232-0.05,0.233-0.05,0.354,0.13c0.192,0.288,0.385,0.576,0.577,0.863
		c0.031,0.047,0.064,0.093,0.107,0.154c0.037-0.048,0.069-0.084,0.097-0.124c0.199-0.297,0.397-0.595,0.596-0.893
		c0.112-0.168,0.113-0.168,0.333-0.143C33.49,28.257,33.503,30.024,33.466,30.305z M36.299,30.308
		c-0.083-0.18-0.17-0.369-0.259-0.562c-0.392,0-0.776,0-1.177,0c-0.085,0.185-0.172,0.373-0.261,0.566c-0.079,0-0.151,0-0.223,0
		c-0.006-0.008-0.011-0.012-0.013-0.017c-0.002-0.004-0.004-0.011-0.003-0.016c0.014-0.037,0.025-0.075,0.041-0.111
		c0.309-0.682,0.617-1.364,0.929-2.051c0.044-0.004,0.066-0.004,0.089-0.008c0.113-0.02,0.171,0.029,0.218,0.136
		c0.257,0.581,0.521,1.158,0.783,1.738c0.046,0.102,0.092,0.204,0.145,0.323C36.47,30.308,36.394,30.308,36.299,30.308z
		 M35.789,26.44c-0.416,0.197-0.859,0.294-1.315,0.319c-0.854,0.046-1.688-0.06-2.488-0.374c-0.389-0.152-0.745-0.361-1.066-0.628
		c-0.026-0.021-0.051-0.046-0.091-0.084c0.389-0.463,0.768-0.914,1.149-1.37c0.059,0.04,0.106,0.07,0.151,0.104
		c0.655,0.46,1.39,0.653,2.183,0.646c0.1-0.001,0.202-0.024,0.3-0.053s0.166-0.096,0.174-0.208c0.007-0.104-0.047-0.177-0.132-0.219
		c-0.102-0.05-0.207-0.096-0.316-0.123c-0.297-0.074-0.599-0.128-0.895-0.207c-0.333-0.091-0.666-0.187-0.99-0.306
		c-0.194-0.072-0.381-0.178-0.554-0.294c-0.558-0.375-0.777-0.914-0.714-1.572c0.079-0.821,0.521-1.383,1.264-1.72
		c0.366-0.167,0.754-0.248,1.153-0.268c0.696-0.033,1.385,0.017,2.051,0.239c0.438,0.146,0.901,0.399,1.176,0.647
		c-0.346,0.478-0.691,0.958-1.044,1.447c-0.069-0.043-0.127-0.078-0.183-0.113c-0.548-0.342-1.146-0.517-1.791-0.514
		c-0.084,0-0.17,0.015-0.25,0.039c-0.098,0.03-0.168,0.093-0.177,0.206c-0.009,0.111,0.041,0.191,0.137,0.233
		c0.113,0.051,0.229,0.101,0.35,0.128c0.37,0.086,0.744,0.156,1.114,0.243c0.358,0.083,0.711,0.195,1.034,0.38
		c0.143,0.082,0.281,0.173,0.406,0.278c0.343,0.287,0.528,0.655,0.558,1.107C37.041,25.32,36.617,26.049,35.789,26.44z
		 M37.445,30.319c0-0.736,0-1.453,0-2.185c0.086,0,0.151,0,0.239,0c0,0.645,0,1.282,0,1.94c0.415,0,0.81,0,1.221,0
		c0.004,0.085,0.007,0.149,0.011,0.24C38.423,30.323,37.939,30.317,37.445,30.319z M42.928,30.306
		c-0.037,0.005-0.076,0.011-0.113,0.013c-0.033,0.001-0.068-0.004-0.119-0.008c0-0.316,0-0.632,0-0.966
		c-0.43-0.021-0.838-0.005-1.262-0.011c0,0.334,0,0.645,0,0.975c-0.082,0.005-0.154,0.008-0.221,0.011
		c-0.041-0.13-0.049-1.994-0.01-2.182c0.068,0,0.139,0,0.229,0c0,0.318,0,0.628,0,0.949c0.424,0,0.828,0,1.254,0
		c0-0.32,0-0.63,0-0.948c0.057-0.005,0.094-0.011,0.131-0.012c0.035,0,0.066,0.004,0.111,0.008
		C42.928,28.859,42.928,29.577,42.928,30.306z M43.264,22.7c-0.045,0.657-0.305,1.204-0.834,1.611
		c-0.367,0.283-0.793,0.431-1.246,0.517c-0.342,0.063-0.687,0.073-1.033,0.069c-0.163-0.002-0.326-0.001-0.513-0.001
		c0,0.306,0,0.593,0,0.881c0,0.283,0,0.565,0,0.859c-0.725,0-1.432,0-2.15,0c0-2.144,0-4.281,0-6.434
		c0.048-0.004,0.096-0.012,0.145-0.012c0.943,0,1.886-0.006,2.827,0.002c0.468,0.004,0.929,0.067,1.371,0.231
		C42.834,20.795,43.338,21.616,43.264,22.7z M45.58,30.291c-0.119,0.034-1.363,0.043-1.584,0.01c0-0.715,0-1.433,0-2.169
		c0.527,0,1.037,0,1.562,0c0,0.069,0,0.134,0,0.223c-0.434,0-0.865,0-1.309,0c0,0.255,0,0.484,0,0.732
		c0.387,0.027,0.771-0.001,1.166,0.018c0,0.072,0,0.137,0,0.219c-0.385,0-0.768,0-1.164,0c0,0.258,0,0.499,0,0.766
		c0.439,0.011,0.879-0.002,1.328,0.007C45.58,30.172,45.58,30.23,45.58,30.291z M45.889,26.646
		c-0.713,0.005-1.424,0.004-2.141,0.001c0-2.159,0-4.297,0-6.445c0.717,0,1.422,0,2.141,0
		C45.889,22.347,45.889,24.483,45.889,26.646z M48.285,30.312c-0.086-0.188-0.17-0.373-0.256-0.563c-0.389,0-0.771,0-1.18,0
		c-0.082,0.176-0.168,0.364-0.26,0.56c-0.078,0-0.154,0-0.25,0c0.02-0.054,0.035-0.101,0.055-0.144
		c0.289-0.641,0.578-1.28,0.867-1.921c0.037-0.083,0.072-0.146,0.184-0.138c0.084,0.007,0.131,0.028,0.166,0.108
		c0.146,0.333,0.299,0.661,0.447,0.991c0.141,0.311,0.281,0.619,0.422,0.93c0.021,0.051,0.041,0.103,0.07,0.177
		C48.447,30.312,48.371,30.312,48.285,30.312z M49.1,24.807c-0.084,0.009-0.17,0.002-0.277,0.002
		c-0.004,0.076-0.012,0.141-0.012,0.206c0,0.477,0,0.953,0,1.431c0,0.061,0,0.121,0,0.192c-0.729,0-1.436,0-2.154,0
		c0-2.144,0-4.281,0-6.434c0.049-0.004,0.098-0.013,0.145-0.013c1.033,0,2.068-0.006,3.1,0.002c0.484,0.004,0.965,0.055,1.42,0.234
		c0.557,0.218,1.016,0.562,1.225,1.134c0.299,0.814,0.264,1.606-0.318,2.309c-0.172,0.207-0.385,0.368-0.619,0.501
		c-0.047,0.028-0.096,0.057-0.154,0.09c0.494,0.724,0.982,1.438,1.486,2.174c-0.08,0.006-0.129,0.013-0.178,0.013
		c-0.709,0.001-1.418-0.002-2.129,0.003c-0.117,0.001-0.184-0.039-0.246-0.136c-0.34-0.524-0.688-1.042-1.027-1.565
		C49.295,24.848,49.223,24.792,49.1,24.807z M50.896,30.313c-0.484,0.013-0.969,0.003-1.465,0.006c0-0.733,0-1.452,0-2.179
		c0.043-0.005,0.082-0.012,0.119-0.013c0.033-0.001,0.068,0.004,0.125,0.009c0.006,0.64,0,1.278,0.004,1.942
		c0.412,0,0.811,0,1.217,0C50.896,30.166,50.896,30.227,50.896,30.313z M53.344,28.361c-0.236,0-0.469,0-0.721,0
		c-0.012,0.652,0,1.291-0.008,1.947c-0.09,0-0.16,0-0.25,0c0-0.646,0-1.284,0-1.939c-0.248,0-0.479,0-0.727,0
		c-0.004-0.081-0.006-0.146-0.01-0.208c0.125-0.042,1.426-0.056,1.715-0.02C53.344,28.209,53.344,28.277,53.344,28.361z
		 M56.002,30.306c-0.072,0-0.143,0-0.236,0c0-0.312,0-0.626,0-0.932c-0.139-0.047-1.029-0.057-1.264-0.018c0,0.318,0,0.629,0,0.95
		c-0.088,0-0.158,0-0.229,0c-0.037-0.12-0.045-1.994-0.006-2.171c0.07,0,0.141,0,0.232,0c0,0.315,0,0.626,0,0.956
		c0.426,0.012,0.83,0.006,1.256,0.004c0-0.329,0-0.639,0-0.958c0.092,0,0.162,0,0.246,0C56.002,28.857,56.002,29.575,56.002,30.306z
		 M58.771,26.621c-0.127,0.033-5.301,0.043-5.512,0.011c-0.039-0.13-0.043-6.271-0.002-6.433c1.816,0,3.637,0,5.471,0
		c0,0.589,0,1.17,0,1.768c-1.119,0-2.229,0-3.354,0c0,0.218,0,0.418,0,0.64c1.037,0,2.072,0,3.125,0c0,0.537,0,1.042,0,1.57
		c-0.35,0.01-0.693,0.003-1.037,0.005c-0.346,0.001-0.693,0-1.039,0s-0.691,0-1.049,0c0,0.231,0,0.448,0,0.688
		c1.133,0,2.26,0,3.396,0C58.771,25.468,58.771,26.045,58.771,26.621z"/>
	<path fill-rule="evenodd" clip-rule="evenodd" fill="#142A3E" d="M24.673,29.491c0.233,0.04,0.835,0.029,0.952-0.017
		c-0.152-0.342-0.304-0.683-0.472-1.06C24.983,28.799,24.83,29.143,24.673,29.491z"/>
	<path fill-rule="evenodd" clip-rule="evenodd" fill="#142A3E" d="M46.957,29.501c0.332,0,0.635,0,0.967,0
		c-0.162-0.364-0.316-0.708-0.482-1.083C47.27,28.793,47.111,29.139,46.957,29.501z"/>
	<path fill-rule="evenodd" clip-rule="evenodd" fill="#142A3E" d="M50.553,22.742c0.062-0.368-0.141-0.664-0.537-0.702
		c-0.383-0.037-0.77-0.019-1.156-0.024c-0.01,0-0.02,0.01-0.039,0.022c0,0.395,0,0.796,0,1.22c0.264,0,0.506,0.001,0.75,0
		c0.119-0.001,0.24,0.01,0.355-0.011c0.127-0.024,0.254-0.067,0.369-0.125C50.443,23.046,50.525,22.908,50.553,22.742z"/>
</g>
</svg>
