<?xml version="1.0" encoding="utf-8"?>
<!-- Generator: Adobe Illustrator 16.0.0, SVG Export Plug-In . SVG Version: 6.00 Build 0)  -->
<!DOCTYPE svg PUBLIC "-//W3C//DTD SVG 1.1//EN" "http://www.w3.org/Graphics/SVG/1.1/DTD/svg11.dtd">
<svg version="1.1" id="Layer_1" xmlns="http://www.w3.org/2000/svg" xmlns:xlink="http://www.w3.org/1999/xlink" x="0px" y="0px"
	 width="80px" height="56.794px" viewBox="0 -4.294 80 56.794" enable-background="new 0 -4.294 80 56.794" xml:space="preserve">
<g>
	<path fill="#142A3E" d="M41.402,52.312c-0.907,0-1.813,0-2.719,0c-0.069-0.013-0.137-0.03-0.206-0.035
		c-0.219-0.019-0.438-0.029-0.657-0.045c-1.407-0.104-2.797-0.315-4.17-0.639c-5.564-1.312-10.324-4.039-14.215-8.221
		c-4.645-4.991-7.156-10.918-7.567-17.729c-0.011-0.188-0.05-0.376-0.077-0.563c0-0.638,0-1.274,0-1.911
		c0.016-0.083,0.04-0.165,0.046-0.249c0.057-0.648,0.1-1.298,0.165-1.945c0.126-1.255,0.351-2.494,0.662-3.716
		c1.31-5.153,3.861-9.599,7.659-13.319c3.099-3.037,6.718-5.236,10.837-6.607c2.479-0.825,5.026-1.284,7.637-1.399
		c0.09-0.004,0.179-0.025,0.269-0.039c0.638,0,1.274,0,1.911,0c0.084,0.013,0.167,0.033,0.25,0.036
		c1.246,0.053,2.484,0.185,3.713,0.401c2.743,0.484,5.365,1.338,7.841,2.617c6.094,3.149,10.516,7.872,13.232,14.17
		c1.274,2.956,2.005,6.05,2.158,9.272c0.004,0.062,0.025,0.122,0.038,0.183c0,1.02,0,2.039,0,3.06
		c-0.013,0.068-0.035,0.137-0.037,0.206c-0.014,0.766-0.109,1.524-0.215,2.281c-0.227,1.645-0.596,3.257-1.127,4.828
		c-2.089,6.187-5.847,11.106-11.282,14.72c-4.219,2.805-8.881,4.32-13.94,4.607C41.539,52.279,41.471,52.3,41.402,52.312z"/>
	<g>
		<path fill-rule="evenodd" clip-rule="evenodd" fill="#FFFFFF" d="M22.96,22.3c0,1.191,0,2.383,0,3.567
			c-0.174,0.05-2.344,0.063-2.644,0.023c-0.045-0.158-0.053-7.795-0.005-8.021c0.065-0.003,0.134-0.01,0.203-0.01
			c0.694-0.001,1.388,0.004,2.081-0.004c0.151-0.001,0.245,0.05,0.337,0.166c0.839,1.05,1.685,2.097,2.529,3.144
			c0.047,0.058,0.098,0.113,0.177,0.204c0-1.187,0-2.329,0-3.465c0.163-0.054,2.38-0.068,2.67-0.021c0,2.662,0,5.327,0,8.014
			c-0.075,0.003-0.15,0.012-0.226,0.012c-0.651,0-1.302-0.003-1.953,0.004c-0.15,0.001-0.245-0.047-0.339-0.165
			c-0.878-1.1-1.764-2.195-2.647-3.293c-0.047-0.058-0.098-0.111-0.146-0.168C22.985,22.291,22.973,22.296,22.96,22.3z"/>
		<path fill-rule="evenodd" clip-rule="evenodd" fill="#FFFFFF" d="M54.279,23.183c0.616,0.902,1.226,1.792,1.854,2.709
			c-0.1,0.009-0.161,0.018-0.222,0.018c-0.886,0-1.77-0.003-2.654,0.004c-0.146,0.001-0.229-0.05-0.307-0.17
			c-0.424-0.653-0.858-1.3-1.281-1.952c-0.081-0.126-0.17-0.194-0.324-0.178c-0.104,0.012-0.211,0.002-0.346,0.002
			c-0.005,0.095-0.014,0.177-0.014,0.258c-0.002,0.595-0.001,1.188-0.001,1.782c0,0.077,0,0.152,0,0.241c-0.907,0-1.788,0-2.685,0
			c0-2.674,0-5.337,0-8.021c0.06-0.005,0.12-0.016,0.181-0.016c1.288-0.001,2.576-0.008,3.864,0.003
			c0.603,0.005,1.2,0.067,1.77,0.291c0.693,0.273,1.266,0.701,1.526,1.414c0.371,1.017,0.326,2.002-0.397,2.878
			c-0.214,0.259-0.479,0.459-0.771,0.625C54.412,23.105,54.352,23.141,54.279,23.183z M50.998,21.683
			c0.327,0,0.631,0.001,0.933-0.001c0.149,0,0.302,0.014,0.446-0.014c0.156-0.03,0.314-0.083,0.457-0.155
			c0.187-0.094,0.288-0.267,0.324-0.474c0.078-0.459-0.178-0.827-0.672-0.875c-0.477-0.047-0.96-0.024-1.439-0.031
			c-0.013,0-0.023,0.014-0.049,0.028C50.998,20.653,50.998,21.153,50.998,21.683z"/>
		<path fill-rule="evenodd" clip-rule="evenodd" fill="#FFFFFF" d="M63.063,20.872c0,0.669,0,1.298,0,1.955
			c-0.436,0.014-0.864,0.005-1.292,0.006c-0.432,0.002-0.863,0.001-1.296,0.001c-0.431,0-0.861,0-1.309,0c0,0.29,0,0.561,0,0.858
			c1.412,0,2.818,0,4.235,0c0,0.746,0,1.466,0,2.183c-0.158,0.042-6.609,0.054-6.873,0.014c-0.048-0.162-0.053-7.818-0.002-8.019
			c2.268,0,4.536,0,6.821,0c0,0.734,0,1.459,0,2.204c-1.395,0-2.778,0-4.18,0c0,0.271,0,0.521,0,0.798
			C60.46,20.872,61.751,20.872,63.063,20.872z"/>
		<path fill-rule="evenodd" clip-rule="evenodd" fill="#FFFFFF" d="M28.566,24.696c0.485-0.578,0.956-1.141,1.433-1.709
			c0.073,0.049,0.132,0.087,0.188,0.127c0.816,0.575,1.732,0.815,2.72,0.808c0.125-0.001,0.253-0.029,0.374-0.065
			c0.121-0.036,0.208-0.119,0.217-0.259c0.009-0.13-0.058-0.222-0.164-0.274c-0.125-0.062-0.258-0.118-0.394-0.152
			c-0.371-0.093-0.748-0.159-1.116-0.259c-0.416-0.112-0.831-0.232-1.234-0.381c-0.243-0.09-0.476-0.222-0.691-0.366
			c-0.694-0.468-0.969-1.14-0.89-1.96c0.1-1.023,0.651-1.724,1.576-2.144c0.457-0.207,0.94-0.31,1.438-0.334
			c0.868-0.041,1.726,0.021,2.557,0.298c0.547,0.183,1.124,0.498,1.465,0.808c-0.43,0.596-0.861,1.194-1.302,1.804
			c-0.085-0.053-0.156-0.096-0.228-0.141c-0.683-0.427-1.426-0.644-2.232-0.641c-0.104,0-0.212,0.019-0.312,0.05
			c-0.121,0.036-0.208,0.115-0.22,0.256c-0.01,0.138,0.052,0.237,0.171,0.291c0.141,0.062,0.286,0.125,0.436,0.16
			c0.461,0.107,0.927,0.194,1.389,0.303c0.448,0.104,0.887,0.242,1.29,0.474c0.177,0.102,0.351,0.215,0.507,0.347
			c0.427,0.358,0.658,0.817,0.695,1.38c0.073,1.139-0.456,2.047-1.488,2.535c-0.52,0.245-1.071,0.367-1.64,0.397
			c-1.064,0.058-2.105-0.073-3.103-0.466c-0.484-0.19-0.929-0.45-1.33-0.783C28.646,24.772,28.616,24.742,28.566,24.696z"/>
		<path fill-rule="evenodd" clip-rule="evenodd" fill="#FFFFFF" d="M39.549,25.896c-0.904,0-1.785,0-2.681,0
			c0-2.673,0-5.337,0-8.021c0.06-0.005,0.121-0.015,0.181-0.015c1.175-0.001,2.35-0.008,3.525,0.003
			c0.582,0.005,1.156,0.084,1.707,0.287c1.254,0.463,1.88,1.486,1.788,2.839c-0.056,0.817-0.38,1.501-1.038,2.008
			c-0.459,0.354-0.99,0.538-1.555,0.644c-0.426,0.08-0.856,0.093-1.289,0.087c-0.203-0.003-0.407-0.001-0.639-0.001
			c0,0.381,0,0.739,0,1.098C39.549,25.177,39.549,25.529,39.549,25.896z M39.564,21.8c0.387-0.009,0.76,0.035,1.129-0.046
			c0.055-0.012,0.109-0.029,0.162-0.05c0.394-0.15,0.56-0.41,0.549-0.855c-0.01-0.378-0.211-0.637-0.598-0.754
			c-0.408-0.123-0.823-0.058-1.243-0.068C39.564,20.628,39.564,21.204,39.564,21.8z"/>
		<path fill-rule="evenodd" clip-rule="evenodd" fill="#FFFFFF" d="M19.335,25.894c-0.89,0-1.777,0-2.677,0c0-2.676,0-5.339,0-8.019
			c0.891,0,1.771,0,2.656,0c0.001,0.001,0.007,0.006,0.012,0.011s0.012,0.011,0.013,0.016c0.004,0.021,0.011,0.042,0.011,0.063
			c0,2.61,0.001,5.222,0,7.833C19.35,25.825,19.341,25.852,19.335,25.894z"/>
		<path fill-rule="evenodd" clip-rule="evenodd" fill="#FFFFFF" d="M44.674,25.906c0-2.69,0-5.355,0-8.034c0.893,0,1.772,0,2.669,0
			c0,2.674,0,5.339,0,8.034C46.454,25.913,45.567,25.911,44.674,25.906z"/>
		<path fill-rule="evenodd" clip-rule="evenodd" fill="#FFFFFF" d="M31.502,28.379c-0.306,0.447-0.611,0.894-0.939,1.373
			c-0.334-0.468-0.631-0.928-0.966-1.4c-0.057,0.201-0.025,0.374-0.03,0.544c-0.007,0.177-0.002,0.354-0.002,0.531
			c0,0.169,0,0.339,0,0.509c0,0.175,0,0.351,0,0.537c-0.111,0-0.199,0-0.3,0c0-0.903,0-1.798,0-2.69
			c0.29-0.062,0.29-0.062,0.44,0.163c0.24,0.358,0.48,0.718,0.719,1.076c0.04,0.059,0.081,0.115,0.134,0.191
			c0.046-0.06,0.087-0.104,0.121-0.154c0.249-0.37,0.495-0.741,0.743-1.112c0.14-0.21,0.141-0.21,0.415-0.179
			c0.047,0.147,0.063,2.351,0.018,2.7c-0.091,0-0.185,0-0.3,0c0-0.69,0-1.382,0-2.072C31.539,28.39,31.52,28.385,31.502,28.379z"/>
		<path fill-rule="evenodd" clip-rule="evenodd" fill="#FFFFFF" d="M24.273,28.348c0,0.703,0,1.406,0,2.124c-0.111,0-0.199,0-0.3,0
			c0-0.901,0-1.797,0-2.695c0.183-0.06,0.304-0.011,0.42,0.143c0.45,0.59,0.914,1.17,1.374,1.753
			c0.047,0.062,0.097,0.119,0.16,0.196c0.065-0.15,0.028-0.289,0.035-0.422c0.006-0.143,0.001-0.284,0.001-0.425
			c0-0.135,0-0.27,0-0.404c0-0.142,0-0.281,0-0.424c0-0.14,0-0.278,0-0.429c0.074-0.005,0.122-0.011,0.169-0.011
			c0.041,0,0.081,0.009,0.132,0.014c0,0.907,0,1.801,0,2.693c-0.167,0.063-0.269,0.006-0.369-0.124
			c-0.476-0.614-0.96-1.224-1.442-1.835c-0.044-0.055-0.089-0.108-0.133-0.163C24.306,28.343,24.289,28.345,24.273,28.348z"/>
		<path fill-rule="evenodd" clip-rule="evenodd" fill="#FFFFFF" d="M58.08,29.286c0,0.396,0,0.783,0,1.185c-0.108,0-0.197,0-0.285,0
			c-0.047-0.149-0.055-2.485-0.007-2.706c0.086,0,0.176,0,0.29,0c0,0.394,0,0.779,0,1.191c0.53,0.016,1.034,0.007,1.564,0.007
			c0-0.412,0-0.798,0-1.196c0.114,0,0.203,0,0.308,0c0,0.898,0,1.793,0,2.703c-0.092,0-0.178,0-0.296,0c0-0.39,0-0.781,0-1.162
			C59.481,29.25,58.373,29.237,58.08,29.286z"/>
		<path fill-rule="evenodd" clip-rule="evenodd" fill="#FFFFFF" d="M44.982,27.76c0.658,0,1.294,0,1.947,0c0,0.085,0,0.166,0,0.278
			c-0.538,0-1.078,0-1.631,0c0,0.314,0,0.603,0,0.912c0.483,0.034,0.961-0.003,1.455,0.021c0,0.091,0,0.17,0,0.272
			c-0.479,0-0.959,0-1.453,0c0,0.322,0,0.622,0,0.955c0.549,0.012,1.097-0.004,1.656,0.009c0,0.095,0,0.169,0,0.242
			c-0.148,0.044-1.7,0.056-1.975,0.014C44.982,29.572,44.982,28.677,44.982,27.76z"/>
		<path fill-rule="evenodd" clip-rule="evenodd" fill="#FFFFFF" d="M41.785,28.949c0.528,0,1.033,0,1.562,0c0-0.398,0-0.783,0-1.182
			c0.07-0.006,0.118-0.013,0.166-0.014c0.041-0.002,0.082,0.006,0.137,0.009c0,0.904,0,1.798,0,2.707
			c-0.047,0.005-0.094,0.014-0.141,0.016c-0.042,0.001-0.084-0.005-0.148-0.011c0-0.394,0-0.787,0-1.202
			c-0.535-0.028-1.047-0.007-1.574-0.015c0,0.417,0,0.803,0,1.216c-0.104,0.006-0.19,0.009-0.275,0.014
			c-0.051-0.162-0.06-2.486-0.012-2.721c0.085,0,0.172,0,0.285,0C41.785,28.164,41.785,28.549,41.785,28.949z"/>
		<path fill-rule="evenodd" clip-rule="evenodd" fill="#FFFFFF" d="M34.184,27.742c0.056-0.004,0.083-0.005,0.111-0.009
			c0.142-0.024,0.214,0.036,0.272,0.168c0.32,0.725,0.65,1.444,0.977,2.167c0.058,0.127,0.114,0.255,0.18,0.404
			c-0.123,0-0.218,0-0.336,0c-0.104-0.225-0.213-0.461-0.323-0.699c-0.488,0-0.968,0-1.468,0c-0.105,0.229-0.214,0.464-0.325,0.704
			c-0.099,0-0.189,0-0.277,0c-0.008-0.009-0.013-0.014-0.016-0.02s-0.005-0.015-0.004-0.021c0.017-0.046,0.032-0.093,0.052-0.138
			C33.411,29.449,33.796,28.599,34.184,27.742z M33.73,29.462c0.378,0.04,1.031,0.027,1.192-0.022
			c-0.192-0.432-0.383-0.859-0.59-1.325C34.124,28.582,33.932,29.011,33.73,29.462z"/>
		<path fill-rule="evenodd" clip-rule="evenodd" fill="#FFFFFF" d="M20.752,29.777c-0.102,0.224-0.207,0.453-0.316,0.695
			c-0.097,0-0.193,0-0.324,0c0.406-0.92,0.82-1.818,1.23-2.728c0.07-0.004,0.132-0.007,0.194-0.012
			c0.083-0.008,0.126,0.034,0.16,0.107c0.385,0.857,0.772,1.712,1.157,2.569c0.005,0.012,0.003,0.027,0.007,0.059
			c-0.101,0-0.201,0-0.317,0c-0.101-0.223-0.206-0.452-0.315-0.691C21.739,29.777,21.255,29.777,20.752,29.777z M21.492,28.113
			c-0.213,0.478-0.404,0.905-0.598,1.341c0.29,0.05,1.04,0.036,1.186-0.021C21.89,29.008,21.701,28.582,21.492,28.113z"/>
		<path fill-rule="evenodd" clip-rule="evenodd" fill="#FFFFFF" d="M50.662,30.478c-0.129,0-0.227,0-0.332,0
			c-0.106-0.234-0.212-0.464-0.32-0.702c-0.483,0-0.962,0-1.47,0c-0.102,0.219-0.211,0.453-0.323,0.697c-0.099,0-0.194,0-0.312,0
			c0.025-0.067,0.044-0.125,0.068-0.179c0.359-0.798,0.722-1.596,1.08-2.395c0.047-0.104,0.091-0.182,0.229-0.172
			c0.104,0.009,0.166,0.035,0.209,0.136c0.182,0.414,0.371,0.824,0.558,1.235c0.175,0.387,0.35,0.771,0.524,1.158
			C50.601,30.32,50.625,30.386,50.662,30.478z M49.879,29.467c-0.203-0.454-0.394-0.884-0.602-1.352
			c-0.213,0.469-0.41,0.899-0.604,1.352C49.088,29.467,49.465,29.467,49.879,29.467z"/>
		<path fill-rule="evenodd" clip-rule="evenodd" fill="#FFFFFF" d="M53.585,30.187c0,0.107,0,0.185,0,0.293
			c-0.603,0.016-1.206,0.003-1.825,0.007c0-0.914,0-1.811,0-2.717c0.053-0.005,0.101-0.015,0.147-0.016
			c0.042-0.002,0.084,0.006,0.156,0.012c0.006,0.798-0.001,1.594,0.005,2.421C52.582,30.187,53.079,30.187,53.585,30.187z"/>
		<path fill-rule="evenodd" clip-rule="evenodd" fill="#FFFFFF" d="M55.728,30.474c-0.111,0-0.199,0-0.312,0
			c0-0.807,0-1.603,0-2.418c-0.31,0-0.596,0-0.905,0c-0.005-0.102-0.009-0.183-0.012-0.26c0.156-0.053,1.777-0.068,2.138-0.024
			c0,0.083,0,0.168,0,0.274c-0.297,0-0.585,0-0.899,0C55.722,28.859,55.737,29.655,55.728,30.474z"/>
		<path fill-rule="evenodd" clip-rule="evenodd" fill="#FFFFFF" d="M36.814,27.763c0.108,0,0.19,0,0.299,0c0,0.804,0,1.599,0,2.42
			c0.517,0,1.009,0,1.522,0c0.004,0.104,0.008,0.187,0.013,0.298c-0.615,0.011-1.218,0.004-1.834,0.006
			C36.814,29.568,36.814,28.675,36.814,27.763z"/>
		<path fill-rule="evenodd" clip-rule="evenodd" fill="#FFFFFF" d="M27.898,30.473c-0.085,0-0.174,0-0.278,0c0-0.904,0-1.803,0-2.71
			c0.097,0,0.18,0,0.261,0C27.934,27.91,27.949,30.194,27.898,30.473z"/>
	</g>
	<path fill-rule="evenodd" clip-rule="evenodd" fill="#142A3E" d="M50.998,21.72c0-0.529,0-1.029,0-1.521
		c0.025-0.015,0.036-0.028,0.049-0.028c0.479,0.007,0.963-0.016,1.439,0.031c0.494,0.048,0.75,0.416,0.672,0.875
		c-0.036,0.207-0.138,0.379-0.324,0.474c-0.143,0.072-0.301,0.125-0.457,0.154c-0.145,0.027-0.297,0.014-0.446,0.015
		C51.629,21.721,51.325,21.72,50.998,21.72z"/>
	<path fill-rule="evenodd" clip-rule="evenodd" fill="#142A3E" d="M39.564,21.837c0-0.596,0-1.172,0-1.773
		c0.419,0.011,0.835-0.055,1.243,0.068c0.387,0.118,0.588,0.376,0.598,0.754c0.011,0.444-0.155,0.705-0.549,0.855
		c-0.053,0.021-0.107,0.038-0.162,0.05C40.324,21.871,39.951,21.828,39.564,21.837z"/>
	<path fill-rule="evenodd" clip-rule="evenodd" fill="#142A3E" d="M33.73,29.499c0.201-0.451,0.393-0.88,0.602-1.349
		c0.208,0.466,0.398,0.895,0.59,1.326C34.761,29.526,34.109,29.54,33.73,29.499z"/>
	<path fill-rule="evenodd" clip-rule="evenodd" fill="#142A3E" d="M21.492,28.149c0.209,0.47,0.398,0.896,0.588,1.321
		c-0.146,0.058-0.896,0.069-1.186,0.021C21.087,29.057,21.278,28.628,21.492,28.149z"/>
	<path fill-rule="evenodd" clip-rule="evenodd" fill="#142A3E" d="M49.879,29.504c-0.414,0-0.791,0-1.205,0
		c0.193-0.452,0.391-0.883,0.604-1.352C49.485,28.62,49.676,29.05,49.879,29.504z"/>
</g>
</svg>
