<?xml version="1.0" encoding="utf-8"?>
<!-- Generator: Adobe Illustrator 16.0.0, SVG Export Plug-In . SVG Version: 6.00 Build 0)  -->
<!DOCTYPE svg PUBLIC "-//W3C//DTD SVG 1.1//EN" "http://www.w3.org/Graphics/SVG/1.1/DTD/svg11.dtd">
<svg version="1.1" id="Layer_1" xmlns="http://www.w3.org/2000/svg" xmlns:xlink="http://www.w3.org/1999/xlink" x="0px" y="0px"
	 width="80px" height="29.631px" viewBox="0 0 80 29.631" enable-background="new 0 0 80 29.631" xml:space="preserve">
<g>
	<g>
		<path fill="#142A3E" d="M17.378,12.426c0,1.58,0,3.16,0,4.728c-0.231,0.068-3.105,0.084-3.505,0.029
			c-0.059-0.209-0.069-10.329-0.005-10.628c0.085-0.004,0.177-0.015,0.269-0.015c0.92,0,1.839,0.006,2.758-0.004
			c0.2-0.002,0.324,0.065,0.447,0.219c1.111,1.393,2.233,2.779,3.351,4.167c0.062,0.077,0.131,0.149,0.235,0.271
			c0-1.572,0-3.087,0-4.592c0.215-0.071,3.154-0.09,3.539-0.028c0,3.528,0,7.061,0,10.622c-0.1,0.004-0.2,0.016-0.3,0.016
			c-0.863,0-1.725-0.006-2.589,0.006c-0.199,0-0.324-0.062-0.449-0.221c-1.164-1.457-2.338-2.907-3.508-4.362
			c-0.062-0.077-0.13-0.148-0.193-0.223C17.411,12.414,17.396,12.422,17.378,12.426z"/>
		<path fill="#142A3E" d="M58.884,13.597c0.816,1.195,1.624,2.375,2.457,3.592c-0.133,0.01-0.212,0.021-0.294,0.021
			c-1.174,0-2.347-0.002-3.518,0.006c-0.193,0.002-0.305-0.066-0.407-0.225c-0.562-0.865-1.138-1.723-1.697-2.588
			c-0.108-0.166-0.226-0.256-0.428-0.235c-0.14,0.017-0.281,0.003-0.46,0.003c-0.007,0.126-0.02,0.234-0.02,0.341
			c-0.002,0.789,0,1.574,0,2.361c0,0.104,0,0.202,0,0.319c-1.202,0-2.372,0-3.56,0c0-3.542,0-7.072,0-10.629
			c0.081-0.006,0.159-0.021,0.242-0.021c1.704-0.002,3.414-0.011,5.119,0.004c0.8,0.007,1.591,0.089,2.346,0.386
			c0.919,0.361,1.678,0.929,2.023,1.873c0.491,1.349,0.431,2.653-0.527,3.814c-0.282,0.344-0.636,0.608-1.021,0.828
			C59.062,13.493,58.98,13.541,58.884,13.597z M54.535,11.608c0.436,0,0.837,0.001,1.238-0.001c0.196,0,0.397,0.019,0.59-0.019
			c0.207-0.039,0.417-0.11,0.606-0.205c0.248-0.125,0.381-0.354,0.429-0.628c0.104-0.608-0.234-1.096-0.89-1.16
			c-0.633-0.062-1.274-0.032-1.907-0.042c-0.018,0-0.032,0.02-0.066,0.037C54.535,10.243,54.535,10.906,54.535,11.608z"/>
		<path fill="#142A3E" d="M70.525,10.534c0,0.887,0,1.721,0,2.591c-0.577,0.019-1.145,0.006-1.711,0.008
			c-0.575,0.003-1.145,0.002-1.72,0.002c-0.571,0-1.141,0-1.733,0c0,0.384,0,0.743,0,1.137c1.872,0,3.734,0,5.611,0
			c0,0.989,0,1.942,0,2.892c-0.21,0.059-8.759,0.074-9.108,0.02c-0.062-0.215-0.07-10.36-0.003-10.626c3.005,0,6.013,0,9.042,0
			c0,0.972,0,1.933,0,2.921c-1.852,0-3.684,0-5.542,0c0,0.358,0,0.689,0,1.057C67.074,10.534,68.786,10.534,70.525,10.534z"/>
		<path fill="#142A3E" d="M24.807,15.603c0.643-0.767,1.267-1.513,1.899-2.266c0.096,0.065,0.174,0.116,0.249,0.169
			c1.081,0.762,2.295,1.08,3.605,1.07c0.166-0.001,0.336-0.038,0.496-0.086s0.274-0.158,0.287-0.343
			c0.013-0.174-0.078-0.295-0.217-0.363c-0.165-0.081-0.342-0.156-0.522-0.201c-0.492-0.123-0.992-0.211-1.479-0.344
			c-0.552-0.148-1.102-0.308-1.636-0.505c-0.322-0.12-0.631-0.295-0.916-0.485c-0.919-0.621-1.284-1.511-1.18-2.598
			c0.133-1.356,0.863-2.286,2.088-2.842c0.606-0.274,1.246-0.411,1.906-0.442c1.151-0.054,2.287,0.028,3.39,0.395
			c0.725,0.243,1.489,0.66,1.941,1.07c-0.57,0.791-1.141,1.583-1.725,2.392c-0.114-0.07-0.208-0.127-0.303-0.188
			c-0.905-0.565-1.89-0.853-2.958-0.85c-0.139,0-0.281,0.025-0.413,0.066C29.16,9.3,29.044,9.404,29.028,9.592
			c-0.012,0.183,0.07,0.313,0.228,0.386c0.187,0.082,0.378,0.165,0.577,0.212c0.611,0.142,1.229,0.258,1.842,0.401
			c0.593,0.139,1.175,0.322,1.709,0.629c0.235,0.136,0.466,0.285,0.672,0.459c0.567,0.475,0.873,1.084,0.922,1.83
			c0.097,1.508-0.604,2.711-1.973,3.358c-0.689,0.325-1.418,0.487-2.173,0.526c-1.41,0.078-2.79-0.098-4.113-0.617
			c-0.641-0.252-1.23-0.598-1.762-1.037C24.914,15.702,24.874,15.663,24.807,15.603z"/>
		<path fill="#142A3E" d="M39.363,17.192c-1.199,0-2.367,0-3.554,0c0-3.542,0-7.072,0-10.63c0.08-0.006,0.16-0.02,0.239-0.02
			c1.559-0.002,3.114-0.011,4.673,0.004c0.771,0.007,1.532,0.111,2.261,0.38c1.664,0.614,2.492,1.969,2.369,3.763
			c-0.072,1.083-0.502,1.989-1.373,2.66c-0.608,0.47-1.312,0.714-2.061,0.854c-0.566,0.106-1.135,0.123-1.709,0.114
			c-0.27-0.004-0.541-0.001-0.847-0.001c0,0.505,0,0.979,0,1.454C39.363,16.24,39.363,16.705,39.363,17.192z M39.383,11.764
			c0.514-0.012,1.008,0.046,1.497-0.062c0.072-0.016,0.144-0.037,0.214-0.064c0.521-0.199,0.742-0.544,0.728-1.134
			c-0.013-0.5-0.279-0.844-0.792-0.999c-0.541-0.163-1.092-0.077-1.649-0.091C39.383,10.211,39.383,10.975,39.383,11.764z"/>
		<path fill="#142A3E" d="M12.574,17.19c-1.18,0-2.354,0-3.547,0c0-3.547,0-7.076,0-10.628c1.18,0,2.346,0,3.519,0
			c0.002,0.001,0.01,0.008,0.017,0.015c0.006,0.007,0.016,0.015,0.017,0.021c0.005,0.027,0.015,0.055,0.015,0.083
			c0,3.459,0.001,6.921,0,10.38C12.594,17.099,12.581,17.134,12.574,17.19z"/>
		<path fill="#142A3E" d="M46.154,17.204c0-3.563,0-7.096,0-10.646c1.183,0,2.348,0,3.536,0c0,3.543,0,7.076,0,10.646
			C48.514,17.216,47.337,17.212,46.154,17.204z"/>
		<path fill="#142A3E" d="M28.699,20.481c-0.406,0.594-0.811,1.186-1.244,1.82c-0.442-0.621-0.835-1.23-1.28-1.855
			c-0.077,0.268-0.034,0.496-0.041,0.721c-0.009,0.236-0.002,0.471-0.002,0.703c0,0.227,0,0.451,0,0.676c0,0.232,0,0.465,0,0.711
			c-0.147,0-0.263,0-0.397,0c0-1.197,0-2.381,0-3.564c0.384-0.082,0.384-0.082,0.583,0.215c0.317,0.475,0.636,0.951,0.952,1.426
			c0.053,0.078,0.107,0.154,0.178,0.254c0.061-0.08,0.115-0.139,0.161-0.205c0.329-0.49,0.655-0.98,0.984-1.473
			c0.186-0.279,0.187-0.279,0.55-0.236c0.061,0.193,0.083,3.115,0.023,3.576c-0.12,0-0.245,0-0.396,0c0-0.914,0-1.83,0-2.744
			C28.748,20.497,28.722,20.489,28.699,20.481z"/>
		<path fill="#142A3E" d="M19.118,20.442c0,0.932,0,1.863,0,2.814c-0.147,0-0.263,0-0.397,0c0-1.195,0-2.381,0-3.572
			c0.243-0.08,0.402-0.014,0.557,0.189c0.596,0.781,1.21,1.551,1.82,2.322c0.062,0.082,0.128,0.16,0.213,0.262
			c0.086-0.199,0.038-0.383,0.046-0.561c0.007-0.189,0.001-0.377,0.001-0.562c0-0.18,0-0.359,0-0.535c0-0.189,0-0.373,0-0.562
			c0-0.186,0-0.371,0-0.568c0.098-0.008,0.162-0.016,0.223-0.016c0.055,0,0.108,0.012,0.176,0.02c0,1.201,0,2.387,0,3.568
			c-0.221,0.082-0.356,0.008-0.49-0.166c-0.63-0.812-1.271-1.623-1.911-2.432c-0.058-0.074-0.117-0.143-0.177-0.215
			C19.163,20.435,19.14,20.438,19.118,20.442z"/>
		<path fill="#142A3E" d="M63.921,21.685c0,0.525,0,1.039,0,1.57c-0.142,0-0.262,0-0.376,0c-0.063-0.197-0.073-3.293-0.011-3.586
			c0.113,0,0.232,0,0.385,0c0,0.521,0,1.033,0,1.578c0.702,0.021,1.37,0.01,2.073,0.01c0-0.547,0-1.057,0-1.584
			c0.149,0,0.27,0,0.407,0c0,1.189,0,2.375,0,3.582c-0.121,0-0.236,0-0.392,0c0-0.518,0-1.035,0-1.541
			C65.777,21.638,64.312,21.62,63.921,21.685z"/>
		<path fill="#142A3E" d="M46.563,19.661c0.872,0,1.714,0,2.581,0c0,0.113,0,0.219,0,0.371c-0.715,0-1.429,0-2.163,0
			c0,0.414,0,0.799,0,1.207c0.64,0.045,1.273-0.004,1.928,0.027c0,0.121,0,0.225,0,0.359c-0.635,0-1.271,0-1.926,0
			c0,0.428,0,0.828,0,1.266c0.729,0.016,1.454-0.004,2.195,0.014c0,0.125,0,0.223,0,0.32c-0.195,0.059-2.253,0.074-2.618,0.018
			C46.563,22.063,46.563,20.878,46.563,19.661z"/>
		<path fill="#142A3E" d="M42.326,21.239c0.699,0,1.368,0,2.07,0c0-0.529,0-1.039,0-1.566c0.092-0.01,0.156-0.02,0.221-0.02
			c0.053-0.002,0.108,0.008,0.182,0.012c0,1.197,0,2.383,0,3.59c-0.062,0.006-0.125,0.016-0.189,0.02
			c-0.055,0.002-0.111-0.008-0.193-0.014c0-0.523,0-1.045,0-1.594c-0.711-0.037-1.389-0.01-2.087-0.02c0,0.553,0,1.064,0,1.611
			c-0.138,0.008-0.251,0.012-0.365,0.02c-0.067-0.215-0.079-3.295-0.015-3.605c0.111,0,0.227,0,0.377,0
			C42.326,20.198,42.326,20.706,42.326,21.239z"/>
		<path fill="#142A3E" d="M32.253,19.638c0.074-0.004,0.11-0.006,0.147-0.012c0.188-0.031,0.283,0.049,0.36,0.223
			c0.424,0.961,0.862,1.914,1.295,2.871c0.077,0.168,0.151,0.34,0.239,0.537c-0.164,0-0.29,0-0.445,0
			c-0.138-0.301-0.282-0.613-0.428-0.928c-0.646,0-1.283,0-1.946,0c-0.139,0.305-0.283,0.615-0.43,0.934c-0.131,0-0.251,0-0.367,0
			c-0.012-0.012-0.018-0.018-0.021-0.025c-0.004-0.008-0.006-0.021-0.005-0.029c0.022-0.061,0.042-0.123,0.068-0.184
			C31.229,21.901,31.739,20.774,32.253,19.638z M31.651,21.917c0.501,0.055,1.366,0.037,1.58-0.027
			c-0.254-0.574-0.507-1.137-0.781-1.756C32.174,20.751,31.919,21.319,31.651,21.917z"/>
		<path fill="#142A3E" d="M14.452,22.335c-0.136,0.297-0.274,0.602-0.419,0.922c-0.128,0-0.255,0-0.43,0
			c0.54-1.221,1.088-2.408,1.63-3.615c0.094-0.008,0.175-0.01,0.257-0.018c0.111-0.01,0.167,0.047,0.212,0.143
			c0.51,1.135,1.023,2.27,1.534,3.406c0.007,0.016,0.004,0.035,0.009,0.078c-0.134,0-0.267,0-0.42,0
			c-0.134-0.297-0.272-0.6-0.417-0.918C15.76,22.335,15.118,22.335,14.452,22.335z M15.433,20.13
			c-0.282,0.635-0.536,1.199-0.793,1.777c0.385,0.066,1.379,0.049,1.572-0.027C15.96,21.315,15.71,20.751,15.433,20.13z"/>
		<path fill="#142A3E" d="M54.091,23.265c-0.172,0-0.301,0-0.44,0c-0.141-0.311-0.28-0.613-0.425-0.932c-0.639,0-1.274,0-1.948,0
			c-0.137,0.289-0.278,0.602-0.428,0.924c-0.131,0-0.257,0-0.415,0c0.034-0.086,0.06-0.164,0.092-0.236
			c0.477-1.057,0.957-2.115,1.43-3.174c0.062-0.139,0.122-0.242,0.305-0.229c0.139,0.012,0.22,0.047,0.278,0.18
			c0.24,0.549,0.49,1.094,0.738,1.639c0.232,0.512,0.462,1.021,0.694,1.533C54.011,23.054,54.042,23.142,54.091,23.265z
			 M53.052,21.925c-0.269-0.602-0.521-1.17-0.796-1.791c-0.282,0.621-0.544,1.191-0.802,1.791
			C52.005,21.925,52.504,21.925,53.052,21.925z"/>
		<path fill="#142A3E" d="M57.965,22.88c0,0.141,0,0.244,0,0.387c-0.8,0.023-1.599,0.004-2.42,0.01c0-1.211,0-2.4,0-3.602
			c0.071-0.006,0.135-0.018,0.196-0.021c0.056-0.002,0.111,0.008,0.205,0.018c0.008,1.059,0,2.111,0.008,3.209
			C56.635,22.88,57.294,22.88,57.965,22.88z"/>
		<path fill="#142A3E" d="M60.805,23.261c-0.147,0-0.265,0-0.413,0c0-1.072,0-2.127,0-3.205c-0.413,0-0.79,0-1.199,0
			c-0.008-0.135-0.014-0.244-0.017-0.346c0.206-0.068,2.355-0.09,2.835-0.031c0,0.109,0,0.223,0,0.363c-0.394,0-0.776,0-1.191,0
			C60.799,21.118,60.814,22.175,60.805,23.261z"/>
		<path fill="#142A3E" d="M35.739,19.667c0.143,0,0.25,0,0.396,0c0,1.064,0,2.119,0,3.205c0.686,0,1.338,0,2.016,0
			c0.006,0.139,0.012,0.248,0.018,0.396c-0.814,0.016-1.614,0.004-2.43,0.008C35.739,22.06,35.739,20.876,35.739,19.667z"/>
		<path fill="#142A3E" d="M23.921,23.259c-0.112,0-0.229,0-0.368,0c0-1.199,0-2.391,0-3.592c0.129,0,0.239,0,0.345,0
			C23.97,19.86,23.99,22.888,23.921,23.259z"/>
	</g>
	<path fill="#142A3E" d="M52.256,20.181c0.274,0.621,0.527,1.191,0.796,1.793"/>
</g>
</svg>
