<?xml version="1.0" encoding="utf-8"?>
<!-- Generator: Adobe Illustrator 16.0.0, SVG Export Plug-In . SVG Version: 6.00 Build 0)  -->
<!DOCTYPE svg PUBLIC "-//W3C//DTD SVG 1.1//EN" "http://www.w3.org/Graphics/SVG/1.1/DTD/svg11.dtd">
<svg version="1.1" id="Layer_1" xmlns="http://www.w3.org/2000/svg" xmlns:xlink="http://www.w3.org/1999/xlink" x="0px" y="0px"
	 width="80px" height="27.95px" viewBox="0 26.55 80 27.95" enable-background="new 0 26.55 80 27.95" xml:space="preserve">
<g>
	<g>
		<path fill="#142A3E" d="M3.666,51.41v-5.285H1.668l-1.624,2.5v3.061C1.346,51.738,2.549,51.633,3.666,51.41z"/>
		<path fill="#142A3E" d="M0.044,52.498v1.436h3.622v-1.885C1.528,52.543,0.044,52.498,0.044,52.498z"/>
	</g>
	<g>
		<path fill="#142A3E" d="M4.416,51.855v2.076h3.747v-3.562C6.842,51.068,5.558,51.545,4.416,51.855z"/>
		<path fill="#142A3E" d="M8.163,49.689v-9.623H6.289l-1.873,3.812v7.357C5.813,50.881,7.06,50.338,8.163,49.689z"/>
	</g>
	<polygon fill="#142A3E" points="11.661,27.075 11.661,32.597 12.036,31.884 12.527,32.984 12.527,27.075 	"/>
	<path fill="#142A3E" d="M16.222,27.575c0,0-3.812-0.062-4.123-0.5v2.624c0,0,0.75-0.187,1.748,0c1,0.187,1.75,0.6,2.375,0.33
		V27.575z"/>
	<g>
		<path fill="#142A3E" d="M9.1,49.885v4.09h5.996V43.922C13.335,46.717,11.201,48.607,9.1,49.885z"/>
		<path fill="#142A3E" d="M12.036,31.926C11.975,31.74,9.1,38.642,9.1,38.642v10.489c4.169-2.875,5.996-7.102,5.996-7.102V38.64
			C15.096,38.642,12.099,32.116,12.036,31.926z M12.099,40.609c-0.792,0-1.437-0.643-1.437-1.438c0-0.793,0.645-1.436,1.437-1.436
			c0.793,0,1.438,0.643,1.438,1.436C13.536,39.967,12.892,40.609,12.099,40.609z"/>
	</g>
	<g>
		<path fill="#142A3E" d="M18.489,41.338h1.26v5.719h-1.26V41.338z"/>
		<path fill="#142A3E" d="M20.614,43.131h1.164v0.533h0.015c0.037-0.076,0.092-0.15,0.162-0.229c0.069-0.074,0.153-0.145,0.25-0.201
			c0.097-0.061,0.207-0.107,0.331-0.146s0.259-0.059,0.404-0.059c0.307,0,0.555,0.047,0.743,0.143
			c0.189,0.096,0.336,0.227,0.441,0.393c0.104,0.168,0.176,0.363,0.213,0.592c0.038,0.227,0.057,0.473,0.057,0.734v2.164h-1.211
			v-1.924c0-0.113-0.004-0.229-0.013-0.354c-0.008-0.119-0.032-0.23-0.073-0.332c-0.04-0.104-0.103-0.188-0.186-0.252
			c-0.084-0.064-0.203-0.098-0.359-0.098c-0.157,0-0.282,0.029-0.38,0.086c-0.097,0.055-0.171,0.131-0.222,0.225
			c-0.052,0.096-0.086,0.201-0.102,0.318c-0.016,0.121-0.024,0.244-0.024,0.375v1.953h-1.211v-3.924h0.001V43.131z"/>
		<path fill="#142A3E" d="M24.71,43.131h1.31l0.993,2.666h0.016l0.922-2.666h1.22l-1.551,3.926h-1.285L24.71,43.131z"/>
		<path fill="#142A3E" d="M33.202,46.379c-0.194,0.248-0.438,0.439-0.736,0.572c-0.296,0.137-0.603,0.203-0.92,0.203
			c-0.302,0-0.586-0.049-0.853-0.146s-0.498-0.232-0.694-0.416c-0.197-0.178-0.353-0.396-0.466-0.646
			c-0.112-0.254-0.169-0.537-0.169-0.85s0.057-0.598,0.169-0.85c0.113-0.254,0.269-0.471,0.466-0.65
			c0.196-0.18,0.428-0.318,0.694-0.416c0.267-0.098,0.551-0.146,0.853-0.146c0.279,0,0.534,0.049,0.764,0.146
			c0.229,0.098,0.423,0.236,0.582,0.416c0.157,0.182,0.28,0.396,0.367,0.65c0.086,0.252,0.129,0.535,0.129,0.85v0.381h-2.811
			c0.047,0.23,0.152,0.416,0.314,0.551c0.161,0.141,0.361,0.209,0.598,0.209c0.199,0,0.367-0.045,0.504-0.137
			c0.139-0.09,0.259-0.203,0.36-0.342L33.202,46.379z M32.175,44.648c0.007-0.205-0.061-0.379-0.201-0.523
			c-0.14-0.146-0.32-0.219-0.541-0.219c-0.135,0-0.253,0.021-0.355,0.064s-0.189,0.1-0.262,0.164
			c-0.073,0.066-0.13,0.145-0.171,0.234c-0.04,0.09-0.062,0.182-0.067,0.277L32.175,44.648L32.175,44.648z"/>
		<path fill="#142A3E" d="M36.217,44.285c-0.178-0.219-0.413-0.33-0.704-0.33c-0.103,0-0.202,0.023-0.298,0.072
			c-0.099,0.049-0.146,0.133-0.146,0.25c0,0.098,0.049,0.168,0.148,0.213c0.1,0.049,0.226,0.088,0.38,0.123
			c0.153,0.035,0.317,0.072,0.492,0.113c0.175,0.041,0.34,0.104,0.493,0.188c0.154,0.088,0.28,0.207,0.38,0.354
			c0.099,0.148,0.149,0.348,0.149,0.594c0,0.254-0.055,0.463-0.166,0.627c-0.109,0.164-0.251,0.297-0.424,0.396
			c-0.172,0.1-0.366,0.17-0.581,0.211c-0.216,0.041-0.429,0.061-0.64,0.061c-0.274,0-0.551-0.039-0.831-0.115
			c-0.28-0.078-0.518-0.219-0.711-0.418l0.735-0.814c0.112,0.141,0.238,0.246,0.376,0.318c0.137,0.074,0.297,0.109,0.479,0.109
			c0.141,0,0.268-0.02,0.38-0.061c0.113-0.041,0.17-0.115,0.17-0.225c0-0.102-0.049-0.18-0.149-0.23
			c-0.099-0.049-0.226-0.092-0.38-0.127c-0.153-0.035-0.317-0.072-0.493-0.113c-0.174-0.041-0.338-0.1-0.492-0.184
			c-0.153-0.08-0.279-0.193-0.38-0.342c-0.1-0.148-0.149-0.35-0.149-0.596c0-0.23,0.048-0.432,0.142-0.598
			c0.094-0.168,0.219-0.305,0.371-0.412c0.154-0.107,0.33-0.188,0.529-0.238c0.199-0.051,0.401-0.076,0.606-0.076
			c0.259,0,0.52,0.037,0.784,0.111c0.264,0.076,0.486,0.211,0.671,0.404L36.217,44.285z"/>
		<path fill="#142A3E" d="M40.28,44.1h-1.067v1.309c0,0.107,0.004,0.207,0.017,0.297c0.01,0.088,0.035,0.164,0.072,0.229
			c0.037,0.064,0.096,0.115,0.174,0.15c0.077,0.033,0.181,0.053,0.311,0.053c0.064,0,0.15-0.008,0.255-0.021
			c0.104-0.012,0.186-0.045,0.239-0.092v1.01c-0.137,0.049-0.277,0.08-0.422,0.098c-0.146,0.018-0.288,0.023-0.427,0.023
			c-0.206,0-0.395-0.021-0.565-0.062c-0.174-0.045-0.324-0.111-0.454-0.209c-0.128-0.094-0.23-0.215-0.303-0.365
			c-0.072-0.15-0.108-0.334-0.108-0.551v-1.865h-0.775v-0.971h0.775v-1.164h1.212v1.164h1.067L40.28,44.1L40.28,44.1L40.28,44.1z"/>
		<path fill="#142A3E" d="M18.198,50.93c0-0.459,0.076-0.873,0.23-1.246c0.153-0.371,0.368-0.686,0.643-0.947
			c0.274-0.262,0.601-0.461,0.978-0.602c0.376-0.143,0.789-0.211,1.236-0.211c0.446,0,0.858,0.068,1.236,0.211
			c0.376,0.141,0.702,0.34,0.977,0.602c0.275,0.264,0.489,0.576,0.644,0.947c0.152,0.373,0.229,0.787,0.229,1.246
			c0,0.457-0.077,0.873-0.229,1.244c-0.154,0.371-0.368,0.688-0.644,0.945c-0.274,0.266-0.601,0.467-0.977,0.605
			c-0.378,0.141-0.79,0.209-1.236,0.209c-0.447,0-0.86-0.068-1.236-0.209c-0.377-0.141-0.703-0.342-0.978-0.605
			c-0.274-0.26-0.489-0.574-0.643-0.945C18.274,51.803,18.198,51.387,18.198,50.93z M19.507,50.93c0,0.27,0.042,0.516,0.126,0.738
			c0.083,0.225,0.203,0.418,0.359,0.582c0.156,0.164,0.344,0.293,0.562,0.383c0.219,0.094,0.462,0.139,0.731,0.139
			s0.513-0.045,0.73-0.139c0.219-0.09,0.405-0.219,0.562-0.383c0.155-0.164,0.275-0.357,0.359-0.582
			c0.083-0.225,0.124-0.471,0.124-0.738c0-0.266-0.041-0.508-0.124-0.736c-0.084-0.227-0.204-0.422-0.359-0.584
			c-0.157-0.166-0.344-0.293-0.562-0.385c-0.218-0.092-0.461-0.137-0.73-0.137s-0.513,0.045-0.731,0.137
			c-0.218,0.092-0.405,0.219-0.562,0.385c-0.156,0.162-0.276,0.357-0.359,0.584C19.549,50.422,19.507,50.666,19.507,50.93z"/>
		<path fill="#142A3E" d="M27.151,50.832h-1.066v1.311c0,0.107,0.005,0.207,0.016,0.297c0.011,0.088,0.035,0.166,0.073,0.229
			c0.037,0.062,0.095,0.113,0.173,0.148c0.079,0.035,0.182,0.053,0.311,0.053c0.065,0,0.15-0.008,0.255-0.021
			c0.105-0.012,0.186-0.043,0.239-0.092v1.01c-0.136,0.049-0.275,0.08-0.421,0.098s-0.287,0.023-0.428,0.023
			c-0.204,0-0.394-0.021-0.565-0.062c-0.173-0.045-0.323-0.111-0.453-0.209c-0.129-0.092-0.23-0.215-0.303-0.365
			c-0.073-0.148-0.109-0.334-0.109-0.549v-1.867h-0.774v-0.971h0.774v-1.162h1.213v1.162h1.066L27.151,50.832L27.151,50.832z"/>
		<path fill="#142A3E" d="M29.841,50.832h-1.067v1.311c0,0.107,0.006,0.207,0.017,0.297c0.01,0.088,0.035,0.166,0.073,0.229
			c0.037,0.062,0.095,0.113,0.173,0.148c0.079,0.035,0.182,0.053,0.311,0.053c0.065,0,0.15-0.008,0.255-0.021
			c0.105-0.012,0.186-0.043,0.239-0.092v1.01c-0.136,0.049-0.275,0.08-0.421,0.098s-0.287,0.023-0.428,0.023
			c-0.204,0-0.394-0.021-0.565-0.062c-0.173-0.045-0.323-0.111-0.453-0.209c-0.129-0.092-0.23-0.215-0.303-0.365
			c-0.073-0.148-0.109-0.334-0.109-0.549v-1.867h-0.774v-0.971h0.774v-1.162h1.212v1.162h1.067L29.841,50.832L29.841,50.832z"/>
		<path fill="#142A3E" d="M32.628,53.297h-0.017c-0.134,0.209-0.313,0.359-0.536,0.451c-0.225,0.094-0.46,0.139-0.707,0.139
			c-0.184,0-0.36-0.025-0.529-0.078c-0.171-0.051-0.319-0.127-0.449-0.229c-0.129-0.102-0.231-0.229-0.307-0.381
			c-0.075-0.15-0.113-0.324-0.113-0.523c0-0.229,0.042-0.416,0.126-0.572c0.082-0.156,0.196-0.285,0.338-0.389
			c0.144-0.104,0.306-0.184,0.489-0.238c0.183-0.057,0.374-0.1,0.57-0.125c0.195-0.027,0.393-0.043,0.589-0.051
			c0.197-0.004,0.379-0.008,0.546-0.008c0-0.215-0.076-0.385-0.23-0.514c-0.153-0.125-0.335-0.188-0.546-0.188
			c-0.199,0-0.381,0.039-0.545,0.125c-0.164,0.084-0.312,0.197-0.44,0.344l-0.646-0.662c0.226-0.211,0.49-0.369,0.791-0.475
			c0.302-0.104,0.614-0.154,0.938-0.154c0.355,0,0.647,0.043,0.877,0.133c0.228,0.088,0.412,0.219,0.549,0.393
			c0.138,0.172,0.233,0.383,0.287,0.635c0.054,0.25,0.08,0.539,0.08,0.867v1.996h-1.114L32.628,53.297L32.628,53.297z
			 M32.329,52.068c-0.093,0-0.206,0.006-0.343,0.014c-0.139,0.01-0.27,0.029-0.396,0.066c-0.127,0.039-0.234,0.096-0.323,0.172
			c-0.089,0.074-0.133,0.18-0.133,0.312c0,0.145,0.062,0.254,0.186,0.324c0.124,0.068,0.253,0.104,0.387,0.104
			c0.119,0,0.233-0.018,0.344-0.051c0.11-0.029,0.21-0.076,0.295-0.135c0.086-0.061,0.155-0.139,0.207-0.229
			c0.051-0.092,0.076-0.201,0.076-0.322v-0.26h-0.3V52.068z"/>
		<path fill="#142A3E" d="M33.59,49.861h1.292l0.8,2.469h0.017l0.671-2.469h1.324l0.727,2.469h0.017l0.735-2.469h1.228l-1.397,3.93
			H37.81l-0.817-2.607h-0.015l-0.729,2.607h-1.22L33.59,49.861z"/>
		<path fill="#142A3E" d="M42.809,53.297h-0.017c-0.134,0.209-0.312,0.359-0.536,0.451c-0.225,0.094-0.461,0.139-0.708,0.139
			c-0.182,0-0.358-0.025-0.528-0.078c-0.17-0.051-0.318-0.127-0.446-0.229c-0.13-0.102-0.233-0.229-0.308-0.381
			c-0.076-0.15-0.113-0.324-0.113-0.523c0-0.229,0.042-0.416,0.125-0.572c0.084-0.156,0.198-0.285,0.34-0.389
			c0.143-0.104,0.305-0.184,0.486-0.238c0.185-0.055,0.373-0.1,0.57-0.125c0.196-0.027,0.393-0.043,0.59-0.051
			c0.196-0.004,0.379-0.008,0.545-0.008c0-0.215-0.076-0.385-0.229-0.514c-0.153-0.125-0.335-0.188-0.546-0.188
			c-0.199,0-0.382,0.039-0.546,0.125c-0.163,0.084-0.312,0.197-0.438,0.344l-0.65-0.664c0.227-0.211,0.491-0.369,0.792-0.475
			c0.304-0.104,0.615-0.154,0.938-0.154c0.354,0,0.647,0.043,0.877,0.133c0.228,0.088,0.412,0.217,0.55,0.393
			c0.137,0.17,0.232,0.383,0.286,0.635c0.054,0.248,0.08,0.539,0.08,0.867v1.996h-1.114V53.297L42.809,53.297z M42.51,52.068
			c-0.092,0-0.205,0.006-0.344,0.014c-0.137,0.01-0.27,0.029-0.396,0.066c-0.127,0.039-0.232,0.096-0.321,0.172
			c-0.091,0.074-0.134,0.18-0.134,0.312c0,0.145,0.062,0.254,0.187,0.324c0.124,0.068,0.253,0.104,0.39,0.104
			c0.116,0,0.23-0.018,0.342-0.051c0.109-0.029,0.209-0.076,0.295-0.135c0.088-0.061,0.156-0.139,0.207-0.229
			c0.052-0.092,0.076-0.201,0.076-0.322v-0.26H42.51V52.068z"/>
	</g>
	<g>
		<path fill="#142A3E" d="M53.346,41.338h1.258v5.719h-1.258V41.338z"/>
		<path fill="#142A3E" d="M55.413,43.131h1.162v0.533h0.016c0.037-0.076,0.093-0.15,0.161-0.229c0.07-0.074,0.155-0.145,0.252-0.201
			c0.098-0.061,0.206-0.107,0.33-0.146s0.259-0.059,0.404-0.059c0.308,0,0.556,0.047,0.742,0.143
			c0.189,0.096,0.336,0.227,0.44,0.393c0.104,0.168,0.177,0.363,0.213,0.592c0.038,0.227,0.06,0.473,0.06,0.734v2.164H57.98v-1.924
			c0-0.113-0.004-0.229-0.014-0.354c-0.008-0.119-0.031-0.23-0.07-0.332c-0.041-0.104-0.104-0.188-0.188-0.252
			c-0.085-0.064-0.203-0.098-0.359-0.098s-0.281,0.029-0.379,0.086c-0.099,0.055-0.172,0.131-0.224,0.225
			c-0.054,0.096-0.086,0.201-0.103,0.318c-0.016,0.121-0.022,0.244-0.022,0.375v1.953h-1.211L55.413,43.131L55.413,43.131z"/>
		<path fill="#142A3E" d="M59.452,43.131h1.31l0.993,2.666h0.015l0.924-2.666h1.221l-1.553,3.926h-1.283L59.452,43.131z"/>
		<path fill="#142A3E" d="M67.889,46.379c-0.195,0.248-0.438,0.439-0.736,0.572c-0.297,0.137-0.604,0.203-0.922,0.203
			c-0.301,0-0.584-0.049-0.852-0.146s-0.498-0.232-0.695-0.416c-0.195-0.178-0.353-0.396-0.463-0.646
			c-0.113-0.254-0.172-0.537-0.172-0.85s0.059-0.598,0.172-0.85c0.11-0.254,0.268-0.471,0.463-0.65
			c0.197-0.18,0.43-0.318,0.695-0.416c0.268-0.098,0.551-0.146,0.852-0.146c0.281,0,0.535,0.049,0.767,0.146
			c0.229,0.098,0.423,0.236,0.582,0.416c0.157,0.182,0.278,0.396,0.364,0.65c0.089,0.252,0.132,0.535,0.132,0.85v0.381h-2.812
			c0.047,0.23,0.151,0.416,0.312,0.551c0.162,0.141,0.361,0.209,0.599,0.209c0.2,0,0.368-0.045,0.505-0.137
			c0.139-0.09,0.258-0.203,0.359-0.342L67.889,46.379z M66.861,44.648c0.005-0.205-0.062-0.379-0.202-0.523
			c-0.14-0.146-0.319-0.219-0.54-0.219c-0.137,0-0.254,0.021-0.357,0.064c-0.102,0.043-0.188,0.1-0.261,0.164
			c-0.074,0.066-0.13,0.145-0.172,0.234c-0.039,0.09-0.062,0.182-0.065,0.277L66.861,44.648L66.861,44.648z"/>
		<path fill="#142A3E" d="M70.843,44.285c-0.178-0.219-0.411-0.33-0.702-0.33c-0.104,0-0.201,0.023-0.299,0.072
			s-0.145,0.133-0.145,0.25c0,0.098,0.048,0.168,0.148,0.213c0.1,0.049,0.225,0.088,0.381,0.123c0.15,0.035,0.313,0.072,0.489,0.113
			c0.177,0.041,0.341,0.104,0.493,0.188c0.15,0.088,0.279,0.207,0.38,0.354c0.101,0.148,0.147,0.348,0.147,0.594
			c0,0.254-0.055,0.463-0.164,0.627s-0.252,0.297-0.426,0.396c-0.172,0.1-0.364,0.17-0.582,0.211
			c-0.215,0.041-0.428,0.061-0.639,0.061c-0.273,0-0.551-0.039-0.83-0.115c-0.281-0.078-0.52-0.219-0.713-0.418l0.736-0.814
			c0.111,0.141,0.238,0.246,0.375,0.318c0.138,0.074,0.298,0.109,0.48,0.109c0.139,0,0.268-0.02,0.381-0.061
			c0.109-0.041,0.168-0.115,0.168-0.225c0-0.102-0.049-0.18-0.148-0.23c-0.1-0.049-0.227-0.092-0.38-0.127
			c-0.151-0.035-0.317-0.072-0.493-0.113c-0.175-0.041-0.338-0.1-0.493-0.184c-0.151-0.08-0.278-0.193-0.38-0.342
			c-0.1-0.148-0.148-0.35-0.148-0.596c0-0.23,0.049-0.432,0.143-0.598c0.095-0.168,0.219-0.305,0.371-0.412
			c0.154-0.107,0.331-0.188,0.527-0.238c0.201-0.051,0.402-0.076,0.607-0.076c0.258,0,0.52,0.037,0.784,0.111
			c0.265,0.076,0.485,0.211,0.671,0.404L70.843,44.285z"/>
		<path fill="#142A3E" d="M74.852,44.1h-1.065v1.309c0,0.107,0.006,0.207,0.017,0.297c0.012,0.088,0.035,0.164,0.074,0.229
			c0.037,0.064,0.096,0.115,0.172,0.15c0.079,0.033,0.184,0.053,0.312,0.053c0.064,0,0.148-0.008,0.254-0.021
			c0.105-0.012,0.187-0.045,0.24-0.092v1.01c-0.137,0.049-0.275,0.08-0.42,0.098c-0.146,0.018-0.289,0.023-0.431,0.023
			c-0.204,0-0.394-0.021-0.563-0.062c-0.172-0.045-0.322-0.111-0.453-0.209c-0.129-0.094-0.229-0.215-0.303-0.365
			c-0.074-0.15-0.109-0.334-0.109-0.551v-1.865h-0.775v-0.971h0.775v-1.164h1.212v1.164h1.067V44.1H74.852L74.852,44.1z"/>
		<path fill="#142A3E" d="M75.197,41.895c0-0.193,0.068-0.361,0.207-0.498c0.137-0.137,0.303-0.205,0.496-0.205
			c0.192,0,0.361,0.066,0.496,0.205c0.14,0.137,0.205,0.303,0.205,0.498c0,0.193-0.065,0.359-0.205,0.496
			c-0.135,0.139-0.304,0.207-0.496,0.207c-0.193,0-0.359-0.068-0.496-0.207C75.268,42.254,75.197,42.088,75.197,41.895z
			 M75.294,43.131h1.214v3.926h-1.214V43.131z"/>
		<path fill="#142A3E" d="M77.193,43.131h1.211v0.631h0.017c0.13-0.244,0.283-0.426,0.46-0.547c0.18-0.121,0.402-0.184,0.671-0.184
			c0.07,0,0.142,0.002,0.212,0.01c0.069,0.006,0.133,0.016,0.192,0.031v1.105c-0.086-0.027-0.17-0.047-0.255-0.061
			c-0.082-0.014-0.17-0.021-0.262-0.021c-0.232,0-0.414,0.033-0.551,0.098c-0.136,0.064-0.238,0.154-0.312,0.271
			c-0.072,0.115-0.119,0.256-0.144,0.416c-0.021,0.16-0.033,0.338-0.033,0.533v1.641h-1.211v-3.926h0.004V43.131z"/>
		<path fill="#142A3E" d="M53.055,50.93c0-0.459,0.074-0.873,0.229-1.246c0.151-0.371,0.366-0.686,0.641-0.947
			c0.275-0.262,0.601-0.461,0.979-0.602c0.377-0.143,0.787-0.211,1.236-0.211c0.445,0,0.856,0.068,1.234,0.211
			c0.377,0.141,0.702,0.34,0.979,0.602c0.274,0.264,0.487,0.576,0.643,0.947c0.154,0.373,0.229,0.787,0.229,1.246
			c0,0.457-0.074,0.873-0.229,1.244c-0.153,0.371-0.366,0.688-0.643,0.945c-0.274,0.266-0.602,0.467-0.979,0.605
			c-0.378,0.141-0.789,0.209-1.234,0.209c-0.449,0-0.859-0.068-1.236-0.209c-0.379-0.141-0.703-0.342-0.979-0.605
			c-0.274-0.26-0.487-0.574-0.641-0.945C53.129,51.803,53.055,51.387,53.055,50.93z M54.361,50.93c0,0.27,0.041,0.516,0.125,0.738
			c0.082,0.225,0.203,0.418,0.361,0.582c0.152,0.164,0.344,0.293,0.561,0.383c0.219,0.094,0.462,0.139,0.73,0.139
			c0.271,0,0.514-0.045,0.73-0.139c0.218-0.09,0.404-0.219,0.562-0.383c0.154-0.164,0.275-0.357,0.358-0.582
			s0.124-0.471,0.124-0.738c0-0.266-0.041-0.508-0.124-0.736c-0.083-0.227-0.204-0.422-0.358-0.584
			c-0.156-0.166-0.345-0.293-0.562-0.385c-0.221-0.092-0.461-0.137-0.73-0.137c-0.271,0-0.514,0.045-0.73,0.137
			s-0.406,0.219-0.561,0.385c-0.158,0.162-0.279,0.357-0.361,0.584C54.402,50.422,54.361,50.666,54.361,50.93z"/>
		<path fill="#142A3E" d="M62.006,50.832h-1.066v1.311c0,0.107,0.006,0.207,0.018,0.297c0.01,0.088,0.035,0.166,0.07,0.229
			c0.039,0.062,0.098,0.113,0.176,0.148c0.079,0.035,0.184,0.053,0.312,0.053c0.064,0,0.148-0.008,0.254-0.021
			c0.104-0.012,0.187-0.043,0.238-0.092v1.01c-0.135,0.049-0.273,0.08-0.422,0.098c-0.146,0.018-0.286,0.023-0.427,0.023
			c-0.204,0-0.396-0.021-0.565-0.062c-0.174-0.045-0.322-0.111-0.451-0.209c-0.129-0.092-0.229-0.215-0.306-0.365
			c-0.071-0.148-0.106-0.334-0.106-0.549v-1.867h-0.775v-0.971h0.775v-1.162h1.211v1.162h1.066L62.006,50.832L62.006,50.832z"/>
		<path fill="#142A3E" d="M64.695,50.832h-1.066v1.311c0,0.107,0.004,0.207,0.018,0.297c0.011,0.088,0.035,0.166,0.071,0.229
			c0.037,0.062,0.097,0.113,0.173,0.148c0.078,0.035,0.184,0.053,0.312,0.053c0.062,0,0.148-0.008,0.253-0.021
			c0.104-0.012,0.187-0.043,0.239-0.092v1.01c-0.137,0.049-0.275,0.08-0.422,0.098c-0.146,0.018-0.287,0.023-0.428,0.023
			c-0.205,0-0.394-0.021-0.566-0.062c-0.172-0.045-0.32-0.111-0.45-0.209c-0.128-0.092-0.229-0.215-0.304-0.365
			c-0.071-0.148-0.108-0.334-0.108-0.549v-1.867h-0.772v-0.971h0.772v-1.162h1.213v1.162h1.065V50.832L64.695,50.832z"/>
		<path fill="#142A3E" d="M67.482,53.297h-0.019c-0.134,0.209-0.312,0.359-0.537,0.451c-0.224,0.094-0.46,0.139-0.706,0.139
			c-0.183,0-0.357-0.025-0.529-0.078c-0.17-0.051-0.318-0.127-0.446-0.229c-0.13-0.102-0.233-0.229-0.308-0.381
			c-0.076-0.15-0.113-0.324-0.113-0.523c0-0.229,0.042-0.416,0.125-0.572c0.084-0.156,0.197-0.285,0.34-0.389
			s0.305-0.184,0.488-0.238c0.183-0.055,0.373-0.1,0.57-0.125c0.194-0.027,0.393-0.043,0.588-0.051
			c0.197-0.004,0.379-0.008,0.547-0.008c0-0.215-0.078-0.385-0.23-0.514c-0.152-0.125-0.335-0.188-0.546-0.188
			c-0.198,0-0.381,0.039-0.546,0.125c-0.163,0.084-0.311,0.197-0.438,0.344l-0.646-0.662c0.225-0.211,0.488-0.369,0.79-0.475
			c0.302-0.104,0.614-0.154,0.938-0.154c0.354,0,0.646,0.043,0.875,0.133c0.229,0.088,0.412,0.219,0.551,0.393
			c0.138,0.172,0.231,0.383,0.287,0.635c0.053,0.25,0.08,0.539,0.08,0.867v1.996h-1.115V53.297L67.482,53.297z M67.184,52.068
			c-0.092,0-0.205,0.006-0.344,0.014c-0.137,0.01-0.27,0.029-0.396,0.066c-0.125,0.039-0.231,0.096-0.32,0.172
			c-0.089,0.074-0.135,0.18-0.135,0.312c0,0.145,0.062,0.254,0.188,0.324c0.125,0.068,0.254,0.104,0.389,0.104
			c0.119,0,0.231-0.018,0.345-0.051c0.108-0.029,0.208-0.076,0.294-0.135c0.087-0.061,0.156-0.139,0.206-0.229
			c0.052-0.092,0.077-0.201,0.077-0.322v-0.26h-0.301v0.004H67.184z"/>
		<path fill="#142A3E" d="M68.443,49.861h1.293l0.801,2.469h0.018l0.67-2.469h1.322l0.729,2.469h0.019l0.733-2.469h1.229
			l-1.396,3.93h-1.196l-0.815-2.607h-0.017l-0.728,2.607h-1.221L68.443,49.861z"/>
		<path fill="#142A3E" d="M77.662,53.297h-0.016c-0.135,0.209-0.313,0.359-0.537,0.451c-0.227,0.094-0.459,0.139-0.707,0.139
			c-0.185,0-0.359-0.025-0.528-0.078c-0.17-0.051-0.319-0.127-0.449-0.229s-0.231-0.229-0.308-0.381
			c-0.074-0.15-0.111-0.324-0.111-0.523c0-0.229,0.04-0.416,0.125-0.572c0.082-0.156,0.196-0.285,0.338-0.389
			c0.143-0.104,0.307-0.184,0.488-0.238c0.184-0.057,0.375-0.1,0.57-0.125c0.195-0.027,0.393-0.043,0.591-0.051
			c0.196-0.004,0.379-0.008,0.544-0.008c0-0.215-0.075-0.385-0.23-0.514c-0.152-0.125-0.334-0.188-0.543-0.188
			c-0.201,0-0.384,0.039-0.547,0.125c-0.165,0.084-0.311,0.197-0.439,0.344l-0.646-0.662c0.226-0.211,0.489-0.369,0.79-0.475
			c0.305-0.104,0.615-0.154,0.938-0.154c0.354,0,0.646,0.043,0.877,0.133c0.229,0.088,0.412,0.219,0.55,0.393
			c0.139,0.172,0.231,0.383,0.288,0.635c0.054,0.25,0.078,0.539,0.078,0.867v1.996h-1.114L77.662,53.297L77.662,53.297z
			 M77.365,52.068c-0.094,0-0.208,0.006-0.344,0.014c-0.141,0.01-0.271,0.029-0.396,0.066c-0.126,0.039-0.234,0.096-0.324,0.172
			c-0.089,0.074-0.133,0.18-0.133,0.312c0,0.145,0.062,0.254,0.186,0.324c0.125,0.068,0.254,0.104,0.39,0.104
			c0.118,0,0.233-0.018,0.344-0.051c0.108-0.029,0.21-0.076,0.294-0.135c0.087-0.061,0.156-0.139,0.208-0.229
			c0.054-0.092,0.075-0.201,0.075-0.322v-0.26h-0.298L77.365,52.068L77.365,52.068z"/>
	</g>
	<line fill="none" stroke="#142A3E" stroke-miterlimit="10" x1="48.639" y1="42.369" x2="48.639" y2="53.975"/>
</g>
</svg>
