<?xml version="1.0" encoding="utf-8"?>
<!-- Generator: Adobe Illustrator 16.0.0, SVG Export Plug-In . SVG Version: 6.00 Build 0)  -->
<!DOCTYPE svg PUBLIC "-//W3C//DTD SVG 1.1//EN" "http://www.w3.org/Graphics/SVG/1.1/DTD/svg11.dtd">
<svg version="1.1" id="Layer_1" xmlns="http://www.w3.org/2000/svg" xmlns:xlink="http://www.w3.org/1999/xlink" x="0px" y="0px"
	 width="80px" height="80px" viewBox="0 0 80 80" enable-background="new 0 0 80 80" xml:space="preserve">
<g>
	<g>
		<path fill="#3E6DB2" d="M3.666,50.886V45.6H1.668l-1.624,2.499v3.061C1.346,51.214,2.549,51.107,3.666,50.886z"/>
		<path fill="#3E6DB2" d="M0.044,51.973v1.435h3.622v-1.885C1.528,52.018,0.044,51.973,0.044,51.973z"/>
	</g>
	<g>
		<path fill="#3E6DB2" d="M4.416,51.331v2.076h3.747v-3.562C6.842,50.543,5.558,51.019,4.416,51.331z"/>
		<path fill="#3E6DB2" d="M8.163,49.164v-9.622H6.289l-1.873,3.811v7.359C5.813,50.355,7.06,49.812,8.163,49.164z"/>
	</g>
	<polygon fill="#3E6DB2" points="11.661,26.55 11.661,32.072 12.036,31.359 12.527,32.459 12.527,26.55 	"/>
	<path fill="#3E6DB2" d="M16.222,27.05c0,0-3.812-0.062-4.123-0.5v2.624c0,0,0.75-0.187,1.748,0c1,0.187,1.75,0.6,2.375,0.33V27.05z
		"/>
	<g>
		<path fill="#3E6DB2" d="M9.1,49.359v4.091h5.996V43.396C13.335,46.191,11.201,48.082,9.1,49.359z"/>
		<path fill="#3E6DB2" d="M12.036,31.401C11.975,31.215,9.1,38.117,9.1,38.117v10.489c4.169-2.876,5.996-7.1,5.996-7.1v-3.39
			C15.096,38.117,12.099,31.591,12.036,31.401z M12.099,40.084c-0.792,0-1.437-0.642-1.437-1.437c0-0.793,0.645-1.436,1.437-1.436
			c0.793,0,1.438,0.643,1.438,1.436C13.536,39.442,12.892,40.084,12.099,40.084z"/>
	</g>
	<g>
		<path fill="#3E6DB2" d="M18.489,40.812h1.26v5.72h-1.26V40.812z"/>
		<path fill="#3E6DB2" d="M20.614,42.605h1.164v0.533h0.015c0.037-0.076,0.092-0.15,0.162-0.227c0.069-0.074,0.153-0.143,0.25-0.201
			c0.097-0.06,0.207-0.108,0.331-0.146c0.124-0.038,0.259-0.057,0.404-0.057c0.307,0,0.555,0.046,0.743,0.142
			c0.189,0.094,0.336,0.225,0.441,0.392c0.104,0.167,0.176,0.363,0.213,0.591c0.038,0.225,0.057,0.471,0.057,0.734v2.165h-1.211
			v-1.924c0-0.113-0.004-0.229-0.013-0.352c-0.008-0.12-0.032-0.232-0.073-0.333c-0.04-0.104-0.103-0.188-0.186-0.252
			c-0.084-0.064-0.203-0.098-0.359-0.098c-0.157,0-0.282,0.029-0.38,0.086c-0.097,0.056-0.171,0.131-0.222,0.226
			c-0.052,0.095-0.086,0.201-0.102,0.318c-0.016,0.12-0.024,0.243-0.024,0.374v1.954h-1.211V42.605z"/>
		<path fill="#3E6DB2" d="M24.71,42.605h1.31l0.993,2.666h0.016l0.922-2.666h1.22l-1.551,3.927h-1.285L24.71,42.605z"/>
		<path fill="#3E6DB2" d="M33.202,45.854c-0.194,0.247-0.438,0.439-0.736,0.573c-0.296,0.135-0.603,0.202-0.92,0.202
			c-0.302,0-0.586-0.049-0.853-0.146c-0.267-0.097-0.498-0.234-0.694-0.416c-0.197-0.179-0.353-0.396-0.466-0.648
			c-0.112-0.254-0.169-0.537-0.169-0.849c0-0.313,0.057-0.597,0.169-0.849c0.113-0.253,0.269-0.471,0.466-0.65
			c0.196-0.18,0.428-0.319,0.694-0.416c0.267-0.098,0.551-0.146,0.853-0.146c0.279,0,0.534,0.048,0.764,0.146
			c0.229,0.097,0.423,0.236,0.582,0.416c0.157,0.18,0.28,0.397,0.367,0.65c0.086,0.252,0.129,0.535,0.129,0.849v0.38h-2.811
			c0.047,0.231,0.152,0.416,0.314,0.552c0.161,0.139,0.361,0.208,0.598,0.208c0.199,0,0.367-0.045,0.504-0.136
			c0.139-0.089,0.259-0.203,0.36-0.342L33.202,45.854z M32.175,44.124c0.007-0.205-0.061-0.38-0.201-0.524
			c-0.14-0.146-0.32-0.219-0.541-0.219c-0.135,0-0.253,0.021-0.355,0.064s-0.189,0.1-0.262,0.165
			c-0.073,0.068-0.13,0.146-0.171,0.235c-0.04,0.089-0.062,0.181-0.067,0.278H32.175z"/>
		<path fill="#3E6DB2" d="M36.217,43.761c-0.178-0.22-0.413-0.331-0.704-0.331c-0.103,0-0.202,0.023-0.298,0.072
			c-0.099,0.049-0.146,0.133-0.146,0.25c0,0.098,0.049,0.169,0.148,0.214c0.1,0.048,0.226,0.087,0.38,0.122
			c0.153,0.035,0.317,0.072,0.492,0.113s0.34,0.104,0.493,0.188c0.154,0.087,0.28,0.206,0.38,0.353
			c0.099,0.148,0.149,0.348,0.149,0.593c0,0.254-0.055,0.464-0.166,0.627c-0.109,0.165-0.251,0.297-0.424,0.396
			c-0.172,0.1-0.366,0.17-0.581,0.211c-0.216,0.041-0.429,0.061-0.64,0.061c-0.274,0-0.551-0.04-0.831-0.116
			c-0.28-0.078-0.518-0.218-0.711-0.418l0.735-0.815c0.112,0.141,0.238,0.247,0.376,0.319c0.137,0.074,0.297,0.11,0.479,0.11
			c0.141,0,0.268-0.021,0.38-0.062c0.113-0.041,0.17-0.114,0.17-0.222c0-0.103-0.049-0.181-0.149-0.232
			c-0.099-0.049-0.226-0.093-0.38-0.128c-0.153-0.035-0.317-0.072-0.493-0.113c-0.174-0.041-0.338-0.1-0.492-0.183
			c-0.153-0.08-0.279-0.194-0.38-0.342c-0.1-0.148-0.149-0.348-0.149-0.594c0-0.232,0.048-0.432,0.142-0.598
			c0.094-0.167,0.219-0.305,0.371-0.413c0.154-0.107,0.33-0.187,0.529-0.238c0.199-0.051,0.401-0.076,0.606-0.076
			c0.259,0,0.52,0.037,0.784,0.112c0.264,0.076,0.486,0.211,0.671,0.404L36.217,43.761z"/>
		<path fill="#3E6DB2" d="M40.28,43.574h-1.067v1.309c0,0.107,0.004,0.208,0.017,0.297c0.01,0.088,0.035,0.164,0.072,0.229
			c0.037,0.064,0.096,0.115,0.174,0.149c0.077,0.035,0.181,0.053,0.311,0.053c0.064,0,0.15-0.007,0.255-0.021
			c0.104-0.012,0.186-0.044,0.239-0.092v1.01c-0.137,0.049-0.277,0.08-0.422,0.097c-0.146,0.017-0.288,0.024-0.427,0.024
			c-0.206,0-0.395-0.022-0.565-0.063c-0.174-0.044-0.324-0.112-0.454-0.208c-0.128-0.095-0.23-0.215-0.303-0.366
			c-0.072-0.15-0.108-0.334-0.108-0.551v-1.866h-0.775v-0.969h0.775v-1.164h1.212v1.164h1.067V43.574z"/>
		<path fill="#3E6DB2" d="M18.198,50.404c0-0.458,0.076-0.873,0.23-1.245c0.153-0.371,0.368-0.686,0.643-0.948
			c0.274-0.262,0.601-0.461,0.978-0.602c0.376-0.141,0.789-0.21,1.236-0.21c0.446,0,0.858,0.069,1.236,0.21
			c0.376,0.141,0.702,0.34,0.977,0.602c0.275,0.263,0.489,0.577,0.644,0.948c0.152,0.372,0.229,0.787,0.229,1.245
			s-0.077,0.873-0.229,1.244c-0.154,0.372-0.368,0.688-0.644,0.948c-0.274,0.263-0.601,0.464-0.977,0.604
			c-0.378,0.141-0.79,0.209-1.236,0.209c-0.447,0-0.86-0.068-1.236-0.209c-0.377-0.14-0.703-0.341-0.978-0.604
			c-0.274-0.26-0.489-0.576-0.643-0.948C18.274,51.277,18.198,50.862,18.198,50.404z M19.507,50.404
			c0,0.271,0.042,0.517,0.126,0.739c0.083,0.224,0.203,0.417,0.359,0.582c0.156,0.163,0.344,0.292,0.562,0.383
			c0.219,0.094,0.462,0.139,0.731,0.139s0.513-0.045,0.73-0.139c0.219-0.091,0.405-0.22,0.562-0.383
			c0.155-0.165,0.275-0.358,0.359-0.582c0.083-0.223,0.124-0.469,0.124-0.739c0-0.265-0.041-0.508-0.124-0.735
			c-0.084-0.227-0.204-0.422-0.359-0.585c-0.157-0.165-0.344-0.292-0.562-0.385c-0.218-0.091-0.461-0.137-0.73-0.137
			s-0.513,0.046-0.731,0.137c-0.218,0.093-0.405,0.22-0.562,0.385c-0.156,0.163-0.276,0.358-0.359,0.585
			C19.549,49.896,19.507,50.14,19.507,50.404z"/>
		<path fill="#3E6DB2" d="M27.151,50.307h-1.066v1.309c0,0.109,0.005,0.208,0.016,0.297c0.011,0.088,0.035,0.166,0.073,0.229
			c0.037,0.064,0.095,0.115,0.173,0.149c0.079,0.035,0.182,0.053,0.311,0.053c0.065,0,0.15-0.007,0.255-0.021
			c0.105-0.012,0.186-0.044,0.239-0.092v1.01c-0.136,0.049-0.275,0.08-0.421,0.097s-0.287,0.024-0.428,0.024
			c-0.204,0-0.394-0.021-0.565-0.063c-0.173-0.044-0.323-0.112-0.453-0.208c-0.129-0.093-0.23-0.215-0.303-0.366
			c-0.073-0.15-0.109-0.334-0.109-0.549v-1.868h-0.774v-0.97h0.774v-1.162h1.213v1.162h1.066V50.307z"/>
		<path fill="#3E6DB2" d="M29.841,50.307h-1.067v1.309c0,0.109,0.006,0.208,0.017,0.297c0.01,0.088,0.035,0.166,0.073,0.229
			c0.037,0.064,0.095,0.115,0.173,0.149c0.079,0.035,0.182,0.053,0.311,0.053c0.065,0,0.15-0.007,0.255-0.021
			c0.105-0.012,0.186-0.044,0.239-0.092v1.01c-0.136,0.049-0.275,0.08-0.421,0.097s-0.287,0.024-0.428,0.024
			c-0.204,0-0.394-0.021-0.565-0.063c-0.173-0.044-0.323-0.112-0.453-0.208c-0.129-0.093-0.23-0.215-0.303-0.366
			c-0.073-0.15-0.109-0.334-0.109-0.549v-1.868h-0.774v-0.97h0.774v-1.162h1.212v1.162h1.067V50.307z"/>
		<path fill="#3E6DB2" d="M32.628,52.771h-0.017c-0.134,0.21-0.313,0.361-0.536,0.452c-0.225,0.093-0.46,0.138-0.707,0.138
			c-0.184,0-0.36-0.025-0.529-0.077c-0.171-0.052-0.319-0.127-0.449-0.23c-0.129-0.101-0.231-0.229-0.307-0.379
			c-0.075-0.151-0.113-0.326-0.113-0.524c0-0.228,0.042-0.417,0.126-0.574c0.082-0.156,0.196-0.284,0.338-0.388
			c0.144-0.104,0.306-0.183,0.489-0.238c0.183-0.056,0.374-0.099,0.57-0.125c0.195-0.027,0.393-0.043,0.589-0.05
			c0.197-0.004,0.379-0.008,0.546-0.008c0-0.215-0.076-0.385-0.23-0.513c-0.153-0.126-0.335-0.189-0.546-0.189
			c-0.199,0-0.381,0.04-0.545,0.125s-0.312,0.197-0.44,0.344l-0.646-0.663c0.226-0.21,0.49-0.368,0.791-0.474
			c0.302-0.103,0.614-0.155,0.938-0.155c0.355,0,0.647,0.044,0.877,0.133c0.228,0.089,0.412,0.218,0.549,0.392
			c0.138,0.171,0.233,0.383,0.287,0.635c0.054,0.249,0.08,0.539,0.08,0.867v1.996h-1.114V52.771z M32.329,51.543
			c-0.093,0-0.206,0.006-0.343,0.014c-0.139,0.009-0.27,0.03-0.396,0.067c-0.127,0.039-0.234,0.095-0.323,0.171
			c-0.089,0.074-0.133,0.18-0.133,0.313c0,0.146,0.062,0.254,0.186,0.324s0.253,0.105,0.387,0.105c0.119,0,0.233-0.017,0.344-0.05
			c0.11-0.03,0.21-0.078,0.295-0.136c0.086-0.06,0.155-0.137,0.207-0.228c0.051-0.091,0.076-0.2,0.076-0.321v-0.261H32.329z"/>
		<path fill="#3E6DB2" d="M33.59,49.337h1.292l0.8,2.467h0.017l0.671-2.467h1.324l0.727,2.467h0.017l0.735-2.467h1.228l-1.397,3.928
			h-1.194l-0.817-2.608h-0.015l-0.729,2.608h-1.22L33.59,49.337z"/>
		<path fill="#3E6DB2" d="M42.809,52.771h-0.017c-0.134,0.21-0.312,0.361-0.536,0.452c-0.225,0.093-0.461,0.138-0.708,0.138
			c-0.182,0-0.358-0.025-0.528-0.077c-0.171-0.052-0.32-0.127-0.448-0.23c-0.13-0.101-0.233-0.229-0.308-0.379
			c-0.076-0.151-0.113-0.326-0.113-0.524c0-0.228,0.042-0.417,0.125-0.574c0.084-0.156,0.198-0.284,0.34-0.388
			c0.143-0.104,0.305-0.183,0.488-0.238s0.373-0.099,0.57-0.125c0.196-0.027,0.393-0.043,0.589-0.05
			c0.197-0.004,0.379-0.008,0.546-0.008c0-0.215-0.077-0.385-0.23-0.513c-0.153-0.126-0.335-0.189-0.546-0.189
			c-0.199,0-0.381,0.04-0.545,0.125s-0.312,0.197-0.439,0.344L40.4,49.871c0.227-0.21,0.491-0.368,0.792-0.474
			c0.302-0.103,0.615-0.155,0.938-0.155c0.354,0,0.647,0.044,0.877,0.133c0.228,0.089,0.412,0.218,0.549,0.392
			c0.138,0.171,0.233,0.383,0.287,0.635c0.054,0.249,0.08,0.539,0.08,0.867v1.996h-1.114V52.771z M42.51,51.543
			c-0.092,0-0.206,0.006-0.344,0.014c-0.137,0.009-0.269,0.03-0.396,0.067c-0.127,0.039-0.234,0.095-0.323,0.171
			c-0.089,0.074-0.133,0.18-0.133,0.313c0,0.146,0.062,0.254,0.186,0.324s0.253,0.105,0.388,0.105c0.118,0,0.232-0.017,0.343-0.05
			c0.11-0.03,0.209-0.078,0.295-0.136c0.087-0.06,0.155-0.137,0.206-0.228c0.052-0.091,0.077-0.2,0.077-0.321v-0.261H42.51z"/>
	</g>
	<g>
		<path fill="#3E6DB2" d="M53.345,40.812h1.259v5.72h-1.259V40.812z"/>
		<path fill="#3E6DB2" d="M55.413,42.605h1.162v0.533h0.016c0.037-0.076,0.092-0.15,0.161-0.227c0.07-0.074,0.155-0.143,0.252-0.201
			c0.097-0.06,0.206-0.108,0.33-0.146c0.124-0.038,0.259-0.057,0.404-0.057c0.308,0,0.556,0.046,0.743,0.142
			c0.19,0.094,0.336,0.225,0.441,0.392c0.104,0.167,0.176,0.363,0.213,0.591c0.038,0.225,0.058,0.471,0.058,0.734v2.165h-1.212
			v-1.924c0-0.113-0.004-0.229-0.013-0.352c-0.008-0.12-0.033-0.232-0.072-0.333c-0.041-0.104-0.104-0.188-0.186-0.252
			c-0.085-0.064-0.203-0.098-0.36-0.098s-0.282,0.029-0.38,0.086c-0.097,0.056-0.17,0.131-0.222,0.226s-0.086,0.201-0.102,0.318
			c-0.015,0.12-0.023,0.243-0.023,0.374v1.954h-1.211V42.605z"/>
		<path fill="#3E6DB2" d="M59.452,42.605h1.309l0.994,2.666h0.015l0.923-2.666h1.22l-1.552,3.927h-1.284L59.452,42.605z"/>
		<path fill="#3E6DB2" d="M67.888,45.854c-0.194,0.247-0.439,0.439-0.735,0.573c-0.297,0.135-0.604,0.202-0.922,0.202
			c-0.302,0-0.585-0.049-0.852-0.146c-0.267-0.097-0.498-0.234-0.695-0.416c-0.196-0.179-0.353-0.396-0.464-0.648
			c-0.113-0.254-0.171-0.537-0.171-0.849c0-0.313,0.058-0.597,0.171-0.849c0.111-0.253,0.268-0.471,0.464-0.65
			c0.197-0.18,0.429-0.319,0.695-0.416c0.267-0.098,0.55-0.146,0.852-0.146c0.28,0,0.535,0.048,0.765,0.146
			c0.229,0.097,0.423,0.236,0.582,0.416c0.158,0.18,0.279,0.397,0.366,0.65c0.087,0.252,0.13,0.535,0.13,0.849v0.38h-2.811
			c0.047,0.231,0.152,0.416,0.313,0.552c0.163,0.139,0.361,0.208,0.599,0.208c0.2,0,0.368-0.045,0.504-0.136
			c0.139-0.089,0.258-0.203,0.36-0.342L67.888,45.854z M66.861,44.124c0.005-0.205-0.062-0.38-0.202-0.524
			c-0.14-0.146-0.319-0.219-0.54-0.219c-0.137,0-0.254,0.021-0.357,0.064c-0.102,0.043-0.188,0.1-0.261,0.165
			c-0.074,0.068-0.13,0.146-0.172,0.235c-0.039,0.089-0.062,0.181-0.066,0.278H66.861z"/>
		<path fill="#3E6DB2" d="M70.843,43.761c-0.178-0.22-0.411-0.331-0.702-0.331c-0.104,0-0.202,0.023-0.299,0.072
			c-0.098,0.049-0.145,0.133-0.145,0.25c0,0.098,0.048,0.169,0.149,0.214c0.099,0.048,0.225,0.087,0.38,0.122
			c0.152,0.035,0.315,0.072,0.491,0.113c0.175,0.041,0.34,0.104,0.493,0.188c0.152,0.087,0.28,0.206,0.38,0.353
			c0.099,0.148,0.149,0.348,0.149,0.593c0,0.254-0.055,0.464-0.166,0.627c-0.109,0.165-0.251,0.297-0.424,0.396
			c-0.172,0.1-0.366,0.17-0.582,0.211c-0.215,0.041-0.428,0.061-0.639,0.061c-0.274,0-0.551-0.04-0.831-0.116
			c-0.281-0.078-0.519-0.218-0.712-0.418l0.736-0.815c0.111,0.141,0.238,0.247,0.375,0.319c0.138,0.074,0.298,0.11,0.481,0.11
			c0.139,0,0.267-0.021,0.38-0.062c0.111-0.041,0.169-0.114,0.169-0.222c0-0.103-0.05-0.181-0.149-0.232
			c-0.099-0.049-0.227-0.093-0.38-0.128c-0.152-0.035-0.317-0.072-0.493-0.113c-0.175-0.041-0.338-0.1-0.493-0.183
			c-0.152-0.08-0.278-0.194-0.38-0.342c-0.099-0.148-0.149-0.348-0.149-0.594c0-0.232,0.049-0.432,0.142-0.598
			c0.095-0.167,0.219-0.305,0.371-0.413c0.155-0.107,0.331-0.187,0.529-0.238c0.2-0.051,0.402-0.076,0.607-0.076
			c0.258,0,0.52,0.037,0.784,0.112c0.264,0.076,0.486,0.211,0.671,0.404L70.843,43.761z"/>
		<path fill="#3E6DB2" d="M74.852,43.574h-1.067v1.309c0,0.107,0.006,0.208,0.017,0.297c0.01,0.088,0.035,0.164,0.074,0.229
			c0.037,0.064,0.094,0.115,0.172,0.149c0.079,0.035,0.183,0.053,0.311,0.053c0.066,0,0.15-0.007,0.255-0.021
			c0.105-0.012,0.186-0.044,0.239-0.092v1.01c-0.135,0.049-0.275,0.08-0.42,0.097c-0.146,0.017-0.288,0.024-0.429,0.024
			c-0.204,0-0.393-0.022-0.565-0.063c-0.172-0.044-0.322-0.112-0.452-0.208c-0.13-0.095-0.23-0.215-0.303-0.366
			c-0.074-0.15-0.11-0.334-0.11-0.551v-1.866h-0.775v-0.969h0.775v-1.164h1.212v1.164h1.067V43.574z"/>
		<path fill="#3E6DB2" d="M75.197,41.369c0-0.193,0.069-0.36,0.207-0.497c0.137-0.138,0.303-0.206,0.497-0.206
			c0.193,0,0.36,0.067,0.496,0.206c0.139,0.136,0.205,0.303,0.205,0.497c0,0.194-0.066,0.359-0.205,0.496
			c-0.136,0.139-0.303,0.207-0.496,0.207c-0.194,0-0.36-0.068-0.497-0.207C75.267,41.729,75.197,41.563,75.197,41.369z
			 M75.294,42.605h1.214v3.927h-1.214V42.605z"/>
		<path fill="#3E6DB2" d="M77.193,42.605h1.211v0.631h0.017c0.13-0.244,0.283-0.426,0.46-0.546c0.18-0.122,0.402-0.182,0.671-0.182
			c0.07,0,0.141,0.002,0.211,0.008s0.134,0.016,0.193,0.032v1.107c-0.086-0.028-0.17-0.048-0.255-0.061
			c-0.082-0.014-0.17-0.021-0.261-0.021c-0.233,0-0.415,0.033-0.551,0.098c-0.135,0.064-0.238,0.154-0.311,0.271
			c-0.072,0.115-0.119,0.255-0.142,0.416c-0.021,0.16-0.033,0.338-0.033,0.532v1.641h-1.211V42.605z"/>
		<path fill="#3E6DB2" d="M53.054,50.404c0-0.458,0.075-0.873,0.23-1.245c0.152-0.371,0.366-0.686,0.641-0.948
			c0.275-0.262,0.601-0.461,0.979-0.602c0.377-0.141,0.788-0.21,1.236-0.21c0.447,0,0.858,0.069,1.236,0.21
			c0.377,0.141,0.702,0.34,0.977,0.602c0.276,0.263,0.489,0.577,0.643,0.948c0.154,0.372,0.229,0.787,0.229,1.245
			s-0.075,0.873-0.229,1.244c-0.153,0.372-0.366,0.688-0.643,0.948c-0.274,0.263-0.6,0.464-0.977,0.604
			c-0.378,0.141-0.789,0.209-1.236,0.209c-0.448,0-0.859-0.068-1.236-0.209c-0.378-0.14-0.703-0.341-0.979-0.604
			c-0.274-0.26-0.488-0.576-0.641-0.948C53.129,51.277,53.054,50.862,53.054,50.404z M54.362,50.404
			c0,0.271,0.041,0.517,0.125,0.739c0.082,0.224,0.203,0.417,0.36,0.582c0.154,0.163,0.344,0.292,0.561,0.383
			c0.219,0.094,0.462,0.139,0.731,0.139c0.271,0,0.513-0.045,0.731-0.139c0.218-0.091,0.405-0.22,0.561-0.383
			c0.156-0.165,0.277-0.358,0.36-0.582c0.083-0.223,0.124-0.469,0.124-0.739c0-0.265-0.041-0.508-0.124-0.735
			c-0.083-0.227-0.204-0.422-0.36-0.585c-0.155-0.165-0.343-0.292-0.561-0.385c-0.219-0.091-0.461-0.137-0.731-0.137
			c-0.27,0-0.513,0.046-0.731,0.137c-0.217,0.093-0.406,0.22-0.561,0.385c-0.157,0.163-0.278,0.358-0.36,0.585
			C54.403,49.896,54.362,50.14,54.362,50.404z"/>
		<path fill="#3E6DB2" d="M62.006,50.307h-1.067v1.309c0,0.109,0.006,0.208,0.017,0.297c0.01,0.088,0.035,0.166,0.072,0.229
			c0.039,0.064,0.096,0.115,0.174,0.149c0.079,0.035,0.183,0.053,0.311,0.053c0.066,0,0.15-0.007,0.255-0.021
			c0.105-0.012,0.186-0.044,0.239-0.092v1.01c-0.135,0.049-0.275,0.08-0.422,0.097c-0.145,0.017-0.286,0.024-0.427,0.024
			c-0.204,0-0.395-0.021-0.565-0.063c-0.174-0.044-0.324-0.112-0.452-0.208c-0.13-0.093-0.23-0.215-0.305-0.366
			c-0.072-0.15-0.108-0.334-0.108-0.549v-1.868h-0.775v-0.97h0.775v-1.162h1.212v1.162h1.067V50.307z"/>
		<path fill="#3E6DB2" d="M64.695,50.307h-1.066v1.309c0,0.109,0.004,0.208,0.017,0.297c0.01,0.088,0.035,0.166,0.072,0.229
			c0.037,0.064,0.096,0.115,0.172,0.149c0.079,0.035,0.183,0.053,0.312,0.053c0.064,0,0.15-0.007,0.253-0.021
			c0.105-0.012,0.186-0.044,0.24-0.092v1.01c-0.136,0.049-0.276,0.08-0.421,0.097c-0.146,0.017-0.288,0.024-0.429,0.024
			c-0.204,0-0.393-0.021-0.565-0.063c-0.172-0.044-0.322-0.112-0.452-0.208c-0.128-0.093-0.23-0.215-0.303-0.366
			c-0.072-0.15-0.109-0.334-0.109-0.549v-1.868h-0.774v-0.97h0.774v-1.162h1.213v1.162h1.066V50.307z"/>
		<path fill="#3E6DB2" d="M67.482,52.771h-0.017c-0.134,0.21-0.312,0.361-0.537,0.452c-0.224,0.093-0.46,0.138-0.707,0.138
			c-0.182,0-0.358-0.025-0.529-0.077c-0.17-0.052-0.319-0.127-0.447-0.23c-0.13-0.101-0.233-0.229-0.308-0.379
			c-0.076-0.151-0.113-0.326-0.113-0.524c0-0.228,0.042-0.417,0.125-0.574c0.084-0.156,0.198-0.284,0.34-0.388
			c0.143-0.104,0.305-0.183,0.488-0.238s0.373-0.099,0.571-0.125c0.195-0.027,0.392-0.043,0.588-0.05
			c0.198-0.004,0.379-0.008,0.546-0.008c0-0.215-0.077-0.385-0.23-0.513c-0.152-0.126-0.335-0.189-0.546-0.189
			c-0.198,0-0.381,0.04-0.546,0.125c-0.163,0.085-0.311,0.197-0.438,0.344l-0.646-0.663c0.225-0.21,0.489-0.368,0.79-0.474
			c0.302-0.103,0.615-0.155,0.938-0.155c0.354,0,0.646,0.044,0.876,0.133c0.229,0.089,0.413,0.218,0.551,0.392
			c0.137,0.171,0.232,0.383,0.286,0.635c0.054,0.249,0.08,0.539,0.08,0.867v1.996h-1.114V52.771z M67.184,51.543
			c-0.092,0-0.206,0.006-0.344,0.014c-0.137,0.009-0.269,0.03-0.396,0.067c-0.126,0.039-0.233,0.095-0.322,0.171
			c-0.089,0.074-0.133,0.18-0.133,0.313c0,0.146,0.062,0.254,0.186,0.324s0.253,0.105,0.388,0.105c0.118,0,0.232-0.017,0.344-0.05
			c0.109-0.03,0.208-0.078,0.294-0.136c0.087-0.06,0.156-0.137,0.206-0.228c0.052-0.091,0.077-0.2,0.077-0.321v-0.261H67.184z"/>
		<path fill="#3E6DB2" d="M68.444,49.337h1.292l0.801,2.467h0.017l0.671-2.467h1.322l0.729,2.467h0.017l0.735-2.467h1.228
			l-1.397,3.928h-1.196l-0.815-2.608h-0.017l-0.727,2.608h-1.22L68.444,49.337z"/>
		<path fill="#3E6DB2" d="M77.662,52.771h-0.015c-0.136,0.21-0.314,0.361-0.537,0.452c-0.226,0.093-0.46,0.138-0.707,0.138
			c-0.184,0-0.36-0.025-0.529-0.077c-0.17-0.052-0.319-0.127-0.449-0.23c-0.13-0.101-0.231-0.229-0.308-0.379
			c-0.074-0.151-0.111-0.326-0.111-0.524c0-0.228,0.04-0.417,0.125-0.574c0.082-0.156,0.196-0.284,0.338-0.388
			c0.143-0.104,0.307-0.183,0.488-0.238c0.184-0.056,0.375-0.099,0.571-0.125c0.195-0.027,0.392-0.043,0.59-0.05
			c0.196-0.004,0.379-0.008,0.544-0.008c0-0.215-0.075-0.385-0.23-0.513c-0.152-0.126-0.335-0.189-0.544-0.189
			c-0.2,0-0.383,0.04-0.546,0.125c-0.165,0.085-0.311,0.197-0.44,0.344l-0.646-0.663c0.225-0.21,0.489-0.368,0.79-0.474
			c0.304-0.103,0.615-0.155,0.939-0.155c0.354,0,0.646,0.044,0.876,0.133c0.229,0.089,0.413,0.218,0.549,0.392
			c0.139,0.171,0.232,0.383,0.288,0.635c0.054,0.249,0.08,0.539,0.08,0.867v1.996h-1.116V52.771z M77.365,51.543
			c-0.094,0-0.208,0.006-0.344,0.014c-0.139,0.009-0.271,0.03-0.396,0.067c-0.126,0.039-0.235,0.095-0.324,0.171
			c-0.089,0.074-0.133,0.18-0.133,0.313c0,0.146,0.062,0.254,0.186,0.324s0.254,0.105,0.388,0.105c0.12,0,0.234-0.017,0.344-0.05
			c0.109-0.03,0.21-0.078,0.294-0.136c0.087-0.06,0.156-0.137,0.208-0.228s0.075-0.2,0.075-0.321v-0.261H77.365z"/>
	</g>
	<line fill="none" stroke="#3E6DB2" stroke-miterlimit="10" x1="48.639" y1="41.844" x2="48.639" y2="53.45"/>
</g>
<g>
</g>
<g>
</g>
<g>
</g>
<g>
</g>
<g>
</g>
<g>
</g>
</svg>
