<?xml version="1.0" encoding="utf-8"?>
<!-- Generator: Adobe Illustrator 16.0.0, SVG Export Plug-In . SVG Version: 6.00 Build 0)  -->
<!DOCTYPE svg PUBLIC "-//W3C//DTD SVG 1.1//EN" "http://www.w3.org/Graphics/SVG/1.1/DTD/svg11.dtd">
<svg version="1.1" xmlns="http://www.w3.org/2000/svg" xmlns:xlink="http://www.w3.org/1999/xlink" x="0px" y="0px"
	 width="480.271px" height="220.774px" viewBox="0 0 480.271 220.774" enable-background="new 0 0 480.271 220.774"
	 xml:space="preserve">
<g id="Layer_2" display="none">
	
		<radialGradient id="SVGID_1_" cx="403.2256" cy="291.5698" r="363.6627" gradientTransform="matrix(1.0005 0 0 1.0005 -7.8936 12.8336)" gradientUnits="userSpaceOnUse">
		<stop  offset="0" style="stop-color:#26405E"/>
		<stop  offset="1" style="stop-color:#181F2E"/>
	</radialGradient>
	<rect x="-9.651" y="-9.949" display="inline" fill="url(#SVGID_1_)" width="810.369" height="628.999"/>
</g>
<g id="Layer_3" display="none">
</g>
<g id="Healthcare" display="none">
</g>
<g id="Our_Work" display="none">
</g>
<g id="LOGO">
	<g>
		<g>
			<g>
				<path fill="#FFFFFF" d="M111.285-2.07C49.748-2.07-0.137,47.814-0.137,109.352s49.885,111.423,111.422,111.423
					c61.536,0,111.42-49.886,111.42-111.423S172.82-2.07,111.285-2.07z M110.904,214.646c-58.437,0-105.81-47.373-105.81-105.81
					S52.467,3.027,110.904,3.027S216.712,50.4,216.712,108.837S169.341,214.646,110.904,214.646z"/>
				<path fill="#FFFFFF" d="M39.483,135.729v5.714h19.712c0,0,30.854,4.382,30.854-32.091S67.765,76.308,39.483,76.308
					c0,45.994,0,45.994,0,45.994h5.714V81.164h19.569c0,0,15.569,0.857,19.283,18.568c3.714,17.713-3.428,35.996-23.997,35.996
					H39.483z"/>
				<path fill="#FFFFFF" d="M90.048,76.222c0,0,3.714,3.038,5.047,4.942h18.855c0,0,15.808,0.381,15.808,13.713
					s-8.381,15.808-14.475,15.808c-6.094,0-18.475,0-18.475,0v30.923h5.714v-25.4h12.951c0,0,16.38-0.57,19.426-12.95
					c3.047-12.38-1.144-27.035-18.665-27.035S90.048,76.222,90.048,76.222z"/>
				<path fill="#FFFFFF" d="M180.039,79.26l-2.857,4.38c0,0-27.806-8.761-29.711,7.809c-1.905,16.569,21.139,11.427,28.758,15.998
					s11.809,15.999,6.476,24.95c-5.333,8.95-23.235,15.615-41.519,4.951l3.428-4c0,0,27.234,9.904,34.09-5.332
					c3.238-7.428-3.619-17.9-16.76-18.664c-13.142-0.762-19.806-4.189-20.759-18.094C140.233,77.354,161.755,70.88,180.039,79.26z"
					/>
			</g>
			<g>
				<path fill="#FFFFFF" d="M301.177,84.607c-9.487-26.162-34.787-18.4-34.787-18.4c-26.161,8.912-30.474,38.812-26.448,56.924
					c4.023,18.113,18.687,24.725,32.198,20.125C285.653,138.656,310.665,110.77,301.177,84.607z M272.32,138.779
					c-11.219,4.066-23.394-1.778-26.736-17.786c-3.34-16.009,0.239-42.435,21.963-50.312c0,0,21.006-6.861,28.883,16.262
					C304.307,110.066,283.539,134.714,272.32,138.779z"/>
				<path fill="#FFFFFF" d="M303.273,117.669c0,0,2.217-2.443,1.354-3.881c-0.861-1.438,0-7.763,6.182-1.581
					c6.181,6.181,9.487,7.906,4.888,14.087c-4.601,6.181-8.481,12.089-7.332,13.734c1.151,1.646,11.069-11.291,12.938-8.847
					c1.869,2.443,2.444,2.156,0,4.743c-2.443,2.588-11.643,14.663-17.25,10.062c-5.605-4.601,5.464-19.406,7.188-21.706
					s1.437-3.019,0-4.168c-1.438-1.15-1.438-3.163-5.606,2.875c-4.169,6.037-10.206,14.805-12.506,10.78
					S296.027,130.463,303.273,117.669z"/>
				<path fill="#FFFFFF" d="M467.539,138.273c-4.791,4.408-5.75-2.684-6.324-5.175c-0.576-2.492,0.191-5.367,2.301-8.05
					c2.107-2.684,7.09-11.117,10.924-19.55s9.773-28.941,2.107-30.858c-7.666-1.916-12.074,16.483-17.824,36.416
					s-1.918,21.658-1.918,21.658s0,0-2.299,0c-2.301,0-6.996,5.51-9.439,8.241s1.006-10.78,1.725-12.075
					c0.719-1.293,2.014-2.73-0.432-4.887c-2.443-2.156-15.094,12.649-16.818,13.943c-1.725,1.293-9.773,3.594,2.301-11.787
					s16.1-10.206,16.674-8.481c0.576,1.725,0.863,2.731,2.588,2.013c1.727-0.719,3.738-5.894-2.012-8.783
					c-10.637-5.333-26.736,18.989-27.025,20.714c-0.287,1.726-5.605,9.774-7.617,7.903c-2.588-3.021,4.455-18.541,1.438-22.135
					c-3.02-3.593-15.094,11.5-17.682,15.381c-2.587,3.882,1.869-8.624,4.6-14.805c2.73-6.182,1.006-6.469-1.582-7.044
					c-2.586-0.575-7.329,15.956-7.904,17.968c-0.575,2.013-7.763,7.619-10.351,9.775c-2.586,2.156,3.882-20.987,5.319-23.862
					c1.438-2.874-2.156-3.881-2.156-3.881c-1.489-0.764-2.16,1.483-2.16,1.483s-4.217,9.967-5.56,16.676
					c-1.342,6.707-1.915,11.883,1.343,14.758s12.074-5.941,12.074-5.941c-0.767,5.75,2.492,5.941,4.025,4.982
					c1.531-0.959,7.666-9.008,11.691-13.607c4.023-4.6,1.916,0.957,1.916,4.408c0,3.449-2.684,11.117,4.217,11.691
					c6.898,0.575,7.857-9.008,9.391-4.792c4.6,10.541,14.758-3.45,15.908-4.792c1.15-1.341-0.959,6.517,0.191,9.024
					c3.26,5.573,9.201,0.177,11.883-2.315c2.684-2.491,3.834-8.816,6.326-2.973c2.49,5.844,7.092,5.273,9.582,5.273
					s7.48-4.791,9.588-7.283c2.109-2.492,1.533-3.642-0.191-5.75C474.631,129.648,472.33,133.864,467.539,138.273z M474.627,80.965
					c2.49,0.574-7.859,32.391-11.309,34.69C463.318,115.655,472.133,80.389,474.627,80.965z"/>
				<circle fill="#FFFFFF" cx="338.164" cy="98.215" r="4.217"/>
				<circle fill="#FFFFFF" cx="390.065" cy="98.215" r="4.217"/>
				<path fill="#FFFFFF" d="M374.918,132.332c-1.149-1.582-2.874-1.438-5.749,1.437s-2.013,0.288-1.006-2.3
					c1.006-2.588,1.868-3.594,0-5.895c-1.869-2.299-3.737-0.43-5.319,1.15c-1.581,1.582-12.075,8.625-14.949,10.494
					c-2.875,1.869-5.031-1.294-3.45-5.175c5.606-11.356,20.843-20.843,21.562-19.55c0.718,1.294-5.319,3.45-3.307,6.324
					c2.012,2.875,5.175-0.718,7.044-2.73c1.868-2.012,6.181-6.469,1.293-9.057c-9.918-5.318-29.611,19.119-30.475,21.994
					c-0.861,2.875-5.605,6.469-9.199,9.056c-3.593,2.587,0.862-9.344,3.019-16.388c2.156-7.043,3.881-8.049,1.294-10.492
					c-2.588-2.444-4.312,1.58-4.312,1.58c-1.293,4.888-8.193,25.3-4.888,29.612c3.307,4.312,8.481-0.862,10.206-2.365
					s0.719-2.954,5.606,1.358s14.949-4.312,18.112-7.043c3.162-2.731,1.294,3.019,0.719,5.685c-0.575,2.667-6.038,7.253-8.453,9.84
					c-2.416,2.588-17.997,14.95-10.809,21.706c7.187,6.756,18.543-17.537,19.837-21.119c1.293-3.58-0.72-1.306,6.324-8.492
					C375.063,134.775,376.07,133.912,374.918,132.332z M345.643,166.256c-1.725-1.535,8.241-9.967,8.241-9.967
					S347.368,167.789,345.643,166.256z"/>
			</g>
		</g>
	</g>
</g>
<g id="Layer_8">
</g>
<g id="_x31__-_SOON" display="none">
</g>
<g id="COMING_SOON_2" display="none">
</g>
</svg>
