<?xml version="1.0" encoding="utf-8"?>
<!-- Generator: Adobe Illustrator 16.0.0, SVG Export Plug-In . SVG Version: 6.00 Build 0)  -->
<!DOCTYPE svg PUBLIC "-//W3C//DTD SVG 1.1//EN" "http://www.w3.org/Graphics/SVG/1.1/DTD/svg11.dtd">
<svg version="1.1" id="Layer_1" xmlns="http://www.w3.org/2000/svg" xmlns:xlink="http://www.w3.org/1999/xlink" x="0px" y="0px"
	 width="245.013px" height="100.113px" viewBox="0 0 245.013 100.113" enable-background="new 0 0 245.013 100.113"
	 xml:space="preserve">
<g>
	<g>
		<g>
			<path fill="#FFFFFF" d="M50.057,0C22.412,0,0,22.407,0,50.057c0,27.645,22.412,50.057,50.057,50.057
				c27.647,0,50.057-22.412,50.057-50.057C100.113,22.407,77.704,0,50.057,0z M49.889,97.359c-26.255,0-47.537-21.282-47.537-47.537
				c0-26.25,21.282-47.537,47.537-47.537c26.25,0,47.532,21.287,47.532,47.537C97.421,76.077,76.139,97.359,49.889,97.359z"/>
			<path fill="#FFFFFF" d="M17.8,61.907v2.564h8.857c0,0,13.858,1.971,13.858-14.415c0-16.385-10.01-14.848-22.715-14.848
				c0,20.666,0,20.666,0,20.666h2.568V37.393h8.788c0,0,6.999,0.381,8.666,8.343c1.667,7.955-1.54,16.172-10.781,16.172H17.8z"/>
			<path fill="#FFFFFF" d="M40.515,35.168c0,0,1.669,1.369,2.27,2.225h8.47c0,0,7.101,0.168,7.101,6.164
				c0,5.986-3.764,7.096-6.502,7.096c-2.739,0-8.3,0-8.3,0v13.896h2.568V53.136h5.818c0,0,7.36-0.26,8.727-5.817
				c1.367-5.559-0.512-12.15-8.386-12.15C44.409,35.168,40.515,35.168,40.515,35.168z"/>
			<path fill="#FFFFFF" d="M80.946,36.537l-1.285,1.965c0,0-12.491-3.935-13.347,3.512c-0.855,7.442,9.496,5.131,12.919,7.188
				c3.423,2.051,5.307,7.187,2.909,11.208c-2.395,4.021-10.438,7.015-18.653,2.224l1.542-1.801c0,0,12.234,4.453,15.314-2.393
				c1.456-3.334-1.624-8.043-7.528-8.384c-5.905-0.341-8.897-1.883-9.328-8.129C63.062,35.682,72.73,32.771,80.946,36.537z"/>
		</g>
		<g>
			<path fill="#FFFFFF" d="M145.11,39.103c-5.293-14.593-19.406-10.262-19.406-10.262c-14.593,4.968-17,21.648-14.753,31.748
				c2.245,10.108,10.422,13.793,17.96,11.229C136.45,69.257,150.399,53.696,145.11,39.103z M129.008,69.317
				c-6.256,2.271-13.049-0.992-14.915-9.92c-1.86-8.929,0.137-23.669,12.252-28.067c0,0,11.719-3.823,16.115,9.076
				C146.856,53.304,135.268,67.053,129.008,69.317z"/>
			<path fill="#FFFFFF" d="M146.276,57.544c0,0,1.236-1.359,0.756-2.163c-0.479-0.804,0-4.332,3.449-0.886
				c3.447,3.451,5.293,4.413,2.729,7.859c-2.568,3.451-4.734,6.744-4.094,7.666c0.645,0.916,6.176-6.302,7.219-4.938
				c1.045,1.363,1.361,1.201,0,2.646c-1.361,1.441-6.496,8.175-9.625,5.615c-3.129-2.571,3.051-10.827,4.014-12.109
				c0.961-1.289,0.801-1.686,0-2.327c-0.803-0.642-0.803-1.761-3.131,1.604c-2.322,3.37-5.691,8.261-6.975,6.017
				C139.336,64.278,142.237,64.681,146.276,57.544z"/>
			<path fill="#FFFFFF" d="M237.911,69.038c-2.668,2.463-3.211-1.496-3.527-2.887c-0.32-1.389,0.105-2.992,1.281-4.489
				c1.178-1.497,3.959-6.2,6.096-10.903c2.137-4.708,5.453-16.146,1.176-17.215c-4.273-1.069-6.736,9.193-9.943,20.314
				c-3.205,11.112-1.07,12.08-1.07,12.08s0,0-1.281,0c-1.283,0-3.902,3.074-5.27,4.596c-1.359,1.527,0.562-6.012,0.967-6.734
				c0.4-0.723,1.121-1.521-0.24-2.729c-1.365-1.201-8.42,7.061-9.383,7.778c-0.961,0.723-5.453,2.005,1.285-6.571
				c6.732-8.582,8.977-5.696,9.301-4.734c0.32,0.963,0.48,1.522,1.439,1.125c0.965-0.402,2.088-3.288-1.119-4.901
				c-5.936-2.978-14.912,10.593-15.074,11.555s-3.131,5.451-4.252,4.413c-1.447-1.689,2.486-10.349,0.801-12.349
				c-1.686-2.006-8.42,6.413-9.859,8.577c-1.445,2.168,1.041-4.816,2.562-8.257c1.525-3.446,0.562-3.608-0.881-3.93
				c-1.443-0.32-4.09,8.897-4.41,10.022c-0.324,1.12-4.33,4.25-5.775,5.457c-1.439,1.201,2.164-11.713,2.969-13.316
				c0.801-1.604-1.205-2.163-1.205-2.163c-0.828-0.427-1.203,0.825-1.203,0.825s-2.352,5.562-3.105,9.305
				c-0.742,3.741-1.061,6.627,0.754,8.236c1.816,1.598,6.736-3.319,6.736-3.319c-0.428,3.206,1.387,3.319,2.242,2.779
				c0.861-0.534,4.279-5.024,6.529-7.59c2.242-2.565,1.062,0.53,1.062,2.459c0,1.924-1.494,6.2,2.355,6.521
				c3.848,0.32,4.379-5.024,5.236-2.672c2.566,5.879,8.232-1.925,8.875-2.673c0.643-0.753-0.537,3.634,0.105,5.034
				c1.818,3.109,5.133,0.097,6.627-1.293c1.502-1.39,2.143-4.917,3.527-1.654c1.393,3.258,3.961,2.938,5.348,2.938
				c1.391,0,4.174-2.673,5.35-4.062s0.857-2.031-0.107-3.207C241.866,64.228,240.581,66.579,237.911,69.038z M241.864,37.066
				c1.391,0.321-4.383,18.07-6.307,19.358C235.557,56.425,240.475,36.751,241.864,37.066z"/>
			<circle fill="#FFFFFF" cx="165.741" cy="46.692" r="2.352"/>
			<circle fill="#FFFFFF" cx="194.693" cy="46.692" r="2.353"/>
			<path fill="#FFFFFF" d="M186.245,65.724c-0.643-0.885-1.602-0.804-3.207,0.805c-1.605,1.604-1.121,0.158-0.561-1.283
				c0.561-1.445,1.043-2.01,0-3.293c-1.045-1.283-2.084-0.239-2.971,0.642c-0.883,0.886-6.736,4.815-8.334,5.858
				c-1.605,1.039-2.812-0.723-1.93-2.891c3.131-6.332,11.629-11.626,12.031-10.903c0.398,0.723-2.971,1.924-1.848,3.527
				c1.121,1.604,2.891-0.401,3.93-1.522c1.045-1.119,3.451-3.608,0.723-5.054c-5.533-2.963-16.518,10.669-17,12.272
				c-0.482,1.598-3.127,3.608-5.131,5.049c-2.002,1.445,0.482-5.212,1.686-9.142s2.164-4.489,0.721-5.854
				c-1.445-1.359-2.406,0.886-2.406,0.886c-0.723,2.723-4.568,14.109-2.727,16.518c1.848,2.402,4.73-0.484,5.693-1.318
				c0.961-0.84,0.4-1.649,3.129,0.753c2.725,2.407,8.336-2.402,10.102-3.925c1.764-1.526,0.721,1.68,0.4,3.172
				c-0.318,1.486-3.365,4.041-4.717,5.486c-1.344,1.441-10.037,8.338-6.029,12.11c4.014,3.767,10.346-9.788,11.066-11.784
				c0.723-2-0.402-0.728,3.529-4.738C186.325,67.089,186.885,66.604,186.245,65.724z M169.915,84.649
				c-0.961-0.855,4.596-5.563,4.596-5.563S170.877,85.505,169.915,84.649z"/>
		</g>
	</g>
</g>
<g>
</g>
<g>
</g>
<g>
</g>
<g>
</g>
<g>
</g>
<g>
</g>
</svg>
