<?xml version="1.0" encoding="utf-8"?>
<!-- Generator: Adobe Illustrator 16.0.0, SVG Export Plug-In . SVG Version: 6.00 Build 0)  -->
<!DOCTYPE svg PUBLIC "-//W3C//DTD SVG 1.1//EN" "http://www.w3.org/Graphics/SVG/1.1/DTD/svg11.dtd">
<svg version="1.1" id="Layer_1" xmlns="http://www.w3.org/2000/svg" xmlns:xlink="http://www.w3.org/1999/xlink" x="0px" y="0px"
	 width="100px" height="59.75px" viewBox="0 0 100 59.75" enable-background="new 0 0 100 59.75" xml:space="preserve">
<g>
	<g>
		<path fill="#FFFFFF" d="M5.455,56.561l0.329,0.173c-0.108,0.212-0.233,0.384-0.375,0.514c-0.141,0.13-0.301,0.229-0.478,0.297
			c-0.178,0.068-0.377,0.103-0.601,0.103c-0.496,0-0.883-0.162-1.163-0.487c-0.279-0.324-0.419-0.692-0.419-1.101
			c0-0.386,0.118-0.729,0.354-1.031c0.3-0.383,0.702-0.575,1.205-0.575c0.518,0,0.932,0.197,1.241,0.589
			c0.22,0.278,0.332,0.623,0.335,1.039H3.151c0.007,0.353,0.12,0.642,0.338,0.867c0.218,0.227,0.488,0.34,0.809,0.34
			c0.154,0,0.305-0.027,0.451-0.081s0.271-0.126,0.373-0.215S5.335,56.76,5.455,56.561z M5.455,55.742
			c-0.053-0.208-0.128-0.375-0.228-0.499c-0.1-0.126-0.232-0.226-0.396-0.302c-0.164-0.076-0.336-0.115-0.517-0.115
			c-0.298,0-0.555,0.096-0.769,0.287c-0.156,0.141-0.275,0.35-0.355,0.629H5.455z"/>
		<path fill="#FFFFFF" d="M9.417,53.357v4.211H9.032v-0.521c-0.164,0.198-0.348,0.349-0.552,0.449c-0.204,0.1-0.427,0.15-0.668,0.15
			c-0.43,0-0.797-0.155-1.102-0.468c-0.304-0.312-0.456-0.691-0.456-1.138c0-0.438,0.153-0.812,0.46-1.122s0.676-0.467,1.108-0.467
			c0.25,0,0.475,0.054,0.677,0.16c0.202,0.105,0.379,0.265,0.532,0.478v-1.732H9.417z M7.854,54.829
			c-0.217,0-0.418,0.055-0.602,0.16c-0.184,0.107-0.33,0.258-0.439,0.451S6.65,55.838,6.65,56.054c0,0.214,0.055,0.418,0.164,0.614
			c0.11,0.194,0.257,0.346,0.442,0.455c0.185,0.108,0.383,0.164,0.595,0.164c0.213,0,0.417-0.055,0.608-0.162
			c0.191-0.108,0.339-0.255,0.442-0.438s0.155-0.391,0.155-0.621c0-0.353-0.116-0.646-0.347-0.881
			C8.478,54.947,8.193,54.829,7.854,54.829z"/>
		<path fill="#FFFFFF" d="M10.023,54.53h0.391v1.419c0,0.347,0.018,0.584,0.056,0.715c0.056,0.186,0.163,0.332,0.32,0.44
			s0.345,0.163,0.563,0.163c0.218,0,0.403-0.053,0.555-0.159c0.152-0.104,0.257-0.243,0.315-0.414
			c0.039-0.117,0.059-0.366,0.059-0.745V54.53h0.399v1.491c0,0.419-0.049,0.734-0.146,0.947c-0.098,0.212-0.245,0.378-0.441,0.498
			c-0.196,0.12-0.442,0.18-0.738,0.18s-0.543-0.06-0.741-0.18c-0.198-0.12-0.346-0.288-0.444-0.503
			c-0.098-0.215-0.146-0.539-0.146-0.97V54.53z"/>
		<path fill="#FFFFFF" d="M16.269,55.162l-0.31,0.192c-0.268-0.355-0.633-0.533-1.096-0.533c-0.37,0-0.677,0.118-0.922,0.357
			c-0.244,0.237-0.367,0.526-0.367,0.866c0,0.222,0.056,0.43,0.168,0.625c0.113,0.195,0.267,0.347,0.463,0.455
			c0.196,0.107,0.416,0.162,0.66,0.162c0.446,0,0.811-0.179,1.093-0.534l0.31,0.204c-0.146,0.219-0.34,0.388-0.585,0.509
			c-0.245,0.12-0.523,0.181-0.836,0.181c-0.48,0-0.878-0.152-1.195-0.458c-0.316-0.305-0.475-0.677-0.475-1.113
			c0-0.295,0.074-0.567,0.222-0.82c0.148-0.252,0.351-0.448,0.61-0.591c0.259-0.142,0.548-0.212,0.868-0.212
			c0.201,0,0.396,0.031,0.583,0.093c0.187,0.061,0.346,0.141,0.476,0.24C16.067,54.884,16.178,55.01,16.269,55.162z"/>
		<path fill="#FFFFFF" d="M19.818,54.53v3.038h-0.385v-0.521c-0.164,0.198-0.348,0.349-0.551,0.449
			c-0.204,0.1-0.427,0.15-0.668,0.15c-0.431,0-0.797-0.155-1.102-0.468c-0.305-0.312-0.457-0.691-0.457-1.138
			c0-0.438,0.153-0.812,0.46-1.122s0.677-0.467,1.108-0.467c0.25,0,0.476,0.054,0.677,0.16c0.202,0.105,0.379,0.265,0.532,0.478
			v-0.56H19.818z M18.256,54.829c-0.218,0-0.418,0.055-0.603,0.16c-0.184,0.107-0.331,0.258-0.439,0.451
			c-0.109,0.193-0.164,0.397-0.164,0.613c0,0.214,0.055,0.418,0.165,0.614c0.109,0.194,0.257,0.346,0.441,0.455
			c0.185,0.108,0.384,0.164,0.596,0.164c0.214,0,0.416-0.055,0.608-0.162c0.192-0.108,0.339-0.255,0.442-0.438
			c0.103-0.184,0.154-0.391,0.154-0.621c0-0.353-0.115-0.646-0.347-0.881C18.879,54.947,18.594,54.829,18.256,54.829z"/>
		<path fill="#FFFFFF" d="M20.81,53.402H21.2v1.128h0.62v0.339H21.2v2.699H20.81v-2.699h-0.533V54.53h0.533V53.402z"/>
		<path fill="#FFFFFF" d="M22.313,53.28c0.088,0,0.165,0.031,0.228,0.095c0.063,0.062,0.094,0.14,0.094,0.229
			c0,0.086-0.031,0.161-0.094,0.226c-0.063,0.063-0.14,0.095-0.228,0.095c-0.087,0-0.162-0.031-0.225-0.095
			c-0.063-0.064-0.095-0.14-0.095-0.226c0-0.09,0.031-0.167,0.095-0.229C22.151,53.312,22.226,53.28,22.313,53.28z M22.12,54.53
			h0.391v3.038H22.12V54.53z"/>
		<path fill="#FFFFFF" d="M24.532,54.452c0.468,0,0.856,0.17,1.164,0.508c0.279,0.31,0.419,0.676,0.419,1.099
			c0,0.424-0.148,0.794-0.443,1.111s-0.675,0.477-1.14,0.477c-0.466,0-0.847-0.159-1.143-0.477s-0.443-0.688-0.443-1.111
			c0-0.422,0.14-0.787,0.42-1.096C23.673,54.622,24.062,54.452,24.532,54.452z M24.53,54.835c-0.325,0-0.604,0.12-0.838,0.359
			c-0.233,0.24-0.35,0.531-0.35,0.872c0,0.22,0.053,0.424,0.16,0.614c0.106,0.189,0.25,0.336,0.432,0.439
			c0.182,0.103,0.38,0.155,0.597,0.155s0.416-0.053,0.597-0.155c0.181-0.104,0.325-0.25,0.431-0.439
			c0.106-0.19,0.16-0.395,0.16-0.614c0-0.341-0.117-0.632-0.352-0.872C25.132,54.955,24.854,54.835,24.53,54.835z"/>
		<path fill="#FFFFFF" d="M26.609,54.53H27v0.545c0.157-0.208,0.33-0.364,0.52-0.468c0.19-0.103,0.396-0.155,0.62-0.155
			c0.228,0,0.428,0.058,0.604,0.174c0.176,0.114,0.306,0.271,0.39,0.466s0.126,0.5,0.126,0.913v1.563h-0.392v-1.449
			c0-0.35-0.014-0.583-0.043-0.701c-0.045-0.2-0.132-0.352-0.26-0.454c-0.128-0.101-0.296-0.151-0.502-0.151
			c-0.237,0-0.448,0.078-0.635,0.234s-0.311,0.351-0.371,0.581C27.019,55.779,27,56.055,27,56.455v1.113h-0.391V54.53z"/>
		<path fill="#FFFFFF" d="M33.377,55.469c0.169,0,0.313,0.06,0.433,0.179c0.12,0.12,0.18,0.265,0.18,0.434s-0.06,0.314-0.18,0.435
			c-0.12,0.119-0.264,0.179-0.433,0.179s-0.313-0.06-0.433-0.179c-0.12-0.12-0.179-0.266-0.179-0.435s0.06-0.313,0.179-0.434
			C33.064,55.528,33.208,55.469,33.377,55.469z"/>
		<path fill="#FFFFFF" d="M37.187,54.53h0.402l0.932,2.206l0.969-2.206h0.071l0.976,2.206l0.949-2.206h0.406l-1.32,3.038h-0.073
			l-0.971-2.175l-0.971,2.175h-0.073L37.187,54.53z"/>
		<path fill="#FFFFFF" d="M43.559,54.452c0.467,0,0.855,0.17,1.163,0.508c0.279,0.31,0.42,0.676,0.42,1.099
			c0,0.424-0.148,0.794-0.444,1.111c-0.294,0.317-0.675,0.477-1.139,0.477c-0.467,0-0.848-0.159-1.144-0.477
			c-0.295-0.317-0.442-0.688-0.442-1.111c0-0.422,0.139-0.787,0.419-1.096C42.699,54.622,43.088,54.452,43.559,54.452z
			 M43.557,54.835c-0.326,0-0.604,0.12-0.838,0.359c-0.233,0.24-0.351,0.531-0.351,0.872c0,0.22,0.054,0.424,0.16,0.614
			c0.106,0.189,0.25,0.336,0.432,0.439c0.181,0.103,0.379,0.155,0.597,0.155c0.216,0,0.416-0.053,0.597-0.155
			c0.181-0.104,0.324-0.25,0.431-0.439c0.107-0.19,0.16-0.395,0.16-0.614c0-0.341-0.117-0.632-0.352-0.872
			C44.158,54.955,43.88,54.835,43.557,54.835z"/>
		<path fill="#FFFFFF" d="M45.488,54.53h0.4v0.444c0.119-0.175,0.244-0.307,0.376-0.393c0.133-0.086,0.271-0.13,0.414-0.13
			c0.107,0,0.223,0.034,0.346,0.104l-0.204,0.328c-0.082-0.035-0.151-0.053-0.207-0.053c-0.13,0-0.256,0.053-0.376,0.16
			c-0.121,0.108-0.213,0.273-0.276,0.498c-0.048,0.174-0.072,0.523-0.072,1.05v1.028h-0.4V54.53z"/>
		<path fill="#FFFFFF" d="M47.125,53.357h0.391v2.399l1.408-1.227h0.574l-1.669,1.449l1.767,1.589h-0.55l-1.53-1.367v1.367h-0.391
			V53.357z"/>
		<path fill="#FFFFFF" d="M51.296,54.863l-0.252,0.259c-0.208-0.203-0.413-0.305-0.613-0.305c-0.127,0-0.235,0.043-0.325,0.126
			c-0.091,0.084-0.136,0.182-0.136,0.294c0,0.099,0.037,0.192,0.112,0.281c0.074,0.092,0.231,0.198,0.47,0.321
			c0.291,0.151,0.488,0.296,0.593,0.436c0.102,0.142,0.153,0.301,0.153,0.478c0,0.249-0.088,0.461-0.263,0.634
			c-0.175,0.174-0.394,0.26-0.658,0.26c-0.174,0-0.341-0.038-0.501-0.114c-0.159-0.076-0.292-0.181-0.396-0.316l0.247-0.279
			c0.199,0.227,0.411,0.339,0.634,0.339c0.157,0,0.291-0.051,0.401-0.15c0.109-0.102,0.165-0.22,0.165-0.355
			c0-0.111-0.036-0.211-0.109-0.299c-0.073-0.085-0.237-0.193-0.492-0.323c-0.274-0.141-0.461-0.281-0.56-0.42
			c-0.099-0.137-0.148-0.294-0.148-0.471c0-0.23,0.078-0.423,0.235-0.575c0.158-0.153,0.357-0.229,0.597-0.229
			C50.73,54.452,51.012,54.589,51.296,54.863z"/>
		<path fill="#FFFFFF" d="M51.76,53.357h0.391v1.718c0.157-0.208,0.331-0.364,0.521-0.468c0.189-0.103,0.395-0.155,0.617-0.155
			c0.227,0,0.429,0.058,0.604,0.174c0.177,0.114,0.306,0.27,0.39,0.464s0.126,0.5,0.126,0.915v1.563h-0.391v-1.449
			c0-0.35-0.014-0.583-0.042-0.701c-0.048-0.2-0.137-0.352-0.264-0.454c-0.127-0.101-0.294-0.151-0.502-0.151
			c-0.235,0-0.448,0.078-0.635,0.234s-0.311,0.351-0.369,0.581c-0.038,0.148-0.056,0.424-0.056,0.827v1.113H51.76V53.357z"/>
		<path fill="#FFFFFF" d="M56.454,54.452c0.469,0,0.857,0.17,1.165,0.508c0.279,0.31,0.419,0.676,0.419,1.099
			c0,0.424-0.148,0.794-0.443,1.111c-0.296,0.317-0.675,0.477-1.141,0.477c-0.465,0-0.846-0.159-1.141-0.477
			c-0.297-0.317-0.445-0.688-0.445-1.111c0-0.422,0.142-0.787,0.421-1.096C55.597,54.622,55.985,54.452,56.454,54.452z
			 M56.453,54.835c-0.324,0-0.604,0.12-0.836,0.359c-0.234,0.24-0.352,0.531-0.352,0.872c0,0.22,0.053,0.424,0.16,0.614
			c0.106,0.189,0.25,0.336,0.431,0.439c0.182,0.103,0.381,0.155,0.597,0.155c0.217,0,0.416-0.053,0.597-0.155
			c0.182-0.104,0.325-0.25,0.433-0.439c0.105-0.19,0.16-0.395,0.16-0.614c0-0.341-0.119-0.632-0.353-0.872
			C57.056,54.955,56.776,54.835,56.453,54.835z"/>
		<path fill="#FFFFFF" d="M58.539,54.53h0.389v0.56c0.155-0.213,0.333-0.372,0.534-0.478c0.201-0.106,0.425-0.16,0.672-0.16
			c0.433,0,0.801,0.156,1.107,0.467c0.308,0.311,0.461,0.685,0.461,1.122c0,0.446-0.152,0.826-0.456,1.138
			c-0.304,0.312-0.671,0.468-1.102,0.468c-0.24,0-0.464-0.051-0.666-0.15c-0.202-0.101-0.387-0.251-0.551-0.449v1.633h-0.389V54.53z
			 M60.103,54.829c-0.339,0-0.623,0.118-0.854,0.355c-0.232,0.235-0.347,0.528-0.347,0.881c0,0.23,0.052,0.438,0.154,0.621
			s0.25,0.33,0.442,0.438c0.192,0.107,0.396,0.162,0.608,0.162c0.21,0,0.407-0.056,0.593-0.164c0.185-0.109,0.332-0.261,0.441-0.455
			c0.109-0.196,0.165-0.4,0.165-0.614c0-0.216-0.055-0.42-0.163-0.613c-0.109-0.193-0.256-0.344-0.439-0.451
			C60.52,54.884,60.319,54.829,60.103,54.829z"/>
		<path fill="#FFFFFF" d="M63.731,54.863l-0.251,0.259c-0.209-0.203-0.414-0.305-0.613-0.305c-0.126,0-0.235,0.043-0.326,0.126
			c-0.09,0.084-0.136,0.182-0.136,0.294c0,0.099,0.037,0.192,0.112,0.281c0.074,0.092,0.231,0.198,0.47,0.321
			c0.291,0.151,0.489,0.296,0.594,0.436c0.102,0.142,0.154,0.301,0.154,0.478c0,0.249-0.088,0.461-0.264,0.634
			c-0.176,0.174-0.395,0.26-0.656,0.26c-0.176,0-0.344-0.038-0.503-0.114s-0.292-0.181-0.396-0.316l0.245-0.279
			c0.2,0.227,0.412,0.339,0.636,0.339c0.156,0,0.29-0.051,0.4-0.15c0.11-0.102,0.165-0.22,0.165-0.355
			c0-0.111-0.036-0.211-0.109-0.299c-0.072-0.085-0.237-0.193-0.491-0.323c-0.275-0.141-0.462-0.281-0.562-0.42
			c-0.098-0.137-0.147-0.294-0.147-0.471c0-0.23,0.078-0.423,0.236-0.575c0.158-0.153,0.356-0.229,0.598-0.229
			C63.167,54.452,63.447,54.589,63.731,54.863z"/>
		<path fill="#FFFFFF" d="M67.705,55.469c0.17,0,0.313,0.06,0.433,0.179c0.12,0.12,0.181,0.265,0.181,0.434
			s-0.061,0.314-0.181,0.435c-0.119,0.119-0.263,0.179-0.433,0.179c-0.169,0-0.312-0.06-0.433-0.179
			c-0.12-0.12-0.179-0.266-0.179-0.435s0.059-0.313,0.179-0.434C67.393,55.528,67.536,55.469,67.705,55.469z"/>
		<path fill="#FFFFFF" d="M71.922,54.53h0.391v0.524c0.136-0.192,0.275-0.334,0.419-0.424c0.197-0.12,0.407-0.179,0.624-0.179
			c0.146,0,0.287,0.029,0.419,0.087s0.241,0.134,0.324,0.229c0.085,0.097,0.157,0.234,0.218,0.413
			c0.131-0.238,0.293-0.42,0.487-0.544c0.196-0.124,0.405-0.186,0.63-0.186c0.21,0,0.396,0.054,0.556,0.16
			c0.161,0.105,0.279,0.254,0.358,0.442c0.077,0.191,0.116,0.476,0.116,0.855v1.658h-0.398V55.91c0-0.326-0.023-0.55-0.069-0.672
			c-0.047-0.122-0.126-0.22-0.238-0.295c-0.113-0.073-0.246-0.111-0.403-0.111c-0.188,0-0.361,0.056-0.518,0.167
			c-0.157,0.111-0.271,0.261-0.344,0.447s-0.109,0.497-0.109,0.934v1.188h-0.391v-1.556c0-0.366-0.023-0.615-0.068-0.747
			c-0.045-0.131-0.125-0.235-0.239-0.315c-0.112-0.078-0.247-0.118-0.404-0.118c-0.18,0-0.349,0.054-0.507,0.163
			s-0.273,0.256-0.349,0.439c-0.075,0.185-0.113,0.467-0.113,0.847v1.287h-0.391V54.53z"/>
		<path fill="#FFFFFF" d="M80.086,54.53v3.038H79.7v-0.521c-0.163,0.198-0.348,0.349-0.551,0.449c-0.205,0.1-0.428,0.15-0.668,0.15
			c-0.431,0-0.799-0.155-1.103-0.468c-0.305-0.312-0.456-0.691-0.456-1.138c0-0.438,0.153-0.812,0.46-1.122
			c0.308-0.311,0.677-0.467,1.108-0.467c0.25,0,0.476,0.054,0.677,0.16c0.203,0.105,0.38,0.265,0.532,0.478v-0.56H80.086z
			 M78.523,54.829c-0.217,0-0.418,0.055-0.603,0.16c-0.185,0.107-0.331,0.258-0.438,0.451c-0.109,0.193-0.163,0.397-0.163,0.613
			c0,0.214,0.054,0.418,0.164,0.614c0.109,0.194,0.257,0.346,0.442,0.455c0.184,0.108,0.384,0.164,0.595,0.164
			c0.215,0,0.417-0.055,0.609-0.162c0.19-0.108,0.337-0.255,0.441-0.438c0.103-0.184,0.154-0.391,0.154-0.621
			c0-0.353-0.115-0.646-0.347-0.881C79.147,54.947,78.861,54.829,78.523,54.829z"/>
		<path fill="#FFFFFF" d="M80.588,54.53h0.399v0.444c0.12-0.175,0.246-0.307,0.377-0.393c0.133-0.086,0.271-0.13,0.414-0.13
			c0.107,0,0.224,0.034,0.346,0.104l-0.203,0.328c-0.082-0.035-0.151-0.053-0.207-0.053c-0.131,0-0.256,0.053-0.377,0.16
			c-0.121,0.108-0.214,0.273-0.276,0.498c-0.048,0.174-0.073,0.523-0.073,1.05v1.028h-0.399V54.53z"/>
		<path fill="#FFFFFF" d="M82.226,53.357h0.391v2.399l1.408-1.227h0.573l-1.67,1.449l1.769,1.589h-0.552l-1.528-1.367v1.367h-0.391
			V53.357z"/>
		<path fill="#FFFFFF" d="M87.428,56.561l0.328,0.173c-0.107,0.212-0.232,0.384-0.374,0.514s-0.301,0.229-0.478,0.297
			c-0.178,0.068-0.377,0.103-0.601,0.103c-0.496,0-0.884-0.162-1.163-0.487c-0.279-0.324-0.419-0.692-0.419-1.101
			c0-0.386,0.118-0.729,0.354-1.031c0.3-0.383,0.702-0.575,1.205-0.575c0.518,0,0.931,0.197,1.239,0.589
			c0.221,0.278,0.333,0.623,0.336,1.039h-2.732c0.007,0.353,0.12,0.642,0.338,0.867c0.218,0.227,0.486,0.34,0.809,0.34
			c0.154,0,0.305-0.027,0.45-0.081c0.146-0.054,0.271-0.126,0.373-0.215C87.197,56.902,87.308,56.76,87.428,56.561z M87.428,55.742
			c-0.054-0.208-0.129-0.375-0.229-0.499c-0.1-0.126-0.231-0.226-0.396-0.302s-0.338-0.115-0.517-0.115
			c-0.299,0-0.555,0.096-0.77,0.287c-0.156,0.141-0.274,0.35-0.354,0.629H87.428z"/>
		<path fill="#FFFFFF" d="M88.697,53.402h0.391v1.128h0.619v0.339h-0.619v2.699h-0.391v-2.699h-0.533V54.53h0.533V53.402z"/>
		<path fill="#FFFFFF" d="M90.202,53.28c0.089,0,0.164,0.031,0.228,0.095c0.062,0.062,0.093,0.14,0.093,0.229
			c0,0.086-0.03,0.161-0.093,0.226c-0.063,0.063-0.139,0.095-0.228,0.095c-0.088,0-0.163-0.031-0.226-0.095
			c-0.062-0.064-0.095-0.14-0.095-0.226c0-0.09,0.032-0.167,0.095-0.229C90.039,53.312,90.114,53.28,90.202,53.28z M90.007,54.53
			h0.391v3.038h-0.391V54.53z"/>
		<path fill="#FFFFFF" d="M90.981,54.53h0.392v0.545c0.156-0.208,0.329-0.364,0.519-0.468c0.19-0.103,0.397-0.155,0.621-0.155
			c0.227,0,0.428,0.058,0.604,0.174c0.177,0.114,0.306,0.271,0.391,0.466c0.083,0.195,0.125,0.5,0.125,0.913v1.563H93.24v-1.449
			c0-0.35-0.014-0.583-0.044-0.701c-0.045-0.2-0.131-0.352-0.26-0.454c-0.128-0.101-0.296-0.151-0.503-0.151
			c-0.236,0-0.448,0.078-0.636,0.234c-0.187,0.156-0.309,0.351-0.369,0.581c-0.037,0.151-0.056,0.427-0.056,0.827v1.113h-0.392
			V54.53z"/>
		<path fill="#FFFFFF" d="M96.859,54.53h0.391v2.421c0,0.426-0.038,0.738-0.112,0.936c-0.102,0.279-0.279,0.494-0.532,0.646
			c-0.254,0.15-0.558,0.226-0.913,0.226c-0.261,0-0.495-0.037-0.702-0.111c-0.208-0.073-0.377-0.172-0.507-0.297
			c-0.13-0.123-0.251-0.305-0.359-0.544h0.424c0.115,0.201,0.265,0.35,0.447,0.447c0.183,0.096,0.409,0.145,0.68,0.145
			c0.266,0,0.49-0.05,0.675-0.148c0.184-0.1,0.314-0.225,0.392-0.374c0.08-0.15,0.118-0.394,0.118-0.729V56.99
			c-0.146,0.187-0.326,0.329-0.54,0.429c-0.212,0.1-0.438,0.149-0.677,0.149c-0.278,0-0.541-0.069-0.787-0.208
			s-0.436-0.325-0.57-0.56c-0.134-0.234-0.2-0.492-0.2-0.774c0-0.28,0.069-0.542,0.208-0.785c0.141-0.243,0.334-0.435,0.58-0.577
			c0.247-0.142,0.508-0.212,0.782-0.212c0.227,0,0.438,0.048,0.637,0.141c0.195,0.095,0.385,0.249,0.567,0.465V54.53z
			 M95.707,54.829c-0.223,0-0.428,0.055-0.618,0.16c-0.189,0.107-0.338,0.256-0.446,0.444c-0.108,0.189-0.162,0.394-0.162,0.613
			c0,0.333,0.111,0.608,0.335,0.826s0.514,0.327,0.869,0.327c0.359,0,0.647-0.108,0.866-0.324s0.328-0.5,0.328-0.853
			c0-0.229-0.05-0.432-0.15-0.612c-0.101-0.179-0.243-0.321-0.427-0.426C96.117,54.882,95.919,54.829,95.707,54.829z"/>
	</g>
	<g>
		<g>
			<path fill="#FFFFFF" d="M23.701,0.992c-12.567,0-22.755,10.187-22.755,22.755c0,12.566,10.188,22.755,22.755,22.755
				c12.566,0,22.754-10.188,22.754-22.755C46.455,11.179,36.267,0.992,23.701,0.992z M23.623,45.25
				c-11.934,0-21.609-9.675-21.609-21.609c0-11.934,9.675-21.608,21.609-21.608c11.934,0,21.608,9.674,21.608,21.608
				C45.23,35.575,35.556,45.25,23.623,45.25z"/>
			<path fill="#FFFFFF" d="M9.037,29.134V30.3h4.025c0,0,6.301,0.895,6.301-6.553c0-7.449-4.55-6.749-10.326-6.749
				c0,9.393,0,9.393,0,9.393h1.167V17.99H14.2c0,0,3.18,0.175,3.938,3.792c0.758,3.617-0.7,7.352-4.9,7.352H9.037z"/>
			<path fill="#FFFFFF" d="M19.363,16.98c0,0,0.758,0.621,1.031,1.01h3.85c0,0,3.229,0.078,3.229,2.8s-1.711,3.229-2.956,3.229
				s-3.773,0-3.773,0v6.315h1.167v-5.188h2.646c0,0,3.345-0.117,3.967-2.646c0.623-2.527-0.233-5.521-3.812-5.521
				S19.363,16.98,19.363,16.98z"/>
			<path fill="#FFFFFF" d="M37.741,17.601l-0.583,0.895c0,0-5.678-1.789-6.068,1.595c-0.389,3.384,4.317,2.333,5.873,3.267
				c1.556,0.934,2.412,3.268,1.323,5.096c-1.089,1.827-4.745,3.189-8.479,1.011l0.7-0.817c0,0,5.562,2.022,6.962-1.089
				c0.661-1.517-0.739-3.656-3.422-3.811c-2.684-0.156-4.045-0.855-4.24-3.695C29.612,17.212,34.007,15.89,37.741,17.601z"/>
		</g>
		<g>
			<path fill="#FFFFFF" d="M62.479,18.693c-1.938-5.343-7.104-3.757-7.104-3.757c-5.343,1.82-6.223,7.926-5.401,11.625
				c0.822,3.699,3.816,5.049,6.575,4.11C59.309,29.731,64.418,24.036,62.479,18.693z M56.587,29.756
				c-2.292,0.83-4.778-0.363-5.461-3.632c-0.681-3.269,0.049-8.667,4.486-10.275c0,0,4.289-1.401,5.897,3.322
				C63.118,23.893,58.877,28.926,56.587,29.756z"/>
			<path fill="#FFFFFF" d="M62.908,25.445c0,0,0.452-0.5,0.276-0.793c-0.177-0.293,0-1.585,1.262-0.323s1.938,1.615,0.998,2.876
				c-0.939,1.263-1.731,2.469-1.496,2.806c0.234,0.336,2.26-2.306,2.642-1.807s0.499,0.44,0,0.969
				c-0.499,0.528-2.378,2.994-3.523,2.054c-1.144-0.939,1.116-3.963,1.469-4.433c0.352-0.47,0.293-0.616,0-0.851
				c-0.294-0.235-0.294-0.646-1.146,0.586c-0.852,1.233-2.084,3.024-2.555,2.202C60.366,27.911,61.428,28.058,62.908,25.445z"/>
			<path fill="#FFFFFF" d="M96.455,29.653c-0.979,0.9-1.175-0.548-1.293-1.056c-0.117-0.509,0.039-1.097,0.47-1.644
				c0.432-0.548,1.448-2.271,2.231-3.993c0.782-1.722,1.996-5.911,0.431-6.302c-1.566-0.391-2.466,3.366-3.64,7.438
				c-1.176,4.07-0.392,4.423-0.392,4.423s0,0-0.471,0c-0.47,0-1.428,1.125-1.927,1.682c-0.499,0.559,0.205-2.201,0.352-2.465
				c0.147-0.264,0.411-0.557-0.088-0.999c-0.498-0.44-3.083,2.584-3.435,2.848c-0.353,0.264-1.997,0.734,0.469-2.407
				c2.468-3.142,3.289-2.084,3.406-1.732c0.118,0.352,0.176,0.558,0.527,0.411c0.354-0.146,0.765-1.204-0.409-1.793
				c-2.173-1.089-5.462,3.877-5.521,4.23c-0.058,0.352-1.144,1.996-1.555,1.614c-0.529-0.617,0.91-3.786,0.293-4.521
				c-0.617-0.734-3.082,2.349-3.61,3.141c-0.528,0.793,0.382-1.761,0.939-3.023s0.206-1.321-0.323-1.438
				c-0.528-0.118-1.496,3.259-1.614,3.669c-0.117,0.411-1.585,1.556-2.114,1.997c-0.527,0.44,0.793-4.286,1.087-4.874
				c0.293-0.586-0.44-0.792-0.44-0.792c-0.304-0.156-0.442,0.303-0.442,0.303s-0.86,2.035-1.134,3.406
				c-0.274,1.369-0.392,2.426,0.273,3.014c0.665,0.586,2.466-1.214,2.466-1.214c-0.156,1.175,0.509,1.214,0.822,1.018
				c0.312-0.196,1.564-1.84,2.387-2.779c0.823-0.938,0.393,0.196,0.393,0.901c0,0.704-0.548,2.271,0.861,2.387
				c1.408,0.118,1.604-1.84,1.917-0.979c0.94,2.153,3.014-0.704,3.248-0.978c0.235-0.273-0.194,1.331,0.04,1.843
				c0.665,1.138,1.879,0.036,2.427-0.473s0.783-1.8,1.291-0.607c0.509,1.193,1.449,1.077,1.957,1.077
				c0.509,0,1.528-0.979,1.959-1.488c0.43-0.509,0.312-0.743-0.039-1.175C97.901,27.892,97.434,28.753,96.455,29.653z
				 M97.901,17.949c0.51,0.117-1.604,6.615-2.31,7.084C95.592,25.034,97.393,17.832,97.901,17.949z"/>
			<circle fill="#FFFFFF" cx="70.033" cy="21.472" r="0.861"/>
			<circle fill="#FFFFFF" cx="80.631" cy="21.472" r="0.861"/>
			<path fill="#FFFFFF" d="M77.539,28.439c-0.234-0.323-0.587-0.294-1.173,0.293c-0.589,0.587-0.412,0.059-0.206-0.469
				c0.206-0.529,0.38-0.734,0-1.204c-0.383-0.47-0.764-0.088-1.087,0.235c-0.322,0.323-2.465,1.761-3.054,2.143
				c-0.587,0.381-1.026-0.264-0.704-1.057c1.146-2.32,4.257-4.256,4.403-3.993c0.146,0.264-1.085,0.705-0.675,1.292
				c0.411,0.587,1.057-0.147,1.438-0.559c0.383-0.411,1.263-1.32,0.265-1.849c-2.025-1.086-6.048,3.905-6.224,4.491
				c-0.176,0.587-1.145,1.321-1.878,1.85c-0.734,0.529,0.176-1.908,0.616-3.347c0.44-1.438,0.794-1.644,0.265-2.143
				c-0.528-0.5-0.881,0.322-0.881,0.322c-0.264,0.999-1.673,5.167-0.998,6.048c0.676,0.88,1.731-0.176,2.084-0.483
				c0.352-0.307,0.146-0.604,1.146,0.277c0.997,0.88,3.052-0.881,3.698-1.439c0.646-0.557,0.265,0.617,0.146,1.162
				c-0.117,0.544-1.232,1.481-1.727,2.009c-0.493,0.528-3.675,3.053-2.206,4.433c1.467,1.378,3.786-3.582,4.051-4.313
				c0.264-0.731-0.147-0.267,1.291-1.734C77.568,28.938,77.774,28.763,77.539,28.439z M71.561,35.367
				c-0.354-0.313,1.683-2.035,1.683-2.035S71.913,35.681,71.561,35.367z"/>
		</g>
	</g>
</g>
<g>
</g>
<g>
</g>
<g>
</g>
<g>
</g>
<g>
</g>
<g>
</g>
</svg>
