<?xml version="1.0" encoding="utf-8"?>
<!-- Generator: Adobe Illustrator 16.0.0, SVG Export Plug-In . SVG Version: 6.00 Build 0)  -->
<!DOCTYPE svg PUBLIC "-//W3C//DTD SVG 1.1//EN" "http://www.w3.org/Graphics/SVG/1.1/DTD/svg11.dtd">
<svg version="1.1" id="Layer_1" xmlns="http://www.w3.org/2000/svg" xmlns:xlink="http://www.w3.org/1999/xlink" x="0px" y="0px"
	 width="482.364px" height="291px" viewBox="0 0 482.364 291" enable-background="new 0 0 482.364 291" xml:space="preserve">
<g>
	<g>
		<path fill="#272525" d="M9.782,262.162h1.969l4.56,10.801l4.746-10.801h0.347l4.778,10.801l4.647-10.801h1.99l-6.462,14.875
			h-0.355l-4.756-10.65l-4.754,10.65h-0.356L9.782,262.162z"/>
		<path fill="#272525" d="M40.982,261.779c2.292,0,4.19,0.83,5.697,2.488c1.37,1.513,2.055,3.304,2.055,5.373
			c0,2.078-0.724,3.895-2.171,5.448c-1.447,1.554-3.308,2.331-5.581,2.331c-2.283,0-4.147-0.777-5.595-2.331
			c-1.447-1.554-2.171-3.37-2.171-5.448c0-2.06,0.685-3.846,2.055-5.359C36.777,262.613,38.681,261.779,40.982,261.779z
			 M40.975,263.652c-1.592,0-2.959,0.588-4.103,1.764s-1.715,2.598-1.715,4.266c0,1.076,0.261,2.078,0.782,3.008
			s1.226,1.647,2.112,2.153c0.888,0.506,1.861,0.759,2.923,0.759c1.061,0,2.035-0.253,2.923-0.759
			c0.887-0.506,1.591-1.224,2.112-2.153s0.782-1.932,0.782-3.008c0-1.668-0.574-3.09-1.722-4.266
			C43.922,264.24,42.557,263.652,40.975,263.652z"/>
		<path fill="#272525" d="M50.43,262.162h1.955v2.174c0.583-0.856,1.198-1.497,1.846-1.921s1.321-0.636,2.023-0.636
			c0.528,0,1.094,0.169,1.695,0.506l-0.998,1.613c-0.401-0.173-0.738-0.26-1.012-0.26c-0.638,0-1.253,0.262-1.846,0.786
			c-0.593,0.524-1.044,1.338-1.354,2.44c-0.237,0.848-0.355,2.562-0.355,5.141v5.031H50.43V262.162z"/>
		<path fill="#272525" d="M58.443,256.419h1.914v11.746l6.896-6.003h2.811l-8.176,7.096l8.654,7.779h-2.694l-7.491-6.697v6.697
			h-1.914V256.419z"/>
		<path fill="#272525" d="M78.87,263.789l-1.23,1.271c-1.023-0.993-2.024-1.49-3.002-1.49c-0.621,0-1.154,0.205-1.597,0.615
			c-0.443,0.41-0.665,0.889-0.665,1.436c0,0.483,0.183,0.943,0.548,1.381c0.365,0.447,1.133,0.971,2.302,1.572
			c1.425,0.738,2.394,1.449,2.904,2.133c0.503,0.693,0.754,1.472,0.754,2.338c0,1.222-0.429,2.256-1.287,3.104
			s-1.931,1.271-3.218,1.271c-0.858,0-1.678-0.187-2.458-0.561s-1.427-0.889-1.938-1.545l1.203-1.367
			c0.978,1.103,2.015,1.654,3.11,1.654c0.768,0,1.421-0.246,1.96-0.738s0.809-1.071,0.809-1.736c0-0.547-0.178-1.034-0.534-1.463
			c-0.356-0.419-1.16-0.948-2.411-1.586c-1.343-0.692-2.257-1.376-2.74-2.051c-0.484-0.674-0.727-1.444-0.727-2.311
			c0-1.13,0.386-2.069,1.157-2.816c0.771-0.747,1.746-1.121,2.924-1.121C76.103,261.779,77.482,262.449,78.87,263.789z"/>
		<path fill="#272525" d="M81.141,256.419h1.914v8.408c0.774-1.021,1.627-1.784,2.557-2.29s1.937-0.759,3.021-0.759
			c1.112,0,2.099,0.283,2.96,0.848c0.861,0.565,1.497,1.324,1.907,2.276c0.41,0.953,0.615,2.445,0.615,4.478v7.656h-1.914v-7.096
			c0-1.713-0.068-2.857-0.205-3.432c-0.237-0.984-0.668-1.725-1.292-2.222c-0.624-0.497-1.442-0.745-2.454-0.745
			c-1.157,0-2.194,0.383-3.11,1.148s-1.52,1.714-1.812,2.844c-0.183,0.729-0.273,2.078-0.273,4.047v5.455h-1.914V256.419z"/>
		<path fill="#272525" d="M104.138,261.779c2.292,0,4.19,0.83,5.697,2.488c1.37,1.513,2.055,3.304,2.055,5.373
			c0,2.078-0.724,3.895-2.171,5.448c-1.447,1.554-3.308,2.331-5.581,2.331c-2.283,0-4.147-0.777-5.595-2.331
			c-1.447-1.554-2.171-3.37-2.171-5.448c0-2.06,0.685-3.846,2.055-5.359C99.933,262.613,101.837,261.779,104.138,261.779z
			 M104.131,263.652c-1.592,0-2.959,0.588-4.103,1.764s-1.715,2.598-1.715,4.266c0,1.076,0.261,2.078,0.782,3.008
			s1.226,1.647,2.112,2.153c0.888,0.506,1.861,0.759,2.923,0.759c1.061,0,2.035-0.253,2.923-0.759
			c0.887-0.506,1.591-1.224,2.112-2.153s0.782-1.932,0.782-3.008c0-1.668-0.574-3.09-1.722-4.266
			C107.079,264.24,105.713,263.652,104.131,263.652z"/>
		<path fill="#272525" d="M114.338,262.162h1.914v2.734c0.756-1.039,1.625-1.818,2.608-2.338s2.081-0.779,3.292-0.779
			c2.112,0,3.92,0.761,5.422,2.283c1.503,1.522,2.254,3.354,2.254,5.496c0,2.188-0.744,4.045-2.233,5.571
			c-1.488,1.527-3.284,2.29-5.388,2.29c-1.184,0-2.272-0.246-3.265-0.738s-1.89-1.226-2.69-2.201v7.998h-1.914V262.162z
			 M121.995,263.625c-1.655,0-3.049,0.578-4.181,1.734c-1.133,1.156-1.698,2.595-1.698,4.315c0,1.129,0.252,2.144,0.757,3.045
			s1.228,1.616,2.169,2.144c0.941,0.528,1.935,0.792,2.98,0.792c1.027,0,1.993-0.266,2.898-0.799s1.625-1.277,2.162-2.233
			c0.536-0.956,0.805-1.957,0.805-3.004c0-1.056-0.267-2.058-0.798-3.004c-0.532-0.947-1.248-1.682-2.148-2.206
			C124.041,263.886,123.058,263.625,121.995,263.625z"/>
		<path fill="#272525" d="M139.769,263.789l-1.23,1.271c-1.023-0.993-2.024-1.49-3.002-1.49c-0.621,0-1.154,0.205-1.597,0.615
			c-0.443,0.41-0.665,0.889-0.665,1.436c0,0.483,0.183,0.943,0.548,1.381c0.365,0.447,1.133,0.971,2.302,1.572
			c1.425,0.738,2.394,1.449,2.904,2.133c0.503,0.693,0.754,1.472,0.754,2.338c0,1.222-0.429,2.256-1.287,3.104
			s-1.931,1.271-3.218,1.271c-0.858,0-1.678-0.187-2.458-0.561s-1.427-0.889-1.938-1.545l1.203-1.367
			c0.978,1.103,2.015,1.654,3.11,1.654c0.768,0,1.421-0.246,1.96-0.738s0.809-1.071,0.809-1.736c0-0.547-0.178-1.034-0.534-1.463
			c-0.356-0.419-1.16-0.948-2.411-1.586c-1.343-0.692-2.257-1.376-2.74-2.051c-0.484-0.674-0.727-1.444-0.727-2.311
			c0-1.13,0.386-2.069,1.157-2.816c0.771-0.747,1.746-1.121,2.924-1.121C137.002,261.779,138.381,262.449,139.769,263.789z"/>
		<path fill="#272525" d="M159.225,266.753c0.827,0,1.533,0.293,2.119,0.879s0.879,1.292,0.879,2.119
			c0,0.833-0.293,1.543-0.879,2.129s-1.292,0.879-2.119,0.879s-1.533-0.293-2.119-0.879s-0.879-1.295-0.879-2.129
			c0-0.827,0.293-1.533,0.879-2.119S158.398,266.753,159.225,266.753z"/>
		<path fill="#272525" d="M179.873,262.162h1.914v2.57c0.666-0.948,1.351-1.641,2.053-2.078c0.968-0.583,1.985-0.875,3.053-0.875
			c0.721,0,1.405,0.142,2.053,0.424c0.648,0.283,1.178,0.659,1.588,1.128c0.411,0.47,0.767,1.142,1.068,2.017
			c0.636-1.167,1.432-2.053,2.387-2.659c0.955-0.606,1.982-0.909,3.082-0.909c1.027,0,1.935,0.26,2.722,0.779
			c0.786,0.52,1.37,1.244,1.752,2.174s0.573,2.324,0.573,4.184v8.121h-1.955v-8.121c0-1.595-0.113-2.691-0.341-3.288
			c-0.227-0.597-0.615-1.078-1.165-1.442c-0.55-0.364-1.206-0.547-1.969-0.547c-0.927,0-1.773,0.273-2.542,0.82
			c-0.768,0.547-1.328,1.276-1.683,2.188c-0.354,0.912-0.531,2.434-0.531,4.566v5.824h-1.914v-7.615
			c0-1.795-0.111-3.015-0.335-3.657s-0.613-1.157-1.169-1.545c-0.556-0.387-1.217-0.581-1.982-0.581c-0.884,0-1.711,0.267-2.481,0.8
			s-1.34,1.251-1.709,2.153s-0.554,2.283-0.554,4.143v6.303h-1.914V262.162z"/>
		<path fill="#272525" d="M219.85,262.162v14.875h-1.887v-2.557c-0.802,0.976-1.702,1.709-2.7,2.201s-2.09,0.738-3.274,0.738
			c-2.105,0-3.903-0.763-5.394-2.29c-1.49-1.526-2.235-3.384-2.235-5.571c0-2.142,0.752-3.974,2.256-5.496
			c1.504-1.522,3.313-2.283,5.428-2.283c1.222,0,2.326,0.26,3.315,0.779s1.857,1.299,2.604,2.338v-2.734H219.85z M212.201,263.625
			c-1.065,0-2.049,0.262-2.95,0.785c-0.901,0.524-1.618,1.259-2.15,2.206s-0.799,1.948-0.799,3.004c0,1.047,0.269,2.049,0.806,3.004
			c0.537,0.956,1.259,1.7,2.164,2.233c0.906,0.533,1.878,0.799,2.916,0.799c1.047,0,2.039-0.264,2.978-0.792
			c0.938-0.528,1.658-1.243,2.164-2.144c0.505-0.901,0.758-1.917,0.758-3.045c0-1.721-0.566-3.159-1.7-4.315
			S213.858,263.625,212.201,263.625z"/>
		<path fill="#272525" d="M222.313,262.162h1.955v2.174c0.583-0.856,1.198-1.497,1.846-1.921s1.321-0.636,2.023-0.636
			c0.528,0,1.094,0.169,1.695,0.506l-0.998,1.613c-0.401-0.173-0.738-0.26-1.012-0.26c-0.638,0-1.253,0.262-1.846,0.786
			c-0.593,0.524-1.044,1.338-1.354,2.44c-0.237,0.848-0.355,2.562-0.355,5.141v5.031h-1.955V262.162z"/>
		<path fill="#272525" d="M230.326,256.419h1.914v11.746l6.896-6.003h2.811l-8.176,7.096l8.654,7.779h-2.694l-7.491-6.697v6.697
			h-1.914V256.419z"/>
		<path fill="#272525" d="M255.797,272.101l1.613,0.848c-0.529,1.039-1.141,1.878-1.834,2.516c-0.693,0.638-1.473,1.124-2.34,1.456
			s-1.848,0.499-2.942,0.499c-2.427,0-4.324-0.795-5.692-2.386c-1.368-1.59-2.053-3.388-2.053-5.394
			c0-1.887,0.579-3.568,1.738-5.045c1.468-1.877,3.435-2.816,5.897-2.816c2.536,0,4.562,0.962,6.075,2.885
			c1.077,1.358,1.624,3.054,1.643,5.086h-13.385c0.036,1.728,0.589,3.144,1.656,4.249s2.387,1.657,3.956,1.657
			c0.757,0,1.494-0.132,2.211-0.395c0.716-0.263,1.325-0.613,1.827-1.049C254.67,273.776,255.213,273.073,255.797,272.101z
			 M255.797,268.095c-0.256-1.021-0.627-1.836-1.116-2.447c-0.488-0.61-1.134-1.103-1.937-1.477
			c-0.803-0.374-1.647-0.561-2.532-0.561c-1.46,0-2.715,0.47-3.765,1.408c-0.767,0.684-1.346,1.709-1.738,3.076H255.797z"/>
		<path fill="#272525" d="M262.019,256.638h1.914v5.523h3.035v1.654h-3.035v13.221h-1.914v-13.221h-2.611v-1.654h2.611V256.638z"/>
		<path fill="#272525" d="M269.382,256.037c0.436,0,0.808,0.155,1.116,0.465c0.309,0.31,0.463,0.684,0.463,1.121
			c0,0.429-0.154,0.798-0.463,1.107c-0.309,0.31-0.681,0.465-1.116,0.465c-0.427,0-0.794-0.155-1.103-0.465
			c-0.309-0.31-0.463-0.679-0.463-1.107c0-0.438,0.154-0.811,0.463-1.121C268.588,256.192,268.956,256.037,269.382,256.037z
			 M268.432,262.162h1.914v14.875h-1.914V262.162z"/>
		<path fill="#272525" d="M273.205,262.162h1.914v2.666c0.766-1.021,1.613-1.784,2.543-2.29s1.941-0.759,3.035-0.759
			c1.112,0,2.099,0.283,2.96,0.848c0.861,0.565,1.497,1.326,1.907,2.283s0.615,2.447,0.615,4.471v7.656h-1.914v-7.096
			c0-1.713-0.071-2.857-0.213-3.432c-0.222-0.984-0.647-1.725-1.276-2.222c-0.629-0.497-1.449-0.745-2.461-0.745
			c-1.158,0-2.195,0.383-3.111,1.148s-1.52,1.714-1.812,2.844c-0.183,0.738-0.273,2.087-0.273,4.047v5.455h-1.914V262.162z"/>
		<path fill="#272525" d="M301.985,262.162h1.914v11.854c0,2.087-0.183,3.614-0.547,4.58c-0.501,1.367-1.372,2.42-2.611,3.158
			s-2.729,1.107-4.471,1.107c-1.276,0-2.422-0.181-3.438-0.542c-1.017-0.361-1.844-0.846-2.481-1.454s-1.226-1.497-1.764-2.667
			h2.078c0.565,0.984,1.296,1.713,2.19,2.188c0.894,0.474,2.003,0.711,3.326,0.711c1.305,0,2.406-0.243,3.306-0.729
			c0.898-0.486,1.54-1.097,1.923-1.833c0.384-0.736,0.575-1.924,0.575-3.563v-0.766c-0.721,0.912-1.602,1.611-2.642,2.099
			c-1.04,0.488-2.144,0.731-3.312,0.731c-1.369,0-2.655-0.339-3.859-1.019c-1.205-0.679-2.135-1.593-2.792-2.741
			s-0.985-2.411-0.985-3.787c0-1.376,0.342-2.659,1.026-3.849s1.631-2.13,2.84-2.823c1.209-0.692,2.484-1.039,3.825-1.039
			c1.113,0,2.15,0.23,3.113,0.69c0.963,0.46,1.891,1.219,2.785,2.276V262.162z M296.338,263.625c-1.085,0-2.092,0.262-3.021,0.786
			c-0.93,0.524-1.659,1.249-2.188,2.174c-0.528,0.925-0.793,1.926-0.793,3.001c0,1.632,0.547,2.98,1.641,4.047s2.511,1.6,4.252,1.6
			c1.759,0,3.174-0.528,4.245-1.586c1.071-1.057,1.606-2.447,1.606-4.17c0-1.121-0.246-2.121-0.738-3.001
			c-0.492-0.879-1.189-1.574-2.092-2.085C298.348,263.88,297.377,263.625,296.338,263.625z"/>
		<path fill="#272525" d="M324.067,266.753c0.827,0,1.533,0.293,2.119,0.879s0.879,1.292,0.879,2.119
			c0,0.833-0.293,1.543-0.879,2.129s-1.292,0.879-2.119,0.879s-1.533-0.293-2.119-0.879s-0.879-1.295-0.879-2.129
			c0-0.827,0.293-1.533,0.879-2.119S323.24,266.753,324.067,266.753z"/>
		<path fill="#272525" d="M357.251,272.101l1.613,0.848c-0.529,1.039-1.141,1.878-1.834,2.516c-0.693,0.638-1.473,1.124-2.34,1.456
			s-1.848,0.499-2.942,0.499c-2.427,0-4.324-0.795-5.692-2.386c-1.368-1.59-2.053-3.388-2.053-5.394
			c0-1.887,0.579-3.568,1.738-5.045c1.468-1.877,3.435-2.816,5.897-2.816c2.536,0,4.562,0.962,6.075,2.885
			c1.077,1.358,1.624,3.054,1.643,5.086h-13.385c0.036,1.728,0.589,3.144,1.656,4.249s2.387,1.657,3.956,1.657
			c0.757,0,1.494-0.132,2.211-0.395c0.716-0.263,1.325-0.613,1.827-1.049C356.125,273.776,356.667,273.073,357.251,272.101z
			 M357.251,268.095c-0.256-1.021-0.627-1.836-1.116-2.447c-0.488-0.61-1.134-1.103-1.937-1.477
			c-0.803-0.374-1.647-0.561-2.532-0.561c-1.46,0-2.715,0.47-3.765,1.408c-0.767,0.684-1.346,1.709-1.738,3.076H357.251z"/>
		<path fill="#272525" d="M376.653,256.419v20.617h-1.887v-2.557c-0.802,0.976-1.702,1.709-2.7,2.201s-2.09,0.738-3.274,0.738
			c-2.105,0-3.903-0.763-5.394-2.29c-1.49-1.526-2.235-3.384-2.235-5.571c0-2.142,0.752-3.974,2.256-5.496
			c1.504-1.522,3.313-2.283,5.428-2.283c1.222,0,2.326,0.26,3.315,0.779s1.857,1.299,2.604,2.338v-8.477H376.653z M369.003,263.625
			c-1.065,0-2.049,0.262-2.95,0.785c-0.901,0.524-1.618,1.259-2.15,2.206s-0.799,1.948-0.799,3.004c0,1.047,0.269,2.049,0.806,3.004
			c0.537,0.956,1.259,1.7,2.164,2.233c0.906,0.533,1.878,0.799,2.916,0.799c1.047,0,2.039-0.264,2.978-0.792
			c0.938-0.528,1.658-1.243,2.164-2.144c0.505-0.901,0.758-1.917,0.758-3.045c0-1.721-0.566-3.159-1.7-4.315
			S370.661,263.625,369.003,263.625z"/>
		<path fill="#272525" d="M379.621,262.162h1.914v6.945c0,1.695,0.091,2.862,0.273,3.5c0.274,0.912,0.797,1.632,1.568,2.16
			c0.771,0.529,1.69,0.793,2.759,0.793s1.974-0.257,2.718-0.772c0.744-0.515,1.258-1.191,1.541-2.03
			c0.191-0.574,0.287-1.791,0.287-3.65v-6.945h1.955v7.301c0,2.051-0.239,3.596-0.718,4.635s-1.198,1.853-2.16,2.44
			s-2.167,0.882-3.616,0.882s-2.659-0.294-3.63-0.882s-1.695-1.408-2.174-2.461s-0.718-2.636-0.718-4.751V262.162z"/>
		<path fill="#272525" d="M410.206,265.251l-1.518,0.943c-1.311-1.741-3.1-2.611-5.367-2.611c-1.812,0-3.315,0.583-4.513,1.748
			c-1.197,1.166-1.796,2.581-1.796,4.247c0,1.083,0.275,2.104,0.826,3.059c0.551,0.956,1.307,1.698,2.267,2.226
			c0.961,0.528,2.037,0.792,3.229,0.792c2.186,0,3.97-0.87,5.354-2.611l1.518,0.998c-0.711,1.071-1.666,1.901-2.864,2.492
			c-1.198,0.59-2.563,0.885-4.095,0.885c-2.352,0-4.302-0.747-5.852-2.242c-1.55-1.495-2.324-3.313-2.324-5.455
			c0-1.44,0.362-2.777,1.087-4.013c0.725-1.235,1.721-2.199,2.987-2.892c1.267-0.692,2.685-1.039,4.252-1.039
			c0.984,0,1.935,0.15,2.851,0.451s1.693,0.693,2.331,1.176C409.216,263.889,409.759,264.504,410.206,265.251z"/>
		<path fill="#272525" d="M427.583,262.162v14.875h-1.887v-2.557c-0.802,0.976-1.702,1.709-2.7,2.201s-2.09,0.738-3.274,0.738
			c-2.105,0-3.903-0.763-5.394-2.29c-1.49-1.526-2.235-3.384-2.235-5.571c0-2.142,0.752-3.974,2.256-5.496
			c1.504-1.522,3.313-2.283,5.428-2.283c1.222,0,2.326,0.26,3.315,0.779s1.857,1.299,2.604,2.338v-2.734H427.583z M419.934,263.625
			c-1.065,0-2.049,0.262-2.95,0.785c-0.901,0.524-1.618,1.259-2.15,2.206s-0.799,1.948-0.799,3.004c0,1.047,0.269,2.049,0.806,3.004
			c0.537,0.956,1.259,1.7,2.164,2.233c0.906,0.533,1.878,0.799,2.916,0.799c1.047,0,2.039-0.264,2.978-0.792
			c0.938-0.528,1.658-1.243,2.164-2.144c0.505-0.901,0.758-1.917,0.758-3.045c0-1.721-0.566-3.159-1.7-4.315
			S421.591,263.625,419.934,263.625z"/>
		<path fill="#272525" d="M432.438,256.638h1.914v5.523h3.035v1.654h-3.035v13.221h-1.914v-13.221h-2.611v-1.654h2.611V256.638z"/>
		<path fill="#272525" d="M439.801,256.037c0.436,0,0.808,0.155,1.116,0.465c0.309,0.31,0.463,0.684,0.463,1.121
			c0,0.429-0.154,0.798-0.463,1.107c-0.309,0.31-0.681,0.465-1.116,0.465c-0.427,0-0.794-0.155-1.103-0.465
			c-0.309-0.31-0.463-0.679-0.463-1.107c0-0.438,0.154-0.811,0.463-1.121C439.007,256.192,439.375,256.037,439.801,256.037z
			 M438.851,262.162h1.914v14.875h-1.914V262.162z"/>
		<path fill="#272525" d="M450.666,261.779c2.292,0,4.19,0.83,5.697,2.488c1.37,1.513,2.055,3.304,2.055,5.373
			c0,2.078-0.724,3.895-2.171,5.448c-1.447,1.554-3.308,2.331-5.581,2.331c-2.283,0-4.147-0.777-5.595-2.331
			c-1.447-1.554-2.171-3.37-2.171-5.448c0-2.06,0.685-3.846,2.055-5.359C446.46,262.613,448.365,261.779,450.666,261.779z
			 M450.659,263.652c-1.592,0-2.959,0.588-4.103,1.764s-1.715,2.598-1.715,4.266c0,1.076,0.261,2.078,0.782,3.008
			s1.226,1.647,2.112,2.153c0.888,0.506,1.861,0.759,2.923,0.759c1.061,0,2.035-0.253,2.923-0.759
			c0.887-0.506,1.591-1.224,2.112-2.153s0.782-1.932,0.782-3.008c0-1.668-0.574-3.09-1.722-4.266
			C453.606,264.24,452.241,263.652,450.659,263.652z"/>
		<path fill="#272525" d="M460.838,262.162h1.914v2.666c0.766-1.021,1.613-1.784,2.543-2.29s1.941-0.759,3.035-0.759
			c1.112,0,2.099,0.283,2.96,0.848c0.861,0.565,1.497,1.326,1.907,2.283s0.615,2.447,0.615,4.471v7.656h-1.914v-7.096
			c0-1.713-0.071-2.857-0.213-3.432c-0.222-0.984-0.647-1.725-1.276-2.222c-0.629-0.497-1.449-0.745-2.461-0.745
			c-1.158,0-2.195,0.383-3.111,1.148s-1.52,1.714-1.812,2.844c-0.183,0.738-0.273,2.087-0.273,4.047v5.455h-1.914V262.162z"/>
	</g>
</g>
<g>
	<path fill="#272525" d="M113.377,0C51.84,0,1.955,49.885,1.955,111.422S51.84,222.845,113.377,222.845
		c61.536,0,111.42-49.886,111.42-111.423S174.913,0,113.377,0z M112.996,216.717c-58.437,0-105.81-47.373-105.81-105.81
		S54.559,5.098,112.996,5.098s105.809,47.373,105.809,105.81S171.433,216.717,112.996,216.717z"/>
	<path fill="#272525" d="M41.575,137.799v5.714h19.712c0,0,30.854,4.382,30.854-32.091S69.857,78.378,41.575,78.378
		c0,45.994,0,45.994,0,45.994h5.714V83.234h19.569c0,0,15.569,0.857,19.283,18.568c3.714,17.713-3.428,35.996-23.997,35.996H41.575z
		"/>
	<path fill="#272525" d="M92.141,78.292c0,0,3.714,3.038,5.047,4.942h18.855c0,0,15.808,0.381,15.808,13.713
		s-8.381,15.808-14.475,15.808c-6.094,0-18.475,0-18.475,0v30.923h5.714v-25.4h12.951c0,0,16.38-0.57,19.426-12.95
		c3.047-12.38-1.144-27.035-18.665-27.035S92.141,78.292,92.141,78.292z"/>
	<path fill="#272525" d="M182.131,81.33l-2.857,4.38c0,0-27.806-8.761-29.711,7.809c-1.905,16.569,21.139,11.427,28.758,15.998
		s11.809,15.999,6.476,24.95c-5.333,8.95-23.235,15.615-41.519,4.951l3.428-4c0,0,27.234,9.904,34.09-5.332
		c3.238-7.428-3.619-17.9-16.76-18.664c-13.142-0.762-19.806-4.189-20.759-18.094C142.325,79.425,163.847,72.95,182.131,81.33z"/>
</g>
<g>
	<path fill="#272525" d="M303.269,86.678c-9.486-26.162-34.787-18.4-34.787-18.4c-26.161,8.912-30.473,38.812-26.448,56.924
		c4.024,18.113,18.686,24.725,32.198,20.125C287.746,140.727,312.757,112.84,303.269,86.678z M274.412,140.85
		c-11.219,4.066-23.393-1.778-26.736-17.786c-3.339-16.009,0.24-42.435,21.963-50.312c0,0,21.006-6.861,28.883,16.262
		C306.4,112.137,285.63,136.784,274.412,140.85z"/>
	<path fill="#272525" d="M305.365,119.739c0,0,2.217-2.443,1.354-3.881c-0.861-1.438,0-7.763,6.182-1.581
		c6.182,6.181,9.488,7.906,4.889,14.087c-4.602,6.181-8.482,12.089-7.332,13.734c1.15,1.646,11.068-11.291,12.938-8.847
		c1.869,2.443,2.443,2.156,0,4.743c-2.443,2.588-11.643,14.663-17.25,10.062c-5.605-4.601,5.463-19.406,7.188-21.706
		s1.438-3.019,0-4.168c-1.438-1.15-1.438-3.163-5.605,2.875c-4.17,6.037-10.207,14.805-12.506,10.78
		C292.919,131.814,298.119,132.533,305.365,119.739z"/>
	<path fill="#272525" d="M469.632,140.344c-4.791,4.408-5.75-2.684-6.324-5.175c-0.576-2.492,0.191-5.367,2.301-8.05
		c2.107-2.684,7.09-11.117,10.924-19.55s9.773-28.941,2.107-30.858c-7.666-1.916-12.074,16.483-17.824,36.416
		s-1.918,21.658-1.918,21.658s0,0-2.299,0c-2.301,0-6.996,5.51-9.439,8.241s1.006-10.78,1.725-12.075
		c0.719-1.293,2.014-2.73-0.432-4.887c-2.443-2.156-15.094,12.649-16.818,13.943c-1.725,1.293-9.773,3.594,2.301-11.787
		s16.1-10.206,16.674-8.481c0.576,1.725,0.863,2.731,2.588,2.013c1.727-0.719,3.738-5.894-2.012-8.783
		c-10.637-5.333-26.736,18.989-27.025,20.714c-0.287,1.726-5.605,9.774-7.617,7.903c-2.588-3.021,4.455-18.541,1.438-22.135
		c-3.02-3.593-15.094,11.5-17.682,15.381c-2.588,3.882,1.869-8.624,4.6-14.805c2.73-6.182,1.006-6.469-1.582-7.044
		c-2.586-0.575-7.33,15.956-7.904,17.968c-0.576,2.013-7.764,7.619-10.352,9.775c-2.586,2.156,3.883-20.987,5.32-23.862
		c1.438-2.874-2.156-3.881-2.156-3.881c-1.49-0.764-2.16,1.483-2.16,1.483s-4.217,9.967-5.561,16.676
		c-1.342,6.707-1.914,11.883,1.344,14.758s12.074-5.941,12.074-5.941c-0.768,5.75,2.492,5.941,4.025,4.982
		c1.531-0.959,7.666-9.008,11.691-13.607c4.023-4.6,1.916,0.957,1.916,4.408c0,3.449-2.684,11.117,4.217,11.691
		c6.898,0.575,7.857-9.008,9.391-4.792c4.6,10.541,14.758-3.45,15.908-4.792c1.15-1.341-0.959,6.517,0.191,9.024
		c3.26,5.573,9.201,0.177,11.883-2.315c2.684-2.491,3.834-8.816,6.326-2.973c2.49,5.844,7.092,5.273,9.582,5.273
		s7.48-4.791,9.588-7.283c2.109-2.492,1.533-3.642-0.191-5.75C476.724,131.719,474.423,135.935,469.632,140.344z M476.72,83.035
		c2.49,0.574-7.859,32.391-11.309,34.69C465.412,117.726,474.226,82.459,476.72,83.035z"/>
	<circle fill="#272525" cx="340.255" cy="100.285" r="4.217"/>
	<circle fill="#272525" cx="392.158" cy="100.285" r="4.217"/>
	<path fill="#272525" d="M377.011,134.402c-1.15-1.582-2.875-1.438-5.75,1.437s-2.012,0.288-1.006-2.3s1.869-3.594,0-5.895
		c-1.869-2.299-3.736-0.43-5.318,1.15c-1.582,1.582-12.076,8.625-14.949,10.494c-2.875,1.869-5.031-1.294-3.451-5.175
		c5.607-11.356,20.844-20.843,21.562-19.55c0.719,1.294-5.318,3.45-3.307,6.324c2.012,2.875,5.176-0.718,7.045-2.73
		c1.867-2.012,6.18-6.469,1.293-9.057c-9.918-5.318-29.611,19.119-30.475,21.994c-0.861,2.875-5.605,6.469-9.199,9.056
		s0.861-9.344,3.018-16.388c2.156-7.043,3.881-8.049,1.295-10.492c-2.588-2.444-4.312,1.58-4.312,1.58
		c-1.293,4.888-8.193,25.3-4.889,29.612c3.307,4.312,8.482-0.862,10.207-2.365s0.719-2.954,5.605,1.358
		c4.889,4.312,14.949-4.312,18.113-7.043c3.162-2.731,1.293,3.019,0.719,5.685c-0.576,2.667-6.039,7.253-8.453,9.84
		c-2.416,2.588-17.998,14.95-10.809,21.706c7.186,6.756,18.543-17.537,19.836-21.119c1.293-3.58-0.719-1.306,6.324-8.492
		C377.156,136.846,378.162,135.982,377.011,134.402z M347.736,168.326c-1.725-1.535,8.24-9.967,8.24-9.967
		S349.46,169.859,347.736,168.326z"/>
</g>
</svg>
