<?xml version="1.0" encoding="utf-8"?>
<!-- Generator: Adobe Illustrator 16.0.0, SVG Export Plug-In . SVG Version: 6.00 Build 0)  -->
<!DOCTYPE svg PUBLIC "-//W3C//DTD SVG 1.1//EN" "http://www.w3.org/Graphics/SVG/1.1/DTD/svg11.dtd">
<svg version="1.1" id="Layer_1" xmlns="http://www.w3.org/2000/svg" xmlns:xlink="http://www.w3.org/1999/xlink" x="0px" y="0px"
	 width="95.355px" height="38.85px" viewBox="0 0 95.355 38.85" enable-background="new 0 0 95.355 38.85" xml:space="preserve">
<g>
	<g>
		<g>
			<path fill="#152A3F" d="M19.929,0.435c-10.607,0-19.207,8.598-19.207,19.207c0,10.606,8.6,19.207,19.207,19.207
				c10.608,0,19.207-8.601,19.207-19.207C39.136,9.032,30.538,0.435,19.929,0.435z M19.865,37.792
				c-10.074,0-18.24-8.166-18.24-18.24c0-10.071,8.166-18.239,18.24-18.239c10.071,0,18.237,8.168,18.237,18.239
				C38.103,29.626,29.937,37.792,19.865,37.792z"/>
			<path fill="#152A3F" d="M7.552,24.188v0.983h3.398c0,0,5.316,0.757,5.316-5.53s-3.841-5.697-8.716-5.697c0,7.93,0,7.93,0,7.93
				h0.985v-7.092h3.372c0,0,2.686,0.146,3.324,3.201c0.641,3.053-0.591,6.205-4.137,6.205H7.552z"/>
			<path fill="#152A3F" d="M16.268,13.929c0,0,0.642,0.524,0.871,0.854h3.25c0,0,2.726,0.064,2.726,2.365
				c0,2.297-1.444,2.723-2.495,2.723c-1.052,0-3.186,0-3.186,0v5.332h0.985v-4.379h2.231c0,0,2.824-0.1,3.35-2.232
				c0.524-2.132-0.196-4.661-3.218-4.661C17.762,13.929,16.268,13.929,16.268,13.929z"/>
			<path fill="#152A3F" d="M31.782,14.454l-0.493,0.754c0,0-4.793-1.51-5.121,1.349c-0.328,2.854,3.644,1.969,4.957,2.758
				c1.312,0.787,2.036,2.758,1.116,4.301s-4.006,2.691-7.157,0.854l0.592-0.69c0,0,4.694,1.709,5.876-0.918
				c0.559-1.279-0.623-3.086-2.889-3.217c-2.267-0.131-3.414-0.724-3.579-3.119C24.919,14.126,28.629,13.009,31.782,14.454z"/>
		</g>
		<g>
			<path fill="#152A3F" d="M56.402,15.438c-2.03-5.601-7.446-3.938-7.446-3.938c-5.601,1.906-6.523,8.308-5.661,12.183
				c0.86,3.879,3.999,5.293,6.892,4.309C53.078,27.009,58.432,21.038,56.402,15.438z M50.223,27.032
				c-2.399,0.871-5.007-0.381-5.723-3.807c-0.714-3.427,0.053-9.082,4.701-10.771c0,0,4.498-1.467,6.183,3.482
				C57.072,20.888,52.625,26.163,50.223,27.032z"/>
			<path fill="#152A3F" d="M56.85,22.515c0,0,0.476-0.521,0.289-0.83c-0.184-0.31,0-1.662,1.324-0.34
				c1.322,1.323,2.031,1.692,1.047,3.016c-0.986,1.324-1.816,2.588-1.57,2.94s2.369-2.418,2.771-1.895
				c0.4,0.523,0.521,0.461,0,1.016c-0.523,0.554-2.492,3.138-3.693,2.154c-1.201-0.986,1.17-4.154,1.539-4.646
				c0.369-0.494,0.31-0.646,0-0.894c-0.307-0.246-0.307-0.676-1.201,0.615c-0.891,1.293-2.184,3.17-2.676,2.309
				C54.186,25.099,55.299,25.253,56.85,22.515z"/>
			<path fill="#152A3F" d="M92.01,26.925c-1.023,0.945-1.232-0.573-1.354-1.106c-0.123-0.533,0.04-1.148,0.491-1.723
				c0.451-0.575,1.521-2.38,2.338-4.185c0.82-1.807,2.095-6.195,0.451-6.604c-1.639-0.41-2.584,3.526-3.813,7.795
				c-1.23,4.264-0.41,4.635-0.41,4.635s0,0-0.492,0s-1.498,1.18-2.021,1.764c-0.521,0.586,0.215-2.307,0.37-2.584
				c0.152-0.276,0.431-0.584-0.094-1.047c-0.522-0.461-3.229,2.709-3.6,2.984c-0.369,0.276-2.092,0.77,0.494-2.521
				c2.582-3.293,3.442-2.186,3.567-1.815c0.123,0.368,0.185,0.584,0.554,0.432c0.368-0.154,0.801-1.262-0.431-1.881
				c-2.276-1.144-5.723,4.063-5.785,4.434c-0.062,0.37-1.2,2.092-1.631,1.693c-0.555-0.648,0.953-3.971,0.308-4.738
				c-0.646-0.77-3.23,2.461-3.783,3.291c-0.555,0.832,0.399-1.848,0.983-3.168c0.584-1.322,0.216-1.385-0.338-1.508
				c-0.555-0.123-1.569,3.414-1.692,3.846c-0.123,0.431-1.66,1.631-2.215,2.094c-0.554,0.462,0.829-4.493,1.139-5.108
				c0.307-0.615-0.463-0.83-0.463-0.83c-0.318-0.164-0.461,0.316-0.461,0.316s-0.902,2.135-1.191,3.569
				c-0.285,1.437-0.408,2.543,0.289,3.16c0.697,0.613,2.584-1.272,2.584-1.272c-0.164,1.229,0.533,1.272,0.861,1.065
				c0.33-0.205,1.641-1.928,2.504-2.912c0.861-0.983,0.408,0.203,0.408,0.943c0,0.738-0.572,2.379,0.903,2.502
				c1.477,0.123,1.681-1.928,2.011-1.025c0.983,2.256,3.157-0.737,3.403-1.024c0.246-0.289-0.205,1.395,0.041,1.932
				c0.697,1.193,1.97,0.037,2.543-0.496c0.576-0.533,0.822-1.887,1.354-0.635c0.533,1.25,1.52,1.127,2.051,1.127
				c0.535,0,1.602-1.025,2.053-1.559c0.451-0.534,0.33-0.779-0.041-1.23C93.527,25.079,93.035,25.981,92.01,26.925z M93.527,14.657
				c0.533,0.123-1.682,6.934-2.42,7.428C91.107,22.085,92.994,14.536,93.527,14.657z"/>
			<circle fill="#152A3F" cx="64.318" cy="18.351" r="0.902"/>
			<circle fill="#152A3F" cx="75.427" cy="18.351" r="0.903"/>
			<path fill="#152A3F" d="M72.186,25.653c-0.246-0.34-0.615-0.31-1.229,0.309c-0.617,0.615-0.431,0.062-0.215-0.491
				c0.215-0.556,0.399-0.771,0-1.265c-0.402-0.492-0.802-0.092-1.142,0.246c-0.338,0.34-2.584,1.848-3.197,2.248
				c-0.616,0.398-1.079-0.277-0.739-1.109c1.2-2.43,4.461-4.461,4.614-4.184c0.154,0.277-1.139,0.738-0.709,1.354
				c0.433,0.615,1.109-0.153,1.509-0.584c0.401-0.43,1.323-1.385,0.276-1.938c-2.123-1.137-6.338,4.094-6.521,4.709
				c-0.187,0.613-1.201,1.385-1.969,1.938c-0.771,0.556,0.184-2,0.646-3.508c0.461-1.508,0.83-1.723,0.275-2.246
				c-0.556-0.521-0.923,0.341-0.923,0.341c-0.276,1.045-1.754,5.413-1.047,6.338c0.709,0.922,1.814-0.187,2.185-0.506
				c0.369-0.322,0.153-0.634,1.201,0.288c1.045,0.925,3.198-0.922,3.877-1.506c0.676-0.586,0.274,0.646,0.151,1.218
				c-0.121,0.569-1.291,1.551-1.809,2.104c-0.517,0.553-3.853,3.199-2.314,4.646c1.541,1.444,3.972-3.757,4.246-4.521
				c0.277-0.768-0.153-0.279,1.355-1.818C72.217,26.177,72.432,25.991,72.186,25.653z M65.92,32.915
				c-0.369-0.328,1.764-2.135,1.764-2.135S66.289,33.243,65.92,32.915z"/>
		</g>
	</g>
</g>
</svg>
