<?xml version="1.0" encoding="utf-8"?>
<!-- Generator: Adobe Illustrator 16.0.0, SVG Export Plug-In . SVG Version: 6.00 Build 0)  -->
<!DOCTYPE svg PUBLIC "-//W3C//DTD SVG 1.1//EN" "http://www.w3.org/Graphics/SVG/1.1/DTD/svg11.dtd">
<svg version="1.1" id="Layer_1" xmlns="http://www.w3.org/2000/svg" xmlns:xlink="http://www.w3.org/1999/xlink" x="0px" y="0px"
	 width="623px" height="278.333px" viewBox="0 0 623 278.333" enable-background="new 0 0 623 278.333" xml:space="preserve">
<g>
	<g>
		<path fill="#FFFFFF" d="M139.432,1.988C63.665,1.988,2.253,63.399,2.253,139.167c0,75.761,61.412,137.178,137.179,137.178
			c75.761,0,137.178-61.417,137.178-137.178C276.609,63.399,215.192,1.988,139.432,1.988z M138.96,268.798
			c-71.94,0-130.266-58.32-130.266-130.266c0-71.946,58.325-130.27,130.266-130.27c71.946,0,130.266,58.324,130.266,130.27
			C269.226,210.478,210.906,268.798,138.96,268.798z"/>
		<path fill="#FFFFFF" d="M51.03,171.641v7.034h24.269c0,0,37.983,5.393,37.983-39.508c0-44.907-27.432-40.686-62.252-40.686
			c0,56.629,0,56.629,0,56.629h7.033v-50.648H82.16c0,0,19.167,1.054,23.738,22.861c4.571,21.807-4.222,44.317-29.545,44.317H51.03z
			"/>
		<path fill="#FFFFFF" d="M113.282,98.375c0,0,4.575,3.74,6.218,6.087h23.211c0,0,19.464,0.466,19.464,16.88
			c0,16.416-10.317,19.462-17.823,19.462c-7.5,0-22.743,0-22.743,0v38.071h7.038v-31.271h15.944c0,0,20.164-0.699,23.914-15.942
			c3.75-15.245-1.408-33.287-22.981-33.287C123.955,98.375,113.282,98.375,113.282,98.375z"/>
		<path fill="#FFFFFF" d="M224.078,102.115l-3.518,5.393c0,0-34.232-10.784-36.579,9.613c-2.346,20.403,26.023,14.069,35.404,19.699
			c9.38,5.626,14.539,19.698,7.971,30.716c-6.562,11.018-28.602,19.228-51.112,6.097l4.221-4.926c0,0,33.529,12.192,41.972-6.563
			c3.982-9.147-4.455-22.039-20.637-22.977c-16.176-0.938-24.381-5.159-25.556-22.279
			C175.073,99.769,201.567,91.798,224.078,102.115z"/>
	</g>
	<g>
		<path fill="#FFFFFF" d="M344.417,106.754c-0.369-6.217-0.861-13.85-0.861-18.343h-0.123c-1.539,4.493-3.201,9.294-5.602,15.45
			l-8.74,22.59h-2.031l-8.188-22.036c-2.339-6.463-4.124-11.449-5.354-16.004h-0.123c-0.124,4.862-0.432,12.064-0.924,18.958
			l-1.293,19.082h-2.893l3.017-41.487h3.385l8.926,23.883c1.97,5.294,3.385,9.479,4.555,13.48h0.185
			c1.047-3.816,2.523-7.879,4.616-13.419l9.295-23.944h3.509l2.77,41.487h-2.893L344.417,106.754z"/>
		<path fill="#FFFFFF" d="M361.409,111.925l-5.109,14.526h-3.016l15.02-41.487h2.831l14.896,41.487h-3.017l-5.232-14.526H361.409z
			 M376.921,109.462l-5.048-13.85c-1.046-2.893-1.6-4.985-2.154-7.324h-0.185c-0.554,2.4-1.23,4.555-2.154,7.201l-5.047,13.973
			H376.921z"/>
		<path fill="#FFFFFF" d="M392.436,85.579c2.585-0.615,6.094-0.923,8.986-0.923c5.417,0,8.864,1.169,11.203,3.509
			c1.785,1.661,2.893,4.432,2.893,7.324c0,5.602-3.323,9.172-8.125,10.834v0.123c3.324,1.046,5.417,4.186,6.401,8.802
			c1.416,6.464,2.217,9.541,3.078,11.203h-3.017c-0.677-1.231-1.538-4.862-2.646-10.095c-1.293-5.971-3.878-8.68-9.356-8.926h-6.463
			v19.021h-2.954V85.579z M395.39,105.03h6.586c6.402,0,10.588-3.57,10.588-9.048c0-6.341-4.679-8.926-11.203-8.926
			c-2.831,0-4.924,0.308-5.971,0.554V105.03z"/>
		<path fill="#FFFFFF" d="M423.521,84.964h2.954v20.99h0.185c1.231-1.601,2.462-3.017,3.57-4.31l14.711-16.681h3.57l-15.758,17.604
			l17.235,23.883h-3.509L430.723,104.6l-4.247,4.678v17.174h-2.954V84.964z"/>
		<path fill="#FFFFFF" d="M473.688,105.831h-16.558v18.158h18.527v2.462h-21.481V84.964h20.497v2.462h-17.543v15.942h16.558V105.831
			z"/>
		<path fill="#FFFFFF" d="M492.094,87.426h-13.542v-2.462h30.038v2.462h-13.542v39.025h-2.954V87.426z"/>
		<path fill="#FFFFFF" d="M515.793,84.964v41.487h-2.954V84.964H515.793z"/>
		<path fill="#FFFFFF" d="M525.89,126.451V84.964h2.77l16.127,24.498c3.386,5.171,5.786,9.049,7.817,13.05l0.123-0.062
			c-0.431-5.602-0.492-10.341-0.492-16.866v-20.62h2.831v41.487h-2.708l-15.819-24.129c-3.078-4.802-5.909-9.172-8.063-13.419
			l-0.123,0.062c0.308,5.109,0.369,9.603,0.369,16.496v20.99H525.89z"/>
		<path fill="#FFFFFF" d="M594.893,124.604c-2.093,0.862-6.464,2.277-12.126,2.277c-5.479,0-10.465-1.415-14.65-5.417
			c-3.447-3.385-5.725-8.986-5.725-15.634c0-11.511,7.571-21.298,21.667-21.298c4.432,0,8.063,1.046,9.664,1.847l-0.984,2.462
			c-2.155-1.047-4.863-1.785-8.864-1.785c-11.388,0-18.404,7.387-18.404,18.65c0,11.695,6.832,18.651,17.789,18.651
			c4.37,0,7.14-0.615,8.679-1.416v-14.649h-9.603v-2.4h12.558V124.604z"/>
		<path fill="#FFFFFF" d="M314.379,173.482l-5.109,14.526h-3.016l15.02-41.487h2.831l14.896,41.487h-3.017l-5.232-14.526H314.379z
			 M329.891,171.02l-5.048-13.85c-1.046-2.893-1.6-4.985-2.154-7.324h-0.185c-0.554,2.4-1.23,4.555-2.154,7.201l-5.047,13.973
			H329.891z"/>
		<path fill="#FFFFFF" d="M345.466,188.009v-41.487h2.77l16.127,24.498c3.386,5.171,5.786,9.049,7.817,13.05l0.123-0.062
			c-0.431-5.602-0.492-10.341-0.492-16.866v-20.62h2.831v41.487h-2.708l-15.819-24.129c-3.078-4.802-5.909-9.172-8.063-13.419
			l-0.123,0.062c0.308,5.109,0.369,9.603,0.369,16.496v20.99H345.466z"/>
		<path fill="#FFFFFF" d="M384.678,147.137c3.2-0.554,6.709-0.923,10.648-0.923c7.571,0,13.296,2.031,16.742,5.663
			c3.324,3.446,5.171,8.125,5.171,14.403c0,6.094-1.662,11.572-5.417,15.696c-3.632,4.001-9.91,6.34-17.912,6.34
			c-3.2,0-6.217-0.062-9.232-0.369V147.137z M387.632,185.547c1.662,0.246,4.062,0.308,6.709,0.308
			c13.296,0,19.883-7.448,19.883-19.451c0.123-10.525-5.725-17.728-19.082-17.728c-3.201,0-5.725,0.308-7.51,0.677V185.547z"/>
		<path fill="#FFFFFF" d="M437.985,147.137c3.2-0.554,6.709-0.923,10.648-0.923c7.571,0,13.296,2.031,16.742,5.663
			c3.324,3.446,5.171,8.125,5.171,14.403c0,6.094-1.662,11.572-5.417,15.696c-3.632,4.001-9.91,6.34-17.912,6.34
			c-3.2,0-6.217-0.062-9.232-0.369V147.137z M440.939,185.547c1.662,0.246,4.062,0.308,6.709,0.308
			c13.296,0,19.883-7.448,19.883-19.451c0.123-10.525-5.725-17.728-19.082-17.728c-3.201,0-5.725,0.308-7.51,0.677V185.547z"/>
		<path fill="#FFFFFF" d="M497.324,167.389h-16.558v18.158h18.527v2.462h-21.481v-41.487h20.497v2.462h-17.543v15.942h16.558
			V167.389z"/>
		<path fill="#FFFFFF" d="M505.205,183.454c2.339,1.601,5.602,2.708,9.048,2.708c6.218,0,10.034-3.509,10.034-8.617
			c0-4.679-2.401-7.387-8.434-9.726c-6.647-2.339-10.648-5.786-10.648-11.449c0-6.094,4.985-10.525,12.064-10.525
			c3.878,0,6.832,0.984,8.248,1.97l-1.107,2.462c-1.108-0.801-3.755-1.97-7.325-1.97c-6.709,0-8.987,4.309-8.987,7.571
			c0,4.616,2.647,6.955,8.618,9.294c6.832,2.771,10.464,5.848,10.464,12.065c0,6.032-4.309,11.448-13.173,11.448
			c-3.569,0-7.756-1.169-9.91-2.831L505.205,183.454z"/>
		<path fill="#FFFFFF" d="M538.015,146.521v41.487h-2.954v-41.487H538.015z"/>
		<path fill="#FFFFFF" d="M577.841,186.162c-2.093,0.861-6.464,2.277-12.127,2.277c-5.478,0-10.464-1.416-14.649-5.417
			c-3.447-3.385-5.725-8.986-5.725-15.634c0-11.511,7.571-21.298,21.667-21.298c4.432,0,8.063,1.046,9.664,1.847l-0.984,2.462
			c-2.155-1.047-4.863-1.785-8.864-1.785c-11.388,0-18.404,7.387-18.404,18.65c0,11.695,6.832,18.651,17.789,18.651
			c4.37,0,7.14-0.615,8.679-1.416v-14.649h-9.603v-2.4h12.558V186.162z"/>
		<path fill="#FFFFFF" d="M586.522,188.009v-41.487h2.77l16.127,24.498c3.386,5.171,5.786,9.049,7.817,13.05l0.123-0.062
			c-0.431-5.602-0.492-10.341-0.492-16.866v-20.62h2.831v41.487h-2.708l-15.819-24.129c-3.078-4.802-5.909-9.172-8.063-13.419
			l-0.123,0.062c0.308,5.109,0.369,9.603,0.369,16.496v20.99H586.522z"/>
	</g>
</g>
<g>
</g>
<g>
</g>
<g>
</g>
<g>
</g>
<g>
</g>
<g>
</g>
</svg>
