<?xml version="1.0" encoding="utf-8"?>
<!-- Generator: Adobe Illustrator 16.0.0, SVG Export Plug-In . SVG Version: 6.00 Build 0)  -->
<!DOCTYPE svg PUBLIC "-//W3C//DTD SVG 1.1//EN" "http://www.w3.org/Graphics/SVG/1.1/DTD/svg11.dtd">
<svg version="1.1" id="Layer_1" xmlns="http://www.w3.org/2000/svg" xmlns:xlink="http://www.w3.org/1999/xlink" x="0px" y="0px"
	 width="80px" height="80px" viewBox="0 0 80 80" enable-background="new 0 0 80 80" xml:space="preserve">
<g>
	<path fill="#3E6DB2" d="M11.052,38.271l3.532-5.529h2.567c-0.211,0.109-0.4,0.301-0.481,0.618l-2.112,8.096
		c-0.078,0.302,0.008,0.494,0.167,0.617h-2.615c0.236-0.123,0.385-0.315,0.464-0.617l1.741-6.713
		c0.049-0.161,0.143-0.341,0.143-0.341l-0.23,0.371L9.35,42.264l-0.979-7.327l-0.092-0.343c0,0-0.072,0.245-0.095,0.358
		l-1.695,6.503c-0.078,0.302,0.007,0.494,0.181,0.617H5.142c0.243-0.123,0.418-0.315,0.496-0.617l2.113-8.096
		c0.07-0.263-0.056-0.509-0.22-0.618h2.655L11.052,38.271L11.052,38.271z"/>
	<path fill="#3E6DB2" d="M22.054,39.928c-0.409,1.104-2.207,2.282-3.87,2.282c-1.608,0-2.671-1.304-2.126-3.391
		c0.473-1.809,2.072-3.362,3.885-3.362c1.489,0,2.499,0.879,1.898,3.157h-3.853c-0.01,0.042-0.032,0.109-0.057,0.205
		c-0.22,0.935,0,2.349,1.231,2.349C20.344,41.168,21.408,40.704,22.054,39.928L22.054,39.928z M19.69,36.227
		c-0.622,0-1.207,0.688-1.474,1.593h2.018C20.485,36.846,20.219,36.227,19.69,36.227L19.69,36.227z"/>
	<path fill="#3E6DB2" d="M23.662,35.966c0.552-0.247,1.387-0.509,2.404-0.509c0.71,0,2.151,0.168,1.614,2.225
		c-0.077,0.303-0.842,3.239-0.866,3.321c-0.103,0.397-0.167,0.55,0.173,0.659l-1.726,0.576c-0.237-0.194-0.401-0.33-0.3-0.853
		c-0.504,0.397-1.286,0.824-2.033,0.824c-1.111,0-1.373-1.003-1.175-1.745c0.133-0.519,0.529-1.108,1.276-1.521
		c0.757-0.452,2.083-0.618,2.594-0.975c0.212-0.149,0.284-0.412,0.33-0.63c0.167-0.633-0.024-1.112-0.583-1.112
		c-0.963,0-1.845,1.002-2.262,1.715L23.662,35.966L23.662,35.966z M23.552,40.165c-0.183,0.673,0.134,0.948,0.583,0.948
		c0.347,0,0.653-0.165,0.898-0.358l0.537-2.044c-0.362,0.164-0.6,0.205-1.032,0.397C24.055,39.356,23.687,39.642,23.552,40.165
		L23.552,40.165z"/>
	<path fill="#3E6DB2" d="M35.744,32.563l-2.095,7.657c-0.063,0.379-0.096,0.459,0.056,0.696l-2.437,1.492l0.27-0.856
		c-0.426,0.286-1.079,0.657-1.813,0.657c-1.309,0-2.137-1.262-1.6-3.335c0.489-1.864,2.247-3.418,3.894-3.418
		c0.52,0,0.724,0.124,0.993,0.329l0.622-2.059c0.11-0.438-0.117-0.508-0.307-0.548L35.744,32.563L35.744,32.563z M30.991,41.141
		c0.293,0,0.512-0.138,0.686-0.234l1.111-4.282c-0.12-0.192-0.206-0.355-0.576-0.355c-1.056,0-1.843,1.288-2.12,2.359
		C29.55,40.712,30.495,41.141,30.991,41.141L30.991,41.141z"/>
	<path fill="#3E6DB2" d="M34.406,42.988l1.781-6.747c0.078-0.315-0.017-0.507-0.191-0.616l2.421-0.627c0,0-0.04,0.201-0.127,0.519
		l-1.748,6.82c-1.27,5.306-4.328,5.2-5.879,4.86C30.662,47.197,33.522,46.421,34.406,42.988L34.406,42.988z"/>
	<path fill="#3E6DB2" d="M41.562,37.897c2.031,0,2.688,1.521,2.213,3.36c-0.512,1.922-2.119,3.388-3.956,3.388
		c-2.342,0-2.617-1.904-2.231-3.291C38.069,39.514,39.574,37.897,41.562,37.897L41.562,37.897z M41.293,38.639
		c-0.797,0.025-1.482,1.069-1.877,2.674c-0.408,1.717-0.047,2.58,0.632,2.553c0.762-0.027,1.424-0.809,1.86-2.649
		C42.254,39.773,42.15,38.61,41.293,38.639L41.293,38.639z"/>
	<path fill="#3E6DB2" d="M50.561,39.967l-1.033,3.952c-0.08,0.302,0.008,0.469,0.174,0.592h-2.473
		c0.227-0.123,0.393-0.29,0.471-0.592l0.922-3.539c0.184-0.688,0.119-1.332-0.654-1.332c-0.463,0-0.896,0.273-1.166,0.55
		l-1.127,4.321c-0.078,0.302,0,0.469,0.174,0.592h-2.516c0.23-0.123,0.396-0.29,0.475-0.592l2.041-7.665
		c0.109-0.424-0.102-0.507-0.299-0.577l2.324-0.606l-0.852,3.69c0.309-0.289,1.254-0.863,2.09-0.863
		C50.355,37.897,50.924,38.568,50.561,39.967L50.561,39.967z"/>
	<path fill="#3E6DB2" d="M62.24,38.158l-0.504,2.126c-0.047-0.716-0.258-1.674-0.969-1.674c-0.639,0-0.939,0.342-1.025,0.671
		c-0.119,0.481,0.293,0.714,0.756,1.029c0.695,0.494,1.436,1.028,1.113,2.266c-0.395,1.508-2.059,2.069-2.963,2.069
		c-0.703,0-1.279-0.177-1.799-0.546l0.545-2.198c-0.072,0.99,0.316,1.937,1.111,1.937c0.764,0,1.127-0.492,1.207-0.809
		c0.139-0.522-0.174-0.646-0.947-1.238c-0.869-0.67-1-1.22-0.787-2.018c0.236-0.902,1.109-1.876,2.797-1.876
		C61.074,37.897,61.707,37.965,62.24,38.158L62.24,38.158z"/>
	<path fill="#3E6DB2" d="M66.379,37.897c2.025,0,2.688,1.521,2.205,3.36c-0.51,1.922-2.111,3.388-3.953,3.388
		c-2.342,0-2.611-1.904-2.225-3.291C62.887,39.514,64.385,37.897,66.379,37.897L66.379,37.897z M66.111,38.639
		c-0.805,0.025-1.49,1.069-1.877,2.674c-0.408,1.717-0.055,2.58,0.623,2.553c0.766-0.027,1.436-0.809,1.859-2.649
		C67.072,39.773,66.963,38.61,66.111,38.639L66.111,38.639z"/>
	<path fill="#3E6DB2" d="M75.285,39.967l-1.033,3.952c-0.08,0.302,0,0.469,0.166,0.592h-2.443c0.252-0.123,0.395-0.29,0.473-0.592
		l0.891-3.414c0.143-0.538,0.363-1.442-0.646-1.442c-0.385,0-0.865,0.286-1.111,0.549l-1.117,4.308
		c-0.08,0.302,0.006,0.469,0.164,0.592h-2.459c0.229-0.123,0.395-0.29,0.475-0.592l1.338-5.064c0.117-0.426-0.031-0.55-0.223-0.618
		l2.258-0.583l-0.213,1.107c0.582-0.456,1.283-0.863,2.119-0.863C75,37.897,75.631,38.639,75.285,39.967L75.285,39.967z"/>
	<path fill="#3E6DB2" d="M57.158,39.967l-1.035,3.952c-0.076,0.302,0.012,0.469,0.176,0.592h-2.451
		c0.252-0.123,0.395-0.29,0.473-0.592l0.891-3.414c0.143-0.538,0.363-1.442-0.639-1.442c-0.387,0-0.873,0.286-1.119,0.549
		l-1.117,4.308c-0.082,0.302,0.016,0.469,0.164,0.592h-2.459c0.227-0.123,0.395-0.29,0.473-0.592l1.348-5.064
		c0.111-0.426-0.031-0.55-0.229-0.618l2.254-0.583l-0.211,1.107c0.582-0.456,1.283-0.863,2.119-0.863
		C56.875,37.897,57.506,38.639,57.158,39.967L57.158,39.967z"/>
	<path opacity="0.7" fill="#3E6DB2" d="M9.428,50.473c9.836,0,17.654-4.634,21.367-7.406c-3.501,1.902-11.947,5.162-19.774,5.162
		c-4.493,0-8.11-2.068-8.11-4.623c0-1.031,0.59-1.982,1.594-2.754c-2.358,0.944-3.911,2.547-3.911,4.362
		C0.593,48.118,4.613,50.473,9.428,50.473L9.428,50.473z"/>
	<path opacity="0.7" fill="#3E6DB2" d="M68.246,32.143c5.406,0.682,8.924,2.771,8.924,5.594c0,0.465-0.113,0.917-0.309,1.349
		c1.592-0.998,2.545-2.256,2.545-3.618c0-3.269-4.697-5.674-12.166-5.921c-7.475-0.252-17.766,2.102-27.579,6.832
		C42.254,35.129,56.793,30.695,68.246,32.143L68.246,32.143z"/>
	<path fill="#3E6DB2" d="M37.762,49.403c-0.031,0.122,0,0.199,0.063,0.24h-0.607c0.086-0.041,0.151-0.118,0.182-0.24l0.686-2.68
		c0.079-0.301,0.104-0.327,0-0.5c-0.031-0.063-0.078-0.15-0.148-0.23h1.117l0.962,1.858l0.417-1.616
		c0.031-0.126,0-0.194-0.056-0.242h0.607c-0.087,0.048-0.15,0.116-0.18,0.242l-0.947,3.664c0,0-1.472-2.903-1.458-2.95
		L37.762,49.403L37.762,49.403z"/>
	<path fill="#3E6DB2" d="M41.971,47.395c0.039-0.166-0.039-0.203-0.104-0.229l1.018-0.136c0,0-0.338,1.332-0.418,1.639
		c-0.119,0.455,0.08,0.515,0.229,0.515c0.111,0,0.246-0.087,0.307-0.162l0.426-1.627c0.039-0.166-0.041-0.203-0.1-0.229l0.99-0.136
		l-0.496,1.949c-0.078,0.29-0.064,0.377,0.08,0.424l-0.836,0.316c-0.119-0.053-0.158-0.18-0.119-0.352
		c-0.203,0.157-0.436,0.342-0.756,0.342c-0.387,0-0.756-0.236-0.543-1.067C41.703,48.436,41.971,47.395,41.971,47.395L41.971,47.395
		z"/>
	<path fill="#3E6DB2" d="M45.785,47.524H45.5l1.42-1.095l-0.182,0.688h0.543l-0.102,0.407h-0.551l-0.332,1.283
		c-0.143,0.579,0.174,0.569,0.275,0.569c0.135,0,0.197-0.08,0.277-0.139c-0.072,0.148-0.291,0.472-0.742,0.472
		c-0.576,0-0.773-0.42-0.646-0.936L45.785,47.524L45.785,47.524z"/>
	<path fill="#3E6DB2" d="M49.734,47.676c-0.166,0-0.244,0.042-0.346,0.127l-0.412,1.601c-0.031,0.122-0.008,0.199,0.053,0.24h-1.078
		c0.086-0.041,0.152-0.118,0.182-0.24l0.52-2.014c0.041-0.167-0.039-0.198-0.109-0.224l1.041-0.136l-0.119,0.457
		c0.229-0.318,0.457-0.457,0.625-0.457c0.109,0,0.141,0.009,0.186,0.036L50.01,48.1C50.018,47.842,49.883,47.676,49.734,47.676
		L49.734,47.676z"/>
	<path fill="#3E6DB2" d="M51.83,49.403c-0.031,0.122-0.008,0.199,0.055,0.24H50.82c0.088-0.041,0.15-0.118,0.182-0.24l0.512-2.009
		c0.049-0.166-0.039-0.203-0.094-0.229l1.018-0.136L51.83,49.403L51.83,49.403z M51.744,46.396c0.07-0.264,0.305-0.473,0.527-0.473
		c0.221,0,0.348,0.209,0.275,0.473c-0.062,0.258-0.299,0.467-0.521,0.467C51.807,46.863,51.672,46.654,51.744,46.396L51.744,46.396z
		"/>
	<path fill="#3E6DB2" d="M53.881,47.524h-0.283l1.416-1.095l-0.182,0.688h0.545l-0.102,0.407h-0.547l-0.33,1.283
		c-0.148,0.579,0.166,0.569,0.275,0.569c0.129,0,0.191-0.08,0.27-0.139c-0.07,0.148-0.293,0.472-0.74,0.472
		c-0.568,0-0.773-0.42-0.639-0.936L53.881,47.524L53.881,47.524z"/>
	<path fill="#3E6DB2" d="M57.023,49.403c-0.031,0.122,0,0.199,0.062,0.24h-1.072c0.088-0.041,0.152-0.118,0.182-0.24l0.521-2.009
		c0.039-0.166-0.049-0.203-0.102-0.229l1.016-0.136L57.023,49.403L57.023,49.403z M56.938,46.396
		c0.07-0.264,0.305-0.473,0.527-0.473c0.221,0,0.348,0.209,0.283,0.473c-0.07,0.258-0.305,0.467-0.527,0.467
		C57,46.863,56.875,46.654,56.938,46.396L56.938,46.396z"/>
	<path fill="#3E6DB2" d="M59.467,49.71c-0.938,0-1.025-0.763-0.883-1.296c0.197-0.762,0.764-1.384,1.553-1.384
		c0.773,0,1.057,0.564,0.857,1.332C60.791,49.163,60.176,49.71,59.467,49.71L59.467,49.71z M60.184,48.345
		c0.133-0.562,0.119-0.977-0.148-0.97c-0.246,0.005-0.475,0.348-0.641,1.01c-0.172,0.715-0.023,0.965,0.152,0.959
		C59.766,49.34,59.986,49.129,60.184,48.345L60.184,48.345z"/>
	<path fill="#3E6DB2" d="M64.188,49.403c-0.031,0.122-0.008,0.199,0.055,0.24h-1.037c0.074-0.041,0.148-0.118,0.182-0.24
		l0.336-1.314c0.039-0.16,0.158-0.524-0.189-0.524c-0.109,0-0.283,0.093-0.346,0.182l-0.426,1.657
		c-0.033,0.122-0.008,0.199,0.055,0.24H61.76c0.088-0.041,0.15-0.118,0.182-0.24l0.52-2.014c0.041-0.167,0-0.224-0.07-0.253
		l0.979-0.112l-0.08,0.324c0.244-0.2,0.482-0.318,0.787-0.318c0.428,0,0.639,0.307,0.498,0.848L64.188,49.403L64.188,49.403z"/>
	<path fill="#3E6DB2" d="M66.023,48.03l0.238-0.826c0.203-0.085,0.557-0.174,0.936-0.174c0.27,0,0.838,0.053,0.607,0.945
		l-0.322,1.229c-0.039,0.168-0.057,0.216,0.062,0.274l-0.764,0.235c-0.09-0.063-0.148-0.121-0.127-0.301
		c-0.182,0.151-0.465,0.297-0.725,0.297c-0.41,0-0.514-0.38-0.434-0.693c0.057-0.209,0.205-0.44,0.48-0.604
		c0.277-0.18,0.715-0.234,0.922-0.361c0.104-0.066,0.119-0.134,0.141-0.243c0.064-0.269-0.014-0.422-0.18-0.422
		C66.535,47.386,66.16,47.803,66.023,48.03L66.023,48.03z M66.576,48.507c-0.143,0.093-0.252,0.198-0.291,0.371
		c-0.064,0.241,0.053,0.339,0.188,0.339c0.086,0,0.16-0.041,0.213-0.076l0.197-0.773C66.756,48.432,66.691,48.436,66.576,48.507
		L66.576,48.507z"/>
	<path fill="#3E6DB2" d="M69.752,46.315c0.039-0.172-0.031-0.208-0.102-0.235l1.039-0.156l-0.898,3.479
		c-0.023,0.122,0,0.199,0.064,0.24h-1.08c0.086-0.041,0.146-0.118,0.182-0.24L69.752,46.315L69.752,46.315z"/>
	<path fill="#3E6DB2" d="M71.699,47.808c0.104-0.393,0.457-0.777,1.133-0.777c0.111,0,0.371,0.026,0.586,0.076l-0.221,0.924
		c-0.023-0.274-0.096-0.668-0.355-0.668c-0.23,0-0.324,0.109-0.354,0.232c-0.047,0.171,0.123,0.257,0.275,0.363
		c0.252,0.189,0.541,0.399,0.41,0.9c-0.158,0.631-0.844,0.852-1.176,0.852c-0.252,0-0.488-0.047-0.725-0.199l0.229-0.939
		c-0.023,0.385,0.117,0.772,0.408,0.772c0.262,0,0.379-0.154,0.41-0.267c0.049-0.173-0.045-0.217-0.338-0.453
		C71.643,48.362,71.619,48.118,71.699,47.808L71.699,47.808z"/>
	<path fill="#3E6DB2" d="M76.996,40.419c0-0.434,0.314-0.761,0.725-0.761c0.402,0,0.725,0.327,0.725,0.761
		c0,0.441-0.322,0.767-0.725,0.767C77.311,41.186,76.996,40.86,76.996,40.419L76.996,40.419z M77.721,41.337
		c0.488,0,0.904-0.388,0.904-0.918c0-0.527-0.416-0.914-0.904-0.914c-0.49,0-0.906,0.387-0.906,0.914
		C76.814,40.949,77.23,41.337,77.721,41.337L77.721,41.337z M77.529,40.49h0.184l0.268,0.459h0.18l-0.289-0.465
		c0.148-0.02,0.26-0.102,0.26-0.29c0-0.209-0.119-0.303-0.365-0.303h-0.393v1.058h0.156V40.49L77.529,40.49z M77.529,40.355v-0.327
		h0.215c0.109,0,0.229,0.025,0.229,0.155c0,0.163-0.119,0.172-0.252,0.172H77.529L77.529,40.355z"/>
</g>
<g>
</g>
<g>
</g>
<g>
</g>
<g>
</g>
<g>
</g>
<g>
</g>
</svg>
