<?xml version="1.0" encoding="utf-8"?>
<!-- Generator: Adobe Illustrator 16.0.0, SVG Export Plug-In . SVG Version: 6.00 Build 0)  -->
<!DOCTYPE svg PUBLIC "-//W3C//DTD SVG 1.1//EN" "http://www.w3.org/Graphics/SVG/1.1/DTD/svg11.dtd">
<svg version="1.1" id="Layer_1" xmlns="http://www.w3.org/2000/svg" xmlns:xlink="http://www.w3.org/1999/xlink" x="0px" y="0px"
	 width="80px" height="20.943px" viewBox="0 0 80 20.943" enable-background="new 0 0 80 20.943" xml:space="preserve">
<g>
	<g>
		<path fill="#142A3E" d="M36.555,19.955c-0.042,0.155-0.007,0.25,0.079,0.303h-0.787c0.108-0.053,0.192-0.147,0.234-0.303
			l0.89-3.366c0.1-0.379,0.126-0.411,0-0.628c-0.044-0.081-0.104-0.189-0.201-0.29h1.45l1.241,2.334l0.537-2.031
			c0.041-0.154,0.005-0.242-0.074-0.303h0.787c-0.111,0.061-0.192,0.148-0.234,0.303l-1.216,4.601c0,0-1.908-3.642-1.892-3.702
			L36.555,19.955z"/>
		<path fill="#142A3E" d="M41.979,17.432c0.057-0.209-0.045-0.257-0.13-0.29l1.317-0.169c0,0-0.443,1.674-0.545,2.058
			c-0.151,0.573,0.107,0.648,0.303,0.648c0.136,0,0.312-0.109,0.397-0.203l0.54-2.044c0.055-0.209-0.045-0.257-0.131-0.29
			l1.289-0.169l-0.648,2.449c-0.097,0.364-0.077,0.473,0.107,0.533l-1.083,0.397c-0.152-0.066-0.205-0.229-0.153-0.445
			c-0.262,0.203-0.559,0.432-0.973,0.432c-0.497,0-0.981-0.297-0.705-1.343C41.633,18.74,41.979,17.432,41.979,17.432z"/>
		<path fill="#142A3E" d="M46.91,17.593h-0.366l1.826-1.375l-0.229,0.862h0.698l-0.134,0.513H48l-0.427,1.613
			c-0.193,0.729,0.22,0.715,0.355,0.715c0.172,0,0.246-0.102,0.348-0.176c-0.085,0.189-0.375,0.594-0.95,0.594
			c-0.739,0-1.002-0.525-0.832-1.174L46.91,17.593z"/>
		<path fill="#142A3E" d="M52.003,17.782c-0.214,0-0.316,0.055-0.446,0.162l-0.532,2.011c-0.041,0.155-0.006,0.25,0.074,0.303
			h-1.397c0.115-0.053,0.2-0.147,0.241-0.303l0.669-2.529c0.056-0.21-0.053-0.251-0.14-0.284l1.342-0.169l-0.151,0.573
			c0.296-0.397,0.583-0.573,0.797-0.573c0.142,0,0.191,0.015,0.248,0.047l-0.343,1.296C52.366,17.992,52.204,17.782,52.003,17.782z"
			/>
		<path fill="#142A3E" d="M54.707,19.955c-0.041,0.155,0,0.25,0.08,0.303h-1.379c0.108-0.053,0.193-0.147,0.234-0.303l0.668-2.523
			c0.053-0.209-0.058-0.257-0.132-0.29l1.317-0.169L54.707,19.955z M54.6,16.178c0.087-0.331,0.395-0.595,0.679-0.595
			c0.283,0,0.451,0.264,0.363,0.595c-0.086,0.322-0.393,0.586-0.676,0.586C54.682,16.764,54.514,16.5,54.6,16.178z"/>
		<path fill="#142A3E" d="M57.363,17.593h-0.368l1.827-1.375l-0.229,0.862h0.699l-0.136,0.513h-0.705l-0.427,1.613
			c-0.191,0.729,0.22,0.715,0.354,0.715c0.173,0,0.247-0.102,0.35-0.176c-0.086,0.189-0.376,0.594-0.951,0.594
			c-0.739,0-1.003-0.525-0.832-1.174L57.363,17.593z"/>
		<path fill="#142A3E" d="M61.415,19.955c-0.041,0.155,0,0.25,0.08,0.303h-1.379c0.109-0.053,0.193-0.147,0.234-0.303l0.668-2.523
			c0.056-0.209-0.058-0.257-0.132-0.29l1.317-0.169L61.415,19.955z M61.309,16.178c0.088-0.331,0.395-0.595,0.678-0.595
			s0.452,0.264,0.363,0.595c-0.086,0.322-0.393,0.586-0.676,0.586S61.222,16.5,61.309,16.178z"/>
		<path fill="#142A3E" d="M64.569,20.339c-1.209,0-1.315-0.958-1.139-1.626c0.253-0.957,0.992-1.74,2.01-1.74
			c0.994,0,1.364,0.709,1.109,1.674C66.282,19.651,65.491,20.339,64.569,20.339z M65.495,18.626
			c0.175-0.709,0.152-1.228-0.192-1.222c-0.314,0.007-0.612,0.438-0.82,1.269c-0.222,0.904-0.037,1.214,0.195,1.208
			C64.964,19.874,65.247,19.611,65.495,18.626z"/>
		<path fill="#142A3E" d="M70.663,19.955c-0.041,0.155-0.006,0.25,0.074,0.303h-1.344c0.108-0.053,0.192-0.147,0.233-0.303
			l0.437-1.653c0.053-0.202,0.211-0.661-0.239-0.661c-0.147,0-0.369,0.122-0.451,0.229l-0.551,2.085
			c-0.041,0.155-0.009,0.25,0.073,0.303h-1.361c0.108-0.053,0.192-0.147,0.233-0.303l0.67-2.529c0.056-0.21,0.005-0.284-0.088-0.318
			l1.264-0.141l-0.109,0.404c0.32-0.251,0.627-0.398,1.018-0.398c0.557,0,0.828,0.385,0.646,1.066L70.663,19.955z"/>
	</g>
	<path fill="#142A3E" d="M10.664,8.662l3.441-5.244h2.51c-0.209,0.104-0.392,0.287-0.472,0.586l-2.057,7.677
		c-0.077,0.286,0.008,0.469,0.158,0.586h-2.546c0.225-0.117,0.371-0.3,0.448-0.586l1.704-6.363c0.042-0.156,0.136-0.325,0.136-0.325
		L13.76,5.344l-4.753,7.105L8.056,5.5L7.961,5.175c0,0-0.062,0.234-0.091,0.338l-1.652,6.168c-0.076,0.286,0.009,0.469,0.184,0.586
		H4.91c0.237-0.117,0.407-0.3,0.483-0.586L7.45,4.004c0.066-0.247-0.053-0.481-0.219-0.586h2.595L10.664,8.662z"/>
	<path fill="#142A3E" d="M21.388,10.233c-0.398,1.047-2.146,2.163-3.771,2.163c-1.563,0-2.603-1.235-2.072-3.213
		c0.46-1.718,2.018-3.188,3.788-3.188c1.454,0,2.432,0.833,1.853,2.993h-3.758c-0.011,0.039-0.028,0.104-0.053,0.195
		c-0.213,0.885-0.002,2.225,1.198,2.225C19.722,11.407,20.763,10.969,21.388,10.233z M19.088,6.723c-0.606,0-1.181,0.65-1.436,1.51
		h1.965C19.865,7.308,19.598,6.723,19.088,6.723z"/>
	<path fill="#142A3E" d="M22.956,6.476c0.535-0.234,1.354-0.481,2.348-0.481c0.69,0,2.092,0.156,1.568,2.108
		c-0.076,0.286-0.822,3.071-0.843,3.149c-0.102,0.378-0.164,0.521,0.172,0.625l-1.687,0.547c-0.23-0.183-0.389-0.312-0.293-0.808
		c-0.489,0.378-1.252,0.78-1.979,0.78c-1.079,0-1.334-0.949-1.145-1.652c0.132-0.495,0.512-1.054,1.247-1.444
		c0.733-0.43,2.024-0.586,2.526-0.924c0.209-0.143,0.274-0.39,0.318-0.599c0.16-0.599-0.021-1.054-0.566-1.054
		c-0.934,0-1.794,0.95-2.206,1.626L22.956,6.476z M22.847,10.458c-0.171,0.637,0.135,0.898,0.571,0.898
		c0.34,0,0.637-0.156,0.879-0.339l0.52-1.938c-0.356,0.156-0.586,0.195-1.01,0.377C23.344,9.69,22.979,9.963,22.847,10.458z"/>
	<path fill="#142A3E" d="M34.729,3.249l-2.044,7.261c-0.061,0.361-0.09,0.436,0.06,0.661l-2.375,1.413l0.258-0.812
		c-0.413,0.273-1.053,0.624-1.768,0.624c-1.273,0-2.08-1.196-1.554-3.162c0.474-1.77,2.189-3.24,3.789-3.24
		c0.51,0,0.709,0.117,0.972,0.312l0.604-1.953c0.111-0.416-0.113-0.481-0.297-0.52L34.729,3.249z M30.103,11.382
		c0.278,0,0.495-0.131,0.665-0.222l1.087-4.06c-0.12-0.182-0.2-0.338-0.563-0.338c-1.03,0-1.795,1.223-2.066,2.237
		C28.694,10.978,29.617,11.382,30.103,11.382z"/>
	<path fill="#142A3E" d="M33.428,13.133l1.733-6.396c0.08-0.299-0.017-0.481-0.183-0.585l2.357-0.593c0,0-0.04,0.192-0.121,0.491
		l-1.703,6.467c-1.244,5.03-4.222,4.93-5.735,4.609C29.776,17.126,32.563,16.388,33.428,13.133z"/>
	<path fill="#142A3E" d="M40.403,8.305c1.976,0,2.62,1.444,2.152,3.188c-0.5,1.822-2.062,3.214-3.854,3.214
		c-2.28,0-2.547-1.808-2.171-3.123C36.997,9.841,38.464,8.305,40.403,8.305z M40.143,9.008c-0.783,0.026-1.448,1.015-1.832,2.537
		c-0.398,1.628-0.049,2.446,0.612,2.421c0.747-0.025,1.395-0.768,1.812-2.511C41.078,10.088,40.974,8.983,40.143,9.008z"/>
	<path fill="#142A3E" d="M49.172,10.27l-1.003,3.749c-0.077,0.286,0.002,0.441,0.164,0.559h-2.412
		c0.227-0.117,0.389-0.272,0.465-0.559l0.899-3.358c0.175-0.651,0.108-1.262-0.644-1.262c-0.449,0-0.87,0.26-1.134,0.52l-1.098,4.1
		c-0.077,0.286,0.003,0.441,0.165,0.559h-2.449c0.226-0.117,0.389-0.272,0.465-0.559l1.988-7.269
		c0.108-0.404-0.101-0.482-0.289-0.547l2.263-0.576L45.72,9.125c0.304-0.273,1.227-0.82,2.038-0.82
		C48.973,8.305,49.529,8.944,49.172,10.27z"/>
	<path fill="#142A3E" d="M60.554,8.553l-0.49,2.017c-0.05-0.676-0.255-1.587-0.945-1.587c-0.618,0-0.912,0.325-0.995,0.637
		c-0.123,0.456,0.28,0.677,0.732,0.976c0.676,0.469,1.398,0.977,1.086,2.147c-0.384,1.431-2.007,1.964-2.891,1.964
		c-0.68,0-1.241-0.169-1.752-0.521l0.534-2.081c-0.07,0.937,0.308,1.835,1.084,1.835c0.74,0,1.096-0.469,1.176-0.768
		c0.132-0.495-0.177-0.612-0.923-1.172c-0.849-0.638-0.976-1.158-0.772-1.913c0.23-0.858,1.083-1.783,2.732-1.783
		C59.42,8.305,60.034,8.371,60.554,8.553z"/>
	<path fill="#142A3E" d="M64.588,8.305c1.974,0,2.619,1.444,2.15,3.188c-0.499,1.822-2.061,3.214-3.854,3.214
		c-2.28,0-2.548-1.808-2.169-3.123C61.181,9.841,62.646,8.305,64.588,8.305z M64.326,9.008c-0.784,0.026-1.448,1.015-1.832,2.537
		c-0.399,1.628-0.05,2.446,0.612,2.421c0.747-0.025,1.395-0.768,1.813-2.511C65.262,10.088,65.156,8.983,64.326,9.008z"/>
	<path fill="#142A3E" d="M73.264,10.27l-1.004,3.749c-0.076,0.286,0.004,0.441,0.166,0.559h-2.39
		c0.251-0.117,0.389-0.272,0.467-0.559l0.867-3.241c0.136-0.507,0.354-1.366-0.629-1.366c-0.376,0-0.849,0.273-1.085,0.521
		l-1.093,4.086c-0.078,0.286,0.014,0.441,0.164,0.559h-2.402c0.227-0.117,0.391-0.272,0.467-0.559l1.309-4.803
		c0.107-0.403-0.03-0.521-0.22-0.585l2.198-0.556l-0.207,1.051c0.564-0.429,1.251-0.82,2.062-0.82
		C72.991,8.305,73.602,9.008,73.264,10.27z"/>
	<path fill="#142A3E" d="M55.601,10.27l-1.005,3.749c-0.076,0.286,0.002,0.441,0.166,0.559h-2.389
		c0.248-0.117,0.388-0.272,0.464-0.559l0.869-3.241c0.136-0.507,0.354-1.366-0.629-1.366c-0.376,0-0.849,0.273-1.085,0.521
		l-1.095,4.086c-0.076,0.286,0.017,0.441,0.166,0.559h-2.401c0.226-0.117,0.388-0.272,0.466-0.559l1.308-4.803
		c0.108-0.403-0.029-0.521-0.218-0.585l2.198-0.556l-0.208,1.051c0.563-0.429,1.252-0.82,2.063-0.82
		C55.325,8.305,55.938,9.008,55.601,10.27z"/>
	<path opacity="0.7" fill="#142A3E" enable-background="new    " d="M9.085,20.231c9.586,0,17.202-4.394,20.82-7.02
		c-3.41,1.801-11.645,4.893-19.271,4.893c-4.378,0-7.901-1.964-7.901-4.387c0-0.977,0.576-1.879,1.549-2.608
		c-2.296,0.896-3.806,2.414-3.806,4.138C0.476,17.999,4.39,20.231,9.085,20.231z"/>
	<path opacity="0.7" fill="#142A3E" enable-background="new    " d="M66.408,2.851c5.268,0.648,8.692,2.626,8.692,5.303
		c0,0.441-0.104,0.87-0.298,1.28c1.554-0.949,2.48-2.139,2.48-3.433c0-3.097-4.58-5.377-11.859-5.615
		c-7.279-0.237-17.312,1.995-26.872,6.479C41.075,5.682,55.247,1.478,66.408,2.851z"/>
	<g>
		<path fill="#142A3E" d="M78.063,8.777h-0.339v0.938h-0.216V8.777h-0.341V8.601h0.896V8.777z M78.91,9.39l0.302-0.79h0.312v1.114
			h-0.203v-0.87h-0.006l-0.331,0.87h-0.152l-0.333-0.87h-0.004v0.87h-0.203V8.601h0.314L78.91,9.39z"/>
	</g>
</g>
</svg>
