<?xml version="1.0" encoding="utf-8"?>
<!-- Generator: Adobe Illustrator 16.0.0, SVG Export Plug-In . SVG Version: 6.00 Build 0)  -->
<!DOCTYPE svg PUBLIC "-//W3C//DTD SVG 1.1//EN" "http://www.w3.org/Graphics/SVG/1.1/DTD/svg11.dtd">
<svg version="1.1" id="Layer_1" xmlns="http://www.w3.org/2000/svg" xmlns:xlink="http://www.w3.org/1999/xlink" x="0px" y="0px"
	 width="80px" height="80px" viewBox="0 0 80 80" enable-background="new 0 0 80 80" xml:space="preserve">
<g>
	<path opacity="0.7" fill="#142A3E" enable-background="new    " d="M16.608,38.284c-0.066,0.18-0.412-0.048-0.813-0.048
		c-0.298,0-1.814,0.334-2.296,0.334c-0.757,0-0.986-0.427-2.077-0.427c-0.883-0.966-1.367-1.099-2.049-1.513l0.032-0.187
		c0.967,0.064,1.154,0.12,2.216,0.52c0.094,0.034,0.243-0.008,0.435,0.071c0.189,0.078,0.18,0.119,0.596,0.236
		c0.867,0.243,0.324,0.026,1.401,0.184c0.722,0.106,0.771,0.119,1.075,0.119c0.47,0,0.718-0.03,0.998-0.51
		c0.293-0.5,0.274-0.403,0.411-0.93c0.031-0.121,0.092-0.098,0.099-0.003c0.11,1.497-0.021,1.17-0.045,1.582
		C16.571,37.984,16.666,38.125,16.608,38.284L16.608,38.284z M13.143,42.491c-0.141-0.345-0.313-0.982-0.46-1.454
		c-0.171-0.547-0.171-0.694-0.171-1.032c0-0.65-0.446-1.153-0.682-1.376c0.497,0,0.938,0.392,1.669,0.392
		c0.321,0,1.105-0.15,1.679-0.247C14.896,40.221,14.167,41.51,13.143,42.491L13.143,42.491z M13.6,43.439
		c0.571,0.102,0.475,0.117,1.014,0.062c0.125-0.014,0.125,0.051,0.039,0.09c-1.367,0.625-1.105,0.391-1.499,0.51
		c-0.261,0.08-0.361,0.217-0.531,0.217c-0.208,0-0.029-0.301-0.3-1.041c-0.225-0.616-0.841-1.098-1.085-1.758
		c-0.416-1.125-0.008-1.56-0.71-1.873c-0.449-0.201-0.876-0.423-1.232-0.69c0.009-0.068,0.015-0.133,0.015-0.192
		c0-0.5-0.047-1.366-0.047-1.646c0-0.013,0-0.024,0.001-0.034c1.793,1.034,1.276,0.86,2.18,1.817
		c0.09,0.096,0.625,0.405,0.625,1.208c0,0.337,0,0.486,0.171,1.033c0.171,0.547,0.375,1.312,0.525,1.59
		C12.912,43.016,13.101,43.354,13.6,43.439L13.6,43.439z M8.306,44.43c-0.057,0-0.114,0-0.172-0.003
		c0.018-0.743,0.171-1.266,0.171-1.766c0-0.806,0.428-1.459,0.428-1.609c0-0.313,0.293-1.008,0.462-1.618
		c0.354,0.265,0.655,0.412,1.108,0.604c0.46,0.196,0.039,0.366,0.515,1.653c0.242,0.654,0.859,1.134,1.081,1.748
		C10.849,44.068,9.62,44.43,8.306,44.43L8.306,44.43z M7.802,38.898c-0.079-0.226-0.046-0.539-0.043-0.551
		c0.006-0.064,0.064-0.112,0.127-0.103c0.064,0.006,0.112,0.063,0.106,0.128c-0.001,0.002-0.029,0.272,0.033,0.449
		c0.091,0.265,0.212,0.513,0.283,0.575c0.071,0.065,0.208,0.1,0.29,0.101c0.01-0.1-0.068-0.372-0.113-0.525
		c-0.092-0.313-0.134-0.457-0.03-0.532c0.021-0.017,0.082-0.048,0.164-0.006C8.544,38.307,8.455,38.18,8.27,37.99
		c-0.089-0.094-0.119-0.263-0.108-0.623c0.006-0.202,0.019-0.402,0.029-0.576c0.012-0.203,0.023-0.377,0.023-0.519
		c0-0.333-0.019-0.433-0.042-0.537c-0.023-0.121-0.048-0.247-0.048-0.673c0-0.393-0.023-0.57-0.038-0.688
		c-0.007-0.058-0.013-0.103-0.013-0.151c0-0.184,0.018-0.315,0.037-0.441c0.017-0.124,0.032-0.243,0.032-0.407
		c0-0.395-0.066-0.442-0.35-0.636l-0.007-0.006c-0.053-0.036-0.068-0.108-0.032-0.164c0.038-0.053,0.111-0.067,0.163-0.029
		l0.01,0.007c0.322,0.219,0.452,0.328,0.452,0.828c0,0.181-0.017,0.313-0.036,0.438c-0.018,0.125-0.034,0.243-0.034,0.41
		c0,0.031,0.003,0.07,0.012,0.124c0.015,0.123,0.039,0.309,0.039,0.716c0,0.402,0.022,0.516,0.043,0.628
		c0.023,0.11,0.047,0.225,0.047,0.582c0,0.148-0.013,0.326-0.024,0.533c-0.011,0.173-0.022,0.368-0.029,0.568
		c-0.011,0.357,0.026,0.436,0.044,0.454c0.3,0.31,0.38,0.474,0.49,0.703c0.025,0.05,0.049,0.101,0.079,0.158
		c0.026,0.046,0.014,0.104-0.021,0.136c-0.038,0.038-0.096,0.043-0.141,0.018c-0.005-0.002-0.09-0.053-0.186-0.11
		c0.016,0.057,0.033,0.12,0.05,0.174c0.107,0.373,0.168,0.61,0.082,0.74c-0.032,0.047-0.079,0.076-0.134,0.083
		c-0.118,0.013-0.359-0.028-0.505-0.158C7.991,39.426,7.832,38.985,7.802,38.898L7.802,38.898z M8.098,31.214
		c0.042-0.057,0.107-0.05,0.166-0.003c0.07,0.055,0.435,0.261,0.657,0.261c0.212,0,0.17-0.142,0.185-0.227
		c0.01-0.041,0.042-0.107,0.058-0.206c0.005-0.037-0.018-0.115,0.009-0.145c0.039-0.052,0.133-0.011,0.125-0.104
		c-0.007-0.078-0.088-0.193-0.134-0.311c3.365,0.41,5.995,3.21,6.137,6.653c-0.018,0.004-0.038-0.006-0.056-0.006
		c-0.306,0-0.354-0.015-1.076-0.12c-1.078-0.158-0.536,0.059-1.401-0.182c-0.416-0.119-0.407-0.151-0.597-0.229
		c-0.191-0.079-0.34-0.035-0.433-0.069c-1.06-0.398-1.25-0.459-2.292-0.536c0.013-0.19,0.019-0.412,0.019-0.694
		c0-0.424-0.073-0.797-0.112-1.103c-0.038-0.306-0.042-0.547-0.103-0.759c-0.281-0.951-0.758-1.061-0.758-1.4
		c0-0.148,0.047,0.038,0.094-0.434c-0.133-0.05-0.351-0.161-0.436-0.226C8.09,31.331,8.056,31.266,8.098,31.214L8.098,31.214z
		 M7.088,42.688c0,0.338,0.16,1.117,0.259,1.676c-2.946-0.401-5.309-2.641-5.899-5.522c0.229-0.086,0.408-0.224,0.643-0.224
		c0.349,0,0.77,0.638,1.815,0.638c1.261,0,2.108-0.473,2.505-0.473c0.182,0,0.529,0.111,1.052,0.111
		c-0.021,0.192-0.042,0.442-0.042,0.67c0,0.617,0.09,0.79,0.09,0.953C7.509,41.691,7.088,41.915,7.088,42.688L7.088,42.688z
		 M0.264,37.559c0-0.741,0.424-0.916,0.965-0.916c0.259,0,0.298-0.134,0.415-0.134c0.082,0,0.024,0.123,0.208,0.134
		c0.133,0.007,0.376-0.02,0.376,0.165c0,0.161-0.068,0.23-0.068,0.297c0,0.136,0.185,0.155,0.342,0.155
		c0.289,0,0.156,0.046,0.323,0.046c0.479,0,0.713-0.71,1.752-0.783c0.152-0.014,0.61-0.049,0.61-0.049
		c0.418,0.225,0.57,0.24,0.73,0.358c0.4,0.288,0.344,0.489,1.124,0.947c0.097,0.397,0.307,0.467,0.406,0.627
		c-0.513-0.001-0.858-0.108-1.037-0.108c-0.396,0-1.244,0.472-2.505,0.472c-1.098,0-1.216-0.637-1.815-0.637
		c-0.565,0-0.465,0.286-1.086,0.286C0.533,38.419,0.264,38.12,0.264,37.559L0.264,37.559z M2.436,33.613
		c0.231,0.111,0.508,0.122,0.645,0.292c0.34,0.425-0.014,1.083,1.445,2.154c-0.605,0-0.911,0.232-1.687,0.749L2.71,36.776
		c-0.064-0.473-0.323-0.515-0.669-0.588c-0.071-0.069-0.176-0.163-0.379-0.163c-0.113,0-0.129,0.023-0.226,0.058
		C1.61,35.188,1.956,34.352,2.436,33.613L2.436,33.613z M2.458,31.874c0.503-0.543,0.962-0.36,1.357,0.007
		c0.191,0.176,0.31,0.106,0.397,0.187c0.059,0.056-0.067,0.104,0.061,0.237c0.092,0.096,0.29,0.243,0.163,0.379
		c-0.11,0.117-0.555,0.3-0.625,0.329c-0.078,0.032-0.117,0.123-0.084,0.199c0.033,0.079,0.121,0.112,0.2,0.085
		c0.338-0.118,0.377-0.163,0.377-0.163c0.167,0.208,0.128,0.367,0.453,0.438c0.654,0.139,1.068,0.017,1.63,0.57
		c0.19,0.185,0.448,0.343,0.696,0.451c0.152,0.505,0.323,0.852,0.323,1.106c0,0.088-0.004,0.167-0.009,0.239
		c-0.167-0.121-0.26-0.217-0.367-0.324c-0.046-0.049-0.093-0.099-0.152-0.153c-0.061-0.057-0.155-0.115-0.306-0.207
		c-0.114-0.069-0.271-0.163-0.326-0.218c-0.044-0.045-0.098-0.107-0.162-0.176c-0.278-0.314-0.658-0.746-1.076-0.746
		c-0.29,0-0.458,0.092-0.486,0.108c-0.112,0.06-0.154,0.197-0.092,0.309c0.06,0.112,0.197,0.154,0.307,0.093
		c0.009-0.003,0.1-0.053,0.271-0.053c0.212,0,0.54,0.371,0.734,0.59c0.07,0.077,0.127,0.143,0.182,0.199
		c0.095,0.093,0.255,0.189,0.412,0.285c0.083,0.05,0.2,0.12,0.229,0.148c0.05,0.046,0.092,0.09,0.137,0.136
		c0.135,0.139,0.274,0.28,0.56,0.465c0.012,0.009,0.022,0.014,0.034,0.02c-0.116,0.292-0.288,0.376-0.305,0.794L6.99,37.203
		C6.577,36.89,6.575,36.737,6.248,36.5c-0.163-0.119-0.313-0.135-0.732-0.358l-0.66-0.415c-1.5-1.104-0.864-1.426-1.445-2.155
		c-0.284-0.354-0.536-0.181-0.954-0.514C2.051,32.735,2.097,32.261,2.458,31.874L2.458,31.874z M7.192,30.517
		c0.097,0.229,0.271,0.419,0.271,0.791c0,0.491-0.604,0.958-0.604,1.767c0,0.329,0.028,0.62,0.073,0.88
		c-0.672-0.492-0.628-0.668-2.07-0.849L4.793,32.98c0,0,0.143-0.117,0.143-0.377c0-0.228-0.235-0.508-0.235-0.508
		c0-0.066,0.024-0.244-0.296-0.48C5.227,31.061,6.173,30.68,7.192,30.517L7.192,30.517z M17.117,37.007
		c0-0.363-0.04-0.648-0.046-0.826c-0.006-0.175-0.1-0.571-0.503-0.571c-0.404,0-0.481,0.384-0.521,0.555
		c-0.042,0.168-0.035,0.193-0.175,0.402c-0.042,0.062-0.085,0.135-0.135,0.209c-0.308-3.554-3.108-6.394-6.643-6.765
		c-0.012-0.043-0.025-0.085-0.029-0.12c-0.011-0.1-0.159-0.602-0.978-0.602c-0.598,0-0.896,0.296-0.95,0.77
		c-1.17,0.185-2.252,0.644-3.175,1.306c-0.006-0.002-0.012-0.006-0.016-0.007c-0.123-0.083-0.44-0.3-0.813-0.3
		c-0.375,0-0.739,0.218-1.013,0.5c-0.406,0.415-0.687,1.113-0.045,1.772c-0.558,0.847-0.948,1.812-1.123,2.849
		c-0.928,0.101-1.172,0.848-1.172,1.38c0,0.882,0.491,1.27,1.213,1.343c0.628,3.13,3.212,5.55,6.424,5.934
		c0.002,0.034,0.004,0.062,0.004,0.09c0,0.344-0.117,0.545-0.117,0.719c0,0.086,0.03,0.23,0.26,0.23
		c0.176,0,0.222-0.041,0.363-0.041c0.243,0,0.398,0.082,0.731,0.082c0.129,0,0.707-0.041,0.938-0.053
		c0.099-0.01,0.134-0.158,0.033-0.201c-0.041-0.02-0.308-0.064-0.43-0.109c-0.124-0.041-0.396-0.24-0.561-0.326
		c-0.142-0.072-0.302-0.152-0.403-0.338c0.023,0,0.047,0,0.07,0c1.359,0,2.631-0.363,3.727-0.998
		c0.05,0.236,0.012,0.286,0.091,0.506c0.129,0.367,0.421,0.453,0.755,0.334c0.183-0.065,0.329-0.17,0.445-0.211
		c0.116-0.043,0.312-0.029,0.656-0.151c0.342-0.12,0.628-0.263,0.786-0.336c0.145-0.068,0.508-0.269,0.372-0.649
		c-0.143-0.408-0.48-0.34-0.678-0.322c-0.35,0.035-0.233,0.037-0.821-0.062c-0.084-0.017-0.166-0.05-0.242-0.116
		c1.164-1.089,1.979-2.544,2.261-4.183c0.059-0.007,0.104-0.01,0.137-0.01c0.298,0,0.473,0.123,0.679,0.123
		c0.385,0,0.603-0.326,0.603-0.679c0-0.195-0.047-0.312-0.047-0.433C17.029,37.576,17.117,37.371,17.117,37.007L17.117,37.007z"/>
	<path fill="#142A3E" d="M19.465,40.509l-0.092,0.601h2.801l0.083-0.601H19.465L19.465,40.509z M23.839,40.509l0.157,0.601H26.2
		l0.158-0.601H23.839L23.839,40.509z M27.938,40.509l0.084,0.601h2.801l-0.092-0.601H27.938L27.938,40.509z M31.422,40.509
		c0.583,0.481,1.42,0.767,2.554,0.767c2.021,0,2.896-0.592,2.896-0.592v-0.175H31.422L31.422,40.509z M37.908,40.509
		c0.49,0.527,1.131,0.763,1.742,0.763c0.791,0,1.286-0.373,1.586-0.763H37.908L37.908,40.509z M42.116,40.509
		c0.397,0.415,1.036,0.787,1.866,0.787c1.557,0,2.65-0.677,2.65-0.677s0.442,0.635,1.684,0.635c0.951,0,1.81-0.311,1.81-0.311
		v-0.435H42.116L42.116,40.509z M50.682,40.509v0.619h2.557v-0.619H50.682L50.682,40.509z M56.312,40.509
		c0.686,0.528,1.623,0.771,2.607,0.771s1.922-0.242,2.605-0.771H56.312L56.312,40.509z M63.057,40.509v0.619h2.559v-0.619H63.057
		L63.057,40.509z M67.336,40.509c0.364,0.367,0.885,0.619,1.471,0.619h4.438v-0.619H67.336L67.336,40.509z M74.782,40.509
		c0.602,0.444,1.501,0.745,2.835,0.745c1.453,0,2.06-0.306,2.06-0.306v-0.439H74.782L74.782,40.509z"/>
	<path fill="#142A3E" d="M19.586,39.721l-0.122,0.788h2.792l0.113-0.788H19.586L19.586,39.721z M23.63,39.721l0.209,0.788h2.518
		l0.209-0.788H23.63L23.63,39.721z M27.828,39.721l0.11,0.788h2.793l-0.122-0.788H27.828L27.828,39.721z M30.771,39.721
		c0.165,0.298,0.38,0.563,0.65,0.788h5.45v-0.788h-1.9c-0.102,0.005-0.211,0.007-0.324,0.007c-0.102,0-0.198-0.002-0.29-0.006
		L30.771,39.721L30.771,39.721z M37.405,39.721c0.135,0.313,0.306,0.575,0.503,0.788h3.328c0.244-0.318,0.361-0.645,0.404-0.789
		L37.405,39.721L37.405,39.721z M41.667,39.721c0.028,0.216,0.187,0.511,0.449,0.788h8.01v-0.788H41.667L41.667,39.721z
		 M50.682,39.721v0.788h2.557v-0.788H50.682L50.682,39.721z M55.617,39.721c0.182,0.312,0.417,0.573,0.695,0.788h5.215
		c0.277-0.215,0.516-0.476,0.695-0.788H55.617L55.617,39.721z M63.057,39.721v0.788h2.559v-0.788H63.057L63.057,39.721z
		 M66.852,39.721c0.088,0.284,0.256,0.559,0.484,0.788h5.909v-0.788H66.852L66.852,39.721z M74.066,39.721
		c0.168,0.287,0.4,0.556,0.716,0.788h4.895v-0.788H74.066L74.066,39.721z"/>
	<path fill="#142A3E" d="M22.369,39.721l0.44-3.115l0.821,3.115h2.936l0.821-3.115l0.44,3.115h2.781l-0.096-0.62
		c0.065,0.219,0.15,0.426,0.258,0.621l3.586-0.001c-1.204-0.067-1.402-0.561-1.402-1.083h4.175c0.045,0.414,0.141,0.773,0.273,1.084
		l4.237-0.001c0.012-0.049,0.02-0.077,0.02-0.077c0,0.025,0.002,0.049,0.007,0.078l8.459-0.001V39.39c0,0-0.246,0.042-0.478,0.042
		c-0.434,0-0.888-0.206-0.888-0.841v-1.963h1.364v-1.64H48.77v-2.381h-2.742v2.374h-1.063v1.647h1.063v2.053
		c0,0.351-0.25,0.86-0.887,0.86c-0.47,0-0.832-0.35-0.832-0.86v-6.064h-2.711v3.197c0,0-0.603-1.018-1.937-1.018
		c-0.488,0-2.268,0.301-2.531,2.641c0.002,0.017,0.003,0.032,0.004,0.047c-0.004-0.018-0.006-0.033-0.004-0.047
		c-0.321-1.66-1.373-2.626-3.272-2.626c-2.428,0-3.517,1.693-3.517,3c0,0.071,0.003,0.141,0.005,0.212l-0.747-4.835h-3.487
		l-1.016,3.868l-1.018-3.868h-3.482l-1.011,6.533H22.369L22.369,39.721z M36.872,39.721v-0.522c0,0-0.646,0.453-1.9,0.522H36.872
		L36.872,39.721z M53.238,39.721v-1.032c0-0.244,0.555-1.503,1.791-1.503c0.07,0,0.166,0.016,0.265,0.035
		c-0.042,0.21-0.065,0.433-0.065,0.671v0.256c0,0.623,0.143,1.143,0.39,1.573h6.604c0.248-0.43,0.389-0.95,0.389-1.573v-0.256
		c0-2.105-1.752-3.081-3.689-3.081c-1.341,0-2.592,0.467-3.236,1.449v-1.236c0,0-0.134-0.043-0.438-0.043
		c-1.008,0-1.688,0.908-2.01,1.568v-1.561h-2.557v4.733H53.238L53.238,39.721z M65.613,39.721v-2.07c0-0.425,0.08-0.89,0.564-0.89
		s0.606,0.468,0.606,0.89v1.633c0,0.146,0.022,0.292,0.065,0.438h6.395v-4.729h-2.684v4.345h-0.662
		c-0.182,0-0.412-0.148-0.412-0.445v-2.121c0-1.207-1.063-1.943-1.986-1.943c-0.754,0-1.407,0.401-1.885,1.387V34.99h-2.559v4.733
		h2.557V39.721z M79.677,39.721v-0.618c0,0-0.52,0.335-1.28,0.335c-0.758,0-1.551-0.324-1.551-1.449
		c0-1.123,0.932-1.438,1.477-1.438c0.546,0,1.354,0.308,1.354,0.308v-1.742c0,0-0.671-0.292-2.104-0.292
		c-3.4,0-3.944,1.891-3.944,3.163c0,0.52,0.094,1.156,0.438,1.732H79.677L79.677,39.721z M70.561,34.351v-1.739h2.686v1.739H70.561
		L70.561,34.351z M40.453,39.396c-0.387,0-0.881-0.153-0.881-1.424c0-1.27,0.495-1.424,0.881-1.424c0.386,0,0.883,0.154,0.883,1.424
		C41.336,39.244,40.84,39.396,40.453,39.396L40.453,39.396z M32.956,37.609c0.096-0.938,0.57-1.198,0.955-1.198
		c0.384,0,0.858,0.26,0.955,1.198H32.956L32.956,37.609z M58.877,39.396c-0.386,0-0.881-0.153-0.881-1.424
		c0-1.27,0.495-1.424,0.881-1.424c0.387,0,0.882,0.154,0.882,1.424C59.759,39.244,59.264,39.396,58.877,39.396L58.877,39.396z"/>
</g>
</svg>
