<?xml version="1.0" encoding="utf-8"?>
<!-- Generator: Adobe Illustrator 16.0.0, SVG Export Plug-In . SVG Version: 6.00 Build 0)  -->
<!DOCTYPE svg PUBLIC "-//W3C//DTD SVG 1.1//EN" "http://www.w3.org/Graphics/SVG/1.1/DTD/svg11.dtd">
<svg version="1.1" id="Layer_1" xmlns="http://www.w3.org/2000/svg" xmlns:xlink="http://www.w3.org/1999/xlink" x="0px" y="0px"
	 width="80px" height="20.943px" viewBox="0 0 80 20.943" enable-background="new 0 0 80 20.943" xml:space="preserve">
<g>
	<path opacity="0.7" fill="#142A3E" enable-background="new    " d="M16.879,11.154c-0.065,0.18-0.412-0.049-0.812-0.049
		c-0.298,0-1.814,0.334-2.296,0.334c-0.757,0-0.986-0.426-2.077-0.426c-0.883-0.967-1.367-1.1-2.049-1.514l0.031-0.188
		c0.968,0.064,1.154,0.121,2.217,0.521c0.094,0.034,0.243-0.008,0.435,0.071c0.189,0.078,0.18,0.119,0.596,0.236
		c0.867,0.242,0.324,0.025,1.401,0.184c0.722,0.105,0.771,0.119,1.075,0.119c0.47,0,0.718-0.03,0.998-0.51
		c0.293-0.5,0.273-0.403,0.411-0.931c0.03-0.12,0.092-0.098,0.099-0.003c0.11,1.497-0.021,1.17-0.045,1.582
		C16.842,10.853,16.938,10.994,16.879,11.154L16.879,11.154z M13.414,15.361c-0.141-0.346-0.312-0.982-0.46-1.454
		c-0.171-0.547-0.171-0.694-0.171-1.032c0-0.65-0.446-1.152-0.682-1.376c0.497,0,0.938,0.392,1.669,0.392
		c0.32,0,1.104-0.149,1.679-0.246C15.167,13.091,14.438,14.379,13.414,15.361L13.414,15.361z M13.871,16.308
		c0.571,0.103,0.476,0.117,1.015,0.062c0.125-0.016,0.125,0.051,0.038,0.09c-1.366,0.625-1.104,0.393-1.499,0.512
		c-0.261,0.08-0.36,0.217-0.53,0.217c-0.208,0-0.029-0.301-0.3-1.041c-0.226-0.616-0.842-1.098-1.086-1.758
		c-0.416-1.125-0.008-1.562-0.71-1.875c-0.448-0.201-0.876-0.422-1.231-0.689c0.009-0.068,0.015-0.133,0.015-0.191
		c0-0.5-0.047-1.367-0.047-1.646c0-0.014,0-0.024,0.001-0.034c1.793,1.034,1.276,0.86,2.18,1.817
		c0.091,0.096,0.625,0.404,0.625,1.207c0,0.338,0,0.486,0.172,1.035c0.171,0.547,0.375,1.312,0.524,1.59
		C13.184,15.886,13.372,16.224,13.871,16.308L13.871,16.308z M8.577,17.3c-0.057,0-0.114,0-0.172-0.004
		c0.018-0.742,0.171-1.266,0.171-1.766c0-0.807,0.428-1.459,0.428-1.609c0-0.312,0.293-1.008,0.462-1.617
		c0.354,0.265,0.655,0.412,1.108,0.604c0.46,0.195,0.039,0.365,0.515,1.652c0.242,0.653,0.859,1.135,1.081,1.748
		C11.12,16.937,9.892,17.3,8.577,17.3L8.577,17.3z M8.073,11.767c-0.079-0.226-0.046-0.539-0.043-0.551
		c0.006-0.063,0.064-0.111,0.127-0.103c0.064,0.006,0.112,0.063,0.106,0.128c-0.001,0.002-0.029,0.271,0.032,0.449
		c0.092,0.265,0.212,0.513,0.283,0.574c0.071,0.065,0.208,0.101,0.29,0.102c0.01-0.1-0.068-0.372-0.113-0.525
		c-0.092-0.312-0.134-0.457-0.029-0.531c0.021-0.018,0.082-0.049,0.164-0.006c-0.075-0.127-0.164-0.254-0.35-0.444
		c-0.089-0.095-0.119-0.263-0.107-0.623c0.006-0.202,0.019-0.402,0.028-0.576c0.013-0.203,0.023-0.377,0.023-0.519
		c0-0.334-0.02-0.434-0.042-0.537C8.42,8.484,8.396,8.357,8.396,7.931c0-0.393-0.023-0.569-0.038-0.688
		C8.351,7.185,8.345,7.14,8.345,7.093c0-0.185,0.018-0.315,0.036-0.441c0.018-0.124,0.032-0.243,0.032-0.407
		c0-0.396-0.065-0.442-0.35-0.636L8.057,5.603C8.003,5.566,7.988,5.494,8.024,5.439c0.038-0.053,0.111-0.067,0.163-0.029l0.01,0.007
		c0.322,0.22,0.452,0.328,0.452,0.828c0,0.181-0.018,0.313-0.036,0.438c-0.018,0.125-0.034,0.242-0.034,0.41
		c0,0.03,0.003,0.069,0.012,0.123C8.606,7.339,8.63,7.526,8.63,7.933c0,0.401,0.022,0.516,0.043,0.627
		c0.023,0.11,0.048,0.226,0.048,0.582c0,0.148-0.014,0.326-0.024,0.533c-0.011,0.174-0.022,0.368-0.029,0.568
		c-0.011,0.357,0.026,0.436,0.044,0.454c0.301,0.31,0.38,0.474,0.49,0.703c0.025,0.05,0.049,0.101,0.079,0.157
		c0.026,0.047,0.014,0.104-0.021,0.137c-0.037,0.037-0.096,0.043-0.141,0.018c-0.005-0.002-0.09-0.053-0.186-0.109
		c0.016,0.057,0.032,0.119,0.05,0.174c0.106,0.373,0.168,0.609,0.082,0.74c-0.032,0.047-0.079,0.076-0.134,0.082
		c-0.118,0.014-0.359-0.027-0.506-0.158C8.263,12.295,8.104,11.855,8.073,11.767L8.073,11.767z M8.369,4.083
		c0.042-0.057,0.107-0.05,0.166-0.003c0.07,0.056,0.436,0.261,0.657,0.261c0.212,0,0.17-0.142,0.185-0.227
		c0.011-0.041,0.042-0.107,0.059-0.206C9.44,3.871,9.417,3.793,9.444,3.763c0.039-0.052,0.133-0.011,0.125-0.104
		C9.562,3.581,9.481,3.466,9.436,3.349c3.364,0.41,5.995,3.209,6.137,6.652c-0.018,0.004-0.038-0.006-0.056-0.006
		c-0.307,0-0.354-0.016-1.076-0.12c-1.078-0.157-0.536,0.06-1.401-0.182c-0.416-0.119-0.407-0.151-0.597-0.229
		c-0.191-0.078-0.34-0.035-0.434-0.068c-1.06-0.398-1.25-0.459-2.292-0.536c0.014-0.19,0.02-0.412,0.02-0.694
		c0-0.424-0.073-0.797-0.112-1.104C9.586,6.757,9.582,6.515,9.521,6.304c-0.281-0.951-0.758-1.062-0.758-1.4
		c0-0.148,0.047,0.037,0.094-0.434C8.725,4.419,8.506,4.308,8.421,4.243C8.361,4.2,8.327,4.136,8.369,4.083L8.369,4.083z
		 M7.359,15.558c0,0.338,0.16,1.117,0.259,1.677c-2.946-0.401-5.309-2.642-5.898-5.522c0.229-0.086,0.407-0.224,0.643-0.224
		c0.349,0,0.77,0.638,1.815,0.638c1.261,0,2.107-0.473,2.505-0.473c0.182,0,0.528,0.111,1.052,0.111
		c-0.021,0.191-0.042,0.441-0.042,0.67c0,0.617,0.09,0.789,0.09,0.953C7.78,14.56,7.359,14.784,7.359,15.558L7.359,15.558z
		 M0.535,10.429c0-0.742,0.424-0.916,0.965-0.916c0.259,0,0.298-0.135,0.415-0.135c0.082,0,0.024,0.123,0.208,0.135
		c0.133,0.006,0.376-0.021,0.376,0.164c0,0.161-0.067,0.23-0.067,0.297c0,0.137,0.185,0.155,0.342,0.155
		c0.289,0,0.156,0.046,0.323,0.046c0.479,0,0.713-0.709,1.752-0.783C5,9.378,5.458,9.343,5.458,9.343
		c0.418,0.226,0.57,0.24,0.73,0.358c0.399,0.288,0.344,0.489,1.124,0.946c0.097,0.397,0.307,0.468,0.405,0.628
		c-0.513-0.001-0.857-0.108-1.036-0.108c-0.396,0-1.244,0.473-2.506,0.473c-1.098,0-1.216-0.638-1.814-0.638
		c-0.565,0-0.465,0.286-1.086,0.286C0.805,11.288,0.535,10.99,0.535,10.429L0.535,10.429z M2.707,6.482
		c0.231,0.111,0.508,0.123,0.646,0.293c0.34,0.425-0.015,1.082,1.444,2.154c-0.604,0-0.91,0.231-1.687,0.748L2.981,9.646
		C2.917,9.173,2.658,9.13,2.312,9.058C2.241,8.989,2.137,8.894,1.934,8.894c-0.113,0-0.129,0.023-0.227,0.059
		C1.881,8.058,2.228,7.222,2.707,6.482L2.707,6.482z M2.729,4.743C3.232,4.2,3.691,4.384,4.086,4.75
		c0.191,0.177,0.311,0.106,0.397,0.187c0.059,0.057-0.067,0.104,0.061,0.238c0.093,0.096,0.29,0.242,0.163,0.379
		C4.598,5.67,4.152,5.853,4.082,5.882C4.004,5.914,3.965,6.005,3.998,6.081c0.033,0.079,0.121,0.112,0.2,0.085
		c0.338-0.118,0.377-0.163,0.377-0.163C4.742,6.211,4.703,6.37,5.028,6.441c0.654,0.14,1.068,0.018,1.63,0.57
		c0.19,0.186,0.448,0.344,0.696,0.451c0.151,0.506,0.323,0.852,0.323,1.106c0,0.088-0.005,0.167-0.01,0.239
		c-0.167-0.121-0.26-0.217-0.367-0.324c-0.046-0.049-0.093-0.1-0.151-0.153C7.088,8.273,6.994,8.216,6.843,8.123
		C6.729,8.054,6.572,7.96,6.518,7.906C6.474,7.861,6.419,7.798,6.355,7.73C6.077,7.415,5.697,6.984,5.279,6.984
		c-0.29,0-0.458,0.092-0.486,0.107C4.682,7.152,4.64,7.288,4.701,7.401c0.061,0.112,0.197,0.153,0.307,0.093
		c0.01-0.003,0.101-0.053,0.271-0.053c0.212,0,0.54,0.371,0.734,0.59C6.083,8.107,6.141,8.173,6.195,8.23
		C6.29,8.323,6.45,8.418,6.607,8.515c0.083,0.049,0.2,0.119,0.229,0.147c0.051,0.046,0.093,0.09,0.138,0.136
		c0.135,0.139,0.273,0.28,0.56,0.465c0.012,0.01,0.022,0.015,0.034,0.021c-0.116,0.292-0.288,0.376-0.305,0.794l-0.001-0.005
		C6.849,9.759,6.847,9.607,6.52,9.369C6.356,9.25,6.206,9.235,5.787,9.011l-0.66-0.414c-1.5-1.104-0.863-1.427-1.444-2.156
		c-0.284-0.354-0.536-0.18-0.954-0.514C2.322,5.605,2.368,5.13,2.729,4.743L2.729,4.743z M7.463,3.386
		c0.098,0.229,0.271,0.42,0.271,0.791c0,0.491-0.604,0.959-0.604,1.768c0,0.328,0.028,0.619,0.073,0.88
		c-0.672-0.492-0.628-0.668-2.07-0.849L5.064,5.849c0,0,0.143-0.117,0.143-0.377c0-0.228-0.234-0.508-0.234-0.508
		c0-0.066,0.023-0.244-0.297-0.479C5.498,3.931,6.444,3.55,7.463,3.386L7.463,3.386z M17.389,9.876c0-0.363-0.04-0.648-0.047-0.826
		c-0.006-0.175-0.1-0.57-0.503-0.57s-0.48,0.384-0.521,0.555c-0.042,0.168-0.035,0.193-0.175,0.402
		c-0.042,0.062-0.085,0.135-0.136,0.209C15.7,6.091,12.9,3.251,9.365,2.88C9.354,2.837,9.34,2.795,9.336,2.761
		C9.325,2.66,9.178,2.158,8.358,2.158c-0.598,0-0.896,0.296-0.95,0.771c-1.17,0.185-2.252,0.644-3.175,1.306
		C4.228,4.232,4.222,4.228,4.217,4.228C4.095,4.144,3.777,3.927,3.404,3.927c-0.375,0-0.739,0.219-1.013,0.5
		C1.985,4.843,1.704,5.54,2.347,6.199C1.788,7.046,1.398,8.011,1.224,9.048C0.295,9.15,0.051,9.896,0.051,10.429
		c0,0.881,0.491,1.27,1.214,1.342c0.628,3.131,3.212,5.551,6.424,5.935c0.002,0.034,0.004,0.062,0.004,0.09
		c0,0.345-0.117,0.546-0.117,0.72c0,0.086,0.03,0.229,0.26,0.229c0.177,0,0.223-0.041,0.363-0.041c0.243,0,0.398,0.082,0.731,0.082
		c0.129,0,0.707-0.041,0.938-0.054c0.099-0.01,0.134-0.157,0.033-0.2c-0.041-0.021-0.309-0.063-0.43-0.108
		c-0.124-0.041-0.396-0.24-0.562-0.326c-0.142-0.071-0.302-0.151-0.403-0.338c0.023,0,0.048,0,0.07,0
		c1.359,0,2.631-0.363,3.728-0.998c0.05,0.235,0.012,0.285,0.091,0.506c0.129,0.367,0.421,0.453,0.755,0.334
		c0.183-0.064,0.329-0.17,0.445-0.211c0.115-0.043,0.312-0.028,0.655-0.15c0.342-0.12,0.628-0.264,0.786-0.336
		c0.146-0.068,0.508-0.27,0.372-0.649c-0.143-0.407-0.479-0.34-0.678-0.321c-0.351,0.035-0.233,0.037-0.821-0.062
		c-0.084-0.019-0.166-0.05-0.242-0.116c1.164-1.089,1.979-2.544,2.262-4.183c0.059-0.007,0.104-0.011,0.137-0.011
		c0.298,0,0.473,0.123,0.679,0.123c0.385,0,0.604-0.325,0.604-0.678c0-0.195-0.048-0.312-0.048-0.434
		C17.3,10.446,17.389,10.24,17.389,9.876L17.389,9.876z"/>
	<path fill="#142A3E" d="M19.736,13.378l-0.092,0.602h2.801l0.083-0.602H19.736L19.736,13.378z M24.11,13.378l0.157,0.602h2.204
		l0.157-0.602H24.11L24.11,13.378z M28.209,13.378l0.084,0.602h2.802l-0.093-0.602H28.209L28.209,13.378z M31.693,13.378
		c0.583,0.481,1.42,0.768,2.554,0.768c2.021,0,2.896-0.592,2.896-0.592v-0.176H31.693L31.693,13.378z M38.18,13.378
		c0.49,0.527,1.131,0.764,1.742,0.764c0.791,0,1.285-0.373,1.586-0.764H38.18L38.18,13.378z M42.388,13.378
		c0.397,0.415,1.036,0.787,1.866,0.787c1.557,0,2.648-0.677,2.648-0.677s0.442,0.635,1.686,0.635c0.951,0,1.81-0.312,1.81-0.312
		v-0.436L42.388,13.378L42.388,13.378z M50.953,13.378v0.619h2.557v-0.619H50.953L50.953,13.378z M56.584,13.378
		c0.686,0.528,1.623,0.771,2.605,0.771s1.922-0.242,2.604-0.771H56.584L56.584,13.378z M63.328,13.378v0.619h2.561v-0.619H63.328
		L63.328,13.378z M67.607,13.378c0.364,0.367,0.885,0.619,1.471,0.619h4.438v-0.619H67.607L67.607,13.378z M75.054,13.378
		c0.602,0.444,1.501,0.745,2.835,0.745c1.453,0,2.06-0.306,2.06-0.306v-0.439H75.054L75.054,13.378z"/>
	<path fill="#142A3E" d="M19.857,12.591l-0.122,0.787h2.792l0.113-0.787H19.857L19.857,12.591z M23.901,12.591l0.209,0.787h2.518
		l0.209-0.787H23.901L23.901,12.591z M28.1,12.591l0.109,0.787h2.793l-0.122-0.787H28.1L28.1,12.591z M31.042,12.591
		c0.165,0.297,0.38,0.562,0.65,0.787h5.45v-0.787h-1.9c-0.102,0.004-0.211,0.006-0.324,0.006c-0.102,0-0.197-0.002-0.29-0.006
		H31.042L31.042,12.591z M37.676,12.591c0.136,0.312,0.307,0.574,0.504,0.787h3.328c0.244-0.318,0.361-0.645,0.404-0.789
		L37.676,12.591L37.676,12.591z M41.938,12.591c0.028,0.215,0.187,0.51,0.449,0.787h8.01v-0.787H41.938L41.938,12.591z
		 M50.953,12.591v0.787h2.557v-0.787H50.953L50.953,12.591z M55.889,12.591c0.182,0.312,0.417,0.572,0.695,0.787h5.215
		c0.277-0.215,0.516-0.476,0.695-0.787H55.889L55.889,12.591z M63.328,12.591v0.787h2.561v-0.787H63.328L63.328,12.591z
		 M67.123,12.591c0.088,0.283,0.256,0.559,0.484,0.787h5.909v-0.787H67.123L67.123,12.591z M74.338,12.591
		c0.168,0.286,0.398,0.555,0.716,0.787h4.895v-0.787H74.338L74.338,12.591z"/>
	<path fill="#142A3E" d="M22.641,12.591l0.439-3.115l0.821,3.115h2.936l0.821-3.115l0.44,3.115h2.78l-0.096-0.621
		c0.065,0.219,0.15,0.426,0.258,0.621h3.586c-1.204-0.068-1.401-0.562-1.401-1.084H37.4c0.045,0.414,0.141,0.773,0.272,1.084h4.237
		c0.012-0.05,0.021-0.078,0.021-0.078c0,0.025,0.002,0.049,0.007,0.078h8.459v-0.332c0,0-0.246,0.043-0.479,0.043
		c-0.434,0-0.888-0.207-0.888-0.842V9.497h1.364V7.857h-1.354V5.476h-2.742v2.375h-1.062v1.646h1.062v2.053
		c0,0.352-0.25,0.86-0.887,0.86c-0.47,0-0.832-0.351-0.832-0.86V5.487h-2.711v3.196c0,0-0.603-1.018-1.937-1.018
		c-0.488,0-2.269,0.301-2.531,2.641c0.002,0.018,0.003,0.032,0.004,0.047c-0.004-0.018-0.006-0.032-0.004-0.047
		c-0.321-1.66-1.373-2.625-3.272-2.625c-2.428,0-3.517,1.692-3.517,3c0,0.07,0.003,0.141,0.005,0.211L29.87,6.058h-3.487
		l-1.016,3.867L24.35,6.058h-3.482l-1.011,6.533H22.641L22.641,12.591z M37.144,12.591v-0.522c0,0-0.646,0.452-1.9,0.522H37.144
		L37.144,12.591z M53.51,12.591v-1.033c0-0.244,0.555-1.502,1.791-1.502c0.07,0,0.166,0.016,0.265,0.035
		c-0.042,0.209-0.065,0.432-0.065,0.67v0.256c0,0.623,0.145,1.144,0.392,1.574h6.604c0.248-0.431,0.389-0.951,0.389-1.574v-0.256
		c0-2.104-1.752-3.08-3.688-3.08c-1.341,0-2.592,0.467-3.235,1.448V7.894c0,0-0.135-0.043-0.438-0.043
		c-1.008,0-1.688,0.908-2.011,1.567V7.857h-2.558v4.734H53.51L53.51,12.591z M65.885,12.591v-2.07c0-0.426,0.08-0.891,0.562-0.891
		c0.484,0,0.606,0.469,0.606,0.891v1.633c0,0.146,0.021,0.292,0.063,0.438h6.396V7.863h-2.686v4.345h-0.662
		c-0.182,0-0.412-0.147-0.412-0.444V9.642c0-1.207-1.062-1.943-1.984-1.943c-0.754,0-1.407,0.4-1.887,1.387V7.86h-2.559v4.733h2.557
		v-0.002H65.885z M79.948,12.591v-0.619c0,0-0.52,0.336-1.28,0.336c-0.758,0-1.551-0.324-1.551-1.449
		c0-1.123,0.932-1.438,1.479-1.438c0.546,0,1.354,0.308,1.354,0.308V7.987c0,0-0.671-0.292-2.104-0.292
		c-3.4,0-3.944,1.891-3.944,3.162c0,0.521,0.095,1.156,0.438,1.732h5.609L79.948,12.591L79.948,12.591z M70.832,7.22V5.482h2.688
		V7.22H70.832L70.832,7.22z M40.725,12.265c-0.387,0-0.881-0.152-0.881-1.424c0-1.27,0.494-1.424,0.881-1.424
		c0.386,0,0.883,0.154,0.883,1.424C41.607,12.114,41.111,12.265,40.725,12.265L40.725,12.265z M33.228,10.478
		c0.096-0.938,0.569-1.197,0.955-1.197c0.384,0,0.857,0.26,0.955,1.197H33.228L33.228,10.478z M59.148,12.265
		c-0.386,0-0.881-0.152-0.881-1.424c0-1.27,0.495-1.424,0.881-1.424c0.387,0,0.882,0.154,0.882,1.424
		C60.03,12.114,59.535,12.265,59.148,12.265L59.148,12.265z"/>
</g>
</svg>
