<?xml version="1.0" encoding="utf-8"?>
<!-- Generator: Adobe Illustrator 16.0.0, SVG Export Plug-In . SVG Version: 6.00 Build 0)  -->
<!DOCTYPE svg PUBLIC "-//W3C//DTD SVG 1.1//EN" "http://www.w3.org/Graphics/SVG/1.1/DTD/svg11.dtd">
<svg version="1.1" id="Layer_1" xmlns="http://www.w3.org/2000/svg" xmlns:xlink="http://www.w3.org/1999/xlink" x="0px" y="0px"
	 width="80px" height="52.5px" viewBox="0 0 80 52.5" enable-background="new 0 0 80 52.5" xml:space="preserve">
<g>
	<rect x="0.078" y="3.438" fill="#142A3E" width="79.844" height="45.625"/>
	<g>
		<g>
			<polygon fill="#FFFFFF" points="32.299,12.957 40.857,12.957 40.857,15.779 38.381,16.479 38.381,30.1 36.58,40.08 
				34.832,30.041 34.832,16.479 32.299,15.809 			"/>
			<polygon fill="#828282" points="36.58,17.352 38.381,17.352 38.381,17.701 38.231,17.701 38.231,17.527 36.58,17.527 			"/>
			<polygon fill="#828282" points="36.58,18.344 38.381,18.344 38.381,18.704 38.197,18.704 38.197,18.616 36.58,18.616 			"/>
			<polygon opacity="0.3" fill="#828282" enable-background="new    " points="40.857,12.957 40.857,12.957 39.759,15.374 
				37.655,15.494 37.655,30.244 36.58,40.08 36.58,40.08 38.363,30.205 38.381,16.479 40.857,15.779 			"/>
			<polygon opacity="0.3" fill="#828282" enable-background="new    " points="32.299,15.809 32.299,15.809 35.443,15.625 
				34.832,30.041 34.832,16.479 			"/>
			<polygon fill="#FFFFFF" points="24.594,33.236 21.079,33.212 17.298,20.83 17.273,33.236 14.104,33.236 14.104,12.871 
				18.018,12.871 21.292,22.749 21.318,12.871 24.594,12.871 			"/>
			<rect x="27.255" y="12.871" fill="#FFFFFF" width="3.542" height="20.365"/>
			<path fill="#FFFFFF" d="M47.119,33.691c-2.212,0-5.434-1.146-5.434-4.66V17.423c0-3.7,2.664-5.003,5.434-5.003
				c3.166,0,5.482,1.514,5.482,4.926v11.525C52.604,32.705,49.486,33.691,47.119,33.691 M48.9,17.266c0-1.146-0.902-1.76-1.756-1.76
				c-0.799,0-1.756,0.508-1.756,1.68c0,3.301,0.023,8.492,0.023,11.766c0,1.145,0.955,1.73,1.756,1.73
				c0.771,0,1.729-0.509,1.729-1.65V17.266H48.9z"/>
			<path fill="#FFFFFF" d="M62.169,33.236l-2.59-8.945h-1.377l-0.025,8.945h-3.771V12.871h6.24c2.055,0,4.728,0.771,4.728,4.072
				v3.729c0,3.3-2.334,3.354-2.334,3.354l2.839,9.211h-3.71V33.236L62.169,33.236z M59.973,15.88h-1.885v5.458h1.688
				c1.576,0,1.941-1.012,1.941-1.812v-1.889C61.718,16.466,61.128,15.88,59.973,15.88"/>
			<g>
				<g>
					<path fill="#FFFFFF" d="M16.558,38.354c-0.233,0.058-0.485,0.104-0.728,0.104c-1.031,0-1.749-0.531-1.749-1.64
						c0-1.125,0.667-1.754,1.749-1.754c0.212,0,0.49,0.041,0.724,0.136l-0.047,0.554c-0.24-0.139-0.461-0.172-0.688-0.172
						c-0.658,0-1.07,0.518-1.07,1.188s0.401,1.17,1.082,1.17c0.252,0,0.549-0.057,0.701-0.137L16.558,38.354z"/>
					<path fill="#FFFFFF" d="M17.231,35.118h0.64v1.896c0,0.561,0.173,0.926,0.662,0.926c0.489,0,0.66-0.365,0.66-0.926v-1.896
						h0.639v2.099c0,0.879-0.481,1.239-1.299,1.239c-0.819,0-1.302-0.36-1.302-1.239V35.118z"/>
					<path fill="#FFFFFF" d="M22.493,35.723c-0.202-0.09-0.425-0.143-0.647-0.143c-0.221,0-0.504,0.098-0.504,0.455
						c0,0.568,1.397,0.328,1.397,1.429c0,0.722-0.553,0.992-1.196,0.992c-0.347,0-0.503-0.048-0.818-0.125l0.06-0.593
						c0.219,0.121,0.471,0.201,0.721,0.201c0.243,0,0.568-0.127,0.568-0.424c0-0.625-1.397-0.365-1.397-1.451
						c0-0.733,0.551-1.002,1.114-1.002c0.273,0,0.529,0.039,0.762,0.119L22.493,35.723z"/>
					<path fill="#FFFFFF" d="M24.126,35.636h-0.915v-0.518h2.467v0.518h-0.914V38.4h-0.638V35.636z"/>
					<path fill="#FFFFFF" d="M27.716,35.062c1,0,1.562,0.695,1.562,1.688s-0.553,1.706-1.562,1.706c-1.023,0-1.563-0.7-1.563-1.706
						S26.701,35.062,27.716,35.062z M27.716,37.939c0.654,0,0.896-0.599,0.896-1.189c0-0.577-0.258-1.17-0.896-1.17
						c-0.635,0-0.896,0.593-0.896,1.17C26.82,37.344,27.063,37.939,27.716,37.939z"/>
					<path fill="#FFFFFF" d="M30.087,35.118h1.023l0.758,2.487h0.01l0.758-2.487h1.022v3.28h-0.611v-2.705h-0.009l-0.859,2.705
						h-0.614l-0.858-2.705L30.7,35.702v2.696h-0.613V35.118z"/>
				</g>
				<g>
					<path fill="#FFFFFF" d="M40.875,38.436c-0.236,0.058-0.49,0.104-0.734,0.104c-1.047,0-1.774-0.531-1.774-1.642
						c0-1.121,0.675-1.754,1.774-1.754c0.211,0,0.493,0.041,0.729,0.139l-0.047,0.553c-0.244-0.141-0.467-0.172-0.696-0.172
						c-0.668,0-1.085,0.52-1.085,1.188s0.407,1.17,1.1,1.17c0.254,0,0.555-0.057,0.705-0.137L40.875,38.436z"/>
					<path fill="#FFFFFF" d="M42.505,35.201h0.729l1.271,3.279h-0.721l-0.276-0.752H42.2l-0.28,0.752h-0.673L42.505,35.201z
						 M42.859,35.857h-0.008l-0.47,1.354h0.944L42.859,35.857z"/>
					<path fill="#FFFFFF" d="M45.098,35.201h0.699c0.693,0,1.523-0.024,1.523,0.89c0,0.386-0.256,0.703-0.668,0.761v0.008
						c0.178,0.017,0.279,0.195,0.346,0.343l0.516,1.28h-0.723l-0.389-1.022c-0.09-0.245-0.176-0.337-0.448-0.337h-0.207v1.359
						h-0.649V35.201z M45.747,36.602h0.212c0.32,0,0.688-0.047,0.688-0.455c0-0.396-0.359-0.429-0.688-0.429h-0.212V36.602z"/>
					<path fill="#FFFFFF" d="M48.154,35.201h0.818c0.702,0,1.348,0.207,1.348,0.99c0,0.768-0.553,1.045-1.246,1.045h-0.272v1.244
						h-0.647V35.201L48.154,35.201z M48.802,36.717h0.228c0.324,0,0.617-0.105,0.617-0.486s-0.283-0.513-0.617-0.513h-0.228V36.717z
						"/>
					<path fill="#FFFFFF" d="M51.018,35.201h1.906v0.517h-1.261v0.81h1.155v0.519h-1.155v0.922h1.271v0.519h-1.916V35.201z"/>
					<path fill="#FFFFFF" d="M53.786,35.201h0.794l1.234,2.451h0.006v-2.451h0.621v3.279h-0.793l-1.232-2.453h-0.01v2.453h-0.62
						V35.201L53.786,35.201z"/>
					<path fill="#FFFFFF" d="M57.98,35.718h-0.926v-0.517h2.496v0.517h-0.925v2.765H57.98V35.718z"/>
					<path fill="#FFFFFF" d="M60.143,35.201h0.699c0.693,0,1.523-0.024,1.523,0.89c0,0.386-0.256,0.703-0.667,0.761v0.008
						c0.177,0.017,0.278,0.195,0.343,0.343l0.518,1.28h-0.722l-0.388-1.022c-0.096-0.248-0.176-0.34-0.449-0.34h-0.209v1.36h-0.648
						V35.201z M60.791,36.602h0.212c0.321,0,0.687-0.047,0.687-0.455c0-0.396-0.359-0.429-0.687-0.429h-0.212V36.602z"/>
					<path fill="#FFFFFF" d="M64.111,37.186l-1.182-1.981h0.76l0.764,1.377l0.779-1.377h0.686l-1.159,1.981v1.297h-0.647V37.186
						L64.111,37.186z"/>
				</g>
			</g>
			<polygon fill="#142A3E" points="36.58,17.174 38.381,17.174 38.381,17.559 38.231,17.559 38.231,17.559 36.58,17.559 			"/>
			<polygon fill="#142A3E" points="36.58,18.182 38.381,18.182 38.381,18.58 38.197,18.579 38.197,18.579 36.58,18.579 			"/>
		</g>
	</g>
</g>
</svg>
