<?xml version="1.0" encoding="utf-8"?>
<!-- Generator: Adobe Illustrator 16.0.0, SVG Export Plug-In . SVG Version: 6.00 Build 0)  -->
<!DOCTYPE svg PUBLIC "-//W3C//DTD SVG 1.1//EN" "http://www.w3.org/Graphics/SVG/1.1/DTD/svg11.dtd">
<svg version="1.1" id="Layer_1" xmlns="http://www.w3.org/2000/svg" xmlns:xlink="http://www.w3.org/1999/xlink" x="0px" y="0px"
	 width="80px" height="80px" viewBox="0 0 80 80" enable-background="new 0 0 80 80" xml:space="preserve">
<rect x="0.078" y="17.187" fill="#3E6DB2" width="79.844" height="45.625"/>
<g>
	<g>
		<polygon fill="#FFFFFF" points="32.299,26.707 40.857,26.707 40.857,29.529 38.381,30.228 38.381,43.849 36.58,53.83 
			34.832,43.791 34.832,30.228 32.299,29.559 		"/>
		<polygon fill="#828282" points="36.58,31.101 38.381,31.101 38.381,31.451 38.231,31.451 38.231,31.278 36.58,31.278 		"/>
		<polygon fill="#828282" points="36.58,32.094 38.381,32.094 38.381,32.454 38.197,32.454 38.197,32.366 36.58,32.366 		"/>
		<polygon opacity="0.3" fill="#828282" points="40.857,26.707 40.857,26.707 39.759,29.124 37.655,29.244 37.655,43.994 
			36.58,53.83 36.58,53.83 38.363,43.955 38.381,30.228 40.857,29.529 		"/>
		<polygon opacity="0.3" fill="#828282" points="32.299,29.559 32.299,29.559 35.443,29.375 34.832,43.791 34.832,30.228 		"/>
		<polygon fill="#FFFFFF" points="24.594,46.987 21.079,46.962 17.298,34.58 17.273,46.987 14.104,46.987 14.104,26.621 
			18.018,26.621 21.292,36.499 21.318,26.621 24.594,26.621 		"/>
		<rect x="27.255" y="26.621" fill="#FFFFFF" width="3.542" height="20.366"/>
		<path fill="#FFFFFF" d="M47.119,47.441c-2.212,0-5.434-1.145-5.434-4.66V31.173c0-3.7,2.664-5.003,5.434-5.003
			c3.166,0,5.483,1.514,5.483,4.925v11.526C52.603,46.455,49.487,47.441,47.119,47.441 M48.901,31.016
			c0-1.146-0.903-1.76-1.757-1.76c-0.799,0-1.756,0.507-1.756,1.679c0,3.301,0.026,8.493,0.026,11.766
			c0,1.145,0.955,1.73,1.756,1.73c0.772,0,1.73-0.506,1.73-1.65V31.016z"/>
		<path fill="#FFFFFF" d="M62.169,46.987l-2.59-8.946h-1.377l-0.025,8.946h-3.771V26.621h6.241c2.054,0,4.727,0.772,4.727,4.073
			v3.729c0,3.299-2.334,3.354-2.334,3.354l2.839,9.211H62.169z M59.973,29.63h-1.885v5.458h1.688c1.575,0,1.941-1.012,1.941-1.812
			v-1.889C61.718,30.216,61.128,29.63,59.973,29.63"/>
		<g>
			<g>
				<path fill="#FFFFFF" d="M16.558,52.103c-0.233,0.056-0.485,0.104-0.728,0.104c-1.031,0-1.749-0.531-1.749-1.639
					c0-1.124,0.667-1.754,1.749-1.754c0.212,0,0.49,0.042,0.724,0.135l-0.047,0.554c-0.24-0.139-0.461-0.172-0.688-0.172
					c-0.658,0-1.07,0.516-1.07,1.188c0,0.671,0.401,1.171,1.082,1.171c0.252,0,0.549-0.057,0.701-0.137L16.558,52.103z"/>
				<path fill="#FFFFFF" d="M17.231,48.868h0.64v1.896c0,0.558,0.173,0.925,0.662,0.925c0.489,0,0.66-0.367,0.66-0.925v-1.896h0.639
					v2.099c0,0.879-0.481,1.239-1.299,1.239c-0.819,0-1.302-0.36-1.302-1.239V48.868z"/>
				<path fill="#FFFFFF" d="M22.493,49.472c-0.202-0.089-0.425-0.142-0.647-0.142c-0.221,0-0.504,0.098-0.504,0.455
					c0,0.569,1.397,0.328,1.397,1.429c0,0.722-0.553,0.992-1.196,0.992c-0.347,0-0.503-0.048-0.818-0.125l0.06-0.593
					c0.219,0.121,0.471,0.201,0.721,0.201c0.243,0,0.568-0.126,0.568-0.424c0-0.625-1.397-0.364-1.397-1.451
					c0-0.733,0.551-1.001,1.114-1.001c0.273,0,0.529,0.039,0.762,0.119L22.493,49.472z"/>
				<path fill="#FFFFFF" d="M24.126,49.386h-0.915v-0.518h2.467v0.518h-0.914v2.764h-0.638V49.386z"/>
				<path fill="#FFFFFF" d="M27.716,48.813c1,0,1.562,0.697,1.562,1.687c0,0.992-0.553,1.706-1.562,1.706
					c-1.023,0-1.563-0.7-1.563-1.706S26.701,48.813,27.716,48.813z M27.716,51.689c0.654,0,0.896-0.596,0.896-1.189
					c0-0.577-0.258-1.17-0.896-1.17c-0.635,0-0.896,0.593-0.896,1.17C26.82,51.094,27.063,51.689,27.716,51.689z"/>
				<path fill="#FFFFFF" d="M30.087,48.868h1.023l0.758,2.488h0.01l0.758-2.488h1.022v3.281h-0.611v-2.706h-0.009l-0.859,2.706
					h-0.614l-0.858-2.706l-0.007,0.009v2.697h-0.613V48.868z"/>
			</g>
			<g>
				<path fill="#FFFFFF" d="M40.875,52.185c-0.236,0.056-0.49,0.103-0.735,0.103c-1.046,0-1.774-0.531-1.774-1.64
					c0-1.121,0.675-1.753,1.774-1.753c0.212,0,0.494,0.041,0.729,0.136l-0.047,0.553c-0.244-0.138-0.467-0.172-0.696-0.172
					c-0.668,0-1.085,0.517-1.085,1.189c0,0.668,0.407,1.17,1.099,1.17c0.254,0,0.555-0.056,0.705-0.136L40.875,52.185z"/>
				<path fill="#FFFFFF" d="M42.505,48.951h0.73l1.271,3.28h-0.721l-0.276-0.752H42.2l-0.28,0.752h-0.673L42.505,48.951z
					 M42.86,49.608h-0.009l-0.467,1.354h0.944L42.86,49.608z"/>
				<path fill="#FFFFFF" d="M45.098,48.951h0.699c0.693,0,1.523-0.024,1.523,0.89c0,0.386-0.255,0.703-0.667,0.76v0.009
					c0.177,0.014,0.279,0.194,0.345,0.34l0.516,1.282h-0.723l-0.388-1.024c-0.091-0.245-0.177-0.337-0.449-0.337h-0.207v1.361
					h-0.649V48.951z M45.747,50.352h0.212c0.32,0,0.687-0.048,0.687-0.456c0-0.395-0.361-0.428-0.687-0.428h-0.212V50.352z"/>
				<path fill="#FFFFFF" d="M48.154,48.951h0.818c0.705,0,1.349,0.207,1.349,0.991c0,0.767-0.553,1.044-1.247,1.044h-0.272v1.245
					h-0.647V48.951z M48.802,50.467h0.228c0.323,0,0.616-0.106,0.616-0.486c0-0.381-0.283-0.513-0.616-0.513h-0.228V50.467z"/>
				<path fill="#FFFFFF" d="M51.017,48.951h1.907v0.517h-1.261v0.809h1.155v0.517h-1.155v0.922h1.27v0.517h-1.916V48.951z"/>
				<path fill="#FFFFFF" d="M53.786,48.951h0.794l1.234,2.452h0.007v-2.452h0.62v3.28h-0.792l-1.233-2.453h-0.01v2.453h-0.62V48.951
					z"/>
				<path fill="#FFFFFF" d="M57.981,49.468h-0.926v-0.517h2.498v0.517h-0.925v2.764h-0.647V49.468z"/>
				<path fill="#FFFFFF" d="M60.143,48.951h0.699c0.693,0,1.523-0.024,1.523,0.89c0,0.386-0.256,0.703-0.667,0.76v0.009
					c0.177,0.014,0.278,0.194,0.343,0.34l0.518,1.282h-0.722l-0.388-1.024C61.354,50.962,61.274,50.87,61,50.87h-0.209v1.361h-0.648
					V48.951z M60.791,50.352h0.212c0.321,0,0.686-0.048,0.686-0.456c0-0.395-0.361-0.428-0.686-0.428h-0.212V50.352z"/>
				<path fill="#FFFFFF" d="M64.111,50.935l-1.181-1.983h0.76l0.763,1.377l0.779-1.377h0.686l-1.159,1.983v1.297h-0.647V50.935z"/>
			</g>
		</g>
		<polygon fill="#3E6DB2" points="36.58,30.924 38.381,30.924 38.381,31.308 38.231,31.308 38.231,31.308 36.58,31.308 		"/>
		<polygon fill="#3E6DB2" points="36.58,31.932 38.381,31.932 38.381,32.33 38.197,32.329 38.197,32.329 36.58,32.329 		"/>
	</g>
</g>
<g>
</g>
<g>
</g>
<g>
</g>
<g>
</g>
<g>
</g>
<g>
</g>
</svg>
