<?xml version="1.0" encoding="utf-8"?>
<!-- Generator: Adobe Illustrator 16.0.0, SVG Export Plug-In . SVG Version: 6.00 Build 0)  -->
<!DOCTYPE svg PUBLIC "-//W3C//DTD SVG 1.1//EN" "http://www.w3.org/Graphics/SVG/1.1/DTD/svg11.dtd">
<svg version="1.1" id="Layer_1" xmlns="http://www.w3.org/2000/svg" xmlns:xlink="http://www.w3.org/1999/xlink" x="0px" y="0px"
	 width="80px" height="45.625px" viewBox="0 17.187 80 45.625" enable-background="new 0 17.187 80 45.625" xml:space="preserve">
<rect x="0.078" y="17.187" fill="#142A3E" width="79.844" height="45.625"/>
<g>
	<g>
		<polygon fill="#FFFFFF" points="32.299,26.707 40.857,26.707 40.857,29.529 38.381,30.228 38.381,43.85 36.58,53.83 
			34.832,43.791 34.832,30.228 32.299,29.559 		"/>
		<polygon fill="#828282" points="36.58,31.101 38.381,31.101 38.381,31.451 38.231,31.451 38.231,31.278 36.58,31.278 		"/>
		<polygon fill="#828282" points="36.58,32.094 38.381,32.094 38.381,32.454 38.197,32.454 38.197,32.366 36.58,32.366 		"/>
		<polygon opacity="0.3" fill="#828282" enable-background="new    " points="40.857,26.707 40.857,26.707 39.759,29.124 
			37.655,29.244 37.655,43.994 36.58,53.83 36.58,53.83 38.363,43.955 38.381,30.228 40.857,29.529 		"/>
		<polygon opacity="0.3" fill="#828282" enable-background="new    " points="32.299,29.559 32.299,29.559 35.443,29.375 
			34.832,43.791 34.832,30.228 		"/>
		<polygon fill="#FFFFFF" points="24.594,46.986 21.079,46.962 17.298,34.58 17.273,46.986 14.104,46.986 14.104,26.621 
			18.018,26.621 21.292,36.499 21.318,26.621 24.594,26.621 		"/>
		<rect x="27.255" y="26.621" fill="#FFFFFF" width="3.542" height="20.365"/>
		<path fill="#FFFFFF" d="M47.119,47.441c-2.212,0-5.434-1.146-5.434-4.66V31.173c0-3.7,2.664-5.003,5.434-5.003
			c3.166,0,5.482,1.514,5.482,4.925v11.526C52.604,46.455,49.486,47.441,47.119,47.441 M48.9,31.016c0-1.146-0.902-1.76-1.756-1.76
			c-0.799,0-1.756,0.507-1.756,1.679c0,3.301,0.024,8.493,0.024,11.766c0,1.145,0.955,1.73,1.756,1.73
			c0.771,0,1.729-0.508,1.729-1.65V31.016H48.9z"/>
		<path fill="#FFFFFF" d="M62.169,46.986l-2.59-8.945h-1.377l-0.025,8.945h-3.771V26.621h6.24c2.055,0,4.728,0.772,4.728,4.073
			v3.729c0,3.299-2.334,3.354-2.334,3.354l2.839,9.211h-3.71V46.986z M59.973,29.63h-1.885v5.458h1.688
			c1.576,0,1.941-1.012,1.941-1.812v-1.889C61.718,30.216,61.128,29.63,59.973,29.63"/>
		<g>
			<g>
				<path fill="#FFFFFF" d="M16.558,52.104c-0.233,0.057-0.485,0.104-0.728,0.104c-1.031,0-1.749-0.531-1.749-1.64
					c0-1.125,0.667-1.754,1.749-1.754c0.212,0,0.49,0.041,0.724,0.136l-0.047,0.554c-0.24-0.139-0.461-0.172-0.688-0.172
					c-0.658,0-1.07,0.518-1.07,1.188s0.401,1.17,1.082,1.17c0.252,0,0.549-0.057,0.701-0.137L16.558,52.104z"/>
				<path fill="#FFFFFF" d="M17.231,48.868h0.64v1.896c0,0.56,0.173,0.926,0.662,0.926c0.489,0,0.66-0.366,0.66-0.926v-1.896h0.639
					v2.099c0,0.879-0.481,1.239-1.299,1.239c-0.819,0-1.302-0.36-1.302-1.239V48.868z"/>
				<path fill="#FFFFFF" d="M22.493,49.473c-0.202-0.09-0.425-0.143-0.647-0.143c-0.221,0-0.504,0.098-0.504,0.455
					c0,0.568,1.397,0.328,1.397,1.429c0,0.722-0.553,0.992-1.196,0.992c-0.347,0-0.503-0.048-0.818-0.125l0.06-0.593
					c0.219,0.121,0.471,0.201,0.721,0.201c0.243,0,0.568-0.127,0.568-0.424c0-0.625-1.397-0.365-1.397-1.451
					c0-0.733,0.551-1.002,1.114-1.002c0.273,0,0.529,0.039,0.762,0.119L22.493,49.473z"/>
				<path fill="#FFFFFF" d="M24.126,49.386h-0.915v-0.518h2.467v0.518h-0.914v2.765h-0.638V49.386z"/>
				<path fill="#FFFFFF" d="M27.716,48.812c1,0,1.562,0.696,1.562,1.688c0,0.992-0.553,1.706-1.562,1.706
					c-1.023,0-1.563-0.7-1.563-1.706S26.701,48.812,27.716,48.812z M27.716,51.689c0.654,0,0.896-0.598,0.896-1.189
					c0-0.577-0.258-1.17-0.896-1.17c-0.635,0-0.896,0.593-0.896,1.17C26.82,51.094,27.063,51.689,27.716,51.689z"/>
				<path fill="#FFFFFF" d="M30.087,48.868h1.023l0.758,2.487h0.01l0.758-2.487h1.022v3.28h-0.611v-2.705h-0.009l-0.859,2.705
					h-0.614l-0.858-2.705L30.7,49.452v2.696h-0.613V48.868z"/>
			</g>
			<g>
				<path fill="#FFFFFF" d="M40.875,52.186c-0.236,0.057-0.49,0.104-0.735,0.104c-1.046,0-1.774-0.531-1.774-1.641
					c0-1.121,0.675-1.754,1.774-1.754c0.212,0,0.494,0.041,0.729,0.138l-0.047,0.553c-0.244-0.14-0.467-0.172-0.696-0.172
					c-0.668,0-1.085,0.519-1.085,1.188c0,0.668,0.407,1.17,1.099,1.17c0.254,0,0.555-0.057,0.706-0.137L40.875,52.186z"/>
				<path fill="#FFFFFF" d="M42.505,48.951h0.729l1.271,3.279h-0.721l-0.276-0.752H42.2l-0.28,0.752h-0.673L42.505,48.951z
					 M42.859,49.607h-0.008l-0.469,1.354h0.944L42.859,49.607z"/>
				<path fill="#FFFFFF" d="M45.098,48.951h0.699c0.693,0,1.523-0.024,1.523,0.89c0,0.386-0.256,0.703-0.668,0.761v0.008
					c0.178,0.016,0.279,0.195,0.346,0.342l0.516,1.281h-0.723l-0.389-1.023c-0.09-0.245-0.176-0.337-0.448-0.337h-0.207v1.36h-0.649
					V48.951z M45.747,50.352h0.212c0.32,0,0.688-0.047,0.688-0.455c0-0.396-0.36-0.429-0.688-0.429h-0.212V50.352z"/>
				<path fill="#FFFFFF" d="M48.154,48.951h0.818c0.703,0,1.348,0.207,1.348,0.99c0,0.768-0.553,1.045-1.246,1.045h-0.272v1.244
					h-0.647V48.951L48.154,48.951z M48.802,50.467h0.228c0.324,0,0.617-0.105,0.617-0.486s-0.283-0.513-0.617-0.513h-0.228V50.467z"
					/>
				<path fill="#FFFFFF" d="M51.018,48.951h1.906v0.517h-1.261v0.81h1.155v0.518h-1.155v0.922h1.271v0.518h-1.916V48.951z"/>
				<path fill="#FFFFFF" d="M53.786,48.951h0.794l1.234,2.451h0.006v-2.451h0.621v3.279h-0.793l-1.232-2.453h-0.01v2.453h-0.62
					V48.951z"/>
				<path fill="#FFFFFF" d="M57.98,49.468h-0.926v-0.517h2.497v0.517h-0.925v2.765H57.98V49.468z"/>
				<path fill="#FFFFFF" d="M60.143,48.951h0.699c0.693,0,1.523-0.024,1.523,0.89c0,0.386-0.256,0.703-0.667,0.761v0.008
					c0.177,0.016,0.278,0.195,0.343,0.342l0.518,1.281h-0.722l-0.388-1.023C61.354,50.962,61.273,50.87,61,50.87h-0.209v1.36h-0.648
					V48.951z M60.791,50.352h0.212c0.321,0,0.687-0.047,0.687-0.455c0-0.396-0.36-0.429-0.687-0.429h-0.212V50.352z"/>
				<path fill="#FFFFFF" d="M64.111,50.936l-1.182-1.982h0.76l0.764,1.377l0.779-1.377h0.686l-1.159,1.982v1.297h-0.647V50.936
					L64.111,50.936z"/>
			</g>
		</g>
		<polygon fill="#142A3E" points="36.58,30.924 38.381,30.924 38.381,31.308 38.231,31.308 38.231,31.308 36.58,31.308 		"/>
		<polygon fill="#142A3E" points="36.58,31.932 38.381,31.932 38.381,32.33 38.197,32.329 38.197,32.329 36.58,32.329 		"/>
	</g>
</g>
</svg>
