<?xml version="1.0" encoding="utf-8"?>
<!-- Generator: Adobe Illustrator 16.0.0, SVG Export Plug-In . SVG Version: 6.00 Build 0)  -->
<!DOCTYPE svg PUBLIC "-//W3C//DTD SVG 1.1//EN" "http://www.w3.org/Graphics/SVG/1.1/DTD/svg11.dtd">
<svg version="1.1" id="Layer_1" xmlns="http://www.w3.org/2000/svg" xmlns:xlink="http://www.w3.org/1999/xlink" x="0px" y="0px"
	 width="80px" height="33.777px" viewBox="0 23.111 80 33.777" enable-background="new 0 23.111 80 33.777" xml:space="preserve">
<g>
	<path fill="#142A3E" d="M8.382,50.218c-1.357-2.377-2.717-6.577-0.34-11.63c1.231-2.632,3.566-4.583,5.519-5.646
		c-1.104-1.442,0.297-3.097,0.976-3.733c0.084-0.085,0-0.212-0.085-0.17c-2.801,1.357-5.771,4.54-7.088,7.088
		C3.969,42.578,6.642,47.969,8.17,50.303C8.382,50.643,8.68,50.77,8.382,50.218L8.382,50.218z"/>
	<path fill="#142A3E" d="M8.34,52.636C3.501,47.969,3.246,40.03,6.345,34.174c1.74-3.268,4.668-6.154,8.063-7.724
		c0.383-0.212,1.146-0.468,1.825-0.68c-0.51-1.019,0.85-2.122,2.929-2.463c0-0.041-0.042-0.083-0.084-0.127
		c-0.892-0.381-5.01,0.978-5.772,0.383c-3.184,1.952-6.07,4.584-7.937,7.937C1.293,38.759,2.44,47.756,8.212,52.934
		C8.85,53.527,8.977,53.23,8.34,52.636L8.34,52.636z"/>
	<path fill="#142A3E" d="M3.84,31.203c0.085-0.042,0.129-0.042,0.17,0.042c-1.613,2.633-2.546,5.688-2.546,8.998
		c0,3.268,0.933,6.366,2.546,8.956c0.298,0.468,0.17,0.636-0.296,0c-2.377-3.268-3.735-6.197-3.65-11.078
		c0-1.23,0.17-2.504,0.425-3.565C1.549,35.107,3.034,31.671,3.84,31.203L3.84,31.203z"/>
	<path fill="#142A3E" d="M35.504,55.523c-0.595,0.254-1.189,0.425-1.741,0.425c-0.807,0-1.486-0.257-1.952-0.808
		c-0.51-0.554-0.765-1.229-0.765-2.08c0-0.338,0.043-0.765,0.128-1.229l1.485-8.404h-1.741l0.213-0.891h1.697l0.766-4.202
		l2.248-0.679l-0.85,4.881h3.057l-0.17,0.891h-3.055l-1.528,8.7c-0.085,0.469-0.127,0.893-0.127,1.273
		c0,0.467,0.127,0.85,0.297,1.062c0.212,0.255,0.51,0.382,0.933,0.382c0.383,0,0.807-0.127,1.316-0.382L35.504,55.523L35.504,55.523
		z"/>
	<path fill="#142A3E" d="M41.486,55.523c-0.594,0.254-1.188,0.425-1.739,0.425c-0.807,0-1.485-0.257-1.953-0.808
		c-0.51-0.554-0.765-1.229-0.765-2.08c0-0.338,0.045-0.765,0.13-1.229l1.484-8.404h-1.739l0.212-0.891h1.696l0.722-4.202
		l2.292-0.679l-0.85,4.881h3.607l-0.17,0.891h-3.607l-1.528,8.7c-0.085,0.469-0.127,0.893-0.127,1.273
		c0,0.467,0.084,0.85,0.297,1.062c0.212,0.255,0.51,0.382,0.935,0.382c0.339,0,0.806-0.127,1.314-0.382L41.486,55.523L41.486,55.523
		z"/>
	<path fill="#142A3E" d="M45.18,54.122c-0.338,0-0.594-0.127-0.764-0.424c-0.212-0.298-0.297-0.722-0.297-1.315
		c0-1.146,0.212-2.464,0.595-3.904c0.38-1.485,0.849-2.633,1.356-3.521c0.68-1.104,1.527-1.611,2.632-1.611
		c0.468,0,0.935,0.039,1.358,0.168s0.85,0.34,1.271,0.596l-0.722,4.203C48.361,52.171,46.538,54.122,45.18,54.122L45.18,54.122z
		 M53.457,55.65l0.126-0.809h-0.212c-0.766-0.043-1.188-0.127-1.316-0.17c-0.17-0.042-0.212-0.212-0.212-0.467
		c0-0.467,0.042-1.062,0.171-1.696l1.782-10.019H51.63c-0.423-0.084-0.805-0.17-1.103-0.213c-0.34-0.043-0.594-0.043-0.807-0.043
		c-1.91,0-3.693,1.104-5.349,3.354c-1.698,2.251-2.505,4.67-2.505,7.303c0,1.021,0.17,1.781,0.595,2.25
		c0.381,0.51,0.935,0.764,1.74,0.764c0.935,0,1.95-0.508,3.056-1.57c1.104-1.062,2.121-2.462,3.016-4.202l-0.979,5.519H53.457
		L53.457,55.65z"/>
	<path fill="#142A3E" d="M55.917,55.777c0.044-0.936,0.086-1.613,0.086-1.994c0-3.607-0.51-6.792-1.569-9.551
		c-0.213-0.638-0.765-0.936-1.656-0.936l-0.213-0.042l0.129-0.765h3.564c0.891,3.098,1.485,6.281,1.698,9.593
		c2.206-4.032,3.522-7.173,3.989-9.464h0.594c1.146,3.098,1.867,6.322,2.08,9.719l1.061-1.697c1.656-2.717,2.461-4.709,2.461-6.068
		c0-0.807-0.211-1.484-0.679-2.08h2.632c0.043,0.255,0.043,0.468,0.043,0.638c0,1.06-0.723,2.802-2.207,5.179
		c-2.505,4.117-4.074,6.577-4.711,7.472h-0.723c0.085-0.808,0.127-1.359,0.127-1.699c0-2.674-0.381-5.222-1.145-7.599
		c-1.104,2.634-2.633,5.52-4.5,8.703c-0.041,0.041-0.17,0.252-0.34,0.595h-0.723L55.917,55.777L55.917,55.777z"/>
	<path fill="#142A3E" d="M71.325,54.122c-0.341,0-0.595-0.127-0.808-0.424c-0.17-0.298-0.254-0.722-0.254-1.315
		c0-1.146,0.211-2.464,0.594-3.904c0.381-1.485,0.849-2.633,1.356-3.521c0.681-1.104,1.528-1.611,2.634-1.611
		c0.467,0,0.932,0.039,1.355,0.168c0.425,0.129,0.85,0.34,1.271,0.596l-0.722,4.203C74.508,52.171,72.684,54.122,71.325,54.122
		L71.325,54.122z M79.602,55.65l0.127-0.809h-0.213c-0.764-0.043-1.188-0.127-1.312-0.17c-0.174-0.042-0.215-0.212-0.215-0.467
		c0-0.467,0.041-1.062,0.172-1.696l1.781-10.019h-2.166c-0.424-0.084-0.805-0.17-1.146-0.213c-0.297-0.043-0.552-0.043-0.764-0.043
		c-1.91,0-3.693,1.104-5.349,3.354c-1.697,2.251-2.504,4.67-2.504,7.303c0,1.021,0.168,1.781,0.594,2.25
		c0.381,0.51,0.935,0.764,1.74,0.764c0.936,0,1.951-0.508,3.057-1.57c1.104-1.062,2.121-2.462,3.014-4.202l-0.977,5.519H79.602
		L79.602,55.65z"/>
	<path fill="#142A3E" d="M11.141,54.674c6.069,3.354,13.114,0.383,15.321-4.669c2.165-4.839,0.849-11.246-3.48-13.624
		c-1.527-0.892-3.098-1.273-4.582-1.273c-5.094,0-9.212,4.329-9.212,9.636c0,4.88,3.438,8.869,7.937,9.549
		c0.638,0.042,0.808,0.255,0,0.17c-3.394-0.255-6.196-2.631-7.384-4.627c-0.891-1.525-1.315-3.268-1.4-4.625
		c-0.213-2.25,0.34-4.415,1.357-6.24c2.929-5.391,9.762-7.002,15.152-3.989c5.39,2.971,7.343,9.763,4.371,15.195
		c-3.733,6.79-11.544,8.531-18.293,4.753c-1.357-0.765-1.57-1.271-0.551-0.679C10.632,54.419,10.886,54.547,11.141,54.674
		L11.141,54.674z"/>
</g>
</svg>
