<?xml version="1.0" encoding="utf-8"?>
<!-- Generator: Adobe Illustrator 16.0.0, SVG Export Plug-In . SVG Version: 6.00 Build 0)  -->
<!DOCTYPE svg PUBLIC "-//W3C//DTD SVG 1.1//EN" "http://www.w3.org/Graphics/SVG/1.1/DTD/svg11.dtd">
<svg version="1.1" id="Layer_1" xmlns="http://www.w3.org/2000/svg" xmlns:xlink="http://www.w3.org/1999/xlink" x="0px" y="0px"
	 width="80px" height="52.5px" viewBox="0 0 80 52.5" enable-background="new 0 0 80 52.5" xml:space="preserve">
<g>
	<path fill="#142A3E" d="M8.421,36.458C7.067,34.08,5.708,29.887,8.082,24.84c1.23-2.627,3.562-4.577,5.512-5.638
		c-1.103-1.44,0.297-3.092,0.976-3.728c0.084-0.084,0-0.213-0.086-0.171c-2.798,1.355-5.765,4.534-7.08,7.081
		c-3.389,6.442-0.72,11.829,0.806,14.161C8.421,36.879,8.718,37.006,8.421,36.458L8.421,36.458z"/>
	<path fill="#142A3E" d="M8.378,38.871c-4.833-4.658-5.088-12.59-1.992-18.439c1.737-3.266,4.662-6.146,8.053-7.714
		c0.381-0.214,1.144-0.47,1.821-0.68c-0.508-1.018,0.849-2.119,2.925-2.459c0-0.041-0.041-0.083-0.084-0.126
		c-0.892-0.38-5.005,0.976-5.766,0.382c-3.181,1.949-6.063,4.578-7.926,7.926c-4.072,7.252-2.926,16.237,2.84,21.41
		C8.888,39.762,9.015,39.465,8.378,38.871L8.378,38.871z"/>
	<path fill="#142A3E" d="M3.883,17.463c0.086-0.043,0.13-0.043,0.17,0.042c-1.611,2.629-2.543,5.681-2.543,8.986
		c0,3.264,0.933,6.361,2.543,8.946c0.298,0.471,0.17,0.635-0.295,0c-2.375-3.262-3.731-6.189-3.646-11.064
		c0-1.228,0.17-2.5,0.426-3.562C1.595,21.364,3.079,17.931,3.883,17.463L3.883,17.463z"/>
	<path fill="#142A3E" d="M35.511,41.756c-0.596,0.254-1.188,0.424-1.739,0.424c-0.807,0-1.486-0.257-1.951-0.808
		c-0.509-0.553-0.765-1.228-0.765-2.075c0-0.337,0.043-0.767,0.127-1.23l1.484-8.393h-1.741l0.212-0.889h1.697l0.765-4.198
		l2.247-0.679l-0.85,4.876h3.053l-0.17,0.891h-3.051l-1.527,8.69c-0.084,0.47-0.125,0.891-0.125,1.273
		c0,0.465,0.125,0.845,0.297,1.061c0.212,0.254,0.509,0.378,0.932,0.378c0.383,0,0.807-0.127,1.314-0.378L35.511,41.756
		L35.511,41.756z"/>
	<path fill="#142A3E" d="M41.482,41.756c-0.592,0.254-1.185,0.424-1.736,0.424c-0.807,0-1.481-0.257-1.951-0.808
		c-0.507-0.553-0.764-1.228-0.764-2.075c0-0.337,0.046-0.767,0.129-1.23l1.482-8.393h-1.735l0.209-0.889h1.696l0.72-4.198
		l2.29-0.679l-0.85,4.876h3.604l-0.172,0.891h-3.6l-1.528,8.69c-0.082,0.47-0.124,0.891-0.124,1.273
		c0,0.465,0.084,0.845,0.297,1.061c0.21,0.254,0.51,0.378,0.934,0.378c0.34,0,0.805-0.127,1.312-0.378L41.482,41.756L41.482,41.756z
		"/>
	<path fill="#142A3E" d="M45.174,40.355c-0.338,0-0.594-0.127-0.764-0.427c-0.211-0.294-0.297-0.721-0.297-1.312
		c0-1.145,0.213-2.461,0.596-3.9c0.377-1.479,0.848-2.625,1.352-3.516c0.68-1.104,1.527-1.608,2.631-1.608
		c0.467,0,0.93,0.038,1.355,0.167c0.422,0.13,0.848,0.34,1.268,0.597l-0.721,4.196C48.352,38.406,46.531,40.355,45.174,40.355
		L45.174,40.355z M53.441,41.883l0.125-0.81h-0.211c-0.766-0.044-1.186-0.125-1.316-0.17c-0.17-0.041-0.211-0.211-0.211-0.468
		c0-0.467,0.041-1.061,0.172-1.694l1.779-10.004h-2.162c-0.42-0.087-0.803-0.173-1.102-0.216c-0.338-0.041-0.594-0.041-0.803-0.041
		c-1.908,0-3.689,1.102-5.344,3.35c-1.697,2.248-2.504,4.666-2.504,7.294c0,1.021,0.172,1.779,0.596,2.248
		c0.377,0.511,0.936,0.764,1.736,0.764c0.938,0,1.947-0.51,3.053-1.57c1.104-1.061,2.119-2.458,3.014-4.196l-0.979,5.514H53.441
		L53.441,41.883z"/>
	<path fill="#142A3E" d="M55.896,42.01c0.045-0.937,0.088-1.614,0.088-1.992c0-3.603-0.51-6.781-1.57-9.537
		c-0.211-0.64-0.764-0.939-1.654-0.939l-0.213-0.037l0.129-0.767h3.561c0.889,3.095,1.482,6.274,1.695,9.583
		c2.205-4.026,3.52-7.165,3.984-9.453h0.594c1.146,3.096,1.867,6.314,2.078,9.707l1.061-1.695c1.652-2.715,2.457-4.701,2.457-6.061
		c0-0.807-0.209-1.482-0.676-2.076h2.625c0.043,0.254,0.043,0.467,0.043,0.635c0,1.061-0.721,2.799-2.205,5.176
		c-2.502,4.11-4.068,6.566-4.703,7.462h-0.723c0.086-0.807,0.127-1.36,0.127-1.697c0-2.672-0.379-5.214-1.143-7.589
		c-1.104,2.629-2.629,5.514-4.496,8.692c-0.039,0.041-0.17,0.251-0.336,0.594h-0.725L55.896,42.01L55.896,42.01z"/>
	<path fill="#142A3E" d="M71.289,40.355c-0.342,0-0.594-0.127-0.809-0.427c-0.17-0.294-0.254-0.721-0.254-1.312
		c0-1.145,0.211-2.461,0.594-3.9c0.379-1.479,0.848-2.625,1.354-3.516c0.68-1.104,1.523-1.608,2.631-1.608
		c0.467,0,0.928,0.038,1.352,0.167c0.426,0.13,0.85,0.34,1.27,0.597l-0.719,4.196C74.465,38.406,72.645,40.355,71.289,40.355
		L71.289,40.355z M79.555,41.883l0.127-0.81h-0.215c-0.764-0.044-1.184-0.125-1.309-0.17c-0.174-0.041-0.215-0.211-0.215-0.468
		c0-0.467,0.041-1.061,0.172-1.694l1.777-10.004H77.73c-0.424-0.087-0.803-0.173-1.145-0.216c-0.295-0.041-0.549-0.041-0.764-0.041
		c-1.908,0-3.688,1.102-5.342,3.35c-1.695,2.248-2.5,4.666-2.5,7.294c0,1.021,0.168,1.779,0.594,2.248
		c0.379,0.511,0.934,0.764,1.736,0.764c0.934,0,1.949-0.51,3.053-1.57s2.121-2.458,3.012-4.196L75.4,41.883H79.555L79.555,41.883z"
		/>
	<path fill="#142A3E" d="M11.176,40.905c6.061,3.35,13.097,0.384,15.302-4.663c2.161-4.833,0.848-11.232-3.476-13.607
		c-1.526-0.891-3.094-1.272-4.577-1.272c-5.088,0-9.2,4.325-9.2,9.628c0,4.871,3.433,8.857,7.926,9.535
		c0.637,0.04,0.807,0.253,0,0.167c-3.389-0.254-6.188-2.626-7.375-4.62c-0.89-1.525-1.313-3.263-1.398-4.62
		c-0.212-2.245,0.339-4.41,1.353-6.233c2.927-5.383,9.751-6.993,15.134-3.983c5.383,2.967,7.334,9.752,4.366,15.176
		c-3.728,6.782-11.532,8.52-18.272,4.75c-1.355-0.767-1.569-1.271-0.55-0.681C10.667,40.652,10.922,40.778,11.176,40.905
		L11.176,40.905z"/>
</g>
</svg>
