<?xml version="1.0" encoding="utf-8"?>
<!-- Generator: Adobe Illustrator 16.0.0, SVG Export Plug-In . SVG Version: 6.00 Build 0)  -->
<!DOCTYPE svg PUBLIC "-//W3C//DTD SVG 1.1//EN" "http://www.w3.org/Graphics/SVG/1.1/DTD/svg11.dtd">
<svg version="1.1" id="Layer_1" xmlns="http://www.w3.org/2000/svg" xmlns:xlink="http://www.w3.org/1999/xlink" x="0px" y="0px"
	 width="80px" height="80px" viewBox="0 0 80 80" enable-background="new 0 0 80 80" xml:space="preserve">
<g>
	<path fill-rule="evenodd" clip-rule="evenodd" fill="#3E6DB2" d="M8.382,50.218c-1.357-2.377-2.717-6.578-0.34-11.63
		c1.231-2.632,3.566-4.583,5.519-5.646c-1.104-1.442,0.297-3.097,0.976-3.733c0.084-0.085,0-0.212-0.085-0.17
		c-2.801,1.357-5.771,4.54-7.088,7.088C3.969,42.578,6.642,47.969,8.17,50.303C8.382,50.642,8.68,50.77,8.382,50.218L8.382,50.218z"
		/>
	<path fill-rule="evenodd" clip-rule="evenodd" fill="#3E6DB2" d="M8.34,52.636C3.501,47.969,3.246,40.03,6.345,34.174
		c1.74-3.268,4.668-6.154,8.063-7.724c0.383-0.212,1.146-0.468,1.825-0.68c-0.51-1.019,0.85-2.122,2.929-2.463
		c0-0.041-0.042-0.083-0.084-0.127c-0.892-0.381-5.01,0.978-5.772,0.383c-3.184,1.952-6.07,4.584-7.937,7.937
		C1.293,38.759,2.44,47.756,8.212,52.934C8.85,53.528,8.977,53.231,8.34,52.636L8.34,52.636z"/>
	<path fill-rule="evenodd" clip-rule="evenodd" fill="#3E6DB2" d="M3.84,31.203c0.085-0.042,0.129-0.042,0.17,0.042
		c-1.613,2.633-2.546,5.688-2.546,8.998c0,3.268,0.933,6.366,2.546,8.956c0.298,0.468,0.17,0.636-0.296,0
		c-2.377-3.268-3.735-6.197-3.65-11.078c0-1.23,0.17-2.504,0.425-3.565C1.549,35.107,3.034,31.671,3.84,31.203L3.84,31.203z"/>
	<path fill-rule="evenodd" clip-rule="evenodd" fill="#3E6DB2" d="M35.504,55.523c-0.595,0.255-1.189,0.425-1.741,0.425
		c-0.807,0-1.486-0.256-1.952-0.808c-0.51-0.552-0.765-1.229-0.765-2.079c0-0.339,0.043-0.764,0.128-1.23l1.485-8.404h-1.741
		l0.213-0.891h1.697l0.766-4.202l2.248-0.679l-0.85,4.881h3.057l-0.17,0.891h-3.055l-1.528,8.7
		c-0.085,0.468-0.127,0.892-0.127,1.273c0,0.467,0.127,0.85,0.297,1.062c0.212,0.255,0.51,0.382,0.933,0.382
		c0.383,0,0.807-0.127,1.316-0.382L35.504,55.523L35.504,55.523z"/>
	<path fill-rule="evenodd" clip-rule="evenodd" fill="#3E6DB2" d="M41.486,55.523c-0.594,0.255-1.188,0.425-1.739,0.425
		c-0.807,0-1.485-0.256-1.953-0.808c-0.51-0.552-0.765-1.229-0.765-2.079c0-0.339,0.045-0.764,0.13-1.23l1.484-8.404h-1.739
		l0.212-0.891h1.696l0.722-4.202l2.292-0.679l-0.849,4.881h3.608l-0.17,0.891h-3.609l-1.526,8.7
		c-0.085,0.468-0.127,0.892-0.127,1.273c0,0.467,0.084,0.85,0.297,1.062c0.212,0.255,0.51,0.382,0.935,0.382
		c0.338,0,0.805-0.127,1.314-0.382L41.486,55.523L41.486,55.523z"/>
	<path fill-rule="evenodd" clip-rule="evenodd" fill="#3E6DB2" d="M45.18,54.122c-0.338,0-0.594-0.127-0.764-0.424
		c-0.212-0.298-0.297-0.721-0.297-1.315c0-1.146,0.212-2.464,0.595-3.905c0.38-1.486,0.848-2.633,1.357-3.522
		c0.679-1.104,1.527-1.612,2.631-1.612c0.468,0,0.934,0.04,1.358,0.168c0.425,0.129,0.85,0.34,1.272,0.595l-0.721,4.203
		C48.362,52.171,46.538,54.122,45.18,54.122L45.18,54.122z M53.457,55.65l0.126-0.807h-0.212c-0.765-0.043-1.188-0.127-1.316-0.17
		c-0.17-0.042-0.212-0.212-0.212-0.467c0-0.467,0.042-1.062,0.17-1.696l1.783-10.019H51.63c-0.423-0.084-0.805-0.169-1.103-0.212
		c-0.339-0.043-0.594-0.043-0.806-0.043c-1.91,0-3.693,1.105-5.348,3.353c-1.698,2.251-2.505,4.67-2.505,7.301
		c0,1.021,0.17,1.783,0.595,2.25c0.381,0.51,0.934,0.765,1.74,0.765c0.934,0,1.952-0.509,3.056-1.571
		c1.103-1.062,2.121-2.462,3.014-4.202l-0.978,5.519H53.457L53.457,55.65z"/>
	<path fill-rule="evenodd" clip-rule="evenodd" fill="#3E6DB2" d="M55.917,55.778c0.044-0.935,0.086-1.614,0.086-1.995
		c0-3.607-0.51-6.792-1.569-9.55c-0.213-0.638-0.765-0.935-1.656-0.935l-0.213-0.042l0.128-0.765h3.565
		c0.891,3.098,1.485,6.283,1.698,9.593c2.206-4.032,3.522-7.173,3.99-9.464h0.593c1.146,3.098,1.867,6.324,2.08,9.719l1.06-1.698
		c1.657-2.716,2.462-4.71,2.462-6.069c0-0.806-0.211-1.484-0.679-2.08h2.632c0.043,0.255,0.043,0.468,0.043,0.638
		c0,1.06-0.723,2.802-2.207,5.179c-2.505,4.117-4.075,6.577-4.711,7.47h-0.723c0.085-0.807,0.127-1.359,0.127-1.699
		c0-2.674-0.381-5.22-1.145-7.597c-1.104,2.632-2.633,5.518-4.499,8.702c-0.042,0.042-0.17,0.253-0.34,0.594H55.917L55.917,55.778z"
		/>
	<path fill-rule="evenodd" clip-rule="evenodd" fill="#3E6DB2" d="M71.325,54.122c-0.34,0-0.595-0.127-0.807-0.424
		c-0.17-0.298-0.254-0.721-0.254-1.315c0-1.146,0.211-2.464,0.594-3.905c0.38-1.486,0.848-2.633,1.357-3.522
		c0.679-1.104,1.528-1.612,2.632-1.612c0.467,0,0.933,0.04,1.357,0.168c0.425,0.129,0.849,0.34,1.273,0.595l-0.722,4.203
		C74.508,52.171,72.683,54.122,71.325,54.122L71.325,54.122z M79.602,55.65l0.127-0.807h-0.213c-0.764-0.043-1.188-0.127-1.314-0.17
		c-0.172-0.042-0.213-0.212-0.213-0.467c0-0.467,0.041-1.062,0.17-1.696l1.782-10.019h-2.165c-0.424-0.084-0.806-0.169-1.146-0.212
		c-0.297-0.043-0.552-0.043-0.764-0.043c-1.91,0-3.693,1.105-5.348,3.353c-1.698,2.251-2.504,4.67-2.504,7.301
		c0,1.021,0.168,1.783,0.593,2.25c0.382,0.51,0.935,0.765,1.741,0.765c0.935,0,1.952-0.509,3.056-1.571
		c1.104-1.062,2.121-2.462,3.014-4.202l-0.977,5.519H79.602L79.602,55.65z"/>
	<path fill-rule="evenodd" clip-rule="evenodd" fill="#3E6DB2" d="M11.141,54.674c6.069,3.354,13.114,0.383,15.321-4.669
		c2.165-4.839,0.849-11.246-3.48-13.624c-1.527-0.892-3.098-1.273-4.582-1.273c-5.094,0-9.212,4.329-9.212,9.636
		c0,4.88,3.438,8.869,7.937,9.549c0.638,0.042,0.808,0.255,0,0.17c-3.394-0.255-6.196-2.631-7.384-4.627
		c-0.891-1.526-1.315-3.268-1.4-4.625c-0.213-2.25,0.34-4.415,1.357-6.24c2.929-5.391,9.762-7.002,15.152-3.989
		c5.39,2.971,7.343,9.763,4.371,15.195c-3.733,6.79-11.544,8.531-18.293,4.752c-1.357-0.764-1.57-1.272-0.551-0.678
		C10.632,54.419,10.886,54.547,11.141,54.674L11.141,54.674z"/>
</g>
<g>
</g>
<g>
</g>
<g>
</g>
<g>
</g>
<g>
</g>
<g>
</g>
</svg>
