<?xml version="1.0" encoding="utf-8"?>
<!-- Generator: Adobe Illustrator 16.0.0, SVG Export Plug-In . SVG Version: 6.00 Build 0)  -->
<!DOCTYPE svg PUBLIC "-//W3C//DTD SVG 1.1//EN" "http://www.w3.org/Graphics/SVG/1.1/DTD/svg11.dtd">
<svg version="1.1" id="Layer_1" xmlns="http://www.w3.org/2000/svg" xmlns:xlink="http://www.w3.org/1999/xlink" x="0px" y="0px"
	 width="80px" height="29.631px" viewBox="0 0 80 29.631" enable-background="new 0 0 80 29.631" xml:space="preserve">
<g>
	<path fill="#142A3E" d="M25.243,8.65l-1.632,6.156c1.455,0,2.411,0.054,3.194-3.268C27.412,8.961,26.807,8.588,25.243,8.65z"/>
	<path fill="#142A3E" d="M40.001,0.064c-12.987,0-23.512,6.619-23.512,14.787c0,5.011,3.965,9.437,10.026,12.108l2.452-9.062
		c0.958-3.612,2.081-7.585,2.532-9.25c0.765-2.796,2.904-5.561,6.002-5.495c2.671,0.063,3.158,1.711,3.203,2.547
		c0.072,1.354-1.159,1.962-1.696,1.962c-0.837,0-1.527-0.721-1.527-1.596c0-0.874,0.688-1.672,1.527-1.672
		c-0.034-0.417-0.849-0.745-1.507-0.745c-1.104,0.001-1.916,1.133-2.116,1.883l-1.594,6.004h5.022l-2.105,7.907h-2.983l1.84-6.919
		h-2.038l-4.162,15.512c3.192,1.02,6.805,1.597,10.633,1.597c12.986,0,23.509-6.62,23.509-14.783
		C63.512,6.683,52.988,0.064,40.001,0.064z M30.007,11.537c-0.69,3.125-1.66,4.334-6.656,4.256l-0.976,3.65h-3.057l2.868-10.791
		h-1.309l0.262-0.99h5.967C29.288,7.662,30.498,9.35,30.007,11.537z M44.131,19.443h-6.329l4.317-6.917h-2.548l0.262-0.989h6.402
		l-4.387,6.918h2.547L44.131,19.443z M53.488,15.454c-0.021,0.122-0.039,0.209-0.08,0.338h-5.025l-0.387,1.446
		c-0.227,0.836,0.037,1.518,0.576,1.518c0.537,0,1.023-0.15,1.389-1.518l0.182-0.682h3.057c-0.939,2.703-2.822,3.258-4.818,3.19
		c-2.221-0.076-3.471-1.953-2.896-4.293c0.869-3.537,2.939-4.296,5.182-4.296C52.742,11.158,54.043,12.829,53.488,15.454z
		 M60.693,14.563c-0.793,0-1.68-0.668-1.426-1.892c-0.238-0.207-1.062,1.299-1.504,2.589c0.004,0.011-1.117,4.183-1.117,4.183h-2.98
		l1.838-6.918H54.41l0.264-0.988h4.072l-0.326,1.285c0.67-1.078,1.611-1.513,2.271-1.513c0.822,0,1.492,0.73,1.492,1.626
		C62.188,13.833,61.516,14.563,60.693,14.563z"/>
	<path fill="#142A3E" d="M50.332,12.145c-0.662-0.038-1.164,0.685-1.387,1.521l-0.281,1.063h1.965l0.281-1.063
		C51.131,12.829,50.98,12.145,50.332,12.145z"/>
</g>
</svg>
