<?xml version="1.0" encoding="utf-8"?>
<!-- Generator: Adobe Illustrator 16.0.0, SVG Export Plug-In . SVG Version: 6.00 Build 0)  -->
<!DOCTYPE svg PUBLIC "-//W3C//DTD SVG 1.1//EN" "http://www.w3.org/Graphics/SVG/1.1/DTD/svg11.dtd">
<svg version="1.1" id="Layer_1" xmlns="http://www.w3.org/2000/svg" xmlns:xlink="http://www.w3.org/1999/xlink" x="0px" y="0px"
	 width="80px" height="52.5px" viewBox="0 13.75 80 52.5" enable-background="new 0 13.75 80 52.5" xml:space="preserve">
<g>
	<path fill="#142A3E" d="M14.866,29.469l-2.772,10.455c2.472,0,4.094,0.091,5.426-5.55C18.548,29.999,17.52,29.366,14.866,29.469z"
		/>
	<path fill="#142A3E" d="M39.934,14.887C17.876,14.887,0,26.129,0,40.001c0,8.508,6.735,16.03,17.029,20.568l4.163-15.391
		c1.628-6.137,3.535-12.885,4.3-15.71c1.299-4.751,4.932-9.447,10.196-9.335c4.536,0.106,5.365,2.907,5.44,4.325
		c0.12,2.301-1.968,3.333-2.88,3.333c-1.424,0-2.595-1.224-2.595-2.711c0-1.484,1.171-2.841,2.595-2.841
		c-0.061-0.707-1.444-1.265-2.56-1.265c-1.876,0.003-3.254,1.926-3.596,3.2l-2.706,10.198h8.53l-3.574,13.43h-5.067l3.126-11.75
		H28.94l-7.067,26.346c5.42,1.733,11.558,2.714,18.061,2.714c22.056,0,39.931-11.245,39.931-25.111
		C79.865,26.129,61.99,14.887,39.934,14.887z M22.959,34.374c-1.173,5.307-2.82,7.359-11.307,7.229l-1.657,6.201H4.804l4.87-18.332
		H7.449l0.444-1.679h10.136C21.735,27.791,23.789,30.658,22.959,34.374z M46.947,47.804h-10.75l7.333-11.75H39.2l0.444-1.679h10.877
		l-7.455,11.749h4.328L46.947,47.804z M62.841,41.024c-0.034,0.209-0.065,0.357-0.135,0.578h-8.538l-0.656,2.455
		c-0.385,1.422,0.062,2.58,0.979,2.58c0.913,0,1.737-0.258,2.358-2.58l0.312-1.16h5.188c-1.594,4.591-4.793,5.537-8.182,5.422
		c-3.77-0.129-5.895-3.317-4.918-7.295c1.471-6.005,4.993-7.295,8.798-7.295C61.572,33.729,63.784,36.568,62.841,41.024z
		 M75.079,39.513c-1.347,0-2.854-1.133-2.421-3.212c-0.407-0.351-1.805,2.206-2.555,4.396c0.006,0.018-1.897,7.106-1.897,7.106
		h-5.062l3.121-11.752h-1.854l0.444-1.678h6.918l-0.555,2.184c1.139-1.832,2.734-2.57,3.857-2.57c1.396,0,2.537,1.24,2.537,2.761
		C77.616,38.273,76.477,39.513,75.079,39.513z"/>
	<path fill="#142A3E" d="M57.479,35.405c-1.123-0.062-1.977,1.163-2.355,2.584l-0.482,1.806h3.34l0.479-1.806
		C58.837,36.568,58.579,35.405,57.479,35.405z"/>
</g>
</svg>
