<?xml version="1.0" encoding="utf-8"?>
<!-- Generator: Adobe Illustrator 16.0.0, SVG Export Plug-In . SVG Version: 6.00 Build 0)  -->
<!DOCTYPE svg PUBLIC "-//W3C//DTD SVG 1.1//EN" "http://www.w3.org/Graphics/SVG/1.1/DTD/svg11.dtd">
<svg version="1.1" id="Layer_1" xmlns="http://www.w3.org/2000/svg" xmlns:xlink="http://www.w3.org/1999/xlink" x="0px" y="0px"
	 width="80px" height="80px" viewBox="0 0 80 80" enable-background="new 0 0 80 80" xml:space="preserve">
<g>
	<path fill-rule="evenodd" clip-rule="evenodd" fill="#3E6DB2" d="M24.524,46.382c-2.146,3.466-5.97,5.783-10.346,5.783
		c-6.718,0-12.166-5.444-12.166-12.166c0-6.718,5.447-12.164,12.166-12.164c4.241,0,7.971,2.171,10.148,5.46h2.156
		c-2.377-4.352-6.995-7.305-12.304-7.305c-7.737,0-14.009,6.272-14.009,14.009c0,7.74,6.272,14.011,14.009,14.011
		c5.438,0,10.141-3.103,12.463-7.628H24.524z"/>
	<path fill-rule="evenodd" clip-rule="evenodd" fill="#3E6DB2" d="M11.663,34.111c0,0-1.123,7.048-1.328,8.851
		c-0.205,1.802-1.532,1.16-1.532,1.16v1.43c3.269,0.92,3.778-4.494,3.778-4.494c1.328,0.102,5.619,0.307,5.925-3.924
		C18.814,32.903,11.663,34.111,11.663,34.111z M12.992,39.804l0.414-3.751c0,0,3.568-1.209,3.466,1.081S12.992,39.804,12.992,39.804
		z"/>
	<path fill-rule="evenodd" clip-rule="evenodd" fill="#3E6DB2" d="M19.235,37.77l-1.239,7.888h1.634c0,0-0.261-6.566,3.598-7.013
		v-1.511c0,0-1.326-0.289-2.615,1.511V37.77H19.235z"/>
	<polygon fill-rule="evenodd" clip-rule="evenodd" fill="#3E6DB2" points="24.431,37.134 22.797,45.657 24.431,45.657 
		26.167,37.134 	"/>
	<rect x="24.482" y="33.952" fill-rule="evenodd" clip-rule="evenodd" fill="#3E6DB2" width="2.159" height="1.782"/>
	<path fill-rule="evenodd" clip-rule="evenodd" fill="#3E6DB2" d="M27.393,37.134h1.532v1.511c0,0,0.817-1.689,3.064-1.527
		c2.247,0.161,2.349,3.334,1.429,8.54h-2.247c0,0,2.45-7.013,0.102-7.013c-2.349,0-3.064,3.033-3.371,7.013h-1.735L27.393,37.134z"
		/>
	<path fill-rule="evenodd" clip-rule="evenodd" fill="#3E6DB2" d="M38.526,34.843l-0.614,2.291h2.1v1.511h-2.406
		c0,0-1.532,5.272,0,5.171c1.532-0.102,1.532-0.102,1.532-0.102v1.532c0,0-3.166,1.309-3.778-0.571
		c-0.613-1.88,1.021-6.03,1.021-6.03h-1.634v-1.511h2.042l0.59-2.291H38.526z"/>
	<path opacity="0.7" fill-rule="evenodd" clip-rule="evenodd" fill="#3E6DB2" d="M41.386,33.396l-1.373,12.261h1.373
		c0,0-0.104-7.08,2.451-7.372c2.554-0.292,1.94,2.371,1.226,7.372h1.636c0,0,2.244-8.474-1.738-8.551
		c-1.939-0.032-3.165,1.538-3.165,1.538l0.919-5.248H41.386z"/>
	<path opacity="0.7" fill-rule="evenodd" clip-rule="evenodd" fill="#3E6DB2" d="M48.564,37.77h1.911c0,0-1.94,7.152,0.408,6.905
		c2.351-0.247,3.167-3.452,3.371-6.905h1.431l-0.919,7.921h-1.328v-1.467c0,0-1.737,1.434-2.86,1.434S47.161,45.411,48.564,37.77z"
		/>
	<path opacity="0.7" fill-rule="evenodd" clip-rule="evenodd" fill="#3E6DB2" d="M58.647,38.645l0.816-5.248h-1.838l-1.94,12.261
		h1.43l0.511-1.638c0,0,0.409,1.638,2.248,1.638c1.838,0,4.698-2.403,4.596-5.392C64.367,37.278,61.012,35.416,58.647,38.645z
		 M62.641,41.675c-0.471,1.582-1.775,2.593-2.917,2.254c-1.141-0.339-1.681-1.898-1.211-3.48c0.47-1.583,1.773-2.592,2.915-2.253
		C62.57,38.534,63.111,40.093,62.641,41.675z"/>
	<path opacity="0.7" fill-rule="evenodd" clip-rule="evenodd" fill="#3E6DB2" d="M65.632,45.024c0.181-0.605-0.12-1.229-0.674-1.394
		c-0.554-0.163-1.146,0.192-1.324,0.798c-0.181,0.604,0.12,1.229,0.673,1.393C64.861,45.986,65.454,45.628,65.632,45.024z"/>
	<path opacity="0.7" fill-rule="evenodd" clip-rule="evenodd" fill="#3E6DB2" d="M73.253,38.645v-1.538c0,0-5.821-0.628-6.638,4.624
		c-0.817,5.251,4.801,4.418,5.516,2.995v-1.135c0,0-4.7,2.591-4.087-1.86C68.656,37.278,73.253,38.645,73.253,38.645z"/>
	<path opacity="0.7" fill-rule="evenodd" clip-rule="evenodd" fill="#3E6DB2" d="M77.236,36.592
		c-1.635-0.074-3.064,2.053-3.064,2.053h1.022c3.779-2.924,3.064,1.402,3.064,1.402s-6.333-0.316-5.414,3.544
		c0.919,3.862,5.004,0.402,5.004,0.402l-0.202,1.664h1.326c0,0-0.306-2.354,0.597-4.596C80.472,38.82,78.871,36.666,77.236,36.592z
		 M77.135,43.993c-0.512,0.485-3.884,0.619-3.064-1.031c0.818-1.65,3.778-1.9,3.778-1.9S77.646,43.509,77.135,43.993z"/>
</g>
<g>
</g>
<g>
</g>
<g>
</g>
<g>
</g>
<g>
</g>
<g>
</g>
</svg>
