<?xml version="1.0" encoding="utf-8"?>
<!-- Generator: Adobe Illustrator 16.0.0, SVG Export Plug-In . SVG Version: 6.00 Build 0)  -->
<!DOCTYPE svg PUBLIC "-//W3C//DTD SVG 1.1//EN" "http://www.w3.org/Graphics/SVG/1.1/DTD/svg11.dtd">
<svg version="1.1" id="Layer_1" xmlns="http://www.w3.org/2000/svg" xmlns:xlink="http://www.w3.org/1999/xlink" x="0px" y="0px"
	 width="80px" height="24.698px" viewBox="0 3.322 80 24.698" enable-background="new 0 3.322 80 24.698" xml:space="preserve">
<g>
	<path fill="#142A3E" d="M33.129,21.296c-1.893,3.055-5.263,5.098-9.12,5.098c-5.921,0-10.724-4.799-10.724-10.724
		c0-5.921,4.802-10.722,10.724-10.722c3.738,0,7.026,1.914,8.945,4.812h1.9c-2.096-3.836-6.166-6.438-10.846-6.438
		c-6.819,0-12.348,5.528-12.348,12.348c0,6.822,5.528,12.35,12.348,12.35c4.793,0,8.938-2.734,10.985-6.724H33.129L33.129,21.296z"
		/>
	<path fill="#142A3E" d="M21.792,10.48c0,0-0.99,6.213-1.171,7.803c-0.18,1.588-1.351,1.021-1.351,1.021v1.261
		c2.882,0.812,3.331-3.961,3.331-3.961c1.17,0.093,4.952,0.272,5.223-3.459C28.096,9.415,21.792,10.48,21.792,10.48z M22.964,15.498
		l0.364-3.307c0,0,3.146-1.065,3.055,0.953C26.294,15.163,22.964,15.498,22.964,15.498z"/>
	<path fill="#142A3E" d="M28.466,13.705l-1.092,6.955h1.44c0,0-0.23-5.788,3.172-6.183v-1.332c0,0-1.169-0.254-2.306,1.332v-0.771
		H28.466z"/>
	<polygon fill="#142A3E" points="33.046,13.144 31.605,20.657 33.046,20.657 34.577,13.144 	"/>
	<rect x="33.091" y="10.34" fill="#142A3E" width="1.903" height="1.57"/>
	<path fill="#142A3E" d="M35.657,13.144h1.351v1.332c0,0,0.72-1.488,2.7-1.345c1.98,0.141,2.071,2.939,1.26,7.528h-1.98
		c0,0,2.159-6.183,0.09-6.183c-2.07,0-2.7,2.674-2.972,6.183h-1.528L35.657,13.144z"/>
	<path fill="#142A3E" d="M45.47,11.125l-0.541,2.019h1.852v1.332h-2.12c0,0-1.351,4.648,0,4.558
		c1.349-0.092,1.349-0.092,1.349-0.092v1.351c0,0-2.791,1.154-3.328-0.503c-0.541-1.658,0.899-5.315,0.899-5.315h-1.44v-1.332h1.801
		l0.52-2.02L45.47,11.125L45.47,11.125z"/>
	<path opacity="0.7" fill="#142A3E" enable-background="new    " d="M47.99,9.85l-1.21,10.808h1.21c0,0-0.091-6.241,2.161-6.498
		c2.25-0.257,1.709,2.09,1.08,6.498h1.443c0,0,1.978-7.471-1.532-7.538c-1.708-0.027-2.789,1.355-2.789,1.355l0.809-4.625H47.99z"/>
	<path opacity="0.7" fill="#142A3E" enable-background="new    " d="M54.318,13.705h1.683c0,0-1.709,6.304,0.358,6.087
		c2.075-0.218,2.792-3.044,2.971-6.087h1.264l-0.811,6.983h-1.17v-1.294c0,0-1.53,1.266-2.521,1.266
		C55.104,20.659,53.081,20.441,54.318,13.705z"/>
	<path opacity="0.7" fill="#142A3E" enable-background="new    " d="M63.205,14.476l0.717-4.625h-1.62l-1.708,10.808h1.261
		l0.451-1.446c0,0,0.359,1.446,1.979,1.446c1.622,0,4.142-2.119,4.052-4.755C68.247,13.271,65.288,11.631,63.205,14.476z
		 M66.725,17.148c-0.415,1.394-1.562,2.285-2.57,1.987c-1.005-0.3-1.482-1.672-1.067-3.066c0.414-1.396,1.562-2.285,2.568-1.985
		C66.663,14.379,67.141,15.753,66.725,17.148z"/>
</g>
</svg>
