<?xml version="1.0" encoding="utf-8"?>
<!-- Generator: Adobe Illustrator 16.0.0, SVG Export Plug-In . SVG Version: 6.00 Build 0)  -->
<!DOCTYPE svg PUBLIC "-//W3C//DTD SVG 1.1//EN" "http://www.w3.org/Graphics/SVG/1.1/DTD/svg11.dtd">
<svg version="1.1" id="Layer_1" xmlns="http://www.w3.org/2000/svg" xmlns:xlink="http://www.w3.org/1999/xlink" x="0px" y="0px"
	 width="80px" height="80px" viewBox="0 0 80 80" enable-background="new 0 0 80 80" xml:space="preserve">
<g>
	<path fill="#142A3E" d="M24.524,46.382c-2.146,3.466-5.97,5.783-10.346,5.783c-6.718,0-12.166-5.444-12.166-12.166
		c0-6.718,5.447-12.164,12.166-12.164c4.241,0,7.971,2.171,10.148,5.46h2.156c-2.377-4.352-6.995-7.305-12.304-7.305
		c-7.737,0-14.009,6.272-14.009,14.009c0,7.74,6.272,14.011,14.009,14.011c5.438,0,10.141-3.103,12.463-7.628H24.524L24.524,46.382z
		"/>
	<path fill="#142A3E" d="M11.663,34.111c0,0-1.123,7.048-1.328,8.851c-0.205,1.802-1.532,1.16-1.532,1.16v1.43
		c3.269,0.921,3.778-4.493,3.778-4.493c1.328,0.102,5.619,0.307,5.925-3.925C18.814,32.903,11.663,34.111,11.663,34.111z
		 M12.992,39.804l0.414-3.751c0,0,3.568-1.209,3.466,1.081S12.992,39.804,12.992,39.804z"/>
	<path fill="#142A3E" d="M19.235,37.77l-1.239,7.888h1.634c0,0-0.261-6.566,3.598-7.013v-1.511c0,0-1.326-0.289-2.615,1.511V37.77
		H19.235z"/>
	<polygon fill="#142A3E" points="24.431,37.134 22.797,45.657 24.431,45.657 26.167,37.134 	"/>
	<rect x="24.482" y="33.952" fill="#142A3E" width="2.159" height="1.782"/>
	<path fill="#142A3E" d="M27.393,37.134h1.532v1.511c0,0,0.817-1.689,3.064-1.527c2.247,0.161,2.349,3.334,1.429,8.54h-2.247
		c0,0,2.45-7.013,0.102-7.013c-2.349,0-3.064,3.033-3.371,7.013h-1.735L27.393,37.134z"/>
	<path fill="#142A3E" d="M38.526,34.843l-0.614,2.291h2.1v1.511h-2.406c0,0-1.532,5.272,0,5.171
		c1.532-0.103,1.532-0.103,1.532-0.103v1.532c0,0-3.166,1.309-3.778-0.571c-0.613-1.88,1.021-6.03,1.021-6.03h-1.634v-1.511h2.042
		l0.59-2.291H38.526L38.526,34.843z"/>
	<path opacity="0.7" fill="#142A3E" enable-background="new    " d="M41.387,33.396l-1.374,12.261h1.374c0,0-0.104-7.08,2.45-7.372
		c2.554-0.292,1.94,2.371,1.226,7.372h1.637c0,0,2.244-8.474-1.738-8.551c-1.939-0.032-3.165,1.538-3.165,1.538l0.919-5.248H41.387z
		"/>
	<path opacity="0.7" fill="#142A3E" enable-background="new    " d="M48.564,37.77h1.91c0,0-1.939,7.152,0.408,6.905
		c2.352-0.247,3.167-3.452,3.371-6.905h1.432l-0.92,7.921h-1.328v-1.467c0,0-1.736,1.434-2.859,1.434S47.161,45.411,48.564,37.77z"
		/>
	<path opacity="0.7" fill="#142A3E" enable-background="new    " d="M58.646,38.645l0.816-5.248h-1.838l-1.939,12.261h1.43
		l0.511-1.639c0,0,0.409,1.639,2.248,1.639c1.838,0,4.698-2.403,4.597-5.392C64.367,37.278,61.012,35.416,58.646,38.645z
		 M62.641,41.675c-0.471,1.582-1.774,2.593-2.916,2.255c-1.142-0.34-1.682-1.898-1.211-3.48c0.469-1.583,1.772-2.592,2.914-2.253
		C62.57,38.534,63.111,40.093,62.641,41.675z"/>
	<path opacity="0.7" fill="#142A3E" enable-background="new    " d="M65.632,45.023c0.181-0.604-0.12-1.229-0.674-1.394
		c-0.554-0.163-1.146,0.192-1.324,0.798c-0.181,0.604,0.12,1.229,0.673,1.393C64.861,45.986,65.454,45.628,65.632,45.023z"/>
	<path opacity="0.7" fill="#142A3E" enable-background="new    " d="M73.253,38.645v-1.538c0,0-5.821-0.628-6.638,4.624
		c-0.817,5.252,4.801,4.418,5.516,2.996v-1.136c0,0-4.699,2.591-4.087-1.86C68.656,37.278,73.253,38.645,73.253,38.645z"/>
	<path opacity="0.7" fill="#142A3E" enable-background="new    " d="M77.236,36.592c-1.635-0.074-3.064,2.053-3.064,2.053h1.021
		c3.779-2.924,3.064,1.402,3.064,1.402s-6.333-0.316-5.414,3.544c0.92,3.862,5.004,0.402,5.004,0.402l-0.201,1.664h1.326
		c0,0-0.307-2.354,0.596-4.597C80.473,38.82,78.871,36.666,77.236,36.592z M77.135,43.993c-0.512,0.485-3.884,0.618-3.064-1.031
		c0.818-1.649,3.779-1.899,3.779-1.899S77.646,43.509,77.135,43.993z"/>
</g>
</svg>
