<?xml version="1.0" encoding="utf-8"?>
<!-- Generator: Adobe Illustrator 16.0.0, SVG Export Plug-In . SVG Version: 6.00 Build 0)  -->
<!DOCTYPE svg PUBLIC "-//W3C//DTD SVG 1.1//EN" "http://www.w3.org/Graphics/SVG/1.1/DTD/svg11.dtd">
<svg version="1.1" id="Layer_1" xmlns="http://www.w3.org/2000/svg" xmlns:xlink="http://www.w3.org/1999/xlink" x="0px" y="0px"
	 width="80px" height="52.5px" viewBox="0 0 80 52.5" enable-background="new 0 0 80 52.5" xml:space="preserve">
<g>
	<path fill="#142A3E" d="M30.239,34.174c-2.667,4.303-7.413,7.181-12.846,7.181c-8.34,0-15.104-6.759-15.104-15.106
		c0-8.339,6.763-15.101,15.104-15.101c5.265,0,9.896,2.695,12.6,6.776h2.676c-2.952-5.402-8.685-9.067-15.277-9.067
		C7.788,8.856,0,16.643,0,26.248c0,9.61,7.786,17.396,17.392,17.396c6.751,0,12.589-3.849,15.473-9.47H30.239L30.239,34.174z"/>
	<path fill="#142A3E" d="M14.271,18.938c0,0-1.395,8.752-1.649,10.991c-0.254,2.236-1.903,1.438-1.903,1.438v1.774
		c4.059,1.145,4.692-5.579,4.692-5.579c1.648,0.132,6.975,0.386,7.357-4.871C23.15,17.438,14.271,18.938,14.271,18.938z
		 M15.921,26.006l0.513-4.657c0,0,4.431-1.5,4.303,1.343C20.612,25.535,15.921,26.006,15.921,26.006z"/>
	<path fill="#142A3E" d="M23.671,23.48l-1.538,9.797h2.028c0,0-0.324-8.151,4.468-8.709v-1.876c0,0-1.646-0.357-3.248,1.876v-1.085
		h-1.71V23.48z"/>
	<polygon fill="#142A3E" points="30.123,22.691 28.093,33.274 30.123,33.274 32.279,22.691 	"/>
	<rect x="30.186" y="18.741" fill="#142A3E" width="2.681" height="2.212"/>
	<path fill="#142A3E" d="M33.8,22.691h1.902v1.876c0,0,1.015-2.097,3.803-1.896c2.788,0.199,2.918,4.141,1.774,10.605h-2.789
		c0,0,3.041-8.71,0.127-8.71c-2.916,0-3.803,3.767-4.186,8.71H32.28L33.8,22.691z"/>
	<path fill="#142A3E" d="M47.623,19.848l-0.762,2.844h2.607v1.876h-2.986c0,0-1.902,6.548,0,6.421
		c1.899-0.132,1.899-0.132,1.899-0.132v1.904c0,0-3.931,1.625-4.688-0.707c-0.762-2.336,1.267-7.488,1.267-7.488h-2.028v-1.876
		h2.536l0.733-2.845L47.623,19.848L47.623,19.848z"/>
	<path opacity="0.7" fill="#142A3E" enable-background="new    " d="M51.172,18.052l-1.706,15.223h1.706c0,0-0.129-8.79,3.043-9.153
		c3.169-0.361,2.406,2.944,1.521,9.153h2.033c0,0,2.787-10.522-2.156-10.616c-2.407-0.039-3.929,1.907-3.929,1.907l1.139-6.514
		H51.172z"/>
	<path opacity="0.7" fill="#142A3E" enable-background="new    " d="M60.085,23.48h2.37c0,0-2.407,8.881,0.505,8.575
		c2.922-0.308,3.932-4.288,4.185-8.575h1.779l-1.142,9.836h-1.647v-1.821c0,0-2.155,1.782-3.552,1.782
		C61.191,33.277,58.343,32.97,60.085,23.48z"/>
	<path opacity="0.7" fill="#142A3E" enable-background="new    " d="M72.603,24.567l1.01-6.515H71.33l-2.406,15.225h1.777
		l0.636-2.038c0,0,0.505,2.038,2.787,2.038c2.284,0,5.833-2.984,5.707-6.698C79.704,22.87,75.536,20.56,72.603,24.567z
		 M77.56,28.331c-0.583,1.964-2.199,3.219-3.62,2.798c-1.414-0.421-2.087-2.354-1.502-4.319c0.583-1.965,2.2-3.217,3.617-2.796
		C77.473,24.43,78.146,26.367,77.56,28.331z"/>
</g>
</svg>
