<?xml version="1.0" encoding="utf-8"?>
<!-- Generator: Adobe Illustrator 16.0.0, SVG Export Plug-In . SVG Version: 6.00 Build 0)  -->
<!DOCTYPE svg PUBLIC "-//W3C//DTD SVG 1.1//EN" "http://www.w3.org/Graphics/SVG/1.1/DTD/svg11.dtd">
<svg version="1.1" id="Layer_1" xmlns="http://www.w3.org/2000/svg" xmlns:xlink="http://www.w3.org/1999/xlink" x="0px" y="0px"
	 width="156.605px" height="50.305px" viewBox="0 0 156.605 50.305" enable-background="new 0 0 156.605 50.305"
	 xml:space="preserve">
<g>
	<path fill="#142A3E" d="M0.197,25.813c0-3.392,2.741-5.785,5.736-5.785c1.094,0,5.288,0,5.288,0l-2.197,3.594c0,0-1.847,0-3.041,0
		c-2.794,0-3.045,4.286-0.045,4.286c1.192,0,1.543-0.499,2.292-1.797c0.402-0.599,4.588-7.433,5.135-8.279
		c0.3-0.499,1.25-2.392,3.147-3.24c1.745-0.796,3.14-0.75,3.987-0.552c2.545,0.552,3.791,2.195,3.791,2.195l-2.189,3.442
		c-0.451-1.895-2.098-2.193-2.749-2.193c-1.795,0-2.246,1.049-2.79,1.846c-0.102,0.2-4.246,7.135-4.545,7.534
		c-0.944,1.642-2.498,4.634-6.133,4.634C3.139,31.502,0.197,29.206,0.197,25.813L0.197,25.813z"/>
	<path fill="#142A3E" d="M6.081,37.838h4.188c0,0,7.531-12.372,7.831-12.923c0.354-0.501,0.753-1.249,1.946-1.249
		c1.247,0,2.243,0.797,2.243,2.095c0,1.147-0.747,2.24-2.243,2.24c-1.498,0-2.993,0-2.993,0l-2.195,3.497c0,0,3.793,0,5.192,0
		c2.842,0,5.734-2.042,5.734-5.487c0.05-4.494-3.493-5.941-5.686-5.941c-2.246,0-3.942,1.25-4.842,2.696
		C14.463,24.072,6.081,37.838,6.081,37.838L6.081,37.838z"/>
	<path fill="#142A3E" d="M38.588,27.761l1.444-0.131c0.066,0.583,0.225,1.056,0.48,1.435c0.253,0.366,0.638,0.67,1.168,0.904
		c0.526,0.224,1.12,0.34,1.781,0.34c0.586,0,1.101-0.085,1.55-0.263c0.45-0.173,0.78-0.413,1.002-0.716
		c0.217-0.3,0.333-0.628,0.333-0.991c0-0.364-0.111-0.681-0.324-0.952c-0.212-0.275-0.56-0.502-1.041-0.684
		c-0.31-0.121-1-0.312-2.069-0.564c-1.065-0.26-1.815-0.498-2.239-0.727c-0.555-0.288-0.969-0.653-1.242-1.081
		c-0.268-0.428-0.406-0.909-0.406-1.445c0-0.583,0.162-1.134,0.495-1.638c0.334-0.514,0.819-0.899,1.46-1.164
		c0.638-0.261,1.345-0.392,2.124-0.392c0.865,0,1.622,0.134,2.279,0.415c0.657,0.276,1.165,0.683,1.516,1.225
		c0.354,0.533,0.547,1.146,0.568,1.827l-1.47,0.107c-0.082-0.729-0.345-1.29-0.801-1.659c-0.457-0.376-1.131-0.562-2.021-0.562
		c-0.93,0-1.607,0.171-2.031,0.511c-0.421,0.344-0.639,0.756-0.639,1.23c0,0.418,0.152,0.763,0.449,1.031
		c0.295,0.271,1.069,0.546,2.316,0.826c1.248,0.281,2.105,0.528,2.568,0.74c0.678,0.313,1.179,0.705,1.501,1.182
		c0.322,0.479,0.48,1.027,0.48,1.646s-0.177,1.2-0.53,1.751c-0.355,0.548-0.865,0.968-1.527,1.273
		c-0.659,0.299-1.4,0.451-2.231,0.451c-1.05,0-1.931-0.148-2.639-0.456c-0.713-0.301-1.268-0.767-1.674-1.377
		C38.816,29.23,38.604,28.531,38.588,27.761L38.588,27.761z"/>
	<path fill="#142A3E" d="M55.224,28.404l1.4,0.188c-0.151,0.964-0.542,1.72-1.175,2.265c-0.632,0.544-1.405,0.819-2.325,0.819
		c-1.152,0-2.077-0.377-2.773-1.127c-0.699-0.749-1.052-1.835-1.052-3.231c0-0.909,0.153-1.7,0.454-2.378
		c0.299-0.682,0.759-1.193,1.372-1.534c0.62-0.34,1.279-0.511,2.008-0.511c0.912,0,1.661,0.231,2.239,0.692
		c0.581,0.464,0.955,1.114,1.117,1.969l-1.385,0.215c-0.131-0.565-0.366-0.988-0.694-1.277c-0.34-0.285-0.746-0.427-1.216-0.427
		c-0.719,0-1.304,0.253-1.752,0.775c-0.453,0.513-0.675,1.326-0.675,2.438c0,1.131,0.212,1.95,0.646,2.461
		c0.439,0.513,1.001,0.776,1.699,0.776c0.556,0,1.025-0.179,1.396-0.52C54.884,29.643,55.123,29.12,55.224,28.404L55.224,28.404z"/>
	<path fill="#142A3E" d="M57.846,31.486V19.885h1.425v4.164c0.663-0.772,1.507-1.157,2.518-1.157c0.618,0,1.163,0.124,1.618,0.37
		c0.46,0.245,0.79,0.582,0.989,1.019c0.199,0.433,0.295,1.062,0.295,1.884v5.33h-1.427v-5.331c0-0.714-0.155-1.227-0.466-1.556
		c-0.303-0.326-0.741-0.488-1.304-0.488c-0.423,0-0.823,0.11-1.194,0.331c-0.372,0.217-0.64,0.516-0.792,0.892
		c-0.161,0.374-0.239,0.892-0.239,1.55v4.6h-1.425L57.846,31.486L57.846,31.486z"/>
	<path fill="#142A3E" d="M72.615,28.778l1.468,0.188c-0.229,0.863-0.659,1.525-1.289,2.003c-0.628,0.473-1.433,0.712-2.408,0.712
		c-1.229,0-2.204-0.375-2.921-1.132c-0.723-0.763-1.078-1.822-1.078-3.188c0-1.415,0.365-2.512,1.092-3.294
		c0.724-0.781,1.67-1.168,2.832-1.168c1.123,0,2.042,0.381,2.75,1.145c0.715,0.768,1.071,1.845,1.071,3.231
		c0,0.086-0.004,0.206-0.006,0.378h-6.274c0.053,0.922,0.319,1.626,0.788,2.122c0.467,0.488,1.052,0.73,1.751,0.73
		c0.525,0,0.968-0.129,1.343-0.411C72.102,29.816,72.395,29.383,72.615,28.778L72.615,28.778z M67.937,26.473h4.695
		c-0.062-0.706-0.244-1.235-0.541-1.587c-0.452-0.546-1.043-0.823-1.766-0.823c-0.652,0-1.204,0.217-1.648,0.655
		C68.231,25.158,67.987,25.744,67.937,26.473L67.937,26.473z"/>
	<path fill="#142A3E" d="M75.863,31.486v-8.402h1.276v1.274c0.328-0.596,0.632-0.99,0.906-1.18c0.276-0.189,0.585-0.285,0.915-0.285
		c0.479,0,0.97,0.158,1.467,0.461l-0.495,1.321c-0.341-0.205-0.699-0.311-1.043-0.311c-0.311,0-0.589,0.094-0.836,0.284
		c-0.255,0.187-0.423,0.449-0.53,0.779c-0.161,0.508-0.24,1.054-0.24,1.659v4.403h-1.421L75.863,31.486L75.863,31.486z"/>
	<path fill="#142A3E" d="M81.279,21.522v-1.639h1.431v1.639H81.279L81.279,21.522z M81.279,31.486v-8.402h1.431v8.402H81.279
		L81.279,31.486z"/>
	<path fill="#142A3E" d="M84.879,31.486v-8.402h1.274v1.193c0.615-0.923,1.512-1.386,2.674-1.386c0.506,0,0.971,0.092,1.396,0.272
		c0.423,0.182,0.741,0.421,0.95,0.717c0.207,0.293,0.364,0.645,0.444,1.054c0.047,0.261,0.081,0.725,0.081,1.383v5.168h-1.431
		v-5.111c0-0.579-0.049-1.015-0.166-1.306c-0.108-0.284-0.304-0.514-0.586-0.683c-0.286-0.174-0.618-0.262-0.997-0.262
		c-0.606,0-1.122,0.194-1.572,0.583c-0.44,0.38-0.658,1.11-0.658,2.191v4.592h-1.41V31.486L84.879,31.486z"/>
	<path fill="#142A3E" d="M93.629,32.183l1.392,0.203c0.049,0.432,0.212,0.737,0.469,0.937c0.364,0.269,0.85,0.396,1.455,0.396
		c0.657,0,1.17-0.127,1.522-0.396c0.36-0.268,0.603-0.631,0.724-1.104c0.077-0.29,0.111-0.902,0.106-1.83
		c-0.622,0.734-1.397,1.105-2.327,1.105c-1.159,0-2.052-0.422-2.685-1.258c-0.625-0.833-0.943-1.834-0.943-2.992
		c0-0.8,0.142-1.54,0.436-2.22c0.287-0.679,0.717-1.205,1.267-1.574c0.551-0.37,1.199-0.554,1.942-0.554
		c0.992,0,1.812,0.403,2.456,1.203v-1.011h1.313v7.258c0,1.312-0.136,2.242-0.399,2.787c-0.272,0.549-0.697,0.978-1.277,1.294
		c-0.577,0.314-1.284,0.478-2.129,0.478c-1.005,0-1.819-0.23-2.43-0.68C93.907,33.765,93.609,33.092,93.629,32.183L93.629,32.183z
		 M94.806,27.131c0,1.108,0.223,1.916,0.661,2.421c0.44,0.51,0.988,0.756,1.646,0.756c0.649,0,1.197-0.246,1.646-0.753
		c0.44-0.506,0.661-1.293,0.661-2.372c0-1.031-0.223-1.805-0.683-2.326c-0.456-0.524-1.006-0.785-1.653-0.785
		c-0.63,0-1.171,0.257-1.615,0.771C95.029,25.357,94.806,26.123,94.806,27.131L94.806,27.131z"/>
	<polygon fill="#142A3E" points="102.351,28.001 102.351,26.576 106.726,26.576 106.726,28.001 	"/>
	<path fill="#142A3E" d="M108.486,31.486V19.885h4.376c0.771,0,1.36,0.039,1.764,0.111c0.576,0.094,1.048,0.276,1.44,0.544
		c0.376,0.265,0.693,0.641,0.93,1.12c0.234,0.48,0.346,1.006,0.346,1.582c0,0.985-0.311,1.822-0.94,2.505
		c-0.632,0.682-1.764,1.03-3.404,1.03h-2.977v4.714h-1.533L108.486,31.486L108.486,31.486z M110.022,25.398h2.998
		c0.994,0,1.701-0.184,2.111-0.555c0.421-0.37,0.619-0.887,0.619-1.558c0-0.485-0.114-0.901-0.367-1.249
		c-0.244-0.345-0.565-0.576-0.965-0.685c-0.264-0.068-0.732-0.102-1.435-0.102h-2.974v4.147L110.022,25.398L110.022,25.398z"/>
	<polygon fill="#142A3E" points="119.084,31.486 119.084,19.885 120.51,19.885 120.51,31.486 	"/>
	<path fill="#142A3E" d="M122.187,27.283c0-1.557,0.435-2.709,1.301-3.458c0.72-0.621,1.599-0.935,2.642-0.935
		c1.154,0,2.104,0.376,2.831,1.138c0.735,0.755,1.103,1.796,1.103,3.133c0,1.086-0.162,1.931-0.486,2.552
		c-0.328,0.615-0.796,1.103-1.418,1.438c-0.613,0.347-1.302,0.519-2.029,0.519c-1.176,0-2.127-0.377-2.849-1.131
		C122.552,29.793,122.187,28.708,122.187,27.283L122.187,27.283z M123.656,27.283c0,1.079,0.235,1.884,0.702,2.417
		c0.475,0.538,1.056,0.805,1.771,0.805c0.703,0,1.301-0.271,1.765-0.805c0.466-0.533,0.697-1.354,0.697-2.461
		c0-1.038-0.228-1.831-0.707-2.368c-0.47-0.532-1.057-0.8-1.764-0.8c-0.709,0-1.306,0.268-1.77,0.8
		C123.89,25.4,123.656,26.207,123.656,27.283L123.656,27.283z"/>
	<path fill="#142A3E" d="M137.246,31.486v-1.235c-0.657,0.95-1.546,1.43-2.668,1.43c-0.496,0-0.957-0.098-1.396-0.287
		c-0.42-0.19-0.743-0.426-0.95-0.714c-0.206-0.289-0.359-0.645-0.44-1.056c-0.05-0.287-0.09-0.726-0.09-1.331v-5.208h1.431v4.659
		c0,0.742,0.03,1.242,0.085,1.503c0.096,0.373,0.289,0.666,0.567,0.88c0.287,0.207,0.65,0.319,1.085,0.319
		c0.422,0,0.824-0.111,1.189-0.327c0.379-0.22,0.645-0.522,0.799-0.893c0.149-0.375,0.23-0.927,0.23-1.643v-4.5h1.423v8.402H137.246
		L137.246,31.486z"/>
	<path fill="#142A3E" d="M140.487,32.183l1.389,0.203c0.052,0.432,0.218,0.737,0.476,0.937c0.36,0.269,0.849,0.396,1.447,0.396
		c0.665,0,1.171-0.127,1.526-0.396c0.361-0.268,0.605-0.631,0.728-1.104c0.079-0.29,0.111-0.902,0.106-1.83
		c-0.621,0.734-1.396,1.105-2.327,1.105c-1.162,0-2.056-0.422-2.682-1.258c-0.629-0.833-0.946-1.834-0.946-2.992
		c0-0.8,0.142-1.54,0.438-2.22c0.286-0.679,0.707-1.205,1.266-1.574c0.551-0.37,1.197-0.554,1.939-0.554
		c0.996,0,1.812,0.403,2.453,1.203v-1.011h1.314v7.258c0,1.312-0.132,2.242-0.399,2.787c-0.275,0.549-0.692,0.978-1.269,1.294
		c-0.578,0.314-1.285,0.478-2.14,0.478c-1.004,0-1.812-0.23-2.419-0.68C140.769,33.765,140.473,33.092,140.487,32.183
		L140.487,32.183z M141.671,27.131c0,1.108,0.218,1.916,0.656,2.421c0.438,0.51,0.986,0.756,1.647,0.756
		c0.647,0,1.197-0.246,1.643-0.753c0.447-0.506,0.667-1.293,0.667-2.372c0-1.031-0.222-1.805-0.687-2.326
		c-0.451-0.524-1.011-0.785-1.648-0.785c-0.637,0-1.169,0.257-1.616,0.771C141.892,25.357,141.671,26.123,141.671,27.131
		L141.671,27.131z"/>
	<path fill="#142A3E" d="M149.768,31.486V19.885h1.424v4.164c0.663-0.772,1.508-1.157,2.518-1.157c0.616,0,1.167,0.124,1.622,0.37
		c0.451,0.245,0.783,0.582,0.981,1.019c0.198,0.433,0.292,1.062,0.292,1.884v5.33h-1.426v-5.331c0-0.714-0.152-1.227-0.459-1.556
		c-0.305-0.326-0.749-0.488-1.31-0.488c-0.426,0-0.819,0.11-1.194,0.331c-0.365,0.217-0.638,0.516-0.789,0.892
		c-0.159,0.374-0.237,0.892-0.237,1.55v4.6h-1.427v-0.005h0.005V31.486z"/>
</g>
</svg>
