<?xml version="1.0" encoding="utf-8"?>
<!-- Generator: Adobe Illustrator 16.0.0, SVG Export Plug-In . SVG Version: 6.00 Build 0)  -->
<!DOCTYPE svg PUBLIC "-//W3C//DTD SVG 1.1//EN" "http://www.w3.org/Graphics/SVG/1.1/DTD/svg11.dtd">
<svg version="1.1" id="Layer_1" xmlns="http://www.w3.org/2000/svg" xmlns:xlink="http://www.w3.org/1999/xlink" x="0px" y="0px"
	 width="147.32px" height="50.304px" viewBox="21.59 -36.982 147.32 50.304" enable-background="new 21.59 -36.982 147.32 50.304"
	 xml:space="preserve">
<g>
	<path fill="#142A3E" d="M21.787-11.892c0-3.185,2.575-5.433,5.388-5.433c1.028,0,4.967,0,4.967,0l-2.063,3.376c0,0-1.735,0-2.857,0
		c-2.625,0-2.86,4.026-0.043,4.026c1.121,0,1.45-0.468,2.153-1.688c0.378-0.562,4.31-6.982,4.824-7.777
		c0.282-0.469,1.174-2.247,2.956-3.044c1.639-0.748,2.95-0.705,3.745-0.518c2.391,0.518,3.561,2.062,3.561,2.062l-2.057,3.233
		c-0.424-1.78-1.971-2.06-2.582-2.06c-1.686,0-2.11,0.985-2.621,1.734c-0.096,0.188-3.988,6.702-4.27,7.077
		c-0.886,1.542-2.346,4.353-5.76,4.353C24.551-6.548,21.787-8.704,21.787-11.892L21.787-11.892z"/>
	<path fill="#142A3E" d="M27.314-0.596h3.935c0,0,7.074-11.622,7.356-12.14c0.332-0.47,0.707-1.172,1.828-1.172
		c1.172,0,2.107,0.749,2.107,1.968c0,1.077-0.701,2.105-2.107,2.105c-1.407,0-2.811,0-2.811,0L35.56-6.551c0,0,3.563,0,4.877,0
		c2.67,0,5.387-1.918,5.387-5.154c0.047-4.221-3.281-5.581-5.341-5.581c-2.11,0-3.703,1.173-4.549,2.533
		C35.188-13.528,27.314-0.596,27.314-0.596L27.314-0.596z"/>
	<path fill="#142A3E" d="M57.85-10.062l1.357-0.123c0.062,0.548,0.211,0.992,0.451,1.348c0.238,0.345,0.6,0.63,1.098,0.85
		c0.494,0.209,1.051,0.319,1.672,0.319c0.551,0,1.035-0.079,1.457-0.247c0.422-0.162,0.732-0.388,0.941-0.672
		c0.203-0.281,0.312-0.59,0.312-0.932s-0.104-0.638-0.303-0.893c-0.199-0.259-0.527-0.472-0.979-0.643
		c-0.291-0.114-0.939-0.293-1.943-0.53c-1-0.244-1.705-0.468-2.104-0.683c-0.521-0.27-0.91-0.613-1.166-1.015
		c-0.252-0.403-0.381-0.854-0.381-1.358c0-0.548,0.152-1.065,0.465-1.538c0.314-0.483,0.77-0.845,1.371-1.094
		c0.6-0.245,1.264-0.368,1.996-0.368c0.812,0,1.523,0.126,2.141,0.39c0.617,0.259,1.094,0.641,1.424,1.15
		c0.332,0.501,0.514,1.076,0.533,1.717l-1.381,0.101c-0.076-0.685-0.324-1.211-0.752-1.559c-0.428-0.354-1.062-0.528-1.898-0.528
		c-0.873,0-1.51,0.161-1.908,0.479c-0.396,0.323-0.6,0.71-0.6,1.156c0,0.393,0.143,0.717,0.422,0.969
		c0.277,0.254,1.004,0.513,2.176,0.776s1.977,0.496,2.412,0.695c0.637,0.295,1.107,0.663,1.41,1.109
		c0.303,0.451,0.451,0.966,0.451,1.546c0,0.581-0.166,1.128-0.498,1.646c-0.334,0.513-0.812,0.909-1.434,1.195
		c-0.619,0.281-1.316,0.424-2.096,0.424c-0.986,0-1.814-0.139-2.479-0.428c-0.67-0.282-1.191-0.72-1.572-1.294
		C58.064-8.682,57.865-9.338,57.85-10.062L57.85-10.062z"/>
	<path fill="#142A3E" d="M73.477-9.458l1.316,0.177c-0.143,0.905-0.51,1.615-1.104,2.126c-0.594,0.512-1.32,0.771-2.184,0.771
		c-1.082,0-1.951-0.355-2.605-1.059c-0.656-0.704-0.988-1.723-0.988-3.036c0-0.853,0.143-1.596,0.426-2.234
		c0.281-0.641,0.713-1.12,1.289-1.441c0.582-0.319,1.201-0.479,1.885-0.479c0.857,0,1.561,0.217,2.104,0.65
		c0.545,0.436,0.896,1.046,1.049,1.85l-1.301,0.202c-0.123-0.531-0.344-0.928-0.652-1.199c-0.32-0.268-0.701-0.401-1.143-0.401
		c-0.676,0-1.225,0.237-1.645,0.727c-0.426,0.482-0.635,1.245-0.635,2.291c0,1.062,0.199,1.831,0.607,2.311
		c0.412,0.481,0.941,0.729,1.596,0.729c0.521,0,0.963-0.168,1.311-0.488C73.158-8.293,73.383-8.784,73.477-9.458L73.477-9.458z"/>
	<path fill="#142A3E" d="M75.941-6.562V-17.46h1.338v3.911c0.623-0.725,1.416-1.086,2.365-1.086c0.58,0,1.092,0.116,1.52,0.347
		c0.432,0.23,0.742,0.547,0.93,0.957c0.186,0.406,0.277,0.998,0.277,1.77v5.006h-1.34v-5.007c0-0.671-0.146-1.153-0.438-1.462
		c-0.285-0.305-0.697-0.458-1.225-0.458c-0.398,0-0.773,0.104-1.121,0.311c-0.35,0.204-0.602,0.484-0.744,0.838
		c-0.152,0.35-0.225,0.838-0.225,1.456v4.32h-1.338V-6.562z"/>
	<path fill="#142A3E" d="M89.814-9.106l1.379,0.176c-0.215,0.811-0.619,1.433-1.211,1.881c-0.59,0.444-1.346,0.67-2.262,0.67
		c-1.154,0-2.07-0.354-2.744-1.064c-0.678-0.717-1.012-1.712-1.012-2.996c0-1.329,0.342-2.359,1.025-3.093
		c0.68-0.734,1.568-1.098,2.66-1.098c1.055,0,1.918,0.358,2.584,1.075c0.672,0.721,1.006,1.733,1.006,3.035
		c0,0.08-0.004,0.194-0.006,0.355h-5.893c0.049,0.866,0.299,1.527,0.74,1.994c0.438,0.458,0.988,0.685,1.645,0.685
		c0.494,0,0.91-0.121,1.262-0.385C89.332-8.131,89.607-8.538,89.814-9.106L89.814-9.106z M85.42-11.271h4.41
		c-0.059-0.664-0.229-1.161-0.508-1.491c-0.424-0.513-0.979-0.773-1.658-0.773c-0.613,0-1.131,0.204-1.549,0.615
		C85.695-12.507,85.467-11.956,85.42-11.271L85.42-11.271z"/>
	<path fill="#142A3E" d="M92.865-6.562v-7.893h1.199v1.196c0.309-0.56,0.594-0.93,0.852-1.108c0.26-0.178,0.549-0.268,0.859-0.268
		c0.449,0,0.91,0.148,1.377,0.434l-0.465,1.24c-0.32-0.193-0.656-0.292-0.979-0.292c-0.291,0-0.553,0.088-0.785,0.266
		c-0.24,0.176-0.398,0.422-0.498,0.733c-0.152,0.477-0.227,0.99-0.227,1.558v4.136h-1.334V-6.562z"/>
	<path fill="#142A3E" d="M97.953-15.923v-1.539h1.344v1.539H97.953L97.953-15.923z M97.953-6.562v-7.893h1.344v7.893H97.953
		L97.953-6.562z"/>
	<path fill="#142A3E" d="M101.334-6.562v-7.893h1.197v1.121c0.578-0.867,1.42-1.302,2.512-1.302c0.475,0,0.912,0.086,1.311,0.255
		c0.398,0.171,0.697,0.396,0.893,0.674c0.195,0.275,0.342,0.605,0.418,0.99c0.043,0.245,0.076,0.681,0.076,1.299v4.855h-1.344
		v-4.802c0-0.543-0.047-0.953-0.156-1.227c-0.102-0.267-0.285-0.482-0.551-0.642c-0.268-0.163-0.58-0.246-0.936-0.246
		c-0.57,0-1.055,0.182-1.477,0.548c-0.414,0.358-0.619,1.043-0.619,2.059v4.313h-1.324V-6.562z"/>
	<path fill="#142A3E" d="M109.553-5.907l1.307,0.19c0.047,0.405,0.199,0.693,0.441,0.881c0.342,0.251,0.797,0.372,1.367,0.372
		c0.617,0,1.098-0.12,1.43-0.372c0.338-0.252,0.566-0.594,0.68-1.038c0.072-0.272,0.105-0.847,0.1-1.719
		c-0.584,0.69-1.314,1.038-2.186,1.038c-1.09,0-1.928-0.395-2.521-1.181c-0.588-0.783-0.887-1.723-0.887-2.811
		c0-0.751,0.133-1.446,0.408-2.085c0.271-0.638,0.674-1.132,1.191-1.479s1.127-0.52,1.824-0.52c0.932,0,1.703,0.379,2.307,1.13
		v-0.95h1.234v6.818c0,1.232-0.127,2.106-0.375,2.617c-0.256,0.517-0.654,0.92-1.199,1.217c-0.543,0.295-1.207,0.447-2,0.447
		c-0.945,0-1.709-0.216-2.283-0.637C109.814-4.421,109.535-5.055,109.553-5.907L109.553-5.907z M110.66-10.654
		c0,1.041,0.209,1.8,0.621,2.274c0.414,0.478,0.928,0.71,1.545,0.71c0.611,0,1.125-0.232,1.547-0.707
		c0.414-0.475,0.621-1.214,0.621-2.229c0-0.967-0.209-1.695-0.641-2.184c-0.428-0.492-0.945-0.738-1.553-0.738
		c-0.592,0-1.1,0.242-1.518,0.724C110.869-12.32,110.66-11.601,110.66-10.654L110.66-10.654z"/>
	<polygon fill="#142A3E" points="117.748,-9.836 117.748,-11.175 121.857,-11.175 121.857,-9.836 	"/>
	<path fill="#142A3E" d="M123.51-6.562V-17.46h4.111c0.723,0,1.277,0.036,1.656,0.104c0.541,0.088,0.984,0.259,1.354,0.511
		c0.352,0.249,0.65,0.603,0.873,1.052c0.219,0.451,0.324,0.945,0.324,1.486c0,0.926-0.291,1.712-0.883,2.353
		c-0.594,0.641-1.656,0.967-3.197,0.967h-2.797v4.428h-1.441V-6.562z M124.953-12.281h2.816c0.934,0,1.598-0.173,1.984-0.522
		c0.395-0.347,0.582-0.833,0.582-1.463c0-0.456-0.109-0.847-0.346-1.173c-0.229-0.324-0.531-0.541-0.906-0.643
		c-0.248-0.064-0.689-0.096-1.348-0.096h-2.793v3.896H124.953z"/>
	<polygon fill="#142A3E" points="133.465,-6.562 133.465,-17.46 134.805,-17.46 134.805,-6.562 	"/>
	<path fill="#142A3E" d="M136.381-10.51c0-1.463,0.408-2.546,1.221-3.249c0.676-0.583,1.502-0.878,2.482-0.878
		c1.084,0,1.977,0.354,2.66,1.068c0.689,0.71,1.035,1.688,1.035,2.943c0,1.02-0.152,1.814-0.457,2.398
		c-0.309,0.577-0.748,1.035-1.332,1.351c-0.576,0.325-1.223,0.487-1.906,0.487c-1.105,0-1.998-0.354-2.676-1.062
		C136.723-8.154,136.381-9.172,136.381-10.51L136.381-10.51z M137.76-10.51c0,1.013,0.221,1.769,0.66,2.27
		c0.445,0.505,0.992,0.755,1.664,0.755c0.66,0,1.221-0.254,1.658-0.755s0.654-1.273,0.654-2.312c0-0.976-0.213-1.72-0.664-2.225
		c-0.441-0.499-0.992-0.751-1.656-0.751c-0.666,0-1.227,0.252-1.662,0.751C137.98-12.28,137.76-11.522,137.76-10.51L137.76-10.51z"
		/>
	<path fill="#142A3E" d="M150.525-6.562v-1.161c-0.617,0.893-1.451,1.344-2.506,1.344c-0.465,0-0.898-0.093-1.311-0.271
		c-0.395-0.178-0.697-0.4-0.893-0.671c-0.193-0.271-0.338-0.604-0.414-0.991c-0.047-0.27-0.084-0.681-0.084-1.251v-4.891h1.344
		v4.376c0,0.697,0.029,1.168,0.08,1.413c0.09,0.349,0.271,0.624,0.533,0.825c0.27,0.195,0.611,0.3,1.02,0.3
		c0.395,0,0.773-0.104,1.117-0.307c0.355-0.206,0.605-0.491,0.75-0.838c0.141-0.352,0.217-0.871,0.217-1.543v-4.227h1.336v7.893
		H150.525L150.525-6.562z"/>
	<path fill="#142A3E" d="M153.57-5.907l1.305,0.19c0.049,0.405,0.205,0.693,0.447,0.881c0.338,0.251,0.797,0.372,1.359,0.372
		c0.625,0,1.1-0.12,1.434-0.372c0.34-0.252,0.568-0.594,0.684-1.038c0.074-0.272,0.104-0.847,0.1-1.719
		c-0.584,0.69-1.312,1.038-2.186,1.038c-1.092,0-1.932-0.395-2.52-1.181c-0.59-0.783-0.889-1.723-0.889-2.811
		c0-0.751,0.133-1.446,0.412-2.085c0.268-0.638,0.664-1.132,1.188-1.479c0.518-0.347,1.125-0.52,1.822-0.52
		c0.936,0,1.701,0.379,2.305,1.13v-0.95h1.234v6.818c0,1.232-0.123,2.106-0.375,2.617c-0.258,0.517-0.65,0.92-1.191,1.217
		c-0.543,0.295-1.207,0.447-2.01,0.447c-0.943,0-1.703-0.216-2.273-0.637C153.836-4.421,153.557-5.055,153.57-5.907L153.57-5.907z
		 M154.682-10.654c0,1.041,0.205,1.8,0.617,2.274c0.412,0.478,0.926,0.71,1.547,0.71c0.609,0,1.125-0.232,1.543-0.707
		c0.42-0.475,0.627-1.214,0.627-2.229c0-0.967-0.209-1.695-0.645-2.184c-0.424-0.492-0.949-0.738-1.549-0.738
		c-0.598,0-1.098,0.242-1.518,0.724C154.891-12.32,154.682-11.601,154.682-10.654L154.682-10.654z"/>
	<path fill="#142A3E" d="M162.289-6.562V-17.46h1.338v3.911c0.623-0.725,1.416-1.086,2.365-1.086c0.578,0,1.096,0.116,1.523,0.347
		c0.424,0.23,0.736,0.547,0.922,0.957c0.186,0.406,0.275,0.998,0.275,1.77v5.006h-1.34v-5.007c0-0.671-0.143-1.153-0.432-1.462
		c-0.285-0.305-0.703-0.458-1.229-0.458c-0.4,0-0.77,0.104-1.121,0.311c-0.344,0.204-0.6,0.484-0.742,0.838
		c-0.15,0.35-0.223,0.838-0.223,1.456v4.32h-1.34v-0.004H162.289z"/>
</g>
</svg>
