<?xml version="1.0" encoding="utf-8"?>
<!-- Generator: Adobe Illustrator 16.0.0, SVG Export Plug-In . SVG Version: 6.00 Build 0)  -->
<!DOCTYPE svg PUBLIC "-//W3C//DTD SVG 1.1//EN" "http://www.w3.org/Graphics/SVG/1.1/DTD/svg11.dtd">
<svg version="1.1" id="Layer_1" xmlns="http://www.w3.org/2000/svg" xmlns:xlink="http://www.w3.org/1999/xlink" x="0px" y="0px"
	 width="80px" height="80px" viewBox="0 0 80 80" enable-background="new 0 0 80 80" xml:space="preserve">
<g>
	<path fill="#142A3E" d="M0.292,39.968c0-1.722,1.393-2.937,2.913-2.937c0.557,0,2.685,0,2.685,0l-1.115,1.824c0,0-0.937,0-1.544,0
		c-1.419,0-1.546,2.177-0.025,2.177c0.607,0,0.784-0.253,1.165-0.912c0.203-0.304,2.329-3.774,2.607-4.203
		c0.153-0.254,0.635-1.216,1.597-1.646c0.887-0.405,1.595-0.38,2.025-0.28c1.292,0.28,1.925,1.115,1.925,1.115l-1.113,1.748
		c-0.229-0.962-1.064-1.113-1.394-1.113c-0.912,0-1.14,0.532-1.418,0.937c-0.051,0.101-2.153,3.622-2.306,3.824
		c-0.48,0.836-1.267,2.354-3.115,2.354C1.787,42.854,0.292,41.689,0.292,39.968L0.292,39.968z"/>
	<path fill="#142A3E" d="M3.28,46.072h2.127c0,0,3.825-6.282,3.977-6.56c0.178-0.254,0.381-0.634,0.988-0.634
		c0.633,0,1.139,0.405,1.139,1.063c0,0.583-0.379,1.14-1.139,1.14c-0.76,0-1.52,0-1.52,0l-1.115,1.772c0,0,1.925,0,2.635,0
		c1.444,0,2.912-1.037,2.912-2.786c0.025-2.28-1.773-3.015-2.887-3.015c-1.14,0-2,0.633-2.456,1.369
		C7.536,39.082,3.28,46.072,3.28,46.072L3.28,46.072z"/>
	<path fill="#142A3E" d="M19.783,40.954l0.735-0.063c0.034,0.295,0.115,0.535,0.243,0.725c0.128,0.189,0.325,0.343,0.592,0.459
		c0.268,0.115,0.569,0.174,0.904,0.174c0.298,0,0.561-0.043,0.788-0.133c0.228-0.088,0.397-0.209,0.508-0.363
		c0.112-0.154,0.169-0.322,0.169-0.504c0-0.186-0.055-0.346-0.162-0.484c-0.108-0.139-0.284-0.254-0.53-0.347
		c-0.158-0.062-0.507-0.159-1.05-0.288c-0.539-0.131-0.921-0.253-1.138-0.368c-0.28-0.146-0.49-0.331-0.628-0.549
		c-0.138-0.218-0.205-0.462-0.205-0.734c0-0.296,0.082-0.576,0.252-0.832c0.168-0.26,0.414-0.457,0.738-0.59
		c0.326-0.133,0.684-0.2,1.081-0.2c0.438,0,0.822,0.069,1.155,0.21c0.335,0.141,0.592,0.347,0.771,0.621
		c0.179,0.272,0.276,0.583,0.289,0.929l-0.747,0.055c-0.042-0.371-0.176-0.655-0.408-0.843c-0.232-0.191-0.574-0.285-1.026-0.285
		c-0.472,0-0.815,0.087-1.031,0.258c-0.216,0.175-0.325,0.383-0.325,0.625c0,0.212,0.077,0.387,0.229,0.523
		c0.151,0.138,0.542,0.277,1.176,0.419c0.634,0.144,1.069,0.269,1.305,0.376c0.343,0.159,0.598,0.358,0.761,0.601
		c0.163,0.243,0.244,0.522,0.244,0.836c0,0.315-0.09,0.61-0.27,0.889c-0.18,0.277-0.438,0.492-0.773,0.646
		c-0.336,0.153-0.714,0.229-1.135,0.229c-0.533,0-0.981-0.075-1.339-0.231c-0.362-0.155-0.645-0.39-0.85-0.7
		C19.901,41.702,19.793,41.348,19.783,40.954L19.783,40.954z"/>
	<path fill="#142A3E" d="M28.23,41.283l0.712,0.094c-0.077,0.49-0.276,0.874-0.597,1.15c-0.321,0.277-0.714,0.416-1.18,0.416
		c-0.584,0-1.055-0.191-1.408-0.572c-0.355-0.38-0.534-0.93-0.534-1.641c0-0.462,0.077-0.864,0.229-1.21
		c0.153-0.346,0.386-0.605,0.698-0.778c0.312-0.173,0.65-0.259,1.018-0.259c0.464,0,0.844,0.117,1.138,0.352s0.484,0.566,0.567,1
		l-0.703,0.108c-0.067-0.287-0.187-0.502-0.355-0.647c-0.171-0.145-0.377-0.217-0.617-0.217c-0.365,0-0.661,0.129-0.889,0.393
		c-0.229,0.26-0.342,0.672-0.342,1.238c0,0.574,0.109,0.99,0.33,1.251c0.221,0.26,0.507,0.391,0.86,0.391
		c0.283,0,0.521-0.088,0.71-0.263C28.059,41.912,28.18,41.646,28.23,41.283L28.23,41.283z"/>
	<path fill="#142A3E" d="M29.562,42.848v-5.892h0.723v2.114c0.338-0.391,0.765-0.587,1.278-0.587c0.315,0,0.59,0.063,0.822,0.188
		c0.233,0.124,0.401,0.295,0.502,0.516c0.1,0.22,0.151,0.54,0.151,0.956v2.707h-0.725v-2.707c0-0.361-0.078-0.623-0.236-0.789
		c-0.155-0.165-0.377-0.248-0.663-0.248c-0.215,0-0.417,0.057-0.605,0.168c-0.189,0.111-0.324,0.262-0.403,0.453
		c-0.081,0.189-0.121,0.453-0.121,0.787v2.336h-0.723V42.848z"/>
	<path fill="#142A3E" d="M37.06,41.473l0.748,0.094c-0.118,0.437-0.337,0.775-0.655,1.016c-0.319,0.241-0.728,0.363-1.223,0.363
		c-0.624,0-1.119-0.193-1.483-0.576c-0.367-0.387-0.548-0.924-0.548-1.619c0-0.718,0.185-1.275,0.554-1.671
		c0.369-0.397,0.849-0.595,1.439-0.595c0.57,0,1.036,0.195,1.396,0.582c0.362,0.39,0.543,0.937,0.543,1.64
		c0,0.043-0.001,0.108-0.003,0.192h-3.184c0.027,0.47,0.16,0.828,0.398,1.078c0.238,0.248,0.535,0.373,0.891,0.373
		c0.267,0,0.491-0.068,0.681-0.209C36.801,42.001,36.949,41.777,37.06,41.473L37.06,41.473z M34.685,40.303h2.384
		c-0.032-0.36-0.124-0.628-0.274-0.807c-0.23-0.277-0.529-0.418-0.896-0.418c-0.332,0-0.611,0.11-0.837,0.333
		C34.835,39.634,34.71,39.932,34.685,40.303L34.685,40.303z"/>
	<path fill="#142A3E" d="M38.709,42.848v-4.267h0.649v0.646c0.166-0.301,0.32-0.502,0.462-0.598
		c0.139-0.097,0.295-0.145,0.463-0.145c0.242,0,0.49,0.079,0.744,0.234l-0.252,0.671c-0.174-0.105-0.352-0.159-0.529-0.159
		c-0.157,0-0.299,0.048-0.425,0.144c-0.128,0.096-0.216,0.227-0.27,0.396c-0.08,0.257-0.12,0.537-0.12,0.843v2.234H38.709
		L38.709,42.848z"/>
	<path fill="#142A3E" d="M41.46,37.788v-0.833h0.726v0.833H41.46L41.46,37.788z M41.46,42.848v-4.267h0.726v4.267H41.46
		L41.46,42.848z"/>
	<path fill="#142A3E" d="M43.286,42.848v-4.267h0.649v0.605c0.314-0.468,0.768-0.703,1.358-0.703c0.257,0,0.493,0.047,0.708,0.138
		c0.216,0.093,0.377,0.214,0.484,0.364s0.183,0.328,0.226,0.535c0.026,0.133,0.041,0.369,0.041,0.703v2.625h-0.726v-2.597
		c0-0.293-0.026-0.514-0.082-0.662c-0.057-0.146-0.157-0.262-0.301-0.348c-0.144-0.088-0.312-0.133-0.504-0.133
		c-0.309,0-0.572,0.099-0.799,0.296c-0.225,0.195-0.335,0.565-0.335,1.114v2.33H43.286L43.286,42.848z"/>
	<path fill="#142A3E" d="M47.73,43.201l0.703,0.104c0.029,0.219,0.11,0.375,0.243,0.475c0.181,0.135,0.427,0.201,0.736,0.201
		c0.336,0,0.593-0.066,0.776-0.201c0.182-0.135,0.304-0.321,0.367-0.562c0.039-0.146,0.057-0.456,0.053-0.928
		c-0.314,0.373-0.709,0.559-1.18,0.559c-0.588,0-1.043-0.212-1.363-0.635c-0.32-0.424-0.482-0.932-0.482-1.523
		c0-0.406,0.073-0.781,0.221-1.126c0.148-0.344,0.363-0.611,0.643-0.799c0.279-0.187,0.609-0.281,0.986-0.281
		c0.504,0,0.92,0.205,1.246,0.611v-0.513h0.666v3.687c0,0.666-0.066,1.137-0.201,1.414c-0.137,0.277-0.352,0.498-0.645,0.657
		c-0.294,0.16-0.654,0.241-1.083,0.241c-0.509,0-0.921-0.114-1.233-0.344C47.87,44.006,47.721,43.662,47.73,43.201L47.73,43.201z
		 M48.327,40.637c0,0.562,0.112,0.971,0.336,1.228s0.502,0.385,0.837,0.385c0.33,0,0.607-0.128,0.834-0.383
		c0.225-0.257,0.337-0.656,0.337-1.204c0-0.523-0.114-0.916-0.346-1.181c-0.233-0.265-0.513-0.398-0.841-0.398
		c-0.318,0-0.594,0.13-0.819,0.392C48.439,39.735,48.327,40.123,48.327,40.637L48.327,40.637z"/>
	<polygon fill="#142A3E" points="52.158,41.078 52.158,40.353 54.382,40.353 54.382,41.078 	"/>
	<path fill="#142A3E" d="M55.273,42.848v-5.892h2.222c0.392,0,0.69,0.02,0.896,0.057c0.291,0.047,0.531,0.139,0.729,0.276
		c0.192,0.134,0.353,0.324,0.472,0.568c0.118,0.244,0.178,0.511,0.178,0.803c0,0.501-0.158,0.926-0.479,1.272
		c-0.32,0.346-0.895,0.522-1.729,0.522h-1.512v2.394H55.273L55.273,42.848z M56.053,39.757h1.523c0.503,0,0.861-0.093,1.072-0.282
		c0.213-0.188,0.316-0.452,0.316-0.791c0-0.247-0.062-0.458-0.188-0.634c-0.123-0.176-0.287-0.292-0.491-0.348
		c-0.134-0.034-0.373-0.052-0.728-0.052h-1.508v2.107H56.053z"/>
	<polygon fill="#142A3E" points="60.654,42.848 60.654,36.956 61.378,36.956 61.378,42.848 	"/>
	<path fill="#142A3E" d="M62.229,40.713c0-0.79,0.221-1.376,0.66-1.756c0.367-0.315,0.813-0.474,1.342-0.474
		c0.586,0,1.068,0.192,1.439,0.577c0.372,0.384,0.559,0.915,0.559,1.592c0,0.55-0.082,0.983-0.246,1.297
		c-0.166,0.314-0.406,0.561-0.721,0.732c-0.314,0.174-0.66,0.262-1.031,0.262c-0.597,0-1.08-0.191-1.448-0.574
		S62.229,41.436,62.229,40.713L62.229,40.713z M62.975,40.713c0,0.547,0.118,0.955,0.356,1.227c0.239,0.274,0.538,0.41,0.899,0.41
		c0.358,0,0.66-0.138,0.897-0.41c0.238-0.272,0.356-0.689,0.356-1.25c0-0.527-0.118-0.929-0.361-1.202
		c-0.238-0.27-0.535-0.406-0.893-0.406c-0.362,0-0.662,0.137-0.9,0.406C63.093,39.758,62.975,40.167,62.975,40.713L62.975,40.713z"
		/>
	<path fill="#142A3E" d="M69.875,42.848v-0.627c-0.335,0.482-0.784,0.725-1.355,0.725c-0.25,0-0.487-0.051-0.705-0.146
		c-0.217-0.097-0.379-0.219-0.485-0.364s-0.183-0.324-0.224-0.535c-0.027-0.144-0.045-0.368-0.045-0.676v-2.644h0.725v2.364
		c0,0.379,0.016,0.634,0.044,0.766c0.048,0.189,0.144,0.338,0.289,0.447c0.147,0.107,0.33,0.162,0.548,0.162
		c0.217,0,0.419-0.055,0.609-0.166s0.326-0.264,0.404-0.453c0.077-0.191,0.117-0.471,0.117-0.835v-2.285h0.723v4.267H69.875
		L69.875,42.848z"/>
	<path fill="#142A3E" d="M71.521,43.201l0.703,0.104c0.029,0.219,0.112,0.375,0.244,0.475c0.182,0.135,0.428,0.201,0.734,0.201
		c0.338,0,0.596-0.066,0.777-0.201c0.183-0.135,0.305-0.321,0.369-0.562c0.039-0.146,0.055-0.456,0.053-0.928
		c-0.316,0.373-0.711,0.559-1.182,0.559c-0.589,0-1.043-0.212-1.361-0.635c-0.321-0.424-0.483-0.932-0.483-1.523
		c0-0.406,0.073-0.781,0.222-1.126c0.147-0.344,0.361-0.611,0.643-0.799c0.279-0.187,0.607-0.281,0.984-0.281
		c0.504,0,0.92,0.205,1.246,0.611v-0.513h0.668v3.687c0,0.666-0.068,1.137-0.203,1.414c-0.137,0.277-0.35,0.498-0.644,0.657
		c-0.294,0.16-0.653,0.241-1.084,0.241c-0.51,0-0.921-0.114-1.231-0.344C71.663,44.006,71.512,43.662,71.521,43.201L71.521,43.201z
		 M72.12,40.637c0,0.562,0.11,0.971,0.335,1.228c0.223,0.257,0.5,0.385,0.835,0.385c0.332,0,0.608-0.128,0.835-0.383
		c0.227-0.257,0.338-0.656,0.338-1.204c0-0.523-0.113-0.916-0.348-1.181c-0.23-0.265-0.512-0.398-0.838-0.398
		c-0.32,0-0.594,0.13-0.818,0.392C72.232,39.735,72.12,40.123,72.12,40.637L72.12,40.637z"/>
	<path fill="#142A3E" d="M76.232,42.848v-5.892h0.724v2.114c0.338-0.391,0.765-0.587,1.278-0.587c0.313,0,0.59,0.063,0.822,0.188
		c0.232,0.124,0.4,0.295,0.5,0.516c0.101,0.22,0.15,0.54,0.15,0.956v2.707h-0.725v-2.707c0-0.361-0.078-0.623-0.234-0.789
		c-0.155-0.165-0.379-0.248-0.664-0.248c-0.216,0-0.416,0.057-0.605,0.168c-0.188,0.111-0.324,0.262-0.402,0.453
		c-0.081,0.189-0.12,0.453-0.12,0.787v2.336h-0.724V42.848z"/>
</g>
</svg>
