<?xml version="1.0" encoding="utf-8"?>
<!-- Generator: Adobe Illustrator 16.0.0, SVG Export Plug-In . SVG Version: 6.00 Build 0)  -->
<!DOCTYPE svg PUBLIC "-//W3C//DTD SVG 1.1//EN" "http://www.w3.org/Graphics/SVG/1.1/DTD/svg11.dtd">
<svg version="1.1" id="Layer_1" xmlns="http://www.w3.org/2000/svg" xmlns:xlink="http://www.w3.org/1999/xlink" x="0px" y="0px"
	 width="80px" height="80px" viewBox="0 0 80 80" enable-background="new 0 0 80 80" xml:space="preserve">
<g>
	<path fill-rule="evenodd" clip-rule="evenodd" fill="#3E6DB2" d="M0.292,39.968c0-1.722,1.393-2.937,2.913-2.937
		c0.557,0,2.685,0,2.685,0l-1.115,1.824c0,0-0.937,0-1.544,0c-1.419,0-1.546,2.177-0.025,2.177c0.607,0,0.784-0.252,1.165-0.912
		c0.203-0.304,2.329-3.774,2.607-4.203c0.153-0.254,0.635-1.216,1.597-1.646c0.887-0.405,1.595-0.38,2.025-0.28
		c1.292,0.28,1.925,1.115,1.925,1.115l-1.113,1.748c-0.229-0.962-1.064-1.113-1.394-1.113c-0.912,0-1.14,0.532-1.418,0.937
		c-0.051,0.101-2.153,3.622-2.306,3.824c-0.48,0.836-1.267,2.354-3.115,2.354C1.787,42.854,0.292,41.69,0.292,39.968L0.292,39.968z"
		/>
	<path fill-rule="evenodd" clip-rule="evenodd" fill="#3E6DB2" d="M3.28,46.072h2.127c0,0,3.825-6.282,3.977-6.56
		c0.178-0.254,0.381-0.634,0.988-0.634c0.633,0,1.139,0.405,1.139,1.063c0,0.583-0.379,1.14-1.139,1.14s-1.52,0-1.52,0l-1.115,1.772
		c0,0,1.925,0,2.635,0c1.444,0,2.912-1.037,2.912-2.785c0.025-2.28-1.773-3.015-2.887-3.015c-1.14,0-2,0.633-2.456,1.369
		C7.536,39.082,3.28,46.072,3.28,46.072L3.28,46.072z"/>
	<path fill-rule="evenodd" clip-rule="evenodd" fill="#3E6DB2" d="M19.783,40.954l0.735-0.064c0.034,0.295,0.115,0.536,0.243,0.725
		s0.325,0.343,0.592,0.459c0.268,0.115,0.569,0.174,0.904,0.174c0.298,0,0.561-0.043,0.788-0.133
		c0.228-0.088,0.397-0.209,0.508-0.363c0.112-0.155,0.169-0.322,0.169-0.504c0-0.186-0.055-0.346-0.162-0.484
		c-0.108-0.139-0.284-0.254-0.53-0.347c-0.158-0.062-0.507-0.159-1.05-0.288c-0.539-0.131-0.921-0.253-1.138-0.368
		c-0.28-0.146-0.49-0.331-0.628-0.549c-0.138-0.218-0.205-0.462-0.205-0.734c0-0.296,0.082-0.576,0.252-0.832
		c0.168-0.26,0.414-0.457,0.738-0.59c0.326-0.133,0.684-0.2,1.081-0.2c0.438,0,0.822,0.069,1.155,0.21
		c0.335,0.141,0.592,0.347,0.771,0.621c0.179,0.272,0.276,0.583,0.289,0.929l-0.747,0.055c-0.042-0.371-0.176-0.655-0.408-0.843
		c-0.232-0.191-0.574-0.285-1.026-0.285c-0.472,0-0.815,0.087-1.031,0.258c-0.216,0.175-0.325,0.383-0.325,0.625
		c0,0.212,0.077,0.387,0.229,0.523c0.151,0.138,0.542,0.277,1.176,0.419c0.634,0.144,1.069,0.269,1.305,0.376
		c0.343,0.159,0.598,0.358,0.761,0.601c0.163,0.243,0.244,0.522,0.244,0.837c0,0.315-0.09,0.61-0.27,0.888s-0.438,0.492-0.773,0.647
		c-0.336,0.153-0.714,0.229-1.135,0.229c-0.533,0-0.981-0.076-1.339-0.232c-0.362-0.155-0.645-0.39-0.85-0.701
		S19.793,41.348,19.783,40.954L19.783,40.954z"/>
	<path fill-rule="evenodd" clip-rule="evenodd" fill="#3E6DB2" d="M28.23,41.283l0.712,0.094c-0.077,0.49-0.276,0.874-0.597,1.15
		c-0.321,0.277-0.714,0.417-1.18,0.417c-0.584,0-1.055-0.192-1.408-0.573c-0.355-0.38-0.534-0.93-0.534-1.641
		c0-0.462,0.077-0.864,0.229-1.21c0.153-0.346,0.386-0.605,0.698-0.778c0.312-0.173,0.65-0.259,1.018-0.259
		c0.464,0,0.844,0.117,1.138,0.352s0.484,0.566,0.567,1l-0.703,0.108c-0.067-0.287-0.187-0.502-0.355-0.647
		c-0.171-0.145-0.377-0.217-0.617-0.217c-0.365,0-0.661,0.129-0.889,0.393c-0.229,0.26-0.342,0.672-0.342,1.238
		c0,0.574,0.109,0.99,0.33,1.251c0.221,0.259,0.507,0.39,0.86,0.39c0.283,0,0.521-0.087,0.71-0.262
		C28.059,41.912,28.18,41.646,28.23,41.283L28.23,41.283z"/>
	<path fill-rule="evenodd" clip-rule="evenodd" fill="#3E6DB2" d="M29.562,42.848v-5.892h0.723v2.114
		c0.338-0.391,0.765-0.587,1.278-0.587c0.315,0,0.59,0.063,0.822,0.188c0.233,0.124,0.401,0.295,0.502,0.516
		c0.1,0.22,0.151,0.54,0.151,0.956v2.706h-0.725v-2.706c0-0.361-0.078-0.623-0.236-0.789c-0.155-0.165-0.377-0.248-0.663-0.248
		c-0.215,0-0.417,0.057-0.605,0.168c-0.189,0.111-0.324,0.262-0.403,0.453c-0.081,0.189-0.121,0.453-0.121,0.787v2.335H29.562
		L29.562,42.848z"/>
	<path fill-rule="evenodd" clip-rule="evenodd" fill="#3E6DB2" d="M37.06,41.473l0.748,0.093c-0.118,0.437-0.337,0.776-0.655,1.016
		c-0.319,0.241-0.728,0.363-1.223,0.363c-0.624,0-1.119-0.193-1.483-0.576c-0.367-0.386-0.548-0.924-0.548-1.619
		c0-0.718,0.185-1.275,0.554-1.671c0.369-0.397,0.849-0.595,1.439-0.595c0.57,0,1.036,0.195,1.396,0.582
		c0.362,0.39,0.543,0.937,0.543,1.64c0,0.043-0.001,0.108-0.003,0.193h-3.184c0.027,0.469,0.16,0.828,0.398,1.078
		c0.238,0.248,0.535,0.373,0.891,0.373c0.267,0,0.491-0.069,0.681-0.209C36.801,42.001,36.949,41.778,37.06,41.473L37.06,41.473z
		 M34.685,40.303h2.384c-0.032-0.36-0.124-0.628-0.274-0.807c-0.23-0.277-0.529-0.418-0.896-0.418c-0.332,0-0.611,0.11-0.837,0.333
		C34.835,39.634,34.71,39.932,34.685,40.303L34.685,40.303z"/>
	<path fill-rule="evenodd" clip-rule="evenodd" fill="#3E6DB2" d="M38.709,42.848v-4.267h0.649v0.646
		c0.166-0.301,0.32-0.502,0.462-0.598c0.139-0.097,0.295-0.145,0.463-0.145c0.243,0,0.491,0.079,0.744,0.234l-0.251,0.671
		c-0.175-0.105-0.352-0.159-0.53-0.159c-0.157,0-0.299,0.048-0.425,0.144c-0.128,0.096-0.216,0.227-0.27,0.396
		c-0.08,0.257-0.12,0.537-0.12,0.843v2.235H38.709L38.709,42.848z"/>
	<path fill-rule="evenodd" clip-rule="evenodd" fill="#3E6DB2" d="M41.46,37.788v-0.833h0.726v0.833H41.46L41.46,37.788z
		 M41.46,42.848v-4.267h0.726v4.267H41.46L41.46,42.848z"/>
	<path fill-rule="evenodd" clip-rule="evenodd" fill="#3E6DB2" d="M43.286,42.848v-4.267h0.649v0.605
		c0.315-0.468,0.768-0.703,1.359-0.703c0.257,0,0.493,0.047,0.708,0.138c0.216,0.093,0.377,0.214,0.485,0.364
		c0.107,0.15,0.182,0.328,0.225,0.535c0.027,0.133,0.041,0.369,0.041,0.703v2.625h-0.725v-2.597c0-0.293-0.027-0.514-0.083-0.662
		c-0.057-0.146-0.157-0.262-0.301-0.348c-0.143-0.088-0.311-0.133-0.504-0.133c-0.308,0-0.572,0.099-0.798,0.296
		c-0.225,0.195-0.335,0.565-0.335,1.113v2.331H43.286L43.286,42.848z"/>
	<path fill-rule="evenodd" clip-rule="evenodd" fill="#3E6DB2" d="M47.73,43.201l0.704,0.104c0.029,0.219,0.11,0.374,0.243,0.475
		c0.18,0.134,0.426,0.201,0.736,0.201c0.336,0,0.593-0.067,0.776-0.201c0.182-0.135,0.304-0.322,0.368-0.563
		c0.038-0.146,0.056-0.456,0.053-0.928c-0.315,0.373-0.71,0.559-1.181,0.559c-0.587,0-1.042-0.212-1.363-0.635
		c-0.32-0.424-0.482-0.932-0.482-1.524c0-0.406,0.073-0.781,0.22-1.126c0.149-0.344,0.364-0.611,0.643-0.799
		c0.28-0.187,0.609-0.281,0.986-0.281c0.504,0,0.921,0.205,1.246,0.611v-0.513h0.667v3.687c0,0.665-0.067,1.136-0.202,1.413
		c-0.136,0.278-0.351,0.498-0.644,0.658c-0.294,0.16-0.654,0.241-1.083,0.241c-0.509,0-0.921-0.114-1.233-0.344
		C47.87,44.006,47.72,43.662,47.73,43.201L47.73,43.201z M48.327,40.637c0,0.561,0.112,0.97,0.336,1.227
		c0.223,0.257,0.502,0.385,0.837,0.385c0.33,0,0.608-0.128,0.834-0.383c0.225-0.256,0.337-0.656,0.337-1.204
		c0-0.523-0.115-0.916-0.346-1.181c-0.233-0.265-0.512-0.398-0.84-0.398c-0.319,0-0.594,0.13-0.82,0.392
		C48.44,39.735,48.327,40.123,48.327,40.637L48.327,40.637z"/>
	<polygon fill-rule="evenodd" clip-rule="evenodd" fill="#3E6DB2" points="52.158,41.078 52.158,40.353 54.382,40.353 
		54.382,41.078 52.158,41.078 	"/>
	<path fill-rule="evenodd" clip-rule="evenodd" fill="#3E6DB2" d="M55.273,42.848v-5.892h2.222c0.392,0,0.691,0.02,0.896,0.057
		c0.29,0.047,0.531,0.139,0.729,0.276c0.192,0.134,0.352,0.324,0.472,0.568c0.118,0.244,0.178,0.511,0.178,0.803
		c0,0.501-0.159,0.926-0.479,1.272s-0.895,0.522-1.728,0.522h-1.512v2.394H55.273L55.273,42.848z M56.053,39.757h1.523
		c0.503,0,0.862-0.093,1.073-0.282c0.212-0.188,0.316-0.452,0.316-0.791c0-0.247-0.062-0.458-0.187-0.634
		c-0.123-0.176-0.288-0.292-0.492-0.348c-0.133-0.034-0.373-0.052-0.728-0.052h-1.507V39.757L56.053,39.757z"/>
	<polygon fill-rule="evenodd" clip-rule="evenodd" fill="#3E6DB2" points="60.655,42.848 60.655,36.956 61.378,36.956 
		61.378,42.848 60.655,42.848 	"/>
	<path fill-rule="evenodd" clip-rule="evenodd" fill="#3E6DB2" d="M62.229,40.713c0-0.79,0.22-1.376,0.66-1.756
		c0.367-0.315,0.813-0.474,1.342-0.474c0.586,0,1.068,0.192,1.439,0.577c0.372,0.384,0.558,0.915,0.558,1.593
		c0,0.549-0.082,0.983-0.246,1.296c-0.166,0.315-0.406,0.561-0.72,0.733c-0.315,0.174-0.66,0.262-1.031,0.262
		c-0.597,0-1.081-0.192-1.449-0.575S62.229,41.435,62.229,40.713L62.229,40.713z M62.974,40.713c0,0.547,0.119,0.955,0.357,1.227
		c0.239,0.274,0.538,0.409,0.9,0.409c0.358,0,0.659-0.137,0.897-0.41c0.238-0.272,0.356-0.689,0.356-1.25
		c0-0.527-0.118-0.928-0.361-1.201c-0.238-0.27-0.535-0.406-0.893-0.406c-0.362,0-0.661,0.137-0.9,0.406
		C63.093,39.758,62.974,40.167,62.974,40.713L62.974,40.713z"/>
	<path fill-rule="evenodd" clip-rule="evenodd" fill="#3E6DB2" d="M69.875,42.848V42.22c-0.335,0.483-0.784,0.725-1.356,0.725
		c-0.25,0-0.487-0.05-0.705-0.145c-0.216-0.097-0.378-0.219-0.485-0.364c-0.107-0.146-0.182-0.324-0.223-0.535
		c-0.028-0.144-0.045-0.369-0.045-0.676v-2.644h0.724v2.365c0,0.378,0.016,0.633,0.044,0.765c0.048,0.189,0.143,0.338,0.289,0.447
		c0.148,0.108,0.33,0.162,0.548,0.162c0.217,0,0.419-0.055,0.609-0.166c0.191-0.111,0.326-0.264,0.404-0.453
		c0.078-0.191,0.118-0.471,0.118-0.835v-2.285h0.723v4.267H69.875L69.875,42.848z"/>
	<path fill-rule="evenodd" clip-rule="evenodd" fill="#3E6DB2" d="M71.522,43.201l0.703,0.104c0.029,0.219,0.112,0.374,0.244,0.475
		c0.181,0.134,0.427,0.201,0.734,0.201c0.338,0,0.596-0.067,0.777-0.201c0.183-0.135,0.305-0.322,0.369-0.563
		c0.039-0.146,0.056-0.456,0.053-0.928c-0.316,0.373-0.71,0.559-1.182,0.559c-0.588,0-1.042-0.212-1.361-0.635
		c-0.321-0.424-0.483-0.932-0.483-1.524c0-0.406,0.073-0.781,0.221-1.126c0.148-0.344,0.362-0.611,0.643-0.799
		c0.279-0.187,0.608-0.281,0.985-0.281c0.504,0,0.92,0.205,1.246,0.611v-0.513h0.668v3.687c0,0.665-0.069,1.136-0.204,1.413
		c-0.136,0.278-0.349,0.498-0.643,0.658s-0.654,0.241-1.084,0.241c-0.51,0-0.921-0.114-1.231-0.344
		C71.663,44.006,71.512,43.662,71.522,43.201L71.522,43.201z M72.12,40.637c0,0.561,0.111,0.97,0.335,1.227
		c0.223,0.257,0.5,0.385,0.835,0.385c0.332,0,0.609-0.128,0.835-0.383c0.226-0.256,0.338-0.656,0.338-1.204
		c0-0.523-0.114-0.916-0.348-1.181c-0.23-0.265-0.511-0.398-0.837-0.398c-0.321,0-0.595,0.13-0.819,0.392
		C72.232,39.735,72.12,40.123,72.12,40.637L72.12,40.637z"/>
	<path fill-rule="evenodd" clip-rule="evenodd" fill="#3E6DB2" d="M76.232,42.848v-5.892h0.724v2.114
		c0.338-0.391,0.764-0.587,1.278-0.587c0.314,0,0.59,0.063,0.822,0.188c0.233,0.124,0.401,0.295,0.5,0.516
		c0.101,0.22,0.151,0.54,0.151,0.956v2.706h-0.724v-2.706c0-0.361-0.078-0.623-0.235-0.789c-0.155-0.165-0.379-0.248-0.664-0.248
		c-0.216,0-0.416,0.057-0.605,0.168c-0.189,0.111-0.324,0.262-0.403,0.453c-0.081,0.189-0.12,0.453-0.12,0.787v2.335H76.232
		L76.232,42.848z"/>
</g>
<g>
</g>
<g>
</g>
<g>
</g>
<g>
</g>
<g>
</g>
<g>
</g>
</svg>
