<?xml version="1.0" encoding="utf-8"?>
<!-- Generator: Adobe Illustrator 16.0.0, SVG Export Plug-In . SVG Version: 6.00 Build 0)  -->
<!DOCTYPE svg PUBLIC "-//W3C//DTD SVG 1.1//EN" "http://www.w3.org/Graphics/SVG/1.1/DTD/svg11.dtd">
<svg version="1.1" id="Layer_1" xmlns="http://www.w3.org/2000/svg" xmlns:xlink="http://www.w3.org/1999/xlink" x="0px" y="0px"
	 width="80px" height="20.943px" viewBox="0 0 80 20.943" enable-background="new 0 0 80 20.943" xml:space="preserve">
<g>
	<path fill="#142A3E" d="M11.052,38.271l3.532-5.528h2.567c-0.211,0.108-0.4,0.301-0.481,0.617l-2.112,8.097
		c-0.078,0.302,0.008,0.494,0.167,0.617H12.11c0.236-0.123,0.385-0.315,0.464-0.617l1.741-6.713
		c0.049-0.161,0.143-0.342,0.143-0.342l-0.23,0.371L9.35,42.264l-0.979-7.327l-0.092-0.343c0,0-0.072,0.245-0.095,0.358
		l-1.695,6.503c-0.078,0.302,0.007,0.494,0.181,0.616H5.142c0.243-0.122,0.418-0.314,0.496-0.616l2.113-8.097
		c0.07-0.263-0.056-0.509-0.22-0.617h2.655L11.052,38.271L11.052,38.271z"/>
	<path fill="#142A3E" d="M22.054,39.928c-0.409,1.104-2.207,2.282-3.87,2.282c-1.608,0-2.671-1.304-2.126-3.392
		c0.473-1.809,2.072-3.361,3.885-3.361c1.489,0,2.499,0.879,1.898,3.157h-3.853c-0.01,0.042-0.032,0.108-0.057,0.204
		c-0.22,0.936,0,2.35,1.231,2.35C20.344,41.168,21.408,40.704,22.054,39.928L22.054,39.928z M19.69,36.227
		c-0.622,0-1.207,0.688-1.474,1.593h2.018C20.485,36.846,20.219,36.227,19.69,36.227L19.69,36.227z"/>
	<path fill="#142A3E" d="M23.662,35.966c0.552-0.247,1.387-0.509,2.404-0.509c0.71,0,2.151,0.168,1.614,2.225
		c-0.077,0.303-0.842,3.239-0.866,3.321c-0.103,0.396-0.167,0.55,0.173,0.659l-1.726,0.575c-0.237-0.193-0.401-0.329-0.3-0.854
		c-0.504,0.397-1.286,0.824-2.033,0.824c-1.111,0-1.373-1.003-1.175-1.745c0.133-0.52,0.529-1.108,1.276-1.521
		c0.757-0.451,2.083-0.617,2.594-0.975c0.212-0.149,0.284-0.412,0.33-0.63c0.167-0.633-0.024-1.112-0.583-1.112
		c-0.963,0-1.845,1.002-2.262,1.715L23.662,35.966L23.662,35.966z M23.552,40.165c-0.183,0.673,0.134,0.947,0.583,0.947
		c0.347,0,0.653-0.164,0.898-0.357l0.537-2.044c-0.362,0.164-0.6,0.205-1.032,0.396C24.055,39.356,23.687,39.642,23.552,40.165
		L23.552,40.165z"/>
	<path fill="#142A3E" d="M35.744,32.563l-2.095,7.657c-0.063,0.38-0.096,0.46,0.056,0.696l-2.437,1.492l0.27-0.856
		c-0.426,0.286-1.079,0.657-1.813,0.657c-1.309,0-2.137-1.263-1.6-3.335c0.489-1.864,2.247-3.418,3.894-3.418
		c0.52,0,0.724,0.124,0.993,0.329l0.622-2.06c0.11-0.438-0.117-0.508-0.307-0.548L35.744,32.563L35.744,32.563z M30.991,41.141
		c0.293,0,0.512-0.138,0.686-0.231l1.111-4.282c-0.12-0.192-0.206-0.355-0.576-0.355c-1.056,0-1.843,1.288-2.12,2.359
		C29.55,40.712,30.495,41.141,30.991,41.141L30.991,41.141z"/>
	<path fill="#142A3E" d="M34.406,42.988l1.781-6.746c0.078-0.315-0.017-0.508-0.191-0.616l2.421-0.627c0,0-0.04,0.201-0.127,0.519
		l-1.748,6.82c-1.27,5.306-4.328,5.2-5.879,4.859C30.662,47.197,33.522,46.421,34.406,42.988L34.406,42.988z"/>
	<path fill="#142A3E" d="M41.562,37.897c2.028,0,2.688,1.521,2.213,3.36c-0.512,1.923-2.119,3.388-3.958,3.388
		c-2.342,0-2.617-1.901-2.231-3.291C38.069,39.514,39.574,37.897,41.562,37.897L41.562,37.897z M41.293,38.639
		c-0.797,0.025-1.482,1.069-1.877,2.673c-0.408,1.717-0.047,2.58,0.632,2.555c0.763-0.027,1.425-0.811,1.86-2.649
		C42.254,39.773,42.15,38.61,41.293,38.639L41.293,38.639z"/>
	<path fill="#142A3E" d="M50.561,39.967l-1.033,3.952c-0.077,0.302,0.011,0.47,0.177,0.592h-2.476
		c0.229-0.122,0.396-0.29,0.474-0.592l0.922-3.539c0.187-0.688,0.119-1.332-0.653-1.332c-0.464,0-0.896,0.272-1.166,0.55
		l-1.128,4.321c-0.075,0.302,0,0.47,0.177,0.592h-2.519c0.229-0.122,0.396-0.29,0.478-0.592l2.041-7.665
		c0.106-0.424-0.104-0.507-0.302-0.577l2.324-0.606l-0.854,3.69c0.312-0.289,1.254-0.863,2.09-0.863
		C50.355,37.897,50.924,38.568,50.561,39.967L50.561,39.967z"/>
	<path fill="#142A3E" d="M62.24,38.158l-0.504,2.126c-0.047-0.717-0.258-1.675-0.969-1.675c-0.642,0-0.939,0.343-1.025,0.672
		c-0.119,0.48,0.293,0.714,0.756,1.028c0.695,0.495,1.436,1.028,1.113,2.267c-0.396,1.508-2.062,2.067-2.963,2.067
		c-0.703,0-1.279-0.178-1.799-0.545l0.545-2.199c-0.072,0.99,0.313,1.938,1.108,1.938c0.767,0,1.127-0.492,1.207-0.81
		c0.142-0.521-0.174-0.646-0.944-1.237c-0.869-0.67-1-1.222-0.787-2.019c0.233-0.901,1.106-1.876,2.797-1.876
		C61.074,37.897,61.707,37.965,62.24,38.158L62.24,38.158z"/>
	<path fill="#142A3E" d="M66.379,37.897c2.025,0,2.688,1.521,2.205,3.36c-0.51,1.923-2.111,3.388-3.953,3.388
		c-2.342,0-2.611-1.901-2.225-3.291C62.887,39.514,64.385,37.897,66.379,37.897L66.379,37.897z M66.111,38.639
		c-0.805,0.025-1.49,1.069-1.877,2.673c-0.408,1.717-0.055,2.58,0.623,2.555c0.766-0.027,1.436-0.811,1.856-2.649
		C67.072,39.773,66.963,38.61,66.111,38.639L66.111,38.639z"/>
	<path fill="#142A3E" d="M75.285,39.967l-1.033,3.952c-0.08,0.302,0,0.47,0.166,0.592h-2.443c0.252-0.122,0.396-0.29,0.476-0.592
		l0.891-3.414c0.146-0.538,0.363-1.442-0.646-1.442c-0.385,0-0.864,0.286-1.11,0.549l-1.117,4.309
		c-0.079,0.303,0.007,0.469,0.164,0.592h-2.46c0.229-0.123,0.395-0.289,0.475-0.592l1.338-5.064c0.117-0.426-0.028-0.55-0.223-0.618
		l2.258-0.583l-0.213,1.107c0.582-0.456,1.283-0.863,2.119-0.863C75,37.897,75.631,38.639,75.285,39.967L75.285,39.967z"/>
	<path fill="#142A3E" d="M57.158,39.967l-1.035,3.952c-0.076,0.302,0.012,0.47,0.176,0.592h-2.451
		c0.252-0.122,0.396-0.29,0.473-0.592l0.894-3.414c0.146-0.538,0.363-1.442-0.639-1.442c-0.39,0-0.873,0.286-1.119,0.549
		l-1.117,4.309c-0.082,0.303,0.019,0.469,0.164,0.592h-2.459c0.229-0.123,0.396-0.289,0.476-0.592l1.348-5.064
		c0.111-0.426-0.031-0.55-0.229-0.618l2.254-0.583l-0.211,1.107c0.582-0.456,1.281-0.863,2.117-0.863
		C56.875,37.897,57.506,38.639,57.158,39.967L57.158,39.967z"/>
	<path opacity="0.7" fill="#142A3E" enable-background="new    " d="M9.428,50.473c9.836,0,17.654-4.634,21.367-7.406
		c-3.501,1.902-11.947,5.162-19.774,5.162c-4.493,0-8.11-2.065-8.11-4.623c0-1.028,0.59-1.979,1.594-2.754
		c-2.358,0.944-3.911,2.547-3.911,4.362C0.593,48.118,4.613,50.473,9.428,50.473L9.428,50.473z"/>
	<path opacity="0.7" fill="#142A3E" enable-background="new    " d="M68.246,32.143c5.406,0.683,8.924,2.771,8.924,5.594
		c0,0.466-0.113,0.917-0.309,1.35c1.592-0.998,2.545-2.256,2.545-3.618c0-3.269-4.697-5.674-12.166-5.921
		c-7.475-0.252-17.766,2.102-27.579,6.832C42.254,35.129,56.793,30.695,68.246,32.143L68.246,32.143z"/>
	<path fill="#142A3E" d="M37.762,49.402c-0.031,0.123,0,0.199,0.063,0.24h-0.607c0.086-0.041,0.151-0.117,0.182-0.24l0.686-2.68
		c0.079-0.302,0.104-0.326,0-0.5c-0.031-0.062-0.078-0.148-0.148-0.229h1.117l0.962,1.857l0.417-1.617
		c0.031-0.125,0-0.192-0.056-0.24h0.606c-0.086,0.048-0.149,0.115-0.18,0.24l-0.949,3.664c0,0-1.472-2.901-1.458-2.948
		L37.762,49.402L37.762,49.402z"/>
	<path fill="#142A3E" d="M41.971,47.395c0.039-0.166-0.039-0.203-0.104-0.229l1.018-0.138c0,0-0.338,1.332-0.418,1.641
		c-0.119,0.455,0.08,0.515,0.229,0.515c0.111,0,0.246-0.086,0.31-0.162l0.429-1.627c0.037-0.166-0.041-0.203-0.103-0.229
		l0.987-0.138l-0.493,1.949c-0.078,0.291-0.063,0.377,0.077,0.424l-0.836,0.315c-0.116-0.053-0.155-0.18-0.116-0.352
		c-0.203,0.154-0.438,0.342-0.759,0.342c-0.387,0-0.756-0.235-0.543-1.065C41.703,48.436,41.971,47.395,41.971,47.395L41.971,47.395
		z"/>
	<path fill="#142A3E" d="M45.785,47.523H45.5l1.42-1.094l-0.182,0.688h0.543l-0.102,0.405h-0.554l-0.332,1.283
		c-0.146,0.578,0.177,0.568,0.272,0.568c0.138,0,0.197-0.08,0.277-0.142c-0.072,0.148-0.291,0.475-0.742,0.475
		c-0.576,0-0.771-0.42-0.646-0.938L45.785,47.523L45.785,47.523z"/>
	<path fill="#142A3E" d="M49.734,47.676c-0.166,0-0.244,0.042-0.346,0.127l-0.412,1.604c-0.031,0.119-0.011,0.197,0.053,0.238
		h-1.078c0.086-0.041,0.152-0.119,0.182-0.238l0.52-2.016c0.041-0.168-0.039-0.199-0.106-0.225l1.041-0.138l-0.119,0.457
		c0.229-0.316,0.457-0.457,0.625-0.457c0.109,0,0.144,0.011,0.188,0.037L50.01,48.1C50.018,47.842,49.883,47.676,49.734,47.676
		L49.734,47.676z"/>
	<path fill="#142A3E" d="M51.83,49.402c-0.031,0.123-0.008,0.199,0.055,0.24H50.82c0.088-0.041,0.15-0.117,0.182-0.24l0.512-2.008
		c0.049-0.166-0.039-0.203-0.094-0.229l1.018-0.137L51.83,49.402L51.83,49.402z M51.744,46.396c0.07-0.266,0.305-0.475,0.527-0.475
		c0.221,0,0.348,0.209,0.272,0.475c-0.062,0.258-0.299,0.467-0.521,0.467C51.807,46.863,51.672,46.654,51.744,46.396L51.744,46.396z
		"/>
	<path fill="#142A3E" d="M53.881,47.523h-0.283l1.416-1.094l-0.182,0.688h0.545l-0.102,0.405h-0.547l-0.33,1.283
		c-0.148,0.578,0.166,0.568,0.272,0.568c0.129,0,0.188-0.08,0.271-0.142c-0.069,0.148-0.293,0.475-0.739,0.475
		c-0.568,0-0.772-0.42-0.64-0.938L53.881,47.523L53.881,47.523z"/>
	<path fill="#142A3E" d="M57.023,49.402c-0.031,0.123,0,0.199,0.062,0.24h-1.071c0.088-0.041,0.151-0.117,0.182-0.24l0.521-2.008
		c0.039-0.166-0.049-0.203-0.104-0.229l1.018-0.137L57.023,49.402L57.023,49.402z M56.938,46.396
		c0.07-0.266,0.308-0.475,0.527-0.475c0.221,0,0.348,0.209,0.283,0.475c-0.07,0.258-0.305,0.467-0.527,0.467
		C57,46.863,56.875,46.654,56.938,46.396L56.938,46.396z"/>
	<path fill="#142A3E" d="M59.467,49.71c-0.938,0-1.025-0.764-0.883-1.296c0.197-0.763,0.764-1.386,1.553-1.386
		c0.773,0,1.057,0.563,0.857,1.332C60.791,49.163,60.176,49.71,59.467,49.71L59.467,49.71z M60.184,48.346
		c0.133-0.562,0.119-0.978-0.146-0.971c-0.246,0.005-0.478,0.348-0.644,1.01c-0.172,0.715-0.021,0.965,0.152,0.959
		C59.766,49.34,59.986,49.129,60.184,48.346L60.184,48.346z"/>
	<path fill="#142A3E" d="M64.188,49.402c-0.028,0.123-0.008,0.199,0.058,0.24h-1.037c0.071-0.041,0.146-0.117,0.185-0.24
		l0.336-1.312c0.039-0.159,0.155-0.524-0.189-0.524c-0.109,0-0.283,0.096-0.346,0.185l-0.426,1.657
		c-0.033,0.119-0.011,0.197,0.055,0.238H61.76c0.088-0.041,0.15-0.119,0.182-0.238l0.521-2.016c0.041-0.168,0-0.225-0.068-0.254
		l0.979-0.111l-0.08,0.324c0.244-0.201,0.481-0.316,0.787-0.316c0.428,0,0.64,0.307,0.498,0.848L64.188,49.402L64.188,49.402z"/>
	<path fill="#142A3E" d="M66.023,48.029l0.238-0.824c0.2-0.085,0.557-0.176,0.936-0.176c0.27,0,0.838,0.055,0.607,0.945
		l-0.322,1.229c-0.039,0.168-0.06,0.216,0.062,0.272l-0.765,0.234c-0.09-0.062-0.147-0.121-0.127-0.301
		c-0.182,0.149-0.465,0.297-0.727,0.297c-0.408,0-0.514-0.38-0.434-0.693c0.057-0.209,0.205-0.438,0.479-0.604
		c0.276-0.181,0.715-0.234,0.922-0.361c0.104-0.066,0.119-0.134,0.143-0.242c0.062-0.27-0.016-0.423-0.182-0.423
		C66.535,47.386,66.16,47.803,66.023,48.029L66.023,48.029z M66.576,48.507c-0.143,0.093-0.252,0.198-0.291,0.371
		c-0.064,0.241,0.053,0.339,0.188,0.339c0.086,0,0.16-0.041,0.213-0.076l0.197-0.771C66.756,48.432,66.691,48.436,66.576,48.507
		L66.576,48.507z"/>
	<path fill="#142A3E" d="M69.752,46.314c0.039-0.172-0.031-0.207-0.102-0.233l1.039-0.156l-0.898,3.479
		c-0.023,0.123,0,0.199,0.064,0.24h-1.08c0.086-0.041,0.146-0.117,0.182-0.24L69.752,46.314L69.752,46.314z"/>
	<path fill="#142A3E" d="M71.699,47.809c0.104-0.394,0.457-0.775,1.133-0.775c0.111,0,0.371,0.023,0.586,0.074l-0.221,0.926
		c-0.023-0.274-0.096-0.668-0.355-0.668c-0.23,0-0.324,0.107-0.354,0.23c-0.047,0.17,0.123,0.256,0.275,0.362
		c0.252,0.188,0.541,0.398,0.407,0.898c-0.155,0.632-0.844,0.854-1.176,0.854c-0.252,0-0.488-0.047-0.728-0.199l0.229-0.938
		c-0.022,0.385,0.116,0.771,0.407,0.771c0.263,0,0.38-0.154,0.41-0.267c0.049-0.174-0.045-0.219-0.338-0.453
		C71.643,48.361,71.619,48.118,71.699,47.809L71.699,47.809z"/>
	<path fill="#142A3E" d="M76.996,40.419c0-0.435,0.314-0.761,0.725-0.761c0.402,0,0.725,0.326,0.725,0.761
		c0,0.439-0.319,0.767-0.725,0.767C77.311,41.186,76.996,40.859,76.996,40.419L76.996,40.419z M77.721,41.337
		c0.488,0,0.904-0.388,0.904-0.918c0-0.527-0.416-0.914-0.904-0.914c-0.49,0-0.906,0.387-0.906,0.914
		C76.814,40.949,77.23,41.337,77.721,41.337L77.721,41.337z M77.529,40.49h0.184l0.268,0.459h0.183l-0.289-0.466
		c0.146-0.02,0.26-0.102,0.26-0.29c0-0.209-0.116-0.303-0.362-0.303h-0.396v1.059h0.153V40.49L77.529,40.49z M77.529,40.355v-0.327
		h0.215c0.109,0,0.229,0.025,0.229,0.155c0,0.163-0.119,0.172-0.252,0.172H77.529L77.529,40.355z"/>
</g>
<g>
	<g>
		<path fill="#152A3F" d="M5.268,8.454c0,0,0.294,0.868-1.188,1.176c-1.483,0.309-3.95,0.104-3.894-0.308
			c0.058-0.409,1.211-4.5,2.552-3.886C4.079,6.05,5.409,6.919,5.767,8.044c0,0-1.89-0.94-3.261,0.357
			C2.505,8.401,5.253,8.156,5.268,8.454z"/>
		<path fill="#152A3F" d="M6.661,7.098c0,0,0.358-2.788-1.395-2.584c0,0,1.01-0.793,1.751,0.486c0,0,0.256-1.97,1.598-2.123
			S3.693,2.341,3.079,4.54C2.901,5.079,6.354,7.173,6.661,7.098z"/>
		<path fill="#152A3F" d="M7.378,7.099c0,0-0.356-3.25,1.241-3.94c0.906-0.332,1.625-0.332,1.47,0.588
			C9.934,4.669,9.476,6.337,7.378,7.099z"/>
		<path fill="#152A3F" d="M10.548,7.941c0,0-0.716-0.583,0-2.914c0.716-2.329,2.48,0.345,2.48,0.345s1.1,1.11-0.538,2.059
			C10.854,8.376,10.548,7.941,10.548,7.941z"/>
		<path fill="#152A3F" d="M14.64,8.273c0,0-0.077-1.892-0.946-0.92c-0.868,0.974-2.25,1.61-1.993,3.528
			c0.255,1.917,2.371,2.403,2.439,2.301C14.205,13.079,15.023,12.363,14.64,8.273z"/>
		<path fill="#152A3F" d="M13.204,14.868c0,0,0.584-0.408,0-1.049c-0.586-0.639-3.093-3.5-2.324-0.281
			C11.11,14.486,12,16.3,13.204,14.868z"/>
		<path fill="#152A3F" d="M6.84,13.564c0,0,0.356-1.125-0.436-0.535c-0.793,0.586-3.323,2.939-2.71,3.322
			c0.614,0.385,4.364,2.66,8.115-0.537c0.247-0.256-3.266-3.709-4.104-2.838c-0.226,0.281,2.231,2.264,2.525,2.422
			c0,0-2.308-1.68-2.887-1.527c-0.58,0.154-1.485,1.971-1.403,2.328C5.939,16.198,5.355,15.38,6.84,13.564z"/>
		<path fill="#152A3F" d="M3.075,15.562c0,0-0.735,0.588-1.783-1.381c-1.048-1.971-1.585-3.502-0.409-3.453
			c1.177,0.051,4.397,0.075,4.551,1.173C5.587,13.003,3.075,15.562,3.075,15.562z"/>
	</g>
	<g opacity="0.8" enable-background="new    ">
		<path fill="#152A3F" d="M23.309,5.74l-1.547,1.365c-0.543-0.756-1.096-1.134-1.66-1.134c-0.274,0-0.498,0.073-0.672,0.22
			c-0.174,0.147-0.262,0.312-0.262,0.496c0,0.185,0.062,0.358,0.187,0.522c0.169,0.219,0.68,0.689,1.532,1.41
			c0.797,0.667,1.28,1.087,1.45,1.262c0.423,0.428,0.724,0.837,0.901,1.227c0.177,0.391,0.265,0.817,0.265,1.28
			c0,0.9-0.311,1.645-0.934,2.23c-0.623,0.588-1.434,0.881-2.435,0.881c-0.782,0-1.463-0.191-2.043-0.574s-1.077-0.984-1.49-1.807
			l1.756-1.059c0.528,0.971,1.136,1.455,1.823,1.455c0.359,0,0.66-0.105,0.904-0.314c0.244-0.207,0.366-0.449,0.366-0.723
			c0-0.248-0.092-0.498-0.276-0.746c-0.185-0.249-0.591-0.63-1.218-1.143c-1.196-0.975-1.968-1.727-2.317-2.257
			c-0.349-0.529-0.523-1.058-0.523-1.585c0-0.762,0.29-1.414,0.87-1.959s1.296-0.817,2.148-0.817c0.548,0,1.069,0.127,1.565,0.381
			S22.731,5.068,23.309,5.74z"/>
		<path fill="#152A3F" d="M24.37,7.105h2.082l2.109,5.094l2.327-5.094h2.087l-5.084,11.088h-2.104l1.669-3.574L24.37,7.105z"/>
		<path fill="#152A3F" d="M34.135,7.105h2.037v0.832c0.462-0.39,0.88-0.66,1.255-0.812s0.759-0.229,1.151-0.229
			c0.805,0,1.487,0.281,2.049,0.844c0.472,0.478,0.708,1.184,0.708,2.119v5.365H39.32v-3.555c0-0.97-0.043-1.613-0.13-1.932
			c-0.087-0.317-0.238-0.56-0.454-0.727c-0.216-0.166-0.482-0.25-0.8-0.25c-0.412,0-0.765,0.139-1.061,0.414s-0.5,0.657-0.614,1.144
			c-0.06,0.254-0.089,0.803-0.089,1.647v3.258h-2.037V7.105z"/>
		<path fill="#152A3F" d="M49.297,7.105h2.036v8.119h-2.036v-0.859c-0.398,0.379-0.797,0.65-1.196,0.818
			c-0.4,0.166-0.834,0.25-1.301,0.25c-1.048,0-1.955-0.406-2.72-1.221c-0.766-0.812-1.148-1.824-1.148-3.033
			c0-1.254,0.37-2.28,1.11-3.082c0.741-0.801,1.64-1.201,2.698-1.201c0.487,0,0.944,0.093,1.371,0.276
			c0.428,0.185,0.822,0.46,1.186,0.828V7.105z M47.155,8.777c-0.63,0-1.152,0.223-1.569,0.668c-0.416,0.444-0.624,1.016-0.624,1.712
			c0,0.702,0.211,1.278,0.636,1.731c0.424,0.453,0.945,0.68,1.564,0.68c0.64,0,1.171-0.223,1.592-0.668s0.632-1.029,0.632-1.751
			c0-0.706-0.211-1.278-0.632-1.716S47.8,8.777,47.155,8.777z"/>
		<path fill="#152A3F" d="M55.414,7.105V8c0.368-0.368,0.766-0.644,1.193-0.828c0.428-0.184,0.886-0.276,1.373-0.276
			c1.06,0,1.96,0.4,2.701,1.201c0.741,0.802,1.111,1.828,1.111,3.082c0,1.209-0.383,2.221-1.148,3.033
			c-0.767,0.814-1.674,1.221-2.724,1.221c-0.468,0-0.902-0.084-1.306-0.25c-0.403-0.168-0.804-0.439-1.201-0.818v3.828h-2.022V7.105
			H55.414z M57.556,8.777c-0.642,0-1.174,0.219-1.597,0.656s-0.635,1.01-0.635,1.716c0,0.722,0.212,1.306,0.635,1.751
			s0.955,0.668,1.597,0.668c0.621,0,1.145-0.227,1.57-0.68c0.425-0.453,0.638-1.029,0.638-1.731c0-0.696-0.209-1.268-0.627-1.712
			C58.72,8.999,58.192,8.777,57.556,8.777z"/>
	</g>
	<g enable-background="new    ">
		<path fill="#152A3F" d="M61.818,4.247h2.475c1.596,0,2.781,0.198,3.557,0.593c0.775,0.396,1.414,1.039,1.916,1.929
			c0.502,0.891,0.753,1.931,0.753,3.119c0,0.846-0.141,1.623-0.421,2.332c-0.281,0.709-0.669,1.297-1.164,1.766
			c-0.494,0.467-1.029,0.791-1.605,0.969c-0.577,0.18-1.576,0.27-2.997,0.27h-2.513V4.247z M63.893,6.262v6.925h0.971
			c0.955,0,1.646-0.109,2.078-0.328c0.43-0.221,0.781-0.588,1.055-1.105c0.273-0.52,0.41-1.156,0.41-1.913
			c0-1.165-0.325-2.069-0.977-2.712c-0.588-0.577-1.529-0.866-2.828-0.866H63.893z"/>
		<path fill="#152A3F" d="M71.555,7.105h2.365l1.605,2.213l1.596-2.213h2.326l-2.756,3.82l3.116,4.299h-2.365l-1.931-2.664
			l-1.922,2.664h-2.326l3.082-4.271L71.555,7.105z"/>
	</g>
</g>
</svg>
