<?xml version="1.0" encoding="utf-8"?>
<!-- Generator: Adobe Illustrator 16.0.0, SVG Export Plug-In . SVG Version: 6.00 Build 0)  -->
<!DOCTYPE svg PUBLIC "-//W3C//DTD SVG 1.1//EN" "http://www.w3.org/Graphics/SVG/1.1/DTD/svg11.dtd">
<svg version="1.1" id="Layer_1" xmlns="http://www.w3.org/2000/svg" xmlns:xlink="http://www.w3.org/1999/xlink" x="0px" y="0px"
	 width="80px" height="80px" viewBox="0 0 80 80" enable-background="new 0 0 80 80" xml:space="preserve">
<g>
	<g>
		<path fill="#152A3F" d="M5.372,37.353c0,0,0.305,0.902-1.234,1.221S0.04,38.68,0.099,38.255s1.257-4.669,2.648-4.032
			c1.391,0.637,2.771,1.539,3.142,2.706c0,0-1.961-0.976-3.383,0.371C2.506,37.3,5.357,37.046,5.372,37.353z"/>
		<path fill="#152A3F" d="M6.818,35.947c0,0,0.372-2.892-1.446-2.681c0,0,1.048-0.822,1.817,0.505c0,0,0.266-2.043,1.658-2.202
			s-5.107-0.557-5.744,1.725C2.918,33.852,6.5,36.026,6.818,35.947z"/>
		<path fill="#152A3F" d="M7.561,35.949c0,0-0.37-3.372,1.287-4.088c0.941-0.345,1.685-0.345,1.525,0.61
			C10.213,33.427,9.738,35.157,7.561,35.949z"/>
		<path fill="#152A3F" d="M10.85,36.822c0,0-0.743-0.605,0-3.022c0.743-2.416,2.574,0.357,2.574,0.357s1.14,1.152-0.558,2.135
			C11.168,37.273,10.85,36.822,10.85,36.822z"/>
		<path fill="#152A3F" d="M15.095,37.167c0,0-0.08-1.963-0.981-0.955c-0.902,1.009-2.335,1.671-2.069,3.661
			c0.265,1.989,2.461,2.493,2.531,2.388C14.644,42.154,15.493,41.411,15.095,37.167z"/>
		<path fill="#152A3F" d="M13.606,44.011c0,0,0.606-0.424,0-1.087c-0.608-0.663-3.208-3.634-2.411-0.292
			C11.434,43.614,12.356,45.497,13.606,44.011z"/>
		<path fill="#152A3F" d="M7.003,42.658c0,0,0.371-1.167-0.451-0.557c-0.823,0.61-3.449,3.051-2.812,3.448
			c0.637,0.398,4.528,2.76,8.419-0.558c0.256-0.265-3.388-3.846-4.259-2.944c-0.234,0.293,2.316,2.349,2.62,2.514
			c0,0-2.394-1.743-2.995-1.585c-0.602,0.159-1.541,2.043-1.456,2.414C6.069,45.391,5.464,44.542,7.003,42.658z"/>
		<path fill="#152A3F" d="M3.097,44.728c0,0-0.763,0.61-1.85-1.433c-1.088-2.042-1.645-3.634-0.424-3.581s4.563,0.079,4.722,1.22
			C5.703,42.075,3.097,44.728,3.097,44.728z"/>
	</g>
	<text transform="matrix(1 0 0 1 16.812 44.3779)"><tspan x="0" y="0" opacity="0.8" fill="#152A3F" font-family="'CenturyGothic-Bold'" font-size="15.8529">Synap</tspan><tspan x="43.92" y="0" fill="#152A3F" font-family="'CenturyGothic-Bold'" font-size="15.8529">Dx</tspan></text>
</g>
</svg>
