<?xml version="1.0" encoding="utf-8"?>
<!-- Generator: Adobe Illustrator 16.0.0, SVG Export Plug-In . SVG Version: 6.00 Build 0)  -->
<!DOCTYPE svg PUBLIC "-//W3C//DTD SVG 1.1//EN" "http://www.w3.org/Graphics/SVG/1.1/DTD/svg11.dtd">
<svg version="1.1" id="Layer_1" xmlns="http://www.w3.org/2000/svg" xmlns:xlink="http://www.w3.org/1999/xlink" x="0px" y="0px"
	 width="80px" height="14.745px" viewBox="0 31.749 80 14.745" enable-background="new 0 31.749 80 14.745" xml:space="preserve">
<g>
	<g>
		<path fill="#152A3F" d="M5.182,37.45c0,0,0.294,0.869-1.189,1.177s-3.95,0.103-3.893-0.308c0.057-0.41,1.211-4.5,2.552-3.886
			c1.341,0.614,2.671,1.483,3.029,2.608c0,0-1.89-0.941-3.261,0.357C2.419,37.398,5.167,37.153,5.182,37.45z"/>
		<path fill="#152A3F" d="M6.575,36.095c0,0,0.359-2.788-1.394-2.584c0,0,1.01-0.792,1.751,0.486c0,0,0.256-1.969,1.598-2.123
			c1.341-0.153-4.922-0.537-5.537,1.663C2.816,34.075,6.269,36.17,6.575,36.095z"/>
		<path fill="#152A3F" d="M7.292,36.096c0,0-0.356-3.25,1.241-3.94c0.907-0.333,1.625-0.333,1.47,0.588
			C9.848,33.665,9.39,35.333,7.292,36.096z"/>
		<path fill="#152A3F" d="M10.462,36.938c0,0-0.716-0.583,0-2.914c0.716-2.329,2.481,0.345,2.481,0.345s1.099,1.11-0.538,2.058
			C10.769,37.373,10.462,36.938,10.462,36.938z"/>
		<path fill="#152A3F" d="M14.554,37.27c0,0-0.077-1.892-0.946-0.92c-0.869,0.973-2.25,1.611-1.994,3.529
			c0.255,1.917,2.372,2.403,2.44,2.301C14.119,42.078,14.938,41.361,14.554,37.27z"/>
		<path fill="#152A3F" d="M13.118,43.867c0,0,0.584-0.408,0-1.049c-0.586-0.639-3.092-3.501-2.324-0.281
			C11.025,43.484,11.914,45.299,13.118,43.867z"/>
		<path fill="#152A3F" d="M6.754,42.562c0,0,0.357-1.125-0.435-0.535c-0.793,0.586-3.324,2.939-2.71,3.322
			c0.614,0.385,4.364,2.66,8.115-0.537c0.247-0.256-3.266-3.709-4.105-2.838c-0.225,0.281,2.232,2.264,2.526,2.422
			c0,0-2.308-1.68-2.887-1.527c-0.58,0.154-1.485,1.971-1.403,2.328C5.854,45.197,5.27,44.379,6.754,42.562z"/>
		<path fill="#152A3F" d="M2.989,44.559c0,0-0.735,0.588-1.783-1.381c-1.048-1.969-1.585-3.503-0.409-3.453
			c1.177,0.051,4.398,0.076,4.551,1.175C5.501,42.002,2.989,44.559,2.989,44.559z"/>
	</g>
	
		<text transform="matrix(1 0 0 1 16.209 44.2197)" opacity="0.8" fill="#152A3F" enable-background="new    " font-family="'CenturyGothic-Bold'" font-size="15.2807">Synap</text>
	<text transform="matrix(1 0 0 1 60.4717 44.2197)" fill="#152A3F" font-family="'CenturyGothic-Bold'" font-size="15.2807">Dx</text>
</g>
</svg>
