<?xml version="1.0" encoding="utf-8"?>
<!-- Generator: Adobe Illustrator 16.0.0, SVG Export Plug-In . SVG Version: 6.00 Build 0)  -->
<!DOCTYPE svg PUBLIC "-//W3C//DTD SVG 1.1//EN" "http://www.w3.org/Graphics/SVG/1.1/DTD/svg11.dtd">
<svg version="1.1" id="Layer_1" xmlns="http://www.w3.org/2000/svg" xmlns:xlink="http://www.w3.org/1999/xlink" x="0px" y="0px"
	 width="80px" height="80px" viewBox="0 0 80 80" enable-background="new 0 0 80 80" xml:space="preserve">
<g>
	<g>
		<path fill="#3E6DB2" d="M66.454,28.237c-7.114-3.19-16.579-4.943-26.648-4.943C19.082,23.293,2.222,30.787,2.222,40
			c0,9.213,16.86,16.708,37.584,16.708c10.069,0,19.534-1.754,26.648-4.945C73.507,48.602,77.39,44.424,77.39,40
			C77.39,35.575,73.507,31.397,66.454,28.237z M39.806,56.033C19.726,56.033,3.388,48.84,3.388,40
			c0-8.839,16.338-16.033,36.418-16.033c20.081,0,36.417,7.194,36.417,16.033C76.223,48.84,59.887,56.033,39.806,56.033z"/>
		<path fill="#3E6DB2" d="M13.891,40c0,5.131,11.624,9.309,25.915,9.309c14.287,0,25.914-4.178,25.914-9.309
			c0-5.131-11.627-9.309-25.914-9.309C25.515,30.691,13.891,34.869,13.891,40z"/>
		<path fill="#3E6DB2" d="M39.806,21.932c-21.79,0-39.458,8.089-39.458,18.067c0,9.979,17.668,18.069,39.458,18.069
			S79.262,49.979,79.262,40C79.262,30.021,61.596,21.932,39.806,21.932z M66.656,52.209c-7.178,3.215-16.712,4.986-26.851,4.986
			C18.812,57.195,1.733,49.482,1.733,40c0-9.481,17.079-17.196,38.072-17.196c10.139,0,19.673,1.772,26.851,4.987
			C73.893,31.034,77.878,35.371,77.878,40C77.878,44.629,73.893,48.963,66.656,52.209z"/>
		<path fill="#3E6DB2" d="M39.806,24.458c-19.812,0-35.93,6.969-35.93,15.542s16.118,15.542,35.93,15.542
			c19.811,0,35.929-6.969,35.929-15.542S59.616,24.458,39.806,24.458z M58.387,46.984c-4.97,1.812-11.566,2.812-18.581,2.812
			c-14.559,0-26.402-4.395-26.402-9.797c0-5.401,11.844-9.796,26.402-9.796c14.558,0,26.403,4.395,26.403,9.796
			C66.209,42.66,63.43,45.142,58.387,46.984z"/>
	</g>
	<g>
		<path fill-rule="evenodd" clip-rule="evenodd" fill="#311B1B" d="M75.503,42.636c-0.029-1.158-1.245-2.007-0.222-3.523
			c0.121-0.149,0.09-0.373-0.019-0.59c-0.159-0.273-0.586-1.055-0.769-1.228c-1.988,1.434-4.734,6.844-5.418,6.852
			c-0.711,0.008-0.213-2.241,0.952-4.18c0.289-0.498,0.162-0.521,0.083-0.667c-0.081-0.121-0.45-0.658-0.58-0.758
			c-0.13-0.093-0.286-0.292-0.555,0.033c-0.27,0.323-3.369,3.076-4.009,3.776c0.334-0.82,1.059-2.185,1.275-2.582
			c0.242-0.472,0.085-0.593-0.073-0.764c-0.157-0.146-0.601-0.684-0.783-0.805c-0.154-0.121-0.284-0.144-0.555,0.129
			c-1.183,1.176-2.106,1.754-2.833,2.035c0.288-2.421-4.271-5.004-6.491,1.98c-1.451,1.695-3.135,2.207-2.551,0.502
			c0.352-0.977,1.595-3.882,2.606-6.061c2.104-0.116,4.647-0.223,6.151-0.202c0.201,0.014,0.32-0.011,0.374-0.085
			c0.039-0.052,0.045-0.119,0.016-0.201l0.002,0.008c-0.056-0.273-0.113-0.477-0.175-0.625l0.003,0.008
			c-0.057-0.205-0.242-0.317-0.504-0.314c-0.62,0.008-3.069,0.178-5.37,0.366c0.224-0.466,0.426-0.857,0.58-1.131
			c0.121-0.223,0.062-0.496-0.096-0.689c-0.183-0.22-0.706-0.779-0.938-0.901c-0.204-0.117-0.355-0.068-0.523,0.303
			c-0.234,0.544-0.643,1.5-1.121,2.599c-0.618,0.057-1.162,0.112-1.576,0.157c-0.329,0.032-0.526,0.377-0.619,0.545
			c-0.008,0.014-0.018,0.025-0.022,0.039v0.003l-0.003,0.002c-0.041,0.105-0.036,0.201,0.02,0.271
			c0.061,0.072,0.165,0.105,0.286,0.088c0.127-0.021,0.682-0.066,1.479-0.116c-0.748,1.674-1.596,3.494-2.274,4.674
			c-1.823,2.883-3.226,2.532-2.735,1.069c0.469-1.438,1.729-3.599,1.946-3.97c0.168-0.297,0.212-0.645-0.372-0.637
			c-0.507,0.005-0.976-0.431-0.85-1.372c0.061-0.517-0.325-0.735-0.543-0.314c-0.601,1.191-2.302,2.939-3.132,3.225
			c0.105-0.866-0.715-1.99-3.148-1.961c-0.562,0.008-1.74,0.041-3.163,0.094c1.131-2.512,2.165-4.672,2.271-4.842
			c0.074-0.149,0.043-0.348-0.061-0.444c-0.185-0.196-0.678-0.608-0.909-0.753c-0.179-0.121-0.434-0.07-0.555,0.129
			c-0.978,1.867-1.905,3.958-2.731,5.993c-1.283,0.057-2.625,0.126-3.831,0.207c1.014-2.424,1.967-4.688,2.298-5.479
			c0.118-0.248,0.189-0.421-0.02-0.642c-0.207-0.218-0.883-0.728-1.09-0.875c-0.206-0.17-0.484-0.118-0.603,0.18
			c-0.439,0.988-1.768,4.165-2.95,7.006c-0.222,0.021-0.426,0.046-0.61,0.068c-0.811,0.111-0.664,0.75-0.006,0.693
			c0.104-0.005,0.201-0.008,0.301-0.005c-0.94,2.259-1.717,4.147-1.758,4.264c-0.145,0.32-0.137,0.617,0.126,0.911
			c0.237,0.292,0.91,0.802,1.064,0.924c0.182,0.121,0.333,0.093,0.478-0.227c0.395-1.067,1.256-3.176,2.169-5.369
			c1.403,0.748,2.339,2.306,2.248,4.551c-0.02,0.243-0.087,0.538,0.096,0.686c0.18,0.147,0.466,0.367,0.645,0.464
			c0.335,0.141,0.453-0.104,0.549-0.353c0.414-1.413,1.486-3.966,2.551-6.354c1.246-0.065,2.289-0.102,2.6-0.077
			c-3.584,2.487-3.013,6.701,0.208,6.658c2.076-0.027,3.743-2.873,3.777-4.698c1.009-0.493,1.8-1.282,2.604-2.117
			c0.028,0.126,0.085,0.372,0.296,0.616c-3.179,4.231-2.325,5.851-0.45,5.825c1.878-0.025,2.73-1.314,3.221-1.963
			c-0.623,2.25,2.06,2.984,4.324,0.463c0.822,3.295,5.258,2.228,6.38-2.194c0.912-0.297,1.828-0.815,2.428-1.269
			c-0.783,1.142-1.735,3.277-1.832,3.523c-0.121,0.227-0.042,0.349,0.144,0.541c0.209,0.195,0.468,0.439,0.833,0.706
			c0.154,0.146,0.379,0.118,0.627-0.179c1.722-1.994,3.502-3.55,3.801-3.847c-1.181,1.37-1.525,4.532,0.706,4.505
			c1.75-0.021,1.452-1.574,4.865-5.686c-1.092,2.702,0.266,3.155,0.29,4.068c0.036,1.354-1.542,1.201-1.58-0.256
			c-0.006-0.195-0.089-0.44-0.331-0.018c-0.217,0.396-0.363,0.619-0.459,0.794c-0.122,0.147-0.067,0.321,0.139,0.44
			C73.014,45.283,75.563,44.904,75.503,42.636L75.503,42.636z M35.853,41.478c-0.408-1.102-1.282-2.401-2.102-2.635
			c0.725-0.085,1.946-0.186,3.21-0.271C36.563,39.572,36.193,40.554,35.853,41.478L35.853,41.478z M42.201,43.57
			c-1.422,0.016-1.836-2.198,0.527-3.929c0.06,0.443,0.694,1.32,1.85,1.036C44.536,41.58,43.608,43.551,42.201,43.57L42.201,43.57z
			 M58.943,40.005c0.242,0.967,0.974,1.258,1.854,1.186C59.351,46.135,55.441,43.4,58.943,40.005L58.943,40.005z M61.458,41.083
			c0.113-0.028,0.227-0.06,0.342-0.096C61.692,41.025,61.576,41.055,61.458,41.083L61.458,41.083z"/>
		
			<path fill="none" stroke="#3E6DB2" stroke-width="2.7664" stroke-linecap="round" stroke-linejoin="round" stroke-miterlimit="2.6131" d="
			M75.503,42.636c-0.029-1.158-1.245-2.007-0.222-3.523c0.121-0.149,0.09-0.373-0.019-0.59c-0.159-0.273-0.586-1.055-0.769-1.228
			c-1.988,1.434-4.734,6.844-5.418,6.852c-0.711,0.008-0.213-2.241,0.952-4.18c0.289-0.498,0.162-0.521,0.083-0.667
			c-0.081-0.121-0.45-0.658-0.58-0.758c-0.13-0.093-0.286-0.292-0.555,0.033c-0.27,0.323-3.369,3.076-4.009,3.776
			c0.334-0.82,1.059-2.185,1.275-2.582c0.242-0.472,0.085-0.593-0.073-0.764c-0.157-0.146-0.601-0.684-0.783-0.805
			c-0.154-0.121-0.284-0.144-0.555,0.129c-1.183,1.176-2.106,1.754-2.833,2.035c0.288-2.421-4.271-5.004-6.491,1.98
			c-1.451,1.695-3.135,2.207-2.551,0.502c0.352-0.977,1.595-3.882,2.606-6.061c2.104-0.116,4.647-0.223,6.151-0.202
			c0.201,0.014,0.32-0.011,0.374-0.085c0.039-0.052,0.045-0.119,0.016-0.201l0.002,0.008c-0.056-0.273-0.113-0.477-0.175-0.625
			l0.003,0.008c-0.057-0.205-0.242-0.317-0.504-0.314c-0.62,0.008-3.069,0.178-5.37,0.366c0.224-0.466,0.426-0.857,0.58-1.131
			c0.121-0.223,0.062-0.496-0.096-0.689c-0.183-0.22-0.706-0.779-0.938-0.901c-0.204-0.117-0.355-0.068-0.523,0.303
			c-0.234,0.544-0.643,1.5-1.121,2.599c-0.618,0.057-1.162,0.112-1.576,0.157c-0.329,0.032-0.526,0.377-0.619,0.545
			c-0.008,0.014-0.018,0.025-0.022,0.039v0.003l-0.003,0.002c-0.041,0.105-0.036,0.201,0.02,0.271
			c0.061,0.072,0.165,0.105,0.286,0.088c0.127-0.021,0.682-0.066,1.479-0.116c-0.748,1.674-1.596,3.494-2.274,4.674
			c-1.823,2.883-3.226,2.532-2.735,1.069c0.469-1.438,1.729-3.599,1.946-3.97c0.168-0.297,0.212-0.645-0.372-0.637
			c-0.507,0.005-0.976-0.431-0.85-1.372c0.061-0.517-0.325-0.735-0.543-0.314c-0.601,1.191-2.302,2.939-3.132,3.225
			c0.105-0.866-0.715-1.99-3.148-1.961c-0.562,0.008-1.74,0.041-3.163,0.094c1.131-2.512,2.165-4.672,2.271-4.842
			c0.074-0.149,0.043-0.348-0.061-0.444c-0.185-0.196-0.678-0.608-0.909-0.753c-0.179-0.121-0.434-0.07-0.555,0.129
			c-0.978,1.867-1.905,3.958-2.731,5.993c-1.283,0.057-2.625,0.126-3.831,0.207c1.014-2.424,1.967-4.688,2.298-5.479
			c0.118-0.248,0.189-0.421-0.02-0.642c-0.207-0.218-0.883-0.728-1.09-0.875c-0.206-0.17-0.484-0.118-0.603,0.18
			c-0.439,0.988-1.768,4.165-2.95,7.006c-0.222,0.021-0.426,0.046-0.61,0.068c-0.811,0.111-0.664,0.75-0.006,0.693
			c0.104-0.005,0.201-0.008,0.301-0.005c-0.94,2.259-1.717,4.147-1.758,4.264c-0.145,0.32-0.137,0.617,0.126,0.911
			c0.237,0.292,0.91,0.802,1.064,0.924c0.182,0.121,0.333,0.093,0.478-0.227c0.395-1.067,1.256-3.176,2.169-5.369
			c1.403,0.748,2.339,2.306,2.248,4.551c-0.02,0.243-0.087,0.538,0.096,0.686c0.18,0.147,0.466,0.367,0.645,0.464
			c0.335,0.141,0.453-0.104,0.549-0.353c0.414-1.413,1.486-3.966,2.551-6.354c1.246-0.065,2.289-0.102,2.6-0.077
			c-3.584,2.487-3.013,6.701,0.208,6.658c2.076-0.027,3.743-2.873,3.777-4.698c1.009-0.493,1.8-1.282,2.604-2.117
			c0.028,0.126,0.085,0.372,0.296,0.616c-3.179,4.231-2.325,5.851-0.45,5.825c1.878-0.025,2.73-1.314,3.221-1.963
			c-0.623,2.25,2.06,2.984,4.324,0.463c0.822,3.295,5.258,2.228,6.38-2.194c0.912-0.297,1.828-0.815,2.428-1.269
			c-0.783,1.142-1.735,3.277-1.832,3.523c-0.121,0.227-0.042,0.349,0.144,0.541c0.209,0.195,0.468,0.439,0.833,0.706
			c0.154,0.146,0.379,0.118,0.627-0.179c1.722-1.994,3.502-3.55,3.801-3.847c-1.181,1.37-1.525,4.532,0.706,4.505
			c1.75-0.021,1.452-1.574,4.865-5.686c-1.092,2.702,0.266,3.155,0.29,4.068c0.036,1.354-1.542,1.201-1.58-0.256
			c-0.006-0.195-0.089-0.44-0.331-0.018c-0.217,0.396-0.363,0.619-0.459,0.794c-0.122,0.147-0.067,0.321,0.139,0.44
			C73.014,45.283,75.563,44.904,75.503,42.636 M35.853,41.478c-0.408-1.102-1.282-2.401-2.102-2.635
			c0.725-0.085,1.946-0.186,3.21-0.271C36.563,39.572,36.193,40.554,35.853,41.478 M42.201,43.57
			c-1.422,0.016-1.836-2.198,0.527-3.929c0.06,0.443,0.694,1.32,1.85,1.036C44.536,41.58,43.608,43.551,42.201,43.57 M58.943,40.005
			c0.242,0.967,0.974,1.258,1.854,1.186C59.351,46.135,55.441,43.4,58.943,40.005 M61.458,41.083
			c0.113-0.028,0.227-0.06,0.342-0.096C61.692,41.025,61.576,41.055,61.458,41.083"/>
		<path fill-rule="evenodd" clip-rule="evenodd" fill="#311B1B" d="M4.698,32.903c4.458-0.647,9.796-1.149,14.426-1.208
			c0.336-0.002,0.405,0.229,0.452,0.422c0.025,0.163,0.152,0.619,0.201,0.811c0.021,0.144-0.006,0.325-0.351,0.328
			c-0.353,0.006-7.122,0.296-9.327,0.585c0.312,0.342,0.725,0.897,0.865,1.098c0.13,0.222,0.171,0.526-0.065,1.028
			c-1.14,2.321-2.774,6.467-3.723,9.165c-0.127,0.34-0.425,0.555-0.903,0.207c-0.492-0.354-0.759-0.602-0.996-0.793
			c-0.213-0.18-0.279-0.311-0.151-0.656c1.179-3.036,3.087-7.492,4.419-9.919c-0.843,0.042-4.555,0.464-5.275,0.536
			c-0.175,0.021-0.343-0.039-0.234-0.253C4.144,34.028,4.516,33.148,4.698,32.903L4.698,32.903z"/>
		
			<path fill="none" stroke="#3E6DB2" stroke-width="2.7664" stroke-linecap="round" stroke-linejoin="round" stroke-miterlimit="2.6131" d="
			M4.698,32.903c4.458-0.647,9.796-1.149,14.426-1.208c0.336-0.002,0.405,0.229,0.452,0.422c0.025,0.163,0.152,0.619,0.201,0.811
			c0.021,0.144-0.006,0.325-0.351,0.328c-0.353,0.006-7.122,0.296-9.327,0.585c0.312,0.342,0.725,0.897,0.865,1.098
			c0.13,0.222,0.171,0.526-0.065,1.028c-1.14,2.321-2.774,6.467-3.723,9.165c-0.127,0.34-0.425,0.555-0.903,0.207
			c-0.492-0.354-0.759-0.602-0.996-0.793c-0.213-0.18-0.279-0.311-0.151-0.656c1.179-3.036,3.087-7.492,4.419-9.919
			c-0.843,0.042-4.555,0.464-5.275,0.536c-0.175,0.021-0.343-0.039-0.234-0.253C4.144,34.028,4.516,33.148,4.698,32.903"/>
		<path fill-rule="evenodd" clip-rule="evenodd" fill="#311B1B" stroke="#3E6DB2" d="M13.083,35.897
			c-0.054-1.839,2.713-1.69,2.757-0.033C15.887,37.532,13.138,37.993,13.083,35.897L13.083,35.897z"/>
		
			<path fill="none" stroke="#3E6DB2" stroke-width="2.7664" stroke-linecap="round" stroke-linejoin="round" stroke-miterlimit="2.6131" d="
			M13.083,35.897c-0.054-1.839,2.713-1.69,2.757-0.033C15.887,37.532,13.138,37.993,13.083,35.897"/>
		<path fill-rule="evenodd" clip-rule="evenodd" fill="#3E6DB2" d="M13.847,38.644c0.312,0.312,0.201,0.516,0.082,0.73
			c-0.237,0.461-1.58,3.355-1.866,4.347c1.869-1.143,5.244-5.163,5.541-5.665c0.103-0.152,0.271-0.143,0.451-0.034
			c0.167,0.098,0.926,0.629,1.034,0.728c0.085,0.082,0.142,0.213-0.021,0.45c-0.14,0.234-1.509,2.964-1.712,3.485
			c1.32-1.398,3.821-3.99,4.066-4.178c0.245-0.184,0.343-0.074,0.472,0.015c0.127,0.09,0.855,0.73,0.962,0.822
			c0.086,0.09,0.196,0.25,0.015,0.498c-0.345,0.464-1.475,2.601-1.618,3.069c1.025-1.047,3.738-3.562,4.004-3.77
			c0.256-0.209,0.498-0.167,0.743,0.031c0.236,0.221,0.665,0.562,0.794,0.734c0.131,0.171,0.1,0.212-0.041,0.405
			c-1.651,2.36-2.347,4.433-0.756,4.086c-0.803,1.688-3.427,0.854-2.776-0.96c0.378-1.083,0.894-2.078,1.31-2.569
			c-1.406,0.983-3.446,3.249-3.951,3.935c-0.098,0.124-0.286,0.152-0.416,0.044c-0.224-0.18-0.971-0.709-1.183-0.859
			c-0.234-0.17-0.127-0.404-0.006-0.619c0.119-0.227,1.344-2.467,1.736-2.939c-1.053,0.813-3.137,2.956-4.149,4.238
			c-0.121,0.166-0.268,0.188-0.51,0.109c-0.22-0.098-0.764-0.428-0.976-0.538c-0.201-0.108-0.309-0.228-0.159-0.495
			c0.445-0.932,1.333-2.892,1.523-3.182c-2.308,2.452-4.028,3.814-4.541,4.061c-0.413,0.191-0.528,0.191-0.829-0.078
			c-0.246-0.242-0.65-0.543-0.867-0.742c-0.217-0.221-0.184-0.271-0.077-0.568c1.073-3.186,2.122-5.019,2.278-5.316
			c0.168-0.306,0.4-0.248,0.551-0.128C13.246,38.05,13.643,38.434,13.847,38.644L13.847,38.644z"/>
		
			<path fill="none" stroke="#3E6DB2" stroke-width="2.7664" stroke-linecap="round" stroke-linejoin="round" stroke-miterlimit="2.6131" d="
			M13.847,38.644c0.312,0.312,0.201,0.516,0.082,0.73c-0.237,0.461-1.58,3.355-1.866,4.347c1.869-1.143,5.244-5.163,5.541-5.665
			c0.103-0.152,0.271-0.143,0.451-0.034c0.167,0.098,0.926,0.629,1.034,0.728c0.085,0.082,0.142,0.213-0.021,0.45
			c-0.14,0.234-1.509,2.964-1.712,3.485c1.32-1.398,3.821-3.99,4.066-4.178c0.245-0.184,0.343-0.074,0.472,0.015
			c0.127,0.09,0.855,0.73,0.962,0.822c0.086,0.09,0.196,0.25,0.015,0.498c-0.345,0.464-1.475,2.601-1.618,3.069
			c1.025-1.047,3.738-3.562,4.004-3.77c0.256-0.209,0.498-0.167,0.743,0.031c0.236,0.221,0.665,0.562,0.794,0.734
			c0.131,0.171,0.1,0.212-0.041,0.405c-1.651,2.36-2.347,4.433-0.756,4.086c-0.803,1.688-3.427,0.854-2.776-0.96
			c0.378-1.083,0.894-2.078,1.31-2.569c-1.406,0.983-3.446,3.249-3.951,3.935c-0.098,0.124-0.286,0.152-0.416,0.044
			c-0.224-0.18-0.971-0.709-1.183-0.859c-0.234-0.17-0.127-0.404-0.006-0.619c0.119-0.227,1.344-2.467,1.736-2.939
			c-1.053,0.813-3.137,2.956-4.149,4.238c-0.121,0.166-0.268,0.188-0.51,0.109c-0.22-0.098-0.764-0.428-0.976-0.538
			c-0.201-0.108-0.309-0.228-0.159-0.495c0.445-0.932,1.333-2.892,1.523-3.182c-2.308,2.452-4.028,3.814-4.541,4.061
			c-0.413,0.191-0.528,0.191-0.829-0.078c-0.246-0.242-0.65-0.543-0.867-0.742c-0.217-0.221-0.184-0.271-0.077-0.568
			c1.073-3.186,2.122-5.019,2.278-5.316c0.168-0.306,0.4-0.248,0.551-0.128C13.246,38.05,13.643,38.434,13.847,38.644"/>
		<path fill-rule="evenodd" clip-rule="evenodd" fill="#311B1B" d="M76.797,45.324l-0.242-0.041l0.179-1.098l0.425,0.068
			c0.292,0.049,0.449,0.16,0.407,0.41c-0.033,0.201-0.168,0.258-0.317,0.24l0.21,0.529l-0.29-0.05l-0.181-0.503l-0.116-0.02
			L76.797,45.324L76.797,45.324z M78.12,44.948c-0.16,0.261-0.333,0.52-0.519,0.773c-0.206,0.108-0.46,0.144-0.709,0.101
			c-0.557-0.093-0.995-0.552-0.888-1.195c0.105-0.646,0.665-0.935,1.222-0.842C77.772,43.877,78.205,44.323,78.12,44.948
			L78.12,44.948z M77.117,44.711c0.107,0.018,0.175,0.006,0.195-0.111c0.017-0.115-0.108-0.145-0.199-0.16l-0.167-0.027L76.9,44.677
			L77.117,44.711L77.117,44.711z M77.188,44.022c-0.417-0.072-0.806,0.186-0.883,0.654c-0.074,0.468,0.21,0.843,0.626,0.909v0.002
			c0.405,0.07,0.803-0.186,0.879-0.655C77.888,44.461,77.596,44.089,77.188,44.022L77.188,44.022z"/>
		<path fill="none" stroke="#3E6DB2" stroke-width="2.7664" stroke-miterlimit="2.6131" d="M76.797,45.324l-0.242-0.041l0.179-1.098
			l0.425,0.068c0.292,0.049,0.449,0.16,0.407,0.41c-0.033,0.201-0.168,0.258-0.317,0.24l0.21,0.529l-0.29-0.05l-0.181-0.503
			l-0.116-0.02L76.797,45.324L76.797,45.324z M77.117,44.711c0.107,0.018,0.175,0.006,0.195-0.111
			c0.017-0.115-0.108-0.145-0.199-0.16l-0.167-0.027L76.9,44.677L77.117,44.711L77.117,44.711z M77.602,45.722
			c0.259-0.157,0.422-0.425,0.519-0.773c0.085-0.625-0.348-1.071-0.894-1.163c-0.557-0.093-1.116,0.195-1.222,0.842
			c-0.107,0.644,0.331,1.103,0.888,1.195C77.142,45.865,77.396,45.83,77.602,45.722L77.602,45.722z M77.188,44.022
			c-0.417-0.072-0.806,0.186-0.883,0.654c-0.074,0.468,0.21,0.843,0.626,0.909v0.002c0.405,0.07,0.803-0.186,0.879-0.655
			C77.888,44.461,77.596,44.089,77.188,44.022L77.188,44.022z"/>
		<path fill-rule="evenodd" clip-rule="evenodd" fill="#FFFFFF" d="M16.443,47.168c-0.036,0.057-0.074,0.152-0.149,0.113
			c-0.054-0.027-0.044-0.072-0.023-0.127c0.019-0.064,0.026-0.096,0.005-0.15c-0.066-0.205-0.229-0.379-0.405-0.467
			c-0.401-0.199-1.137,0.039-1.563,0.898c-0.306,0.617-0.432,1.475,0.188,1.781c0.221,0.111,0.734,0.143,0.946-0.133
			c0.03-0.047,0.057-0.084,0.115-0.057c0.042,0.018,0.047,0.062,0.021,0.109c-0.029,0.064-0.143,0.236-0.269,0.445
			c-0.362,0.021-0.778-0.092-1.093-0.25c-0.995-0.492-0.993-1.371-0.64-2.078c0.606-1.225,1.776-1.227,2.418-0.91
			c0.246,0.121,0.455,0.309,0.632,0.527L16.443,47.168L16.443,47.168z"/>
		<path fill-rule="evenodd" clip-rule="evenodd" fill="#FFFFFF" d="M16.977,48.285c0.181-0.457,0.545-1.023,1.053-0.824
			c0.694,0.275,0.399,1.494,0.16,2.098c-0.183,0.459-0.549,1.023-1.053,0.822C16.438,50.107,16.736,48.889,16.977,48.285
			L16.977,48.285z M16.893,50.514c1.098,0.432,1.861-0.461,2.121-1.121c0.385-0.973,0.026-1.758-0.745-2.064
			c-1.095-0.434-1.856,0.465-2.117,1.125C15.765,49.424,16.121,50.205,16.893,50.514L16.893,50.514z"/>
		<path fill-rule="evenodd" clip-rule="evenodd" fill="#FFFFFF" d="M19.829,48.559c0.1-0.299,0.031-0.32-0.03-0.342l-0.192-0.061
			l0.061-0.188l2.126,0.686l-0.146,0.342c-0.03,0.068-0.064,0.207-0.146,0.184c-0.055-0.021-0.065-0.057-0.05-0.115
			c0.021-0.107,0-0.148-0.068-0.205c-0.191-0.154-0.392-0.227-0.709-0.328c-0.06-0.016-0.085-0.027-0.109,0.053l-0.334,1.033
			l0.231,0.074c0.466,0.15,0.508,0.084,0.549-0.051l0.052-0.162l0.142,0.049l-0.281,0.869l-0.142-0.043l0.028-0.088
			c0.05-0.15,0.072-0.219-0.281-0.332l-0.361-0.115l-0.095,0.289c-0.343,1.07-0.327,1.117-0.222,1.15l0.209,0.068l-0.062,0.188
			l-1.232-0.4l0.059-0.184c0.193,0.061,0.222,0.07,0.237,0.021L19.829,48.559L19.829,48.559z"/>
		<path fill-rule="evenodd" clip-rule="evenodd" fill="#FFFFFF" d="M22.214,49.299c0.081-0.303,0.015-0.324-0.049-0.338
			l-0.196-0.053l0.05-0.189l2.158,0.572l-0.129,0.348c-0.024,0.068-0.05,0.213-0.135,0.189c-0.056-0.016-0.066-0.051-0.056-0.111
			c0.02-0.107-0.005-0.145-0.08-0.203c-0.194-0.141-0.402-0.203-0.725-0.285c-0.058-0.016-0.083-0.023-0.104,0.055l-0.279,1.055
			l0.233,0.059c0.474,0.125,0.51,0.057,0.546-0.08l0.044-0.162l0.144,0.035l-0.234,0.889l-0.146-0.037l0.028-0.092
			c0.039-0.146,0.055-0.219-0.297-0.312l-0.371-0.096l-0.079,0.293c-0.287,1.086-0.267,1.133-0.163,1.16l0.212,0.059l-0.049,0.186
			l-1.251-0.33l0.049-0.189c0.193,0.051,0.224,0.061,0.237,0.012L22.214,49.299L22.214,49.299z"/>
		<path fill-rule="evenodd" clip-rule="evenodd" fill="#FFFFFF" d="M24.617,49.91c0.062-0.307-0.004-0.32-0.07-0.334l-0.195-0.043
			l0.041-0.191l2.185,0.465l-0.113,0.357c-0.022,0.068-0.041,0.211-0.127,0.191c-0.056-0.01-0.069-0.045-0.062-0.107
			c0.015-0.104-0.013-0.143-0.088-0.195c-0.204-0.135-0.413-0.186-0.739-0.254c-0.06-0.014-0.085-0.018-0.102,0.064l-0.229,1.061
			l0.236,0.049c0.479,0.105,0.514,0.031,0.542-0.104l0.035-0.166l0.146,0.031l-0.19,0.896L25.741,51.6l0.019-0.092
			c0.034-0.146,0.047-0.219-0.312-0.297l-0.375-0.08l-0.132,0.629c-0.146,0.682-0.141,0.783-0.058,0.799
			c0.404,0.09,0.94,0.18,1.131-0.084c0.026-0.043,0.044-0.064,0.093-0.053c0.042,0.008,0.058,0.043,0.047,0.086
			c-0.014,0.062-0.162,0.369-0.231,0.504l-2.112-0.449l0.042-0.191c0.195,0.043,0.226,0.047,0.236-0.002L24.617,49.91L24.617,49.91z
			"/>
		<path fill-rule="evenodd" clip-rule="evenodd" fill="#FFFFFF" d="M27.146,50.43c0.05-0.311-0.019-0.322-0.082-0.332l-0.199-0.035
			l0.031-0.191l2.202,0.369l-0.096,0.361c-0.02,0.066-0.03,0.213-0.115,0.199c-0.06-0.012-0.072-0.045-0.07-0.105
			c0.011-0.107-0.019-0.146-0.093-0.193c-0.209-0.127-0.423-0.164-0.75-0.221c-0.062-0.012-0.086-0.014-0.1,0.066l-0.182,1.072
			l0.24,0.039c0.481,0.082,0.513,0.008,0.534-0.129l0.03-0.168l0.146,0.023l-0.151,0.904l-0.146-0.025l0.015-0.09
			c0.023-0.152,0.038-0.223-0.327-0.283l-0.374-0.064l-0.108,0.637c-0.112,0.686-0.104,0.785-0.019,0.803
			c0.408,0.066,0.946,0.135,1.125-0.139c0.025-0.041,0.044-0.066,0.091-0.057c0.041,0.008,0.058,0.041,0.05,0.086
			c-0.009,0.062-0.146,0.375-0.21,0.514l-2.128-0.357l0.033-0.193c0.196,0.033,0.228,0.039,0.237-0.012L27.146,50.43L27.146,50.43z"
			/>
		<path fill-rule="evenodd" clip-rule="evenodd" fill="#FFFFFF" d="M31.338,51.955c0.306,0.6,0.665,1.166,1.101,1.645
			c-0.152,0.082-0.361,0.098-0.521,0.082c-0.554-0.057-0.851-0.564-0.789-1.195C31.143,52.328,31.206,52.045,31.338,51.955
			L31.338,51.955z M32.443,52.029c0.067-0.039,0.134-0.062,0.211-0.055c0.28,0.027,0.521,0.406,0.482,0.809
			c-0.015,0.152-0.046,0.301-0.128,0.398c-0.672-0.801-1.329-1.799-1.293-2.152c0.021-0.221,0.196-0.309,0.367-0.293
			c0.129,0.014,0.357,0.113,0.353,0.301c-0.003,0.066,0.003,0.117,0.072,0.125c0.035,0.006,0.054-0.01,0.066-0.043
			c0.026-0.057,0.085-0.33,0.099-0.396c-0.168-0.109-0.367-0.193-0.562-0.209c-0.425-0.041-0.899,0.225-0.954,0.777
			c-0.018,0.182,0.042,0.352,0.113,0.506c-0.409,0.055-0.771,0.4-0.819,0.893c-0.08,0.832,0.574,1.186,1.17,1.242
			c0.344,0.033,0.64-0.018,0.97-0.162c0.155,0.15,0.328,0.307,0.535,0.328c0.272,0.025,0.595-0.207,0.832-0.365l-0.062-0.15
			c-0.077,0.055-0.178,0.1-0.271,0.092c-0.195-0.021-0.312-0.156-0.474-0.326c0.195-0.182,0.321-0.402,0.35-0.689
			c0.031-0.303-0.05-0.504-0.234-0.699l0.009-0.008c0.44,0.23,0.484,0.26,0.592,0.271c0.188,0.02,0.271-0.135,0.276-0.191
			l0.036-0.371c0.008-0.074,0.013-0.141-0.059-0.148c-0.05-0.004-0.065,0.029-0.085,0.074c-0.07,0.223-0.271,0.26-0.444,0.242
			c-0.103-0.012-0.193-0.033-0.289-0.07c-0.113-0.031-0.222-0.064-0.346-0.074c-0.195-0.018-0.456,0.02-0.587,0.221L32.443,52.029
			L32.443,52.029z"/>
		<path fill-rule="evenodd" clip-rule="evenodd" fill="#FFFFFF" d="M36.715,52.475c0.595,0.023,0.715,0.578,0.703,0.83
			c-0.014,0.375-0.248,0.699-0.576,0.686c-0.163-0.004-0.185-0.008-0.154-0.811L36.715,52.475L36.715,52.475z M35.723,51.098
			l0.201,0.006c0.065,0.002,0.137,0.004,0.124,0.32l-0.095,2.514c0,0.051-0.031,0.051-0.233,0.041l-0.009,0.195l0.938,0.037
			c0.284,0.012,0.617,0.02,0.888-0.092c0.304-0.121,0.547-0.373,0.56-0.777c0.023-0.551-0.342-0.812-0.737-0.934v-0.01
			c0.268-0.074,0.647-0.209,0.663-0.684c0.007-0.094-0.023-0.729-0.882-0.76l-1.409-0.053L35.723,51.098L35.723,51.098z
			 M36.763,51.225c0.002-0.062,0.066-0.055,0.101-0.053c0.329,0.014,0.555,0.32,0.541,0.701c-0.008,0.184-0.074,0.424-0.25,0.461
			c-0.126-0.037-0.263-0.047-0.434-0.055L36.763,51.225L36.763,51.225z"/>
		<path fill-rule="evenodd" clip-rule="evenodd" fill="#FFFFFF" d="M39.607,52.924l-0.689-0.006l0.375-1.025L39.607,52.924
			L39.607,52.924z M39.681,53.148c0.091,0.307,0.252,0.85,0.252,0.887c0,0.051-0.053,0.049-0.081,0.049h-0.179v0.195l1.279,0.008
			v-0.195h-0.127c-0.125-0.004-0.148-0.09-0.274-0.49c-0.254-0.809-0.73-2.275-0.729-2.402c0.004-0.1,0.102-0.088,0.102-0.174
			c0-0.049-0.021-0.088-0.06-0.09c-0.059,0-0.322,0.064-0.458,0.096c-0.053,0.107-0.999,2.672-1.081,2.959
			c-0.017,0.074-0.033,0.082-0.138,0.082l-0.118-0.002l-0.003,0.197l0.885,0.008l0.003-0.197l-0.242-0.002
			c-0.062,0-0.114,0-0.114-0.088c0.003-0.17,0.229-0.791,0.243-0.846L39.681,53.148L39.681,53.148z"/>
		<path fill-rule="evenodd" clip-rule="evenodd" fill="#FFFFFF" d="M42.076,52.975l0.015,0.594c0.004,0.105,0.014,0.496,0.119,0.494
			l0.254-0.01l0.005,0.197l-1.295,0.035l-0.007-0.197c0.201-0.004,0.231-0.004,0.231-0.059l-0.064-2.51
			c-0.013-0.316-0.081-0.314-0.145-0.312l-0.201,0.004l-0.008-0.193l1.293-0.035l0.002,0.195l-0.163,0.006
			c-0.062,0.002-0.077,0.002-0.082,0.1l0.038,1.381c0.877-1.139,1.054-1.383,1.051-1.473c-0.003-0.037-0.021-0.037-0.101-0.033
			l-0.269,0.004l-0.006-0.191l0.993-0.027l0.008,0.195l-0.162,0.004c-0.021,0.002-0.096,0.004-0.16,0.092l-0.758,1.004
			c0.466,0.68,1.003,1.535,1.199,1.705c0.082,0.076,0.138,0.068,0.247,0.066l0.007,0.195l-0.829,0.023
			c-0.197,0.004-0.243-0.076-1.058-1.432L42.076,52.975L42.076,52.975z"/>
		<path fill-rule="evenodd" clip-rule="evenodd" fill="#FFFFFF" d="M44.333,51.418c-0.02-0.314-0.088-0.311-0.154-0.305
			l-0.202,0.014l-0.013-0.193l2.23-0.143l-0.011,0.371c-0.007,0.072,0.016,0.217-0.071,0.223c-0.057,0.006-0.081-0.023-0.089-0.088
			c-0.017-0.105-0.053-0.137-0.138-0.166c-0.232-0.072-0.447-0.066-0.779-0.045c-0.06,0.004-0.088,0.006-0.082,0.09l0.069,1.082
			l0.237-0.014c0.49-0.033,0.505-0.109,0.497-0.248l-0.013-0.172l0.149-0.008l0.055,0.916l-0.147,0.008l-0.006-0.092
			c-0.009-0.154-0.015-0.225-0.38-0.203l-0.382,0.025l0.041,0.643c0.045,0.693,0.074,0.787,0.164,0.783
			c0.411-0.025,0.949-0.08,1.062-0.387c0.015-0.047,0.026-0.072,0.075-0.072c0.042-0.006,0.066,0.023,0.07,0.07
			c0.004,0.061-0.06,0.393-0.089,0.545l-2.153,0.135l-0.015-0.193c0.202-0.012,0.232-0.016,0.229-0.066L44.333,51.418L44.333,51.418
			z"/>
		<path fill-rule="evenodd" clip-rule="evenodd" fill="#FFFFFF" d="M47.581,50.961c-0.007-0.07,0.019-0.072,0.089-0.078
			c0.208-0.023,1.075,0.094,1.215,1.451c0.072,0.686-0.124,1.268-0.767,1.338l-0.14,0.01c-0.089,0.012-0.121-0.082-0.195-0.777
			L47.581,50.961L47.581,50.961z M46.955,54.018l1.264-0.133c1.243-0.129,1.441-1.232,1.378-1.84
			c-0.086-0.832-0.647-1.523-1.731-1.41l-1.352,0.139l0.02,0.195l0.2-0.023c0.067-0.004,0.136-0.012,0.17,0.303l0.258,2.5
			c0.006,0.053-0.024,0.053-0.227,0.074L46.955,54.018L46.955,54.018z"/>
		<path fill-rule="evenodd" clip-rule="evenodd" fill="#FFFFFF" d="M53.601,50.197c0.004,0.15,0.014,0.211-0.057,0.225
			c-0.052,0.008-0.079-0.016-0.099-0.076c-0.049-0.156-0.357-0.328-0.676-0.273c-0.753,0.131-0.989,0.879-0.866,1.59
			c0.119,0.676,0.555,1.527,1.23,1.404c0.107-0.018,0.21-0.078,0.296-0.146l-0.107-0.611c-0.081-0.453-0.127-0.465-0.261-0.441
			l-0.168,0.029l-0.036-0.193l1.252-0.221l0.034,0.195l-0.164,0.025c-0.06,0.012-0.073,0.014-0.064,0.111l0.121,0.686
			c0.03,0.186,0.101,0.119,0.118,0.223c0.014,0.062-0.031,0.104-0.075,0.135c-0.03,0.027-0.596,0.381-1.101,0.469
			c-0.864,0.15-1.554-0.322-1.738-1.379c-0.227-1.287,0.686-1.955,1.444-2.09c0.29-0.051,0.604-0.051,0.897,0.023L53.601,50.197
			L53.601,50.197z"/>
		<path fill-rule="evenodd" clip-rule="evenodd" fill="#FFFFFF" d="M55.003,50.783c-0.113-0.48-0.137-1.152,0.39-1.279
			c0.728-0.174,1.187,0.996,1.336,1.627c0.116,0.48,0.139,1.152-0.39,1.279C55.609,52.584,55.154,51.414,55.003,50.783
			L55.003,50.783z M56.217,52.656c1.143-0.275,1.256-1.445,1.091-2.135c-0.242-1.018-0.987-1.455-1.794-1.264
			c-1.148,0.275-1.256,1.443-1.089,2.135C54.668,52.41,55.406,52.848,56.217,52.656L56.217,52.656z"/>
		<path fill-rule="evenodd" clip-rule="evenodd" fill="#FFFFFF" d="M58.258,49.947c-0.149-0.471-0.219-1.141,0.296-1.303
			c0.715-0.225,1.256,0.91,1.448,1.527c0.148,0.471,0.218,1.141-0.304,1.305C58.984,51.701,58.453,50.568,58.258,49.947
			L58.258,49.947z M59.598,51.73c1.122-0.352,1.155-1.529,0.938-2.209c-0.312-0.996-1.082-1.381-1.879-1.131
			c-1.122,0.354-1.148,1.527-0.936,2.205C58.033,51.594,58.803,51.98,59.598,51.73L59.598,51.73z"/>
		<path fill-rule="evenodd" clip-rule="evenodd" fill="#FFFFFF" d="M61.204,47.918c-0.022-0.062,0-0.07,0.066-0.1
			c0.196-0.076,1.062-0.199,1.566,1.068c0.258,0.641,0.229,1.252-0.375,1.492l-0.13,0.051c-0.081,0.035-0.141-0.049-0.4-0.693
			L61.204,47.918L61.204,47.918z M61.441,51.031l1.18-0.471c1.158-0.465,1.049-1.58,0.818-2.148
			c-0.309-0.775-1.039-1.287-2.05-0.883l-1.261,0.502l0.072,0.182l0.187-0.072c0.063-0.027,0.128-0.051,0.244,0.242l0.934,2.332
			c0.021,0.045-0.011,0.059-0.196,0.135L61.441,51.031L61.441,51.031z"/>
		<path fill-rule="evenodd" clip-rule="evenodd" fill="#FFFFFF" d="M64.783,46.498c0.025,0.041,0.027,0.098-0.02,0.121
			c-0.055,0.025-0.085-0.006-0.121-0.049c-0.151-0.195-0.411-0.17-0.581-0.088c-0.227,0.109-0.412,0.395-0.263,0.693
			c0.24,0.482,0.777,0.08,1.421,0.289c0.214,0.066,0.451,0.291,0.572,0.535c0.204,0.418,0.225,1.133-0.555,1.514
			c-0.239,0.117-0.495,0.189-0.766,0.203c-0.088-0.113-0.273-0.357-0.31-0.422c-0.029-0.066-0.023-0.105,0.03-0.133
			c0.057-0.025,0.091,0.02,0.133,0.061c0.243,0.26,0.662,0.166,0.789,0.1c0.289-0.141,0.453-0.471,0.272-0.836
			c-0.261-0.531-0.874-0.148-1.397-0.312c-0.257-0.082-0.437-0.248-0.562-0.506c-0.311-0.629,0.077-1.162,0.542-1.393
			c0.183-0.09,0.372-0.162,0.582-0.176L64.783,46.498L64.783,46.498z"/>
		<path fill-rule="evenodd" clip-rule="evenodd" fill="#FFFFFF" d="M23.902,29.018l-0.789,0.196l0.171-1.104L23.902,29.018
			L23.902,29.018z M24.04,29.216c0.18,0.271,0.499,0.75,0.507,0.784c0.014,0.049-0.046,0.065-0.076,0.07l-0.204,0.054l0.046,0.189
			l1.46-0.36l-0.046-0.19l-0.146,0.036c-0.146,0.035-0.192-0.045-0.438-0.396c-0.489-0.707-1.393-1.989-1.423-2.117
			c-0.026-0.093,0.093-0.111,0.071-0.197c-0.013-0.045-0.047-0.078-0.092-0.07c-0.065,0.017-0.354,0.158-0.496,0.224
			c-0.036,0.12-0.479,2.878-0.498,3.181c-0.004,0.075-0.022,0.089-0.141,0.119l-0.135,0.036l0.046,0.188l1.012-0.248l-0.05-0.19
			l-0.272,0.069c-0.072,0.016-0.13,0.031-0.152-0.056c-0.041-0.166,0.067-0.833,0.067-0.885L24.04,29.216L24.04,29.216z"/>
		<path fill-rule="evenodd" clip-rule="evenodd" fill="#FFFFFF" d="M27.098,28.689c0.119,0.684,0.165,0.774,0.268,0.759
			c0.478-0.085,1.103-0.215,1.202-0.539c0.014-0.046,0.024-0.073,0.08-0.085c0.049-0.008,0.08,0.018,0.088,0.064
			c0.014,0.06-0.028,0.402-0.047,0.557l-2.501,0.438l-0.035-0.193c0.233-0.039,0.268-0.044,0.26-0.097l-0.437-2.476
			c-0.053-0.312-0.136-0.295-0.21-0.281l-0.234,0.042l-0.035-0.192l1.535-0.272l0.033,0.194l-0.229,0.038
			c-0.07,0.015-0.085,0.017-0.08,0.113L27.098,28.689L27.098,28.689z"/>
		<path fill-rule="evenodd" clip-rule="evenodd" fill="#FFFFFF" d="M33.168,25.814l-0.201,0.021
			c-0.044,0.005-0.062,0.008-0.087,0.087l-0.888,3.084c-0.011,0.049-0.021,0.106-0.083,0.116c-0.092,0.008-0.142-0.152-0.177-0.216
			l-1.048-1.83l-0.557,2.142c-0.008,0.049-0.019,0.108-0.08,0.113c-0.091,0.011-0.144-0.149-0.179-0.213l-1.302-2.311
			c-0.24-0.421-0.268-0.439-0.405-0.424l-0.128,0.014l-0.021-0.194l1.453-0.168l0.022,0.196l-0.237,0.028
			c-0.019,0-0.058,0.005-0.055,0.036c0.008,0.077,0.339,0.592,0.998,1.764l0.322-1.271c-0.206-0.364-0.348-0.634-0.479-0.619
			l-0.136,0.015L29.88,25.99l1.527-0.17l0.022,0.192l-0.317,0.038c-0.022,0.002-0.063,0.008-0.062,0.037
			c0.009,0.048,0.574,1.023,1.016,1.799l0.383-1.341c0.036-0.136,0.125-0.45,0.107-0.593c-0.006-0.066-0.052-0.06-0.127-0.055
			l-0.247,0.029l-0.023-0.192l0.988-0.113L33.168,25.814L33.168,25.814z"/>
		<path fill-rule="evenodd" clip-rule="evenodd" fill="#FFFFFF" d="M34.826,27.473l-0.812,0.047l0.371-1.05L34.826,27.473
			L34.826,27.473z M34.926,27.694c0.127,0.3,0.352,0.828,0.355,0.862c0.003,0.053-0.058,0.056-0.089,0.059l-0.212,0.01l0.011,0.199
			l1.503-0.087l-0.01-0.196l-0.149,0.008c-0.149,0.008-0.184-0.078-0.359-0.472c-0.351-0.782-1.006-2.211-1.014-2.34
			c-0.007-0.097,0.112-0.095,0.109-0.18c-0.003-0.046-0.033-0.087-0.077-0.083c-0.068,0.003-0.378,0.088-0.529,0.127
			c-0.055,0.113-0.998,2.741-1.072,3.035c-0.017,0.073-0.039,0.085-0.16,0.092l-0.142,0.008l0.013,0.196l1.039-0.062l-0.008-0.194
			l-0.284,0.016c-0.071,0.006-0.136,0.008-0.139-0.08c-0.011-0.168,0.216-0.808,0.227-0.858L34.926,27.694L34.926,27.694z"/>
		<path fill-rule="evenodd" clip-rule="evenodd" fill="#FFFFFF" d="M39.352,25.604l-0.145,0.003
			c-0.113,0.003-0.124,0.015-0.156,0.075l-0.816,1.591l0.014,0.742c0.002,0.103,0.01,0.493,0.136,0.49l0.277-0.005l0.007,0.196
			l-1.521,0.033l-0.006-0.196c0.252-0.005,0.291-0.005,0.288-0.059l-0.025-1.125l-0.66-1.204c-0.256-0.469-0.294-0.479-0.453-0.475
			h-0.113l-0.004-0.193l1.55-0.033l0.006,0.193l-0.212,0.005c-0.066,0-0.08,0.002-0.08,0.034c0,0.058,0.193,0.373,0.686,1.315
			c0.409-0.859,0.604-1.205,0.602-1.318c-0.003-0.056-0.043-0.056-0.124-0.052l-0.253,0.003l-0.004-0.196l1.005-0.021L39.352,25.604
			L39.352,25.604z"/>
		<path fill-rule="evenodd" clip-rule="evenodd" fill="#FFFFFF" d="M41.842,25.913c0.007,0.047-0.021,0.099-0.082,0.096
			c-0.075,0-0.088-0.04-0.102-0.098c-0.053-0.243-0.339-0.343-0.559-0.345c-0.302-0.008-0.644,0.157-0.649,0.492
			c-0.011,0.54,0.771,0.432,1.332,0.911c0.188,0.164,0.316,0.472,0.309,0.742c-0.009,0.463-0.37,1.109-1.389,1.086
			c-0.314-0.005-0.624-0.062-0.916-0.176c-0.027-0.139-0.094-0.438-0.092-0.519c0-0.072,0.028-0.103,0.1-0.103
			c0.072,0.003,0.086,0.062,0.105,0.12c0.119,0.341,0.604,0.449,0.774,0.452c0.375,0.008,0.725-0.207,0.734-0.612
			c0.011-0.597-0.836-0.541-1.296-0.93c-0.225-0.19-0.322-0.418-0.318-0.706c0.014-0.703,0.707-0.999,1.319-0.986
			c0.238,0.005,0.479,0.029,0.705,0.111L41.842,25.913L41.842,25.913z"/>
		<path fill-rule="evenodd" clip-rule="evenodd" fill="#FFFFFF" d="M44.349,26.07c0.022-0.314-0.061-0.32-0.138-0.325l-0.236-0.014
			l0.013-0.197l2.623,0.174l-0.065,0.37c-0.015,0.072-0.01,0.216-0.113,0.21c-0.067-0.006-0.089-0.04-0.092-0.1
			c-0.003-0.11-0.042-0.144-0.138-0.188c-0.263-0.104-0.514-0.126-0.905-0.152c-0.071-0.005-0.101-0.008-0.106,0.074l-0.071,1.087
			l0.283,0.019c0.574,0.037,0.599-0.038,0.609-0.175l0.012-0.172l0.176,0.012l-0.063,0.915l-0.173-0.012l0.004-0.093
			c0.012-0.155,0.018-0.224-0.415-0.253l-0.447-0.031l-0.02,0.302c-0.074,1.12-0.04,1.165,0.086,1.173l0.256,0.019l-0.011,0.196
			l-1.521-0.101l0.01-0.196c0.238,0.016,0.274,0.019,0.28-0.034L44.349,26.07L44.349,26.07z"/>
		<path fill-rule="evenodd" clip-rule="evenodd" fill="#FFFFFF" d="M48.479,26.174c0.005-0.054,0.05-0.049,0.118-0.042
			c0.384,0.04,0.598,0.454,0.56,0.807c-0.041,0.395-0.294,0.593-0.686,0.552l-0.132-0.015L48.479,26.174L48.479,26.174z
			 M48.317,27.686l0.25,0.028c0.113,0.428,0.382,1.203,0.58,1.467c0.058,0.08,0.11,0.085,0.309,0.105l0.753,0.083l0.021-0.196
			c-0.137-0.014-0.19-0.072-0.254-0.154c-0.265-0.354-0.533-0.921-0.731-1.4c0.533,0.005,0.717-0.417,0.737-0.569
			c0.105-0.983-0.934-1.097-1.043-1.107l-1.651-0.177l-0.02,0.193l0.235,0.028c0.077,0.005,0.16,0.016,0.126,0.328l-0.267,2.5
			c-0.009,0.05-0.042,0.044-0.279,0.023l-0.021,0.192l1.518,0.162l0.021-0.194l-0.297-0.031c-0.121-0.012-0.083-0.404-0.069-0.505
			L48.317,27.686L48.317,27.686z"/>
		<path fill-rule="evenodd" clip-rule="evenodd" fill="#FFFFFF" d="M51.322,26.746c0.05-0.309-0.03-0.323-0.107-0.337l-0.234-0.035
			l0.033-0.193l2.591,0.416l-0.098,0.361c-0.023,0.07-0.031,0.213-0.131,0.199c-0.065-0.011-0.088-0.046-0.082-0.108
			c0.005-0.109-0.027-0.145-0.121-0.197c-0.248-0.128-0.496-0.175-0.882-0.234c-0.073-0.011-0.104-0.018-0.117,0.062l-0.173,1.075
			l0.281,0.045c0.567,0.091,0.601,0.019,0.622-0.12l0.028-0.167l0.171,0.028l-0.146,0.904l-0.172-0.025l0.019-0.093
			c0.023-0.152,0.036-0.224-0.396-0.293l-0.44-0.071l-0.103,0.637c-0.109,0.687-0.093,0.788,0.006,0.805
			c0.479,0.075,1.111,0.157,1.312-0.113c0.028-0.043,0.049-0.066,0.104-0.057c0.052,0.008,0.074,0.042,0.066,0.088
			c-0.013,0.06-0.161,0.372-0.229,0.512l-2.507-0.402l0.028-0.192c0.236,0.035,0.271,0.04,0.281-0.009L51.322,26.746L51.322,26.746z
			"/>
		<path fill-rule="evenodd" clip-rule="evenodd" fill="#FFFFFF" d="M56.486,27.703c-0.005,0.047-0.045,0.09-0.102,0.077
			c-0.072-0.017-0.078-0.06-0.08-0.119c0-0.248-0.259-0.405-0.475-0.453c-0.295-0.068-0.662,0.02-0.739,0.345
			c-0.121,0.526,0.665,0.582,1.114,1.168c0.151,0.2,0.213,0.525,0.151,0.792c-0.104,0.453-0.593,1.005-1.586,0.775
			c-0.308-0.072-0.598-0.193-0.858-0.363c0-0.144,0-0.449,0.016-0.526c0.018-0.07,0.05-0.095,0.118-0.078
			c0.069,0.017,0.073,0.078,0.081,0.135c0.044,0.358,0.499,0.565,0.664,0.604c0.367,0.083,0.751-0.052,0.846-0.45
			c0.133-0.577-0.708-0.697-1.077-1.174c-0.178-0.231-0.229-0.477-0.162-0.759c0.157-0.681,0.896-0.826,1.493-0.689
			c0.229,0.052,0.461,0.126,0.662,0.254L56.486,27.703L56.486,27.703z"/>
		<path fill-rule="evenodd" clip-rule="evenodd" fill="#FFFFFF" d="M59.577,28.729c0.105-0.296,0.028-0.322-0.044-0.35l-0.224-0.081
			l0.066-0.185l1.421,0.508l-0.067,0.185l-0.173-0.064c-0.066-0.022-0.083-0.028-0.123,0.062l-0.771,2.156
			c-0.035,0.093-0.167,0.462-0.049,0.507l0.266,0.094l-0.063,0.184l-1.424-0.506l0.066-0.186c0.224,0.08,0.256,0.092,0.273,0.044
			l0.472-1.32l-1.037-0.372l-0.326,0.903c-0.032,0.098-0.165,0.464-0.049,0.508l0.283,0.1l-0.064,0.184l-1.437-0.512l0.064-0.185
			c0.224,0.08,0.258,0.09,0.273,0.043l0.85-2.369c0.102-0.295,0.027-0.323-0.048-0.349l-0.222-0.08l0.064-0.186l1.437,0.514
			l-0.064,0.186l-0.191-0.068c-0.066-0.025-0.083-0.031-0.123,0.057l-0.374,1.04l1.042,0.373L59.577,28.729L59.577,28.729z"/>
		<path fill-rule="evenodd" clip-rule="evenodd" fill="#FFFFFF" d="M75.503,42.636c-0.029-1.158-1.245-2.007-0.222-3.523
			c0.121-0.149,0.09-0.373-0.019-0.59c-0.159-0.273-0.586-1.055-0.769-1.228c-1.988,1.434-4.734,6.844-5.418,6.852
			c-0.711,0.008-0.213-2.241,0.952-4.18c0.289-0.498,0.162-0.521,0.083-0.667c-0.081-0.121-0.45-0.658-0.58-0.758
			c-0.13-0.093-0.286-0.292-0.555,0.033c-0.27,0.323-3.369,3.076-4.009,3.776c0.334-0.82,1.059-2.185,1.275-2.582
			c0.242-0.472,0.085-0.593-0.073-0.764c-0.157-0.146-0.601-0.684-0.783-0.805c-0.154-0.121-0.284-0.144-0.555,0.129
			c-1.183,1.176-2.106,1.754-2.833,2.035c0.288-2.421-4.271-5.004-6.491,1.98c-1.451,1.695-3.135,2.207-2.551,0.502
			c0.352-0.977,1.595-3.882,2.606-6.061c2.104-0.116,4.647-0.223,6.151-0.202c0.201,0.014,0.32-0.011,0.374-0.085
			c0.039-0.052,0.045-0.119,0.016-0.201l0.002,0.008c-0.056-0.273-0.113-0.477-0.175-0.625l0.003,0.008
			c-0.057-0.205-0.242-0.317-0.504-0.314c-0.62,0.008-3.069,0.178-5.37,0.366c0.224-0.466,0.426-0.857,0.58-1.131
			c0.121-0.223,0.062-0.496-0.096-0.689c-0.183-0.22-0.706-0.779-0.938-0.901c-0.204-0.117-0.355-0.068-0.523,0.303
			c-0.234,0.544-0.643,1.5-1.121,2.599c-0.618,0.057-1.162,0.112-1.576,0.157c-0.329,0.032-0.526,0.377-0.619,0.545
			c-0.008,0.014-0.018,0.025-0.022,0.039v0.003l-0.003,0.002c-0.041,0.105-0.036,0.201,0.02,0.271
			c0.061,0.072,0.165,0.105,0.286,0.088c0.127-0.021,0.682-0.066,1.479-0.116c-0.748,1.674-1.596,3.494-2.274,4.674
			c-1.823,2.883-3.226,2.532-2.735,1.069c0.469-1.438,1.729-3.599,1.946-3.97c0.168-0.297,0.212-0.645-0.372-0.637
			c-0.507,0.005-0.976-0.431-0.85-1.372c0.061-0.517-0.325-0.735-0.543-0.314c-0.601,1.191-2.302,2.939-3.132,3.225
			c0.105-0.866-0.715-1.99-3.148-1.961c-0.562,0.008-1.74,0.041-3.163,0.094c1.131-2.512,2.165-4.672,2.271-4.842
			c0.074-0.149,0.043-0.348-0.061-0.444c-0.185-0.196-0.678-0.608-0.909-0.753c-0.179-0.121-0.434-0.07-0.555,0.129
			c-0.978,1.867-1.905,3.958-2.731,5.993c-1.283,0.057-2.625,0.126-3.831,0.207c1.014-2.424,1.967-4.688,2.298-5.479
			c0.118-0.248,0.189-0.421-0.02-0.642c-0.207-0.218-0.883-0.728-1.09-0.875c-0.206-0.17-0.484-0.118-0.603,0.18
			c-0.439,0.988-1.768,4.165-2.95,7.006c-0.222,0.021-0.426,0.046-0.61,0.068c-0.811,0.111-0.664,0.75-0.006,0.693
			c0.104-0.005,0.201-0.008,0.301-0.005c-0.94,2.259-1.717,4.147-1.758,4.264c-0.145,0.32-0.137,0.617,0.126,0.911
			c0.237,0.292,0.91,0.802,1.064,0.924c0.182,0.121,0.333,0.093,0.478-0.227c0.395-1.067,1.256-3.176,2.169-5.369
			c1.403,0.748,2.339,2.306,2.248,4.551c-0.02,0.243-0.087,0.538,0.096,0.686c0.18,0.147,0.466,0.367,0.645,0.464
			c0.335,0.141,0.453-0.104,0.549-0.353c0.414-1.413,1.486-3.966,2.551-6.354c1.246-0.065,2.289-0.102,2.6-0.077
			c-3.584,2.487-3.013,6.701,0.208,6.658c2.076-0.027,3.743-2.873,3.777-4.698c1.009-0.493,1.8-1.282,2.604-2.117
			c0.028,0.126,0.085,0.372,0.296,0.616c-3.179,4.231-2.325,5.851-0.45,5.825c1.878-0.025,2.73-1.314,3.221-1.963
			c-0.623,2.25,2.06,2.984,4.324,0.463c0.822,3.295,5.258,2.228,6.38-2.194c0.912-0.297,1.828-0.815,2.428-1.269
			c-0.783,1.142-1.735,3.277-1.832,3.523c-0.121,0.227-0.042,0.349,0.144,0.541c0.209,0.195,0.468,0.439,0.833,0.706
			c0.154,0.146,0.379,0.118,0.627-0.179c1.722-1.994,3.502-3.55,3.801-3.847c-1.181,1.37-1.525,4.532,0.706,4.505
			c1.75-0.021,1.452-1.574,4.865-5.686c-1.092,2.702,0.266,3.155,0.29,4.068c0.036,1.354-1.542,1.201-1.58-0.256
			c-0.006-0.195-0.089-0.44-0.331-0.018c-0.217,0.396-0.363,0.619-0.459,0.794c-0.122,0.147-0.067,0.321,0.139,0.44
			C73.014,45.283,75.563,44.904,75.503,42.636L75.503,42.636z M35.853,41.478c-0.408-1.102-1.282-2.401-2.102-2.635
			c0.725-0.085,1.946-0.186,3.21-0.271C36.563,39.572,36.193,40.554,35.853,41.478L35.853,41.478z M42.201,43.57
			c-1.422,0.016-1.836-2.198,0.527-3.929c0.06,0.443,0.694,1.32,1.85,1.036C44.536,41.58,43.608,43.551,42.201,43.57L42.201,43.57z
			 M58.943,40.005c0.242,0.967,0.974,1.258,1.854,1.186C59.351,46.135,55.441,43.4,58.943,40.005L58.943,40.005z M61.458,41.083
			c0.113-0.028,0.227-0.06,0.342-0.096C61.692,41.025,61.576,41.055,61.458,41.083L61.458,41.083z"/>
		<path fill-rule="evenodd" clip-rule="evenodd" fill="#FFFFFF" d="M4.783,32.903c4.458-0.647,9.796-1.149,14.427-1.208
			c0.335-0.002,0.404,0.229,0.451,0.422c0.025,0.163,0.152,0.619,0.201,0.811c0.021,0.144-0.005,0.325-0.351,0.328
			c-0.353,0.006-7.122,0.296-9.327,0.585c0.312,0.342,0.726,0.897,0.865,1.098c0.131,0.222,0.172,0.526-0.065,1.028
			c-1.14,2.321-2.774,6.467-3.723,9.165c-0.127,0.34-0.424,0.555-0.903,0.207c-0.492-0.354-0.759-0.602-0.995-0.793
			c-0.214-0.18-0.28-0.311-0.152-0.656c1.18-3.036,3.087-7.492,4.42-9.919c-0.844,0.042-4.556,0.464-5.275,0.536
			c-0.176,0.021-0.344-0.039-0.234-0.253C4.229,34.028,4.601,33.148,4.783,32.903L4.783,32.903z"/>
		<path fill-rule="evenodd" clip-rule="evenodd" fill="#FFFFFF" d="M13.083,35.897c-0.054-1.839,2.713-1.69,2.757-0.033
			C15.887,37.532,13.138,37.993,13.083,35.897L13.083,35.897z"/>
		<path fill-rule="evenodd" clip-rule="evenodd" fill="#FFFFFF" d="M13.932,38.644c0.312,0.312,0.201,0.516,0.083,0.73
			c-0.237,0.461-1.581,3.355-1.867,4.347c1.87-1.143,5.245-5.163,5.542-5.665c0.103-0.152,0.271-0.143,0.45-0.034
			c0.168,0.098,0.927,0.629,1.034,0.728c0.085,0.082,0.143,0.213-0.021,0.45c-0.14,0.234-1.508,2.964-1.712,3.485
			c1.32-1.398,3.822-3.99,4.066-4.178c0.245-0.184,0.343-0.074,0.472,0.015c0.127,0.09,0.855,0.73,0.963,0.822
			c0.085,0.09,0.195,0.25,0.015,0.498c-0.346,0.464-1.476,2.601-1.619,3.069c1.025-1.047,3.738-3.562,4.004-3.77
			c0.256-0.209,0.498-0.167,0.743,0.031c0.237,0.221,0.665,0.562,0.794,0.734c0.131,0.171,0.101,0.212-0.041,0.405
			c-1.651,2.36-2.346,4.433-0.756,4.086c-0.802,1.688-3.427,0.854-2.776-0.96c0.378-1.083,0.894-2.078,1.31-2.569
			c-1.405,0.983-3.445,3.249-3.951,3.935c-0.098,0.124-0.286,0.152-0.415,0.044c-0.225-0.18-0.972-0.709-1.183-0.859
			c-0.235-0.17-0.127-0.404-0.006-0.619c0.118-0.227,1.343-2.467,1.735-2.939c-1.052,0.813-3.136,2.956-4.148,4.238
			c-0.121,0.166-0.268,0.188-0.511,0.109c-0.22-0.098-0.764-0.428-0.975-0.538c-0.201-0.108-0.31-0.228-0.16-0.495
			c0.446-0.932,1.334-2.892,1.524-3.182c-2.309,2.452-4.028,3.814-4.541,4.061c-0.413,0.191-0.529,0.191-0.83-0.078
			c-0.245-0.242-0.65-0.543-0.866-0.742c-0.218-0.221-0.185-0.271-0.078-0.568c1.073-3.186,2.122-5.019,2.279-5.316
			c0.168-0.306,0.399-0.248,0.55-0.128C13.331,38.05,13.728,38.434,13.932,38.644L13.932,38.644z"/>
		<path fill-rule="evenodd" clip-rule="evenodd" fill="#FFFFFF" d="M76.797,45.324l-0.242-0.041l0.179-1.098l0.425,0.068
			c0.292,0.049,0.449,0.16,0.407,0.41c-0.033,0.201-0.168,0.258-0.317,0.24l0.21,0.529l-0.29-0.05l-0.181-0.503l-0.116-0.02
			L76.797,45.324L76.797,45.324z M78.12,44.948c-0.16,0.261-0.333,0.52-0.519,0.773c-0.206,0.108-0.46,0.144-0.709,0.101
			c-0.557-0.093-0.995-0.552-0.888-1.195c0.105-0.646,0.665-0.935,1.222-0.842C77.772,43.877,78.205,44.323,78.12,44.948
			L78.12,44.948z M77.117,44.711c0.107,0.018,0.175,0.006,0.195-0.111c0.017-0.115-0.108-0.145-0.199-0.16l-0.167-0.027L76.9,44.677
			L77.117,44.711L77.117,44.711z M77.188,44.022c-0.417-0.072-0.806,0.186-0.883,0.654c-0.074,0.468,0.21,0.843,0.626,0.909v0.002
			c0.405,0.07,0.803-0.186,0.879-0.655C77.888,44.461,77.596,44.089,77.188,44.022L77.188,44.022z"/>
	</g>
</g>
<g>
</g>
<g>
</g>
<g>
</g>
<g>
</g>
<g>
</g>
<g>
</g>
</svg>
